<svg width="428" height="474" viewBox="0 0 428 474" fill="none" xmlns="http://www.w3.org/2000/svg">
<g filter="url(#filter0_d_2_3499)">
<path d="M45.1201 261.87C44.9601 261.87 44.8201 261.83 44.7001 261.73C44.5801 261.64 44.5201 261.53 44.5201 261.41C44.6601 259.45 44.7501 257.48 44.7801 255.49V251.27C44.7801 249.36 44.6801 247.8 44.4701 246.6L46.8101 247.58H49.6901C49.7001 247.49 49.7301 247.34 49.7601 247.15C50.0101 245.52 50.1901 244.33 50.2801 243.57H45.7501C44.6201 243.59 43.4301 243.69 42.1801 243.89L41.5601 242.75C42.4301 242.84 43.4901 242.9 44.7301 242.93H58.2201L58.8201 242.13C58.8201 242.13 58.9101 242.02 58.9901 241.92C59.2801 241.51 59.4801 241.31 59.5901 241.31C59.7501 241.31 60.1801 241.58 60.8801 242.13C61.5801 242.68 61.9301 243.03 61.9301 243.2C61.8701 243.44 61.6501 243.56 61.2901 243.56H52.5901C51.8301 245.22 51.1001 246.55 50.4001 247.57H56.8301L57.2601 246.95C57.2601 246.95 57.3301 246.87 57.3801 246.79C57.6001 246.47 57.7701 246.31 57.8801 246.31C58.0401 246.31 58.4101 246.56 59.0001 247.07C59.5901 247.58 59.8801 247.92 59.8801 248.08C59.7101 248.31 59.3901 248.47 58.9301 248.56V255.65C58.9601 257.53 59.0301 259.32 59.1201 261C59.0101 261.14 58.7701 261.29 58.4101 261.46C58.0101 261.63 57.6601 261.71 57.3601 261.71C57.1101 261.71 56.9801 261.56 56.9801 261.25C57.0001 261.16 57.0101 261.03 57.0301 260.86C57.0501 260.72 57.0601 260.61 57.0801 260.52V259.93H46.6701V260.34C46.6801 260.46 46.7001 260.59 46.7001 260.74C46.7001 260.88 46.7201 260.99 46.7401 261.05C46.7101 261.23 46.5301 261.41 46.2201 261.57C45.8901 261.75 45.5301 261.84 45.1501 261.84L45.1201 261.87ZM46.6401 253.19H57.0501V248.25H46.6401V253.19ZM46.6401 259.3H57.0501V253.85H46.6401V259.3Z" fill="white"/>
<path d="M52.2398 286.98C51.9098 286.98 51.7398 286.83 51.7398 286.52C51.8198 285.64 51.8698 284.48 51.9098 283.03V281.05H45.2598C44.1298 281.07 42.9398 281.17 41.6898 281.37L41.0698 280.21C41.8498 280.3 42.7898 280.36 43.8798 280.39H45.2098V278.04C45.2098 276.13 45.1098 274.57 44.8998 273.37L47.4298 274.37H51.9098V270.06H46.9298C45.2898 272.34 43.4598 274.12 41.4298 275.39L41.1398 275.14C42.4098 273.89 43.6398 272.23 44.8298 270.15C45.2098 269.48 45.5798 268.68 45.9498 267.76C46.3098 266.83 46.5498 266.06 46.6598 265.44C48.0398 265.97 48.9098 266.35 49.2598 266.58C49.4998 266.76 49.4798 266.89 49.2098 266.97L48.7298 267.11C48.3298 267.89 47.8898 268.65 47.3998 269.41H57.9098L58.5098 268.64C58.5598 268.58 58.6198 268.5 58.6998 268.39C58.9898 268.03 59.1798 267.84 59.2698 267.84C59.4298 267.84 59.8498 268.11 60.5298 268.65C61.2098 269.19 61.5498 269.54 61.5498 269.71C61.4898 269.95 61.2698 270.07 60.9098 270.07H53.8298V274.38H57.3998L57.9498 273.63C57.9498 273.63 58.0498 273.51 58.1198 273.4C58.3898 273.05 58.5698 272.88 58.6698 272.88C58.8298 272.88 59.2198 273.14 59.8498 273.66C60.4798 274.18 60.7898 274.52 60.7898 274.68C60.7398 274.91 60.5398 275.02 60.1698 275.02H53.8298V280.4H58.6698L59.2698 279.6C59.3198 279.54 59.3798 279.46 59.4598 279.35C59.7498 278.99 59.9398 278.8 60.0298 278.8C60.1898 278.8 60.6098 279.07 61.2898 279.62C61.9698 280.17 62.3098 280.52 62.3098 280.69C62.2598 280.93 62.0598 281.05 61.7098 281.05H53.8198V282.85C53.8498 284.29 53.8998 285.44 53.9598 286.29C53.8598 286.44 53.6798 286.59 53.4098 286.72C53.0598 286.89 52.6598 286.97 52.2198 286.97L52.2398 286.98ZM47.1398 280.4H51.9098V275.02H47.1398V280.4Z" fill="white"/>
<path d="M41.7098 312.07L41.5898 311.75C42.8398 311.31 44.1298 310.7 45.4498 309.93C46.7398 309.19 47.7398 308.47 48.4498 307.79H45.1598V308.38C45.1598 308.5 44.9998 308.63 44.6698 308.78C44.3498 308.92 44.0198 309 43.7098 309C43.5698 309 43.4498 308.96 43.3498 308.86C43.2498 308.77 43.2098 308.66 43.2098 308.54C43.3098 307.22 43.3698 305.88 43.3998 304.53V302.27C43.3998 300.36 43.2998 298.8 43.0898 297.6C44.4198 297.92 45.2598 298.17 45.5898 298.35C45.8298 298.49 45.8198 298.63 45.5698 298.78L45.1598 299.03V307.12H58.9098L59.4298 306.37C59.4798 306.31 59.5498 306.22 59.6398 306.1C59.8598 305.78 60.0198 305.62 60.1198 305.62C60.2798 305.62 60.6798 305.88 61.3198 306.39C61.9598 306.91 62.2798 307.25 62.2798 307.42C62.2298 307.66 62.0298 307.78 61.6798 307.78H48.5998C49.6198 308.39 50.2298 308.81 50.4298 309.03C50.5898 309.21 50.4998 309.31 50.1698 309.33H49.5998C48.6498 309.89 47.4698 310.42 46.0698 310.9C44.5798 311.43 43.1198 311.82 41.6898 312.06L41.7098 312.07ZM48.8098 296.4C47.6798 296.4 46.8898 296.36 46.4498 296.29C45.9398 296.2 45.5998 296.01 45.4298 295.72C45.2698 295.46 45.1898 295.02 45.1898 294.4V292.69C45.1898 291.92 45.1498 291.31 45.0698 290.87C46.2798 291.19 47.0198 291.44 47.3098 291.62C47.5298 291.74 47.5298 291.88 47.3098 292.03L46.9498 292.26V293.17C48.6498 292.96 50.5198 292.65 52.5498 292.24C54.2498 291.92 55.6698 291.5 56.8098 290.96C57.5398 291.84 57.9598 292.41 58.0698 292.67C58.1698 292.9 58.0698 292.99 57.7598 292.94L57.1898 292.85C53.6998 293.29 50.2798 293.57 46.9498 293.69V294.37C46.9498 294.7 47.0298 294.91 47.1998 294.97C47.3698 295.04 47.8598 295.07 48.6898 295.07H56.9598C57.5798 295.07 57.9798 295.02 58.1798 294.91C58.4698 294.7 58.8498 294.07 59.3198 293.04H59.5098L59.5798 294.86C60.0598 294.97 60.3598 295.06 60.4898 295.13C60.6198 295.21 60.6798 295.31 60.6798 295.45C60.6798 295.83 60.4498 296.07 59.9898 296.18C59.4998 296.32 58.4298 296.39 56.7698 296.39H48.8098V296.4ZM47.9098 306.56C47.5898 306.56 47.4298 306.41 47.4298 306.1C47.4898 305.4 47.5498 304.46 47.5998 303.27V301.63C47.5998 299.72 47.4998 298.16 47.2898 296.96L49.5298 297.87H55.9098L56.3398 297.3C56.3398 297.3 56.4398 297.19 56.5098 297.09C56.6998 296.85 56.8398 296.73 56.9398 296.73C57.0998 296.73 57.4598 296.97 58.0398 297.44C58.6098 297.91 58.8998 298.23 58.8998 298.4C58.6598 298.63 58.3398 298.77 57.9498 298.83V301.15C57.9998 303.09 58.0498 304.61 58.1198 305.68C58.0198 305.83 57.7998 305.98 57.4498 306.14C57.0698 306.31 56.7398 306.39 56.4498 306.39H56.1398V305.55H49.3998V305.96C49.3998 306.07 49.2398 306.19 48.9198 306.32C48.5898 306.47 48.2498 306.55 47.9198 306.55L47.9098 306.56ZM49.3798 300.18H56.1198V298.54H49.3798V300.18ZM49.3798 302.5H56.1198V300.84H49.3798V302.5ZM49.3798 304.87H56.1198V303.16H49.3798V304.87ZM59.6498 311.75C58.2198 310.43 56.1898 309.39 53.5698 308.63L53.6898 308.27C55.7098 308.45 57.3698 308.75 58.6698 309.16C59.7498 309.49 60.5398 309.89 61.0298 310.35C61.4298 310.75 61.5798 311.12 61.4798 311.47C61.3998 311.79 61.1698 311.99 60.7898 312.08C60.3898 312.16 60.0098 312.05 59.6498 311.76V311.75Z" fill="white"/>
<path d="M42.7101 336.98C42.5701 336.98 42.4601 336.93 42.3801 336.84C42.3001 336.75 42.2601 336.64 42.2601 336.52C42.3201 335.7 42.3801 334.59 42.4301 333.19V331.3C42.4301 329.39 42.3301 327.83 42.1201 326.63L44.3101 327.54H48.3801L48.7901 327.04C48.7901 327.04 48.8901 326.93 48.9601 326.83C49.1501 326.62 49.2901 326.51 49.3901 326.51C49.5501 326.51 49.9201 326.73 50.5001 327.16C51.0801 327.59 51.3701 327.89 51.3701 328.06C51.1801 328.27 50.8601 328.42 50.4201 328.52V331.03C50.4701 333.13 50.5201 334.74 50.5901 335.88C50.4901 336.03 50.2601 336.18 49.9001 336.34C49.5301 336.49 49.2001 336.57 48.9001 336.57C48.6601 336.57 48.5401 336.42 48.5401 336.11C48.5501 336.02 48.5701 335.9 48.5901 335.75C48.6001 335.63 48.6201 335.53 48.6401 335.45V334.88H44.2101V335.38C44.2201 335.53 44.2301 335.71 44.2301 335.9C44.2401 336.07 44.2601 336.19 44.2801 336.26C44.2501 336.41 44.0701 336.56 43.7601 336.72C43.4401 336.89 43.1001 336.97 42.7401 336.97L42.7101 336.98ZM44.1901 334.22H48.6201V328.2H44.1901V334.22ZM46.3301 326C46.0601 326 45.9201 325.85 45.9201 325.54C45.9801 324.84 46.0301 323.95 46.0601 322.85V321.28C46.0601 319.37 45.9601 317.81 45.7501 316.61L48.0401 317.57H55.4701L55.9001 316.96C55.9001 316.96 56.0001 316.84 56.0701 316.73C56.2601 316.47 56.4001 316.34 56.5001 316.34C56.6601 316.34 57.0301 316.59 57.6101 317.09C58.1901 317.59 58.4801 317.93 58.4801 318.09C58.3201 318.3 58.0001 318.45 57.5301 318.55V320.81C57.5801 322.71 57.6301 324.17 57.7001 325.18C57.6001 325.33 57.3801 325.48 57.0101 325.61C56.6501 325.78 56.3101 325.86 56.0101 325.86C55.7401 325.86 55.6001 325.71 55.6001 325.4C55.6201 325.31 55.6301 325.19 55.6501 325.04C55.6701 324.92 55.6801 324.82 55.7001 324.74V324.17H47.9101V324.58C47.9201 324.7 47.9401 324.83 47.9401 324.98C47.9401 325.12 47.9601 325.23 47.9801 325.29C47.9501 325.44 47.7701 325.59 47.4301 325.75C47.0601 325.92 46.7001 326 46.3301 326ZM47.9101 323.49H55.7001V318.23H47.9101V323.49ZM53.3101 337.03C53.1801 337.03 53.0801 336.98 53.0001 336.89C52.9201 336.8 52.8801 336.69 52.8801 336.57C52.9601 335.74 53.0101 334.62 53.0401 333.22V331.31C53.0401 329.4 52.9401 327.84 52.7301 326.64L54.9201 327.55H59.1601L59.5701 327.05C59.5701 327.05 59.6701 326.94 59.7401 326.84C59.9301 326.63 60.0701 326.52 60.1701 326.52C60.3301 326.52 60.7001 326.74 61.2901 327.17C61.8801 327.6 62.1701 327.9 62.1701 328.07C61.9801 328.28 61.6501 328.44 61.1901 328.55V331.1C61.2401 333.26 61.2901 334.92 61.3601 336.09C61.2801 336.21 61.0501 336.34 60.6801 336.49C60.3101 336.63 59.9801 336.71 59.6901 336.71C59.4401 336.71 59.3101 336.56 59.3101 336.25C59.3301 336.14 59.3401 336.01 59.3601 335.84C59.3801 335.7 59.3901 335.59 59.4101 335.5V334.88H54.8301V335.4C54.8501 335.51 54.8501 335.64 54.8501 335.79C54.8801 336.03 54.9101 336.21 54.9201 336.31C54.8701 336.46 54.6901 336.61 54.3701 336.77C54.0201 336.94 53.6601 337.02 53.3001 337.02L53.3101 337.03ZM54.8401 334.22H59.4201V328.2H54.8401V334.22Z" fill="white"/>
<path d="M51.7902 354.91C50.8702 354.91 50.0802 354.59 49.4202 353.96C48.7602 353.33 48.4302 352.57 48.4302 351.69C48.4302 350.81 48.7502 350.06 49.4102 349.43C50.0602 348.81 50.8502 348.5 51.7902 348.5C52.7302 348.5 53.5202 348.81 54.1602 349.42C54.8002 350.03 55.1202 350.79 55.1202 351.69C55.1202 352.59 54.8002 353.35 54.1402 353.97C53.4902 354.59 52.7002 354.9 51.7802 354.9L51.7902 354.91ZM51.7902 354.14C52.4702 354.14 53.0602 353.9 53.5602 353.42C54.0602 352.94 54.3102 352.37 54.3102 351.7C54.3102 351.03 54.0602 350.46 53.5702 349.99C53.0802 349.52 52.4802 349.28 51.7802 349.28C51.0802 349.28 50.4802 349.52 49.9802 349.99C49.4802 350.46 49.2302 351.03 49.2302 351.7C49.2302 352.37 49.4802 352.94 49.9802 353.42C50.4802 353.9 51.0802 354.14 51.7802 354.14H51.7902Z" fill="white"/>
<path d="M41.64 386.97L41 385.83C41.87 385.92 42.93 385.98 44.17 386.01H50.84V382.48H47.55C46.42 382.49 45.23 382.6 43.98 382.8L43.36 381.66C44.23 381.75 45.29 381.81 46.53 381.84H50.84C50.84 380.79 50.78 379.93 50.67 379.24C51.91 379.56 52.69 379.81 53 379.99C53.22 380.13 53.23 380.26 53.02 380.4L52.69 380.61V381.84H56.98L57.53 381.09C57.53 381.09 57.61 380.98 57.67 380.88C57.94 380.5 58.13 380.31 58.24 380.31C58.4 380.31 58.79 380.57 59.41 381.08C60.03 381.6 60.34 381.94 60.34 382.11C60.29 382.35 60.09 382.47 59.74 382.47H52.69V386H58.88L59.43 385.23C59.48 385.17 59.53 385.09 59.6 384.98C59.87 384.62 60.05 384.43 60.15 384.43C60.31 384.43 60.71 384.7 61.37 385.24C62.02 385.78 62.35 386.13 62.35 386.3C62.29 386.53 62.09 386.64 61.75 386.64H45.21C44.08 386.65 42.89 386.76 41.64 386.96V386.97ZM42.59 380.02C42.46 380.02 42.35 379.97 42.24 379.88C42.14 379.79 42.09 379.68 42.09 379.56C42.09 379.47 42.09 379.35 42.11 379.2C42.22 377.6 42.29 376.01 42.32 374.41V371.61C42.32 369.7 42.22 368.14 42.01 366.94L44.25 367.87H49.16L49.66 367.19C49.66 367.19 49.73 367.08 49.78 367.01C50.03 366.68 50.22 366.51 50.33 366.51C50.49 366.51 50.84 366.75 51.39 367.22C51.94 367.69 52.21 368.01 52.21 368.18C52.15 368.41 51.95 368.52 51.61 368.52H47.99V370.8H49.71L50.07 370.37C50.07 370.37 50.16 370.29 50.24 370.21C50.4 370.03 50.53 369.94 50.62 369.94C50.78 369.94 51.11 370.13 51.62 370.5C52.13 370.87 52.38 371.14 52.38 371.31C52.17 371.51 51.89 371.64 51.55 371.7V372.82C51.55 373 51.55 373.23 51.57 373.5C51.6 374.14 51.63 374.62 51.67 374.94C51.59 375.08 51.39 375.21 51.06 375.35C50.73 375.49 50.44 375.56 50.17 375.56H49.91V374.88H48V377.66H49.64L50.64 376.36C51.29 376.89 51.94 377.42 52.59 377.95L52.57 378C53.89 377.18 55.05 376.2 56.05 375.06C54.92 373.33 54.12 371.17 53.64 368.59H53.26C53.1 368.61 52.94 368.71 52.79 368.91L52.15 367.75C53.02 367.84 54.08 367.9 55.32 367.93H59.23L59.71 367.41C59.71 367.41 59.8 367.33 59.88 367.25C60.12 367.01 60.29 366.89 60.38 366.89C60.52 366.89 60.85 367.12 61.37 367.59C61.89 368.05 62.14 368.37 62.14 368.53C62 368.7 61.69 368.8 61.23 368.85C60.5 371.3 59.37 373.35 57.85 375.02C59.15 376.27 60.71 377.24 62.52 377.94L62.47 378.17C61.71 378.25 61.17 378.72 60.85 379.58C59.2 378.65 57.83 377.49 56.75 376.09C55.26 377.4 53.44 378.42 51.29 379.17L51.08 378.83C51.43 378.68 51.75 378.51 52.06 378.33H43.98V378.74C43.99 378.86 44 379 44 379.15C44.01 379.29 44.03 379.38 44.05 379.42C44 379.56 43.86 379.69 43.62 379.83C43.33 379.98 42.99 380.06 42.6 380.06L42.59 380.02ZM43.97 370.8H46.33V368.52H43.97V370.8ZM43.97 374.19H49.9V371.46H43.97V374.19ZM43.97 377.63H46.33V374.85H43.97V377.63ZM56.86 373.96C57.99 372.38 58.81 370.58 59.31 368.56H54.12C54.69 370.66 55.61 372.46 56.86 373.96Z" fill="white"/>
<path d="M47.48 397.32C47.21 397.32 47.07 397.17 47.07 396.86C47.1 396.66 47.13 396.39 47.17 396.04C47.18 395.89 47.19 395.76 47.19 395.65V394.81H45.19C44.06 394.83 42.87 394.93 41.62 395.13L41.02 393.94C41.89 394.03 42.95 394.09 44.19 394.12H47.19C47.19 392.9 47.13 391.94 47 391.23C48.29 391.55 49.08 391.8 49.38 391.98C49.62 392.12 49.62 392.26 49.38 392.41L49 392.66V394.12H54.34C54.34 392.9 54.28 391.94 54.15 391.23C55.45 391.55 56.26 391.8 56.58 391.98C56.82 392.13 56.81 392.28 56.56 392.41L56.15 392.66V394.12H58.96L59.48 393.37C59.48 393.37 59.58 393.25 59.65 393.14C59.92 392.79 60.1 392.62 60.2 392.62C60.36 392.62 60.74 392.88 61.34 393.41C61.94 393.94 62.25 394.28 62.25 394.45C62.2 394.69 62 394.81 61.65 394.81H56.15V395.45C56.17 395.59 56.17 395.76 56.17 395.97C56.2 396.26 56.23 396.47 56.24 396.61C56.19 396.76 56.02 396.9 55.72 397.02C55.4 397.16 55.05 397.22 54.65 397.22C54.36 397.22 54.22 397.07 54.22 396.76C54.25 396.58 54.28 396.32 54.32 395.99C54.32 395.84 54.32 395.72 54.34 395.63V394.81H49V395.49C49.01 395.64 49.02 395.82 49.02 396.04C49.05 396.36 49.07 396.59 49.09 396.72C49.04 396.87 48.86 397.01 48.53 397.13C48.2 397.25 47.85 397.31 47.47 397.31L47.48 397.32ZM47.17 412.36C47.03 412.36 46.9 412.31 46.8 412.22C46.7 412.13 46.65 412.02 46.65 411.9C46.76 410.49 46.83 408.94 46.86 407.25V404.67C45.14 406.34 43.29 407.66 41.31 408.61L41.1 408.31C43.9 406.44 46.22 403.85 48.08 400.54H45.48C44.35 400.56 43.16 400.66 41.91 400.86L41.29 399.7C42.16 399.79 43.22 399.85 44.46 399.88H48.46C48.79 399.26 49.09 398.56 49.34 397.78C49.58 397.02 49.74 396.34 49.82 395.75C51.17 396.25 52.01 396.62 52.35 396.84C52.6 397.01 52.59 397.12 52.3 397.18L51.85 397.29C51.52 398.06 51.08 398.92 50.54 399.86H58.62L59.17 399.09C59.22 399.03 59.28 398.95 59.36 398.84C59.63 398.49 59.81 398.32 59.91 398.32C60.07 398.32 60.47 398.59 61.1 399.13C61.74 399.67 62.05 400.02 62.05 400.19C61.99 400.42 61.79 400.53 61.45 400.53H50.16C49.48 401.61 48.71 402.63 47.87 403.58L48.94 404.04H57.14L57.55 403.43C57.55 403.43 57.65 403.31 57.72 403.2C57.91 402.94 58.05 402.81 58.15 402.81C58.31 402.81 58.68 403.06 59.26 403.56C59.84 404.06 60.13 404.4 60.13 404.56C59.99 404.76 59.68 404.9 59.2 404.99V407.22C59.25 409.1 59.3 410.55 59.37 411.57C59.27 411.71 59.04 411.84 58.66 411.98C58.28 412.13 57.95 412.21 57.66 412.21C57.41 412.21 57.28 412.06 57.28 411.75C57.3 411.67 57.31 411.57 57.33 411.43C57.35 411.32 57.36 411.23 57.38 411.16V410.61H48.68V411.73C48.68 411.82 48.54 411.94 48.27 412.07C47.95 412.24 47.59 412.32 47.2 412.32L47.17 412.36ZM48.65 409.99H57.35V404.73H48.65V409.99Z" fill="white"/>
<path d="M46.4799 437.4C46.1599 437.4 45.9999 437.25 45.9999 436.94C46.0599 436.38 46.1099 435.66 46.1399 434.78V433.46C44.6499 434.36 42.9699 435.09 41.1099 435.65L40.9399 435.33C42.2399 434.72 43.4499 433.98 44.5599 433.1C45.6999 432.2 46.5999 431.28 47.2499 430.32H45.2699C44.1399 430.33 42.9499 430.44 41.6999 430.64L41.0799 429.5C41.9499 429.59 43.0099 429.65 44.2499 429.68H58.9699L59.8799 428.61C58.5299 428.23 57.3899 427.74 56.4699 427.15C54.9599 427.94 53.1099 428.51 50.9199 428.86L50.7799 428.5C52.7199 428 54.2999 427.33 55.5199 426.49C54.6099 425.69 53.9099 424.73 53.3999 423.62H52.9899C52.8199 423.64 52.6399 423.74 52.4699 423.94L51.8499 422.8C52.7199 422.89 53.7799 422.95 55.0199 422.98H58.3099L58.7899 422.43C58.7899 422.43 58.8599 422.35 58.9099 422.29C59.1599 422.02 59.3499 421.88 59.4599 421.88C59.5999 421.88 59.9099 422.11 60.3799 422.56C60.8499 423.02 61.0799 423.33 61.0799 423.49C60.9499 423.66 60.6299 423.75 60.1299 423.76C59.5399 424.75 58.7999 425.57 57.9099 426.22C59.0699 426.62 60.5299 426.9 62.2899 427.06V427.31C61.5899 427.49 61.1499 428.01 60.9799 428.86L60.7899 428.82C60.8899 428.9 61.0399 429.02 61.2699 429.18C61.6999 429.51 62.0099 429.77 62.1999 429.93C62.1499 430.17 61.9499 430.29 61.5999 430.29H49.8499C49.3999 430.87 48.8499 431.44 48.1799 432L48.2999 432.05H57.2599L57.6899 431.53C57.6899 431.53 57.7699 431.45 57.8299 431.37C58.0499 431.13 58.2099 431.01 58.3099 431.01C58.4699 431.01 58.8499 431.23 59.4399 431.67C60.0399 432.11 60.3299 432.42 60.3299 432.58C60.1199 432.81 59.8099 432.97 59.3999 433.06V434.31C59.3999 434.51 59.3999 434.77 59.4199 435.09C59.4499 435.8 59.4799 436.34 59.5199 436.71C59.4399 436.83 59.2099 436.96 58.8199 437.11C58.4299 437.25 58.0799 437.33 57.7799 437.33H57.4699V436.19H48.0099V436.78C48.0099 436.89 47.8699 437.01 47.5999 437.14C47.2699 437.31 46.8899 437.39 46.4599 437.39L46.4799 437.4ZM41.5199 429.22L41.2599 428.92C42.5499 427.73 43.2899 426.09 43.4799 423.98L42.5499 424.16C42.4099 424.43 42.2199 424.59 41.9799 424.64L41.2199 422.77C41.8199 422.74 42.5899 422.69 43.5299 422.63V420.15C43.5299 419.27 43.4799 418.51 43.3899 417.87L45.3399 418.74H45.7899C45.9999 417.78 46.0799 416.94 46.0299 416.21C47.2499 416.38 48.0199 416.53 48.3399 416.67C48.5599 416.78 48.5599 416.9 48.3399 417.03L47.9599 417.26C47.4699 417.81 46.9799 418.3 46.5099 418.74H48.9599L49.3199 418.22C49.3199 418.22 49.3999 418.11 49.4599 418.04C49.6299 417.81 49.7699 417.7 49.8699 417.7C50.0299 417.7 50.3699 417.92 50.9099 418.35C51.4399 418.78 51.7099 419.08 51.7099 419.25C51.4899 419.46 51.1899 419.61 50.7999 419.68V422.05L51.7299 421.96L51.7799 422.35L50.7999 422.56V426.8C50.7999 427.45 50.6799 427.91 50.4399 428.17C50.1499 428.5 49.5599 428.72 48.6499 428.81C48.6199 428.28 48.5199 427.93 48.3599 427.76C48.1099 427.55 47.6599 427.39 47.0299 427.28V426.98C46.8399 427.04 46.6599 427.07 46.5099 427.07H46.2499V425.57C46.2499 424.93 46.2199 424.4 46.1499 423.97C47.0599 424.27 47.6299 424.51 47.8699 424.68C48.0399 424.82 48.0399 424.94 47.8699 425.04L47.5799 425.2V426.61C47.5799 426.72 47.4299 426.82 47.1299 426.93C47.1899 426.93 47.3399 426.93 47.5599 426.95C48.2299 427.01 48.6299 427.04 48.7799 427.04C49.0699 427.04 49.2099 426.9 49.2099 426.63V422.89C47.9999 423.13 46.5999 423.41 44.9899 423.71C44.7799 426.19 43.6299 428.02 41.5299 429.22H41.5199ZM45.0499 422.52C45.4599 422.49 46.1199 422.44 47.0299 422.36C47.9799 422.27 48.7099 422.21 49.1999 422.18V419.4H45.0499V422.52ZM47.6699 421.88C47.3499 422.15 46.9899 422.13 46.5999 421.81C46.5999 421.16 46.3099 420.54 45.7399 419.96L45.9799 419.8C46.9299 420.01 47.5399 420.36 47.8099 420.85C48.0299 421.26 47.9799 421.6 47.6699 421.88ZM48.0299 435.53H57.4899V432.73H48.0299V435.53ZM51.8899 422.84L51.6499 422.52C52.2999 421.96 52.7399 421.3 52.9599 420.54C53.1199 420.04 53.1999 419.39 53.1999 418.58V417.76C53.1999 417.35 53.1899 417.04 53.1499 416.83L55.0999 417.74H57.1499L57.5099 417.24C57.5099 417.24 57.5899 417.13 57.6499 417.06C57.8299 416.83 57.9599 416.72 58.0599 416.72C58.1999 416.72 58.4999 416.94 58.9499 417.37C59.3999 417.8 59.6299 418.1 59.6299 418.27C59.4699 418.45 59.2199 418.55 58.8899 418.57V420.32C58.8899 420.43 58.9099 420.5 58.9499 420.53C58.9899 420.56 59.0799 420.58 59.2199 420.58H60.5999C60.7099 420.58 60.8099 420.54 60.8899 420.47C61.0199 420.27 61.1799 419.86 61.3699 419.22H61.6599L61.7299 420.45C62.0799 420.59 62.2499 420.79 62.2499 421.06C62.2499 421.39 62.0799 421.62 61.7499 421.74C61.3699 421.89 60.7199 421.97 59.7999 421.97H58.7499C58.1499 421.97 57.7599 421.87 57.5799 421.67C57.4199 421.5 57.3399 421.17 57.3399 420.67V418.41H54.8099V418.59C54.8099 420.58 53.8299 422 51.8799 422.85L51.8899 422.84ZM56.5799 425.69C57.2899 425.04 57.8499 424.35 58.2499 423.62H53.9599C54.6299 424.49 55.4999 425.18 56.5799 425.69Z" fill="white"/>
<path d="M46.7197 462.47C46.5597 462.47 46.4197 462.42 46.2997 462.33C46.1797 462.24 46.1197 462.13 46.1197 462.01C46.2597 460.05 46.3497 458.08 46.3797 456.08V452.48C44.8097 454.3 43.0697 455.84 41.1897 457.08L40.9497 456.83C42.7597 455.2 44.3597 453.26 45.7597 451C47.1397 448.77 48.1297 446.53 48.7097 444.3H45.4197C44.2897 444.31 43.0997 444.42 41.8497 444.62L41.2297 443.46C42.0997 443.55 43.1597 443.61 44.3997 443.64H58.5097L59.1297 442.82C59.1897 442.74 59.2697 442.64 59.3697 442.5C59.6397 442.15 59.8197 441.98 59.9197 441.98C60.0797 441.98 60.5197 442.27 61.2297 442.83C61.9397 443.4 62.2997 443.77 62.2997 443.94C62.2497 444.18 62.0497 444.3 61.6997 444.3H51.0997C50.3197 446.59 49.1797 448.77 47.6697 450.84L48.4997 451.18H57.8897L58.3397 450.54C58.3397 450.54 58.4297 450.43 58.5097 450.33C58.7297 450.04 58.8897 449.9 58.9897 449.9C59.1497 449.9 59.5397 450.17 60.1697 450.7C60.7997 451.23 61.1097 451.58 61.1097 451.75C60.8897 451.98 60.5197 452.15 60.0097 452.27V456.19C60.0397 458.07 60.1097 459.86 60.1997 461.54C60.0697 461.69 59.8297 461.84 59.4597 462C59.0597 462.17 58.7097 462.25 58.4097 462.25C58.1697 462.25 58.0497 462.1 58.0497 461.79C58.0697 461.68 58.0797 461.52 58.0997 461.31C58.1197 461.16 58.1297 461.03 58.1497 460.92V460.24H48.2397V460.79C48.2497 460.9 48.2597 461.03 48.2597 461.2C48.2897 461.46 48.3097 461.64 48.3297 461.75C48.2697 461.9 48.0997 462.05 47.8297 462.21C47.4997 462.38 47.1197 462.46 46.7097 462.46L46.7197 462.47ZM48.2397 459.59H58.1497V451.87H48.2397V459.59Z" fill="white"/>
<path d="M52.86 104.2C50.76 104.2 49.72 103.46 49.72 101.99C50.04 97.79 50.32 92.12 50.57 84.97V75.36C38.88 86.7 23.21 95.47 3.54998 101.66L2.57998 100.11C11.2 95.91 19.3 90.65 26.88 84.31C33.97 78.27 39.85 71.9 44.53 65.19H30.63V68.39C30.63 68.98 29.62 69.64 27.61 70.38C25.35 71.26 23.18 71.71 21.08 71.71C19.47 71.71 18.66 70.97 18.66 69.5C18.98 66.18 19.26 61.69 19.51 56.02V48.18C19.51 38.9 18.98 31.35 17.94 25.53L31.48 30.83H50.58V19.89H25.44C19.72 19.96 13.67 20.48 7.30998 21.44L4.16998 15.81C8.59998 16.25 13.96 16.55 20.25 16.69H50.59C50.59 10.5 50.23 5.27 49.5 1C57.15 2.7 61.95 4.02 63.88 4.98C65.25 5.72 65.29 6.45 64 7.19L61.82 8.41V16.7H87.81L91.2 12.28C91.44 11.91 91.84 11.43 92.41 10.84C93.94 8.85 94.95 7.86 95.43 7.86C96.23 7.86 98.55 9.37 102.38 12.39C106.21 15.41 108.12 17.33 108.12 18.14C107.8 19.32 106.75 19.91 104.98 19.91H61.83V30.85H81.05L83.59 27.98C83.75 27.76 84.03 27.46 84.44 27.1C85.65 25.7 86.49 25 86.98 25C87.78 25 89.9 26.23 93.33 28.7C96.75 31.17 98.47 32.81 98.47 33.62C97.42 34.72 95.81 35.5 93.64 35.94V46.44C93.88 55.21 94.16 61.98 94.49 66.77C94.01 67.51 92.63 68.32 90.38 69.2C88.04 70.16 85.95 70.64 84.09 70.64H82.16V65.23H64.15C69.31 71.05 76.32 76.28 85.18 80.92C93.56 85.19 102.26 88.32 111.29 90.31L111.05 91.53C106.46 92.49 103.39 95.65 101.86 101.03C83.65 93.66 70.31 81.92 61.85 65.78V77.49C62.09 87.29 62.37 94.87 62.7 100.25C62.3 101.21 61.09 102.09 59.07 102.9C56.97 103.78 54.92 104.23 52.91 104.23L52.86 104.2ZM30.62 46.3H50.56V34.04H30.62V46.3ZM30.62 61.99H50.56V49.51H30.62V61.99ZM61.8 46.3H82.11V34.04H61.8V46.3ZM61.8 61.99H82.11V49.51H61.8V61.99ZM14.06 159.55C13.17 157.05 11.52 154.36 9.10998 151.48C6.92998 148.9 4.55998 146.66 1.97998 144.74L2.94998 143.86C9.55998 144.3 14.67 145.67 18.3 147.95C21.28 149.87 22.93 152.11 23.26 154.69C23.5 156.97 22.7 158.71 20.84 159.88C18.83 161.06 16.57 160.95 14.07 159.55H14.06ZM17.44 219.43C14.62 219.43 12.85 217.55 12.12 213.8C13.17 208.2 13.57 203.29 13.33 199.05C13.09 194.82 12.28 192.29 10.91 191.48C9.45998 190.52 7.47998 189.93 4.98998 189.71V187.5H10.19C11.08 187.5 11.68 187.43 12 187.28C12.4 186.99 12.93 186.36 13.57 185.4C15.18 182.68 23.16 166.55 37.5 137.01L39.43 137.45C38.54 140.03 36.89 144.63 34.48 151.26C28.11 168.94 24.53 179.14 23.72 181.87C22.59 186.58 22.03 189.94 22.03 191.92C22.11 193.39 22.63 195.57 23.6 198.44C25.21 203.08 25.98 207.24 25.9 210.93C25.74 213.58 24.93 215.66 23.48 217.17C22.03 218.68 20.01 219.43 17.44 219.43ZM23.37 136.24C22.48 133.59 20.71 130.68 18.05 127.51C15.79 124.86 13.29 122.47 10.55 120.33L11.52 119.45C18.29 119.97 23.57 121.44 27.35 123.87C30.49 125.86 32.26 128.18 32.67 130.83C32.99 133.26 32.19 135.1 30.25 136.35C28.32 137.6 26.02 137.57 23.36 136.24H23.37ZM30.26 220.32L28.81 219.22C34.29 211.41 38.04 201.73 40.05 190.16C41.5 181.98 42.23 171.34 42.23 158.23V139.45C42.23 131.42 41.79 125.01 40.9 120.22L54.44 125.19H91.43L93.85 122.1C94.01 121.88 94.29 121.55 94.7 121.11C95.83 119.71 96.63 119.01 97.12 119.01C97.92 119.01 99.94 120.28 103.16 122.82C106.38 125.36 108 127.04 108 127.85C107.27 128.96 105.7 129.73 103.29 130.17V138.24C103.45 144.8 103.69 149.95 104.02 153.71C103.61 154.37 102.35 155.06 100.21 155.75C98.07 156.45 96.16 156.8 94.47 156.8C92.94 156.8 92.17 156.06 92.17 154.59C92.25 154.37 92.33 154.04 92.41 153.6C92.49 153.31 92.57 153.05 92.65 152.83V150.84H52.64V158.13C52.64 171.68 51.55 182.48 49.38 190.5C45.99 202.95 39.63 212.89 30.28 220.33L30.26 220.32ZM52.62 147.62H92.63V128.39H52.62V147.62ZM73.41 216.89C67.93 216.89 64.3 216.24 62.53 214.96C60.76 213.67 59.87 211.07 59.87 207.17V180.32C59.87 171.04 59.34 163.49 58.3 157.67C65.31 159.29 69.7 160.54 71.48 161.43C72.77 162.09 72.89 162.79 71.84 163.53L70.03 164.64V183.64C79.22 177.97 88 171.27 96.38 163.53C101.13 167.8 104 170.64 104.96 172.04C105.76 173.22 105.48 173.73 104.11 173.59L101.69 173.37C91.54 179.34 80.98 183.9 70.02 187.07V204.53C70.02 205.63 70.34 206.37 70.99 206.74C71.64 207.11 73.09 207.29 75.34 207.29H87.43C92.51 207.29 96.25 207.22 98.67 207.07C99.96 207 100.93 206.48 101.57 205.52C102.7 203.02 104.15 197.79 105.92 189.83H107.37L107.61 206.07C110.35 207.03 111.72 208.46 111.72 210.38C111.72 212.74 110.11 214.39 106.88 215.35C103.17 216.38 96.53 216.9 86.94 216.9H73.4L73.41 216.89Z" fill="url(#paint0_radial_2_3499)"/>
<path d="M250.45 103.12C246.17 113.81 237.62 124.5 231.21 136.27C225.86 138.4 225.86 142.68 222.66 146.96C215.17 150.16 215.17 160.85 204.48 160.85C199.13 173.69 184.17 170.48 174.54 177.96C167.05 177.96 158.5 180.1 154.22 175.82C155.29 170.47 156.36 164.06 160.64 160.85C159.57 157.65 161.71 156.58 163.85 155.5C172.4 158.72 184.17 156.58 191.65 151.23C201.28 141.61 209.83 134.12 217.32 124.5C228.01 113.81 232.29 97.77 237.64 84.94C237.64 82.8 236.57 80.66 234.43 79.59C232.29 79.59 230.15 79.59 228.02 81.73C215.19 83.87 205.57 77.45 198.08 74.25C197.01 72.11 200.22 71.04 202.36 69.97C207.71 72.11 213.05 66.76 218.4 66.76C226.96 64.62 236.58 64.62 241.93 58.21C243 45.38 244.07 33.61 241.93 19.72C241.93 15.44 234.44 11.16 240.86 6.89C252.62 11.17 265.46 19.72 266.52 34.69C267.59 41.11 262.24 49.66 267.59 51.8C280.42 52.87 288.97 40.04 299.67 43.24C309.29 37.89 307.16 51.8 313.57 55C310.36 62.49 302.88 64.62 295.39 66.76C292.18 65.69 287.9 67.83 284.7 69.97C276.15 69.97 266.52 71.04 260.11 77.46C260.11 82.81 253.69 86.01 257.97 90.29C254.76 93.5 249.42 98.84 250.48 103.12H250.45ZM257.94 104.38H262.22C261.15 103.31 259.01 103.31 257.94 104.38ZM409.5 167.28C398.81 156.59 385.97 149.1 373.14 140.55C367.79 141.63 365.66 136.28 361.38 135.2C345.34 125.58 325.02 122.37 308.98 114.89C299.36 111.68 289.74 112.75 281.18 108.47C279.04 108.47 277.97 106.33 276.9 104.19C273.69 110.61 271.55 104.19 267.28 106.33V108.47L280.11 112.75C287.59 120.24 298.28 120.24 305.77 127.72C319.67 132 327.15 143.76 341.05 148.04C347.47 153.39 357.09 160.86 365.65 167.28C369.92 171.55 376.34 176.9 380.61 182.24C392.38 189.74 372.06 186.52 372.06 196.15C376.34 198.28 382.75 195.08 385.96 199.36C393.45 195.09 397.73 204.71 405.2 204.71C408.42 202.57 412.69 201.5 414.83 199.36C419.11 187.59 413.76 176.9 409.48 167.28H409.5Z" fill="url(#paint1_radial_2_3499)"/>
<path d="M177.6 341.27C182.5 350.91 181.66 357.17 173.89 364.72C168.84 369.63 163.35 374.14 157.71 378.38C151.73 382.87 145.56 382.6 139.76 377.6C138.57 376.58 137.18 375.8 134.81 374.19C134.29 376.96 133.3 379.12 133.61 381.06C136.06 396.09 138.19 411.21 144.58 425.3C146.03 428.49 147.04 431.97 147.66 435.42C148.89 442.21 146.98 444.47 140.67 446.85C134.41 449.22 128.32 452.15 122.39 455.27C118.45 457.34 114.4 456.8 112.99 452.25C110.26 443.48 108.25 434.49 106.18 425.53C105.19 421.25 104.77 416.84 103.91 411.33C105.51 412.79 106.27 413.48 108.01 415.05C107.11 403.59 106.29 393.08 105.39 381.58C104.07 383.26 103.38 384.13 102.7 384.99C102.19 384.92 101.69 384.86 101.18 384.79C101.65 378.44 101.83 372.05 102.65 365.74C104.32 352.97 106.22 340.22 108.33 327.51C108.67 325.47 110.23 323.19 111.91 321.91C114.2 320.15 117.14 319.24 118.86 318.42C131.18 325.85 139.61 335.69 142.74 349.4C148.4 347.01 150.69 342.92 148.14 337.64C144.55 330.2 144.42 322.56 145.66 314.88C146.46 309.9 148.8 305.17 150.16 300.26C150.58 298.75 150.06 296.98 149.96 295.33C148.28 295.49 146.39 295.21 144.97 295.9C139.27 298.67 133.71 299.93 127.75 296.54C126.6 295.89 124.72 296.23 123.25 296.52C118.43 297.46 116.92 296.5 117.18 291.53C117.33 288.62 117.68 285.21 119.27 282.98C125.93 273.63 132.94 264.52 140.14 255.59C142.78 252.32 146.28 249.74 149.46 246.93C158.84 238.63 168.96 239.5 176.54 249.44C180.48 254.6 184.66 259.73 187.59 265.45C190.42 270.99 191.8 277.27 194.11 284.13C196.38 280.52 198.39 277.33 200.62 273.8C205.17 277.7 209.85 277.46 215.04 276.72C219.89 276.03 222.11 279.83 222.67 285.01C228.51 281.72 233.86 278.48 239.41 275.63C247.88 271.28 256.41 267.16 266.45 267.91C269.7 268.15 273.04 266.97 276.35 266.53C279.47 266.12 281.86 266.34 284.85 268.8C287.39 270.88 292.52 270.17 296.49 270.05C301.29 269.9 303.46 272.16 302.13 276.6C301.57 278.46 301.36 280.41 300.9 282.3C298.45 292.34 287.16 301.95 275.77 303.15C275.47 300.71 275.16 298.26 274.86 295.81C271.51 297.75 267.82 299.9 264.12 302.04C266.74 293.77 275.74 289.9 276.28 279.56C267.78 281.25 259.3 280.58 252.53 285.29C243.42 291.62 234.7 298.62 226.41 306.01C220.24 311.51 219.22 323.61 223.05 330.6C233.57 329.09 241.15 322.98 247.45 315C249.82 312 252.87 312.63 254.97 314.27C260.07 318.25 261.7 324.43 263.24 330.39C263.5 331.41 262.06 333.59 260.88 334.17C253.02 338.04 245.16 341.95 237.01 345.12C233.72 346.4 229.62 346.47 227.86 341.47C227.5 340.44 224.9 339.7 223.32 339.69C219.97 339.67 216.61 340.12 213.27 340.57C207.56 341.33 207 340.9 206.95 335.03C206.94 333.46 206.95 331.89 205.91 330.18C205.65 334.13 205.38 338.08 205.12 342.03C204.8 342.13 204.48 342.24 204.16 342.34C203.64 340.41 203.13 338.48 202.18 334.96C201.84 337.46 201.53 338.48 201.6 339.48C201.83 343.18 199.81 345.71 196.55 345.55C195 345.48 192.41 342.28 192.31 340.4C191.63 326.81 191.48 313.2 191.16 299.59C191.14 298.55 191.16 297.5 190.72 296.35C188.33 301.66 183.94 306.21 185.55 312.93C185.8 313.97 184.07 315.48 183.26 316.79C181.77 319.2 180.7 322.02 178.73 323.94C173.03 329.52 174.44 335.21 177.54 341.3L177.6 341.27ZM407.87 410.92C407.26 413.14 407.98 415.69 407.83 418.08C407.76 419.18 407.2 421.04 406.6 421.15C405.44 421.36 404.11 420.57 402.84 420.22C401.11 419.75 399.37 419.31 397.64 418.86V424.68C396.11 425.73 393.73 427.37 391.34 429.01C390.05 429.9 388.88 431.1 387.45 431.62C379.96 434.39 372.47 437.2 364.83 439.47C363.05 440 360.57 438.72 358.6 437.85C356.07 436.73 353.74 435.17 351.26 433.77C351.23 433.81 351.79 433.04 352.7 431.78C341.37 430.05 331.01 431.79 320.86 435.34C320.9 435.83 320.95 436.31 320.99 436.8C328.63 435.88 336.26 434.97 343.9 434.05C343.98 434.44 344.06 434.83 344.14 435.21C342.54 435.71 340.98 436.45 339.35 436.68C321.02 439.33 302.7 442.06 284.32 444.41C278.92 445.1 273.37 444.52 267.9 444.76C266.01 444.84 264.17 445.74 262.28 446.05C260.75 446.3 258.97 446.75 257.65 446.22C251.59 443.83 245.45 441.51 239.73 438.44C234.18 435.46 231.4 430.34 231.86 423.84C232.13 419.95 232.42 416.05 233.01 412.21C233.6 408.4 234.89 405.26 239.38 409.18C242.17 406.49 244.18 404.46 242.72 399.91C241.84 397.16 244.29 393.39 245.08 390.03C245.35 388.91 245.12 387.68 245.12 385.67C239.07 387.92 234.62 391.84 232.03 396.38C224 410.43 216.87 425.01 209.45 439.42C208.49 441.29 208.03 443.42 207.04 445.27C206 447.2 204.58 448.94 203.33 450.76C201.82 449.63 200.3 448.51 198.52 447.18C197.63 447.92 196.35 448.97 193.95 450.95C193.64 445.28 193.4 440.74 193.1 435.34C191.37 437.37 189.86 439.15 188.09 441.23C188.66 431.07 193.61 423.14 197.72 414.86L199.17 415.24C199.44 416.7 199.72 418.16 200.22 420.85C206.7 411.42 212.62 402.81 219.22 393.21C212.83 394.85 207.17 396.3 201.51 397.76C199.97 398.16 198.45 398.67 196.89 398.98C186.71 401.02 182.68 396.51 185.56 387.37C183.73 384.51 181.38 382.25 180.92 379.65C180.58 377.7 182.3 375.02 183.77 373.21C185.7 370.84 188.26 368.98 190.6 366.97C192.51 365.33 194.49 363.78 196.42 362.2C197.79 364.51 199.01 366 199.59 367.71C200.08 369.15 200.13 370.91 199.82 372.41C199.03 376.26 201.15 378.79 204.65 377.1C213.28 372.94 221.64 368.19 230.08 363.63C231.14 363.05 231.9 361.78 233 361.42C243.83 357.82 251.42 349.48 260.25 342.96C263.65 340.45 267.28 340.48 270.58 342.89C274.24 345.55 272.87 349.32 271.59 352.52C269.36 358.12 266.28 363.4 264.3 369.08C263.09 372.53 262.94 376.46 262.88 380.18C262.71 390.09 262.97 400 262.79 409.9C262.75 412.45 262.13 415.15 261.08 417.47C259.7 420.52 260.04 422.74 263.07 424.01C266.46 425.43 269.96 427.16 273.52 427.49C289.73 428.97 305.62 426.51 321.42 423.04C331.27 420.88 341.23 419.26 351.13 417.32C353.9 416.78 356.71 416.23 359.33 415.23C360.62 414.74 362.35 413.29 362.44 412.15C362.99 405.2 364.33 398.44 360.69 391.44C357.67 385.62 356.82 378.67 355.04 372.21C354.53 370.37 354.14 368.51 353.31 365.07C356.17 366.43 358.33 366.94 359.79 368.24C364 371.99 367.7 376.33 372.01 379.94C376.15 383.4 380.83 386.22 385.24 389.36C386.07 389.95 387.48 390.85 387.4 391.44C386.1 400.69 393.12 397.17 396.68 396.94C406.09 396.33 410.46 401.54 407.88 410.94L407.87 410.92ZM307.06 435.85C292.86 436.93 278.66 438.02 264.47 439.1C264.49 439.57 264.51 440.04 264.54 440.51C278.96 444.66 292.89 438.77 307.07 438.03C307.07 437.3 307.07 436.57 307.07 435.85H307.06ZM250.74 216.41C247.26 212.59 243.3 208.97 238.91 206.29C236.07 204.56 231.47 203.93 230.05 208.6C228.71 212.98 225.57 214.57 222.01 216.17C220.38 216.9 218.89 217.92 216 219.57C225.08 222.88 226.59 229.85 228.24 236.8C229.01 240.04 229.83 243.32 231.12 246.37C231.98 248.41 233.41 250.46 235.12 251.82C237.79 253.96 240.91 255.52 244.09 257.48C245.51 253.97 247.34 250.29 254 250.72C259.93 251.1 264.68 241.22 261.94 236.54C259.75 232.8 257.54 229.08 255.46 225.29C253.84 222.34 252.94 218.8 250.76 216.41H250.74Z" fill="url(#paint2_radial_2_3499)"/>
</g>
<defs>
<filter id="filter0_d_2_3499" x="0.97998" y="0" width="426.424" height="473.47" filterUnits="userSpaceOnUse" color-interpolation-filters="sRGB">
<feFlood flood-opacity="0" result="BackgroundImageFix"/>
<feColorMatrix in="SourceAlpha" type="matrix" values="0 0 0 0 0 0 0 0 0 0 0 0 0 0 0 0 0 0 127 0" result="hardAlpha"/>
<feOffset dx="5" dy="5"/>
<feGaussianBlur stdDeviation="3"/>
<feColorMatrix type="matrix" values="0 0 0 0 0 0 0 0 0 0 0 0 0 0 0 0 0 0 0.35 0"/>
<feBlend mode="normal" in2="BackgroundImageFix" result="effect1_dropShadow_2_3499"/>
<feBlend mode="normal" in="SourceGraphic" in2="effect1_dropShadow_2_3499" result="shape"/>
</filter>
<radialGradient id="paint0_radial_2_3499" cx="0" cy="0" r="1" gradientUnits="userSpaceOnUse" gradientTransform="translate(562.73 -48.31) scale(1441.79 1441.79)">
<stop stop-color="#817057"/>
<stop offset="0.2" stop-color="#FFDB7F"/>
<stop offset="0.35" stop-color="#D9B971"/>
<stop offset="0.52" stop-color="#AF9261"/>
<stop offset="0.6" stop-color="#C6A76A"/>
<stop offset="0.68" stop-color="#E7C677"/>
<stop offset="0.83" stop-color="#95815D"/>
<stop offset="1" stop-color="#CAAB6B"/>
</radialGradient>
<radialGradient id="paint1_radial_2_3499" cx="0" cy="0" r="1" gradientUnits="userSpaceOnUse" gradientTransform="translate(562.73 -48.31) scale(1441.79 1441.79)">
<stop stop-color="#817057"/>
<stop offset="0.2" stop-color="#FFDB7F"/>
<stop offset="0.32" stop-color="#D9B971"/>
<stop offset="0.46" stop-color="#AF9261"/>
<stop offset="0.55" stop-color="#C6A76A"/>
<stop offset="0.65" stop-color="#E7C677"/>
<stop offset="0.83" stop-color="#95815D"/>
<stop offset="1" stop-color="#CAAB6B"/>
</radialGradient>
<radialGradient id="paint2_radial_2_3499" cx="0" cy="0" r="1" gradientUnits="userSpaceOnUse" gradientTransform="translate(562.73 -48.3101) scale(1441.79 1441.79)">
<stop stop-color="#817057"/>
<stop offset="0.2" stop-color="#FFDB7F"/>
<stop offset="0.32" stop-color="#D9B971"/>
<stop offset="0.46" stop-color="#AF9261"/>
<stop offset="0.55" stop-color="#C6A76A"/>
<stop offset="0.65" stop-color="#E7C677"/>
<stop offset="0.83" stop-color="#95815D"/>
<stop offset="1" stop-color="#CAAB6B"/>
</radialGradient>
</defs>
</svg>
