<svg width="2797" height="431" viewBox="0 0 1920 403" fill="none" xmlns="http://www.w3.org/2000/svg">
<path d="M168.02 209.78C134.12 220.91 99.45 237.49 64.56 259.28C33.79 278.49 18.8 291.19 -1.95001 308.77C-8.18001 314.05 -15.15 319.95 -23.17 326.54C-39.77 335.35 -56.59 344.07 -73.51 352.33C-135.9 382.81 -202.88 408.53 -270.9 428.29L-269.72 431.93C-250.89 426.46 -232.15 420.55 -213.58 414.2C-164.69 397.48 -116.8 377.72 -71.22 355.46C-42.44 341.4 -13.98 326.05 13.54 311.21C58.01 287.23 104 262.43 152.2 242.64C242.78 205.45 328.5 194.05 387.37 211.37C445.39 228.44 471.75 268.44 499.66 310.8C511.79 329.2 524.15 347.94 539.45 364.76C539.59 365 539.72 365.24 539.87 365.47C540.05 365.76 540.34 365.97 540.69 366.11C552.67 379.06 566.46 390.81 583.34 400.3C640.12 432.23 732.79 437.59 837.6 415C921.08 397.01 1002.59 364.77 1081.42 333.59C1089.79 330.28 1098.14 326.97 1106.5 323.69C1129.85 314.5 1153.62 305.3 1177.71 296.53C1178.35 296.55 1179.06 296.4 1179.71 296.07L1181.66 295.09C1244.85 272.24 1310.23 252.5 1376.03 243.87C1481.61 230.03 1586.35 245.64 1670.94 287.83C1679.53 292.12 1687.91 296.68 1696.09 301.49C1696.15 301.59 1696.25 301.69 1696.39 301.75C1696.66 301.87 1696.92 302 1697.19 302.13C1750.72 333.87 1795.21 376.93 1829.91 430.58L1835.52 428.74C1823.47 410.05 1810.23 392.63 1795.85 376.51C1814.76 390.98 1836.08 405.52 1860.43 420.56L1863.13 419.67C1833.29 401.28 1807.99 383.65 1786.11 365.97C1769.45 348.59 1751.37 332.84 1731.9 318.77C1788.86 346.72 1843.71 376.94 1895.62 409L1898.31 408.12C1842.27 373.47 1782.8 340.94 1720.94 311.12C1706.33 301.29 1690.99 292.36 1674.93 284.35C1668.55 281.17 1662.04 278.15 1655.42 275.27C1755.31 308.86 1849.29 349.33 1935.52 395.9L1938.3 394.99C1842.94 343.4 1738.09 299.26 1626.25 263.65C1626.1 263.6 1625.92 263.59 1625.75 263.6C1598.11 253.86 1568.75 246.51 1537.95 241.66C1528.7 240.2 1519.4 238.99 1510.05 238.01C1585.24 241.07 1656.25 253.96 1731.69 277.76C1820.51 305.78 1900.93 343.86 1978.4 381.84L1981.25 380.91C1903.36 342.72 1822.52 304.36 1733.12 276.16C1646.51 248.84 1565.71 235.85 1477.77 235.58C1444.33 234.04 1410.45 235.5 1376.47 239.95C1354.35 242.85 1332.3 246.98 1310.38 252.06C1414.84 225.94 1521.13 218.38 1617.32 230.86C1683.58 239.46 1744.26 257.42 1802.93 274.79C1883.39 298.61 1966.36 323.17 2028.07 365.54L2030.7 364.68C2005.12 347.05 1973.63 331.01 1935.06 315.92C1892.57 299.3 1845.68 285.42 1804.32 273.17C1745.56 255.77 1684.79 237.79 1618.33 229.16C1556.28 221.11 1489.72 221.38 1420.48 229.97C1365.18 236.83 1310.32 248.73 1256.86 265.44C1257.44 265.16 1258.03 264.87 1258.61 264.59C1382.46 224.16 1516.66 206.89 1640 215.83C1762.58 224.71 1879.89 256.23 1988.68 309.52C2016.31 323.06 2042.92 337.77 2068.16 352.37L2070.9 351.47C2045.35 336.68 2018.39 321.75 1990.37 308.02C1881.34 254.61 1763.74 223.01 1640.84 214.11C1574.56 209.31 1505.55 211.89 1435.73 221.78C1379.84 229.7 1324.66 242.14 1271.11 258.88C1277.2 256.53 1283.31 254.21 1289.44 251.92C1454.3 201.04 1651.58 187.16 1806.67 215.79C1920.05 236.72 2024.37 277.08 2117.84 336.05L2120.44 335.2C2087.88 314.65 2053.86 296.25 2018.68 280.19C1952.47 249.96 1881.53 227.73 1807.81 214.12C1731.42 200.02 1642.46 196.01 1550.56 202.53C1468.99 208.32 1387.78 222.27 1313.53 243.15C1321.38 240.35 1329.25 237.62 1337.12 234.94C1506.58 190.64 1684.41 177.04 1839.69 196.67C1971.52 213.33 2091.2 254.47 2184.13 314.28L2186.92 313.36C2150.24 289.57 2109.41 268.72 2064.91 251.08C1996.59 224.01 1921.15 205.13 1840.69 194.96C1760.22 184.79 1674.58 183.31 1586.14 190.56C1510.28 196.78 1433.84 209.31 1358.39 227.86C1363.22 226.29 1368.04 224.74 1372.86 223.23C1563.55 177.95 1749.03 163.8 1909.74 182.32C2043.45 197.73 2160.38 236.28 2248.7 293.08L2251.38 292.2C2162.73 234.95 2045.17 196.11 1910.71 180.61C1755.83 162.76 1578.01 175.18 1394.69 216.51C1399.93 214.94 1405.15 213.39 1410.36 211.89C1581.67 168.55 1773.39 152.89 1937.95 168.96C2077.07 182.54 2203.23 218.56 2307 273.94L2309.79 273.02C2205.59 217.2 2078.76 180.9 1938.86 167.25C1855.67 159.13 1766.73 158.89 1674.5 166.53C1600.55 172.66 1527.65 183.61 1457.04 199.17C1502.17 187.67 1544.73 179.2 1581.61 174.69C1755.92 153.37 1904.67 149.31 2023.72 162.63C2146.41 176.36 2248 218.69 2345.49 261.29L2352.32 259.05C2343.2 255.07 2333.89 251.01 2324.4 246.93C2280.8 204.55 2215.27 144.39 2146.75 107.46C2094.71 79.41 2009.74 47.76 1900.49 56.28C1852.45 60.02 1802.63 71.59 1760.24 82.41C1704.28 96.69 1648.73 112.89 1593.8 130.93C1505.64 159.88 1419.07 193.58 1335.04 231.67C1324.72 235.18 1314.42 238.8 1304.15 242.51C1433.89 179.95 1568.01 119.03 1710.39 81.76C1892.24 34.16 2062.87 37.67 2166.81 91.15C2217.51 117.24 2253.69 154.86 2288.67 191.24C2310.24 213.68 2332.39 236.7 2358.04 257.18L2360.61 256.33C2334.77 235.78 2312.49 212.61 2290.78 190.04C2255.72 153.58 2219.46 115.87 2168.53 89.67C2140.46 75.23 2107.67 64.24 2071.06 57C2036.46 50.16 1998.19 46.62 1957.32 46.47C1880.83 46.19 1795.35 57.84 1710.11 80.15C1681.97 87.52 1654.17 95.8 1626.65 104.83C1509.37 143.34 1397.45 195.49 1288.55 248.21C1288.38 248.27 1288.22 248.33 1288.05 248.4C1403.55 189.03 1522.95 130.02 1649.83 88.08C1650.67 87.8 1651.48 87.53 1652.32 87.26C1810.59 35.29 1960.33 19.31 2074.18 42.27C2148.43 57.24 2215.13 89.6 2272.41 138.45C2313.53 173.52 2346.1 213.73 2373.68 252.03L2376.1 251.24C2348.43 212.8 2315.75 172.41 2274.43 137.17C2216.94 88.14 2149.96 55.65 2075.37 40.61C2014.82 28.4 1945.07 26.93 1868.06 36.26C1799.16 44.6 1726.44 61.24 1651.86 85.73C1651.02 86.01 1650.17 86.29 1649.33 86.56C1517.61 130.1 1394.03 191.95 1274.53 253.53C1257.54 260.03 1240.75 266.78 1224.31 273.73L1450.22 160.44C1480.33 145.34 1508.57 131.76 1535.46 119.46C1604.83 94.25 1676.2 68.91 1748.23 49.77C1836.89 26.21 1916.56 15.16 1985.05 16.91C2109.72 20.1 2200.22 64.76 2254.18 101.67C2314.19 142.71 2359.28 193.27 2398.08 244.03L2400.51 243.23C2361.59 192.29 2316.35 141.51 2256.08 100.29C2201.9 63.24 2111.03 18.4 1985.76 15.19C1916.95 13.43 1836.94 24.53 1747.95 48.17C1716.13 56.63 1684.45 66.28 1653.02 76.6C1619.96 87.46 1587.18 99.04 1554.8 110.73C1609.56 86.38 1659 67.41 1707.86 51.84C1837.15 13.78 1947.09 -1.30999 2041.6 5.84001C2255.21 22 2367.67 149.53 2420.18 236.77L2425.78 234.93C2410.71 209.76 2393.64 186.08 2374.84 164.33C2349.37 134.85 2320.62 108.8 2289.4 86.88C2219 37.46 2136.3 8.85002 2043.59 1.84001C1948.29 -5.36999 1837.6 9.77001 1707.57 47.99C1707.48 48.01 1707.39 48.03 1707.3 48.06C1707.16 48.1 1707.02 48.15 1706.88 48.2C1669.19 59.3 1629.88 72.32 1588.85 87.31C1529.35 109.04 1469.79 133.25 1412.2 156.66C1326.14 191.64 1237.15 227.81 1146.96 256.28C1023.54 295.24 846.4 334.08 703.37 297.82C622.52 277.32 562.24 235 503.93 194.07C475.13 173.85 445.42 153 413.34 134.8C412.01 133.98 410.67 133.16 409.31 132.37C409.07 132.23 408.79 132.14 408.49 132.09C407.59 131.59 406.7 131.09 405.8 130.59C354.43 102.47 294.2 81.11 226.8 67.09C161.03 53.42 89.84 47.02 15.2 48.07C-59.43 49.12 -135.64 57.59 -211.29 73.26C-257.02 82.73 -301.95 94.7 -345.67 109.06C-354.5 111.96 -363.28 114.97 -372.01 118.06L-370.83 121.67C-362.46 118.71 -354.06 115.83 -345.61 113.06C-210.06 68.55 -66.33 48.45 66.62 53.03C1.2 51.87 -67.73 57.52 -136.81 69.86C-190.31 79.42 -243.8 92.98 -295.71 110.02C-319.6 117.87 -343.16 126.45 -366.24 135.73L-365.74 137.26C-200.4 70.7 -15.36 42.13 144.28 59.6C54.02 58.2 -40.02 66.85 -135.69 85.37C-198.34 97.5 -260.11 113.55 -320.42 133.35C-334.47 137.96 -348.43 142.78 -362.31 147.8L-361.81 149.34C-188.8 86.76 -4.14 55.97 166.63 61.91C79.33 62.91 -19.16 75.59 -126.28 99.63C-189.83 113.9 -254.93 131.94 -318.68 152.87C-331.34 157.03 -343.95 161.31 -356.48 165.68L-355.99 167.2C-192.83 110.13 -23.4 73.7 117.53 65.38C85.4 68.45 52.61 73.85 22.09 81.25C-73.77 97.86 -164.86 124.23 -256.95 154.47C-287.75 164.58 -318.66 175.13 -349.9 185.89L-349.4 187.43C-231.54 146.85 -118.35 109.27 1.67001 86.61C-13.07 90.74 -27.7 95.23 -42.23 100C-62.02 106.5 -81.58 113.5 -100.87 120.77C-133.98 130.34 -166.99 140.52 -199.81 151.3C-248.45 167.27 -296.7 184.54 -344.32 203.03L-343.82 204.57C-270.28 176.01 -195.25 150.36 -119.57 127.92C-141.08 136.27 -162.21 144.84 -182.83 153.31C-184 153.79 -185.16 154.27 -186.33 154.75C-190.2 156 -194.04 157.25 -197.86 158.5C-250.21 175.69 -297.05 193.34 -340.41 215.03L-339.9 216.61C-298.96 196.09 -254.88 179.19 -205.95 162.88C-252.31 182.27 -296.97 202.38 -336.77 226.24L-335.53 230.05C-289.22 202.06 -235.98 179.2 -181.07 156.67C-122.11 132.47 -59.15 107.35 5.35999 89.49C18.44 85.87 32.09 82.64 46.04 79.82C22.1 86.26 -1.94001 93.44 -26.04 101.35C-73.03 116.78 -120.22 134.98 -167.17 155.81C-224.54 181.26 -280.37 210.32 -331.83 241.41L-331.32 242.98C-209.86 169.31 -68.66 110.03 68.39 75.69C80.87 73.61 93.47 71.86 106.02 70.46C66.99 78.32 27.71 88.73 -11.64 101.66C-60.15 117.59 -108.77 137.32 -157.13 160.73C-214.91 188.7 -271.51 221.49 -326.22 258.63L-325.68 260.3C-212.37 183.16 -57.48 101.68 123.68 68.75C123.7 68.75 123.72 68.74 123.74 68.74C130.05 68.2 136.32 67.76 142.54 67.41C101.37 75.16 59.97 85.86 19.1 99.28C-32.93 116.37 -84.1 137.84 -132.86 163.19C-202.27 199.28 -264.61 242.09 -316.36 288.94L-315.78 290.74C-195.24 180.84 -21.68 97.51 154.77 66.85C161.3 66.61 167.74 66.49 174.08 66.47C132.35 71.47 89.12 81.3 45.81 95.53C-6.51 112.71 -58.95 136.28 -108.97 165.41C-177.9 205.55 -242.94 255.97 -306.66 318.73L-306.03 320.66C-242.11 257.52 -176.89 206.88 -107.76 166.63C-11.96 110.84 92.68 75.56 188.28 66.63C193.44 66.76 198.49 66.98 203.45 67.28C204.3 67.43 205.15 67.59 206 67.74C169.63 67.91 130.35 74.52 92.47 86.96C89.85 87.82 87.24 88.71 84.64 89.62C79.23 91.52 73.91 93.53 68.65 95.64C68.59 95.65 68.52 95.66 68.46 95.68C68.43 95.69 68.4 95.7 68.37 95.71C-80.64 153.15 -202.06 232.25 -300.86 336.52L-300.21 338.52C-208.59 241.45 -97.42 166.19 37.32 109.91C22.09 117.73 7.88001 126.41 -5.01999 135.77C-115.27 205.57 -211.63 281.84 -292.22 363.05L-291.58 365.01C-214.76 287.39 -123.52 214.28 -19.48 147.01C-23.37 150.26 -27.12 153.57 -30.69 156.94C-76.76 189.02 -114.31 226.9 -150.67 263.61C-157.87 270.88 -165.32 278.4 -172.71 285.74C-206.27 319.1 -242.96 352.88 -286.51 380.55L-285.97 382.2C-241.83 354.28 -204.75 320.16 -170.85 286.47C-163.46 279.12 -156.01 271.6 -148.8 264.32C-114.93 230.13 -80.04 194.92 -38.24 164.42C-38.41 164.6 -38.59 164.78 -38.76 164.96C-47.51 174.13 -55.33 183.75 -62.9 193.05L-84.27 219.32C-113.76 251.81 -144.74 281.74 -177.03 312.93C-210.45 345.21 -245.32 373.24 -281.23 396.73L-280.69 398.39C-244.32 374.68 -209.02 346.35 -175.21 313.7C-149.89 289.24 -125.38 265.56 -101.75 240.81L-111.18 252.41C-139.75 287.53 -169.29 323.85 -206.76 356.36C-224.4 371.67 -248.66 390.11 -278.16 406.17L-276.95 409.89C-252.9 396.94 -229.47 380.95 -207.37 362.31C-153.37 338.63 -123.72 306.91 -89.44 270.24C-85.57 266.1 -81.56 261.81 -77.49 257.51C-75.2 255.09 -72.91 252.66 -70.61 250.22C-33.03 210.38 5.82999 169.18 59.65 139.92C118.66 107.84 194.62 92.27 262.85 98.26C324.06 103.64 378.87 125.16 421.35 160.49C453.89 187.56 479.4 222.63 499.1 267.47C480.57 238.72 454.07 210 418.67 180.22C376 144.33 326.14 122.11 270.47 114.19C220.78 107.12 166.54 112.39 118.1 128.3C102.5 133.42 87.49 139.65 73.43 146.93C10.83 179.33 -32.98 226.91 -75.34 272.92C-78.78 276.66 -82.21 280.38 -85.64 284.09C-144.12 347.28 -208.99 382.3 -276.32 411.8L-275.82 413.34C-246.5 400.49 -216.6 386.14 -188.18 369.11C-148.33 345.23 -114.16 317.64 -83.72 284.75C-80.29 281.04 -76.86 277.31 -73.41 273.58C-31.21 227.75 12.42 180.36 74.5 148.24C131.52 118.73 204.39 106.64 269.43 115.9C324.7 123.77 374.24 145.85 416.66 181.54C459.38 217.48 489.09 251.86 507.43 286.59C508.44 289.75 509.46 292.93 510.49 296.11C497.31 272.29 480.22 250.01 459.39 229.52C425.64 196.32 383.46 169.16 334.01 148.82C305.08 136.91 276.09 129.17 247.86 125.8C213.78 121.74 180.66 124.06 149.4 132.72C145.76 133.73 142.13 134.83 138.5 136.02C112.89 144.43 87.43 157.44 62.66 174.79C40.05 190.63 17.55 210.29 -6.14001 234.89C-43.9 274.11 -82.95 314.67 -137.11 349.63C-175.36 374.32 -221.69 396.19 -275.31 414.9L-274.81 416.44C-220.88 397.62 -174.26 375.62 -135.75 350.76C-81.29 315.6 -42.12 274.92 -4.23999 235.58C44.53 184.93 90.19 153.56 138.52 137.69C142.24 136.47 145.98 135.34 149.74 134.3C205.93 118.74 269.1 124.29 332.44 150.36C418.96 185.96 482.86 242.49 515.68 311.59C515.77 311.86 515.87 312.12 515.96 312.39C483.08 266.66 449.95 229.8 403.87 201.01C374.83 182.86 342.09 169.57 306.55 161.49C267.74 152.67 227.46 150.58 186.81 155.28C165.73 157.72 146.3 161.85 128.74 167.62C119.57 170.63 110.9 174.09 102.78 177.99C64.83 196.19 38.06 223.93 12.18 250.75C4.99999 258.19 -2.43001 265.89 -9.95001 273.22C-73.49 335.17 -167.57 387.17 -273.68 419.88L-273.18 421.42C-166.56 388.55 -72.01 336.27 -8.12 273.98C-0.569995 266.62 6.87001 258.91 14.07 251.45C39.77 224.82 66.34 197.28 103.74 179.35C127.02 168.18 154.89 160.66 186.57 156.99C264.21 148 340.73 164.14 402.02 202.44C450.36 232.64 484.42 271.8 518.97 320.84C521.43 327.51 524.08 334.13 526.98 340.66C519.17 330.11 511.99 319.22 504.88 308.44C491.39 287.97 477.44 266.8 459.78 249.03C441.97 231.11 421.93 218.38 398.74 210.27C360.5 191.51 322.24 180.43 282.49 176.58C254.49 173.86 224.46 175.04 195.62 179.98C179.76 182.7 164.5 186.46 149.94 191.24C135.84 195.87 122.4 201.45 109.72 207.96C72.42 227.09 43.11 253.41 14.76 278.86C-8.97999 300.17 -33.52 322.21 -62.71 340.03C-91.05 357.33 -123.63 370.53 -154.61 382.21C-166.79 386.8 -179.15 391.56 -191.11 396.15C-217.52 406.3 -244.42 416.63 -271.64 426.16L-271.14 427.7C-243.85 418.14 -216.9 407.79 -190.43 397.62C-178.47 393.03 -166.11 388.27 -153.95 383.68C-122.8 371.93 -90.03 358.65 -61.43 341.2C-31.99 323.23 -7.32999 301.09 16.51 279.69C44.71 254.37 73.86 228.19 110.77 209.26C160.31 183.85 222.57 172.56 281.58 178.29C315.01 181.53 347.39 189.93 379.62 203.76C315.32 189.41 257.53 188.25 203.09 200.2C191.5 202.75 179.8 205.96 168 209.83L168.02 209.78ZM2025.96 158.61C1951.19 150.24 1864.79 148.69 1767.79 153.94C1856.27 132.53 1962.92 135.12 2042.94 160.72C2037.27 159.95 2031.61 159.25 2025.95 158.62L2025.96 158.61ZM2053.78 162.26C2013.9 148.25 1963.9 139.68 1912.43 138.07C1859.03 136.4 1806.28 142.05 1759.25 154.42C1723.54 156.48 1686.42 159.46 1647.93 163.33C1746.26 138.93 1826.6 126.28 1899.53 123.66C1991.55 120.36 2069.34 138.63 2114.89 173.98C2094.29 169.19 2073.96 165.29 2053.79 162.26H2053.78ZM2120.03 175.2C2096.74 156.03 2065.18 141.7 2026.12 132.59C1989.22 123.99 1945.62 120.31 1900.03 121.94C1824.14 124.67 1740.29 138.21 1636.65 164.48C1618.76 166.35 1600.59 168.42 1582.12 170.67C1578.43 171.12 1574.68 171.62 1570.88 172.15C1663.04 144.39 1737.9 123.71 1832.61 111.46C1908.36 101.67 2015.3 99.47 2094.61 144.64C2104.03 150.01 2113.41 155.96 2122.48 161.71C2136.89 170.85 2151.61 180.18 2167.66 188.01C2151.58 183.21 2135.72 178.93 2120.04 175.18L2120.03 175.2ZM2205.59 200.19C2198.45 197.75 2191.37 195.41 2184.33 193.18C2162.34 184.44 2143.08 172.22 2124.34 160.33C2115.25 154.57 2105.86 148.6 2096.4 143.22C2063.9 124.71 2023.63 112.6 1976.71 107.21C1933.13 102.21 1884.71 103.08 1832.81 109.79C1734.25 122.53 1657.2 144.36 1559.99 173.77C1529.72 178.43 1496.43 185.35 1461.53 194.11C1540.49 165.57 1628.28 140.11 1735.23 114.65C1795.59 100.28 1874.11 84.24 1946.1 87.79C2019.23 91.39 2076.6 119.78 2113.4 140.83C2129.9 150.27 2146.03 160.42 2161.62 170.24C2180.29 182 2199.38 194.01 2219.59 205.1C2214.94 203.44 2210.28 201.8 2205.6 200.2L2205.59 200.19ZM2233.85 210.27C2208.98 197.46 2185.92 182.95 2163.46 168.81C2147.85 158.98 2131.72 148.82 2115.18 139.36C2078.21 118.21 2020.53 89.68 1946.87 86.05C1874.46 82.48 1795.62 98.58 1735.02 113.01C1651.19 132.97 1579.11 152.93 1513.81 174.37C1490.34 182.08 1467.75 189.97 1445.8 198.13C1433.92 201.25 1421.89 204.58 1409.76 208.09C1527.01 156.61 1649.87 118.46 1775.1 94.67C1889.7 72.89 1977.69 70.86 2044.12 88.45C2100.91 103.49 2143.26 132.9 2184.21 161.35L2281.26 228.76C2265.75 222.43 2249.92 216.22 2233.86 210.27H2233.85ZM1760.49 83.97C1802.73 73.19 1852.35 61.66 1900.12 57.94C2008.69 49.48 2093.2 80.97 2144.99 108.88C2211.32 144.63 2274.89 202.25 2318.38 244.3C2309.32 240.42 2300.1 236.54 2290.76 232.67L2186.11 159.98C2145.04 131.45 2102.57 101.95 2045.44 86.82C2009.02 77.18 1965.43 73.34 1915.89 75.42C1874.29 77.16 1828.23 82.92 1775.08 93.02C1711.15 105.17 1646.72 121.39 1583.58 141.22C1576.54 143.43 1569.51 145.69 1562.49 148C1506.59 166.36 1451.51 187.62 1398.48 211.33C1398.37 211.38 1398.27 211.44 1398.18 211.51C1383.04 216.01 1367.77 220.78 1352.48 225.81C1351.86 226.02 1351.23 226.23 1350.6 226.43C1482.36 167.7 1620.17 119.8 1760.5 83.98L1760.49 83.97ZM587.5 396.9C570.51 387.35 556.66 375.4 544.62 362.2C530.47 338.54 521.8 312.24 513.6 286.64C537.9 330.48 568.98 363.24 608.23 386.47C633.17 401.23 662.88 412.32 694.15 418.53C709.42 421.56 724.95 423.45 740.67 424.22C678.33 427.18 624.91 417.93 587.5 396.9ZM837.33 411.16C811.07 416.82 785.6 420.7 761.29 422.82C706.14 423.38 652.53 410.19 610.03 385.04C567.32 359.76 534.33 323.1 509.23 273.05C507.6 268.02 505.92 262.96 504.18 257.92C524.62 288.89 552.09 319.18 581.83 342.73C603.83 360.15 629.21 374.21 657.27 384.51C687.31 395.54 719.65 401.95 753.4 403.55C841.34 407.73 966.87 369.46 1059.77 338.05C987.51 366.54 913.09 394.82 837.33 411.15V411.16ZM1447.84 157.31L1327.16 217.83C1208.5 273.04 1066.49 332.04 932.04 359.75C865.39 373.49 813.1 379.05 767.47 377.26C690.29 374.23 617.83 348.14 563.42 303.8C533.82 279.67 517.36 253.4 499.94 225.58C491.02 211.34 481.88 196.74 470.65 182.02C484.93 195.82 498.15 210.27 511.11 224.47C543.7 260.16 577.4 297.06 626.78 321.72C671.61 344.1 728.86 355.87 796.94 356.71C858.05 357.46 926.72 349.06 995.54 332.4C1128.76 300.16 1254.75 243.06 1376.6 187.84L1494.56 134.38C1479.46 141.62 1463.92 149.24 1447.85 157.31H1447.84ZM1592.91 89.81C1595.2 88.98 1597.49 88.15 1599.77 87.32C1594.04 89.67 1588.27 92.08 1582.44 94.55L1592.91 89.81ZM700.33 301.62C799.2 326.68 914 316.31 1016.5 294.69C962.5 308.41 898.06 316.82 836.86 317.76C764.21 318.88 705.01 309.69 667.21 291.68C677.88 295.37 688.89 298.72 700.33 301.62ZM499.46 197.23C546.19 230.04 594.21 263.73 653.16 286.53C690.03 309.05 754.77 320.73 836.28 319.47C908.82 318.35 985.92 306.79 1045.02 288.31C1081.85 279.64 1116.66 269.75 1148.02 259.85C1238.56 231.26 1327.71 195.03 1413.93 159.99C1454.95 143.32 1496.96 126.25 1539.21 109.96C1370.77 183.5 1226.49 243.9 1067.48 291.25C983.12 316.37 893.31 339.39 808.16 337.69C739.17 336.32 673.73 318.57 613.66 284.95C566.49 258.55 528.31 225.91 491.27 191.48C494.01 193.4 496.74 195.32 499.46 197.23ZM477.95 182.2C518.65 220.54 559.78 257.25 611.88 286.42C640.19 302.27 670.29 314.78 701.32 323.62C735.64 333.39 771.35 338.71 807.47 339.43C846.18 340.2 888.51 335.94 936.87 326.39C974.47 318.97 1014.87 308.62 1067.88 292.84C1235.38 242.96 1386.45 178.67 1566.54 99.81C1566.81 99.69 1567.01 99.53 1567.15 99.35C1568.67 98.78 1570.19 98.22 1571.71 97.65L1375.72 186.47C1254.04 241.62 1128.22 298.64 995.34 330.8C847.38 366.61 713.67 362.76 628.5 320.24C579.37 295.71 545.76 258.9 513.25 223.31C497.73 206.32 481.87 188.96 464.23 172.79C468.84 175.92 473.41 179.06 477.96 182.21L477.95 182.2ZM-106.41 253.66L-58.13 194.3C-50.63 185.09 -42.88 175.56 -34.29 166.55C25 104.4 135.76 64.91 229.06 72.65C229.47 72.68 229.9 72.64 230.32 72.54C242.1 75.07 253.7 77.83 265.09 80.84C229.43 80.11 190.79 81.23 148.38 90.02C131.9 93.43 115.91 97.69 100.58 102.72C70.5 112.6 43 125.45 19.5 140.74C-21.12 167.15 -50.01 200.79 -77.95 233.33C-101.07 260.25 -124.88 287.97 -155.38 311.65C-137.99 292.49 -122.05 272.9 -106.41 253.67V253.66ZM423.39 159.18C402.98 142.21 379.43 128.25 353.39 117.71C325.55 106.44 295.4 99.32 263.78 96.54C215.14 92.27 162.61 98.86 114.93 114.51C95.09 121.02 76.08 129.11 58.57 138.64C4.29001 168.15 -34.73 209.52 -72.47 249.53C-74.76 251.96 -77.06 254.39 -79.35 256.82C-83.43 261.13 -87.43 265.42 -91.31 269.56C-124.22 304.77 -152.84 335.38 -202.9 358.52C-202.84 358.47 -202.78 358.42 -202.72 358.36C-187.96 345.56 -174.45 332.2 -161.75 318.57C-127.13 293.47 -101.13 263.22 -75.96 233.91C-48.14 201.52 -19.38 168.03 20.87 141.86C55.96 119.04 100.08 101.68 148.47 91.66C193.64 82.31 234.57 81.71 272.18 82.74C319.31 95.67 362.92 112.74 401.69 133.97C404.17 135.33 406.63 136.7 409.08 138.09C445.75 160.79 473.58 195.47 491.84 241.25C494.58 248.12 497.1 255.14 499.51 262.17C480.01 219.27 455.02 185.47 423.41 159.18H423.39ZM447.12 161.38C447.94 161.91 448.75 162.45 449.57 162.99C452.52 165.46 455.44 167.96 458.29 170.51C474.4 189.44 486.23 208.31 497.68 226.59C515.15 254.49 531.66 280.85 561.43 305.11C587.65 326.48 617.86 343.66 651.23 356.17C687.33 369.71 726.19 377.38 766.73 378.98C812.63 380.78 865.19 375.2 932.12 361.4C1051.41 336.81 1176.55 287.7 1286.13 238.41L1179.75 291.76C1154.38 300.94 1129.38 310.61 1104.84 320.27C1100.65 321.92 1096.46 323.58 1092.27 325.23C998.43 357.68 852.43 406.52 754.18 401.84C689.65 398.77 629.15 377.31 583.82 341.41C551.17 315.55 521.26 281.56 500.45 247.48C499.43 244.73 498.39 242 497.31 239.29C484.9 208.19 468.1 182.14 447.12 161.39V161.38ZM383.81 205.61C383.81 205.61 383.83 205.56 383.84 205.54C384.23 205.71 384.62 205.89 385.01 206.06C384.57 205.95 384.12 205.84 383.68 205.73C383.72 205.69 383.77 205.66 383.81 205.61ZM192.98 223.54C178.97 228.14 164.75 233.39 150.43 239.27C119.62 251.92 89.78 266.56 60.69 281.72C81.79 266.59 103.97 253.22 128.01 241.13C165.07 222.48 195.25 214.04 220.07 215.39C211.14 217.83 202.11 220.55 192.99 223.54H192.98ZM225.2 214.02C208.99 212.36 190.55 214.94 169.43 221.87C156.34 226.17 142.22 232.14 126.98 239.81C99.45 253.66 74.35 269.17 50.5 287.06C37.17 294.09 23.99 301.2 10.94 308.23C2.23 312.93 -6.57 317.67 -15.44 322.41C-9.9 317.8 -4.87999 313.55 -0.269989 309.64C20.38 292.15 35.3 279.51 65.87 260.43C112.56 231.27 158.77 211.54 203.24 201.77C251.04 191.27 301.49 190.99 356.79 200.97C318.74 196.75 273.63 201.26 225.2 214V214.02Z" fill="url(#paint0_radial_2_3498)"/>
<defs>
<radialGradient id="paint0_radial_2_3498" cx="0" cy="0" r="1" gradientUnits="userSpaceOnUse" gradientTransform="translate(1026.61 191.195) rotate(161.82) scale(1075.86 699.309)">
<stop stop-color="#817057"/>
<stop offset="0.2" stop-color="#FFDB7F"/>
<stop offset="0.32" stop-color="#D9B971"/>
<stop offset="0.46" stop-color="#AF9261"/>
<stop offset="0.55" stop-color="#C6A76A"/>
<stop offset="0.65" stop-color="#E7C677"/>
<stop offset="0.83" stop-color="#95815D"/>
<stop offset="1" stop-color="#CAAB6B"/>
</radialGradient>
</defs>
</svg>
