<?xml version="1.0" encoding="UTF-8"?>
<svg id="_圖層_1" data-name="圖層_1" xmlns="http://www.w3.org/2000/svg" version="1.1" xmlns:xlink="http://www.w3.org/1999/xlink" viewBox="0 0 340 150">
  <!-- Generator: Adobe Illustrator 29.3.1, SVG Export Plug-In . SVG Version: 2.1.0 Build 151)  -->
  <defs>
    <style>
      .st0 {
        fill: #fff;
      }
    </style>
  </defs>
  <path class="st0" d="M90.5,150h-54.6v-3c8.2,0,17.6-.8,17.6-15.6V40.6c0-16.4-14.8-6.4-18.4-3.4l-1.8-2.8L68.1,7.4h6.6v124c0,15.4,8.8,15.6,15.8,15.6v3h0ZM158,127.1c-11.5,1.1-6.4,26.8,5.7,16.8v2.7c-20.1,10.3-20.3-30.3,0-20.1v3c-1.2-1.2-3.6-2.4-5.7-2.4h0ZM170.5,125.5h3.1v22.2h-3.1v-22.2ZM184.6,127.4h-5.9v-2h15v2h-6v20.2h-3.1v-20.2ZM205.7,147.6h-3v-9.5l-7.1-12.6h3.5c1.3,2.8,4.1,7.9,5.2,10.4h.2c1.5-2.6,4.2-7.5,5.5-10.4h3l-7.3,12.6v9.5ZM235.4,127.1c-11.5,1.1-6.4,26.8,5.7,16.8v2.7c-20.1,10.3-20.3-30.3,0-20.1v3c-1.2-1.2-3.6-2.4-5.7-2.4h0ZM246.9,147.6v-22.2h12.6v2h-9.6v7.6h8.3v2h-8.3v8.7h9.9v2h-12.9ZM267,129.2h-.2v18.4h-2.5v-22.2h3.6c4.1,7.1,7,12.1,10.5,18.4h.2v-18.4h2.5v22.2h-3.5c-4.6-8.2-7.6-13.4-10.5-18.4ZM291.1,127.4h-5.9v-2h15v2h-6v20.2h-3.1v-20.2ZM304.3,147.6v-22.2h12.7v2h-9.6v7.6h8.3v2h-8.3v8.7h9.9v2h-13ZM337,147.6h-3.5l-4.1-9.5c-.9,0-3.7,0-4.6,0v9.6h-3.1v-22.1c5.3-.3,15.1-1.5,14.9,5.9,0,3.3-1.7,5.2-4.5,6l4.8,10h0ZM333.5,131.7c0-4.5-5.3-4.5-8.7-4.1v8.6c3.6,0,8.9.4,8.7-4.4Z"/>
</svg>