<?xml version="1.0" encoding="UTF-8"?>
<svg id="_圖層_1" data-name="圖層_1" xmlns="http://www.w3.org/2000/svg" version="1.1" xmlns:xlink="http://www.w3.org/1999/xlink" viewBox="0 0 340 150">
  <!-- Generator: Adobe Illustrator 29.3.1, SVG Export Plug-In . SVG Version: 2.1.0 Build 151)  -->
  <defs>
    <style>
      .st0 {
        fill: #fff;
      }
    </style>
  </defs>
  <path class="st0" d="M133.4,149.4v-22.2h3.1v20.2h8.6v2h-11.7ZM147.9,138.2c-.8-15,20.1-15.1,19.3,0,.7,15.5-20.1,15.6-19.3,0ZM164,138.3c.4-12.3-13.6-12.8-12.9,0-.3,12.6,13.3,12.5,12.9,0ZM186.2,138.6h-10.2v10.8h-3.1v-22.2h3.1v9.4h10.2v-9.4h3.1v22.2h-3.1v-10.8ZM207.1,142.6h-8.3l-2.2,6.8h-3l7.8-22.2h3.5l7.9,22.2h-3.6l-2.2-6.8ZM203,130h-.2c-.8,2.5-2.7,8.2-3.4,10.8h7.1c-.8-2.4-2.9-8.4-3.5-10.8ZM221.9,149.9c-2.2,0-4.4-.4-6-1.4v-2.9c5.9,6.2,17.9-2.4,6.1-6.5-13.3-5-2-16.4,6.7-11.1v2.8c-2.2-2.7-9.8-2.8-9.9,1.7,0,1.9,1,2.7,5,4.4,9.6,2.9,6.4,13.5-2,13h0ZM247.8,149.9c-2.9,0-3.6-1.8-3.6-4.6v-19h2.8v18.8c-.2,3.2,1.1,3.4,3.2,2.5v1.8c-.7.3-1.6.5-2.4.5ZM252.9,141.5c-.3-11.5,16.2-10.2,14.3.2h-11.2c-.6,6.6,6.2,8.3,10.3,4.7v2.3c-4.9,2.9-14,1.2-13.4-7.2ZM264.1,140.1c0-7-8.1-6.8-8.1,0h8.1ZM272.2,128.4c0-2.2,3.7-2.2,3.7,0,0,2.3-3.7,2.2-3.7,0ZM272.7,133.7h2.8v15.7h-2.8v-15.7ZM285.3,149.9c-1.6,0-3.4-.4-4.8-1.2v-2.1c4.6,4.2,12.4-.5,5-4-10.1-3.1-2.5-12.6,4.9-8.4v2.3c-2.5-2.2-6.6-2.1-7,.7,0,1.5.5,2,3.1,3,6.5,1.9,6.7,9.9-1.2,9.7h0ZM298.4,144.2c0,6.5,8.6,3.8,7.6-1.8,0,0,0-8.7,0-8.7h2.8v15.7h-2.6v-2.9c-1.4,4.8-11.5,4.5-10.7-1.9,0,0,0-10.8,0-10.8h2.8v10.5h0ZM314.6,133.7h2.6c0,1.1,0,2.4,0,3.4.8-2.6,3.1-4.4,5.7-3.8v2.8c-6.6-2.2-5.4,9.3-5.4,13.2h-2.8v-15.7h0ZM325.6,141.5c-.3-11.5,16.2-10.2,14.3.2h-11.2c-.6,6.6,6.2,8.3,10.3,4.7v2.3c-4.9,2.9-14,1.2-13.4-7.2ZM336.8,140.1c0-7-8.1-6.8-8.1,0h8.1ZM102.3,116.4l-9,33H19.9l44.8-66.4C99.1,28.2,34.9,9,23.3,45.2l-3-.8C29.9-14.2,94.3,3.9,92.5,40.2c3.4,17.1-48.3,75.4-53.8,87.6h42.4c6.8,0,14-3.4,18.4-11.4h2.8,0Z"/>
</svg>