<?xml version="1.0" encoding="UTF-8"?>
<svg id="_圖層_1" data-name="圖層_1" xmlns="http://www.w3.org/2000/svg" version="1.1" xmlns:xlink="http://www.w3.org/1999/xlink" viewBox="0 0 350 150">
  <!-- Generator: Adobe Illustrator 29.3.1, SVG Export Plug-In . SVG Version: 2.1.0 Build 151)  -->
  <defs>
    <style>
      .st0 {
        fill: #fff;
      }
    </style>
  </defs>
  <path class="st0" d="M24.7,125.6c4.8-16.5,30.3-8.9,25.2,7.6-1,3.6-3,6-5.8,7.2-1.8.8,2.8,6.4,18.8,6.4,38.3-.8,35.7-65.1-12.8-68.6v-3.2c61.1-17.6,5.7-84.9-20.2-36.6l-3-.6c16.3-70.6,110.9-12.3,52,31.6,56,20.6,26,85-16,80.4-18.7-.8-41.7-5.5-38.2-24.2ZM176.2,97.7h-10.2v10.8h-3.1v-22.2h3.1v9.4h10.2v-9.4h3.1v22.2h-3.1v-10.8ZM187.6,86.3h3.1v22.2h-3.1v-22.2ZM215.8,97.3v9.6c-23.1,11.8-23.2-29.9-.4-19.6v2.9c-15.6-11.9-20.3,22.5-2.4,15.8v-6.9h-4.4v-1.8h7.2,0ZM236,97.7h-10.2v10.8h-3.1v-22.2h3.1v9.4h10.2v-9.4h3.1v22.2h-3.1v-10.8ZM262.9,108.5c-.7-2.7-4.3-16.5-4.8-18.9h-.2c-.3,2.4-4,16.1-4.7,18.9h-3.2l-5.7-22.1h3.3c.8,3.7,3.4,15.1,4.1,18.7h.2c.9-3.5,3.6-15,4.4-18.7h3.3c.8,3.2,4.1,15.6,4.7,18.7h.2c.7-3.1,3.5-15.4,4.3-18.7h3l-5.8,22.1h-3.2,0ZM287.8,101.7h-8.3l-2.2,6.8h-3l7.8-22.2h3.5l7.9,22.2h-3.6l-2.2-6.8h0ZM283.7,89.1h-.2c-.8,2.5-2.7,8.2-3.4,10.8h7.1c-.8-2.4-2.9-8.4-3.5-10.8ZM305.2,108.5h-3v-9.5l-7.1-12.6h3.5c1.3,2.8,4.1,7.9,5.2,10.4h.2c1.5-2.6,4.2-7.5,5.5-10.4h3l-7.3,12.6v9.5ZM128,125.6h3.1v22.2h-3.1v-22.2ZM142,129.3h-.2v18.4h-2.5v-22.2h3.6c4.1,7.1,7,12.1,10.4,18.4h.2v-18.4h2.5v22.2h-3.5c-4.6-8.2-7.6-13.4-10.5-18.4ZM167,127.6h-5.9v-2h15v2h-6v20.2h-3.1v-20.2ZM181.1,147.8v-22.2h12.7v2h-9.6v7.6h8.3v2h-8.3v8.7h9.9v2h-13ZM214.7,147.8h-3.5l-4.1-9.5c-.9,0-3.7,0-4.6,0v9.6h-3v-22.1c5.3-.3,15.1-1.5,14.9,5.9,0,3.3-1.7,5.2-4.5,6l4.8,10h0ZM211.2,131.8c0-4.5-5.3-4.5-8.7-4.1v8.6c3.6,0,8.9.4,8.7-4.4ZM228.8,127.2c-11.5,1.1-6.4,26.8,5.7,16.8v2.7c-20.1,10.3-20.3-30.3,0-20.1v3c-1.2-1.2-3.6-2.4-5.7-2.4h0ZM254.5,137h-10.2v10.8h-3.1v-22.2h3.1v9.4h10.2v-9.4h3.1v22.2h-3.1v-10.8ZM276.3,141h-8.3l-2.2,6.8h-3l7.8-22.2h3.5l7.9,22.2h-3.6l-2.2-6.8h0ZM272.2,128.4h-.2c-.8,2.5-2.7,8.2-3.4,10.8h7.1c-.8-2.4-2.9-8.4-3.5-10.8ZM289.9,129.3h-.2v18.4h-2.5v-22.2h3.6c4.1,7.1,7,12.1,10.5,18.4h.2v-18.4h2.5v22.2h-3.5c-4.6-8.2-7.6-13.4-10.5-18.4ZM328,136.6v9.6c-23.1,11.8-23.2-29.9-.4-19.6v2.9c-15.6-11.9-20.3,22.5-2.3,15.8v-6.9h-4.4v-1.8h7.2,0ZM335,147.8v-22.2h12.7v2h-9.6v7.6h8.3v2h-8.3v8.7h9.9v2h-13Z"/>
</svg>