<?xml version="1.0" encoding="UTF-8"?>
<svg id="_圖層_1" data-name="圖層_1" xmlns="http://www.w3.org/2000/svg" version="1.1" xmlns:xlink="http://www.w3.org/1999/xlink" viewBox="0 0 390 150">
  <!-- Generator: Adobe Illustrator 29.3.1, SVG Export Plug-In . SVG Version: 2.1.0 Build 151)  -->
  <defs>
    <style>
      .st0 {
        fill: #fff;
      }
    </style>
  </defs>
  <path class="st0" d="M76.4,110c-.4,19.2-1,39.5,16,37v3h-56.4v-3c17.6,2.4,16.3-18.7,16-37H2v-3L67.8,7.8l8.6,1.4v88.6h20v12.2h-20ZM52,38.4l-33.8,50c-6.6,9.2-2,9.4,2.6,9.4h31.2v-59.4ZM117.6,150c-2.2,0-4.4-.4-6-1.4v-2.9c5.9,6.2,17.9-2.4,6.1-6.5-13.3-5-2-16.4,6.7-11.1v2.8c-2.2-2.7-9.8-2.8-9.9,1.7,0,1.9,1,2.7,5,4.4,9.6,2.9,6.4,13.5-2,13h0ZM139,128.9c-11.5,1.1-6.4,26.8,5.7,16.8v2.7c-20.1,10.3-20.3-30.3,0-20.1v3c-1.2-1.2-3.6-2.4-5.7-2.4h0ZM163.7,138.7h-10.2v10.8h-3.1v-22.2h3.1v9.4h10.2v-9.4h3.1v22.2h-3.1v-10.8ZM172.5,138.2c-.8-15,20.1-15.1,19.3,0,.7,15.5-20.1,15.6-19.3,0ZM188.7,138.4c.4-12.3-13.6-12.8-12.9,0-.3,12.6,13.3,12.5,12.9,0ZM196.7,138.2c-.8-15,20.1-15.1,19.3,0,.7,15.5-20.1,15.6-19.3,0ZM212.8,138.4c.4-12.3-13.6-12.8-12.9,0-.3,12.6,13.3,12.5,12.9,0ZM221.8,149.5v-22.2h3.1v20.2h8.6v2h-11.7ZM265.1,138.4c.5,10.3-8.8,12-17.3,10.8v-21.8c8.6-1.2,18,.6,17.3,10.9h0ZM261.9,138.4c.3-7.7-4.6-9.8-11-8.9v17.8c6.4,1.1,11.3-1.5,11-8.9h0ZM271.9,127.3h3.1v22.2h-3.1v-22.2ZM287,150c-2.2,0-4.4-.4-6-1.4v-2.9c5.9,6.2,17.9-2.4,6.1-6.5-13.3-5-2-16.4,6.7-11.1v2.8c-2.2-2.7-9.8-2.8-9.9,1.7,0,1.9,1,2.7,5,4.4,9.6,2.9,6.4,13.5-2,13h0ZM303.8,129.3h-5.9v-2h15v2h-6v20.2h-3.1v-20.2ZM332.2,149.5h-3.5l-4.1-9.5c-.9,0-3.7,0-4.6,0v9.6h-3v-22.1c5.3-.3,15.1-1.5,14.9,5.9,0,3.3-1.7,5.2-4.5,6l4.8,10h0ZM328.8,133.6c0-4.5-5.3-4.5-8.7-4.1v8.6c3.6,0,8.9.4,8.7-4.4ZM338,127.3h3.1v22.2h-3.1v-22.2ZM357.4,128.9c-11.5,1.1-6.4,26.8,5.7,16.8v2.7c-20.1,10.3-20.3-30.3,0-20.1v3c-1.2-1.2-3.6-2.4-5.7-2.4h0ZM372.5,129.3h-5.9v-2h15v2h-6v20.2h-3.1v-20.2Z"/>
</svg>