<svg width="334" height="334" viewBox="0 0 334 334" fill="none" xmlns="http://www.w3.org/2000/svg">
<path d="M227.155 61.866C285.029 95.2793 304.857 169.282 271.444 227.155C238.031 285.029 164.029 304.857 106.155 271.444C48.2817 238.031 28.4528 164.029 61.866 106.155C95.2793 48.2817 169.282 28.4528 227.155 61.866Z" stroke="url(#paint0_linear_141_338)" stroke-width="2"/>
<path opacity="0.9" d="M166.84 323.68C254.013 323.68 324.68 253.013 324.68 165.84C324.68 78.6674 254.013 8 166.84 8C79.6674 8 9 78.6674 9 165.84C9 253.013 79.6674 323.68 166.84 323.68Z" fill="url(#paint1_radial_141_338)"/>
<path d="M133.952 112.046C136.544 112.082 138.614 112.388 140.162 112.964C141.71 113.54 142.79 114.26 143.402 115.124C144.05 115.952 144.338 116.798 144.266 117.662C144.23 118.526 143.924 119.264 143.348 119.876C142.808 120.488 142.07 120.866 141.134 121.01C140.198 121.154 139.208 120.902 138.164 120.254C137.948 119.282 137.588 118.31 137.084 117.338C136.58 116.366 136.004 115.466 135.356 114.638C134.744 113.774 134.132 113.018 133.52 112.37L133.952 112.046ZM143.294 161.132C143.294 161.348 142.808 161.69 141.836 162.158C140.9 162.662 139.586 162.914 137.894 162.914H136.652V121.712H143.294V161.132ZM127.796 153.248C127.796 153.464 127.526 153.752 126.986 154.112C126.446 154.436 125.762 154.724 124.934 154.976C124.142 155.228 123.296 155.354 122.396 155.354H121.424V130.028V127.328L128.228 130.028H155.39V131.594H127.796V153.248ZM151.61 130.028L154.472 126.734L160.79 131.54C160.61 131.72 160.322 131.918 159.926 132.134C159.566 132.35 159.116 132.512 158.576 132.62V148.604C158.576 150.008 158.396 151.214 158.036 152.222C157.712 153.194 156.974 153.986 155.822 154.598C154.67 155.174 152.924 155.57 150.584 155.786C150.548 154.778 150.44 153.932 150.26 153.248C150.116 152.528 149.864 151.916 149.504 151.412C149.144 150.98 148.658 150.584 148.046 150.224C147.47 149.864 146.57 149.594 145.346 149.414V148.658C145.346 148.658 145.58 148.676 146.048 148.712C146.516 148.748 147.074 148.784 147.722 148.82C148.406 148.856 149.054 148.892 149.666 148.928C150.278 148.928 150.746 148.928 151.07 148.928C151.502 148.928 151.79 148.856 151.934 148.712C152.078 148.532 152.15 148.298 152.15 148.01V130.028H151.61ZM158.738 116.474C158.738 116.474 158.972 116.654 159.44 117.014C159.908 117.374 160.502 117.842 161.222 118.418C161.942 118.958 162.68 119.552 163.436 120.2C164.228 120.812 164.93 121.388 165.542 121.928C165.434 122.504 164.948 122.792 164.084 122.792H115.214L114.728 121.28H155.012L158.738 116.474ZM190.544 112.856C193.676 113.936 196.178 115.16 198.05 116.528C199.958 117.896 201.344 119.3 202.208 120.74C203.108 122.144 203.576 123.476 203.612 124.736C203.684 125.96 203.45 126.968 202.91 127.76C202.37 128.552 201.632 129.002 200.696 129.11C199.76 129.218 198.752 128.858 197.672 128.03C197.348 126.338 196.772 124.61 195.944 122.846C195.152 121.082 194.234 119.372 193.19 117.716C192.146 116.06 191.084 114.566 190.004 113.234L190.544 112.856ZM190.382 122.738C190.346 123.098 190.184 123.422 189.896 123.71C189.608 123.962 189.14 124.124 188.492 124.196V152.168C188.492 152.816 188.69 153.266 189.086 153.518C189.518 153.77 190.328 153.896 191.516 153.896H198.104C199.364 153.896 200.462 153.896 201.398 153.896C202.334 153.86 203.054 153.824 203.558 153.788C204.026 153.752 204.386 153.68 204.638 153.572C204.926 153.428 205.178 153.194 205.394 152.87C205.754 152.294 206.186 151.268 206.69 149.792C207.194 148.28 207.734 146.498 208.31 144.446H208.904L209.12 153.248C210.092 153.608 210.74 154.004 211.064 154.436C211.424 154.832 211.604 155.354 211.604 156.002C211.604 156.758 211.388 157.406 210.956 157.946C210.56 158.486 209.84 158.936 208.796 159.296C207.752 159.656 206.33 159.908 204.53 160.052C202.73 160.232 200.408 160.322 197.564 160.322H190.598C188.474 160.322 186.782 160.16 185.522 159.836C184.298 159.512 183.416 158.9 182.876 158C182.372 157.064 182.12 155.75 182.12 154.058V121.928L190.382 122.738ZM207.5 129.542C210.308 131.27 212.558 132.998 214.25 134.726C215.978 136.454 217.256 138.164 218.084 139.856C218.948 141.512 219.452 143.06 219.596 144.5C219.74 145.904 219.614 147.128 219.218 148.172C218.858 149.216 218.336 150.008 217.652 150.548C217.004 151.052 216.266 151.232 215.438 151.088C214.61 150.944 213.836 150.386 213.116 149.414C213.044 147.65 212.792 145.634 212.36 143.366C211.928 141.098 211.28 138.794 210.416 136.454C209.588 134.078 208.454 131.918 207.014 129.974L207.5 129.542ZM176.018 128.408C177.35 131.648 178.124 134.582 178.34 137.21C178.556 139.802 178.412 142.052 177.908 143.96C177.44 145.868 176.774 147.434 175.91 148.658C175.334 149.522 174.65 150.152 173.858 150.548C173.066 150.908 172.274 151.034 171.482 150.926C170.726 150.818 170.078 150.476 169.538 149.9C168.854 149.144 168.584 148.316 168.728 147.416C168.872 146.48 169.286 145.634 169.97 144.878C170.87 144.05 171.734 142.808 172.562 141.152C173.39 139.46 174.056 137.534 174.56 135.374C175.1 133.178 175.334 130.874 175.262 128.462L176.018 128.408ZM147.344 191.758C147.344 192.046 147.344 192.334 147.344 192.622C147.344 192.874 147.344 193.108 147.344 193.324V197.374C147.344 197.626 147.398 197.824 147.506 197.968C147.614 198.076 147.848 198.13 148.208 198.13H149.882C150.206 198.13 150.512 198.13 150.8 198.13C151.088 198.13 151.322 198.13 151.502 198.13C151.646 198.13 151.826 198.13 152.042 198.13C152.258 198.094 152.42 198.058 152.528 198.022C152.708 198.022 152.906 198.004 153.122 197.968C153.338 197.932 153.536 197.896 153.716 197.86H154.202L154.418 197.914C155.066 198.13 155.498 198.4 155.714 198.724C155.966 199.012 156.092 199.39 156.092 199.858C156.092 200.47 155.876 200.974 155.444 201.37C155.048 201.766 154.346 202.054 153.338 202.234C152.366 202.414 150.998 202.504 149.234 202.504H146.48C145.256 202.504 144.338 202.378 143.726 202.126C143.114 201.838 142.718 201.406 142.538 200.83C142.394 200.218 142.322 199.426 142.322 198.454V191.758H147.344ZM138.164 191.866C138.056 193.27 137.786 194.602 137.354 195.862C136.958 197.122 136.256 198.31 135.248 199.426C134.276 200.542 132.872 201.568 131.036 202.504C129.2 203.44 126.77 204.286 123.746 205.042L123.206 204.34C125.33 203.404 127.004 202.468 128.228 201.532C129.452 200.56 130.352 199.552 130.928 198.508C131.504 197.464 131.864 196.384 132.008 195.268C132.188 194.152 132.296 193.018 132.332 191.866H138.164ZM135.572 173.83C137.804 173.974 139.532 174.316 140.756 174.856C141.98 175.396 142.808 176.026 143.24 176.746C143.672 177.43 143.816 178.132 143.672 178.852C143.528 179.536 143.15 180.112 142.538 180.58C141.962 181.012 141.26 181.246 140.432 181.282C139.64 181.282 138.812 180.976 137.948 180.364C137.804 179.248 137.444 178.132 136.868 177.016C136.292 175.864 135.716 174.892 135.14 174.1L135.572 173.83ZM125.312 222.592C125.312 222.844 125.06 223.132 124.556 223.456C124.052 223.816 123.386 224.122 122.558 224.374C121.766 224.662 120.92 224.806 120.02 224.806H119.048V190.948V188.248L125.798 190.948H157.01V192.46H125.312V222.592ZM154.958 190.948L157.82 187.708L163.976 192.406C163.832 192.622 163.562 192.838 163.166 193.054C162.806 193.27 162.338 193.432 161.762 193.54V217.624C161.762 218.956 161.582 220.108 161.222 221.08C160.898 222.088 160.16 222.88 159.008 223.456C157.892 224.068 156.182 224.464 153.878 224.644C153.806 223.708 153.68 222.88 153.5 222.16C153.356 221.476 153.086 220.9 152.69 220.432C152.294 220 151.772 219.622 151.124 219.298C150.512 218.938 149.576 218.65 148.316 218.434V217.732C148.316 217.732 148.568 217.75 149.072 217.786C149.576 217.822 150.17 217.858 150.854 217.894C151.574 217.93 152.258 217.966 152.906 218.002C153.59 218.038 154.094 218.056 154.418 218.056C154.85 218.056 155.138 217.966 155.282 217.786C155.426 217.606 155.498 217.336 155.498 216.976V190.948H154.958ZM157.982 176.206C157.982 176.206 158.216 176.386 158.684 176.746C159.152 177.07 159.728 177.502 160.412 178.042C161.132 178.582 161.87 179.158 162.626 179.77C163.418 180.346 164.138 180.922 164.786 181.498C164.75 181.786 164.57 182.002 164.246 182.146C163.958 182.29 163.616 182.362 163.22 182.362H116.78L116.348 180.796H154.256L157.982 176.206ZM147.29 214.816V216.328H133.304V214.816H147.29ZM143.348 205.042L145.886 202.342L151.232 206.338C151.088 206.482 150.854 206.662 150.53 206.878C150.242 207.058 149.882 207.184 149.45 207.256V217.84C149.45 217.948 149.18 218.11 148.64 218.326C148.1 218.542 147.47 218.74 146.75 218.92C146.03 219.1 145.364 219.19 144.752 219.19H143.834V205.042H143.348ZM136.598 218.488C136.598 218.632 136.346 218.848 135.842 219.136C135.374 219.424 134.78 219.676 134.06 219.892C133.34 220.108 132.584 220.216 131.792 220.216H130.982V205.042V202.72L136.814 205.042H147.722V206.608H136.598V218.488ZM153.77 184.09C153.59 184.846 152.924 185.224 151.772 185.224C150.8 186.304 149.648 187.51 148.316 188.842C146.984 190.174 145.652 191.38 144.32 192.46H142.862C143.15 191.488 143.456 190.408 143.78 189.22C144.104 187.996 144.392 186.772 144.644 185.548C144.932 184.324 145.148 183.208 145.292 182.2L153.77 184.09ZM128.93 182.362C131.198 182.758 132.944 183.334 134.168 184.09C135.428 184.81 136.274 185.602 136.706 186.466C137.174 187.294 137.318 188.086 137.138 188.842C136.994 189.598 136.634 190.228 136.058 190.732C135.518 191.2 134.834 191.434 134.006 191.434C133.214 191.434 132.386 191.092 131.522 190.408C131.378 189.004 131 187.6 130.388 186.196C129.776 184.792 129.128 183.604 128.444 182.632L128.93 182.362ZM198.374 196.132C201.146 196.672 203.324 197.41 204.908 198.346C206.528 199.246 207.662 200.182 208.31 201.154C208.958 202.126 209.228 203.026 209.12 203.854C209.012 204.646 208.634 205.204 207.986 205.528C207.374 205.852 206.618 205.798 205.718 205.366C205.214 204.43 204.512 203.422 203.612 202.342C202.712 201.262 201.74 200.218 200.696 199.21C199.688 198.202 198.734 197.338 197.834 196.618L198.374 196.132ZM196.16 200.992L198.482 198.778L202.964 202.288C202.784 202.504 202.532 202.684 202.208 202.828C201.884 202.936 201.47 203.026 200.966 203.098C200.966 205.186 200.84 206.734 200.588 207.742C200.336 208.714 199.832 209.452 199.076 209.956C198.536 210.316 197.942 210.568 197.294 210.712C196.646 210.82 195.854 210.874 194.918 210.874C194.918 210.334 194.882 209.848 194.81 209.416C194.738 208.984 194.558 208.606 194.27 208.282C194.018 208.03 193.694 207.832 193.298 207.688C192.938 207.508 192.506 207.364 192.002 207.256V206.392C192.47 206.428 193.01 206.464 193.622 206.5C194.27 206.5 194.774 206.5 195.134 206.5C195.674 206.5 196.034 206.428 196.214 206.284C196.394 206.104 196.52 205.6 196.592 204.772C196.664 203.944 196.7 202.684 196.7 200.992H196.16ZM206.366 183.496C206.222 183.784 205.988 184.018 205.664 184.198C205.34 184.378 204.89 184.432 204.314 184.36C203.414 185.152 202.442 185.944 201.398 186.736C200.39 187.492 199.436 188.122 198.536 188.626L197.726 188.14C198.122 187.312 198.554 186.268 199.022 185.008C199.49 183.712 199.94 182.398 200.372 181.066L206.366 183.496ZM181.796 180.742C183.596 181.174 185 181.732 186.008 182.416C187.016 183.1 187.7 183.82 188.06 184.576C188.42 185.296 188.528 185.98 188.384 186.628C188.276 187.24 187.988 187.744 187.52 188.14C187.052 188.536 186.476 188.734 185.792 188.734C185.144 188.698 184.478 188.392 183.794 187.816C183.758 186.628 183.47 185.422 182.93 184.198C182.426 182.938 181.868 181.876 181.256 181.012L181.796 180.742ZM184.658 200.02L185.63 199.102L190.328 200.992H189.68V211.684C189.68 212.044 189.788 212.278 190.004 212.386C190.22 212.494 190.724 212.548 191.516 212.548H196.214C197.114 212.548 197.942 212.548 198.698 212.548C199.454 212.548 199.994 212.53 200.318 212.494C200.894 212.494 201.308 212.332 201.56 212.008C201.812 211.684 202.1 211.108 202.424 210.28C202.748 209.452 203.09 208.498 203.45 207.418H204.044L204.206 212.062C204.962 212.35 205.448 212.656 205.664 212.98C205.916 213.268 206.042 213.628 206.042 214.06C206.042 214.744 205.754 215.284 205.178 215.68C204.602 216.076 203.576 216.364 202.1 216.544C200.624 216.724 198.5 216.814 195.728 216.814H190.382C188.762 216.814 187.538 216.688 186.71 216.436C185.918 216.184 185.378 215.752 185.09 215.14C184.802 214.528 184.658 213.664 184.658 212.548V200.992V200.02ZM198.05 200.992V202.558H187.844L187.358 200.992H198.05ZM198.914 180.958C198.806 181.354 198.59 181.66 198.266 181.876C197.942 182.092 197.456 182.2 196.808 182.2C196.16 185.26 195.116 188.284 193.676 191.272C192.272 194.224 190.328 196.978 187.844 199.534C185.36 202.054 182.138 204.214 178.178 206.014L177.692 205.474C180.788 203.278 183.272 200.74 185.144 197.86C187.016 194.944 188.438 191.902 189.41 188.734C190.382 185.566 191.03 182.506 191.354 179.554L198.914 180.958ZM205.124 192.082C205.124 192.082 205.394 192.298 205.934 192.73C206.474 193.162 207.104 193.684 207.824 194.296C208.58 194.908 209.264 195.484 209.876 196.024C209.732 196.6 209.246 196.888 208.418 196.888H178.718L178.286 195.376H202.532L205.124 192.082ZM203.342 186.574C203.342 186.574 203.612 186.772 204.152 187.168C204.692 187.528 205.34 187.996 206.096 188.572C206.888 189.112 207.59 189.652 208.202 190.192C208.094 190.768 207.626 191.056 206.798 191.056H180.122L179.69 189.544H200.696L203.342 186.574ZM177.638 222.214C177.638 222.502 177.386 222.826 176.882 223.186C176.414 223.582 175.784 223.924 174.992 224.212C174.236 224.5 173.39 224.644 172.454 224.644H171.428V177.448V174.64L178.178 177.448H212.144V179.014H177.638V222.214ZM209.39 177.448L212.468 174.046L218.516 178.906C218.336 179.158 218.066 179.374 217.706 179.554C217.346 179.734 216.878 179.896 216.302 180.04V222.268C216.302 222.412 216.014 222.646 215.438 222.97C214.862 223.33 214.16 223.636 213.332 223.888C212.54 224.176 211.748 224.32 210.956 224.32H209.93V177.448H209.39ZM212.522 218.812V220.378H175.424V218.812H212.522Z" fill="white"/>
<defs>
<linearGradient id="paint0_linear_141_338" x1="227.655" y1="61" x2="105.655" y2="272.31" gradientUnits="userSpaceOnUse">
<stop stop-color="white"/>
<stop offset="1" stop-color="white" stop-opacity="0"/>
</linearGradient>
<radialGradient id="paint1_radial_141_338" cx="0" cy="0" r="1" gradientUnits="userSpaceOnUse" gradientTransform="translate(166.84 165.84) scale(157.84)">
<stop offset="0.75" stop-color="white" stop-opacity="0"/>
<stop offset="0.77" stop-color="#FFF9E2" stop-opacity="0.9"/>
<stop offset="0.84" stop-color="#FFEC9C" stop-opacity="0.3"/>
<stop offset="0.9" stop-color="white" stop-opacity="0.1"/>
<stop offset="1" stop-color="white" stop-opacity="0"/>
</radialGradient>
</defs>
</svg>
