<svg width="334" height="334" viewBox="0 0 334 334" fill="none" xmlns="http://www.w3.org/2000/svg">
<path d="M227.155 61.866C285.029 95.2793 304.857 169.282 271.444 227.155C238.031 285.029 164.029 304.857 106.155 271.444C48.2817 238.031 28.4528 164.029 61.866 106.155C95.2793 48.2817 169.282 28.4528 227.155 61.866Z" stroke="url(#paint0_linear_141_336)" stroke-width="2"/>
<path opacity="0.9" d="M166.84 323.68C254.013 323.68 324.68 253.013 324.68 165.84C324.68 78.6674 254.013 8 166.84 8C79.6674 8 9 78.6674 9 165.84C9 253.013 79.6674 323.68 166.84 323.68Z" fill="url(#paint1_radial_141_336)"/>
<path d="M155.822 113.828C155.822 113.828 156.056 114.008 156.524 114.368C157.028 114.728 157.64 115.196 158.36 115.772C159.116 116.348 159.89 116.96 160.682 117.608C161.474 118.22 162.212 118.814 162.896 119.39C162.752 119.966 162.23 120.254 161.33 120.254H118.13L117.644 118.688H151.988L155.822 113.828ZM151.718 131.756C151.718 131.756 151.934 131.936 152.366 132.296C152.834 132.656 153.41 133.106 154.094 133.646C154.814 134.186 155.57 134.78 156.362 135.428C157.154 136.04 157.874 136.616 158.522 137.156C158.414 137.732 157.892 138.02 156.956 138.02H121.748L121.316 136.454H147.884L151.718 131.756ZM158.63 150.98C158.63 150.98 158.864 151.178 159.332 151.574C159.836 151.934 160.448 152.402 161.168 152.978C161.924 153.554 162.716 154.184 163.544 154.868C164.372 155.516 165.128 156.128 165.812 156.704C165.668 157.28 165.146 157.568 164.246 157.568H115.214L114.782 156.002H154.634L158.63 150.98ZM169.106 128.462H208.202L212.144 123.494C212.144 123.494 212.378 123.674 212.846 124.034C213.35 124.394 213.962 124.862 214.682 125.438C215.438 126.014 216.23 126.626 217.058 127.274C217.886 127.922 218.624 128.534 219.272 129.11C219.128 129.686 218.606 129.974 217.706 129.974H169.538L169.106 128.462ZM189.464 112.37L198.536 113.18C198.464 113.612 198.266 113.954 197.942 114.206C197.654 114.458 197.186 114.638 196.538 114.746C196.466 118.058 196.358 121.298 196.214 124.466C196.106 127.634 195.818 130.712 195.35 133.7C194.882 136.652 194.09 139.496 192.974 142.232C191.894 144.968 190.364 147.578 188.384 150.062C186.404 152.51 183.83 154.814 180.662 156.974C177.53 159.098 173.66 161.06 169.052 162.86L168.566 162.05C172.958 159.422 176.504 156.65 179.204 153.734C181.904 150.818 183.956 147.776 185.36 144.608C186.8 141.44 187.79 138.128 188.33 134.672C188.906 131.216 189.23 127.634 189.302 123.926C189.41 120.182 189.464 116.33 189.464 112.37ZM196.268 128.786C196.664 131.414 197.384 134.006 198.428 136.562C199.472 139.118 200.894 141.584 202.694 143.96C204.53 146.336 206.852 148.55 209.66 150.602C212.468 152.618 215.834 154.418 219.758 156.002L219.65 156.596C218.03 156.92 216.716 157.586 215.708 158.594C214.736 159.602 214.106 161.024 213.818 162.86C210.434 160.808 207.626 158.432 205.394 155.732C203.162 153.032 201.362 150.152 199.994 147.092C198.626 143.996 197.6 140.9 196.916 137.804C196.232 134.708 195.728 131.756 195.404 128.948L196.268 128.786ZM158.738 179.122C158.738 179.122 158.954 179.32 159.386 179.716C159.854 180.076 160.412 180.562 161.06 181.174C161.744 181.786 162.464 182.434 163.22 183.118C163.976 183.766 164.642 184.378 165.218 184.954C165.11 185.53 164.606 185.818 163.706 185.818H115.862L115.43 184.306H155.12L158.738 179.122ZM133.088 174.046C135.752 174.226 137.876 174.676 139.46 175.396C141.044 176.08 142.178 176.89 142.862 177.826C143.582 178.762 143.942 179.698 143.942 180.634C143.978 181.57 143.726 182.362 143.186 183.01C142.646 183.658 141.926 184.054 141.026 184.198C140.162 184.342 139.208 184.09 138.164 183.442C137.948 182.362 137.534 181.264 136.922 180.148C136.346 179.032 135.68 177.97 134.924 176.962C134.168 175.954 133.412 175.09 132.656 174.37L133.088 174.046ZM145.346 187.168C148.982 187.744 151.952 188.572 154.256 189.652C156.596 190.732 158.36 191.92 159.548 193.216C160.772 194.476 161.546 195.718 161.87 196.942C162.23 198.166 162.212 199.228 161.816 200.128C161.456 200.992 160.826 201.568 159.926 201.856C159.062 202.108 158.036 201.928 156.848 201.316C156.308 200.092 155.606 198.85 154.742 197.59C153.878 196.33 152.906 195.088 151.826 193.864C150.746 192.64 149.612 191.506 148.424 190.462C147.236 189.382 146.066 188.446 144.914 187.654L145.346 187.168ZM130.172 196.942C131.612 200.182 133.556 203.008 136.004 205.42C138.488 207.832 141.332 209.902 144.536 211.63C147.74 213.358 151.16 214.78 154.796 215.896C158.468 217.012 162.194 217.876 165.974 218.488L165.866 219.136C164.426 219.424 163.22 220.054 162.248 221.026C161.312 221.998 160.628 223.258 160.196 224.806C155.3 223.402 150.836 221.548 146.804 219.244C142.808 216.904 139.334 213.97 136.382 210.442C133.43 206.878 131.108 202.558 129.416 197.482L130.172 196.942ZM136.706 190.192C136.562 190.444 136.346 190.642 136.058 190.786C135.77 190.93 135.302 190.984 134.654 190.948C133.43 192.496 131.936 194.062 130.172 195.646C128.444 197.23 126.464 198.706 124.232 200.074C122.036 201.406 119.678 202.522 117.158 203.422L116.78 202.774C118.616 201.334 120.308 199.66 121.856 197.752C123.44 195.844 124.826 193.882 126.014 191.866C127.202 189.85 128.12 187.96 128.768 186.196L136.706 190.192ZM154.742 199.21C154.598 199.498 154.364 199.714 154.04 199.858C153.716 200.002 153.212 200.056 152.528 200.02C150.62 203.98 148.01 207.652 144.698 211.036C141.386 214.384 137.282 217.264 132.386 219.676C127.526 222.088 121.73 223.798 114.998 224.806L114.674 224.104C120.542 222.34 125.6 220.036 129.848 217.192C134.096 214.312 137.606 211.054 140.378 207.418C143.15 203.746 145.256 199.858 146.696 195.754L154.742 199.21ZM179.852 210.712C181.076 212.764 182.516 214.294 184.172 215.302C185.864 216.274 187.934 216.922 190.382 217.246C192.866 217.534 195.836 217.678 199.292 217.678C200.444 217.678 201.902 217.678 203.666 217.678C205.466 217.678 207.374 217.678 209.39 217.678C211.406 217.642 213.314 217.624 215.114 217.624C216.95 217.588 218.444 217.552 219.596 217.516V218.164C218.48 218.452 217.652 219.1 217.112 220.108C216.572 221.152 216.284 222.322 216.248 223.618C215.348 223.618 214.142 223.618 212.63 223.618C211.118 223.618 209.516 223.618 207.824 223.618C206.132 223.618 204.512 223.618 202.964 223.618C201.452 223.618 200.21 223.618 199.238 223.618C195.494 223.618 192.344 223.258 189.788 222.538C187.268 221.854 185.162 220.612 183.47 218.812C181.814 216.976 180.446 214.366 179.366 210.982L179.852 210.712ZM184.496 190.3C184.028 191.02 183.434 191.92 182.714 193C182.03 194.044 181.292 195.178 180.5 196.402C179.708 197.59 178.916 198.724 178.124 199.804C177.368 200.884 176.702 201.82 176.126 202.612H176.558L174.614 204.394L169.862 200.884C170.258 200.596 170.78 200.326 171.428 200.074C172.112 199.786 172.724 199.606 173.264 199.534L171.05 201.1C171.698 200.308 172.418 199.354 173.21 198.238C174.002 197.086 174.794 195.898 175.586 194.674C176.414 193.414 177.17 192.208 177.854 191.056C178.574 189.904 179.132 188.932 179.528 188.14L184.496 190.3ZM178.772 188.41L181.58 185.602L187.196 190.678C186.872 191.002 186.314 191.236 185.522 191.38C184.766 191.524 183.902 191.596 182.93 191.596C181.994 191.56 181.058 191.47 180.122 191.326L179.474 188.41H178.772ZM179.636 201.208L182.822 198.022L188.276 202.666C187.988 203.098 187.304 203.368 186.224 203.476C185.324 206.212 184.1 208.912 182.552 211.576C181.004 214.204 179.078 216.652 176.774 218.92C174.506 221.152 171.806 223.096 168.674 224.752L168.242 224.158C170.366 222.214 172.22 219.982 173.804 217.462C175.424 214.942 176.774 212.278 177.854 209.47C178.934 206.662 179.726 203.908 180.23 201.208H179.636ZM181.31 188.41V189.976H169.862L169.376 188.41H181.31ZM183.74 201.208V202.72H174.344L174.938 201.208H183.74ZM172.454 174.316C175.082 174.46 177.188 174.874 178.772 175.558C180.392 176.206 181.58 176.998 182.336 177.934C183.092 178.834 183.506 179.734 183.578 180.634C183.65 181.534 183.434 182.326 182.93 183.01C182.462 183.658 181.814 184.072 180.986 184.252C180.158 184.432 179.222 184.234 178.178 183.658C177.89 182.542 177.404 181.444 176.72 180.364C176.072 179.284 175.334 178.258 174.506 177.286C173.678 176.278 172.868 175.414 172.076 174.694L172.454 174.316ZM209.714 188.194L212.306 185.224L218.084 189.598C217.94 189.814 217.67 190.03 217.274 190.246C216.914 190.462 216.446 190.624 215.87 190.732V209.956C215.87 211.144 215.726 212.17 215.438 213.034C215.186 213.862 214.61 214.528 213.71 215.032C212.81 215.536 211.406 215.86 209.498 216.004C209.498 215.248 209.444 214.582 209.336 214.006C209.264 213.394 209.12 212.908 208.904 212.548C208.724 212.188 208.418 211.864 207.986 211.576C207.59 211.288 206.996 211.072 206.204 210.928V210.172C206.204 210.172 206.33 210.19 206.582 210.226C206.87 210.226 207.194 210.244 207.554 210.28C207.914 210.316 208.256 210.352 208.58 210.388C208.94 210.388 209.21 210.388 209.39 210.388C209.75 210.388 209.984 210.316 210.092 210.172C210.2 209.992 210.254 209.758 210.254 209.47V188.194H209.714ZM194.27 180.256C196.97 180.58 199.112 181.048 200.696 181.66C202.28 182.236 203.45 182.884 204.206 183.604C204.998 184.324 205.43 185.044 205.502 185.764C205.61 186.448 205.484 187.078 205.124 187.654C204.764 188.194 204.278 188.608 203.666 188.896C203.054 189.148 202.406 189.202 201.722 189.058C201.074 188.878 200.48 188.446 199.94 187.762C199.544 186.682 198.86 185.53 197.888 184.306C196.916 183.082 195.584 181.966 193.892 180.958L194.27 180.256ZM207.77 177.124L211.01 173.992L216.518 179.122C216.266 179.374 215.978 179.536 215.654 179.608C215.33 179.68 214.862 179.734 214.25 179.77C213.314 180.454 212.162 181.156 210.794 181.876C209.462 182.596 208.058 183.28 206.582 183.928C205.142 184.576 203.792 185.116 202.532 185.548L202.1 185.17C202.82 184.414 203.594 183.568 204.422 182.632C205.25 181.66 206.024 180.688 206.744 179.716C207.464 178.708 208.022 177.844 208.418 177.124H207.77ZM210.416 177.124V178.636H188.6L188.114 177.124H210.416ZM205.07 213.682C205.034 213.79 204.638 214.024 203.882 214.384C203.126 214.744 202.064 214.924 200.696 214.924H199.778V188.194H205.07V213.682ZM212.576 202.936V204.502H191.732V202.936H212.576ZM212.576 195.214V196.78H191.732V195.214H212.576ZM194.54 213.898C194.54 214.078 194.306 214.33 193.838 214.654C193.37 214.978 192.776 215.266 192.056 215.518C191.336 215.734 190.562 215.842 189.734 215.842H188.87V188.194V185.764L194.864 188.194H213.17V189.76H194.54V213.898Z" fill="white"/>
<defs>
<linearGradient id="paint0_linear_141_336" x1="227.655" y1="61" x2="105.655" y2="272.31" gradientUnits="userSpaceOnUse">
<stop stop-color="white"/>
<stop offset="1" stop-color="white" stop-opacity="0"/>
</linearGradient>
<radialGradient id="paint1_radial_141_336" cx="0" cy="0" r="1" gradientUnits="userSpaceOnUse" gradientTransform="translate(166.84 165.84) scale(157.84)">
<stop offset="0.75" stop-color="white" stop-opacity="0"/>
<stop offset="0.77" stop-color="#FFF9E2" stop-opacity="0.9"/>
<stop offset="0.84" stop-color="#FFEC9C" stop-opacity="0.3"/>
<stop offset="0.9" stop-color="white" stop-opacity="0.1"/>
<stop offset="1" stop-color="white" stop-opacity="0"/>
</radialGradient>
</defs>
</svg>
