<svg width="334" height="334" viewBox="0 0 334 334" fill="none" xmlns="http://www.w3.org/2000/svg">
<path d="M227.155 61.866C285.029 95.2793 304.857 169.282 271.444 227.155C238.031 285.029 164.029 304.857 106.155 271.444C48.2817 238.031 28.4528 164.029 61.866 106.155C95.2793 48.2817 169.282 28.4528 227.155 61.866Z" stroke="url(#paint0_linear_141_332)" stroke-width="2"/>
<path opacity="0.9" d="M166.84 323.68C254.013 323.68 324.68 253.013 324.68 165.84C324.68 78.6674 254.013 8 166.84 8C79.6674 8 9 78.6674 9 165.84C9 253.013 79.6674 323.68 166.84 323.68Z" fill="url(#paint1_radial_141_332)"/>
<path d="M114.47 158V156.38L121.544 155.408H128.24L134.72 156.542V158.108L114.47 158ZM121.004 158C121.112 153.752 121.166 149.522 121.166 145.31V121.496L114.308 122.414V120.578L127.862 117.392L128.672 117.986L128.456 126.68V145.31C128.456 147.398 128.474 149.522 128.51 151.682C128.582 153.806 128.636 155.912 128.672 158H121.004ZM139.84 158V153.788C141.496 151.952 143.098 150.134 144.646 148.334C146.194 146.534 147.634 144.878 148.966 143.366C150.946 141.098 152.53 139.118 153.718 137.426C154.942 135.734 155.842 134.114 156.418 132.566C157.03 131.018 157.336 129.326 157.336 127.49C157.336 124.754 156.706 122.648 155.446 121.172C154.222 119.66 152.512 118.904 150.316 118.904C149.488 118.904 148.642 119.012 147.778 119.228C146.914 119.444 146.014 119.804 145.078 120.308L147.616 118.958L146.374 124.628C146.086 126.176 145.6 127.22 144.916 127.76C144.268 128.3 143.566 128.57 142.81 128.57C142.126 128.57 141.496 128.372 140.92 127.976C140.38 127.58 139.984 127.076 139.732 126.464C139.912 124.412 140.614 122.702 141.838 121.334C143.098 119.93 144.682 118.886 146.59 118.202C148.534 117.482 150.586 117.122 152.746 117.122C156.814 117.122 159.82 118.112 161.764 120.092C163.744 122.072 164.734 124.664 164.734 127.868C164.734 129.74 164.23 131.522 163.222 133.214C162.214 134.87 160.684 136.688 158.632 138.668C156.616 140.612 154.042 142.934 150.91 145.634C150.298 146.174 149.542 146.858 148.642 147.686C147.778 148.478 146.824 149.36 145.78 150.332C144.772 151.268 143.746 152.24 142.702 153.248L143.296 151.358V152.33H165.922V158H139.84ZM170.336 147.47H210.35L214.13 142.826C214.13 142.826 214.364 143.006 214.832 143.366C215.3 143.69 215.876 144.122 216.56 144.662C217.28 145.202 218.018 145.796 218.774 146.444C219.566 147.056 220.304 147.632 220.988 148.172C220.844 148.748 220.322 149.036 219.422 149.036H170.768L170.336 147.47ZM195.77 120.686H202.682V160.97C202.646 161.15 202.142 161.492 201.17 161.996C200.198 162.5 198.812 162.752 197.012 162.752H195.77V120.686ZM183.188 132.836H207.974L211.484 128.462C211.484 128.462 211.7 128.624 212.132 128.948C212.564 129.272 213.122 129.704 213.806 130.244C214.49 130.748 215.192 131.288 215.912 131.864C216.632 132.44 217.298 132.98 217.91 133.484C217.766 134.06 217.262 134.348 216.398 134.348H183.188V132.836ZM179.516 132.836V130.028L186.968 132.836H186.266V148.496H179.516V132.836ZM183.35 111.398L192.26 114.8C192.116 115.124 191.864 115.376 191.504 115.556C191.144 115.736 190.64 115.808 189.992 115.772C187.472 120.308 184.556 124.196 181.244 127.436C177.968 130.676 174.476 133.34 170.768 135.428L170.228 134.942C171.812 133.142 173.414 131 175.034 128.516C176.69 125.996 178.238 123.278 179.678 120.362C181.118 117.446 182.342 114.458 183.35 111.398ZM183.404 120.686H209.162L212.942 116.042C212.942 116.042 213.158 116.204 213.59 116.528C214.022 116.852 214.598 117.284 215.318 117.824C216.038 118.364 216.776 118.94 217.532 119.552C218.324 120.164 219.062 120.758 219.746 121.334C219.674 121.622 219.494 121.838 219.206 121.982C218.918 122.126 218.594 122.198 218.234 122.198H182.648L183.404 120.686ZM124.772 183.442H129.146L131.09 180.958C131.09 180.958 131.288 181.138 131.684 181.498C132.116 181.822 132.62 182.236 133.196 182.74C133.772 183.208 134.294 183.658 134.762 184.09C134.618 184.666 134.168 184.954 133.412 184.954H124.772V183.442ZM124.61 189.166H129.2L131.252 186.52C131.252 186.52 131.45 186.7 131.846 187.06C132.278 187.42 132.782 187.852 133.358 188.356C133.934 188.86 134.456 189.346 134.924 189.814C134.816 190.39 134.366 190.678 133.574 190.678H124.61V189.166ZM120.29 194.674H159.98V196.24H120.29V194.674ZM157.118 194.674H156.524L159.818 191.434L165.488 196.834C165.272 197.05 165.002 197.212 164.678 197.32C164.39 197.392 163.976 197.428 163.436 197.428C162.752 197.824 161.942 198.274 161.006 198.778C160.07 199.282 159.134 199.786 158.198 200.29C157.262 200.758 156.416 201.154 155.66 201.478L155.174 201.154C155.39 200.578 155.606 199.894 155.822 199.102C156.074 198.31 156.308 197.518 156.524 196.726C156.776 195.934 156.974 195.25 157.118 194.674ZM135.734 177.178C137.966 177.286 139.748 177.61 141.08 178.15C142.412 178.654 143.366 179.266 143.942 179.986C144.518 180.67 144.788 181.336 144.752 181.984C144.752 182.596 144.5 183.064 143.996 183.388C143.492 183.712 142.862 183.748 142.106 183.496C141.674 182.848 141.062 182.164 140.27 181.444C139.514 180.724 138.686 180.04 137.786 179.392C136.886 178.708 136.04 178.168 135.248 177.772L135.734 177.178ZM135.95 186.358C138.29 186.538 140.144 186.952 141.512 187.6C142.916 188.248 143.906 188.968 144.482 189.76C145.058 190.552 145.31 191.308 145.238 192.028C145.166 192.712 144.86 193.216 144.32 193.54C143.816 193.864 143.15 193.846 142.322 193.486C141.926 192.73 141.332 191.938 140.54 191.11C139.784 190.282 138.956 189.508 138.056 188.788C137.156 188.032 136.292 187.402 135.464 186.898L135.95 186.358ZM131.198 174.1L136.058 177.772C135.77 178.168 135.212 178.222 134.384 177.934C133.34 178.222 131.918 178.546 130.118 178.906C128.318 179.266 126.554 179.518 124.826 179.662L124.502 179.068C125.294 178.636 126.122 178.114 126.986 177.502C127.85 176.89 128.66 176.278 129.416 175.666C130.172 175.018 130.766 174.496 131.198 174.1ZM146.912 183.442H156.092V184.954H147.398L146.912 183.442ZM146.696 189.166H155.822V190.678H147.182L146.696 189.166ZM146.372 177.718H156.254V179.23H146.858L146.372 177.718ZM122.072 176.53L129.524 177.988C129.38 178.492 128.768 178.852 127.688 179.068L128.174 195.43H122.612L122.072 176.53ZM152.204 177.718H151.664L154.04 174.91L159.656 179.176C159.476 179.392 159.242 179.572 158.954 179.716C158.702 179.824 158.306 179.914 157.766 179.986L157.01 195.484H151.34L152.204 177.718ZM115.916 210.118H154.58L157.928 205.582C157.928 205.582 158.126 205.762 158.522 206.122C158.954 206.446 159.476 206.878 160.088 207.418C160.736 207.958 161.402 208.534 162.086 209.146C162.806 209.722 163.436 210.28 163.976 210.82C163.832 211.396 163.328 211.684 162.464 211.684H116.348L115.916 210.118ZM137.03 205.852L145.022 206.554C144.986 206.914 144.824 207.202 144.536 207.418C144.248 207.634 143.798 207.778 143.186 207.85V217.354C143.186 218.794 143.006 220.036 142.646 221.08C142.322 222.124 141.566 222.952 140.378 223.564C139.226 224.176 137.426 224.59 134.978 224.806C134.906 223.798 134.78 222.934 134.6 222.214C134.42 221.494 134.096 220.882 133.628 220.378C133.196 219.874 132.602 219.46 131.846 219.136C131.126 218.776 130.064 218.488 128.66 218.272V217.516C128.66 217.516 128.966 217.534 129.578 217.57C130.226 217.606 130.982 217.66 131.846 217.732C132.746 217.768 133.574 217.804 134.33 217.84C135.122 217.876 135.662 217.894 135.95 217.894C136.346 217.894 136.616 217.84 136.76 217.732C136.94 217.588 137.03 217.354 137.03 217.03V205.852ZM147.128 200.992H146.534L149.99 197.698L155.822 202.882C155.57 203.098 155.282 203.26 154.958 203.368C154.67 203.44 154.22 203.494 153.608 203.53C152.492 203.962 151.196 204.448 149.72 204.988C148.28 205.492 146.786 205.978 145.238 206.446C143.69 206.914 142.214 207.328 140.81 207.688H140.054C140.882 207.076 141.746 206.356 142.646 205.528C143.546 204.7 144.392 203.89 145.184 203.098C145.976 202.27 146.624 201.568 147.128 200.992ZM125.96 200.992H150.746V202.558H126.446L125.96 200.992ZM119.858 191.164H120.56C121.424 192.928 121.964 194.62 122.18 196.24C122.396 197.824 122.27 199.192 121.802 200.344C121.334 201.496 120.47 202.36 119.21 202.936C118.202 203.368 117.302 203.422 116.51 203.098C115.718 202.774 115.16 202.252 114.836 201.532C114.512 200.812 114.494 200.038 114.782 199.21C115.106 198.346 115.826 197.626 116.942 197.05C117.698 196.654 118.382 195.97 118.994 194.998C119.606 193.99 119.894 192.712 119.858 191.164ZM141.836 174.478L146.858 177.07C146.606 177.538 145.994 177.664 145.022 177.448C144.374 178.312 143.492 179.194 142.376 180.094C141.26 180.958 140.036 181.786 138.704 182.578C137.372 183.334 136.04 183.982 134.708 184.522L134.168 183.712C135.752 182.524 137.228 181.084 138.596 179.392C140 177.664 141.08 176.026 141.836 174.478ZM142.592 183.982L147.614 186.412C147.362 186.916 146.768 187.042 145.832 186.79C145.076 187.834 144.068 188.842 142.808 189.814C141.548 190.786 140.162 191.668 138.65 192.46C137.174 193.216 135.662 193.828 134.114 194.296L133.628 193.486C135.5 192.37 137.246 190.93 138.866 189.166C140.522 187.402 141.764 185.674 142.592 183.982ZM177.638 178.744C177.638 179.14 177.638 179.536 177.638 179.932C177.638 180.328 177.638 180.67 177.638 180.958V215.41C177.638 216.202 177.818 216.832 178.178 217.3C178.538 217.732 179.168 218.056 180.068 218.272C180.968 218.452 182.21 218.542 183.794 218.542H196.862C199.166 218.542 201.272 218.524 203.18 218.488C205.088 218.416 206.456 218.362 207.284 218.326C207.788 218.29 208.328 218.236 208.904 218.164C209.516 218.092 210.02 218.038 210.416 218.002C211.316 217.894 212.36 217.624 213.548 217.192H214.088L214.412 217.3C215.924 217.552 216.914 217.894 217.382 218.326C217.886 218.722 218.138 219.19 218.138 219.73C218.138 220.486 217.85 221.08 217.274 221.512C216.698 221.98 215.636 222.34 214.088 222.592C212.54 222.844 210.326 223.006 207.446 223.078C204.602 223.186 200.912 223.24 196.376 223.24H184.442C181.526 223.24 179.132 223.078 177.26 222.754C175.388 222.43 174.002 221.764 173.102 220.756C172.238 219.748 171.806 218.236 171.806 216.22V178.744H177.638ZM210.794 173.722C210.794 173.722 210.992 173.884 211.388 174.208C211.784 174.532 212.288 174.946 212.9 175.45C213.512 175.954 214.142 176.494 214.79 177.07C215.474 177.646 216.086 178.186 216.626 178.69C216.482 179.266 215.996 179.554 215.168 179.554H169.862L169.43 177.988H207.554L210.794 173.722ZM207.878 200.884L210.362 198.292L215.546 202.18C215.402 202.36 215.168 202.54 214.844 202.72C214.556 202.9 214.196 203.026 213.764 203.098V214.114C213.764 214.222 213.494 214.402 212.954 214.654C212.45 214.87 211.856 215.068 211.172 215.248C210.488 215.428 209.858 215.518 209.282 215.518H208.364V200.884H207.878ZM210.308 211.468V213.034H201.452V211.468H210.308ZM203.882 214.546C203.882 214.69 203.648 214.906 203.18 215.194C202.748 215.446 202.19 215.68 201.506 215.896C200.858 216.076 200.156 216.166 199.4 216.166H198.644V200.884V198.724L204.152 200.884H210.794V202.45H203.882V214.546ZM189.788 200.884L192.218 198.346L197.24 202.126C197.096 202.306 196.862 202.486 196.538 202.666C196.25 202.846 195.908 202.972 195.512 203.044V214.384C195.512 214.492 195.26 214.672 194.756 214.924C194.252 215.14 193.658 215.338 192.974 215.518C192.326 215.662 191.714 215.734 191.138 215.734H190.22V200.884H189.788ZM192.488 211.468V213.034H183.74V211.468H192.488ZM185.9 215.41C185.9 215.554 185.684 215.752 185.252 216.004C184.82 216.256 184.262 216.49 183.578 216.706C182.894 216.886 182.192 216.976 181.472 216.976H180.716V200.884V198.724L186.116 200.884H192.326V202.45H185.9V215.41ZM201.722 183.766L204.476 180.85L210.254 185.17C210.11 185.35 209.858 185.548 209.498 185.764C209.174 185.944 208.76 186.07 208.256 186.142V195.862C208.256 195.97 207.968 196.15 207.392 196.402C206.816 196.618 206.15 196.834 205.394 197.05C204.638 197.23 203.936 197.32 203.288 197.32H202.208V183.766H201.722ZM204.692 193.27V194.836H189.032V193.27H204.692ZM191.462 196.348C191.462 196.528 191.192 196.762 190.652 197.05C190.148 197.338 189.5 197.608 188.708 197.86C187.952 198.076 187.16 198.184 186.332 198.184H185.468V183.766V181.336L191.732 183.766H204.584V185.332H191.462V196.348Z" fill="white"/>
<defs>
<linearGradient id="paint0_linear_141_332" x1="227.655" y1="61" x2="105.655" y2="272.31" gradientUnits="userSpaceOnUse">
<stop stop-color="white"/>
<stop offset="1" stop-color="white" stop-opacity="0"/>
</linearGradient>
<radialGradient id="paint1_radial_141_332" cx="0" cy="0" r="1" gradientUnits="userSpaceOnUse" gradientTransform="translate(166.84 165.84) scale(157.84)">
<stop offset="0.75" stop-color="white" stop-opacity="0"/>
<stop offset="0.77" stop-color="#FFF9E2" stop-opacity="0.9"/>
<stop offset="0.84" stop-color="#FFEC9C" stop-opacity="0.3"/>
<stop offset="0.9" stop-color="white" stop-opacity="0.1"/>
<stop offset="1" stop-color="white" stop-opacity="0"/>
</radialGradient>
</defs>
</svg>
