<svg width="334" height="334" viewBox="0 0 334 334" fill="none" xmlns="http://www.w3.org/2000/svg">
<path d="M227.155 61.866C285.029 95.2793 304.857 169.282 271.444 227.155C238.031 285.029 164.029 304.857 106.155 271.444C48.2817 238.031 28.4528 164.029 61.866 106.155C95.2793 48.2817 169.282 28.4528 227.155 61.866Z" stroke="url(#paint0_linear_141_337)" stroke-width="2"/>
<path opacity="0.9" d="M166.84 323.68C254.013 323.68 324.68 253.013 324.68 165.84C324.68 78.6674 254.013 8 166.84 8C79.6674 8 9 78.6674 9 165.84C9 253.013 79.6674 323.68 166.84 323.68Z" fill="url(#paint1_radial_141_337)"/>
<path d="M165.704 122.684C165.56 122.972 165.218 123.188 164.678 123.332C164.138 123.476 163.436 123.35 162.572 122.954L164.192 122.63C163.508 123.638 162.662 124.79 161.654 126.086C160.646 127.346 159.512 128.624 158.252 129.92C157.028 131.18 155.768 132.386 154.472 133.538C153.176 134.69 151.934 135.68 150.746 136.508L150.692 135.914H153.122C153.014 137.246 152.762 138.308 152.366 139.1C151.97 139.856 151.502 140.36 150.962 140.612L148.478 135.158C148.478 135.158 148.676 135.104 149.072 134.996C149.468 134.852 149.774 134.726 149.99 134.618C150.854 133.826 151.754 132.782 152.69 131.486C153.662 130.19 154.58 128.786 155.444 127.274C156.344 125.762 157.136 124.286 157.82 122.846C158.54 121.37 159.08 120.074 159.44 118.958L165.704 122.684ZM162.302 114.908C162.158 115.232 161.834 115.484 161.33 115.664C160.862 115.844 160.16 115.772 159.224 115.448L160.898 115.124C160.142 116.204 159.188 117.374 158.036 118.634C156.884 119.894 155.678 121.1 154.418 122.252C153.158 123.368 151.934 124.304 150.746 125.06L150.692 124.466H153.23C153.122 125.834 152.87 126.914 152.474 127.706C152.078 128.462 151.61 128.966 151.07 129.218L148.586 123.71C148.586 123.71 148.748 123.674 149.072 123.602C149.396 123.494 149.666 123.368 149.882 123.224C150.422 122.72 150.962 122 151.502 121.064C152.078 120.092 152.618 119.048 153.122 117.932C153.626 116.816 154.076 115.736 154.472 114.692C154.868 113.612 155.156 112.676 155.336 111.884L162.302 114.908ZM132.386 122.738C132.206 123.062 131.846 123.296 131.306 123.44C130.766 123.548 130.082 123.422 129.254 123.062L130.82 122.738C130.136 123.746 129.254 124.88 128.174 126.14C127.094 127.4 125.924 128.678 124.664 129.974C123.404 131.234 122.108 132.458 120.776 133.646C119.444 134.798 118.148 135.788 116.888 136.616L116.834 135.968H119.21C119.102 137.336 118.85 138.416 118.454 139.208C118.058 139.964 117.59 140.468 117.05 140.72L114.62 135.266C114.62 135.266 114.818 135.212 115.214 135.104C115.61 134.96 115.916 134.816 116.132 134.672C117.032 133.916 117.986 132.89 118.994 131.594C120.002 130.298 120.974 128.894 121.91 127.382C122.846 125.87 123.692 124.376 124.448 122.9C125.204 121.424 125.78 120.128 126.176 119.012L132.386 122.738ZM128.498 115.016C128.354 115.34 128.03 115.592 127.526 115.772C127.022 115.952 126.302 115.88 125.366 115.556L127.04 115.232C126.284 116.312 125.33 117.482 124.178 118.742C123.062 119.966 121.874 121.154 120.614 122.306C119.39 123.458 118.202 124.43 117.05 125.222L116.996 124.574H119.426C119.318 125.906 119.066 126.968 118.67 127.76C118.31 128.516 117.86 129.02 117.32 129.272L114.89 123.872C114.89 123.872 115.052 123.818 115.376 123.71C115.7 123.602 115.97 123.476 116.186 123.332C116.726 122.792 117.266 122.054 117.806 121.118C118.346 120.182 118.868 119.174 119.372 118.094C119.876 116.978 120.326 115.88 120.722 114.8C121.118 113.72 121.424 112.784 121.64 111.992L128.498 115.016ZM136.544 151.088C136.328 151.376 136.04 151.574 135.68 151.682C135.356 151.754 134.87 151.736 134.222 151.628C132.386 153.212 130.316 154.598 128.012 155.786C125.708 156.938 123.368 157.874 120.992 158.594C118.616 159.314 116.384 159.836 114.296 160.16L114.026 159.512C115.754 158.612 117.518 157.496 119.318 156.164C121.154 154.796 122.936 153.284 124.664 151.628C126.392 149.936 127.958 148.136 129.362 146.228L136.544 151.088ZM145.94 148.874C149.468 148.622 152.42 148.766 154.796 149.306C157.172 149.846 159.062 150.62 160.466 151.628C161.87 152.6 162.842 153.644 163.382 154.76C163.958 155.876 164.156 156.884 163.976 157.784C163.796 158.684 163.31 159.35 162.518 159.782C161.726 160.214 160.718 160.196 159.494 159.728C158.486 158.576 157.262 157.37 155.822 156.11C154.418 154.85 152.852 153.644 151.124 152.492C149.432 151.304 147.632 150.296 145.724 149.468L145.94 148.874ZM149.774 135.104C150.494 135.032 151.484 134.96 152.744 134.888C154.04 134.78 155.48 134.654 157.064 134.51C158.684 134.33 160.304 134.15 161.924 133.97L162.032 134.672C161.348 134.996 160.43 135.446 159.278 136.022C158.162 136.562 156.902 137.156 155.498 137.804C154.094 138.452 152.654 139.1 151.178 139.748L149.774 135.104ZM149.504 123.926C150.512 123.89 152.024 123.818 154.04 123.71C156.092 123.566 158.18 123.422 160.304 123.278L160.358 124.034C159.854 124.322 159.116 124.718 158.144 125.222C157.172 125.726 156.074 126.266 154.85 126.842C153.662 127.418 152.438 127.994 151.178 128.57L149.504 123.926ZM159.656 129.164C161.564 130.316 162.95 131.504 163.814 132.728C164.678 133.916 165.146 135.032 165.218 136.076C165.29 137.12 165.092 137.966 164.624 138.614C164.192 139.262 163.616 139.622 162.896 139.694C162.176 139.73 161.456 139.37 160.736 138.614C160.808 137.066 160.646 135.464 160.25 133.808C159.89 132.116 159.458 130.64 158.954 129.38L159.656 129.164ZM115.754 135.266C116.546 135.23 117.59 135.176 118.886 135.104C120.218 134.996 121.712 134.87 123.368 134.726C125.024 134.546 126.698 134.366 128.39 134.186L128.498 134.942C127.778 135.266 126.824 135.698 125.636 136.238C124.448 136.778 123.134 137.372 121.694 138.02C120.254 138.668 118.76 139.298 117.212 139.91L115.754 135.266ZM115.754 123.98C116.798 123.944 118.328 123.872 120.344 123.764C122.36 123.62 124.448 123.476 126.608 123.332L126.662 124.088C126.122 124.376 125.366 124.772 124.394 125.276C123.422 125.78 122.324 126.338 121.1 126.95C119.912 127.526 118.706 128.102 117.482 128.678L115.754 123.98ZM145.562 140.126C145.526 140.486 145.364 140.792 145.076 141.044C144.788 141.296 144.284 141.476 143.564 141.584V161.186C143.564 161.366 143.276 161.582 142.7 161.834C142.16 162.086 141.458 162.302 140.594 162.482C139.766 162.698 138.902 162.806 138.002 162.806H136.814V139.316L145.562 140.126ZM158.738 139.91C158.738 139.91 158.954 140.09 159.386 140.45C159.818 140.774 160.376 141.206 161.06 141.746C161.78 142.25 162.5 142.808 163.22 143.42C163.976 143.996 164.66 144.554 165.272 145.094C165.128 145.67 164.624 145.958 163.76 145.958H115.214L114.782 144.392H155.174L158.738 139.91ZM125.528 129.326C127.436 130.442 128.786 131.594 129.578 132.782C130.406 133.97 130.856 135.086 130.928 136.13C131 137.174 130.82 138.02 130.388 138.668C129.956 139.316 129.38 139.676 128.66 139.748C127.976 139.82 127.274 139.478 126.554 138.722C126.698 137.174 126.59 135.572 126.23 133.916C125.87 132.224 125.42 130.766 124.88 129.542L125.528 129.326ZM144.698 112.856C144.518 113.72 143.852 114.188 142.7 114.26C142.196 115.052 141.53 115.97 140.702 117.014C139.874 118.022 139.154 118.904 138.542 119.66H137.138C137.246 118.652 137.336 117.392 137.408 115.88C137.48 114.368 137.516 113.036 137.516 111.884L144.698 112.856ZM141.944 118.85L144.374 116.204L149.45 120.092C149.126 120.488 148.532 120.794 147.668 121.01V137.534C147.668 137.606 147.416 137.768 146.912 138.02C146.408 138.272 145.814 138.506 145.13 138.722C144.482 138.902 143.87 138.992 143.294 138.992H142.376V118.85H141.944ZM137.408 138.182C137.408 138.362 137.192 138.578 136.76 138.83C136.364 139.082 135.842 139.316 135.194 139.532C134.546 139.712 133.862 139.802 133.142 139.802H132.386V118.85V116.636L137.624 118.85H145.724V120.362H137.408V138.182ZM145.13 134.888V136.4H134.384V134.888H145.13ZM145.13 126.734V128.3H134.384V126.734H145.13ZM190.274 156.434H211.334V157.946H190.274V156.434ZM183.74 129.974H210.254L213.656 125.33C213.656 125.33 213.854 125.51 214.25 125.87C214.682 126.194 215.222 126.626 215.87 127.166C216.518 127.706 217.184 128.282 217.868 128.894C218.588 129.506 219.236 130.082 219.812 130.622C219.74 130.91 219.56 131.126 219.272 131.27C219.02 131.414 218.696 131.486 218.3 131.486H184.172L183.74 129.974ZM211.172 112.586L217.49 118.634C217.166 118.886 216.698 119.012 216.086 119.012C215.474 119.012 214.754 118.85 213.926 118.526C211.478 119.03 208.598 119.498 205.286 119.93C202.01 120.362 198.59 120.74 195.026 121.064C191.462 121.352 188.006 121.532 184.658 121.604L184.496 120.848C186.764 120.38 189.14 119.822 191.624 119.174C194.144 118.526 196.61 117.824 199.022 117.068C201.47 116.312 203.738 115.556 205.826 114.8C207.914 114.008 209.696 113.27 211.172 112.586ZM172.832 113.126C175.352 113.234 177.368 113.594 178.88 114.206C180.428 114.782 181.562 115.502 182.282 116.366C183.002 117.194 183.38 118.04 183.416 118.904C183.452 119.768 183.236 120.506 182.768 121.118C182.3 121.73 181.652 122.126 180.824 122.306C180.032 122.45 179.132 122.252 178.124 121.712C177.836 120.74 177.368 119.75 176.72 118.742C176.108 117.734 175.406 116.78 174.614 115.88C173.858 114.98 173.12 114.188 172.4 113.504L172.832 113.126ZM168.782 124.952C171.23 125.06 173.174 125.42 174.614 126.032C176.09 126.608 177.152 127.31 177.8 128.138C178.484 128.93 178.826 129.74 178.826 130.568C178.826 131.396 178.592 132.116 178.124 132.728C177.656 133.304 177.008 133.664 176.18 133.808C175.388 133.916 174.524 133.682 173.588 133.106C173.336 132.17 172.94 131.234 172.4 130.298C171.86 129.326 171.23 128.426 170.51 127.598C169.79 126.734 169.07 125.978 168.35 125.33L168.782 124.952ZM171.59 146.93C172.022 146.93 172.328 146.894 172.508 146.822C172.724 146.714 172.994 146.39 173.318 145.85C173.57 145.454 173.804 145.058 174.02 144.662C174.272 144.266 174.596 143.69 174.992 142.934C175.424 142.178 176.018 141.062 176.774 139.586C177.53 138.074 178.556 136.022 179.852 133.43C181.184 130.802 182.876 127.436 184.928 123.332L185.792 123.602C185.324 124.826 184.82 126.23 184.28 127.814C183.74 129.398 183.182 131.018 182.606 132.674C182.03 134.33 181.49 135.932 180.986 137.48C180.482 138.992 180.032 140.324 179.636 141.476C179.24 142.628 178.97 143.492 178.826 144.068C178.574 144.932 178.358 145.814 178.178 146.714C177.998 147.578 177.926 148.37 177.962 149.09C177.962 149.774 178.07 150.44 178.286 151.088C178.538 151.736 178.808 152.402 179.096 153.086C179.384 153.77 179.618 154.544 179.798 155.408C180.014 156.272 180.104 157.28 180.068 158.432C180.032 159.8 179.582 160.88 178.718 161.672C177.854 162.5 176.756 162.914 175.424 162.914C174.812 162.914 174.218 162.698 173.642 162.266C173.066 161.834 172.67 161.132 172.454 160.16C172.778 158.252 172.958 156.506 172.994 154.922C173.066 153.302 173.012 151.952 172.832 150.872C172.652 149.792 172.346 149.108 171.914 148.82C171.554 148.532 171.14 148.316 170.672 148.172C170.204 148.028 169.682 147.938 169.106 147.902V146.93C169.106 146.93 169.268 146.93 169.592 146.93C169.952 146.93 170.33 146.93 170.726 146.93C171.122 146.93 171.41 146.93 171.59 146.93ZM209.336 141.908H208.742L211.766 138.668L217.868 143.312C217.688 143.528 217.418 143.762 217.058 144.014C216.698 144.23 216.23 144.392 215.654 144.5V160.592C215.654 160.736 215.348 160.952 214.736 161.24C214.16 161.528 213.476 161.78 212.684 161.996C211.892 162.248 211.136 162.374 210.416 162.374H209.336V141.908ZM197.78 118.094L204.26 117.176V142.664C204.224 142.664 203.738 142.664 202.802 142.664C201.902 142.664 200.624 142.664 198.968 142.664H197.78V118.094ZM186.764 141.908V139.316L193.298 141.908H211.442V143.42H192.974V160.7C192.974 160.88 192.704 161.114 192.164 161.402C191.66 161.726 190.994 162.014 190.166 162.266C189.374 162.518 188.546 162.644 187.682 162.644H186.764V141.908ZM129.524 188.572H155.228L158.738 183.928C158.738 183.928 158.954 184.108 159.386 184.468C159.854 184.792 160.412 185.224 161.06 185.764C161.744 186.304 162.446 186.88 163.166 187.492C163.922 188.104 164.606 188.68 165.218 189.22C165.074 189.796 164.57 190.084 163.706 190.084H129.956L129.524 188.572ZM143.132 174.91L151.448 175.774C151.412 176.134 151.25 176.458 150.962 176.746C150.71 176.998 150.206 177.178 149.45 177.286V222.376C149.45 222.592 149.18 222.88 148.64 223.24C148.136 223.6 147.488 223.906 146.696 224.158C145.94 224.446 145.148 224.59 144.32 224.59H143.132V174.91ZM140.81 188.572H147.668V189.436C146.264 195.16 143.978 200.398 140.81 205.15C137.642 209.902 133.574 213.988 128.606 217.408L128.012 216.868C130.208 214.384 132.134 211.594 133.79 208.498C135.482 205.402 136.904 202.162 138.056 198.778C139.244 195.358 140.162 191.956 140.81 188.572ZM121.586 192.19L123.8 189.22L129.578 191.38C129.398 191.884 128.84 192.244 127.904 192.46V222.916C127.904 223.06 127.634 223.276 127.094 223.564C126.59 223.852 125.942 224.104 125.15 224.32C124.394 224.572 123.602 224.698 122.774 224.698H121.586V192.19ZM124.934 174.1L133.682 176.746C133.574 177.106 133.34 177.394 132.98 177.61C132.62 177.826 132.134 177.916 131.522 177.88C130.19 181.444 128.642 184.756 126.878 187.816C125.15 190.84 123.242 193.594 121.154 196.078C119.102 198.526 116.87 200.686 114.458 202.558L113.81 202.126C115.286 199.858 116.744 197.212 118.184 194.188C119.624 191.164 120.92 187.942 122.072 184.522C123.26 181.066 124.214 177.592 124.934 174.1ZM150.044 188.734C150.908 192.082 152.168 195.088 153.824 197.752C155.48 200.38 157.37 202.684 159.494 204.664C161.618 206.608 163.832 208.228 166.136 209.524L166.028 210.28C163.148 211.9 161.474 214.222 161.006 217.246C158.918 215.158 157.082 212.656 155.498 209.74C153.95 206.788 152.654 203.566 151.61 200.074C150.566 196.582 149.756 192.964 149.18 189.22L150.044 188.734ZM171.59 178.15V175.396L178.016 178.15H188.006V179.662H177.746V222.43C177.746 222.718 177.512 223.042 177.044 223.402C176.612 223.762 176 224.086 175.208 224.374C174.452 224.662 173.588 224.806 172.616 224.806H171.59V178.15ZM195.944 178.15V175.666L202.1 178.15H212.684V179.662H201.884V193.486C201.884 193.666 201.632 193.918 201.128 194.242C200.624 194.53 199.976 194.8 199.184 195.052C198.428 195.268 197.618 195.376 196.754 195.376H195.944V178.15ZM209.984 178.15H209.444L212.306 174.802L218.462 179.554C218.282 179.77 217.994 179.986 217.598 180.202C217.238 180.418 216.788 180.58 216.248 180.688V217.408C216.248 218.848 216.068 220.09 215.708 221.134C215.384 222.178 214.682 222.988 213.602 223.564C212.522 224.176 210.848 224.59 208.58 224.806C208.544 223.762 208.436 222.862 208.256 222.106C208.112 221.35 207.878 220.738 207.554 220.27C207.194 219.802 206.726 219.406 206.15 219.082C205.574 218.722 204.71 218.434 203.558 218.218V217.516C203.558 217.516 203.792 217.534 204.26 217.57C204.728 217.57 205.268 217.606 205.88 217.678C206.492 217.714 207.086 217.75 207.662 217.786C208.274 217.786 208.706 217.786 208.958 217.786C209.354 217.786 209.624 217.696 209.768 217.516C209.912 217.336 209.984 217.066 209.984 216.706V178.15ZM185.522 178.15H184.982L187.682 175.234L193.298 179.446C193.154 179.626 192.902 179.824 192.542 180.04C192.218 180.256 191.822 180.4 191.354 180.472V193.864C191.354 194.008 191.084 194.224 190.544 194.512C190.004 194.764 189.356 194.998 188.6 195.214C187.88 195.43 187.178 195.538 186.494 195.538H185.522V178.15ZM174.56 184.468H187.736V186.034H174.56V184.468ZM174.56 191.056H187.736V192.622H174.56V191.056ZM199.346 184.468H212.63V186.034H199.346V184.468ZM187.142 198.886H200.696V200.398H187.142V198.886ZM187.142 204.448H200.696V206.014H187.142V204.448ZM187.142 210.28H200.696V211.846H187.142V210.28ZM199.346 191.056H212.63V192.622H199.346V191.056ZM184.658 198.886V198.346V196.564L190.76 198.886H189.95V206.014C189.95 207.238 189.86 208.57 189.68 210.01C189.5 211.414 189.122 212.836 188.546 214.276C188.006 215.716 187.16 217.102 186.008 218.434C184.892 219.73 183.38 220.9 181.472 221.944L180.986 221.404C182.138 219.892 182.966 218.272 183.47 216.544C183.974 214.816 184.298 213.07 184.442 211.306C184.586 209.506 184.658 207.742 184.658 206.014V198.886ZM197.996 198.886H197.456L199.94 195.97L205.61 200.236C205.466 200.452 205.196 200.668 204.8 200.884C204.404 201.1 203.918 201.244 203.342 201.316V215.842C203.342 217.066 203.18 218.11 202.856 218.974C202.568 219.838 201.938 220.522 200.966 221.026C200.03 221.566 198.572 221.944 196.592 222.16C196.556 221.332 196.466 220.612 196.322 220C196.178 219.388 195.944 218.884 195.62 218.488C195.296 218.128 194.846 217.786 194.27 217.462C193.73 217.138 192.938 216.904 191.894 216.76V216.004C191.894 216.004 192.092 216.022 192.488 216.058C192.92 216.094 193.424 216.13 194 216.166C194.612 216.166 195.188 216.184 195.728 216.22C196.304 216.256 196.736 216.274 197.024 216.274C197.384 216.274 197.636 216.202 197.78 216.058C197.924 215.878 197.996 215.626 197.996 215.302V198.886Z" fill="white"/>
<defs>
<linearGradient id="paint0_linear_141_337" x1="227.655" y1="61" x2="105.655" y2="272.31" gradientUnits="userSpaceOnUse">
<stop stop-color="white"/>
<stop offset="1" stop-color="white" stop-opacity="0"/>
</linearGradient>
<radialGradient id="paint1_radial_141_337" cx="0" cy="0" r="1" gradientUnits="userSpaceOnUse" gradientTransform="translate(166.84 165.84) scale(157.84)">
<stop offset="0.75" stop-color="white" stop-opacity="0"/>
<stop offset="0.77" stop-color="#FFF9E2" stop-opacity="0.9"/>
<stop offset="0.84" stop-color="#FFEC9C" stop-opacity="0.3"/>
<stop offset="0.9" stop-color="white" stop-opacity="0.1"/>
<stop offset="1" stop-color="white" stop-opacity="0"/>
</radialGradient>
</defs>
</svg>
