<svg width="106" height="113" viewBox="0 0 106 113" fill="none" xmlns="http://www.w3.org/2000/svg">
<path d="M19.952 0.0459994C22.544 0.0819989 24.614 0.387998 26.162 0.963997C27.71 1.54 28.79 2.26 29.402 3.124C30.05 3.952 30.338 4.798 30.266 5.662C30.23 6.526 29.924 7.264 29.348 7.876C28.808 8.488 28.07 8.866 27.134 9.01C26.198 9.154 25.208 8.902 24.164 8.254C23.948 7.282 23.588 6.31 23.084 5.338C22.58 4.366 22.004 3.466 21.356 2.638C20.744 1.774 20.132 1.018 19.52 0.369998L19.952 0.0459994ZM29.294 49.132C29.294 49.348 28.808 49.69 27.836 50.158C26.9 50.662 25.586 50.914 23.894 50.914H22.652V9.712H29.294V49.132ZM13.796 41.248C13.796 41.464 13.526 41.752 12.986 42.112C12.446 42.436 11.762 42.724 10.934 42.976C10.142 43.228 9.296 43.354 8.396 43.354H7.424V18.028V15.328L14.228 18.028H41.39V19.594H13.796V41.248ZM37.61 18.028L40.472 14.734L46.79 19.54C46.61 19.72 46.322 19.918 45.926 20.134C45.566 20.35 45.116 20.512 44.576 20.62V36.604C44.576 38.008 44.396 39.214 44.036 40.222C43.712 41.194 42.974 41.986 41.822 42.598C40.67 43.174 38.924 43.57 36.584 43.786C36.548 42.778 36.44 41.932 36.26 41.248C36.116 40.528 35.864 39.916 35.504 39.412C35.144 38.98 34.658 38.584 34.046 38.224C33.47 37.864 32.57 37.594 31.346 37.414V36.658C31.346 36.658 31.58 36.676 32.048 36.712C32.516 36.748 33.074 36.784 33.722 36.82C34.406 36.856 35.054 36.892 35.666 36.928C36.278 36.928 36.746 36.928 37.07 36.928C37.502 36.928 37.79 36.856 37.934 36.712C38.078 36.532 38.15 36.298 38.15 36.01V18.028H37.61ZM44.738 4.474C44.738 4.474 44.972 4.654 45.44 5.014C45.908 5.374 46.502 5.842 47.222 6.418C47.942 6.958 48.68 7.552 49.436 8.2C50.228 8.812 50.93 9.388 51.542 9.928C51.434 10.504 50.948 10.792 50.084 10.792H1.214L0.728 9.28H41.012L44.738 4.474ZM76.544 0.855999C79.676 1.936 82.178 3.16 84.05 4.528C85.958 5.896 87.344 7.3 88.208 8.74C89.108 10.144 89.576 11.476 89.612 12.736C89.684 13.96 89.45 14.968 88.91 15.76C88.37 16.552 87.632 17.002 86.696 17.11C85.76 17.218 84.752 16.858 83.672 16.03C83.348 14.338 82.772 12.61 81.944 10.846C81.152 9.082 80.234 7.372 79.19 5.716C78.146 4.06 77.084 2.566 76.004 1.234L76.544 0.855999ZM76.382 10.738C76.346 11.098 76.184 11.422 75.896 11.71C75.608 11.962 75.14 12.124 74.492 12.196V40.168C74.492 40.816 74.69 41.266 75.086 41.518C75.518 41.77 76.328 41.896 77.516 41.896H84.104C85.364 41.896 86.462 41.896 87.398 41.896C88.334 41.86 89.054 41.824 89.558 41.788C90.026 41.752 90.386 41.68 90.638 41.572C90.926 41.428 91.178 41.194 91.394 40.87C91.754 40.294 92.186 39.268 92.69 37.792C93.194 36.28 93.734 34.498 94.31 32.446H94.904L95.12 41.248C96.092 41.608 96.74 42.004 97.064 42.436C97.424 42.832 97.604 43.354 97.604 44.002C97.604 44.758 97.388 45.406 96.956 45.946C96.56 46.486 95.84 46.936 94.796 47.296C93.752 47.656 92.33 47.908 90.53 48.052C88.73 48.232 86.408 48.322 83.564 48.322H76.598C74.474 48.322 72.782 48.16 71.522 47.836C70.298 47.512 69.416 46.9 68.876 46C68.372 45.064 68.12 43.75 68.12 42.058V9.928L76.382 10.738ZM93.5 17.542C96.308 19.27 98.558 20.998 100.25 22.726C101.978 24.454 103.256 26.164 104.084 27.856C104.948 29.512 105.452 31.06 105.596 32.5C105.74 33.904 105.614 35.128 105.218 36.172C104.858 37.216 104.336 38.008 103.652 38.548C103.004 39.052 102.266 39.232 101.438 39.088C100.61 38.944 99.836 38.386 99.116 37.414C99.044 35.65 98.792 33.634 98.36 31.366C97.928 29.098 97.28 26.794 96.416 24.454C95.588 22.078 94.454 19.918 93.014 17.974L93.5 17.542ZM62.018 16.408C63.35 19.648 64.124 22.582 64.34 25.21C64.556 27.802 64.412 30.052 63.908 31.96C63.44 33.868 62.774 35.434 61.91 36.658C61.334 37.522 60.65 38.152 59.858 38.548C59.066 38.908 58.274 39.034 57.482 38.926C56.726 38.818 56.078 38.476 55.538 37.9C54.854 37.144 54.584 36.316 54.728 35.416C54.872 34.48 55.286 33.634 55.97 32.878C56.87 32.05 57.734 30.808 58.562 29.152C59.39 27.46 60.056 25.534 60.56 23.374C61.1 21.178 61.334 18.874 61.262 16.462L62.018 16.408ZM33.344 79.758C33.344 80.046 33.344 80.334 33.344 80.622C33.344 80.874 33.344 81.108 33.344 81.324V85.374C33.344 85.626 33.398 85.824 33.506 85.968C33.614 86.076 33.848 86.13 34.208 86.13H35.882C36.206 86.13 36.512 86.13 36.8 86.13C37.088 86.13 37.322 86.13 37.502 86.13C37.646 86.13 37.826 86.13 38.042 86.13C38.258 86.094 38.42 86.058 38.528 86.022C38.708 86.022 38.906 86.004 39.122 85.968C39.338 85.932 39.536 85.896 39.716 85.86H40.202L40.418 85.914C41.066 86.13 41.498 86.4 41.714 86.724C41.966 87.012 42.092 87.39 42.092 87.858C42.092 88.47 41.876 88.974 41.444 89.37C41.048 89.766 40.346 90.054 39.338 90.234C38.366 90.414 36.998 90.504 35.234 90.504H32.48C31.256 90.504 30.338 90.378 29.726 90.126C29.114 89.838 28.718 89.406 28.538 88.83C28.394 88.218 28.322 87.426 28.322 86.454V79.758H33.344ZM24.164 79.866C24.056 81.27 23.786 82.602 23.354 83.862C22.958 85.122 22.256 86.31 21.248 87.426C20.276 88.542 18.872 89.568 17.036 90.504C15.2 91.44 12.77 92.286 9.746 93.042L9.206 92.34C11.33 91.404 13.004 90.468 14.228 89.532C15.452 88.56 16.352 87.552 16.928 86.508C17.504 85.464 17.864 84.384 18.008 83.268C18.188 82.152 18.296 81.018 18.332 79.866H24.164ZM21.572 61.83C23.804 61.974 25.532 62.316 26.756 62.856C27.98 63.396 28.808 64.026 29.24 64.746C29.672 65.43 29.816 66.132 29.672 66.852C29.528 67.536 29.15 68.112 28.538 68.58C27.962 69.012 27.26 69.246 26.432 69.282C25.64 69.282 24.812 68.976 23.948 68.364C23.804 67.248 23.444 66.132 22.868 65.016C22.292 63.864 21.716 62.892 21.14 62.1L21.572 61.83ZM11.312 110.592C11.312 110.844 11.06 111.132 10.556 111.456C10.052 111.816 9.386 112.122 8.558 112.374C7.766 112.662 6.92 112.806 6.02 112.806H5.048V78.948V76.248L11.798 78.948H43.01V80.46H11.312V110.592ZM40.958 78.948L43.82 75.708L49.976 80.406C49.832 80.622 49.562 80.838 49.166 81.054C48.806 81.27 48.338 81.432 47.762 81.54V105.624C47.762 106.956 47.582 108.108 47.222 109.08C46.898 110.088 46.16 110.88 45.008 111.456C43.892 112.068 42.182 112.464 39.878 112.644C39.806 111.708 39.68 110.88 39.5 110.16C39.356 109.476 39.086 108.9 38.69 108.432C38.294 108 37.772 107.622 37.124 107.298C36.512 106.938 35.576 106.65 34.316 106.434V105.732C34.316 105.732 34.568 105.75 35.072 105.786C35.576 105.822 36.17 105.858 36.854 105.894C37.574 105.93 38.258 105.966 38.906 106.002C39.59 106.038 40.094 106.056 40.418 106.056C40.85 106.056 41.138 105.966 41.282 105.786C41.426 105.606 41.498 105.336 41.498 104.976V78.948H40.958ZM43.982 64.206C43.982 64.206 44.216 64.386 44.684 64.746C45.152 65.07 45.728 65.502 46.412 66.042C47.132 66.582 47.87 67.158 48.626 67.77C49.418 68.346 50.138 68.922 50.786 69.498C50.75 69.786 50.57 70.002 50.246 70.146C49.958 70.29 49.616 70.362 49.22 70.362H2.78L2.348 68.796H40.256L43.982 64.206ZM33.29 102.816V104.328H19.304V102.816H33.29ZM29.348 93.042L31.886 90.342L37.232 94.338C37.088 94.482 36.854 94.662 36.53 94.878C36.242 95.058 35.882 95.184 35.45 95.256V105.84C35.45 105.948 35.18 106.11 34.64 106.326C34.1 106.542 33.47 106.74 32.75 106.92C32.03 107.1 31.364 107.19 30.752 107.19H29.834V93.042H29.348ZM22.598 106.488C22.598 106.632 22.346 106.848 21.842 107.136C21.374 107.424 20.78 107.676 20.06 107.892C19.34 108.108 18.584 108.216 17.792 108.216H16.982V93.042V90.72L22.814 93.042H33.722V94.608H22.598V106.488ZM39.77 72.09C39.59 72.846 38.924 73.224 37.772 73.224C36.8 74.304 35.648 75.51 34.316 76.842C32.984 78.174 31.652 79.38 30.32 80.46H28.862C29.15 79.488 29.456 78.408 29.78 77.22C30.104 75.996 30.392 74.772 30.644 73.548C30.932 72.324 31.148 71.208 31.292 70.2L39.77 72.09ZM14.93 70.362C17.198 70.758 18.944 71.334 20.168 72.09C21.428 72.81 22.274 73.602 22.706 74.466C23.174 75.294 23.318 76.086 23.138 76.842C22.994 77.598 22.634 78.228 22.058 78.732C21.518 79.2 20.834 79.434 20.006 79.434C19.214 79.434 18.386 79.092 17.522 78.408C17.378 77.004 17 75.6 16.388 74.196C15.776 72.792 15.128 71.604 14.444 70.632L14.93 70.362ZM84.374 84.132C87.146 84.672 89.324 85.41 90.908 86.346C92.528 87.246 93.662 88.182 94.31 89.154C94.958 90.126 95.228 91.026 95.12 91.854C95.012 92.646 94.634 93.204 93.986 93.528C93.374 93.852 92.618 93.798 91.718 93.366C91.214 92.43 90.512 91.422 89.612 90.342C88.712 89.262 87.74 88.218 86.696 87.21C85.688 86.202 84.734 85.338 83.834 84.618L84.374 84.132ZM82.16 88.992L84.482 86.778L88.964 90.288C88.784 90.504 88.532 90.684 88.208 90.828C87.884 90.936 87.47 91.026 86.966 91.098C86.966 93.186 86.84 94.734 86.588 95.742C86.336 96.714 85.832 97.452 85.076 97.956C84.536 98.316 83.942 98.568 83.294 98.712C82.646 98.82 81.854 98.874 80.918 98.874C80.918 98.334 80.882 97.848 80.81 97.416C80.738 96.984 80.558 96.606 80.27 96.282C80.018 96.03 79.694 95.832 79.298 95.688C78.938 95.508 78.506 95.364 78.002 95.256V94.392C78.47 94.428 79.01 94.464 79.622 94.5C80.27 94.5 80.774 94.5 81.134 94.5C81.674 94.5 82.034 94.428 82.214 94.284C82.394 94.104 82.52 93.6 82.592 92.772C82.664 91.944 82.7 90.684 82.7 88.992H82.16ZM92.366 71.496C92.222 71.784 91.988 72.018 91.664 72.198C91.34 72.378 90.89 72.432 90.314 72.36C89.414 73.152 88.442 73.944 87.398 74.736C86.39 75.492 85.436 76.122 84.536 76.626L83.726 76.14C84.122 75.312 84.554 74.268 85.022 73.008C85.49 71.712 85.94 70.398 86.372 69.066L92.366 71.496ZM67.796 68.742C69.596 69.174 71 69.732 72.008 70.416C73.016 71.1 73.7 71.82 74.06 72.576C74.42 73.296 74.528 73.98 74.384 74.628C74.276 75.24 73.988 75.744 73.52 76.14C73.052 76.536 72.476 76.734 71.792 76.734C71.144 76.698 70.478 76.392 69.794 75.816C69.758 74.628 69.47 73.422 68.93 72.198C68.426 70.938 67.868 69.876 67.256 69.012L67.796 68.742ZM70.658 88.02L71.63 87.102L76.328 88.992H75.68V99.684C75.68 100.044 75.788 100.278 76.004 100.386C76.22 100.494 76.724 100.548 77.516 100.548H82.214C83.114 100.548 83.942 100.548 84.698 100.548C85.454 100.548 85.994 100.53 86.318 100.494C86.894 100.494 87.308 100.332 87.56 100.008C87.812 99.684 88.1 99.108 88.424 98.28C88.748 97.452 89.09 96.498 89.45 95.418H90.044L90.206 100.062C90.962 100.35 91.448 100.656 91.664 100.98C91.916 101.268 92.042 101.628 92.042 102.06C92.042 102.744 91.754 103.284 91.178 103.68C90.602 104.076 89.576 104.364 88.1 104.544C86.624 104.724 84.5 104.814 81.728 104.814H76.382C74.762 104.814 73.538 104.688 72.71 104.436C71.918 104.184 71.378 103.752 71.09 103.14C70.802 102.528 70.658 101.664 70.658 100.548V88.992V88.02ZM84.05 88.992V90.558H73.844L73.358 88.992H84.05ZM84.914 68.958C84.806 69.354 84.59 69.66 84.266 69.876C83.942 70.092 83.456 70.2 82.808 70.2C82.16 73.26 81.116 76.284 79.676 79.272C78.272 82.224 76.328 84.978 73.844 87.534C71.36 90.054 68.138 92.214 64.178 94.014L63.692 93.474C66.788 91.278 69.272 88.74 71.144 85.86C73.016 82.944 74.438 79.902 75.41 76.734C76.382 73.566 77.03 70.506 77.354 67.554L84.914 68.958ZM91.124 80.082C91.124 80.082 91.394 80.298 91.934 80.73C92.474 81.162 93.104 81.684 93.824 82.296C94.58 82.908 95.264 83.484 95.876 84.024C95.732 84.6 95.246 84.888 94.418 84.888H64.718L64.286 83.376H88.532L91.124 80.082ZM89.342 74.574C89.342 74.574 89.612 74.772 90.152 75.168C90.692 75.528 91.34 75.996 92.096 76.572C92.888 77.112 93.59 77.652 94.202 78.192C94.094 78.768 93.626 79.056 92.798 79.056H66.122L65.69 77.544H86.696L89.342 74.574ZM63.638 110.214C63.638 110.502 63.386 110.826 62.882 111.186C62.414 111.582 61.784 111.924 60.992 112.212C60.236 112.5 59.39 112.644 58.454 112.644H57.428V65.448V62.64L64.178 65.448H98.144V67.014H63.638V110.214ZM95.39 65.448L98.468 62.046L104.516 66.906C104.336 67.158 104.066 67.374 103.706 67.554C103.346 67.734 102.878 67.896 102.302 68.04V110.268C102.302 110.412 102.014 110.646 101.438 110.97C100.862 111.33 100.16 111.636 99.332 111.888C98.54 112.176 97.748 112.32 96.956 112.32H95.93V65.448H95.39ZM98.522 106.812V108.378H61.424V106.812H98.522Z" fill="white"/>
</svg>
