<svg width="294" height="61" viewBox="0 0 294 61" fill="none" xmlns="http://www.w3.org/2000/svg">
<rect y="0.5" width="293.333" height="60" rx="10" fill="#FFE3BB"/>
<path d="M86.01 16.5C86.41 16.5 86.82 16.5 87.35 16.63C87.89 16.76 88.42 16.9 88.69 17.03C89.36 17.3 90.03 18.1 90.84 19.45C91.51 20.66 91.78 21.87 91.78 23.08C91.78 23.48 91.78 23.75 91.65 24.15C91.65 24.55 91.52 24.82 91.38 25.22C91.25 25.62 91.11 25.89 91.11 26.16C90.98 26.43 90.84 26.7 90.71 27.23C90.58 27.77 90.44 28.04 90.31 28.17C89.91 29.51 89.37 30.59 88.7 31.66C87.63 33.27 86.28 35.02 84.4 36.9C82.52 38.78 80.91 40.12 79.16 41.2C78.09 41.87 77.01 42.4101 75.67 42.8101C75.54 42.8101 75.27 42.94 74.73 43.21C74.19 43.34 73.79 43.48 73.66 43.61C73.39 43.74 73.12 43.74 72.72 43.88C72.32 44.01 71.91 44.01 71.65 44.15C71.25 44.15 70.98 44.28 70.58 44.28C69.37 44.28 68.16 44.01 66.95 43.34C65.61 42.67 64.8 41.86 64.53 41.19C64.4 40.92 64.26 40.38 64.13 39.85C64 39.31 64 38.78 64 38.51V38.11C64.13 37.84 64.54 37.57 65.48 37.04C65.75 36.91 66.15 36.64 66.55 36.5C66.95 36.23 67.49 35.96 67.76 35.83C68.03 35.7 68.43 35.43 68.83 35.16C68.83 35.16 69.1 35.03 69.37 34.76C69.64 34.63 69.91 34.49 70.04 34.36C70.17 34.23 70.44 34.23 70.58 34.23C70.85 34.23 71.12 34.36 71.52 34.77C71.92 35.17 72.33 35.58 72.59 35.98C72.86 36.38 73.26 36.79 73.66 37.19C74.06 37.59 74.33 37.73 74.6 37.73C74.73 37.73 74.87 37.73 75 37.6C75.13 37.6 75.27 37.47 75.4 37.47C75.53 37.47 75.67 37.34 75.94 37.2C76.21 37.07 76.34 36.9301 76.34 36.9301C78.09 35.9901 79.7 34.78 80.91 33.44C82.25 32.1 83.33 30.6201 84.4 28.8701C84.4 28.8701 84.53 28.74 84.67 28.47C84.8 28.2 84.94 28.0701 84.94 27.9301C84.94 27.7901 85.07 27.66 85.07 27.53C85.07 27.4 85.2 27.26 85.2 27.13C85.2 26.86 85.07 26.59 84.66 26.19C84.26 25.79 83.85 25.5201 83.45 25.1201C83.05 24.8501 82.64 24.45 82.24 24.05C81.84 23.65 81.7 23.38 81.7 23.11C81.7 22.98 81.7 22.71 81.83 22.57C81.96 22.44 82.1 22.17 82.23 21.9C82.36 21.63 82.5 21.5 82.63 21.36C82.76 21.09 83.03 20.69 83.3 20.29C83.57 19.89 83.7 19.48 83.97 19.08C84.24 18.68 84.37 18.27 84.51 18.01C84.91 17.07 85.32 16.53 85.58 16.53H85.98L86.01 16.5Z" fill="#666666"/>
<path d="M115.829 36.724C115.029 36.724 114.325 36.4947 113.717 36.036C113.12 35.5667 112.651 34.8733 112.309 33.956C111.979 33.028 111.813 31.8813 111.813 30.516C111.813 29.1613 111.979 28.036 112.309 27.14C112.651 26.2333 113.12 25.556 113.717 25.108C114.325 24.66 115.029 24.436 115.829 24.436C116.64 24.436 117.344 24.6653 117.941 25.124C118.539 25.572 119.003 26.244 119.333 27.14C119.675 28.036 119.845 29.1613 119.845 30.516C119.845 31.8813 119.675 33.028 119.333 33.956C119.003 34.8733 118.539 35.5667 117.941 36.036C117.344 36.4947 116.64 36.724 115.829 36.724ZM115.829 34.884C116.181 34.884 116.491 34.7507 116.757 34.484C117.024 34.2173 117.232 33.7693 117.381 33.14C117.531 32.5 117.605 31.6253 117.605 30.516C117.605 29.4173 117.531 28.5587 117.381 27.94C117.232 27.3107 117.024 26.8733 116.757 26.628C116.491 26.372 116.181 26.244 115.829 26.244C115.499 26.244 115.195 26.372 114.917 26.628C114.651 26.8733 114.437 27.3107 114.277 27.94C114.117 28.5587 114.037 29.4173 114.037 30.516C114.037 31.6253 114.117 32.5 114.277 33.14C114.437 33.7693 114.651 34.2173 114.917 34.484C115.195 34.7507 115.499 34.884 115.829 34.884ZM127.203 36.724C126.648 36.724 126.11 36.6067 125.587 36.372C125.075 36.1373 124.622 35.78 124.227 35.3C123.832 34.8093 123.518 34.1907 123.283 33.444C123.059 32.6867 122.947 31.7853 122.947 30.74C122.947 29.6413 123.07 28.692 123.315 27.892C123.571 27.092 123.912 26.4413 124.339 25.94C124.766 25.428 125.251 25.0493 125.795 24.804C126.35 24.5587 126.931 24.436 127.539 24.436C128.264 24.436 128.888 24.5693 129.411 24.836C129.944 25.092 130.387 25.4067 130.739 25.78L129.491 27.188C129.288 26.9533 129.022 26.7507 128.691 26.58C128.36 26.4093 128.024 26.324 127.683 26.324C127.203 26.324 126.766 26.4627 126.371 26.74C125.987 27.0173 125.678 27.476 125.443 28.116C125.208 28.756 125.091 29.6307 125.091 30.74C125.091 31.764 125.182 32.5853 125.363 33.204C125.555 33.812 125.806 34.2547 126.115 34.532C126.424 34.8093 126.771 34.948 127.155 34.948C127.454 34.948 127.72 34.868 127.955 34.708C128.2 34.5373 128.398 34.292 128.547 33.972C128.696 33.6413 128.771 33.236 128.771 32.756C128.771 32.2867 128.696 31.9027 128.547 31.604C128.408 31.3053 128.211 31.0813 127.955 30.932C127.71 30.7827 127.416 30.708 127.075 30.708C126.755 30.708 126.419 30.8093 126.067 31.012C125.715 31.204 125.39 31.5453 125.091 32.036L124.979 30.452C125.192 30.1533 125.443 29.8973 125.731 29.684C126.03 29.4707 126.334 29.3107 126.643 29.204C126.963 29.0973 127.251 29.044 127.507 29.044C128.168 29.044 128.755 29.1773 129.267 29.444C129.79 29.7107 130.195 30.116 130.483 30.66C130.771 31.204 130.915 31.9027 130.915 32.756C130.915 33.5667 130.744 34.2707 130.403 34.868C130.072 35.4547 129.624 35.9133 129.059 36.244C128.494 36.564 127.875 36.724 127.203 36.724ZM133.968 32.772V31.076H138.336V32.772H133.968ZM145.762 36.724C145.208 36.724 144.669 36.6067 144.146 36.372C143.634 36.1373 143.181 35.78 142.786 35.3C142.392 34.8093 142.077 34.1907 141.842 33.444C141.618 32.6867 141.506 31.7853 141.506 30.74C141.506 29.6413 141.629 28.692 141.874 27.892C142.13 27.092 142.472 26.4413 142.898 25.94C143.325 25.428 143.81 25.0493 144.354 24.804C144.909 24.5587 145.49 24.436 146.098 24.436C146.824 24.436 147.448 24.5693 147.97 24.836C148.504 25.092 148.946 25.4067 149.298 25.78L148.05 27.188C147.848 26.9533 147.581 26.7507 147.25 26.58C146.92 26.4093 146.584 26.324 146.242 26.324C145.762 26.324 145.325 26.4627 144.93 26.74C144.546 27.0173 144.237 27.476 144.002 28.116C143.768 28.756 143.65 29.6307 143.65 30.74C143.65 31.764 143.741 32.5853 143.922 33.204C144.114 33.812 144.365 34.2547 144.674 34.532C144.984 34.8093 145.33 34.948 145.714 34.948C146.013 34.948 146.28 34.868 146.514 34.708C146.76 34.5373 146.957 34.292 147.106 33.972C147.256 33.6413 147.33 33.236 147.33 32.756C147.33 32.2867 147.256 31.9027 147.106 31.604C146.968 31.3053 146.77 31.0813 146.514 30.932C146.269 30.7827 145.976 30.708 145.634 30.708C145.314 30.708 144.978 30.8093 144.626 31.012C144.274 31.204 143.949 31.5453 143.65 32.036L143.538 30.452C143.752 30.1533 144.002 29.8973 144.29 29.684C144.589 29.4707 144.893 29.3107 145.202 29.204C145.522 29.0973 145.81 29.044 146.066 29.044C146.728 29.044 147.314 29.1773 147.826 29.444C148.349 29.7107 148.754 30.116 149.042 30.66C149.33 31.204 149.474 31.9027 149.474 32.756C149.474 33.5667 149.304 34.2707 148.962 34.868C148.632 35.4547 148.184 35.9133 147.618 36.244C147.053 36.564 146.434 36.724 145.762 36.724ZM156.464 36.724C155.706 36.724 155.029 36.5907 154.432 36.324C153.834 36.0573 153.36 35.684 153.008 35.204C152.666 34.724 152.496 34.1747 152.496 33.556C152.496 33.044 152.586 32.596 152.768 32.212C152.96 31.8173 153.21 31.476 153.52 31.188C153.829 30.9 154.165 30.66 154.528 30.468V30.388C154.08 30.068 153.706 29.6787 153.408 29.22C153.109 28.7507 152.96 28.2067 152.96 27.588C152.96 26.948 153.114 26.3933 153.424 25.924C153.733 25.4547 154.154 25.092 154.688 24.836C155.232 24.58 155.845 24.452 156.528 24.452C157.232 24.452 157.84 24.5853 158.352 24.852C158.864 25.108 159.258 25.4707 159.536 25.94C159.824 26.4093 159.968 26.964 159.968 27.604C159.968 27.988 159.893 28.3507 159.744 28.692C159.605 29.0333 159.418 29.3427 159.184 29.62C158.96 29.8867 158.714 30.116 158.448 30.308V30.388C158.821 30.58 159.157 30.82 159.456 31.108C159.754 31.396 159.994 31.7427 160.176 32.148C160.357 32.5427 160.448 33.012 160.448 33.556C160.448 34.1533 160.277 34.692 159.936 35.172C159.605 35.652 159.141 36.0307 158.544 36.308C157.946 36.5853 157.253 36.724 156.464 36.724ZM157.2 29.732C157.488 29.4227 157.701 29.1027 157.84 28.772C157.978 28.4413 158.048 28.1 158.048 27.748C158.048 27.428 157.984 27.1453 157.856 26.9C157.738 26.644 157.562 26.4467 157.328 26.308C157.093 26.1693 156.81 26.1 156.48 26.1C156.074 26.1 155.733 26.228 155.456 26.484C155.178 26.74 155.04 27.108 155.04 27.588C155.04 27.9507 155.13 28.2653 155.312 28.532C155.504 28.788 155.765 29.012 156.096 29.204C156.426 29.3853 156.794 29.5613 157.2 29.732ZM156.512 35.06C156.853 35.06 157.152 35.0013 157.408 34.884C157.674 34.756 157.882 34.5747 158.032 34.34C158.181 34.0947 158.256 33.8067 158.256 33.476C158.256 33.1667 158.186 32.9 158.048 32.676C157.92 32.4413 157.738 32.2387 157.504 32.068C157.269 31.8867 156.992 31.7213 156.672 31.572C156.352 31.4227 156 31.2627 155.616 31.092C155.296 31.3587 155.034 31.684 154.832 32.068C154.629 32.4413 154.528 32.852 154.528 33.3C154.528 33.652 154.613 33.9613 154.784 34.228C154.965 34.484 155.205 34.6867 155.504 34.836C155.802 34.9853 156.138 35.06 156.512 35.06ZM167.501 36.724C166.701 36.724 165.997 36.4947 165.389 36.036C164.792 35.5667 164.323 34.8733 163.981 33.956C163.651 33.028 163.485 31.8813 163.485 30.516C163.485 29.1613 163.651 28.036 163.981 27.14C164.323 26.2333 164.792 25.556 165.389 25.108C165.997 24.66 166.701 24.436 167.501 24.436C168.312 24.436 169.016 24.6653 169.613 25.124C170.211 25.572 170.675 26.244 171.005 27.14C171.347 28.036 171.517 29.1613 171.517 30.516C171.517 31.8813 171.347 33.028 171.005 33.956C170.675 34.8733 170.211 35.5667 169.613 36.036C169.016 36.4947 168.312 36.724 167.501 36.724ZM167.501 34.884C167.853 34.884 168.163 34.7507 168.429 34.484C168.696 34.2173 168.904 33.7693 169.053 33.14C169.203 32.5 169.277 31.6253 169.277 30.516C169.277 29.4173 169.203 28.5587 169.053 27.94C168.904 27.3107 168.696 26.8733 168.429 26.628C168.163 26.372 167.853 26.244 167.501 26.244C167.171 26.244 166.867 26.372 166.589 26.628C166.323 26.8733 166.109 27.3107 165.949 27.94C165.789 28.5587 165.709 29.4173 165.709 30.516C165.709 31.6253 165.789 32.5 165.949 33.14C166.109 33.7693 166.323 34.2173 166.589 34.484C166.867 34.7507 167.171 34.884 167.501 34.884ZM178.539 36.724C177.739 36.724 177.035 36.4947 176.427 36.036C175.829 35.5667 175.36 34.8733 175.019 33.956C174.688 33.028 174.523 31.8813 174.523 30.516C174.523 29.1613 174.688 28.036 175.019 27.14C175.36 26.2333 175.829 25.556 176.427 25.108C177.035 24.66 177.739 24.436 178.539 24.436C179.349 24.436 180.053 24.6653 180.651 25.124C181.248 25.572 181.712 26.244 182.043 27.14C182.384 28.036 182.555 29.1613 182.555 30.516C182.555 31.8813 182.384 33.028 182.043 33.956C181.712 34.8733 181.248 35.5667 180.651 36.036C180.053 36.4947 179.349 36.724 178.539 36.724ZM178.539 34.884C178.891 34.884 179.2 34.7507 179.467 34.484C179.733 34.2173 179.941 33.7693 180.091 33.14C180.24 32.5 180.315 31.6253 180.315 30.516C180.315 29.4173 180.24 28.5587 180.091 27.94C179.941 27.3107 179.733 26.8733 179.467 26.628C179.2 26.372 178.891 26.244 178.539 26.244C178.208 26.244 177.904 26.372 177.627 26.628C177.36 26.8733 177.147 27.3107 176.987 27.94C176.827 28.5587 176.747 29.4173 176.747 30.516C176.747 31.6253 176.827 32.5 176.987 33.14C177.147 33.7693 177.36 34.2173 177.627 34.484C177.904 34.7507 178.208 34.884 178.539 34.884ZM185.64 32.772V31.076H190.008V32.772H185.64ZM193.69 36.5V34.58H196.25V27.108H194.09V25.636C194.687 25.5293 195.199 25.4013 195.626 25.252C196.063 25.092 196.469 24.8893 196.842 24.644H198.586V34.58H200.81V36.5H193.69ZM204.104 36.5V35.14C205.181 34.18 206.098 33.2893 206.856 32.468C207.624 31.6467 208.21 30.884 208.616 30.18C209.021 29.4653 209.224 28.804 209.224 28.196C209.224 27.812 209.154 27.476 209.016 27.188C208.877 26.9 208.674 26.6813 208.408 26.532C208.152 26.372 207.832 26.292 207.448 26.292C207.021 26.292 206.626 26.4147 206.264 26.66C205.912 26.8947 205.586 27.1773 205.288 27.508L203.976 26.244C204.53 25.6467 205.096 25.1987 205.672 24.9C206.258 24.5907 206.952 24.436 207.752 24.436C208.498 24.436 209.149 24.5907 209.704 24.9C210.269 25.1987 210.706 25.62 211.016 26.164C211.325 26.708 211.48 27.348 211.48 28.084C211.48 28.7987 211.298 29.5293 210.936 30.276C210.584 31.012 210.109 31.748 209.512 32.484C208.914 33.22 208.253 33.9453 207.528 34.66C207.837 34.6173 208.168 34.5853 208.52 34.564C208.882 34.532 209.202 34.516 209.48 34.516H212.04V36.5H204.104ZM218.821 36.724C218.202 36.724 217.648 36.6493 217.157 36.5C216.666 36.3613 216.229 36.1693 215.845 35.924C215.472 35.668 215.146 35.3853 214.869 35.076L215.973 33.588C216.336 33.9187 216.73 34.2067 217.157 34.452C217.594 34.6867 218.08 34.804 218.613 34.804C219.018 34.804 219.37 34.74 219.669 34.612C219.978 34.484 220.213 34.2973 220.373 34.052C220.544 33.8067 220.629 33.508 220.629 33.156C220.629 32.7613 220.533 32.4253 220.341 32.148C220.16 31.86 219.834 31.6413 219.365 31.492C218.896 31.3427 218.234 31.268 217.381 31.268V29.572C218.106 29.572 218.677 29.4973 219.093 29.348C219.509 29.188 219.802 28.9747 219.973 28.708C220.154 28.4307 220.245 28.116 220.245 27.764C220.245 27.3053 220.106 26.948 219.829 26.692C219.552 26.4253 219.162 26.292 218.661 26.292C218.245 26.292 217.856 26.388 217.493 26.58C217.141 26.7613 216.789 27.012 216.437 27.332L215.221 25.876C215.744 25.4387 216.293 25.092 216.869 24.836C217.445 24.5693 218.08 24.436 218.773 24.436C219.53 24.436 220.197 24.5587 220.773 24.804C221.36 25.0493 221.813 25.4067 222.133 25.876C222.453 26.3453 222.613 26.916 222.613 27.588C222.613 28.228 222.442 28.7773 222.101 29.236C221.76 29.6947 221.274 30.0467 220.645 30.292V30.372C221.082 30.4893 221.477 30.6813 221.829 30.948C222.192 31.204 222.474 31.5293 222.677 31.924C222.89 32.3187 222.997 32.7773 222.997 33.3C222.997 34.0147 222.805 34.628 222.421 35.14C222.048 35.652 221.541 36.0467 220.901 36.324C220.272 36.5907 219.578 36.724 218.821 36.724Z" fill="#666666"/>
</svg>
