<svg width="294" height="61" viewBox="0 0 294 61" fill="none" xmlns="http://www.w3.org/2000/svg">
<rect x="0.666504" y="0.5" width="293.333" height="60" rx="10" fill="#FFE3BB"/>
<path d="M88.6524 12.6925V18.4107H85.071C83.7508 18.4107 82.8098 18.5894 82.4305 19.153C82.0513 19.7028 81.6721 20.4451 81.6721 21.5585V25.6135H88.4559L87.5148 32.074H81.6721V48.5H74.5092V32.074H68.6665V25.7922H74.5092V20.9949C74.5092 18.232 75.2676 16.1977 76.967 14.7131C78.6665 13.2286 80.7451 12.5 83.3856 12.5C85.6468 12.5 87.3463 12.5 88.6665 12.6787L88.6524 12.6925Z" fill="#666666"/>
<path d="M107.587 25.284H122.147V27.028H107.587V25.284ZM109.491 30.724H113.635V32.148H109.491V30.724ZM109.491 33.188H113.635V34.596H109.491V33.188ZM116.195 28.292H117.955V34.852H116.195V28.292ZM112.979 28.116H114.819V36.052C114.819 36.4467 114.771 36.7667 114.675 37.012C114.579 37.2573 114.397 37.4493 114.131 37.588C113.853 37.7267 113.528 37.812 113.155 37.844C112.792 37.876 112.365 37.892 111.875 37.892C111.821 37.6467 111.736 37.364 111.619 37.044C111.512 36.7347 111.395 36.4733 111.267 36.26C111.555 36.2707 111.843 36.2813 112.131 36.292C112.419 36.292 112.611 36.2867 112.707 36.276C112.803 36.276 112.872 36.2547 112.915 36.212C112.957 36.1693 112.979 36.1053 112.979 36.02V28.116ZM119.395 27.844H121.283V35.828C121.283 36.2973 121.224 36.66 121.107 36.916C121 37.1827 120.792 37.396 120.483 37.556C120.173 37.6947 119.8 37.7853 119.363 37.828C118.925 37.8707 118.413 37.8867 117.827 37.876C117.784 37.62 117.693 37.316 117.555 36.964C117.427 36.612 117.288 36.3133 117.139 36.068C117.555 36.0893 117.944 36.1 118.307 36.1C118.68 36.1 118.931 36.0947 119.059 36.084C119.187 36.084 119.272 36.068 119.315 36.036C119.368 35.9933 119.395 35.9187 119.395 35.812V27.844ZM109.795 23.524L111.619 22.884C111.907 23.204 112.195 23.556 112.483 23.94C112.771 24.324 112.984 24.6707 113.123 24.98L111.171 25.652C111.064 25.364 110.877 25.0173 110.611 24.612C110.355 24.2067 110.083 23.844 109.795 23.524ZM118.019 22.852L120.099 23.476C119.779 23.988 119.448 24.4893 119.107 24.98C118.776 25.46 118.467 25.876 118.179 26.228L116.451 25.636C116.643 25.38 116.835 25.092 117.027 24.772C117.219 24.452 117.4 24.1267 117.571 23.796C117.752 23.4547 117.901 23.14 118.019 22.852ZM108.467 28.116H113.507V29.732H110.275V37.844H108.467V28.116ZM132.355 24.148L133.667 22.9C134.051 23.0813 134.456 23.3 134.883 23.556C135.32 23.8013 135.736 24.052 136.131 24.308C136.525 24.564 136.845 24.8093 137.091 25.044L135.683 26.436C135.459 26.212 135.16 25.9613 134.787 25.684C134.413 25.4067 134.013 25.1347 133.587 24.868C133.16 24.5907 132.749 24.3507 132.355 24.148ZM130.563 26.132H139.379V27.94H130.563V26.132ZM130.899 30.804H139.123V32.596H130.899V30.804ZM129.923 35.62H139.987V37.476H129.923V35.62ZM133.955 26.788H136.003V36.948H133.955V26.788ZM128.803 26.34L130.499 27.028C130.115 27.6787 129.656 28.3347 129.123 28.996C128.6 29.6573 128.051 30.276 127.475 30.852C126.899 31.428 126.328 31.9347 125.763 32.372C125.709 32.2333 125.619 32.0467 125.491 31.812C125.373 31.5773 125.245 31.3427 125.107 31.108C124.968 30.8627 124.845 30.6707 124.739 30.532C125.229 30.2013 125.725 29.812 126.227 29.364C126.728 28.9053 127.203 28.42 127.651 27.908C128.099 27.3853 128.483 26.8627 128.803 26.34ZM128.291 22.916L130.115 23.652C129.763 24.1533 129.352 24.6547 128.883 25.156C128.413 25.6573 127.917 26.132 127.395 26.58C126.883 27.0173 126.371 27.4013 125.859 27.732C125.795 27.5827 125.704 27.4067 125.587 27.204C125.469 27.0013 125.347 26.7987 125.219 26.596C125.101 26.3933 124.995 26.228 124.899 26.1C125.325 25.844 125.752 25.5347 126.179 25.172C126.616 24.8093 127.021 24.436 127.395 24.052C127.768 23.6573 128.067 23.2787 128.291 22.916ZM127.171 30.052L128.947 28.276L129.027 28.324V37.94H127.171V30.052ZM150.739 23.22L152.547 23.476C152.376 24.436 152.141 25.3427 151.843 26.196C151.544 27.0387 151.16 27.8013 150.691 28.484C150.232 29.1667 149.651 29.764 148.947 30.276C148.925 30.1053 148.877 29.8973 148.803 29.652C148.728 29.396 148.643 29.14 148.547 28.884C148.461 28.6173 148.371 28.4093 148.275 28.26C148.979 27.716 149.523 27.012 149.907 26.148C150.301 25.2733 150.579 24.2973 150.739 23.22ZM149.507 29.028H155.411V30.804H149.507V29.028ZM154.515 29.028H156.403C156.403 29.028 156.397 29.076 156.387 29.172C156.387 29.268 156.387 29.3747 156.387 29.492C156.387 29.6093 156.381 29.7107 156.371 29.796C156.328 31.0013 156.28 32.0307 156.227 32.884C156.184 33.7267 156.125 34.4307 156.051 34.996C155.987 35.5507 155.912 35.9933 155.827 36.324C155.752 36.644 155.656 36.884 155.539 37.044C155.368 37.268 155.187 37.4227 154.995 37.508C154.813 37.604 154.605 37.6733 154.371 37.716C154.168 37.7587 153.907 37.7853 153.587 37.796C153.267 37.8067 152.925 37.8013 152.563 37.78C152.552 37.524 152.499 37.2253 152.403 36.884C152.317 36.5533 152.205 36.2707 152.067 36.036C152.355 36.068 152.611 36.0893 152.835 36.1C153.069 36.1 153.251 36.1 153.379 36.1C153.496 36.1 153.592 36.084 153.667 36.052C153.752 36.02 153.827 35.956 153.891 35.86C153.997 35.732 154.088 35.444 154.163 34.996C154.237 34.548 154.301 33.876 154.355 32.98C154.419 32.0733 154.472 30.8733 154.515 29.38V29.028ZM150.947 30.02L152.787 30.084C152.701 31.332 152.525 32.4467 152.259 33.428C151.992 34.4093 151.608 35.2733 151.107 36.02C150.616 36.756 149.976 37.3853 149.187 37.908C149.112 37.7907 148.995 37.6413 148.835 37.46C148.685 37.2893 148.525 37.1133 148.355 36.932C148.195 36.7613 148.051 36.6227 147.923 36.516C148.989 35.9187 149.741 35.076 150.179 33.988C150.616 32.8893 150.872 31.5667 150.947 30.02ZM155.043 23.108C155.213 23.9507 155.416 24.6973 155.651 25.348C155.885 25.9987 156.168 26.58 156.499 27.092C156.84 27.5933 157.256 28.0627 157.747 28.5C157.491 28.692 157.24 28.932 156.995 29.22C156.749 29.508 156.563 29.7907 156.435 30.068C155.859 29.5027 155.373 28.9 154.979 28.26C154.595 27.62 154.275 26.9053 154.019 26.116C153.763 25.3267 153.533 24.436 153.331 23.444L155.043 23.108ZM144.931 22.9H146.707V37.924H144.931V22.9ZM142.659 28.356H148.499V30.148H142.659V28.356ZM144.819 29.22L146.035 29.716C145.853 30.4413 145.624 31.204 145.347 32.004C145.069 32.804 144.76 33.5667 144.419 34.292C144.077 35.0173 143.709 35.6307 143.315 36.132C143.219 35.844 143.08 35.5133 142.899 35.14C142.717 34.7667 142.552 34.4467 142.403 34.18C142.733 33.7747 143.053 33.2893 143.363 32.724C143.683 32.1587 143.971 31.5667 144.227 30.948C144.483 30.3293 144.68 29.7533 144.819 29.22ZM146.531 30.356C146.648 30.452 146.819 30.6173 147.043 30.852C147.267 31.0867 147.501 31.3373 147.747 31.604C148.003 31.8707 148.237 32.1213 148.451 32.356C148.664 32.5907 148.813 32.7613 148.899 32.868L147.747 34.42C147.629 34.196 147.48 33.94 147.299 33.652C147.117 33.364 146.92 33.0707 146.707 32.772C146.504 32.4627 146.307 32.1693 146.115 31.892C145.923 31.6147 145.752 31.3853 145.603 31.204L146.531 30.356ZM142.643 24.276L144.003 23.956C144.163 24.532 144.312 25.1507 144.451 25.812C144.6 26.4733 144.712 27.0493 144.787 27.54L143.347 27.892C143.315 27.5613 143.261 27.188 143.187 26.772C143.112 26.356 143.027 25.9293 142.931 25.492C142.845 25.0547 142.749 24.6493 142.643 24.276ZM147.491 23.844L149.139 24.196C149.011 24.6227 148.867 25.06 148.707 25.508C148.557 25.9453 148.408 26.372 148.259 26.788C148.12 27.1933 147.976 27.5507 147.827 27.86L146.579 27.524C146.696 27.1933 146.813 26.8147 146.931 26.388C147.048 25.9507 147.155 25.508 147.251 25.06C147.357 24.612 147.437 24.2067 147.491 23.844ZM170.035 30.884H171.875V37.94H170.035V30.884ZM170.131 22.868L171.987 23.524C171.72 23.9293 171.443 24.3507 171.155 24.788C170.867 25.2253 170.579 25.6413 170.291 26.036C170.013 26.42 169.752 26.7613 169.507 27.06L168.147 26.484C168.381 26.1533 168.621 25.78 168.867 25.364C169.123 24.948 169.357 24.5213 169.571 24.084C169.795 23.6467 169.981 23.2413 170.131 22.868ZM172.259 24.756L174.051 25.54C173.603 26.1693 173.117 26.8253 172.595 27.508C172.072 28.18 171.544 28.8253 171.011 29.444C170.488 30.0627 169.987 30.6013 169.507 31.06L168.163 30.34C168.515 29.9667 168.877 29.556 169.251 29.108C169.635 28.6493 170.008 28.1693 170.371 27.668C170.744 27.1667 171.091 26.6653 171.411 26.164C171.741 25.6627 172.024 25.1933 172.259 24.756ZM167.187 26.66L168.115 25.348C168.456 25.604 168.813 25.8867 169.187 26.196C169.56 26.5053 169.907 26.82 170.227 27.14C170.547 27.4493 170.797 27.7373 170.979 28.004L169.971 29.492C169.8 29.2147 169.555 28.9107 169.235 28.58C168.925 28.2387 168.589 27.9027 168.227 27.572C167.875 27.2307 167.528 26.9267 167.187 26.66ZM171.987 28.644L173.443 27.94C173.699 28.3027 173.949 28.6973 174.195 29.124C174.451 29.54 174.675 29.9507 174.867 30.356C175.069 30.7613 175.219 31.124 175.315 31.444L173.747 32.244C173.672 31.9133 173.539 31.54 173.347 31.124C173.165 30.708 172.952 30.2867 172.707 29.86C172.472 29.4227 172.232 29.0173 171.987 28.644ZM167.395 29.924C167.949 29.9027 168.584 29.876 169.299 29.844C170.013 29.812 170.765 29.78 171.555 29.748C172.355 29.7053 173.144 29.668 173.923 29.636L173.907 31.332C172.808 31.4067 171.704 31.476 170.595 31.54C169.485 31.604 168.493 31.6627 167.619 31.716L167.395 29.924ZM172.019 33.012L173.587 32.436C173.821 32.82 174.051 33.236 174.275 33.684C174.499 34.132 174.701 34.5693 174.883 34.996C175.064 35.4227 175.208 35.8067 175.315 36.148L173.635 36.82C173.549 36.4787 173.421 36.0893 173.251 35.652C173.08 35.2147 172.883 34.7667 172.659 34.308C172.445 33.8387 172.232 33.4067 172.019 33.012ZM168.115 32.532L169.875 32.884C169.704 33.652 169.475 34.3987 169.187 35.124C168.899 35.8493 168.595 36.4573 168.275 36.948C168.147 36.8627 167.987 36.7667 167.795 36.66C167.603 36.5533 167.405 36.4573 167.203 36.372C167 36.276 166.824 36.196 166.675 36.132C167.016 35.684 167.309 35.14 167.555 34.5C167.8 33.8493 167.987 33.1933 168.115 32.532ZM162.979 30.884H164.739V37.94H162.979V30.884ZM162.867 22.868L164.675 23.508C164.419 23.924 164.152 24.3507 163.875 24.788C163.597 25.2147 163.325 25.6253 163.059 26.02C162.803 26.404 162.552 26.7453 162.307 27.044L160.979 26.484C161.203 26.1533 161.432 25.78 161.667 25.364C161.901 24.948 162.12 24.5213 162.323 24.084C162.536 23.6467 162.717 23.2413 162.867 22.868ZM164.851 24.74L166.611 25.524C166.184 26.132 165.72 26.7667 165.219 27.428C164.728 28.0893 164.232 28.724 163.731 29.332C163.24 29.94 162.771 30.468 162.323 30.916L161.059 30.228C161.389 29.8653 161.725 29.46 162.067 29.012C162.419 28.564 162.765 28.0947 163.107 27.604C163.448 27.1133 163.768 26.6227 164.067 26.132C164.365 25.6413 164.627 25.1773 164.851 24.74ZM160.067 26.724L160.947 25.364C161.277 25.6093 161.613 25.892 161.955 26.212C162.307 26.5213 162.627 26.8307 162.915 27.14C163.213 27.4493 163.448 27.7373 163.619 28.004L162.659 29.556C162.499 29.2787 162.275 28.9747 161.987 28.644C161.699 28.3027 161.384 27.9667 161.043 27.636C160.712 27.2947 160.387 26.9907 160.067 26.724ZM164.579 28.756L166.019 28.132C166.221 28.484 166.424 28.868 166.627 29.284C166.84 29.7 167.027 30.1053 167.187 30.5C167.357 30.884 167.485 31.236 167.571 31.556L166.035 32.292C165.96 31.9827 165.843 31.6253 165.683 31.22C165.533 30.804 165.363 30.3827 165.171 29.956C164.979 29.5293 164.781 29.1293 164.579 28.756ZM160.067 29.908C160.611 29.8973 161.224 29.8867 161.907 29.876C162.6 29.8547 163.325 29.8333 164.083 29.812C164.851 29.78 165.613 29.748 166.371 29.716L166.339 31.428C165.261 31.4813 164.184 31.5293 163.107 31.572C162.04 31.6147 161.085 31.652 160.243 31.684L160.067 29.908ZM164.867 32.836L166.355 32.34C166.568 32.7453 166.771 33.188 166.963 33.668C167.165 34.1373 167.315 34.5427 167.411 34.884L165.859 35.492C165.773 35.1293 165.629 34.7027 165.427 34.212C165.235 33.7107 165.048 33.252 164.867 32.836ZM160.995 32.34L162.707 32.628C162.611 33.4067 162.461 34.1693 162.259 34.916C162.067 35.652 161.843 36.2707 161.587 36.772C161.459 36.6867 161.293 36.6013 161.091 36.516C160.899 36.4307 160.701 36.3453 160.499 36.26C160.307 36.1747 160.131 36.1107 159.971 36.068C160.248 35.6093 160.467 35.044 160.627 34.372C160.797 33.6893 160.92 33.012 160.995 32.34ZM177.955 33.028H192.595V34.532H177.955V33.028ZM178.403 23.94H192.035V25.38H178.403V23.94ZM187.139 32.084H188.995V36.084C188.995 36.5213 188.941 36.8627 188.835 37.108C188.728 37.364 188.509 37.556 188.179 37.684C187.859 37.8013 187.469 37.8707 187.011 37.892C186.552 37.924 186.019 37.94 185.411 37.94C185.368 37.684 185.293 37.396 185.187 37.076C185.091 36.7667 184.984 36.4947 184.867 36.26C185.123 36.2707 185.384 36.2813 185.651 36.292C185.917 36.292 186.157 36.292 186.371 36.292C186.584 36.292 186.728 36.292 186.803 36.292C186.931 36.2813 187.016 36.26 187.059 36.228C187.112 36.196 187.139 36.1267 187.139 36.02V32.084ZM184.291 22.916H186.179V31.54H184.291V22.916ZM180.499 35.092L181.827 33.988C182.115 34.1693 182.419 34.3773 182.739 34.612C183.059 34.8467 183.363 35.0867 183.651 35.332C183.939 35.5667 184.168 35.7907 184.339 36.004L182.931 37.22C182.771 37.0067 182.552 36.772 182.275 36.516C182.008 36.2707 181.72 36.02 181.411 35.764C181.101 35.508 180.797 35.284 180.499 35.092ZM181.459 28.804V29.428H189.155V28.804H181.459ZM181.459 27.124V27.716H189.155V27.124H181.459ZM179.667 25.956H191.043V30.58H179.667V25.956ZM187.539 30.836L188.659 29.972C189.053 30.132 189.459 30.324 189.875 30.548C190.301 30.772 190.701 31.0013 191.075 31.236C191.448 31.46 191.763 31.6733 192.019 31.876L190.867 32.868C190.621 32.644 190.312 32.4093 189.939 32.164C189.565 31.9187 189.165 31.6787 188.739 31.444C188.323 31.2093 187.923 31.0067 187.539 30.836ZM178.627 31.172C179.363 31.1827 180.195 31.188 181.123 31.188C182.061 31.1773 183.059 31.172 184.115 31.172C185.181 31.172 186.269 31.172 187.379 31.172C188.488 31.1613 189.597 31.1453 190.707 31.124L190.643 32.308C189.213 32.3507 187.773 32.388 186.323 32.42C184.883 32.452 183.507 32.484 182.195 32.516C180.883 32.5373 179.715 32.5533 178.691 32.564L178.627 31.172ZM199.475 30.068V30.964H206.307V30.068H199.475ZM199.475 32.34V33.22H206.307V32.34H199.475ZM199.475 27.828V28.708H206.307V27.828H199.475ZM197.475 26.356H208.403V34.692H197.475V26.356ZM203.651 35.844L205.075 34.596C205.683 34.7987 206.307 35.0227 206.947 35.268C207.587 35.5133 208.189 35.7587 208.755 36.004C209.331 36.2493 209.821 36.468 210.227 36.66L208.307 37.94C207.965 37.7373 207.539 37.5133 207.027 37.268C206.525 37.0227 205.981 36.7773 205.395 36.532C204.819 36.2867 204.237 36.0573 203.651 35.844ZM196.099 23.652H209.539V25.396H196.099V23.652ZM201.843 24.484L204.179 24.74C204.029 25.2413 203.875 25.716 203.715 26.164C203.555 26.612 203.405 27.0013 203.267 27.332L201.411 27.012C201.507 26.6493 201.597 26.2333 201.683 25.764C201.768 25.2947 201.821 24.868 201.843 24.484ZM200.451 34.484L202.115 35.812C201.635 36.068 201.085 36.3293 200.467 36.596C199.859 36.8627 199.235 37.108 198.595 37.332C197.965 37.5667 197.373 37.764 196.819 37.924C196.659 37.7107 196.451 37.46 196.195 37.172C195.949 36.884 195.715 36.6387 195.491 36.436C196.056 36.2973 196.648 36.1213 197.267 35.908C197.896 35.684 198.488 35.4493 199.043 35.204C199.608 34.948 200.077 34.708 200.451 34.484ZM217.075 30.068V30.964H223.907V30.068H217.075ZM217.075 32.34V33.22H223.907V32.34H217.075ZM217.075 27.828V28.708H223.907V27.828H217.075ZM215.075 26.356H226.003V34.692H215.075V26.356ZM221.251 35.844L222.675 34.596C223.283 34.7987 223.907 35.0227 224.547 35.268C225.187 35.5133 225.789 35.7587 226.355 36.004C226.931 36.2493 227.421 36.468 227.827 36.66L225.907 37.94C225.565 37.7373 225.139 37.5133 224.627 37.268C224.125 37.0227 223.581 36.7773 222.995 36.532C222.419 36.2867 221.837 36.0573 221.251 35.844ZM213.699 23.652H227.139V25.396H213.699V23.652ZM219.443 24.484L221.779 24.74C221.629 25.2413 221.475 25.716 221.315 26.164C221.155 26.612 221.005 27.0013 220.867 27.332L219.011 27.012C219.107 26.6493 219.197 26.2333 219.283 25.764C219.368 25.2947 219.421 24.868 219.443 24.484ZM218.051 34.484L219.715 35.812C219.235 36.068 218.685 36.3293 218.067 36.596C217.459 36.8627 216.835 37.108 216.195 37.332C215.565 37.5667 214.973 37.764 214.419 37.924C214.259 37.7107 214.051 37.46 213.795 37.172C213.549 36.884 213.315 36.6387 213.091 36.436C213.656 36.2973 214.248 36.1213 214.867 35.908C215.496 35.684 216.088 35.4493 216.643 35.204C217.208 34.948 217.677 34.708 218.051 34.484Z" fill="#666666"/>
</svg>
