<svg width="95" height="73" viewBox="0 0 95 73" fill="none" xmlns="http://www.w3.org/2000/svg">
<path d="M18.8497 12.594L20.8507 13.353C19.9767 14.6717 18.8957 15.8523 17.6077 16.895C16.335 17.9223 14.9397 18.827 13.4217 19.609C11.9037 20.3757 10.3397 21.0273 8.7297 21.564C8.65303 21.4107 8.53036 21.219 8.3617 20.989C8.20836 20.759 8.04736 20.5213 7.8787 20.276C7.71003 20.046 7.5567 19.862 7.4187 19.724C9.01336 19.2947 10.5314 18.7427 11.9727 18.068C13.4294 17.3933 14.748 16.6037 15.9287 15.699C17.1247 14.779 18.0984 13.744 18.8497 12.594ZM7.3727 11.191L21.4257 9.949L21.6327 11.904L7.5797 13.192L7.3727 11.191ZM11.4207 7.074H13.6517C13.6977 8.43867 13.8357 9.74967 14.0657 11.007C14.2957 12.249 14.5947 13.399 14.9627 14.457C15.346 15.515 15.7677 16.435 16.2277 17.217C16.703 17.999 17.2014 18.6123 17.7227 19.057C18.2594 19.4863 18.796 19.701 19.3327 19.701C19.6547 19.701 19.8847 19.471 20.0227 19.011C20.176 18.551 20.2757 17.769 20.3217 16.665C20.567 16.8797 20.8584 17.079 21.1957 17.263C21.533 17.447 21.8474 17.5927 22.1387 17.7C22.0314 18.804 21.855 19.655 21.6097 20.253C21.3797 20.8663 21.073 21.2803 20.6897 21.495C20.3064 21.725 19.8157 21.84 19.2177 21.84C18.3437 21.84 17.5234 21.5793 16.7567 21.058C16.0054 20.552 15.3154 19.8313 14.6867 18.896C14.0734 17.9607 13.529 16.8797 13.0537 15.653C12.5937 14.411 12.2257 13.0617 11.9497 11.605C11.6737 10.1483 11.4974 8.638 11.4207 7.074ZM5.9697 6.798L8.1317 7.557C7.64103 8.477 7.06603 9.42 6.4067 10.386C5.74736 11.3367 5.03436 12.249 4.2677 13.123C3.50103 13.9817 2.71903 14.7407 1.9217 15.4C1.8297 15.2313 1.7147 15.0397 1.5767 14.825C1.4387 14.595 1.29303 14.365 1.1397 14.135C1.0017 13.905 0.863695 13.7133 0.725695 13.56C1.43103 13.008 2.11336 12.3487 2.7727 11.582C3.44736 10.8153 4.0607 10.018 4.6127 9.19C5.18003 8.362 5.63236 7.56467 5.9697 6.798ZM15.2387 8.086L16.4577 6.798C16.887 6.982 17.3394 7.19667 17.8147 7.442C18.29 7.68733 18.75 7.93267 19.1947 8.178C19.6547 8.408 20.038 8.62267 20.3447 8.822L19.1027 10.271C18.796 10.0717 18.4204 9.84167 17.9757 9.581C17.531 9.305 17.0634 9.03667 16.5727 8.776C16.0974 8.51533 15.6527 8.28533 15.2387 8.086ZM4.2447 11.467L6.3607 9.351L6.3837 9.374V21.932H4.2447V11.467ZM4.0837 2.106H11.3057V3.808H4.0837V2.106ZM13.5597 2.106H22.0697V3.808H13.5597V2.106ZM4.3597 0.380999L6.2917 0.932999C5.98503 1.69967 5.61703 2.46633 5.1877 3.233C4.75836 3.99967 4.29836 4.72033 3.8077 5.395C3.33236 6.05433 2.8417 6.637 2.3357 7.143C2.2437 7.02033 2.1057 6.867 1.9217 6.683C1.7377 6.499 1.54603 6.315 1.3467 6.131C1.1627 5.947 1.0017 5.80133 0.863695 5.694C1.58436 5.03467 2.25136 4.23733 2.8647 3.302C3.47803 2.36667 3.97636 1.393 4.3597 0.380999ZM13.8587 0.403999L15.8367 0.886999C15.4687 2.02167 14.978 3.118 14.3647 4.176C13.7514 5.234 13.0997 6.11567 12.4097 6.821C12.287 6.69833 12.126 6.56033 11.9267 6.407C11.7274 6.23833 11.5204 6.07733 11.3057 5.924C11.091 5.75533 10.907 5.63267 10.7537 5.556C11.4284 4.92733 12.034 4.16067 12.5707 3.256C13.1074 2.336 13.5367 1.38533 13.8587 0.403999ZM5.6247 4.521L6.9587 3.417C7.3727 3.75433 7.81736 4.14533 8.2927 4.59C8.76803 5.03467 9.13603 5.42567 9.3967 5.763L7.9707 7.005C7.72536 6.66767 7.3727 6.269 6.9127 5.809C6.46803 5.33367 6.0387 4.90433 5.6247 4.521ZM15.6527 4.636L17.0557 3.486C17.4697 3.77733 17.9144 4.12233 18.3897 4.521C18.865 4.91967 19.233 5.27233 19.4937 5.579L18.0447 6.867C17.784 6.545 17.4237 6.177 16.9637 5.763C16.519 5.33367 16.082 4.958 15.6527 4.636ZM39.3657 1.876L40.8147 0.657C41.198 0.917666 41.589 1.209 41.9877 1.531C42.4017 1.853 42.7927 2.175 43.1607 2.497C43.5287 2.80367 43.82 3.08733 44.0347 3.348L42.5167 4.705C42.302 4.429 42.0184 4.12233 41.6657 3.785C41.3284 3.44767 40.9527 3.11033 40.5387 2.773C40.14 2.43567 39.749 2.13667 39.3657 1.876ZM24.2317 4.705H44.8397V6.844H24.2317V4.705ZM25.0597 9.926H35.1337V12.042H25.0597V9.926ZM28.9237 11.099H31.0857V19.126H28.9237V11.099ZM24.3007 19.103C25.2207 18.9343 26.3017 18.735 27.5437 18.505C28.801 18.2597 30.135 17.999 31.5457 17.723C32.9564 17.447 34.3594 17.171 35.7547 16.895L35.9157 18.827C34.643 19.1337 33.3474 19.4327 32.0287 19.724C30.71 20 29.445 20.2683 28.2337 20.529C27.0224 20.805 25.9184 21.0503 24.9217 21.265L24.3007 19.103ZM35.7777 0.679999H38.1237C38.093 2.704 38.139 4.659 38.2617 6.545C38.3844 8.41567 38.576 10.1483 38.8367 11.743C39.0974 13.3377 39.4117 14.733 39.7797 15.929C40.1477 17.1097 40.5617 18.0297 41.0217 18.689C41.4817 19.3483 41.9647 19.678 42.4707 19.678C42.762 19.678 42.9767 19.3407 43.1147 18.666C43.268 17.9913 43.3754 16.9103 43.4367 15.423C43.682 15.6683 43.9887 15.906 44.3567 16.136C44.7247 16.366 45.062 16.5423 45.3687 16.665C45.246 18.045 45.0697 19.1183 44.8397 19.885C44.6097 20.6517 44.2877 21.1883 43.8737 21.495C43.4597 21.8017 42.9307 21.955 42.2867 21.955C41.4894 21.955 40.7764 21.6867 40.1477 21.15C39.519 20.6133 38.967 19.8543 38.4917 18.873C38.0164 17.8917 37.6024 16.7417 37.2497 15.423C36.9124 14.089 36.6364 12.6323 36.4217 11.053C36.207 9.47367 36.046 7.81 35.9387 6.062C35.8467 4.29867 35.793 2.50467 35.7777 0.679999ZM48.0597 2.589H67.0577V4.383H48.0597V2.589ZM48.8417 19.494H66.3447V21.311H48.8417V19.494ZM52.7057 5.694H62.2737V7.258H52.7057V5.694ZM52.7057 8.615H62.2737V10.179H52.7057V8.615ZM46.9327 11.559H68.0927V13.376H46.9327V11.559ZM51.9237 15.699H63.1247V17.47H51.9237V15.699ZM51.4407 0.587999H53.6027V12.548H51.4407V0.587999ZM61.4917 0.610999H63.6997V12.571H61.4917V0.610999ZM56.3627 13.997H58.5707V20.529H56.3627V13.997ZM52.7287 12.065L54.5457 12.755C54.0857 13.5523 53.5107 14.319 52.8207 15.055C52.1307 15.7757 51.3794 16.4273 50.5667 17.01C49.7694 17.5927 48.949 18.0757 48.1057 18.459C48.0137 18.2903 47.8834 18.1063 47.7147 17.907C47.546 17.7077 47.3697 17.5083 47.1857 17.309C47.017 17.1097 46.856 16.941 46.7027 16.803C47.5 16.4963 48.2744 16.1053 49.0257 15.63C49.7924 15.1393 50.4977 14.5873 51.1417 13.974C51.7857 13.3453 52.3147 12.709 52.7287 12.065ZM62.3887 12.065C62.8027 12.6937 63.324 13.2993 63.9527 13.882C64.5814 14.4493 65.279 14.963 66.0457 15.423C66.8124 15.883 67.5867 16.2587 68.3687 16.55C68.2307 16.6727 68.062 16.8337 67.8627 17.033C67.6787 17.2323 67.5024 17.4393 67.3337 17.654C67.1804 17.8687 67.05 18.0603 66.9427 18.229C66.13 17.8763 65.325 17.4163 64.5277 16.849C63.7457 16.2663 63.025 15.6223 62.3657 14.917C61.7064 14.2117 61.1467 13.4833 60.6867 12.732L62.3887 12.065ZM70.0937 1.715H77.0397V3.693H70.0937V1.715ZM72.2787 8.845H76.7637V19.08H72.2787V17.148H75.2687V10.754H72.2787V8.845ZM72.7387 2.727L74.6247 3.118C74.364 4.55933 74.0267 5.97767 73.6127 7.373C73.214 8.753 72.7387 10.0487 72.1867 11.26C71.6347 12.4713 70.9907 13.5447 70.2547 14.48C70.224 14.296 70.155 14.0583 70.0477 13.767C69.9557 13.4757 69.8484 13.1843 69.7257 12.893C69.6184 12.5863 69.5187 12.341 69.4267 12.157C70.27 11.007 70.96 9.61167 71.4967 7.971C72.0334 6.315 72.4474 4.567 72.7387 2.727ZM71.4507 8.845H73.0377V20.874H71.4507V8.845ZM77.4077 2.888H83.8017V4.567H77.4077V2.888ZM77.3847 11.03H89.6437V12.801H77.3847V11.03ZM83.9627 15.193H90.3107V16.964H83.9627V15.193ZM80.0067 0.610999H81.7317V10.34H80.0067V0.610999ZM79.7307 3.877L80.9957 4.567C80.781 5.18033 80.4974 5.809 80.1447 6.453C79.8074 7.097 79.4317 7.70267 79.0177 8.27C78.6037 8.83733 78.182 9.33567 77.7527 9.765C77.6607 9.55033 77.515 9.29733 77.3157 9.006C77.1317 8.69933 76.9554 8.46167 76.7867 8.293C77.17 7.971 77.5457 7.57233 77.9137 7.097C78.297 6.62167 78.642 6.10033 78.9487 5.533C79.2707 4.96567 79.5314 4.41367 79.7307 3.877ZM81.6397 4.659C81.7624 4.751 81.931 4.912 82.1457 5.142C82.3757 5.372 82.6134 5.625 82.8587 5.901C83.1194 6.177 83.3494 6.43 83.5487 6.66C83.7634 6.89 83.9167 7.05867 84.0087 7.166L82.9277 8.454C82.7897 8.19333 82.575 7.86367 82.2837 7.465C82.0077 7.06633 81.724 6.67533 81.4327 6.292C81.1414 5.89333 80.9114 5.579 80.7427 5.349L81.6397 4.659ZM84.3077 2.888H91.0467V4.567H84.3077V2.888ZM86.5617 0.610999H88.3097V10.34H86.5617V0.610999ZM86.5387 3.854L87.7807 4.544C87.566 5.21867 87.2747 5.89333 86.9067 6.568C86.554 7.24267 86.163 7.879 85.7337 8.477C85.3044 9.05967 84.852 9.558 84.3767 9.972C84.2847 9.77267 84.1467 9.535 83.9627 9.259C83.7787 8.96767 83.6024 8.73767 83.4337 8.569C83.863 8.247 84.277 7.84067 84.6757 7.35C85.0744 6.844 85.4347 6.292 85.7567 5.694C86.094 5.08067 86.3547 4.46733 86.5387 3.854ZM88.9997 11.03H89.2987L89.6207 10.915L91.0237 11.375C90.8244 11.973 90.602 12.5863 90.3567 13.215C90.1114 13.8283 89.8737 14.3573 89.6437 14.802L88.0107 14.227C88.1794 13.8283 88.3557 13.3607 88.5397 12.824C88.7237 12.2873 88.877 11.766 88.9997 11.26V11.03ZM80.3287 15.653C80.6814 16.757 81.149 17.6003 81.7317 18.183C82.3144 18.7503 83.012 19.1337 83.8247 19.333C84.6527 19.517 85.5727 19.609 86.5847 19.609C86.7074 19.609 86.922 19.609 87.2287 19.609C87.5354 19.609 87.888 19.609 88.2867 19.609C88.6854 19.609 89.0917 19.609 89.5057 19.609C89.9197 19.609 90.2954 19.609 90.6327 19.609C90.97 19.5937 91.2307 19.586 91.4147 19.586C91.3227 19.724 91.2307 19.908 91.1387 20.138C91.062 20.368 90.993 20.598 90.9317 20.828C90.8704 21.058 90.8244 21.265 90.7937 21.449H89.7587H86.4697C85.1817 21.449 84.047 21.311 83.0657 21.035C82.0997 20.759 81.2717 20.2453 80.5817 19.494C79.8917 18.7273 79.3244 17.6157 78.8797 16.159L80.3287 15.653ZM83.0657 11.582H85.0667V20.713L83.0657 19.839V11.582ZM78.8567 13.675L80.6737 13.997C80.5664 15.0857 80.4054 16.1283 80.1907 17.125C79.976 18.1063 79.654 19.0187 79.2247 19.862C78.8107 20.69 78.2204 21.403 77.4537 22.001L75.9587 20.644C76.618 20.1533 77.1394 19.5553 77.5227 18.85C77.906 18.1447 78.205 17.355 78.4197 16.481C78.6344 15.5917 78.78 14.6563 78.8567 13.675ZM88.3557 4.199C88.4937 4.337 88.7084 4.58233 88.9997 4.935C89.291 5.27233 89.6054 5.64033 89.9427 6.039C90.28 6.43767 90.579 6.81333 90.8397 7.166C91.1157 7.51867 91.315 7.77167 91.4377 7.925L90.1957 9.397C90.0577 9.121 89.866 8.78367 89.6207 8.385C89.3907 7.971 89.1377 7.54167 88.8617 7.097C88.601 6.65233 88.3404 6.23833 88.0797 5.855C87.819 5.47167 87.6044 5.165 87.4357 4.935L88.3557 4.199ZM44.9741 42.401V37.433H40.3281V35.501H44.9741V30.51H47.0211V35.501H51.6901V37.433H47.0211V42.401H44.9741ZM7.968 66.159H25.034V67.861H7.968V66.159ZM9.739 62.433H21.032V63.951H9.739V62.433ZM11.901 58.638V59.926H20.48V58.638H11.901ZM11.901 56.085V57.327H20.48V56.085H11.901ZM9.831 54.682H22.642V61.329H9.831V54.682ZM15.328 65.147H17.421V69.724C17.421 70.23 17.3443 70.621 17.191 70.897C17.0377 71.173 16.754 71.38 16.34 71.518C15.9107 71.6407 15.374 71.7173 14.73 71.748C14.086 71.7787 13.2963 71.7863 12.361 71.771C12.2997 71.5103 12.2 71.2113 12.062 70.874C11.924 70.552 11.7783 70.2607 11.625 70C12.085 70.0153 12.5373 70.0307 12.982 70.046C13.4267 70.0613 13.81 70.0613 14.132 70.046C14.4693 70.046 14.6993 70.046 14.822 70.046C15.006 70.0307 15.1363 70 15.213 69.954C15.2897 69.908 15.328 69.8083 15.328 69.655V65.147ZM20.687 62.433H21.239L21.699 62.318L22.987 63.491C22.3737 63.859 21.6913 64.2193 20.94 64.572C20.204 64.9247 19.445 65.2467 18.663 65.538C17.881 65.8293 17.099 66.09 16.317 66.32C16.2097 66.1513 16.0487 65.952 15.834 65.722C15.6347 65.4767 15.466 65.285 15.328 65.147C15.972 64.963 16.6313 64.7407 17.306 64.48C17.996 64.2193 18.64 63.9433 19.238 63.652C19.836 63.3453 20.319 63.0693 20.687 62.824V62.433ZM7.094 51.669H24.781V53.647H7.094V51.669ZM5.829 51.669H7.968V58.569C7.968 59.535 7.93733 60.593 7.876 61.743C7.83 62.893 7.72267 64.0737 7.554 65.285C7.38533 66.4963 7.14 67.6693 6.818 68.804C6.496 69.9387 6.07433 70.9737 5.553 71.909C5.415 71.7863 5.231 71.656 5.001 71.518C4.771 71.38 4.53333 71.242 4.288 71.104C4.04267 70.9813 3.828 70.8893 3.644 70.828C4.15 69.9387 4.54867 68.9727 4.84 67.93C5.13133 66.8873 5.346 65.8217 5.484 64.733C5.63733 63.629 5.72933 62.5557 5.76 61.513C5.806 60.455 5.829 59.4737 5.829 58.569V51.669ZM27.794 52.52H47.252V56.361H45.205V54.245H29.772V56.361H27.794V52.52ZM36.718 55.74H38.558C38.4967 56.4607 38.42 57.235 38.328 58.063C38.2513 58.8757 38.167 59.5657 38.075 60.133H36.235C36.3423 59.535 36.4343 58.8297 36.511 58.017C36.603 57.2043 36.672 56.4453 36.718 55.74ZM32.256 64.618V65.538H42.813V64.618H32.256ZM32.256 66.665V67.585H42.813V66.665H32.256ZM32.256 62.617V63.491H42.813V62.617H32.256ZM30.14 61.421H45.021V68.781H30.14V61.421ZM38.742 69.77L39.892 68.528C40.7813 68.7427 41.6783 68.9803 42.583 69.241C43.4877 69.4863 44.3387 69.7317 45.136 69.977C45.9487 70.2223 46.6617 70.4523 47.275 70.667L45.803 72.024C45.251 71.8093 44.5917 71.5717 43.825 71.311C43.0737 71.0657 42.261 70.805 41.387 70.529C40.5283 70.2683 39.6467 70.0153 38.742 69.77ZM32.992 56.384L32.601 59.397H41.939L42.169 56.384H32.992ZM31.198 55.188H44.308L43.825 60.593H30.485L31.198 55.188ZM34.602 68.528L36.327 69.724C35.683 70.0613 34.924 70.3757 34.05 70.667C33.1913 70.9737 32.2867 71.242 31.336 71.472C30.4007 71.702 29.496 71.886 28.622 72.024C28.484 71.8247 28.3 71.5717 28.07 71.265C27.8553 70.9737 27.6483 70.7283 27.449 70.529C28.3077 70.4063 29.1893 70.2377 30.094 70.023C30.9987 69.8237 31.8497 69.5937 32.647 69.333C33.4597 69.057 34.1113 68.7887 34.602 68.528ZM27.058 57.051H32.164V57.258H42.721V57.051H48.011V58.661H42.721V58.454H32.164V58.661H27.058V57.051ZM35.614 50.956L37.523 50.404C37.799 50.7873 38.0673 51.232 38.328 51.738C38.604 52.2287 38.8033 52.6503 38.926 53.003L36.925 53.624C36.833 53.2713 36.6567 52.842 36.396 52.336C36.1507 51.83 35.89 51.37 35.614 50.956ZM50.38 57.005H70.712V59.259H50.38V57.005ZM61.834 57.902C62.3247 59.7113 62.984 61.398 63.812 62.962C64.6553 64.526 65.6827 65.8983 66.894 67.079C68.1207 68.2443 69.539 69.1643 71.149 69.839C70.965 69.9923 70.7657 70.1917 70.551 70.437C70.3517 70.6823 70.16 70.9277 69.976 71.173C69.792 71.4337 69.6387 71.6637 69.516 71.863C67.814 71.0657 66.3267 70.0153 65.054 68.712C63.7967 67.3933 62.731 65.8677 61.857 64.135C60.983 62.4023 60.247 60.501 59.649 58.431L61.834 57.902ZM59.304 50.588H61.673C61.673 51.6767 61.6423 52.8497 61.581 54.107C61.535 55.349 61.42 56.6293 61.236 57.948C61.052 59.2667 60.753 60.5853 60.339 61.904C59.925 63.2227 59.35 64.4953 58.614 65.722C57.878 66.9487 56.935 68.091 55.785 69.149C54.635 70.1917 53.232 71.104 51.576 71.886C51.392 71.5947 51.1467 71.2727 50.84 70.92C50.5333 70.5827 50.2267 70.299 49.92 70.069C51.5147 69.3483 52.8563 68.5127 53.945 67.562C55.049 66.596 55.9383 65.5533 56.613 64.434C57.303 63.2993 57.832 62.1263 58.2 60.915C58.568 59.7037 58.8287 58.4923 58.982 57.281C59.1353 56.0697 59.2273 54.8967 59.258 53.762C59.2887 52.6273 59.304 51.5693 59.304 50.588ZM80.119 61.582H93.39V63.491H80.119V61.582ZM90.975 55.74L92.585 57.35C91.4043 57.5953 90.078 57.81 88.606 57.994C87.1493 58.1627 85.6467 58.3007 84.098 58.408C82.5493 58.5 81.0543 58.569 79.613 58.615C79.5823 58.385 79.5133 58.1013 79.406 57.764C79.2987 57.4267 79.1913 57.143 79.084 56.913C80.1267 56.8823 81.2 56.8363 82.304 56.775C83.408 56.6983 84.489 56.614 85.547 56.522C86.6203 56.4147 87.617 56.2997 88.537 56.177C89.4723 56.039 90.285 55.8933 90.975 55.74ZM85.57 57.166H87.709C87.7397 58.8373 87.87 60.4243 88.1 61.927C88.3453 63.4297 88.652 64.756 89.02 65.906C89.388 67.0407 89.7943 67.93 90.239 68.574C90.699 69.218 91.1513 69.54 91.596 69.54C91.8413 69.54 92.0177 69.287 92.125 68.781C92.2477 68.275 92.3243 67.4853 92.355 66.412C92.585 66.6267 92.861 66.826 93.183 67.01C93.5203 67.194 93.8193 67.332 94.08 67.424C94.0033 68.528 93.8577 69.3867 93.643 70C93.4437 70.598 93.1677 71.012 92.815 71.242C92.4623 71.4873 92.01 71.61 91.458 71.61C90.768 71.61 90.124 71.357 89.526 70.851C88.9433 70.3603 88.4143 69.6627 87.939 68.758C87.479 67.8533 87.0803 66.7953 86.743 65.584C86.4057 64.3727 86.1373 63.054 85.938 61.628C85.7387 60.1867 85.616 58.6993 85.57 57.166ZM75.749 52.842H93.988V54.797H75.749V52.842ZM74.668 52.842H76.807V59.397C76.807 60.317 76.7763 61.3213 76.715 62.41C76.669 63.4987 76.5617 64.618 76.393 65.768C76.2243 66.9027 75.979 68.0067 75.657 69.08C75.3503 70.1533 74.944 71.1347 74.438 72.024C74.3153 71.886 74.139 71.7327 73.909 71.564C73.679 71.4107 73.449 71.2573 73.219 71.104C72.989 70.966 72.7897 70.8587 72.621 70.782C73.0963 69.9693 73.472 69.08 73.748 68.114C74.024 67.148 74.2233 66.159 74.346 65.147C74.484 64.1197 74.5683 63.1153 74.599 62.134C74.645 61.1527 74.668 60.2403 74.668 59.397V52.842ZM82.695 51.025L84.88 50.496C85.1713 50.9407 85.4473 51.4467 85.708 52.014C85.9687 52.566 86.1527 53.049 86.26 53.463L83.983 54.107C83.891 53.6777 83.7223 53.1793 83.477 52.612C83.247 52.0293 82.9863 51.5003 82.695 51.025ZM82.097 69.494H88.054V71.219H82.097V69.494ZM79.107 69.632L78.946 67.884L79.866 67.171L85.317 65.952C85.3017 66.228 85.294 66.55 85.294 66.918C85.3093 67.2707 85.3247 67.562 85.34 67.792C84.098 68.0987 83.0937 68.3593 82.327 68.574C81.5603 68.7733 80.9623 68.942 80.533 69.08C80.119 69.2027 79.8047 69.31 79.59 69.402C79.3907 69.494 79.2297 69.5707 79.107 69.632ZM79.107 69.632C79.0763 69.4633 79.015 69.2717 78.923 69.057C78.831 68.827 78.7313 68.6047 78.624 68.39C78.5167 68.16 78.4093 67.976 78.302 67.838C78.486 67.746 78.6623 67.5927 78.831 67.378C78.9997 67.1633 79.084 66.8413 79.084 66.412V56.936L81.131 57.465V67.953C81.131 67.953 81.0313 68.0067 80.832 68.114C80.6327 68.2213 80.395 68.3593 80.119 68.528C79.8583 68.6967 79.6207 68.8807 79.406 69.08C79.2067 69.264 79.107 69.448 79.107 69.632Z" fill="white"/>
</svg>
