<svg width="115" height="58" viewBox="0 0 115 58" fill="none" xmlns="http://www.w3.org/2000/svg">
<path d="M35.9233 20.322C34.758 20.322 33.654 20.0997 32.6113 19.655C31.584 19.2103 30.6793 18.597 29.8973 17.815L31.4613 15.975C32.0746 16.573 32.7723 17.056 33.5543 17.424C34.3516 17.792 35.1643 17.976 35.9923 17.976C37.0043 17.976 37.7786 17.7537 38.3153 17.309C38.8673 16.8643 39.1433 16.2893 39.1433 15.584C39.1433 15.0627 39.0283 14.6487 38.7983 14.342C38.5683 14.02 38.2463 13.7517 37.8323 13.537C37.4336 13.3223 36.9736 13.1 36.4523 12.87L34.1063 11.858C33.5543 11.628 33.01 11.329 32.4733 10.961C31.952 10.5777 31.515 10.1023 31.1623 9.535C30.825 8.95233 30.6563 8.247 30.6563 7.419C30.6563 6.52967 30.894 5.73233 31.3693 5.027C31.8446 4.32167 32.504 3.76967 33.3473 3.371C34.1906 2.957 35.149 2.75 36.2223 2.75C37.219 2.75 38.162 2.94167 39.0513 3.325C39.9406 3.70833 40.6996 4.22967 41.3283 4.889L39.9713 6.591C39.4346 6.11567 38.8596 5.74767 38.2463 5.487C37.6483 5.211 36.9736 5.073 36.2223 5.073C35.3483 5.073 34.6583 5.27233 34.1523 5.671C33.6463 6.05433 33.3933 6.57567 33.3933 7.235C33.3933 7.72567 33.5236 8.132 33.7843 8.454C34.045 8.76067 34.3823 9.02133 34.7963 9.236C35.2256 9.43533 35.6626 9.627 36.1073 9.811L38.4303 10.8C39.105 11.076 39.703 11.4133 40.2243 11.812C40.7456 12.2107 41.152 12.6937 41.4433 13.261C41.7346 13.8283 41.8803 14.5337 41.8803 15.377C41.8803 16.2817 41.6426 17.1097 41.1673 17.861C40.692 18.597 40.0096 19.195 39.1203 19.655C38.231 20.0997 37.1653 20.322 35.9233 20.322ZM42.8555 20L48.4675 3.049H51.5495L57.1615 20H54.3325L51.5955 10.8C51.3195 9.88 51.0511 8.95233 50.7905 8.017C50.5298 7.06633 50.2691 6.11567 50.0085 5.165H49.9165C49.6711 6.131 49.4105 7.08167 49.1345 8.017C48.8738 8.95233 48.6055 9.88 48.3295 10.8L45.5925 20H42.8555ZM46.0295 15.193V13.077H53.9415V15.193H46.0295ZM64.1781 9.811L65.6961 9.282C65.9568 9.77267 66.1944 10.3017 66.4091 10.869C66.6391 11.4363 66.8384 11.9883 67.0071 12.525C67.1911 13.0463 67.3138 13.514 67.3751 13.928L65.7421 14.572C65.6808 14.158 65.5658 13.6827 65.3971 13.146C65.2438 12.594 65.0598 12.0267 64.8451 11.444C64.6304 10.8613 64.4081 10.317 64.1781 9.811ZM61.7631 15.768L63.3041 15.423C63.4421 16.159 63.5724 16.9563 63.6951 17.815C63.8178 18.6737 63.8944 19.4173 63.9251 20.046L62.2921 20.437C62.2614 19.8083 62.1924 19.057 62.0851 18.183C61.9931 17.309 61.8858 16.504 61.7631 15.768ZM59.2101 15.561L60.9351 15.837C60.8278 16.849 60.6744 17.861 60.4751 18.873C60.2911 19.885 60.0764 20.7437 59.8311 21.449C59.6471 21.357 59.3788 21.2497 59.0261 21.127C58.6888 21.0043 58.4051 20.9123 58.1751 20.851C58.4358 20.161 58.6428 19.3407 58.7961 18.39C58.9648 17.4393 59.1028 16.4963 59.2101 15.561ZM58.8651 9.42C58.8344 9.26667 58.7731 9.075 58.6811 8.845C58.6044 8.59967 58.5201 8.35433 58.4281 8.109C58.3514 7.84833 58.2671 7.626 58.1751 7.442C58.4051 7.38067 58.6198 7.25033 58.8191 7.051C59.0338 6.83633 59.2561 6.55267 59.4861 6.2C59.6088 6.03133 59.7851 5.75533 60.0151 5.372C60.2451 4.98867 60.4981 4.53633 60.7741 4.015C61.0654 3.47833 61.3491 2.911 61.6251 2.313C61.9164 1.715 62.1694 1.10933 62.3841 0.495999L64.4081 1.324C64.0401 2.16733 63.6184 3.01067 63.1431 3.854C62.6831 4.682 62.2001 5.47933 61.6941 6.246C61.1881 7.01267 60.6744 7.70267 60.1531 8.316V8.339C60.1531 8.339 60.0841 8.37733 59.9461 8.454C59.8234 8.53067 59.6778 8.62267 59.5091 8.73C59.3404 8.83733 59.1871 8.95233 59.0491 9.075C58.9264 9.19767 58.8651 9.31267 58.8651 9.42ZM58.8651 9.397L58.8191 7.856L59.7621 7.258L63.7641 6.936C63.7181 7.19667 63.6721 7.49567 63.6261 7.833C63.5954 8.17033 63.5724 8.454 63.5571 8.684C62.6678 8.776 61.9394 8.86033 61.3721 8.937C60.8048 8.99833 60.3524 9.05967 60.0151 9.121C59.6931 9.167 59.4478 9.213 59.2791 9.259C59.1104 9.305 58.9724 9.351 58.8651 9.397ZM59.0261 14.641C58.9954 14.503 58.9341 14.319 58.8421 14.089C58.7654 13.8437 58.6811 13.5907 58.5891 13.33C58.5124 13.0693 58.4281 12.847 58.3361 12.663C58.6121 12.617 58.8881 12.4637 59.1641 12.203C59.4554 11.927 59.7774 11.5743 60.1301 11.145C60.3294 10.9303 60.6131 10.5853 60.9811 10.11C61.3644 9.61933 61.7784 9.04433 62.2231 8.385C62.6831 7.71033 63.1431 6.98967 63.6031 6.223C64.0631 5.45633 64.4771 4.682 64.8451 3.9L66.6851 5.027C66.1024 6.06967 65.4661 7.10467 64.7761 8.132C64.0861 9.144 63.3654 10.11 62.6141 11.03C61.8628 11.95 61.1038 12.7933 60.3371 13.56V13.606C60.3371 13.606 60.2681 13.6443 60.1301 13.721C60.0074 13.7823 59.8541 13.8667 59.6701 13.974C59.5014 14.0813 59.3481 14.1963 59.2101 14.319C59.0874 14.4417 59.0261 14.549 59.0261 14.641ZM59.0261 14.641L58.9341 13.054L59.8771 12.41L65.9951 11.536C65.9491 11.7967 65.9184 12.0957 65.9031 12.433C65.9031 12.7703 65.9108 13.0463 65.9261 13.261C64.5308 13.491 63.4038 13.6827 62.5451 13.836C61.7018 13.974 61.0424 14.0967 60.5671 14.204C60.1071 14.296 59.7698 14.3803 59.5551 14.457C59.3404 14.5183 59.1641 14.5797 59.0261 14.641ZM64.2471 15.331L65.7421 14.848C65.9721 15.4307 66.1944 16.067 66.4091 16.757C66.6391 17.447 66.8078 18.045 66.9151 18.551L65.3281 19.103C65.2514 18.597 65.1058 17.9913 64.8911 17.286C64.6764 16.5807 64.4618 15.929 64.2471 15.331ZM66.9611 1.623H75.2871V3.67H66.9611V1.623ZM74.7581 1.623H74.9881L75.3331 1.531L76.8281 1.738C76.7361 2.45867 76.6211 3.233 76.4831 4.061C76.3604 4.889 76.2301 5.717 76.0921 6.545C75.9541 7.373 75.8084 8.14733 75.6551 8.868L73.6311 8.661C73.7844 7.925 73.9301 7.13533 74.0681 6.292C74.2214 5.43333 74.3594 4.613 74.4821 3.831C74.6048 3.049 74.6968 2.39733 74.7581 1.876V1.623ZM69.9741 8.178H77.2651V10.11H69.6291L69.9741 8.178ZM76.6671 8.178H77.0581L77.4261 8.086L78.8061 8.569C78.4228 10.777 77.8401 12.7397 77.0581 14.457C76.2761 16.159 75.3331 17.6387 74.2291 18.896C73.1251 20.138 71.8984 21.1577 70.5491 21.955C70.3958 21.6943 70.1888 21.403 69.9281 21.081C69.6674 20.759 69.4144 20.506 69.1691 20.322C70.3804 19.6627 71.4921 18.7657 72.5041 17.631C73.5161 16.4963 74.3824 15.1623 75.1031 13.629C75.8238 12.0957 76.3451 10.4167 76.6671 8.592V8.178ZM69.0771 2.428H71.2161C71.1854 4.55933 71.1164 6.56033 71.0091 8.431C70.9171 10.3017 70.7484 12.0497 70.5031 13.675C70.2578 15.285 69.8974 16.7723 69.4221 18.137C68.9621 19.4863 68.3564 20.713 67.6051 21.817C67.4824 21.6943 67.3061 21.541 67.0761 21.357C66.8461 21.1883 66.6008 21.012 66.3401 20.828C66.0948 20.6593 65.8878 20.529 65.7191 20.437C66.7158 19.149 67.4518 17.608 67.9271 15.814C68.4024 14.0047 68.7091 11.973 68.8471 9.719C69.0004 7.465 69.0771 5.03467 69.0771 2.428ZM72.0441 9.443C72.4121 11.0223 72.9258 12.5097 73.5851 13.905C74.2444 15.3003 75.0571 16.527 76.0231 17.585C76.9891 18.6277 78.1314 19.4327 79.4501 20C79.2814 20.138 79.1051 20.3143 78.9211 20.529C78.7371 20.7437 78.5608 20.966 78.3921 21.196C78.2234 21.426 78.0854 21.633 77.9781 21.817C76.6134 21.1117 75.4328 20.1687 74.4361 18.988C73.4394 17.8073 72.6038 16.4427 71.9291 14.894C71.2544 13.3453 70.7024 11.651 70.2731 9.811L72.0441 9.443ZM14.927 43.73H16.192V51.895H14.927V43.73ZM12.558 45.961H13.754V52.631H12.558V45.961ZM17.388 45.961H18.584V52.631H17.388V45.961ZM17.02 38.785L18.63 39.199C18.492 39.7203 18.3387 40.257 18.17 40.809C18.0167 41.361 17.8557 41.89 17.687 42.396C17.5337 42.902 17.388 43.3543 17.25 43.753L15.962 43.362C16.1 42.948 16.238 42.4803 16.376 41.959C16.514 41.4223 16.6367 40.878 16.744 40.326C16.8667 39.7587 16.9587 39.245 17.02 38.785ZM12.535 39.245L13.823 38.9C14.099 39.452 14.3367 40.05 14.536 40.694C14.7507 41.3227 14.881 41.8593 14.927 42.304L13.593 42.741C13.5317 42.281 13.4013 41.7213 13.202 41.062C13.0027 40.4027 12.7803 39.797 12.535 39.245ZM9.591 36.485H20.585V38.417H11.408V56.932H9.591V36.485ZM19.688 36.485H21.528V54.563C21.528 55.115 21.459 55.5443 21.321 55.851C21.183 56.173 20.9453 56.4107 20.608 56.564C20.2707 56.7327 19.8183 56.8323 19.251 56.863C18.6837 56.909 17.963 56.932 17.089 56.932C17.0583 56.6867 16.9817 56.3723 16.859 55.989C16.7363 55.6057 16.606 55.2837 16.468 55.023C17.0813 55.0383 17.6487 55.046 18.17 55.046C18.7067 55.046 19.0593 55.046 19.228 55.046C19.3967 55.0307 19.5117 54.9923 19.573 54.931C19.6497 54.8543 19.688 54.724 19.688 54.54V36.485ZM12.144 43.04H19.021V44.673H12.144V43.04ZM13.11 50.975H17.917V52.631H13.11V50.975ZM2.162 41.292H8.05V43.063H2.162V41.292ZM1.173 45.248H8.786V47.088H1.173V45.248ZM1.357 48.537L2.737 48.215C2.95167 48.8743 3.13567 49.595 3.289 50.377C3.45767 51.159 3.55733 51.8337 3.588 52.401L2.139 52.792C2.12367 52.2093 2.03933 51.527 1.886 50.745C1.73267 49.9477 1.55633 49.2117 1.357 48.537ZM0.989 54.379C2.01633 54.2103 3.243 53.9957 4.669 53.735C6.11033 53.459 7.567 53.183 9.039 52.907L9.177 54.701C7.82767 55.0077 6.47833 55.299 5.129 55.575C3.77967 55.851 2.553 56.104 1.449 56.334L0.989 54.379ZM7.107 47.985L8.648 48.353C8.47933 49.043 8.31067 49.756 8.142 50.492C7.97333 51.228 7.81233 51.849 7.659 52.355L6.325 51.987C6.417 51.6343 6.509 51.2203 6.601 50.745C6.70833 50.2697 6.808 49.7867 6.9 49.296C6.992 48.8053 7.061 48.3683 7.107 47.985ZM4.071 42.074H5.888V54.218L4.071 54.494V42.074ZM4.646 35.496L6.187 36.209C5.819 37.0217 5.37433 37.8267 4.853 38.624C4.33167 39.4213 3.772 40.165 3.174 40.855C2.576 41.5297 1.978 42.1277 1.38 42.649C1.334 42.4957 1.25733 42.2887 1.15 42.028C1.058 41.7673 0.950667 41.5067 0.828 41.246C0.705333 40.9853 0.598 40.7707 0.506 40.602C1.30333 40.004 2.07 39.2603 2.806 38.371C3.55733 37.4663 4.17067 36.508 4.646 35.496ZM3.841 37.957L4.738 36.439C5.35133 36.7763 5.957 37.1673 6.555 37.612C7.16833 38.0413 7.73567 38.4783 8.257 38.923C8.79367 39.3523 9.23833 39.7663 9.591 40.165L8.579 41.844C8.211 41.4147 7.76633 40.97 7.245 40.51C6.739 40.05 6.19467 39.6053 5.612 39.176C5.02933 38.7313 4.439 38.325 3.841 37.957ZM26.887 42.649H32.453V44.443H26.887V42.649ZM34.224 44.305H43.217V46.26H34.224V44.305ZM31.395 42.649H33.465V54.609C33.465 55.1303 33.4037 55.5443 33.281 55.851C33.1583 56.1577 32.9283 56.3953 32.591 56.564C32.2537 56.7327 31.832 56.8323 31.326 56.863C30.82 56.8937 30.199 56.909 29.463 56.909C29.4323 56.633 29.3557 56.3033 29.233 55.92C29.1257 55.552 29.003 55.2223 28.865 54.931C29.3403 54.9463 29.785 54.9617 30.199 54.977C30.613 54.977 30.889 54.9693 31.027 54.954C31.2723 54.954 31.395 54.8313 31.395 54.586V42.649ZM42.32 44.305H44.413C44.413 44.305 44.413 44.3663 44.413 44.489C44.413 44.5963 44.413 44.7267 44.413 44.88C44.413 45.018 44.4053 45.133 44.39 45.225C44.344 47.0343 44.2903 48.5753 44.229 49.848C44.1677 51.1053 44.0987 52.1403 44.022 52.953C43.9453 53.7657 43.8457 54.4097 43.723 54.885C43.6157 55.345 43.4853 55.6823 43.332 55.897C43.1173 56.1883 42.8873 56.3953 42.642 56.518C42.412 56.6407 42.1283 56.725 41.791 56.771C41.4843 56.8017 41.0933 56.817 40.618 56.817C40.1427 56.8323 39.6443 56.8323 39.123 56.817C39.1077 56.495 39.0463 56.1347 38.939 55.736C38.8317 55.3527 38.6937 55.023 38.525 54.747C39.0003 54.793 39.4373 54.8237 39.836 54.839C40.25 54.839 40.549 54.839 40.733 54.839C40.917 54.839 41.0627 54.8237 41.17 54.793C41.2773 54.747 41.3847 54.6627 41.492 54.54C41.63 54.356 41.7527 53.9267 41.86 53.252C41.9673 52.5773 42.0517 51.5577 42.113 50.193C42.1897 48.813 42.2587 46.9807 42.32 44.696V44.305ZM25.944 42.649H27.991V47.686C27.991 48.3913 27.9603 49.158 27.899 49.986C27.853 50.814 27.7457 51.6497 27.577 52.493C27.4237 53.321 27.1937 54.126 26.887 54.908C26.5957 55.6747 26.2123 56.3877 25.737 57.047C25.6143 56.909 25.4457 56.7633 25.231 56.61C25.0163 56.472 24.794 56.3263 24.564 56.173C24.334 56.035 24.1347 55.9353 23.966 55.874C24.564 55.0767 25.001 54.2027 25.277 53.252C25.5683 52.3013 25.7523 51.343 25.829 50.377C25.9057 49.3957 25.944 48.491 25.944 47.663V42.649ZM27.002 37.382H34.224V39.222H27.002V37.382ZM36.616 37.382H45.034V39.199H36.616V37.382ZM27.278 35.473L29.348 36.002C29.0413 36.7993 28.6733 37.589 28.244 38.371C27.83 39.153 27.3853 39.889 26.91 40.579C26.4347 41.269 25.9517 41.867 25.461 42.373C25.323 42.2657 25.139 42.1353 24.909 41.982C24.6943 41.8287 24.4643 41.683 24.219 41.545C23.989 41.407 23.7897 41.292 23.621 41.2C24.3723 40.4947 25.07 39.636 25.714 38.624C26.358 37.5967 26.8793 36.5463 27.278 35.473ZM36.961 35.45L39.1 35.979C38.6247 37.2057 38.019 38.371 37.283 39.475C36.5623 40.579 35.7957 41.499 34.983 42.235C34.845 42.1123 34.661 41.9743 34.431 41.821C34.2163 41.6677 33.994 41.5143 33.764 41.361C33.534 41.2077 33.327 41.085 33.143 40.993C33.9557 40.3337 34.6993 39.5133 35.374 38.532C36.064 37.5507 36.593 36.5233 36.961 35.45ZM28.911 40.027L30.705 39.406C30.9657 39.7433 31.2263 40.1343 31.487 40.579C31.7477 41.0237 31.9393 41.407 32.062 41.729L30.176 42.442C30.0687 42.1353 29.8923 41.752 29.647 41.292C29.4017 40.832 29.1563 40.4103 28.911 40.027ZM39.376 39.889L41.193 39.245C41.515 39.6283 41.837 40.073 42.159 40.579C42.4963 41.085 42.734 41.522 42.872 41.89L40.986 42.626C40.848 42.2427 40.6257 41.798 40.319 41.292C40.0123 40.7707 39.698 40.303 39.376 39.889ZM37.145 41.913H39.169V46.122C39.169 46.996 39.1153 47.9007 39.008 48.836C38.916 49.7713 38.7243 50.7143 38.433 51.665C38.1417 52.6003 37.7047 53.5203 37.122 54.425C36.5547 55.3143 35.8033 56.1577 34.868 56.955C34.684 56.725 34.4463 56.4873 34.155 56.242C33.8637 55.9967 33.5877 55.782 33.327 55.598C34.1857 54.862 34.868 54.0953 35.374 53.298C35.88 52.4853 36.2557 51.665 36.501 50.837C36.7617 49.9937 36.9303 49.1733 37.007 48.376C37.099 47.5787 37.145 46.812 37.145 46.076V41.913ZM27.393 50.906C27.991 50.7373 28.6887 50.515 29.486 50.239C30.2833 49.9477 31.119 49.6487 31.993 49.342L32.246 50.745C31.5253 51.0977 30.82 51.4503 30.13 51.803C29.4553 52.1557 28.8037 52.4853 28.175 52.792L27.393 50.906ZM27.853 46.743L29.072 45.639C29.532 45.961 29.992 46.306 30.452 46.674C30.912 47.042 31.2723 47.3717 31.533 47.663L30.291 48.951C30.015 48.6443 29.6393 48.284 29.164 47.87C28.704 47.4407 28.267 47.065 27.853 46.743ZM54.464 36.715H67.781V38.187H54.464V36.715ZM55.384 39.199H66.93V40.602H55.384V39.199ZM60.168 35.588H62.307V40.004H60.168V35.588ZM56.396 42.787V44.466H65.757V42.787H56.396ZM54.602 41.407H67.666V45.869H54.602V41.407ZM57.293 49.71V50.584H64.883V49.71H57.293ZM57.293 51.481V52.378H64.883V51.481H57.293ZM57.293 47.939V48.79H64.883V47.939H57.293ZM55.361 46.72H66.884V53.574H55.361V46.72ZM62.261 54.793L63.043 53.39C63.9477 53.6967 64.86 54.034 65.78 54.402C66.7 54.77 67.4743 55.092 68.103 55.368L67.206 56.909C66.5927 56.6023 65.8337 56.2497 64.929 55.851C64.0397 55.4677 63.1503 55.115 62.261 54.793ZM59.064 53.413L60.513 54.77C59.6237 55.184 58.6577 55.5903 57.615 55.989C56.5877 56.3877 55.6677 56.7403 54.855 57.047C54.763 56.8323 54.6403 56.5793 54.487 56.288C54.3337 55.9967 54.1803 55.7437 54.027 55.529C54.5483 55.345 55.1157 55.138 55.729 54.908C56.3423 54.6627 56.948 54.4097 57.546 54.149C58.144 53.873 58.65 53.6277 59.064 53.413ZM58.581 41.89H60.214V45.363H58.581V41.89ZM62.238 41.89H63.894V45.34H62.238V41.89ZM52.049 44.903L53.544 44.512C53.728 45.0487 53.9043 45.616 54.073 46.214C54.2417 46.812 54.395 47.387 54.533 47.939C54.671 48.491 54.763 48.974 54.809 49.388L53.222 49.871C53.1607 49.4417 53.0687 48.9433 52.946 48.376C52.8387 47.8087 52.7007 47.2183 52.532 46.605C52.3787 45.9917 52.2177 45.4243 52.049 44.903ZM50.071 50.745L51.566 50.492C51.704 51.3353 51.8267 52.2553 51.934 53.252C52.0413 54.2333 52.1103 55.0843 52.141 55.805L50.554 56.104C50.554 55.6133 50.531 55.0613 50.485 54.448C50.439 53.8347 50.3777 53.206 50.301 52.562C50.2243 51.918 50.1477 51.3123 50.071 50.745ZM47.771 50.561L49.473 50.837C49.3657 51.895 49.2123 52.9683 49.013 54.057C48.8137 55.1457 48.5913 56.058 48.346 56.794C48.162 56.702 47.8937 56.5947 47.541 56.472C47.2037 56.3647 46.92 56.2803 46.69 56.219C46.9813 55.483 47.2113 54.609 47.38 53.597C47.5487 52.5697 47.679 51.5577 47.771 50.561ZM47.357 44.42C47.3263 44.2973 47.2727 44.1287 47.196 43.914C47.1193 43.684 47.0427 43.454 46.966 43.224C46.8893 42.994 46.8127 42.8023 46.736 42.649C46.9353 42.5877 47.1347 42.4497 47.334 42.235C47.5333 42.005 47.7327 41.7137 47.932 41.361C48.1007 41.1463 48.3383 40.74 48.645 40.142C48.967 39.5287 49.3043 38.8233 49.657 38.026C50.025 37.2133 50.347 36.3853 50.623 35.542L52.44 36.278C52.0873 37.1367 51.6963 37.9953 51.267 38.854C50.853 39.6973 50.4083 40.51 49.933 41.292C49.473 42.0587 49.013 42.7563 48.553 43.385V43.431C48.553 43.431 48.4917 43.4617 48.369 43.523C48.2617 43.5843 48.1237 43.6687 47.955 43.776C47.7863 43.8833 47.6407 43.9983 47.518 44.121C47.4107 44.2283 47.357 44.328 47.357 44.42ZM47.357 44.42L47.311 42.902L48.254 42.327L52.187 42.005C52.141 42.2657 52.1027 42.5647 52.072 42.902C52.0413 43.224 52.0183 43.4923 52.003 43.707C50.8223 43.8297 49.9177 43.937 49.289 44.029C48.6757 44.1057 48.231 44.1747 47.955 44.236C47.6943 44.2973 47.495 44.3587 47.357 44.42ZM47.518 49.687C47.4873 49.549 47.4337 49.3727 47.357 49.158C47.2803 48.928 47.2037 48.698 47.127 48.468C47.0503 48.2227 46.9737 48.0233 46.897 47.87C47.1423 47.8087 47.3953 47.64 47.656 47.364C47.9167 47.088 48.208 46.7353 48.53 46.306C48.714 46.0913 48.9747 45.7387 49.312 45.248C49.6493 44.7573 50.025 44.1747 50.439 43.5C50.853 42.8253 51.267 42.097 51.681 41.315C52.1103 40.533 52.4937 39.751 52.831 38.969L54.533 39.935C53.9963 40.993 53.4137 42.0433 52.785 43.086C52.1563 44.1287 51.497 45.1253 50.807 46.076C50.117 47.0113 49.4193 47.8623 48.714 48.629V48.698C48.714 48.698 48.6527 48.7287 48.53 48.79C48.4227 48.8513 48.2847 48.9357 48.116 49.043C47.9473 49.135 47.8017 49.2423 47.679 49.365C47.5717 49.4723 47.518 49.5797 47.518 49.687ZM47.518 49.687L47.449 48.123L48.392 47.502L53.751 46.835C53.705 47.0803 53.6667 47.3717 53.636 47.709C53.6207 48.0463 53.6207 48.3147 53.636 48.514C52.4093 48.698 51.4203 48.8513 50.669 48.974C49.933 49.0967 49.3503 49.204 48.921 49.296C48.507 49.3727 48.2003 49.4417 48.001 49.503C47.8017 49.549 47.6407 49.6103 47.518 49.687ZM52.164 50.331L53.567 49.917C53.797 50.5763 54.027 51.3047 54.257 52.102C54.487 52.884 54.6557 53.5587 54.763 54.126L53.314 54.609C53.222 54.0263 53.061 53.3363 52.831 52.539C52.6163 51.7417 52.394 51.0057 52.164 50.331ZM69.575 47.571C70.4643 47.341 71.5377 47.0497 72.795 46.697C74.0677 46.329 75.3557 45.9457 76.659 45.547L76.958 47.525C75.762 47.9083 74.566 48.284 73.37 48.652C72.174 49.02 71.0777 49.3573 70.081 49.664L69.575 47.571ZM69.897 40.096H76.981V42.12H69.897V40.096ZM72.634 35.611H74.635V54.425C74.635 54.977 74.5737 55.4063 74.451 55.713C74.3437 56.0197 74.129 56.2573 73.807 56.426C73.5003 56.5947 73.1017 56.7097 72.611 56.771C72.1357 56.8323 71.53 56.8553 70.794 56.84C70.7787 56.564 70.7097 56.2267 70.587 55.828C70.4797 55.4447 70.357 55.1073 70.219 54.816C70.679 54.8313 71.093 54.839 71.461 54.839C71.8443 54.839 72.105 54.839 72.243 54.839C72.5037 54.839 72.634 54.701 72.634 54.425V35.611ZM77.993 37.842H90.459V39.705H77.993V37.842ZM77.418 43.178H90.896V45.064H77.418V43.178ZM79.649 40.418L81.466 39.751C81.788 40.165 82.0947 40.6327 82.386 41.154C82.6927 41.66 82.915 42.1047 83.053 42.488L81.144 43.247C81.0213 42.8637 80.8143 42.4037 80.523 41.867C80.247 41.3303 79.9557 40.8473 79.649 40.418ZM86.733 39.797L88.78 40.395C88.458 41.0237 88.1207 41.6523 87.768 42.281C87.4307 42.8943 87.1087 43.431 86.802 43.891L85.077 43.316C85.261 42.994 85.4603 42.626 85.675 42.212C85.8897 41.798 86.089 41.3763 86.273 40.947C86.4723 40.5177 86.6257 40.1343 86.733 39.797ZM77.165 47.387H91.218V49.25H77.165V47.387ZM87.354 46.03L89.47 46.375C89.194 47.985 88.78 49.388 88.228 50.584C87.676 51.7647 86.9477 52.769 86.043 53.597C85.1537 54.4097 84.042 55.0843 82.708 55.621C81.374 56.1577 79.7793 56.587 77.924 56.909C77.8473 56.6023 77.7093 56.2727 77.51 55.92C77.326 55.5827 77.142 55.299 76.958 55.069C78.66 54.839 80.1167 54.5093 81.328 54.08C82.5393 53.6353 83.5437 53.0603 84.341 52.355C85.1537 51.6343 85.7977 50.7603 86.273 49.733C86.7637 48.6903 87.124 47.456 87.354 46.03ZM82.478 35.887L84.847 35.473C85.1383 35.9177 85.4067 36.416 85.652 36.968C85.8973 37.52 86.0813 37.9953 86.204 38.394L83.72 38.923C83.628 38.5243 83.4593 38.0337 83.214 37.451C82.9687 36.8683 82.7233 36.347 82.478 35.887ZM78.338 51.826C78.798 51.2433 79.2733 50.5763 79.764 49.825C80.2547 49.0737 80.7223 48.2917 81.167 47.479C81.627 46.651 82.0103 45.869 82.317 45.133L84.341 45.547C84.019 46.3137 83.6357 47.0957 83.191 47.893C82.7463 48.6903 82.2863 49.457 81.811 50.193C81.351 50.9137 80.9217 51.5423 80.523 52.079L78.338 51.826ZM78.338 51.826L79.672 50.469C80.5767 50.7603 81.535 51.0977 82.547 51.481C83.5743 51.8643 84.594 52.2707 85.606 52.7C86.6333 53.1293 87.5917 53.5663 88.481 54.011C89.3857 54.4557 90.16 54.8773 90.804 55.276L89.332 56.863C88.734 56.4797 88.0057 56.058 87.147 55.598C86.2883 55.1533 85.353 54.7087 84.341 54.264C83.3443 53.804 82.3247 53.367 81.282 52.953C80.2547 52.5237 79.2733 52.148 78.338 51.826ZM96.692 38.325V41.338H100.257V38.325H96.692ZM94.783 36.577H102.258V43.086H94.783V36.577ZM106.559 38.325V41.338H110.308V38.325H106.559ZM104.673 36.577H112.286V43.086H104.673V36.577ZM93.127 45.087H113.896V46.927H93.127V45.087ZM96.255 54.425H101.614V56.196H96.255V54.425ZM105.363 54.425H110.998V56.196H105.363V54.425ZM95.266 49.618H102.557V56.771H100.579V51.366H97.175V56.909H95.266V49.618ZM104.443 49.618H111.849V56.771H109.848V51.366H106.352V56.909H104.443V49.618ZM101.729 42.58L103.845 42.971C103.278 44.121 102.542 45.2403 101.637 46.329C100.732 47.4023 99.6283 48.399 98.325 49.319C97.0217 50.239 95.496 51.0517 93.748 51.757C93.6867 51.5883 93.587 51.4043 93.449 51.205C93.3263 50.9903 93.1883 50.791 93.035 50.607C92.8817 50.4077 92.736 50.2467 92.598 50.124C94.2233 49.526 95.6417 48.8207 96.853 48.008C98.0643 47.18 99.0763 46.306 99.889 45.386C100.702 44.4507 101.315 43.5153 101.729 42.58ZM106.076 43.845L107.134 42.787C107.701 42.9863 108.299 43.247 108.928 43.569C109.572 43.8757 110.078 44.1823 110.446 44.489L109.365 45.639C109.012 45.3323 108.522 45.0103 107.893 44.673C107.264 44.3357 106.659 44.0597 106.076 43.845ZM104.673 46.559L105.823 45.317C106.912 45.7617 107.977 46.2753 109.02 46.858C110.078 47.4253 111.052 48.008 111.941 48.606C112.846 49.204 113.597 49.7867 114.195 50.354L112.7 51.642C112.133 51.0747 111.42 50.492 110.561 49.894C109.718 49.2807 108.79 48.6903 107.778 48.123C106.766 47.5403 105.731 47.019 104.673 46.559Z" fill="white"/>
</svg>
