<svg width="241" height="241" viewBox="0 0 241 241" fill="none" xmlns="http://www.w3.org/2000/svg">
<path d="M164.106 44.972C205.819 69.0549 220.111 122.393 196.028 164.106C171.945 205.819 118.607 220.11 76.894 196.027C35.1812 171.944 20.8893 118.607 44.9722 76.8938C69.0552 35.181 122.393 20.8892 164.106 44.972Z" stroke="url(#paint0_linear_145_364)" stroke-width="2"/>
<path opacity="0.9" d="M120.634 234.037C183.664 234.037 234.76 182.941 234.76 119.91C234.76 56.8802 183.664 5.78418 120.634 5.78418C57.6036 5.78418 6.50757 56.8802 6.50757 119.91C6.50757 182.941 57.6036 234.037 120.634 234.037Z" fill="url(#paint1_radial_145_364)"/>
<path opacity="0.8" d="M120.21 212.42C170.584 212.42 211.42 171.584 211.42 121.21C211.42 70.8361 170.584 30 120.21 30C69.8361 30 29 70.8361 29 121.21C29 171.584 69.8361 212.42 120.21 212.42Z" fill="url(#paint2_radial_145_364)" fill-opacity="0.6"/>
<path d="M90.8497 93.594L92.8507 94.353C91.9767 95.6717 90.8957 96.8523 89.6077 97.895C88.335 98.9223 86.9397 99.827 85.4217 100.609C83.9037 101.376 82.3397 102.027 80.7297 102.564C80.653 102.411 80.5304 102.219 80.3617 101.989C80.2084 101.759 80.0474 101.521 79.8787 101.276C79.71 101.046 79.5567 100.862 79.4187 100.724C81.0134 100.295 82.5314 99.7427 83.9727 99.068C85.4294 98.3933 86.748 97.6037 87.9287 96.699C89.1247 95.779 90.0984 94.744 90.8497 93.594ZM79.3727 92.191L93.4257 90.949L93.6327 92.904L79.5797 94.192L79.3727 92.191ZM83.4207 88.074H85.6517C85.6977 89.4387 85.8357 90.7497 86.0657 92.007C86.2957 93.249 86.5947 94.399 86.9627 95.457C87.346 96.515 87.7677 97.435 88.2277 98.217C88.703 98.999 89.2014 99.6123 89.7227 100.057C90.2594 100.486 90.796 100.701 91.3327 100.701C91.6547 100.701 91.8847 100.471 92.0227 100.011C92.176 99.551 92.2757 98.769 92.3217 97.665C92.567 97.8797 92.8584 98.079 93.1957 98.263C93.533 98.447 93.8474 98.5927 94.1387 98.7C94.0314 99.804 93.855 100.655 93.6097 101.253C93.3797 101.866 93.073 102.28 92.6897 102.495C92.3064 102.725 91.8157 102.84 91.2177 102.84C90.3437 102.84 89.5234 102.579 88.7567 102.058C88.0054 101.552 87.3154 100.831 86.6867 99.896C86.0734 98.9607 85.529 97.8797 85.0537 96.653C84.5937 95.411 84.2257 94.0617 83.9497 92.605C83.6737 91.1483 83.4974 89.638 83.4207 88.074ZM77.9697 87.798L80.1317 88.557C79.641 89.477 79.066 90.42 78.4067 91.386C77.7474 92.3367 77.0344 93.249 76.2677 94.123C75.501 94.9817 74.719 95.7407 73.9217 96.4C73.8297 96.2313 73.7147 96.0397 73.5767 95.825C73.4387 95.595 73.293 95.365 73.1397 95.135C73.0017 94.905 72.8637 94.7133 72.7257 94.56C73.431 94.008 74.1134 93.3487 74.7727 92.582C75.4474 91.8153 76.0607 91.018 76.6127 90.19C77.18 89.362 77.6324 88.5647 77.9697 87.798ZM87.2387 89.086L88.4577 87.798C88.887 87.982 89.3394 88.1967 89.8147 88.442C90.29 88.6873 90.75 88.9327 91.1947 89.178C91.6547 89.408 92.038 89.6227 92.3447 89.822L91.1027 91.271C90.796 91.0717 90.4204 90.8417 89.9757 90.581C89.531 90.305 89.0634 90.0367 88.5727 89.776C88.0974 89.5153 87.6527 89.2853 87.2387 89.086ZM76.2447 92.467L78.3607 90.351L78.3837 90.374V102.932H76.2447V92.467ZM76.0837 83.106H83.3057V84.808H76.0837V83.106ZM85.5597 83.106H94.0697V84.808H85.5597V83.106ZM76.3597 81.381L78.2917 81.933C77.985 82.6997 77.617 83.4663 77.1877 84.233C76.7584 84.9997 76.2984 85.7203 75.8077 86.395C75.3324 87.0543 74.8417 87.637 74.3357 88.143C74.2437 88.0203 74.1057 87.867 73.9217 87.683C73.7377 87.499 73.546 87.315 73.3467 87.131C73.1627 86.947 73.0017 86.8013 72.8637 86.694C73.5844 86.0347 74.2514 85.2373 74.8647 84.302C75.478 83.3667 75.9764 82.393 76.3597 81.381ZM85.8587 81.404L87.8367 81.887C87.4687 83.0217 86.978 84.118 86.3647 85.176C85.7514 86.234 85.0997 87.1157 84.4097 87.821C84.287 87.6983 84.126 87.5603 83.9267 87.407C83.7274 87.2383 83.5204 87.0773 83.3057 86.924C83.091 86.7553 82.907 86.6327 82.7537 86.556C83.4284 85.9273 84.034 85.1607 84.5707 84.256C85.1074 83.336 85.5367 82.3853 85.8587 81.404ZM77.6247 85.521L78.9587 84.417C79.3727 84.7543 79.8174 85.1453 80.2927 85.59C80.768 86.0347 81.136 86.4257 81.3967 86.763L79.9707 88.005C79.7254 87.6677 79.3727 87.269 78.9127 86.809C78.468 86.3337 78.0387 85.9043 77.6247 85.521ZM87.6527 85.636L89.0557 84.486C89.4697 84.7773 89.9144 85.1223 90.3897 85.521C90.865 85.9197 91.233 86.2723 91.4937 86.579L90.0447 87.867C89.784 87.545 89.4237 87.177 88.9637 86.763C88.519 86.3337 88.082 85.958 87.6527 85.636ZM111.366 82.876L112.815 81.657C113.198 81.9177 113.589 82.209 113.988 82.531C114.402 82.853 114.793 83.175 115.161 83.497C115.529 83.8037 115.82 84.0873 116.035 84.348L114.517 85.705C114.302 85.429 114.018 85.1223 113.666 84.785C113.328 84.4477 112.953 84.1103 112.539 83.773C112.14 83.4357 111.749 83.1367 111.366 82.876ZM96.2317 85.705H116.84V87.844H96.2317V85.705ZM97.0597 90.926H107.134V93.042H97.0597V90.926ZM100.924 92.099H103.086V100.126H100.924V92.099ZM96.3007 100.103C97.2207 99.9343 98.3017 99.735 99.5437 99.505C100.801 99.2597 102.135 98.999 103.546 98.723C104.956 98.447 106.359 98.171 107.755 97.895L107.916 99.827C106.643 100.134 105.347 100.433 104.029 100.724C102.71 101 101.445 101.268 100.234 101.529C99.0224 101.805 97.9184 102.05 96.9217 102.265L96.3007 100.103ZM107.778 81.68H110.124C110.093 83.704 110.139 85.659 110.262 87.545C110.384 89.4157 110.576 91.1483 110.837 92.743C111.097 94.3377 111.412 95.733 111.78 96.929C112.148 98.1097 112.562 99.0297 113.022 99.689C113.482 100.348 113.965 100.678 114.471 100.678C114.762 100.678 114.977 100.341 115.115 99.666C115.268 98.9913 115.375 97.9103 115.437 96.423C115.682 96.6683 115.989 96.906 116.357 97.136C116.725 97.366 117.062 97.5423 117.369 97.665C117.246 99.045 117.07 100.118 116.84 100.885C116.61 101.652 116.288 102.188 115.874 102.495C115.46 102.802 114.931 102.955 114.287 102.955C113.489 102.955 112.776 102.687 112.148 102.15C111.519 101.613 110.967 100.854 110.492 99.873C110.016 98.8917 109.602 97.7417 109.25 96.423C108.912 95.089 108.636 93.6323 108.422 92.053C108.207 90.4737 108.046 88.81 107.939 87.062C107.847 85.2987 107.793 83.5047 107.778 81.68ZM120.06 83.589H139.058V85.383H120.06V83.589ZM120.842 100.494H138.345V102.311H120.842V100.494ZM124.706 86.694H134.274V88.258H124.706V86.694ZM124.706 89.615H134.274V91.179H124.706V89.615ZM118.933 92.559H140.093V94.376H118.933V92.559ZM123.924 96.699H135.125V98.47H123.924V96.699ZM123.441 81.588H125.603V93.548H123.441V81.588ZM133.492 81.611H135.7V93.571H133.492V81.611ZM128.363 94.997H130.571V101.529H128.363V94.997ZM124.729 93.065L126.546 93.755C126.086 94.5523 125.511 95.319 124.821 96.055C124.131 96.7757 123.379 97.4273 122.567 98.01C121.769 98.5927 120.949 99.0757 120.106 99.459C120.014 99.2903 119.883 99.1063 119.715 98.907C119.546 98.7077 119.37 98.5083 119.186 98.309C119.017 98.1097 118.856 97.941 118.703 97.803C119.5 97.4963 120.274 97.1053 121.026 96.63C121.792 96.1393 122.498 95.5873 123.142 94.974C123.786 94.3453 124.315 93.709 124.729 93.065ZM134.389 93.065C134.803 93.6937 135.324 94.2993 135.953 94.882C136.581 95.4493 137.279 95.963 138.046 96.423C138.812 96.883 139.587 97.2587 140.369 97.55C140.231 97.6727 140.062 97.8337 139.863 98.033C139.679 98.2323 139.502 98.4393 139.334 98.654C139.18 98.8687 139.05 99.0603 138.943 99.229C138.13 98.8763 137.325 98.4163 136.528 97.849C135.746 97.2663 135.025 96.6223 134.366 95.917C133.706 95.2117 133.147 94.4833 132.687 93.732L134.389 93.065ZM142.094 82.715H149.04V84.693H142.094V82.715ZM144.279 89.845H148.764V100.08H144.279V98.148H147.269V91.754H144.279V89.845ZM144.739 83.727L146.625 84.118C146.364 85.5593 146.027 86.9777 145.613 88.373C145.214 89.753 144.739 91.0487 144.187 92.26C143.635 93.4713 142.991 94.5447 142.255 95.48C142.224 95.296 142.155 95.0583 142.048 94.767C141.956 94.4757 141.848 94.1843 141.726 93.893C141.618 93.5863 141.519 93.341 141.427 93.157C142.27 92.007 142.96 90.6117 143.497 88.971C144.033 87.315 144.447 85.567 144.739 83.727ZM143.451 89.845H145.038V101.874H143.451V89.845ZM149.408 83.888H155.802V85.567H149.408V83.888ZM149.385 92.03H161.644V93.801H149.385V92.03ZM155.963 96.193H162.311V97.964H155.963V96.193ZM152.007 81.611H153.732V91.34H152.007V81.611ZM151.731 84.877L152.996 85.567C152.781 86.1803 152.497 86.809 152.145 87.453C151.807 88.097 151.432 88.7027 151.018 89.27C150.604 89.8373 150.182 90.3357 149.753 90.765C149.661 90.5503 149.515 90.2973 149.316 90.006C149.132 89.6993 148.955 89.4617 148.787 89.293C149.17 88.971 149.546 88.5723 149.914 88.097C150.297 87.6217 150.642 87.1003 150.949 86.533C151.271 85.9657 151.531 85.4137 151.731 84.877ZM153.64 85.659C153.762 85.751 153.931 85.912 154.146 86.142C154.376 86.372 154.613 86.625 154.859 86.901C155.119 87.177 155.349 87.43 155.549 87.66C155.763 87.89 155.917 88.0587 156.009 88.166L154.928 89.454C154.79 89.1933 154.575 88.8637 154.284 88.465C154.008 88.0663 153.724 87.6753 153.433 87.292C153.141 86.8933 152.911 86.579 152.743 86.349L153.64 85.659ZM156.308 83.888H163.047V85.567H156.308V83.888ZM158.562 81.611H160.31V91.34H158.562V81.611ZM158.539 84.854L159.781 85.544C159.566 86.2187 159.275 86.8933 158.907 87.568C158.554 88.2427 158.163 88.879 157.734 89.477C157.304 90.0597 156.852 90.558 156.377 90.972C156.285 90.7727 156.147 90.535 155.963 90.259C155.779 89.9677 155.602 89.7377 155.434 89.569C155.863 89.247 156.277 88.8407 156.676 88.35C157.074 87.844 157.435 87.292 157.757 86.694C158.094 86.0807 158.355 85.4673 158.539 84.854ZM161 92.03H161.299L161.621 91.915L163.024 92.375C162.824 92.973 162.602 93.5863 162.357 94.215C162.111 94.8283 161.874 95.3573 161.644 95.802L160.011 95.227C160.179 94.8283 160.356 94.3607 160.54 93.824C160.724 93.2873 160.877 92.766 161 92.26V92.03ZM152.329 96.653C152.681 97.757 153.149 98.6003 153.732 99.183C154.314 99.7503 155.012 100.134 155.825 100.333C156.653 100.517 157.573 100.609 158.585 100.609C158.707 100.609 158.922 100.609 159.229 100.609C159.535 100.609 159.888 100.609 160.287 100.609C160.685 100.609 161.092 100.609 161.506 100.609C161.92 100.609 162.295 100.609 162.633 100.609C162.97 100.594 163.231 100.586 163.415 100.586C163.323 100.724 163.231 100.908 163.139 101.138C163.062 101.368 162.993 101.598 162.932 101.828C162.87 102.058 162.824 102.265 162.794 102.449H161.759H158.47C157.182 102.449 156.047 102.311 155.066 102.035C154.1 101.759 153.272 101.245 152.582 100.494C151.892 99.7273 151.324 98.6157 150.88 97.159L152.329 96.653ZM155.066 92.582H157.067V101.713L155.066 100.839V92.582ZM150.857 94.675L152.674 94.997C152.566 96.0857 152.405 97.1283 152.191 98.125C151.976 99.1063 151.654 100.019 151.225 100.862C150.811 101.69 150.22 102.403 149.454 103.001L147.959 101.644C148.618 101.153 149.139 100.555 149.523 99.85C149.906 99.1447 150.205 98.355 150.42 97.481C150.634 96.5917 150.78 95.6563 150.857 94.675ZM160.356 85.199C160.494 85.337 160.708 85.5823 161 85.935C161.291 86.2723 161.605 86.6403 161.943 87.039C162.28 87.4377 162.579 87.8133 162.84 88.166C163.116 88.5187 163.315 88.7717 163.438 88.925L162.196 90.397C162.058 90.121 161.866 89.7837 161.621 89.385C161.391 88.971 161.138 88.5417 160.862 88.097C160.601 87.6523 160.34 87.2383 160.08 86.855C159.819 86.4717 159.604 86.165 159.436 85.935L160.356 85.199ZM116.974 123.401V118.433H112.328V116.501H116.974V111.51H119.021V116.501H123.69V118.433H119.021V123.401H116.974ZM79.968 147.159H97.034V148.861H79.968V147.159ZM81.739 143.433H93.032V144.951H81.739V143.433ZM83.901 139.638V140.926H92.48V139.638H83.901ZM83.901 137.085V138.327H92.48V137.085H83.901ZM81.831 135.682H94.642V142.329H81.831V135.682ZM87.328 146.147H89.421V150.724C89.421 151.23 89.3443 151.621 89.191 151.897C89.0377 152.173 88.754 152.38 88.34 152.518C87.9107 152.641 87.374 152.717 86.73 152.748C86.086 152.779 85.2963 152.786 84.361 152.771C84.2997 152.51 84.2 152.211 84.062 151.874C83.924 151.552 83.7783 151.261 83.625 151C84.085 151.015 84.5373 151.031 84.982 151.046C85.4267 151.061 85.81 151.061 86.132 151.046C86.4693 151.046 86.6993 151.046 86.822 151.046C87.006 151.031 87.1363 151 87.213 150.954C87.2897 150.908 87.328 150.808 87.328 150.655V146.147ZM92.687 143.433H93.239L93.699 143.318L94.987 144.491C94.3737 144.859 93.6913 145.219 92.94 145.572C92.204 145.925 91.445 146.247 90.663 146.538C89.881 146.829 89.099 147.09 88.317 147.32C88.2097 147.151 88.0487 146.952 87.834 146.722C87.6347 146.477 87.466 146.285 87.328 146.147C87.972 145.963 88.6313 145.741 89.306 145.48C89.996 145.219 90.64 144.943 91.238 144.652C91.836 144.345 92.319 144.069 92.687 143.824V143.433ZM79.094 132.669H96.781V134.647H79.094V132.669ZM77.829 132.669H79.968V139.569C79.968 140.535 79.9373 141.593 79.876 142.743C79.83 143.893 79.7227 145.074 79.554 146.285C79.3853 147.496 79.14 148.669 78.818 149.804C78.496 150.939 78.0743 151.974 77.553 152.909C77.415 152.786 77.231 152.656 77.001 152.518C76.771 152.38 76.5333 152.242 76.288 152.104C76.0427 151.981 75.828 151.889 75.644 151.828C76.15 150.939 76.5487 149.973 76.84 148.93C77.1313 147.887 77.346 146.822 77.484 145.733C77.6373 144.629 77.7293 143.556 77.76 142.513C77.806 141.455 77.829 140.474 77.829 139.569V132.669ZM99.794 133.52H119.252V137.361H117.205V135.245H101.772V137.361H99.794V133.52ZM108.718 136.74H110.558C110.497 137.461 110.42 138.235 110.328 139.063C110.251 139.876 110.167 140.566 110.075 141.133H108.235C108.342 140.535 108.434 139.83 108.511 139.017C108.603 138.204 108.672 137.445 108.718 136.74ZM104.256 145.618V146.538H114.813V145.618H104.256ZM104.256 147.665V148.585H114.813V147.665H104.256ZM104.256 143.617V144.491H114.813V143.617H104.256ZM102.14 142.421H117.021V149.781H102.14V142.421ZM110.742 150.77L111.892 149.528C112.781 149.743 113.678 149.98 114.583 150.241C115.488 150.486 116.339 150.732 117.136 150.977C117.949 151.222 118.662 151.452 119.275 151.667L117.803 153.024C117.251 152.809 116.592 152.572 115.825 152.311C115.074 152.066 114.261 151.805 113.387 151.529C112.528 151.268 111.647 151.015 110.742 150.77ZM104.992 137.384L104.601 140.397H113.939L114.169 137.384H104.992ZM103.198 136.188H116.308L115.825 141.593H102.485L103.198 136.188ZM106.602 149.528L108.327 150.724C107.683 151.061 106.924 151.376 106.05 151.667C105.191 151.974 104.287 152.242 103.336 152.472C102.401 152.702 101.496 152.886 100.622 153.024C100.484 152.825 100.3 152.572 100.07 152.265C99.8553 151.974 99.6483 151.728 99.449 151.529C100.308 151.406 101.189 151.238 102.094 151.023C102.999 150.824 103.85 150.594 104.647 150.333C105.46 150.057 106.111 149.789 106.602 149.528ZM99.058 138.051H104.164V138.258H114.721V138.051H120.011V139.661H114.721V139.454H104.164V139.661H99.058V138.051ZM107.614 131.956L109.523 131.404C109.799 131.787 110.067 132.232 110.328 132.738C110.604 133.229 110.803 133.65 110.926 134.003L108.925 134.624C108.833 134.271 108.657 133.842 108.396 133.336C108.151 132.83 107.89 132.37 107.614 131.956ZM122.38 138.005H142.712V140.259H122.38V138.005ZM133.834 138.902C134.325 140.711 134.984 142.398 135.812 143.962C136.655 145.526 137.683 146.898 138.894 148.079C140.121 149.244 141.539 150.164 143.149 150.839C142.965 150.992 142.766 151.192 142.551 151.437C142.352 151.682 142.16 151.928 141.976 152.173C141.792 152.434 141.639 152.664 141.516 152.863C139.814 152.066 138.327 151.015 137.054 149.712C135.797 148.393 134.731 146.868 133.857 145.135C132.983 143.402 132.247 141.501 131.649 139.431L133.834 138.902ZM131.304 131.588H133.673C133.673 132.677 133.642 133.85 133.581 135.107C133.535 136.349 133.42 137.629 133.236 138.948C133.052 140.267 132.753 141.585 132.339 142.904C131.925 144.223 131.35 145.495 130.614 146.722C129.878 147.949 128.935 149.091 127.785 150.149C126.635 151.192 125.232 152.104 123.576 152.886C123.392 152.595 123.147 152.273 122.84 151.92C122.533 151.583 122.227 151.299 121.92 151.069C123.515 150.348 124.856 149.513 125.945 148.562C127.049 147.596 127.938 146.553 128.613 145.434C129.303 144.299 129.832 143.126 130.2 141.915C130.568 140.704 130.829 139.492 130.982 138.281C131.135 137.07 131.227 135.897 131.258 134.762C131.289 133.627 131.304 132.569 131.304 131.588ZM152.119 142.582H165.39V144.491H152.119V142.582ZM162.975 136.74L164.585 138.35C163.404 138.595 162.078 138.81 160.606 138.994C159.149 139.163 157.647 139.301 156.098 139.408C154.549 139.5 153.054 139.569 151.613 139.615C151.582 139.385 151.513 139.101 151.406 138.764C151.299 138.427 151.191 138.143 151.084 137.913C152.127 137.882 153.2 137.836 154.304 137.775C155.408 137.698 156.489 137.614 157.547 137.522C158.62 137.415 159.617 137.3 160.537 137.177C161.472 137.039 162.285 136.893 162.975 136.74ZM157.57 138.166H159.709C159.74 139.837 159.87 141.424 160.1 142.927C160.345 144.43 160.652 145.756 161.02 146.906C161.388 148.041 161.794 148.93 162.239 149.574C162.699 150.218 163.151 150.54 163.596 150.54C163.841 150.54 164.018 150.287 164.125 149.781C164.248 149.275 164.324 148.485 164.355 147.412C164.585 147.627 164.861 147.826 165.183 148.01C165.52 148.194 165.819 148.332 166.08 148.424C166.003 149.528 165.858 150.387 165.643 151C165.444 151.598 165.168 152.012 164.815 152.242C164.462 152.487 164.01 152.61 163.458 152.61C162.768 152.61 162.124 152.357 161.526 151.851C160.943 151.36 160.414 150.663 159.939 149.758C159.479 148.853 159.08 147.795 158.743 146.584C158.406 145.373 158.137 144.054 157.938 142.628C157.739 141.187 157.616 139.699 157.57 138.166ZM147.749 133.842H165.988V135.797H147.749V133.842ZM146.668 133.842H148.807V140.397C148.807 141.317 148.776 142.321 148.715 143.41C148.669 144.499 148.562 145.618 148.393 146.768C148.224 147.903 147.979 149.007 147.657 150.08C147.35 151.153 146.944 152.135 146.438 153.024C146.315 152.886 146.139 152.733 145.909 152.564C145.679 152.411 145.449 152.257 145.219 152.104C144.989 151.966 144.79 151.859 144.621 151.782C145.096 150.969 145.472 150.08 145.748 149.114C146.024 148.148 146.223 147.159 146.346 146.147C146.484 145.12 146.568 144.115 146.599 143.134C146.645 142.153 146.668 141.24 146.668 140.397V133.842ZM154.695 132.025L156.88 131.496C157.171 131.941 157.447 132.447 157.708 133.014C157.969 133.566 158.153 134.049 158.26 134.463L155.983 135.107C155.891 134.678 155.722 134.179 155.477 133.612C155.247 133.029 154.986 132.5 154.695 132.025ZM154.097 150.494H160.054V152.219H154.097V150.494ZM151.107 150.632L150.946 148.884L151.866 148.171L157.317 146.952C157.302 147.228 157.294 147.55 157.294 147.918C157.309 148.271 157.325 148.562 157.34 148.792C156.098 149.099 155.094 149.359 154.327 149.574C153.56 149.773 152.962 149.942 152.533 150.08C152.119 150.203 151.805 150.31 151.59 150.402C151.391 150.494 151.23 150.571 151.107 150.632ZM151.107 150.632C151.076 150.463 151.015 150.272 150.923 150.057C150.831 149.827 150.731 149.605 150.624 149.39C150.517 149.16 150.409 148.976 150.302 148.838C150.486 148.746 150.662 148.593 150.831 148.378C151 148.163 151.084 147.841 151.084 147.412V137.936L153.131 138.465V148.953C153.131 148.953 153.031 149.007 152.832 149.114C152.633 149.221 152.395 149.359 152.119 149.528C151.858 149.697 151.621 149.881 151.406 150.08C151.207 150.264 151.107 150.448 151.107 150.632Z" fill="white"/>
<defs>
<linearGradient id="paint0_linear_145_364" x1="164.606" y1="44.1061" x2="76.394" y2="196.894" gradientUnits="userSpaceOnUse">
<stop stop-color="white"/>
<stop offset="1" stop-color="white" stop-opacity="0"/>
</linearGradient>
<radialGradient id="paint1_radial_145_364" cx="0" cy="0" r="1" gradientUnits="userSpaceOnUse" gradientTransform="translate(120.634 119.91) scale(114.126)">
<stop offset="0.75" stop-color="white" stop-opacity="0"/>
<stop offset="0.77" stop-color="#FFF9E2" stop-opacity="0.9"/>
<stop offset="0.84" stop-color="#FFEC9C" stop-opacity="0.3"/>
<stop offset="0.9" stop-color="white" stop-opacity="0.1"/>
<stop offset="1" stop-color="white" stop-opacity="0"/>
</radialGradient>
<radialGradient id="paint2_radial_145_364" cx="0" cy="0" r="1" gradientUnits="userSpaceOnUse" gradientTransform="translate(6.80998 -6.41998) scale(422.74)">
<stop stop-color="#A27057"/>
<stop offset="0.14" stop-color="#BF9261"/>
<stop offset="0.22" stop-color="#D6A569"/>
<stop offset="0.34" stop-color="#FFC677"/>
<stop offset="0.81" stop-color="#AA815D"/>
<stop offset="1" stop-color="#DAAB6B"/>
</radialGradient>
</defs>
</svg>
