<svg width="241" height="241" viewBox="0 0 241 241" fill="none" xmlns="http://www.w3.org/2000/svg">
<path d="M164.106 44.972C205.819 69.0549 220.111 122.393 196.028 164.106C171.945 205.819 118.607 220.11 76.894 196.027C35.1812 171.944 20.8893 118.607 44.9722 76.8938C69.0552 35.181 122.393 20.8892 164.106 44.972Z" stroke="url(#paint0_linear_145_363)" stroke-width="2"/>
<path opacity="0.9" d="M120.634 234.037C183.664 234.037 234.76 182.941 234.76 119.91C234.76 56.8802 183.664 5.78418 120.634 5.78418C57.6036 5.78418 6.50757 56.8802 6.50757 119.91C6.50757 182.941 57.6036 234.037 120.634 234.037Z" fill="url(#paint1_radial_145_363)"/>
<path opacity="0.8" d="M121.21 211.42C171.584 211.42 212.42 170.584 212.42 120.21C212.42 69.8361 171.584 29 121.21 29C70.8361 29 30 69.8361 30 120.21C30 170.584 70.8361 211.42 121.21 211.42Z" fill="url(#paint2_radial_145_363)" fill-opacity="0.6"/>
<path d="M100.923 108.322C99.758 108.322 98.654 108.1 97.6113 107.655C96.584 107.21 95.6793 106.597 94.8973 105.815L96.4613 103.975C97.0746 104.573 97.7723 105.056 98.5543 105.424C99.3516 105.792 100.164 105.976 100.992 105.976C102.004 105.976 102.779 105.754 103.315 105.309C103.867 104.864 104.143 104.289 104.143 103.584C104.143 103.063 104.028 102.649 103.798 102.342C103.568 102.02 103.246 101.752 102.832 101.537C102.434 101.322 101.974 101.1 101.452 100.87L99.1063 99.858C98.5543 99.628 98.01 99.329 97.4733 98.961C96.952 98.5777 96.515 98.1023 96.1623 97.535C95.825 96.9523 95.6563 96.247 95.6563 95.419C95.6563 94.5297 95.894 93.7323 96.3693 93.027C96.8446 92.3217 97.504 91.7697 98.3473 91.371C99.1906 90.957 100.149 90.75 101.222 90.75C102.219 90.75 103.162 90.9417 104.051 91.325C104.941 91.7083 105.7 92.2297 106.328 92.889L104.971 94.591C104.435 94.1157 103.86 93.7477 103.246 93.487C102.648 93.211 101.974 93.073 101.222 93.073C100.348 93.073 99.6583 93.2723 99.1523 93.671C98.6463 94.0543 98.3933 94.5757 98.3933 95.235C98.3933 95.7257 98.5236 96.132 98.7843 96.454C99.045 96.7607 99.3823 97.0213 99.7963 97.236C100.226 97.4353 100.663 97.627 101.107 97.811L103.43 98.8C104.105 99.076 104.703 99.4133 105.224 99.812C105.746 100.211 106.152 100.694 106.443 101.261C106.735 101.828 106.88 102.534 106.88 103.377C106.88 104.282 106.643 105.11 106.167 105.861C105.692 106.597 105.01 107.195 104.12 107.655C103.231 108.1 102.165 108.322 100.923 108.322ZM107.855 108L113.467 91.049H116.549L122.161 108H119.332L116.595 98.8C116.319 97.88 116.051 96.9523 115.79 96.017C115.53 95.0663 115.269 94.1157 115.008 93.165H114.916C114.671 94.131 114.41 95.0817 114.134 96.017C113.874 96.9523 113.605 97.88 113.329 98.8L110.592 108H107.855ZM111.029 103.193V101.077H118.941V103.193H111.029ZM129.178 97.811L130.696 97.282C130.957 97.7727 131.194 98.3017 131.409 98.869C131.639 99.4363 131.838 99.9883 132.007 100.525C132.191 101.046 132.314 101.514 132.375 101.928L130.742 102.572C130.681 102.158 130.566 101.683 130.397 101.146C130.244 100.594 130.06 100.027 129.845 99.444C129.63 98.8613 129.408 98.317 129.178 97.811ZM126.763 103.768L128.304 103.423C128.442 104.159 128.572 104.956 128.695 105.815C128.818 106.674 128.894 107.417 128.925 108.046L127.292 108.437C127.261 107.808 127.192 107.057 127.085 106.183C126.993 105.309 126.886 104.504 126.763 103.768ZM124.21 103.561L125.935 103.837C125.828 104.849 125.674 105.861 125.475 106.873C125.291 107.885 125.076 108.744 124.831 109.449C124.647 109.357 124.379 109.25 124.026 109.127C123.689 109.004 123.405 108.912 123.175 108.851C123.436 108.161 123.643 107.341 123.796 106.39C123.965 105.439 124.103 104.496 124.21 103.561ZM123.865 97.42C123.834 97.2667 123.773 97.075 123.681 96.845C123.604 96.5997 123.52 96.3543 123.428 96.109C123.351 95.8483 123.267 95.626 123.175 95.442C123.405 95.3807 123.62 95.2503 123.819 95.051C124.034 94.8363 124.256 94.5527 124.486 94.2C124.609 94.0313 124.785 93.7553 125.015 93.372C125.245 92.9887 125.498 92.5363 125.774 92.015C126.065 91.4783 126.349 90.911 126.625 90.313C126.916 89.715 127.169 89.1093 127.384 88.496L129.408 89.324C129.04 90.1673 128.618 91.0107 128.143 91.854C127.683 92.682 127.2 93.4793 126.694 94.246C126.188 95.0127 125.674 95.7027 125.153 96.316V96.339C125.153 96.339 125.084 96.3773 124.946 96.454C124.823 96.5307 124.678 96.6227 124.509 96.73C124.34 96.8373 124.187 96.9523 124.049 97.075C123.926 97.1977 123.865 97.3127 123.865 97.42ZM123.865 97.397L123.819 95.856L124.762 95.258L128.764 94.936C128.718 95.1967 128.672 95.4957 128.626 95.833C128.595 96.1703 128.572 96.454 128.557 96.684C127.668 96.776 126.939 96.8603 126.372 96.937C125.805 96.9983 125.352 97.0597 125.015 97.121C124.693 97.167 124.448 97.213 124.279 97.259C124.11 97.305 123.972 97.351 123.865 97.397ZM124.026 102.641C123.995 102.503 123.934 102.319 123.842 102.089C123.765 101.844 123.681 101.591 123.589 101.33C123.512 101.069 123.428 100.847 123.336 100.663C123.612 100.617 123.888 100.464 124.164 100.203C124.455 99.927 124.777 99.5743 125.13 99.145C125.329 98.9303 125.613 98.5853 125.981 98.11C126.364 97.6193 126.778 97.0443 127.223 96.385C127.683 95.7103 128.143 94.9897 128.603 94.223C129.063 93.4563 129.477 92.682 129.845 91.9L131.685 93.027C131.102 94.0697 130.466 95.1047 129.776 96.132C129.086 97.144 128.365 98.11 127.614 99.03C126.863 99.95 126.104 100.793 125.337 101.56V101.606C125.337 101.606 125.268 101.644 125.13 101.721C125.007 101.782 124.854 101.867 124.67 101.974C124.501 102.081 124.348 102.196 124.21 102.319C124.087 102.442 124.026 102.549 124.026 102.641ZM124.026 102.641L123.934 101.054L124.877 100.41L130.995 99.536C130.949 99.7967 130.918 100.096 130.903 100.433C130.903 100.77 130.911 101.046 130.926 101.261C129.531 101.491 128.404 101.683 127.545 101.836C126.702 101.974 126.042 102.097 125.567 102.204C125.107 102.296 124.77 102.38 124.555 102.457C124.34 102.518 124.164 102.58 124.026 102.641ZM129.247 103.331L130.742 102.848C130.972 103.431 131.194 104.067 131.409 104.757C131.639 105.447 131.808 106.045 131.915 106.551L130.328 107.103C130.251 106.597 130.106 105.991 129.891 105.286C129.676 104.581 129.462 103.929 129.247 103.331ZM131.961 89.623H140.287V91.67H131.961V89.623ZM139.758 89.623H139.988L140.333 89.531L141.828 89.738C141.736 90.4587 141.621 91.233 141.483 92.061C141.36 92.889 141.23 93.717 141.092 94.545C140.954 95.373 140.808 96.1473 140.655 96.868L138.631 96.661C138.784 95.925 138.93 95.1353 139.068 94.292C139.221 93.4333 139.359 92.613 139.482 91.831C139.605 91.049 139.697 90.3973 139.758 89.876V89.623ZM134.974 96.178H142.265V98.11H134.629L134.974 96.178ZM141.667 96.178H142.058L142.426 96.086L143.806 96.569C143.423 98.777 142.84 100.74 142.058 102.457C141.276 104.159 140.333 105.639 139.229 106.896C138.125 108.138 136.898 109.158 135.549 109.955C135.396 109.694 135.189 109.403 134.928 109.081C134.667 108.759 134.414 108.506 134.169 108.322C135.38 107.663 136.492 106.766 137.504 105.631C138.516 104.496 139.382 103.162 140.103 101.629C140.824 100.096 141.345 98.4167 141.667 96.592V96.178ZM134.077 90.428H136.216C136.185 92.5593 136.116 94.5603 136.009 96.431C135.917 98.3017 135.748 100.05 135.503 101.675C135.258 103.285 134.897 104.772 134.422 106.137C133.962 107.486 133.356 108.713 132.605 109.817C132.482 109.694 132.306 109.541 132.076 109.357C131.846 109.188 131.601 109.012 131.34 108.828C131.095 108.659 130.888 108.529 130.719 108.437C131.716 107.149 132.452 105.608 132.927 103.814C133.402 102.005 133.709 99.973 133.847 97.719C134 95.465 134.077 93.0347 134.077 90.428ZM137.044 97.443C137.412 99.0223 137.926 100.51 138.585 101.905C139.244 103.3 140.057 104.527 141.023 105.585C141.989 106.628 143.131 107.433 144.45 108C144.281 108.138 144.105 108.314 143.921 108.529C143.737 108.744 143.561 108.966 143.392 109.196C143.223 109.426 143.085 109.633 142.978 109.817C141.613 109.112 140.433 108.169 139.436 106.988C138.439 105.807 137.604 104.443 136.929 102.894C136.254 101.345 135.702 99.651 135.273 97.811L137.044 97.443ZM79.927 131.73H81.192V139.895H79.927V131.73ZM77.558 133.961H78.754V140.631H77.558V133.961ZM82.388 133.961H83.584V140.631H82.388V133.961ZM82.02 126.785L83.63 127.199C83.492 127.72 83.3387 128.257 83.17 128.809C83.0167 129.361 82.8557 129.89 82.687 130.396C82.5337 130.902 82.388 131.354 82.25 131.753L80.962 131.362C81.1 130.948 81.238 130.48 81.376 129.959C81.514 129.422 81.6367 128.878 81.744 128.326C81.8667 127.759 81.9587 127.245 82.02 126.785ZM77.535 127.245L78.823 126.9C79.099 127.452 79.3367 128.05 79.536 128.694C79.7507 129.323 79.881 129.859 79.927 130.304L78.593 130.741C78.5317 130.281 78.4013 129.721 78.202 129.062C78.0027 128.403 77.7803 127.797 77.535 127.245ZM74.591 124.485H85.585V126.417H76.408V144.932H74.591V124.485ZM84.688 124.485H86.528V142.563C86.528 143.115 86.459 143.544 86.321 143.851C86.183 144.173 85.9453 144.411 85.608 144.564C85.2707 144.733 84.8183 144.832 84.251 144.863C83.6837 144.909 82.963 144.932 82.089 144.932C82.0583 144.687 81.9817 144.372 81.859 143.989C81.7363 143.606 81.606 143.284 81.468 143.023C82.0813 143.038 82.6487 143.046 83.17 143.046C83.7067 143.046 84.0593 143.046 84.228 143.046C84.3967 143.031 84.5117 142.992 84.573 142.931C84.6497 142.854 84.688 142.724 84.688 142.54V124.485ZM77.144 131.04H84.021V132.673H77.144V131.04ZM78.11 138.975H82.917V140.631H78.11V138.975ZM67.162 129.292H73.05V131.063H67.162V129.292ZM66.173 133.248H73.786V135.088H66.173V133.248ZM66.357 136.537L67.737 136.215C67.9517 136.874 68.1357 137.595 68.289 138.377C68.4577 139.159 68.5573 139.834 68.588 140.401L67.139 140.792C67.1237 140.209 67.0393 139.527 66.886 138.745C66.7327 137.948 66.5563 137.212 66.357 136.537ZM65.989 142.379C67.0163 142.21 68.243 141.996 69.669 141.735C71.1103 141.459 72.567 141.183 74.039 140.907L74.177 142.701C72.8277 143.008 71.4783 143.299 70.129 143.575C68.7797 143.851 67.553 144.104 66.449 144.334L65.989 142.379ZM72.107 135.985L73.648 136.353C73.4793 137.043 73.3107 137.756 73.142 138.492C72.9733 139.228 72.8123 139.849 72.659 140.355L71.325 139.987C71.417 139.634 71.509 139.22 71.601 138.745C71.7083 138.27 71.808 137.787 71.9 137.296C71.992 136.805 72.061 136.368 72.107 135.985ZM69.071 130.074H70.888V142.218L69.071 142.494V130.074ZM69.646 123.496L71.187 124.209C70.819 125.022 70.3743 125.827 69.853 126.624C69.3317 127.421 68.772 128.165 68.174 128.855C67.576 129.53 66.978 130.128 66.38 130.649C66.334 130.496 66.2573 130.289 66.15 130.028C66.058 129.767 65.9507 129.507 65.828 129.246C65.7053 128.985 65.598 128.771 65.506 128.602C66.3033 128.004 67.07 127.26 67.806 126.371C68.5573 125.466 69.1707 124.508 69.646 123.496ZM68.841 125.957L69.738 124.439C70.3513 124.776 70.957 125.167 71.555 125.612C72.1683 126.041 72.7357 126.478 73.257 126.923C73.7937 127.352 74.2383 127.766 74.591 128.165L73.579 129.844C73.211 129.415 72.7663 128.97 72.245 128.51C71.739 128.05 71.1947 127.605 70.612 127.176C70.0293 126.731 69.439 126.325 68.841 125.957ZM91.887 130.649H97.453V132.443H91.887V130.649ZM99.224 132.305H108.217V134.26H99.224V132.305ZM96.395 130.649H98.465V142.609C98.465 143.13 98.4037 143.544 98.281 143.851C98.1583 144.158 97.9283 144.395 97.591 144.564C97.2537 144.733 96.832 144.832 96.326 144.863C95.82 144.894 95.199 144.909 94.463 144.909C94.4323 144.633 94.3557 144.303 94.233 143.92C94.1257 143.552 94.003 143.222 93.865 142.931C94.3403 142.946 94.785 142.962 95.199 142.977C95.613 142.977 95.889 142.969 96.027 142.954C96.2723 142.954 96.395 142.831 96.395 142.586V130.649ZM107.32 132.305H109.413C109.413 132.305 109.413 132.366 109.413 132.489C109.413 132.596 109.413 132.727 109.413 132.88C109.413 133.018 109.405 133.133 109.39 133.225C109.344 135.034 109.29 136.575 109.229 137.848C109.168 139.105 109.099 140.14 109.022 140.953C108.945 141.766 108.846 142.41 108.723 142.885C108.616 143.345 108.485 143.682 108.332 143.897C108.117 144.188 107.887 144.395 107.642 144.518C107.412 144.641 107.128 144.725 106.791 144.771C106.484 144.802 106.093 144.817 105.618 144.817C105.143 144.832 104.644 144.832 104.123 144.817C104.108 144.495 104.046 144.135 103.939 143.736C103.832 143.353 103.694 143.023 103.525 142.747C104 142.793 104.437 142.824 104.836 142.839C105.25 142.839 105.549 142.839 105.733 142.839C105.917 142.839 106.063 142.824 106.17 142.793C106.277 142.747 106.385 142.663 106.492 142.54C106.63 142.356 106.753 141.927 106.86 141.252C106.967 140.577 107.052 139.558 107.113 138.193C107.19 136.813 107.259 134.981 107.32 132.696V132.305ZM90.944 130.649H92.991V135.686C92.991 136.391 92.9603 137.158 92.899 137.986C92.853 138.814 92.7457 139.65 92.577 140.493C92.4237 141.321 92.1937 142.126 91.887 142.908C91.5957 143.675 91.2123 144.388 90.737 145.047C90.6143 144.909 90.4457 144.763 90.231 144.61C90.0163 144.472 89.794 144.326 89.564 144.173C89.334 144.035 89.1347 143.935 88.966 143.874C89.564 143.077 90.001 142.203 90.277 141.252C90.5683 140.301 90.7523 139.343 90.829 138.377C90.9057 137.396 90.944 136.491 90.944 135.663V130.649ZM92.002 125.382H99.224V127.222H92.002V125.382ZM101.616 125.382H110.034V127.199H101.616V125.382ZM92.278 123.473L94.348 124.002C94.0413 124.799 93.6733 125.589 93.244 126.371C92.83 127.153 92.3853 127.889 91.91 128.579C91.4347 129.269 90.9517 129.867 90.461 130.373C90.323 130.266 90.139 130.135 89.909 129.982C89.6943 129.829 89.4643 129.683 89.219 129.545C88.989 129.407 88.7897 129.292 88.621 129.2C89.3723 128.495 90.07 127.636 90.714 126.624C91.358 125.597 91.8793 124.546 92.278 123.473ZM101.961 123.45L104.1 123.979C103.625 125.206 103.019 126.371 102.283 127.475C101.562 128.579 100.796 129.499 99.983 130.235C99.845 130.112 99.661 129.974 99.431 129.821C99.2163 129.668 98.994 129.514 98.764 129.361C98.534 129.208 98.327 129.085 98.143 128.993C98.9557 128.334 99.6993 127.513 100.374 126.532C101.064 125.551 101.593 124.523 101.961 123.45ZM93.911 128.027L95.705 127.406C95.9657 127.743 96.2263 128.134 96.487 128.579C96.7477 129.024 96.9393 129.407 97.062 129.729L95.176 130.442C95.0687 130.135 94.8923 129.752 94.647 129.292C94.4017 128.832 94.1563 128.41 93.911 128.027ZM104.376 127.889L106.193 127.245C106.515 127.628 106.837 128.073 107.159 128.579C107.496 129.085 107.734 129.522 107.872 129.89L105.986 130.626C105.848 130.243 105.626 129.798 105.319 129.292C105.012 128.771 104.698 128.303 104.376 127.889ZM102.145 129.913H104.169V134.122C104.169 134.996 104.115 135.901 104.008 136.836C103.916 137.771 103.724 138.714 103.433 139.665C103.142 140.6 102.705 141.52 102.122 142.425C101.555 143.314 100.803 144.158 99.868 144.955C99.684 144.725 99.4463 144.487 99.155 144.242C98.8637 143.997 98.5877 143.782 98.327 143.598C99.1857 142.862 99.868 142.095 100.374 141.298C100.88 140.485 101.256 139.665 101.501 138.837C101.762 137.994 101.93 137.173 102.007 136.376C102.099 135.579 102.145 134.812 102.145 134.076V129.913ZM92.393 138.906C92.991 138.737 93.6887 138.515 94.486 138.239C95.2833 137.948 96.119 137.649 96.993 137.342L97.246 138.745C96.5253 139.098 95.82 139.45 95.13 139.803C94.4553 140.156 93.8037 140.485 93.175 140.792L92.393 138.906ZM92.853 134.743L94.072 133.639C94.532 133.961 94.992 134.306 95.452 134.674C95.912 135.042 96.2723 135.372 96.533 135.663L95.291 136.951C95.015 136.644 94.6393 136.284 94.164 135.87C93.704 135.441 93.267 135.065 92.853 134.743ZM119.464 124.715H132.781V126.187H119.464V124.715ZM120.384 127.199H131.93V128.602H120.384V127.199ZM125.168 123.588H127.307V128.004H125.168V123.588ZM121.396 130.787V132.466H130.757V130.787H121.396ZM119.602 129.407H132.666V133.869H119.602V129.407ZM122.293 137.71V138.584H129.883V137.71H122.293ZM122.293 139.481V140.378H129.883V139.481H122.293ZM122.293 135.939V136.79H129.883V135.939H122.293ZM120.361 134.72H131.884V141.574H120.361V134.72ZM127.261 142.793L128.043 141.39C128.948 141.697 129.86 142.034 130.78 142.402C131.7 142.77 132.474 143.092 133.103 143.368L132.206 144.909C131.593 144.602 130.834 144.25 129.929 143.851C129.04 143.468 128.15 143.115 127.261 142.793ZM124.064 141.413L125.513 142.77C124.624 143.184 123.658 143.59 122.615 143.989C121.588 144.388 120.668 144.74 119.855 145.047C119.763 144.832 119.64 144.579 119.487 144.288C119.334 143.997 119.18 143.744 119.027 143.529C119.548 143.345 120.116 143.138 120.729 142.908C121.342 142.663 121.948 142.41 122.546 142.149C123.144 141.873 123.65 141.628 124.064 141.413ZM123.581 129.89H125.214V133.363H123.581V129.89ZM127.238 129.89H128.894V133.34H127.238V129.89ZM117.049 132.903L118.544 132.512C118.728 133.049 118.904 133.616 119.073 134.214C119.242 134.812 119.395 135.387 119.533 135.939C119.671 136.491 119.763 136.974 119.809 137.388L118.222 137.871C118.161 137.442 118.069 136.943 117.946 136.376C117.839 135.809 117.701 135.218 117.532 134.605C117.379 133.992 117.218 133.424 117.049 132.903ZM115.071 138.745L116.566 138.492C116.704 139.335 116.827 140.255 116.934 141.252C117.041 142.233 117.11 143.084 117.141 143.805L115.554 144.104C115.554 143.613 115.531 143.061 115.485 142.448C115.439 141.835 115.378 141.206 115.301 140.562C115.224 139.918 115.148 139.312 115.071 138.745ZM112.771 138.561L114.473 138.837C114.366 139.895 114.212 140.968 114.013 142.057C113.814 143.146 113.591 144.058 113.346 144.794C113.162 144.702 112.894 144.595 112.541 144.472C112.204 144.365 111.92 144.28 111.69 144.219C111.981 143.483 112.211 142.609 112.38 141.597C112.549 140.57 112.679 139.558 112.771 138.561ZM112.357 132.42C112.326 132.297 112.273 132.129 112.196 131.914C112.119 131.684 112.043 131.454 111.966 131.224C111.889 130.994 111.813 130.802 111.736 130.649C111.935 130.588 112.135 130.45 112.334 130.235C112.533 130.005 112.733 129.714 112.932 129.361C113.101 129.146 113.338 128.74 113.645 128.142C113.967 127.529 114.304 126.823 114.657 126.026C115.025 125.213 115.347 124.385 115.623 123.542L117.44 124.278C117.087 125.137 116.696 125.995 116.267 126.854C115.853 127.697 115.408 128.51 114.933 129.292C114.473 130.059 114.013 130.756 113.553 131.385V131.431C113.553 131.431 113.492 131.462 113.369 131.523C113.262 131.584 113.124 131.669 112.955 131.776C112.786 131.883 112.641 131.998 112.518 132.121C112.411 132.228 112.357 132.328 112.357 132.42ZM112.357 132.42L112.311 130.902L113.254 130.327L117.187 130.005C117.141 130.266 117.103 130.565 117.072 130.902C117.041 131.224 117.018 131.492 117.003 131.707C115.822 131.83 114.918 131.937 114.289 132.029C113.676 132.106 113.231 132.175 112.955 132.236C112.694 132.297 112.495 132.359 112.357 132.42ZM112.518 137.687C112.487 137.549 112.434 137.373 112.357 137.158C112.28 136.928 112.204 136.698 112.127 136.468C112.05 136.223 111.974 136.023 111.897 135.87C112.142 135.809 112.395 135.64 112.656 135.364C112.917 135.088 113.208 134.735 113.53 134.306C113.714 134.091 113.975 133.739 114.312 133.248C114.649 132.757 115.025 132.175 115.439 131.5C115.853 130.825 116.267 130.097 116.681 129.315C117.11 128.533 117.494 127.751 117.831 126.969L119.533 127.935C118.996 128.993 118.414 130.043 117.785 131.086C117.156 132.129 116.497 133.125 115.807 134.076C115.117 135.011 114.419 135.862 113.714 136.629V136.698C113.714 136.698 113.653 136.729 113.53 136.79C113.423 136.851 113.285 136.936 113.116 137.043C112.947 137.135 112.802 137.242 112.679 137.365C112.572 137.472 112.518 137.58 112.518 137.687ZM112.518 137.687L112.449 136.123L113.392 135.502L118.751 134.835C118.705 135.08 118.667 135.372 118.636 135.709C118.621 136.046 118.621 136.315 118.636 136.514C117.409 136.698 116.42 136.851 115.669 136.974C114.933 137.097 114.35 137.204 113.921 137.296C113.507 137.373 113.2 137.442 113.001 137.503C112.802 137.549 112.641 137.61 112.518 137.687ZM117.164 138.331L118.567 137.917C118.797 138.576 119.027 139.305 119.257 140.102C119.487 140.884 119.656 141.559 119.763 142.126L118.314 142.609C118.222 142.026 118.061 141.336 117.831 140.539C117.616 139.742 117.394 139.006 117.164 138.331ZM134.575 135.571C135.464 135.341 136.538 135.05 137.795 134.697C139.068 134.329 140.356 133.946 141.659 133.547L141.958 135.525C140.762 135.908 139.566 136.284 138.37 136.652C137.174 137.02 136.078 137.357 135.081 137.664L134.575 135.571ZM134.897 128.096H141.981V130.12H134.897V128.096ZM137.634 123.611H139.635V142.425C139.635 142.977 139.574 143.406 139.451 143.713C139.344 144.02 139.129 144.257 138.807 144.426C138.5 144.595 138.102 144.71 137.611 144.771C137.136 144.832 136.53 144.855 135.794 144.84C135.779 144.564 135.71 144.227 135.587 143.828C135.48 143.445 135.357 143.107 135.219 142.816C135.679 142.831 136.093 142.839 136.461 142.839C136.844 142.839 137.105 142.839 137.243 142.839C137.504 142.839 137.634 142.701 137.634 142.425V123.611ZM142.993 125.842H155.459V127.705H142.993V125.842ZM142.418 131.178H155.896V133.064H142.418V131.178ZM144.649 128.418L146.466 127.751C146.788 128.165 147.095 128.633 147.386 129.154C147.693 129.66 147.915 130.105 148.053 130.488L146.144 131.247C146.021 130.864 145.814 130.404 145.523 129.867C145.247 129.33 144.956 128.847 144.649 128.418ZM151.733 127.797L153.78 128.395C153.458 129.024 153.121 129.652 152.768 130.281C152.431 130.894 152.109 131.431 151.802 131.891L150.077 131.316C150.261 130.994 150.46 130.626 150.675 130.212C150.89 129.798 151.089 129.376 151.273 128.947C151.472 128.518 151.626 128.134 151.733 127.797ZM142.165 135.387H156.218V137.25H142.165V135.387ZM152.354 134.03L154.47 134.375C154.194 135.985 153.78 137.388 153.228 138.584C152.676 139.765 151.948 140.769 151.043 141.597C150.154 142.41 149.042 143.084 147.708 143.621C146.374 144.158 144.779 144.587 142.924 144.909C142.847 144.602 142.709 144.273 142.51 143.92C142.326 143.583 142.142 143.299 141.958 143.069C143.66 142.839 145.117 142.509 146.328 142.08C147.539 141.635 148.544 141.06 149.341 140.355C150.154 139.634 150.798 138.76 151.273 137.733C151.764 136.69 152.124 135.456 152.354 134.03ZM147.478 123.887L149.847 123.473C150.138 123.918 150.407 124.416 150.652 124.968C150.897 125.52 151.081 125.995 151.204 126.394L148.72 126.923C148.628 126.524 148.459 126.034 148.214 125.451C147.969 124.868 147.723 124.347 147.478 123.887ZM143.338 139.826C143.798 139.243 144.273 138.576 144.764 137.825C145.255 137.074 145.722 136.292 146.167 135.479C146.627 134.651 147.01 133.869 147.317 133.133L149.341 133.547C149.019 134.314 148.636 135.096 148.191 135.893C147.746 136.69 147.286 137.457 146.811 138.193C146.351 138.914 145.922 139.542 145.523 140.079L143.338 139.826ZM143.338 139.826L144.672 138.469C145.577 138.76 146.535 139.098 147.547 139.481C148.574 139.864 149.594 140.271 150.606 140.7C151.633 141.129 152.592 141.566 153.481 142.011C154.386 142.456 155.16 142.877 155.804 143.276L154.332 144.863C153.734 144.48 153.006 144.058 152.147 143.598C151.288 143.153 150.353 142.709 149.341 142.264C148.344 141.804 147.325 141.367 146.282 140.953C145.255 140.524 144.273 140.148 143.338 139.826ZM161.692 126.325V129.338H165.257V126.325H161.692ZM159.783 124.577H167.258V131.086H159.783V124.577ZM171.559 126.325V129.338H175.308V126.325H171.559ZM169.673 124.577H177.286V131.086H169.673V124.577ZM158.127 133.087H178.896V134.927H158.127V133.087ZM161.255 142.425H166.614V144.196H161.255V142.425ZM170.363 142.425H175.998V144.196H170.363V142.425ZM160.266 137.618H167.557V144.771H165.579V139.366H162.175V144.909H160.266V137.618ZM169.443 137.618H176.849V144.771H174.848V139.366H171.352V144.909H169.443V137.618ZM166.729 130.58L168.845 130.971C168.278 132.121 167.542 133.24 166.637 134.329C165.732 135.402 164.628 136.399 163.325 137.319C162.022 138.239 160.496 139.052 158.748 139.757C158.687 139.588 158.587 139.404 158.449 139.205C158.326 138.99 158.188 138.791 158.035 138.607C157.882 138.408 157.736 138.247 157.598 138.124C159.223 137.526 160.642 136.821 161.853 136.008C163.064 135.18 164.076 134.306 164.889 133.386C165.702 132.451 166.315 131.515 166.729 130.58ZM171.076 131.845L172.134 130.787C172.701 130.986 173.299 131.247 173.928 131.569C174.572 131.876 175.078 132.182 175.446 132.489L174.365 133.639C174.012 133.332 173.522 133.01 172.893 132.673C172.264 132.336 171.659 132.06 171.076 131.845ZM169.673 134.559L170.823 133.317C171.912 133.762 172.977 134.275 174.02 134.858C175.078 135.425 176.052 136.008 176.941 136.606C177.846 137.204 178.597 137.787 179.195 138.354L177.7 139.642C177.133 139.075 176.42 138.492 175.561 137.894C174.718 137.281 173.79 136.69 172.778 136.123C171.766 135.54 170.731 135.019 169.673 134.559Z" fill="white"/>
<defs>
<linearGradient id="paint0_linear_145_363" x1="164.606" y1="44.1061" x2="76.394" y2="196.894" gradientUnits="userSpaceOnUse">
<stop stop-color="white"/>
<stop offset="1" stop-color="white" stop-opacity="0"/>
</linearGradient>
<radialGradient id="paint1_radial_145_363" cx="0" cy="0" r="1" gradientUnits="userSpaceOnUse" gradientTransform="translate(120.634 119.91) scale(114.126)">
<stop offset="0.75" stop-color="white" stop-opacity="0"/>
<stop offset="0.77" stop-color="#FFF9E2" stop-opacity="0.9"/>
<stop offset="0.84" stop-color="#FFEC9C" stop-opacity="0.3"/>
<stop offset="0.9" stop-color="white" stop-opacity="0.1"/>
<stop offset="1" stop-color="white" stop-opacity="0"/>
</radialGradient>
<radialGradient id="paint2_radial_145_363" cx="0" cy="0" r="1" gradientUnits="userSpaceOnUse" gradientTransform="translate(7.80998 -7.41998) scale(422.74)">
<stop stop-color="#A27057"/>
<stop offset="0.14" stop-color="#BF9261"/>
<stop offset="0.22" stop-color="#D6A569"/>
<stop offset="0.34" stop-color="#FFC677"/>
<stop offset="0.81" stop-color="#AA815D"/>
<stop offset="1" stop-color="#DAAB6B"/>
</radialGradient>
</defs>
</svg>
