<svg width="300" height="28" viewBox="0 0 300 28" fill="none" xmlns="http://www.w3.org/2000/svg">
<path d="M2.121 0.239999V27.24H0.879001V0.239999H2.121ZM36.762 15.333L39.786 16.44C38.742 17.97 37.482 19.338 36.006 20.544C34.53 21.75 32.91 22.803 31.146 23.703C29.382 24.585 27.564 25.323 25.692 25.917C25.566 25.701 25.386 25.413 25.152 25.053C24.918 24.711 24.675 24.369 24.423 24.027C24.189 23.685 23.964 23.415 23.748 23.217C25.584 22.731 27.33 22.128 28.986 21.408C30.66 20.67 32.163 19.788 33.495 18.762C34.845 17.736 35.934 16.593 36.762 15.333ZM23.883 13.443L40.083 11.985L40.407 14.847L24.18 16.413L23.883 13.443ZM28.203 8.853H31.524C31.578 10.311 31.731 11.742 31.983 13.146C32.235 14.532 32.55 15.828 32.928 17.034C33.324 18.24 33.765 19.293 34.251 20.193C34.755 21.093 35.277 21.804 35.817 22.326C36.357 22.83 36.888 23.082 37.41 23.082C37.734 23.082 37.977 22.821 38.139 22.299C38.301 21.777 38.418 20.904 38.49 19.68C38.832 20.004 39.255 20.31 39.759 20.598C40.263 20.886 40.722 21.102 41.136 21.246C40.974 22.614 40.731 23.658 40.407 24.378C40.101 25.116 39.687 25.611 39.165 25.863C38.643 26.133 37.986 26.268 37.194 26.268C36.186 26.268 35.241 25.953 34.359 25.323C33.477 24.711 32.676 23.847 31.956 22.731C31.254 21.615 30.633 20.328 30.093 18.87C29.571 17.394 29.139 15.801 28.797 14.091C28.473 12.381 28.275 10.635 28.203 8.853ZM21.642 8.367L24.828 9.474C24.234 10.608 23.541 11.751 22.749 12.903C21.975 14.055 21.129 15.153 20.211 16.197C19.293 17.223 18.357 18.141 17.403 18.951C17.277 18.681 17.115 18.375 16.917 18.033C16.719 17.691 16.512 17.349 16.296 17.007C16.08 16.665 15.882 16.377 15.702 16.143C16.512 15.495 17.295 14.73 18.051 13.848C18.807 12.966 19.5 12.048 20.13 11.094C20.76 10.122 21.264 9.213 21.642 8.367ZM32.955 10.149L34.791 8.259C35.277 8.493 35.79 8.754 36.33 9.042C36.87 9.33 37.392 9.618 37.896 9.906C38.418 10.176 38.859 10.428 39.219 10.662L37.329 12.768C36.987 12.516 36.564 12.237 36.06 11.931C35.556 11.607 35.025 11.292 34.467 10.986C33.927 10.662 33.423 10.383 32.955 10.149ZM19.725 14.307L22.884 11.148L22.938 11.202V26.403H19.725V14.307ZM19.725 2.697H28.149V5.181H19.725V2.697ZM30.876 2.697H40.974V5.154H30.876V2.697ZM19.833 0.806999L22.695 1.644C22.335 2.562 21.894 3.48 21.372 4.398C20.868 5.316 20.319 6.18 19.725 6.99C19.131 7.8 18.537 8.502 17.943 9.096C17.799 8.916 17.592 8.691 17.322 8.421C17.052 8.133 16.782 7.854 16.512 7.584C16.242 7.296 15.999 7.071 15.783 6.909C16.611 6.171 17.385 5.262 18.105 4.182C18.825 3.084 19.401 1.959 19.833 0.806999ZM31.011 0.806999L33.981 1.536C33.531 2.904 32.937 4.227 32.199 5.505C31.479 6.783 30.714 7.854 29.904 8.718C29.742 8.538 29.508 8.331 29.202 8.097C28.914 7.863 28.608 7.629 28.284 7.395C27.978 7.161 27.717 6.972 27.501 6.828C28.257 6.108 28.941 5.208 29.553 4.128C30.183 3.048 30.669 1.941 31.011 0.806999ZM21.426 6.072L23.37 4.371C23.874 4.785 24.414 5.253 24.99 5.775C25.566 6.297 26.016 6.756 26.34 7.152L24.288 9.015C24 8.619 23.577 8.142 23.019 7.584C22.479 7.008 21.948 6.504 21.426 6.072ZM33.225 6.126L35.277 4.425C35.763 4.767 36.285 5.163 36.843 5.613C37.401 6.063 37.842 6.468 38.166 6.828L36.006 8.718C35.718 8.358 35.304 7.935 34.764 7.449C34.224 6.945 33.711 6.504 33.225 6.126ZM61.278 2.832L63.411 1.05C63.825 1.32 64.257 1.635 64.707 1.995C65.175 2.355 65.607 2.715 66.003 3.075C66.417 3.435 66.75 3.759 67.002 4.047L64.707 6.018C64.491 5.694 64.185 5.352 63.789 4.992C63.411 4.614 62.997 4.236 62.547 3.858C62.115 3.48 61.692 3.138 61.278 2.832ZM43.377 5.667H67.677V8.826H43.377V5.667ZM44.403 11.904H56.094V15.036H44.403V11.904ZM48.48 13.686H51.72V22.839H48.48V13.686ZM43.377 22.407C44.457 22.227 45.726 22.02 47.184 21.786C48.66 21.534 50.217 21.264 51.855 20.976C53.511 20.688 55.158 20.391 56.796 20.085L57.012 22.974C55.536 23.298 54.042 23.622 52.53 23.946C51.018 24.252 49.56 24.549 48.156 24.837C46.752 25.143 45.456 25.422 44.268 25.674L43.377 22.407ZM56.661 1.158H60.144C60.09 3.39 60.117 5.568 60.225 7.692C60.351 9.816 60.549 11.805 60.819 13.659C61.089 15.513 61.413 17.142 61.791 18.546C62.169 19.95 62.583 21.048 63.033 21.84C63.501 22.632 63.996 23.028 64.518 23.028C64.824 23.028 65.049 22.641 65.193 21.867C65.355 21.093 65.472 19.851 65.544 18.141C65.922 18.519 66.372 18.888 66.894 19.248C67.434 19.608 67.929 19.869 68.379 20.031C68.235 21.741 67.992 23.064 67.65 24C67.326 24.918 66.885 25.548 66.327 25.89C65.787 26.25 65.085 26.43 64.221 26.43C63.249 26.43 62.385 26.097 61.629 25.431C60.873 24.765 60.216 23.847 59.658 22.677C59.1 21.489 58.632 20.094 58.254 18.492C57.876 16.89 57.57 15.153 57.336 13.281C57.102 11.391 56.931 9.42 56.823 7.368C56.715 5.316 56.661 3.246 56.661 1.158ZM71.322 3.102H93.813V5.721H71.322V3.102ZM72.294 23.028H92.976V25.674H72.294V23.028ZM76.938 6.882H87.954V9.15H76.938V6.882ZM76.938 10.338H87.954V12.606H76.938V10.338ZM69.864 13.821H95.136V16.467H69.864V13.821ZM76.02 18.708H89.034V21.273H76.02V18.708ZM75.048 1.05H78.288V15.252H75.048V1.05ZM86.793 1.077H90.114V15.279H86.793V1.077ZM80.799 17.007H84.093V24.567H80.799V17.007ZM76.695 14.577L79.422 15.576C78.846 16.53 78.144 17.439 77.316 18.303C76.506 19.149 75.624 19.923 74.67 20.625C73.716 21.309 72.726 21.876 71.7 22.326C71.538 22.074 71.34 21.795 71.106 21.489C70.872 21.183 70.62 20.886 70.35 20.598C70.098 20.292 69.855 20.049 69.621 19.869C70.575 19.509 71.502 19.059 72.402 18.519C73.302 17.979 74.121 17.367 74.859 16.683C75.615 15.999 76.227 15.297 76.695 14.577ZM88.44 14.577C88.926 15.261 89.529 15.927 90.249 16.575C90.987 17.205 91.797 17.781 92.679 18.303C93.579 18.825 94.497 19.257 95.433 19.599C95.199 19.797 94.947 20.049 94.677 20.355C94.407 20.643 94.146 20.94 93.894 21.246C93.66 21.552 93.462 21.831 93.3 22.083C92.328 21.651 91.383 21.093 90.465 20.409C89.547 19.725 88.692 18.969 87.9 18.141C87.108 17.295 86.433 16.431 85.875 15.549L88.44 14.577ZM97.188 2.265H105.396V5.181H97.188V2.265ZM99.861 10.662H105.153V23.109H99.861V20.301H102.993V13.497H99.861V10.662ZM100.023 3.777L102.777 4.398C102.453 6.09 102.039 7.764 101.535 9.42C101.049 11.076 100.464 12.633 99.78 14.091C99.096 15.549 98.295 16.836 97.377 17.952C97.341 17.664 97.26 17.295 97.134 16.845C97.008 16.377 96.873 15.918 96.729 15.468C96.585 15 96.441 14.622 96.297 14.334C97.233 13.056 98.007 11.49 98.619 9.636C99.231 7.782 99.699 5.829 100.023 3.777ZM98.646 10.662H100.941V25.134H98.646V10.662ZM105.855 3.696H113.388V6.126H105.855V3.696ZM105.693 13.335H120.057V15.954H105.693V13.335ZM113.388 18.195H121.164V20.787H113.388V18.195ZM108.663 1.104H111.174V12.714H108.663V1.104ZM108.258 5.181L110.094 6.18C109.842 6.918 109.509 7.665 109.095 8.421C108.699 9.177 108.258 9.897 107.772 10.581C107.286 11.247 106.791 11.832 106.287 12.336C106.143 12.012 105.936 11.634 105.666 11.202C105.414 10.752 105.171 10.401 104.937 10.149C105.369 9.789 105.792 9.348 106.206 8.826C106.638 8.286 107.034 7.701 107.394 7.071C107.754 6.423 108.042 5.793 108.258 5.181ZM111.066 6.018C111.21 6.144 111.417 6.333 111.687 6.585C111.957 6.837 112.236 7.116 112.524 7.422C112.812 7.728 113.082 8.016 113.334 8.286C113.586 8.538 113.766 8.727 113.874 8.853L112.335 10.743C112.173 10.419 111.93 10.023 111.606 9.555C111.282 9.069 110.949 8.601 110.607 8.151C110.283 7.683 110.004 7.314 109.77 7.044L111.066 6.018ZM113.982 3.669H121.947V6.126H113.982V3.669ZM116.412 1.104H118.977V12.714H116.412V1.104ZM116.493 5.181L118.248 6.153C117.978 6.945 117.636 7.746 117.222 8.556C116.808 9.348 116.34 10.095 115.818 10.797C115.314 11.481 114.783 12.066 114.225 12.552C114.099 12.264 113.91 11.913 113.658 11.499C113.406 11.067 113.163 10.725 112.929 10.473C113.433 10.113 113.91 9.654 114.36 9.096C114.81 8.538 115.215 7.917 115.575 7.233C115.953 6.549 116.259 5.865 116.493 5.181ZM119.112 13.335H119.544L120.003 13.2L122.082 13.821C121.848 14.559 121.578 15.324 121.272 16.116C120.984 16.89 120.714 17.556 120.462 18.114L118.032 17.277C118.23 16.791 118.428 16.215 118.626 15.549C118.824 14.883 118.986 14.253 119.112 13.659V13.335ZM109.581 18.924C110.013 20.148 110.571 21.066 111.255 21.678C111.957 22.272 112.776 22.668 113.712 22.866C114.648 23.064 115.683 23.163 116.817 23.163C116.997 23.163 117.267 23.163 117.627 23.163C117.987 23.163 118.392 23.163 118.842 23.163C119.292 23.163 119.751 23.163 120.219 23.163C120.705 23.163 121.146 23.163 121.542 23.163C121.938 23.145 122.253 23.136 122.487 23.136C122.361 23.334 122.235 23.604 122.109 23.946C121.983 24.27 121.875 24.603 121.785 24.945C121.713 25.287 121.65 25.593 121.596 25.863H120.435H116.628C115.134 25.863 113.802 25.701 112.632 25.377C111.462 25.071 110.445 24.468 109.581 23.568C108.735 22.668 108.033 21.363 107.475 19.653L109.581 18.924ZM112.119 14.145H115.089V24.864L112.119 23.568V14.145ZM107.34 16.602L110.013 17.088C109.887 18.366 109.698 19.599 109.446 20.787C109.212 21.957 108.843 23.028 108.339 24C107.835 24.99 107.133 25.845 106.233 26.565L104.046 24.54C104.784 23.982 105.369 23.307 105.801 22.515C106.251 21.705 106.593 20.805 106.827 19.815C107.061 18.825 107.232 17.754 107.34 16.602ZM119.004 5.694C119.166 5.838 119.409 6.09 119.733 6.45C120.075 6.81 120.435 7.206 120.813 7.638C121.191 8.052 121.533 8.448 121.839 8.826C122.145 9.186 122.361 9.447 122.487 9.609L120.732 11.769C120.588 11.463 120.381 11.085 120.111 10.635C119.859 10.167 119.58 9.69 119.274 9.204C118.986 8.7 118.698 8.241 118.41 7.827C118.122 7.395 117.888 7.044 117.708 6.774L119.004 5.694ZM137.121 0.239999V27.24H135.879V0.239999H137.121ZM167.334 10.905H169.116V20.301H167.334V10.905ZM164.769 13.578H166.389V21.354H164.769V13.578ZM170.088 13.578H171.708V21.354H170.088V13.578ZM169.602 5.154L171.897 5.721C171.717 6.315 171.537 6.927 171.357 7.557C171.177 8.169 170.997 8.772 170.817 9.366C170.655 9.942 170.493 10.446 170.331 10.878L168.495 10.365C168.639 9.897 168.783 9.357 168.927 8.745C169.071 8.133 169.197 7.512 169.305 6.882C169.431 6.252 169.53 5.676 169.602 5.154ZM164.742 5.775L166.578 5.289C166.866 5.901 167.118 6.576 167.334 7.314C167.55 8.034 167.685 8.646 167.739 9.15L165.822 9.744C165.768 9.222 165.633 8.592 165.417 7.854C165.219 7.098 164.994 6.405 164.742 5.775ZM161.151 2.022H173.949V4.83H163.824V26.43H161.151V2.022ZM172.653 2.022H175.326V23.109C175.326 23.847 175.245 24.432 175.083 24.864C174.921 25.296 174.624 25.638 174.192 25.89C173.724 26.124 173.148 26.268 172.464 26.322C171.798 26.394 170.952 26.43 169.926 26.43C169.89 26.034 169.791 25.557 169.629 24.999C169.467 24.441 169.287 23.973 169.089 23.595C169.737 23.613 170.349 23.631 170.925 23.649C171.519 23.649 171.915 23.64 172.113 23.622C172.329 23.604 172.473 23.559 172.545 23.487C172.617 23.415 172.653 23.28 172.653 23.082V2.022ZM164.472 9.987H172.032V12.363H164.472V9.987ZM165.444 18.978H170.898V21.354H165.444V18.978ZM152.43 7.8H159.531V10.392H152.43V7.8ZM151.377 12.471H160.368V15.117H151.377V12.471ZM151.377 16.737L153.321 16.251C153.555 16.989 153.762 17.799 153.942 18.681C154.122 19.545 154.239 20.292 154.293 20.922L152.214 21.489C152.196 20.823 152.106 20.058 151.944 19.194C151.782 18.312 151.593 17.493 151.377 16.737ZM151.053 22.974C152.277 22.794 153.744 22.56 155.454 22.272C157.164 21.966 158.883 21.651 160.611 21.327L160.854 24C159.27 24.342 157.677 24.666 156.075 24.972C154.491 25.296 153.042 25.584 151.728 25.836L151.053 22.974ZM158.181 16.035L160.395 16.548C160.197 17.304 159.999 18.087 159.801 18.897C159.621 19.689 159.45 20.364 159.288 20.922L157.371 20.436C157.479 20.04 157.587 19.581 157.695 19.059C157.803 18.537 157.902 18.006 157.992 17.466C158.082 16.926 158.145 16.449 158.181 16.035ZM154.482 8.907H157.155V23.001L154.482 23.406V8.907ZM155.238 0.968999L157.506 1.995C157.056 2.967 156.525 3.939 155.913 4.911C155.301 5.865 154.644 6.756 153.942 7.584C153.24 8.412 152.52 9.132 151.782 9.744C151.728 9.51 151.629 9.204 151.485 8.826C151.341 8.43 151.188 8.034 151.026 7.638C150.864 7.242 150.72 6.927 150.594 6.693C151.476 6.027 152.34 5.19 153.186 4.182C154.032 3.156 154.716 2.085 155.238 0.968999ZM154.185 4.263L155.481 1.995C156.237 2.391 156.984 2.832 157.722 3.318C158.46 3.804 159.153 4.29 159.801 4.776C160.449 5.262 160.989 5.73 161.421 6.18L159.909 8.664C159.495 8.196 158.973 7.701 158.343 7.179C157.713 6.657 157.038 6.144 156.318 5.64C155.616 5.136 154.905 4.677 154.185 4.263ZM181.671 9.447H188.043V12.12H181.671V9.447ZM190.365 11.256H200.652V14.172H190.365V11.256ZM186.531 9.447H189.609V23.136C189.609 23.838 189.528 24.405 189.366 24.837C189.222 25.269 188.925 25.611 188.475 25.863C188.043 26.097 187.512 26.241 186.882 26.295C186.27 26.367 185.55 26.403 184.722 26.403C184.668 25.971 184.56 25.476 184.398 24.918C184.236 24.36 184.056 23.874 183.858 23.46C184.326 23.478 184.776 23.496 185.208 23.514C185.658 23.514 185.964 23.514 186.126 23.514C186.396 23.496 186.531 23.352 186.531 23.082V9.447ZM199.302 11.256H202.434C202.434 11.256 202.425 11.346 202.407 11.526C202.407 11.688 202.407 11.868 202.407 12.066C202.407 12.264 202.407 12.435 202.407 12.579C202.335 14.649 202.263 16.413 202.191 17.871C202.137 19.329 202.056 20.544 201.948 21.516C201.858 22.47 201.75 23.226 201.624 23.784C201.498 24.342 201.336 24.756 201.138 25.026C200.85 25.404 200.553 25.674 200.247 25.836C199.959 25.998 199.608 26.115 199.194 26.187C198.834 26.259 198.384 26.295 197.844 26.295C197.304 26.313 196.719 26.313 196.089 26.295C196.071 25.827 195.981 25.305 195.819 24.729C195.675 24.153 195.486 23.658 195.252 23.244C195.738 23.28 196.179 23.307 196.575 23.325C196.989 23.325 197.313 23.325 197.547 23.325C197.745 23.325 197.907 23.307 198.033 23.271C198.159 23.217 198.285 23.109 198.411 22.947C198.573 22.731 198.708 22.245 198.816 21.489C198.924 20.733 199.014 19.581 199.086 18.033C199.176 16.485 199.248 14.424 199.302 11.85V11.256ZM180.294 9.447H183.345V15.387C183.345 16.233 183.309 17.151 183.237 18.141C183.165 19.131 183.039 20.13 182.859 21.138C182.679 22.128 182.409 23.082 182.049 24C181.689 24.936 181.221 25.782 180.645 26.538C180.465 26.358 180.213 26.151 179.889 25.917C179.583 25.701 179.259 25.485 178.917 25.269C178.575 25.071 178.278 24.918 178.026 24.81C178.728 23.892 179.241 22.893 179.565 21.813C179.889 20.715 180.087 19.608 180.159 18.492C180.249 17.358 180.294 16.314 180.294 15.36V9.447ZM181.779 2.967H190.203V5.667H181.779V2.967ZM192.984 2.967H202.974V5.667H192.984V2.967ZM181.833 0.860999L184.911 1.671C184.569 2.643 184.146 3.606 183.642 4.56C183.138 5.514 182.598 6.405 182.022 7.233C181.446 8.061 180.87 8.79 180.294 9.42C180.096 9.24 179.835 9.042 179.511 8.826C179.187 8.61 178.845 8.394 178.485 8.178C178.143 7.962 177.837 7.791 177.567 7.665C178.467 6.855 179.286 5.838 180.024 4.614C180.78 3.39 181.383 2.139 181.833 0.860999ZM193.065 0.860999L196.251 1.671C195.693 3.129 194.982 4.533 194.118 5.883C193.254 7.233 192.363 8.349 191.445 9.231C191.229 9.051 190.95 8.844 190.608 8.61C190.284 8.376 189.942 8.151 189.582 7.935C189.24 7.701 188.943 7.512 188.691 7.368C189.627 6.612 190.482 5.658 191.256 4.506C192.048 3.336 192.651 2.121 193.065 0.860999ZM183.804 6.585L186.45 5.613C186.774 6.027 187.089 6.495 187.395 7.017C187.701 7.521 187.926 7.953 188.07 8.313L185.289 9.393C185.163 9.015 184.956 8.565 184.668 8.043C184.398 7.503 184.11 7.017 183.804 6.585ZM195.954 6.477L198.627 5.505C199.005 5.937 199.383 6.432 199.761 6.99C200.139 7.548 200.427 8.034 200.625 8.448L197.817 9.528C197.655 9.114 197.394 8.619 197.034 8.043C196.674 7.467 196.314 6.945 195.954 6.477ZM193.362 8.691H196.359V13.767C196.359 14.811 196.296 15.882 196.17 16.98C196.062 18.06 195.837 19.149 195.495 20.247C195.153 21.345 194.658 22.416 194.01 23.46C193.38 24.504 192.543 25.494 191.499 26.43C191.229 26.106 190.878 25.755 190.446 25.377C190.014 24.999 189.609 24.684 189.231 24.432C190.149 23.586 190.878 22.704 191.418 21.786C191.976 20.868 192.39 19.95 192.66 19.032C192.948 18.096 193.137 17.178 193.227 16.278C193.317 15.378 193.362 14.532 193.362 13.74V8.691ZM182.265 18.951C182.931 18.771 183.705 18.537 184.587 18.249C185.469 17.961 186.396 17.664 187.368 17.358L187.746 19.356C186.972 19.77 186.216 20.175 185.478 20.571C184.758 20.967 184.047 21.354 183.345 21.732L182.265 18.951ZM182.832 14.685L184.587 13.092C185.091 13.434 185.595 13.812 186.099 14.226C186.603 14.622 186.999 14.982 187.287 15.306L185.505 17.169C185.217 16.827 184.812 16.422 184.29 15.954C183.786 15.468 183.3 15.045 182.832 14.685ZM213.936 2.238H229.65V4.29H213.936V2.238ZM214.908 5.208H228.813V7.152H214.908V5.208ZM220.362 1.05H223.521V6.342H220.362V1.05ZM216.663 9.879V11.472H226.842V9.879H216.663ZM214.044 7.908H229.623V13.443H214.044V7.908ZM217.878 17.898V18.735H225.735V17.898H217.878ZM217.878 19.896V20.76H225.735V19.896H217.878ZM217.878 15.927V16.71H225.735V15.927H217.878ZM214.989 14.253H228.732V22.407H214.989V14.253ZM222.954 24.054L224.061 22.029C225.123 22.353 226.212 22.722 227.328 23.136C228.444 23.532 229.371 23.883 230.109 24.189L228.813 26.43C228.111 26.106 227.22 25.719 226.14 25.269C225.06 24.819 223.998 24.414 222.954 24.054ZM219.444 21.975L221.469 24.027C220.389 24.477 219.228 24.927 217.986 25.377C216.744 25.845 215.628 26.25 214.638 26.592C214.512 26.268 214.341 25.89 214.125 25.458C213.927 25.044 213.72 24.675 213.504 24.351C214.098 24.171 214.755 23.946 215.475 23.676C216.213 23.406 216.933 23.127 217.635 22.839C218.337 22.533 218.94 22.245 219.444 21.975ZM218.607 8.637H220.983V12.741H218.607V8.637ZM222.765 8.637H225.141V12.741H222.765V8.637ZM210.966 12.309L213.126 11.715C213.342 12.327 213.54 12.984 213.72 13.686C213.918 14.388 214.089 15.063 214.233 15.711C214.377 16.341 214.485 16.899 214.557 17.385L212.262 18.114C212.208 17.61 212.118 17.025 211.992 16.359C211.866 15.693 211.713 15.009 211.533 14.307C211.353 13.587 211.164 12.921 210.966 12.309ZM208.698 19.221L210.858 18.843C211.002 19.833 211.128 20.904 211.236 22.056C211.362 23.208 211.434 24.216 211.452 25.08L209.157 25.485C209.175 24.909 209.157 24.261 209.103 23.541C209.067 22.821 209.013 22.083 208.941 21.327C208.869 20.571 208.788 19.869 208.698 19.221ZM205.863 18.897L208.32 19.275C208.212 20.553 208.05 21.822 207.834 23.082C207.636 24.342 207.384 25.404 207.078 26.268C206.826 26.124 206.448 25.971 205.944 25.809C205.458 25.647 205.053 25.53 204.729 25.458C205.035 24.612 205.278 23.595 205.458 22.407C205.638 21.219 205.773 20.049 205.863 18.897ZM205.593 11.796C205.539 11.598 205.458 11.346 205.35 11.04C205.26 10.716 205.152 10.392 205.026 10.068C204.918 9.744 204.81 9.465 204.702 9.231C204.936 9.159 205.17 8.997 205.404 8.745C205.638 8.475 205.881 8.142 206.133 7.746C206.313 7.494 206.574 7.026 206.916 6.342C207.276 5.64 207.654 4.821 208.05 3.885C208.446 2.931 208.788 1.977 209.076 1.023L211.722 2.076C211.344 3.048 210.903 4.038 210.399 5.046C209.913 6.036 209.4 6.981 208.86 7.881C208.32 8.781 207.789 9.591 207.267 10.311V10.392C207.267 10.392 207.177 10.437 206.997 10.527C206.835 10.617 206.637 10.734 206.403 10.878C206.187 11.022 205.998 11.175 205.836 11.337C205.674 11.499 205.593 11.652 205.593 11.796ZM205.593 11.796L205.512 9.582L206.808 8.772L211.452 8.421C211.38 8.799 211.317 9.231 211.263 9.717C211.209 10.203 211.173 10.608 211.155 10.932C209.787 11.076 208.725 11.202 207.969 11.31C207.231 11.4 206.691 11.481 206.349 11.553C206.025 11.625 205.773 11.706 205.593 11.796ZM205.809 18.06C205.755 17.88 205.674 17.628 205.566 17.304C205.458 16.98 205.341 16.647 205.215 16.305C205.107 15.963 204.999 15.675 204.891 15.441C205.215 15.351 205.53 15.153 205.836 14.847C206.142 14.523 206.493 14.109 206.889 13.605C207.105 13.353 207.411 12.939 207.807 12.363C208.203 11.769 208.644 11.076 209.13 10.284C209.616 9.474 210.093 8.61 210.561 7.692C211.047 6.756 211.479 5.82 211.857 4.884L214.314 6.342C213.72 7.566 213.045 8.79 212.289 10.014C211.551 11.238 210.768 12.417 209.94 13.551C209.112 14.667 208.284 15.675 207.456 16.575V16.683C207.456 16.683 207.375 16.728 207.213 16.818C207.051 16.908 206.853 17.025 206.619 17.169C206.403 17.313 206.214 17.466 206.052 17.628C205.89 17.79 205.809 17.934 205.809 18.06ZM205.809 18.06L205.674 15.819L206.97 14.928L213.126 14.199C213.072 14.577 213.018 15.018 212.964 15.522C212.928 16.008 212.919 16.395 212.937 16.683C211.551 16.881 210.426 17.052 209.562 17.196C208.698 17.34 208.014 17.466 207.51 17.574C207.024 17.664 206.655 17.745 206.403 17.817C206.151 17.889 205.953 17.97 205.809 18.06ZM211.236 18.708L213.234 18.114C213.504 18.888 213.765 19.734 214.017 20.652C214.269 21.552 214.449 22.326 214.557 22.974L212.478 23.676C212.37 23.01 212.199 22.218 211.965 21.3C211.731 20.364 211.488 19.5 211.236 18.708ZM231.567 14.766C232.629 14.514 233.907 14.199 235.401 13.821C236.895 13.425 238.398 13.011 239.91 12.579L240.342 15.495C238.956 15.927 237.561 16.35 236.157 16.764C234.753 17.16 233.457 17.529 232.269 17.871L231.567 14.766ZM231.999 6.18H240.207V9.15H231.999V6.18ZM234.834 1.077H237.831V22.839C237.831 23.577 237.75 24.162 237.588 24.594C237.444 25.044 237.156 25.395 236.724 25.647C236.328 25.881 235.824 26.043 235.212 26.133C234.618 26.223 233.88 26.259 232.998 26.241C232.962 25.845 232.863 25.35 232.701 24.756C232.557 24.18 232.386 23.676 232.188 23.244C232.674 23.262 233.124 23.28 233.538 23.298C233.952 23.298 234.24 23.289 234.402 23.271C234.69 23.271 234.834 23.118 234.834 22.812V1.077ZM241.395 3.453H256.272V6.18H241.395V3.453ZM240.774 9.69H256.785V12.444H240.774V9.69ZM243.312 6.882L246.012 5.964C246.354 6.432 246.678 6.954 246.984 7.53C247.29 8.088 247.506 8.574 247.632 8.988L244.797 10.041C244.689 9.627 244.491 9.123 244.203 8.529C243.915 7.917 243.618 7.368 243.312 6.882ZM251.385 6.018L254.382 6.909C254.022 7.611 253.653 8.295 253.275 8.961C252.897 9.609 252.555 10.176 252.249 10.662L249.711 9.825C249.909 9.465 250.107 9.069 250.305 8.637C250.521 8.187 250.719 7.737 250.899 7.287C251.097 6.819 251.259 6.396 251.385 6.018ZM240.504 14.847H257.19V17.574H240.504V14.847ZM252.195 13.254L255.3 13.74C254.976 15.756 254.481 17.484 253.815 18.924C253.149 20.364 252.267 21.57 251.169 22.542C250.089 23.514 248.748 24.306 247.146 24.918C245.544 25.548 243.627 26.043 241.395 26.403C241.305 25.971 241.116 25.494 240.828 24.972C240.558 24.45 240.288 24.018 240.018 23.676C242.016 23.442 243.717 23.091 245.121 22.623C246.543 22.137 247.722 21.498 248.658 20.706C249.612 19.896 250.368 18.888 250.926 17.682C251.484 16.458 251.907 14.982 252.195 13.254ZM246.444 1.536L250.089 0.914999C250.395 1.437 250.692 2.013 250.98 2.643C251.268 3.255 251.493 3.804 251.655 4.29L247.875 5.073C247.767 4.605 247.569 4.038 247.281 3.372C247.011 2.688 246.732 2.076 246.444 1.536ZM241.638 20.49C242.196 19.77 242.772 18.951 243.366 18.033C243.96 17.115 244.527 16.161 245.067 15.171C245.607 14.181 246.057 13.236 246.417 12.336L249.441 12.957C249.045 13.875 248.577 14.82 248.037 15.792C247.497 16.764 246.948 17.691 246.39 18.573C245.832 19.455 245.319 20.22 244.851 20.868L241.638 20.49ZM241.638 20.49L243.528 18.411C244.59 18.735 245.724 19.113 246.93 19.545C248.154 19.977 249.369 20.445 250.575 20.949C251.781 21.453 252.915 21.966 253.977 22.488C255.057 23.01 255.984 23.505 256.758 23.973L254.652 26.349C253.968 25.881 253.113 25.386 252.087 24.864C251.061 24.342 249.954 23.811 248.766 23.271C247.578 22.731 246.372 22.218 245.148 21.732C243.924 21.246 242.754 20.832 241.638 20.49ZM263.913 4.722V7.503H267.288V4.722H263.913ZM261.105 2.157H270.258V10.068H261.105V2.157ZM275.55 4.722V7.503H279.087V4.722H275.55ZM272.769 2.157H282.03V10.068H272.769V2.157ZM259.215 12.12H283.812V14.82H259.215V12.12ZM263.211 23.001H269.151V25.566H263.211V23.001ZM273.822 23.001H280.194V25.566H273.822V23.001ZM261.726 17.655H270.636V26.214H267.666V20.22H264.534V26.376H261.726V17.655ZM272.445 17.655H281.409V26.214H278.439V20.22H275.253V26.376H272.445V17.655ZM268.989 9.366L272.094 9.933C271.41 11.355 270.537 12.714 269.475 14.01C268.413 15.288 267.126 16.467 265.614 17.547C264.102 18.627 262.32 19.59 260.268 20.436C260.16 20.184 260.007 19.905 259.809 19.599C259.629 19.275 259.431 18.969 259.215 18.681C258.999 18.393 258.792 18.168 258.594 18.006C260.466 17.304 262.086 16.494 263.454 15.576C264.822 14.64 265.965 13.641 266.883 12.579C267.801 11.517 268.503 10.446 268.989 9.366ZM274.443 10.932L275.982 9.42C276.648 9.654 277.35 9.96 278.088 10.338C278.826 10.698 279.411 11.058 279.843 11.418L278.223 13.038C277.827 12.696 277.26 12.327 276.522 11.931C275.802 11.517 275.109 11.184 274.443 10.932ZM272.634 14.28L274.281 12.444C275.595 12.966 276.882 13.569 278.142 14.253C279.402 14.937 280.563 15.648 281.625 16.386C282.705 17.106 283.605 17.808 284.325 18.492L282.138 20.382C281.472 19.68 280.635 18.969 279.627 18.249C278.619 17.511 277.512 16.8 276.306 16.116C275.118 15.432 273.894 14.82 272.634 14.28ZM299.121 0.239999V27.24H297.879V0.239999H299.121Z" fill="white"/>
</svg>
