<svg width="504" height="49" viewBox="0 0 504 49" fill="none" xmlns="http://www.w3.org/2000/svg">
<path d="M4.626 8.8H15.228V17.566H13.536V10.114H6.264V17.566H4.626V8.8ZM1.026 6.37H16.974V7.756H1.026V6.37ZM2.304 3.976H15.966V5.29H2.304V3.976ZM5.724 11.14H14.22V12.256H5.724V11.14ZM5.724 13.318H14.22V14.434H5.724V13.318ZM5.562 15.55H14.238V16.864H5.562V15.55ZM14.796 0.915999L15.84 2.14C14.964 2.296 13.98 2.434 12.888 2.554C11.808 2.662 10.674 2.752 9.486 2.824C8.298 2.884 7.098 2.932 5.886 2.968C4.686 3.004 3.528 3.022 2.412 3.022C2.4 2.83 2.358 2.608 2.286 2.356C2.226 2.104 2.16 1.894 2.088 1.726C3.18 1.714 4.314 1.696 5.49 1.672C6.678 1.636 7.842 1.588 8.982 1.528C10.134 1.456 11.208 1.372 12.204 1.276C13.2 1.168 14.064 1.048 14.796 0.915999ZM7.29 2.266L9.054 2.626C8.658 4.09 8.136 5.512 7.488 6.892C6.84 8.272 6.036 9.538 5.076 10.69C4.116 11.842 2.952 12.82 1.584 13.624C1.512 13.492 1.41 13.342 1.278 13.174C1.158 13.006 1.026 12.844 0.882 12.688C0.75 12.52 0.63 12.382 0.522 12.274C1.794 11.566 2.874 10.684 3.762 9.628C4.662 8.56 5.4 7.396 5.976 6.136C6.552 4.864 6.99 3.574 7.29 2.266ZM19.206 2.05H34.794V3.778H19.206V2.05ZM27.972 7.63L29.268 6.532C29.784 6.88 30.324 7.258 30.888 7.666C31.464 8.074 32.034 8.5 32.598 8.944C33.162 9.376 33.684 9.802 34.164 10.222C34.656 10.642 35.064 11.026 35.388 11.374L33.966 12.688C33.666 12.328 33.282 11.938 32.814 11.518C32.346 11.086 31.836 10.642 31.284 10.186C30.744 9.73 30.186 9.286 29.61 8.854C29.046 8.41 28.5 8.002 27.972 7.63ZM27.468 2.662L29.34 3.346C28.668 4.582 27.852 5.794 26.892 6.982C25.944 8.17 24.876 9.268 23.688 10.276C22.512 11.272 21.24 12.13 19.872 12.85C19.788 12.706 19.674 12.544 19.53 12.364C19.386 12.172 19.242 11.986 19.098 11.806C18.966 11.614 18.834 11.458 18.702 11.338C19.686 10.858 20.616 10.294 21.492 9.646C22.368 8.998 23.184 8.296 23.94 7.54C24.708 6.772 25.386 5.974 25.974 5.146C26.574 4.318 27.072 3.49 27.468 2.662ZM26.064 6.586L27.918 4.75V4.768V17.476H26.064V6.586ZM40.896 5.848V7.378H49.104V5.848H40.896ZM40.896 8.782V10.33H49.104V8.782H40.896ZM40.896 2.914V4.426H49.104V2.914H40.896ZM39.24 1.402H50.832V11.842H39.24V1.402ZM46.008 10.708H47.754V15.118C47.754 15.394 47.802 15.574 47.898 15.658C48.006 15.73 48.246 15.766 48.618 15.766C48.69 15.766 48.828 15.766 49.032 15.766C49.248 15.766 49.482 15.766 49.734 15.766C49.986 15.766 50.22 15.766 50.436 15.766C50.664 15.766 50.832 15.766 50.94 15.766C51.18 15.766 51.354 15.712 51.462 15.604C51.582 15.484 51.666 15.244 51.714 14.884C51.762 14.524 51.798 13.984 51.822 13.264C51.942 13.36 52.092 13.456 52.272 13.552C52.464 13.636 52.662 13.714 52.866 13.786C53.07 13.858 53.25 13.912 53.406 13.948C53.346 14.86 53.238 15.562 53.082 16.054C52.926 16.546 52.692 16.888 52.38 17.08C52.068 17.272 51.642 17.368 51.102 17.368C51.018 17.368 50.88 17.368 50.688 17.368C50.508 17.368 50.304 17.368 50.076 17.368C49.848 17.368 49.62 17.368 49.392 17.368C49.164 17.368 48.96 17.368 48.78 17.368C48.612 17.368 48.486 17.368 48.402 17.368C47.778 17.368 47.286 17.302 46.926 17.17C46.578 17.038 46.338 16.804 46.206 16.468C46.074 16.144 46.008 15.7 46.008 15.136V10.708ZM41.652 11.248H43.488C43.392 12.052 43.242 12.79 43.038 13.462C42.846 14.122 42.54 14.71 42.12 15.226C41.7 15.742 41.124 16.192 40.392 16.576C39.672 16.972 38.742 17.296 37.602 17.548C37.554 17.404 37.476 17.236 37.368 17.044C37.26 16.864 37.14 16.678 37.008 16.486C36.876 16.306 36.75 16.162 36.63 16.054C37.638 15.85 38.454 15.604 39.078 15.316C39.714 15.028 40.206 14.692 40.554 14.308C40.902 13.912 41.154 13.462 41.31 12.958C41.466 12.454 41.58 11.884 41.652 11.248ZM56.448 3.706H61.956V15.64H56.448V14.11H60.39V5.218H56.448V3.706ZM55.458 3.706H57.024V17.026H55.458V3.706ZM56.376 8.638H61.182V10.114H56.376V8.638ZM58.122 0.772L59.976 1.078C59.784 1.654 59.58 2.236 59.364 2.824C59.148 3.412 58.95 3.91 58.77 4.318L57.42 3.994C57.504 3.694 57.594 3.358 57.69 2.986C57.786 2.602 57.87 2.218 57.942 1.834C58.026 1.438 58.086 1.084 58.122 0.772ZM64.44 3.616H69.84V5.182H64.44V3.616ZM69.246 3.616H70.83C70.83 3.616 70.83 3.67 70.83 3.778C70.83 3.874 70.83 3.988 70.83 4.12C70.83 4.252 70.83 4.354 70.83 4.426C70.77 6.478 70.704 8.218 70.632 9.646C70.56 11.062 70.476 12.226 70.38 13.138C70.296 14.05 70.188 14.758 70.056 15.262C69.936 15.766 69.786 16.132 69.606 16.36C69.378 16.66 69.144 16.864 68.904 16.972C68.664 17.092 68.37 17.176 68.022 17.224C67.71 17.26 67.302 17.272 66.798 17.26C66.306 17.26 65.802 17.248 65.286 17.224C65.274 16.984 65.214 16.702 65.106 16.378C65.01 16.066 64.878 15.796 64.71 15.568C65.298 15.616 65.838 15.646 66.33 15.658C66.822 15.67 67.182 15.676 67.41 15.676C67.59 15.676 67.734 15.658 67.842 15.622C67.962 15.586 68.076 15.508 68.184 15.388C68.328 15.22 68.454 14.896 68.562 14.416C68.67 13.924 68.766 13.234 68.85 12.346C68.934 11.446 69.006 10.306 69.066 8.926C69.138 7.546 69.198 5.89 69.246 3.958V3.616ZM64.674 0.772L66.312 1.15C66.084 2.038 65.808 2.914 65.484 3.778C65.172 4.642 64.83 5.458 64.458 6.226C64.086 6.982 63.69 7.648 63.27 8.224C63.174 8.128 63.036 8.02 62.856 7.9C62.688 7.768 62.514 7.642 62.334 7.522C62.166 7.402 62.01 7.306 61.866 7.234C62.274 6.718 62.652 6.112 63 5.416C63.36 4.72 63.678 3.976 63.954 3.184C64.242 2.38 64.482 1.576 64.674 0.772ZM63.81 8.53L65.142 7.774C65.466 8.182 65.802 8.638 66.15 9.142C66.51 9.634 66.84 10.114 67.14 10.582C67.452 11.05 67.704 11.464 67.896 11.824L66.456 12.724C66.288 12.352 66.054 11.926 65.754 11.446C65.454 10.966 65.136 10.468 64.8 9.952C64.464 9.436 64.134 8.962 63.81 8.53ZM77.022 8.026L78.192 7.612C78.384 7.972 78.564 8.362 78.732 8.782C78.9 9.202 79.044 9.61 79.164 10.006C79.296 10.39 79.392 10.732 79.452 11.032L78.192 11.518C78.132 11.218 78.042 10.87 77.922 10.474C77.814 10.066 77.682 9.652 77.526 9.232C77.37 8.8 77.202 8.398 77.022 8.026ZM75.258 12.688L76.464 12.418C76.584 13.03 76.686 13.69 76.77 14.398C76.866 15.094 76.932 15.706 76.968 16.234L75.69 16.54C75.678 16.012 75.63 15.394 75.546 14.686C75.462 13.966 75.366 13.3 75.258 12.688ZM73.278 12.526L74.61 12.742C74.526 13.522 74.406 14.308 74.25 15.1C74.106 15.892 73.938 16.57 73.746 17.134C73.602 17.05 73.398 16.96 73.134 16.864C72.87 16.78 72.654 16.714 72.486 16.666C72.702 16.126 72.87 15.484 72.99 14.74C73.11 13.996 73.206 13.258 73.278 12.526ZM73.026 7.72C73.002 7.624 72.96 7.492 72.9 7.324C72.852 7.144 72.792 6.964 72.72 6.784C72.66 6.604 72.6 6.448 72.54 6.316C72.696 6.268 72.852 6.16 73.008 5.992C73.176 5.824 73.35 5.602 73.53 5.326C73.662 5.158 73.86 4.84 74.124 4.372C74.4 3.904 74.694 3.358 75.006 2.734C75.318 2.11 75.582 1.474 75.798 0.825999L77.238 1.42C76.794 2.416 76.284 3.4 75.708 4.372C75.144 5.344 74.568 6.19 73.98 6.91V6.946C73.98 6.946 73.932 6.97 73.836 7.018C73.74 7.066 73.632 7.132 73.512 7.216C73.392 7.3 73.278 7.39 73.17 7.486C73.074 7.57 73.026 7.648 73.026 7.72ZM73.044 7.684L73.008 6.568L73.71 6.118L76.86 5.866C76.824 6.07 76.794 6.292 76.77 6.532C76.746 6.772 76.728 6.97 76.716 7.126C76.008 7.21 75.426 7.282 74.97 7.342C74.526 7.39 74.178 7.432 73.926 7.468C73.674 7.504 73.482 7.54 73.35 7.576C73.218 7.612 73.116 7.648 73.044 7.684ZM73.17 11.842C73.146 11.734 73.104 11.596 73.044 11.428C72.984 11.248 72.918 11.068 72.846 10.888C72.786 10.696 72.732 10.54 72.684 10.42C72.888 10.372 73.092 10.24 73.296 10.024C73.512 9.808 73.758 9.532 74.034 9.196C74.178 9.028 74.394 8.752 74.682 8.368C74.97 7.984 75.282 7.528 75.618 7C75.966 6.46 76.314 5.884 76.662 5.272C77.022 4.648 77.346 4.03 77.634 3.418L78.948 4.21C78.516 5.038 78.03 5.86 77.49 6.676C76.962 7.492 76.41 8.272 75.834 9.016C75.27 9.748 74.7 10.42 74.124 11.032V11.068C74.124 11.068 74.076 11.092 73.98 11.14C73.884 11.188 73.77 11.254 73.638 11.338C73.518 11.41 73.41 11.494 73.314 11.59C73.218 11.674 73.17 11.758 73.17 11.842ZM73.17 11.842L73.116 10.69L73.818 10.204L78.642 9.556C78.618 9.748 78.6 9.964 78.588 10.204C78.576 10.444 78.576 10.642 78.588 10.798C77.484 10.966 76.596 11.11 75.924 11.23C75.252 11.338 74.73 11.428 74.358 11.5C73.998 11.572 73.734 11.632 73.566 11.68C73.398 11.728 73.266 11.782 73.17 11.842ZM77.256 12.31L78.39 11.932C78.606 12.484 78.816 13.084 79.02 13.732C79.224 14.368 79.374 14.914 79.47 15.37L78.264 15.802C78.18 15.322 78.036 14.758 77.832 14.11C77.64 13.45 77.448 12.85 77.256 12.31ZM81 14.524H87.966V16.108H81V14.524ZM80.964 8.26H88.038V9.844H80.964V8.26ZM83.61 2.932H85.176V15.28H83.61V2.932ZM80.1 1.708H88.902V17.062H87.282V3.418H81.666V17.206H80.1V1.708ZM92.88 8.512H97.704V9.754H92.88V8.512ZM92.61 5.956H98.766V12.184H92.628V10.888H97.164V7.27H92.61V5.956ZM95.508 13.048L96.858 12.436C97.17 12.832 97.488 13.27 97.812 13.75C98.148 14.218 98.454 14.674 98.73 15.118C99.018 15.562 99.258 15.952 99.45 16.288L98.028 17.044C97.86 16.696 97.632 16.288 97.344 15.82C97.056 15.352 96.75 14.878 96.426 14.398C96.114 13.906 95.808 13.456 95.508 13.048ZM99.954 5.956H105.696V7.504H101.538V17.476H99.954V5.956ZM104.922 5.956H106.542V13.552C106.542 13.96 106.488 14.29 106.38 14.542C106.284 14.794 106.08 14.986 105.768 15.118C105.48 15.238 105.102 15.316 104.634 15.352C104.166 15.376 103.584 15.388 102.888 15.388C102.852 15.16 102.786 14.896 102.69 14.596C102.594 14.296 102.492 14.038 102.384 13.822C102.864 13.834 103.308 13.84 103.716 13.84C104.136 13.84 104.418 13.84 104.562 13.84C104.706 13.828 104.802 13.804 104.85 13.768C104.898 13.72 104.922 13.636 104.922 13.516V5.956ZM91.962 17.098L91.818 15.748L92.556 15.19L97.686 14.056C97.65 14.284 97.626 14.548 97.614 14.848C97.614 15.136 97.62 15.37 97.632 15.55C96.468 15.826 95.532 16.054 94.824 16.234C94.128 16.414 93.588 16.552 93.204 16.648C92.82 16.756 92.538 16.84 92.358 16.9C92.19 16.972 92.058 17.038 91.962 17.098ZM91.962 17.098C91.914 16.978 91.842 16.828 91.746 16.648C91.662 16.48 91.566 16.312 91.458 16.144C91.362 15.988 91.266 15.856 91.17 15.748C91.338 15.652 91.5 15.484 91.656 15.244C91.824 15.004 91.908 14.692 91.908 14.308V5.956H93.474V15.514C93.474 15.514 93.396 15.568 93.24 15.676C93.084 15.784 92.904 15.922 92.7 16.09C92.508 16.258 92.334 16.432 92.178 16.612C92.034 16.792 91.962 16.954 91.962 17.098ZM93.24 2.014H98.928V3.472H93.24V2.014ZM100.458 2.014H107.244V3.472H100.458V2.014ZM93.402 0.682L95.076 1.186C94.824 1.81 94.518 2.428 94.158 3.04C93.81 3.652 93.432 4.228 93.024 4.768C92.628 5.308 92.214 5.782 91.782 6.19C91.71 6.07 91.608 5.92 91.476 5.74C91.344 5.548 91.2 5.362 91.044 5.182C90.9 4.99 90.768 4.84 90.648 4.732C91.212 4.24 91.74 3.634 92.232 2.914C92.724 2.194 93.114 1.45 93.402 0.682ZM100.602 0.7L102.33 1.132C102.138 1.792 101.898 2.446 101.61 3.094C101.334 3.73 101.028 4.33 100.692 4.894C100.356 5.458 99.996 5.95 99.612 6.37C99.528 6.262 99.402 6.13 99.234 5.974C99.078 5.818 98.91 5.662 98.73 5.506C98.562 5.35 98.412 5.224 98.28 5.128C98.796 4.588 99.252 3.928 99.648 3.148C100.056 2.368 100.374 1.552 100.602 0.7ZM94.338 4.3L95.526 3.364C95.802 3.604 96.09 3.886 96.39 4.21C96.69 4.522 96.918 4.798 97.074 5.038L95.832 6.082C95.688 5.842 95.472 5.554 95.184 5.218C94.896 4.87 94.614 4.564 94.338 4.3ZM102.204 4.21L103.356 3.274C103.644 3.514 103.944 3.796 104.256 4.12C104.568 4.432 104.802 4.708 104.958 4.948L103.734 5.974C103.59 5.734 103.368 5.446 103.068 5.11C102.768 4.774 102.48 4.474 102.204 4.21ZM109.17 4.426H124.92V6.172H109.17V4.426ZM118.566 0.807999H120.438V15.082C120.438 15.634 120.36 16.054 120.204 16.342C120.06 16.63 119.808 16.846 119.448 16.99C119.1 17.134 118.632 17.224 118.044 17.26C117.456 17.296 116.712 17.314 115.812 17.314C115.788 17.146 115.74 16.954 115.668 16.738C115.608 16.522 115.536 16.3 115.452 16.072C115.38 15.856 115.302 15.67 115.218 15.514C115.614 15.526 116.004 15.538 116.388 15.55C116.784 15.55 117.132 15.55 117.432 15.55C117.732 15.55 117.936 15.55 118.044 15.55C118.236 15.538 118.368 15.502 118.44 15.442C118.524 15.37 118.566 15.244 118.566 15.064V0.807999ZM117.648 4.714L119.16 5.668C118.668 6.592 118.08 7.528 117.396 8.476C116.724 9.412 115.98 10.312 115.164 11.176C114.348 12.04 113.496 12.838 112.608 13.57C111.732 14.302 110.838 14.932 109.926 15.46C109.782 15.208 109.584 14.938 109.332 14.65C109.08 14.362 108.834 14.122 108.594 13.93C109.494 13.462 110.388 12.892 111.276 12.22C112.164 11.536 113.01 10.786 113.814 9.97C114.618 9.142 115.344 8.284 115.992 7.396C116.652 6.496 117.204 5.602 117.648 4.714ZM127.044 8.638H142.992V10.15H127.044V8.638ZM135.072 11.86H141.822V13.354H135.072V11.86ZM134.316 9.358H136.026V16.108H134.316V9.358ZM131.112 12.256C131.46 13.192 131.946 13.9 132.57 14.38C133.194 14.86 133.95 15.184 134.838 15.352C135.726 15.508 136.734 15.586 137.862 15.586C138.03 15.586 138.288 15.586 138.636 15.586C138.996 15.586 139.398 15.586 139.842 15.586C140.298 15.586 140.754 15.586 141.21 15.586C141.678 15.586 142.104 15.586 142.488 15.586C142.884 15.574 143.19 15.568 143.406 15.568C143.322 15.688 143.238 15.844 143.154 16.036C143.082 16.24 143.016 16.444 142.956 16.648C142.896 16.852 142.848 17.032 142.812 17.188H141.732H137.772C136.728 17.188 135.786 17.128 134.946 17.008C134.106 16.888 133.356 16.666 132.696 16.342C132.048 16.03 131.472 15.586 130.968 15.01C130.476 14.434 130.05 13.684 129.69 12.76L131.112 12.256ZM129.996 10.636L131.688 10.888C131.4 12.376 130.932 13.678 130.284 14.794C129.636 15.91 128.814 16.828 127.818 17.548C127.734 17.428 127.614 17.29 127.458 17.134C127.314 16.99 127.152 16.84 126.972 16.684C126.804 16.54 126.66 16.426 126.54 16.342C127.476 15.754 128.226 14.974 128.79 14.002C129.366 13.03 129.768 11.908 129.996 10.636ZM130.5 5.11V6.334H139.392V5.11H130.5ZM130.5 2.734V3.94H139.392V2.734H130.5ZM128.844 1.492H141.12V7.594H128.844V1.492ZM151.164 10.294L152.028 10.042C152.184 10.354 152.346 10.702 152.514 11.086C152.694 11.458 152.826 11.764 152.91 12.004L152.01 12.346C151.926 12.082 151.8 11.758 151.632 11.374C151.476 10.978 151.32 10.618 151.164 10.294ZM153.468 12.274H154.692V17.26H153.468V12.274ZM148.698 12.562H149.796V14.182H151.884V15.19H148.698V12.562ZM151.236 12.274H152.442V13.948C152.442 14.416 152.382 14.866 152.262 15.298C152.142 15.718 151.896 16.108 151.524 16.468C151.164 16.828 150.6 17.146 149.832 17.422C149.76 17.278 149.64 17.104 149.472 16.9C149.316 16.708 149.172 16.558 149.04 16.45C149.688 16.246 150.168 16.012 150.48 15.748C150.792 15.484 150.996 15.196 151.092 14.884C151.188 14.56 151.236 14.242 151.236 13.93V12.274ZM146.376 3.85H151.2V4.948H146.376V3.85ZM154.638 3.85H159.57V4.948H154.638V3.85ZM158.958 1.546H160.614V15.478C160.614 15.922 160.566 16.27 160.47 16.522C160.374 16.786 160.194 16.99 159.93 17.134C159.666 17.278 159.33 17.368 158.922 17.404C158.514 17.44 158.016 17.458 157.428 17.458C157.416 17.302 157.38 17.122 157.32 16.918C157.272 16.714 157.212 16.504 157.14 16.288C157.08 16.084 157.014 15.916 156.942 15.784C157.302 15.796 157.644 15.802 157.968 15.802C158.304 15.802 158.532 15.802 158.652 15.802C158.772 15.79 158.85 15.76 158.886 15.712C158.934 15.664 158.958 15.58 158.958 15.46V1.546ZM146.52 1.546H152.262V7.216H146.52V6.028H150.66V2.734H146.52V1.546ZM159.804 1.546V2.734H155.304V6.028H159.804V7.216H153.684V1.546H159.804ZM145.494 1.546H147.132V17.53H145.494V1.546ZM148.5 10.096C148.464 9.976 148.41 9.808 148.338 9.592C148.278 9.364 148.212 9.178 148.14 9.034C148.236 9.022 148.332 8.992 148.428 8.944C148.536 8.884 148.638 8.812 148.734 8.728C148.794 8.656 148.902 8.536 149.058 8.368C149.214 8.2 149.382 8.002 149.562 7.774C149.742 7.534 149.892 7.282 150.012 7.018L151.056 7.558C150.78 7.942 150.48 8.302 150.156 8.638C149.832 8.974 149.514 9.256 149.202 9.484V9.52C149.202 9.52 149.142 9.55 149.022 9.61C148.914 9.67 148.8 9.748 148.68 9.844C148.56 9.928 148.5 10.012 148.5 10.096ZM148.5 10.114L148.482 9.394L149.022 9.106L151.38 8.998C151.332 9.118 151.284 9.262 151.236 9.43C151.2 9.586 151.17 9.712 151.146 9.808C150.474 9.844 149.958 9.88 149.598 9.916C149.25 9.952 148.998 9.988 148.842 10.024C148.686 10.048 148.572 10.078 148.5 10.114ZM148.41 12.238C148.386 12.13 148.338 11.968 148.266 11.752C148.206 11.536 148.146 11.356 148.086 11.212C148.218 11.2 148.362 11.152 148.518 11.068C148.686 10.972 148.86 10.852 149.04 10.708C149.172 10.612 149.388 10.438 149.688 10.186C149.988 9.922 150.312 9.61 150.66 9.25C151.02 8.89 151.344 8.518 151.632 8.134L152.514 8.764C151.998 9.316 151.446 9.85 150.858 10.366C150.27 10.87 149.682 11.302 149.094 11.662V11.716C149.094 11.716 149.034 11.74 148.914 11.788C148.806 11.836 148.692 11.902 148.572 11.986C148.464 12.07 148.41 12.154 148.41 12.238ZM148.41 12.256L148.392 11.482L148.914 11.176L152.064 10.906C152.076 11.026 152.094 11.17 152.118 11.338C152.142 11.494 152.166 11.62 152.19 11.716C151.434 11.8 150.822 11.872 150.354 11.932C149.886 11.98 149.52 12.022 149.256 12.058C148.992 12.094 148.8 12.13 148.68 12.166C148.572 12.19 148.482 12.22 148.41 12.256ZM156.024 10.312L156.87 10.024C157.05 10.348 157.23 10.696 157.41 11.068C157.602 11.44 157.74 11.752 157.824 12.004L156.942 12.364C156.846 12.1 156.708 11.776 156.528 11.392C156.36 10.996 156.192 10.636 156.024 10.312ZM153.378 10.132C153.342 10.012 153.288 9.838 153.216 9.61C153.156 9.382 153.09 9.196 153.018 9.052C153.114 9.04 153.21 9.01 153.306 8.962C153.414 8.902 153.516 8.83 153.612 8.746C153.672 8.674 153.78 8.554 153.936 8.386C154.092 8.218 154.26 8.02 154.44 7.792C154.62 7.552 154.776 7.306 154.908 7.054L155.934 7.576C155.658 7.96 155.358 8.326 155.034 8.674C154.71 9.01 154.392 9.286 154.08 9.502V9.538C154.08 9.538 154.02 9.568 153.9 9.628C153.792 9.688 153.678 9.766 153.558 9.862C153.438 9.946 153.378 10.036 153.378 10.132ZM153.378 10.132V9.394L153.9 9.106L156.258 9.016C156.222 9.136 156.18 9.28 156.132 9.448C156.084 9.604 156.054 9.73 156.042 9.826C155.37 9.862 154.854 9.898 154.494 9.934C154.134 9.958 153.876 9.988 153.72 10.024C153.576 10.06 153.462 10.096 153.378 10.132ZM153.306 12.256C153.282 12.148 153.234 11.986 153.162 11.77C153.102 11.554 153.042 11.374 152.982 11.23C153.126 11.218 153.276 11.17 153.432 11.086C153.588 10.99 153.756 10.87 153.936 10.726C154.068 10.63 154.284 10.45 154.584 10.186C154.884 9.922 155.208 9.61 155.556 9.25C155.916 8.89 156.24 8.512 156.528 8.116L157.428 8.746C156.9 9.31 156.342 9.85 155.754 10.366C155.166 10.882 154.578 11.326 153.99 11.698V11.734C153.99 11.734 153.93 11.764 153.81 11.824C153.702 11.872 153.588 11.938 153.468 12.022C153.36 12.106 153.306 12.184 153.306 12.256ZM153.306 12.256L153.288 11.5L153.81 11.176L156.96 10.906C156.972 11.038 156.99 11.182 157.014 11.338C157.05 11.494 157.074 11.626 157.086 11.734C156.33 11.806 155.718 11.872 155.25 11.932C154.782 11.98 154.416 12.028 154.152 12.076C153.9 12.112 153.714 12.148 153.594 12.184C153.474 12.208 153.378 12.232 153.306 12.256ZM154.368 14.182H156.762V15.19H154.368V14.182ZM156.15 12.562H157.284V15.73H156.15V12.562ZM163.854 5.398H168.03V6.784H163.854V5.398ZM162.954 8.458H168.354V9.916H162.954V8.458ZM163.242 11.014L164.214 10.69C164.346 11.206 164.466 11.764 164.574 12.364C164.682 12.964 164.754 13.486 164.79 13.93L163.782 14.29C163.758 13.834 163.692 13.306 163.584 12.706C163.476 12.094 163.362 11.53 163.242 11.014ZM162.702 15.406C163.17 15.298 163.716 15.178 164.34 15.046C164.976 14.902 165.648 14.752 166.356 14.596C167.076 14.428 167.796 14.26 168.516 14.092L168.588 15.442C167.604 15.718 166.614 15.982 165.618 16.234C164.622 16.498 163.746 16.732 162.99 16.936L162.702 15.406ZM167.238 10.492L168.3 10.87C168.156 11.41 168.012 11.974 167.868 12.562C167.724 13.138 167.586 13.63 167.454 14.038L166.608 13.678C166.68 13.39 166.752 13.06 166.824 12.688C166.908 12.304 166.986 11.92 167.058 11.536C167.13 11.152 167.19 10.804 167.238 10.492ZM165.168 5.974H166.356V15.568L165.168 15.82V5.974ZM165.69 0.7L166.734 1.294C166.446 2.002 166.104 2.698 165.708 3.382C165.312 4.054 164.886 4.684 164.43 5.272C163.974 5.86 163.512 6.37 163.044 6.802C163.02 6.682 162.972 6.514 162.9 6.298C162.84 6.07 162.774 5.842 162.702 5.614C162.63 5.386 162.564 5.2 162.504 5.056C163.104 4.564 163.692 3.934 164.268 3.166C164.856 2.386 165.33 1.564 165.69 0.7ZM165.276 2.824L165.852 1.582C166.404 1.954 166.95 2.386 167.49 2.878C168.042 3.358 168.486 3.79 168.822 4.174L168.21 5.596C167.994 5.308 167.724 5.002 167.4 4.678C167.076 4.342 166.728 4.018 166.356 3.706C165.996 3.382 165.636 3.088 165.276 2.824ZM174.438 0.879999H175.752V15.262H174.438V0.879999ZM171.954 4.588H179.406V5.848H171.954V4.588ZM171.972 12.004H178.974V13.3H171.972V12.004ZM172.422 9.448H178.596V10.762H172.422V9.448ZM168.498 1.762H171.216V3.328H168.498V1.762ZM170.838 7.036H171.09L171.324 7.018L172.116 7.108C172.008 8.992 171.798 10.612 171.486 11.968C171.174 13.324 170.748 14.458 170.208 15.37C169.668 16.27 168.99 17.008 168.174 17.584C168.078 17.404 167.952 17.2 167.796 16.972C167.652 16.756 167.514 16.582 167.382 16.45C168.078 16.006 168.666 15.37 169.146 14.542C169.626 13.714 170.004 12.7 170.28 11.5C170.568 10.288 170.754 8.884 170.838 7.288V7.036ZM169.632 9.952C169.92 11.188 170.292 12.196 170.748 12.976C171.216 13.744 171.75 14.338 172.35 14.758C172.962 15.166 173.622 15.448 174.33 15.604C175.038 15.76 175.776 15.838 176.544 15.838C176.664 15.838 176.85 15.838 177.102 15.838C177.366 15.838 177.642 15.838 177.93 15.838C178.23 15.838 178.518 15.838 178.794 15.838C179.07 15.826 179.286 15.82 179.442 15.82C179.346 16 179.25 16.228 179.154 16.504C179.07 16.792 179.01 17.038 178.974 17.242H178.416H176.454C175.542 17.242 174.678 17.146 173.862 16.954C173.058 16.774 172.314 16.444 171.63 15.964C170.958 15.472 170.358 14.782 169.83 13.894C169.302 12.994 168.858 11.824 168.498 10.384L169.632 9.952ZM172.494 2.176H178.344V8.296H172.494V7.09H177.138V3.364H172.494V2.176ZM169.308 7.036H171.27V8.44H168.876L169.308 7.036ZM168.804 8.782C168.768 8.674 168.702 8.554 168.606 8.422C168.522 8.278 168.438 8.14 168.354 8.008C168.27 7.864 168.192 7.744 168.12 7.648C168.276 7.612 168.45 7.48 168.642 7.252C168.846 7.024 169.02 6.766 169.164 6.478C169.26 6.298 169.41 5.968 169.614 5.488C169.818 4.996 170.028 4.432 170.244 3.796C170.46 3.16 170.64 2.518 170.784 1.87V1.78L171.306 1.564L172.224 2.158C171.9 3.238 171.528 4.294 171.108 5.326C170.688 6.358 170.268 7.246 169.848 7.99V8.008C169.848 8.008 169.794 8.032 169.686 8.08C169.59 8.128 169.47 8.194 169.326 8.278C169.194 8.362 169.074 8.446 168.966 8.53C168.858 8.614 168.804 8.698 168.804 8.782ZM187.506 12.832L187.038 11.662C187.782 11.386 188.352 11.026 188.748 10.582C189.144 10.138 189.342 9.61 189.342 8.998L189.09 7.36L190.08 8.836C189.936 8.98 189.774 9.088 189.594 9.16C189.426 9.22 189.252 9.25 189.072 9.25C188.664 9.25 188.31 9.13 188.01 8.89C187.71 8.638 187.56 8.278 187.56 7.81C187.56 7.354 187.71 7 188.01 6.748C188.322 6.496 188.682 6.37 189.09 6.37C189.654 6.37 190.08 6.574 190.368 6.982C190.668 7.39 190.818 7.936 190.818 8.62C190.818 9.616 190.518 10.486 189.918 11.23C189.33 11.962 188.526 12.496 187.506 12.832ZM199.116 2.428H214.974V4.012H199.116V2.428ZM206.064 0.807999H207.846V17.512H206.064V0.807999ZM205.596 11.104L207.036 11.716C206.616 12.304 206.13 12.874 205.578 13.426C205.026 13.966 204.432 14.476 203.796 14.956C203.16 15.436 202.506 15.868 201.834 16.252C201.162 16.648 200.49 16.984 199.818 17.26C199.734 17.116 199.62 16.954 199.476 16.774C199.344 16.606 199.2 16.432 199.044 16.252C198.9 16.084 198.768 15.946 198.648 15.838C199.296 15.61 199.95 15.328 200.61 14.992C201.282 14.656 201.93 14.278 202.554 13.858C203.178 13.438 203.748 12.994 204.264 12.526C204.78 12.058 205.224 11.584 205.596 11.104ZM208.35 11.158C208.734 11.638 209.19 12.106 209.718 12.562C210.258 13.018 210.84 13.456 211.464 13.876C212.088 14.296 212.736 14.674 213.408 15.01C214.08 15.334 214.752 15.604 215.424 15.82C215.292 15.94 215.148 16.084 214.992 16.252C214.836 16.432 214.686 16.612 214.542 16.792C214.41 16.972 214.296 17.14 214.2 17.296C213.54 17.02 212.868 16.684 212.184 16.288C211.512 15.904 210.852 15.472 210.204 14.992C209.568 14.5 208.974 13.984 208.422 13.444C207.882 12.892 207.396 12.334 206.964 11.77L208.35 11.158ZM202.338 9.304V10.762H211.788V9.304H202.338ZM202.338 6.622V8.062H211.788V6.622H202.338ZM200.664 5.326H213.516V12.076H200.664V5.326ZM222.894 1.744H224.532V7.108C224.532 7.864 224.502 8.698 224.442 9.61C224.382 10.51 224.274 11.434 224.118 12.382C223.962 13.318 223.722 14.224 223.398 15.1C223.086 15.976 222.672 16.774 222.156 17.494C222.06 17.398 221.922 17.296 221.742 17.188C221.562 17.092 221.376 16.996 221.184 16.9C221.004 16.804 220.842 16.732 220.698 16.684C221.202 16 221.598 15.256 221.886 14.452C222.186 13.636 222.408 12.802 222.552 11.95C222.696 11.086 222.786 10.24 222.822 9.412C222.87 8.584 222.894 7.816 222.894 7.108V1.744ZM225.576 7.9H227.196V15.064C227.196 15.4 227.256 15.616 227.376 15.712C227.496 15.808 227.76 15.856 228.168 15.856C228.264 15.856 228.432 15.856 228.672 15.856C228.924 15.856 229.194 15.856 229.482 15.856C229.782 15.856 230.058 15.856 230.31 15.856C230.562 15.856 230.754 15.856 230.886 15.856C231.15 15.856 231.348 15.79 231.48 15.658C231.612 15.526 231.708 15.268 231.768 14.884C231.828 14.488 231.87 13.906 231.894 13.138C232.014 13.222 232.158 13.306 232.326 13.39C232.506 13.474 232.686 13.552 232.866 13.624C233.058 13.696 233.226 13.75 233.37 13.786C233.31 14.722 233.202 15.454 233.046 15.982C232.902 16.498 232.668 16.858 232.344 17.062C232.02 17.278 231.576 17.386 231.012 17.386C230.916 17.386 230.766 17.386 230.562 17.386C230.37 17.386 230.142 17.386 229.878 17.386C229.614 17.386 229.35 17.386 229.086 17.386C228.834 17.386 228.606 17.386 228.402 17.386C228.198 17.386 228.06 17.386 227.988 17.386C227.352 17.386 226.86 17.314 226.512 17.17C226.164 17.038 225.918 16.804 225.774 16.468C225.642 16.132 225.576 15.664 225.576 15.064V7.9ZM223.614 1.744H232.398V7.126H223.614V5.542H230.742V3.31H223.614V1.744ZM217.71 2.248L218.682 1.024C219.03 1.192 219.42 1.39 219.852 1.618C220.284 1.834 220.692 2.05 221.076 2.266C221.472 2.482 221.802 2.674 222.066 2.842L221.058 4.246C220.818 4.054 220.5 3.844 220.104 3.616C219.72 3.388 219.312 3.154 218.88 2.914C218.46 2.662 218.07 2.44 217.71 2.248ZM216.738 7.018L217.656 5.758C218.004 5.914 218.388 6.1 218.808 6.316C219.228 6.532 219.63 6.748 220.014 6.964C220.41 7.18 220.734 7.372 220.986 7.54L220.032 8.944C219.792 8.764 219.48 8.566 219.096 8.35C218.724 8.122 218.322 7.888 217.89 7.648C217.47 7.408 217.086 7.198 216.738 7.018ZM217.314 16.144C217.614 15.676 217.944 15.124 218.304 14.488C218.664 13.84 219.024 13.156 219.384 12.436C219.756 11.716 220.104 11.014 220.428 10.33L221.742 11.374C221.466 12.01 221.16 12.67 220.824 13.354C220.5 14.026 220.164 14.692 219.816 15.352C219.48 16 219.15 16.612 218.826 17.188L217.314 16.144ZM226.512 10.168H232.56V11.608H226.512V10.168ZM239.976 4.696H251.028V6.01H239.976V4.696ZM240.804 9.682H250.218V10.924H240.804V9.682ZM240.066 12.112H250.848V13.444H240.066V12.112ZM244.278 0.807999H245.88V14.974H244.278V0.807999ZM241.056 2.248H249.912V8.512H240.93V7.198H248.382V3.58H241.056V2.248ZM235.08 1.87H239.184V3.364H235.08V1.87ZM236.484 7.018H239.148V8.512H236.376L236.484 7.018ZM238.572 7.018H238.878L239.166 6.982L240.138 7.198C239.874 9.814 239.376 11.968 238.644 13.66C237.912 15.352 236.964 16.636 235.8 17.512C235.728 17.404 235.614 17.278 235.458 17.134C235.314 16.99 235.158 16.846 234.99 16.702C234.834 16.57 234.696 16.468 234.576 16.396C235.692 15.604 236.58 14.464 237.24 12.976C237.912 11.476 238.356 9.592 238.572 7.324V7.018ZM236.484 9.79C236.844 11.026 237.312 12.028 237.888 12.796C238.476 13.552 239.154 14.134 239.922 14.542C240.702 14.938 241.572 15.214 242.532 15.37C243.492 15.514 244.524 15.586 245.628 15.586C245.796 15.586 246.066 15.586 246.438 15.586C246.822 15.586 247.248 15.586 247.716 15.586C248.196 15.586 248.676 15.586 249.156 15.586C249.636 15.574 250.074 15.568 250.47 15.568C250.866 15.568 251.172 15.562 251.388 15.55C251.304 15.67 251.22 15.82 251.136 16C251.052 16.192 250.974 16.384 250.902 16.576C250.83 16.78 250.782 16.96 250.758 17.116H249.804H245.592C244.296 17.116 243.108 17.026 242.028 16.846C240.948 16.666 239.976 16.33 239.112 15.838C238.248 15.346 237.492 14.65 236.844 13.75C236.196 12.85 235.656 11.68 235.224 10.24L236.484 9.79ZM235.692 9.178C235.656 9.07 235.596 8.932 235.512 8.764C235.44 8.596 235.356 8.428 235.26 8.26C235.176 8.092 235.098 7.954 235.026 7.846C235.194 7.798 235.386 7.672 235.602 7.468C235.83 7.252 236.034 6.994 236.214 6.694C236.346 6.514 236.55 6.178 236.826 5.686C237.102 5.194 237.396 4.624 237.708 3.976C238.02 3.316 238.296 2.65 238.536 1.978V1.888L239.148 1.636L240.21 2.32C239.694 3.472 239.142 4.57 238.554 5.614C237.978 6.658 237.414 7.558 236.862 8.314V8.35C236.862 8.35 236.802 8.38 236.682 8.44C236.574 8.488 236.436 8.554 236.268 8.638C236.112 8.722 235.974 8.812 235.854 8.908C235.746 9.004 235.692 9.094 235.692 9.178ZM253.548 6.262H258.966V7.594H253.548V6.262ZM253.548 8.674H259.002V9.988H253.548V8.674ZM252.774 3.832H259.722V5.2H252.774V3.832ZM254.286 11.104H258.966V16.468H254.286V15.064H257.49V12.49H254.286V11.104ZM253.548 11.104H255.006V17.278H253.548V11.104ZM254.682 1.384L255.996 0.717999C256.26 1.09 256.518 1.498 256.77 1.942C257.022 2.374 257.22 2.758 257.364 3.094L255.996 3.85C255.852 3.526 255.654 3.13 255.402 2.662C255.162 2.182 254.922 1.756 254.682 1.384ZM261.45 1.42H266.166V3.004H261.45V1.42ZM259.488 8.692H267.408V10.294H259.488V8.692ZM266.814 8.692H267.138L267.426 8.638L268.488 9.088C268.152 10.264 267.696 11.314 267.12 12.238C266.544 13.15 265.872 13.948 265.104 14.632C264.348 15.316 263.508 15.892 262.584 16.36C261.672 16.828 260.7 17.212 259.668 17.512C259.62 17.356 259.548 17.182 259.452 16.99C259.356 16.798 259.248 16.612 259.128 16.432C259.02 16.252 258.912 16.102 258.804 15.982C259.74 15.766 260.628 15.46 261.468 15.064C262.308 14.656 263.082 14.158 263.79 13.57C264.498 12.982 265.11 12.304 265.626 11.536C266.142 10.768 266.538 9.91 266.814 8.962V8.692ZM261.594 10.114C262.038 11.086 262.632 11.962 263.376 12.742C264.132 13.51 265.02 14.164 266.04 14.704C267.072 15.244 268.212 15.646 269.46 15.91C269.34 16.03 269.214 16.18 269.082 16.36C268.95 16.552 268.824 16.744 268.704 16.936C268.584 17.128 268.482 17.302 268.398 17.458C266.442 16.966 264.774 16.138 263.394 14.974C262.026 13.81 260.94 12.358 260.136 10.618L261.594 10.114ZM261.126 1.42H262.692V3.436C262.692 4 262.62 4.582 262.476 5.182C262.344 5.77 262.086 6.34 261.702 6.892C261.318 7.444 260.754 7.93 260.01 8.35C259.938 8.23 259.83 8.092 259.686 7.936C259.554 7.768 259.416 7.606 259.272 7.45C259.128 7.294 259.008 7.18 258.912 7.108C259.56 6.748 260.04 6.364 260.352 5.956C260.676 5.536 260.886 5.11 260.982 4.678C261.078 4.234 261.126 3.808 261.126 3.4V1.42ZM265.338 1.42H266.904V5.506C266.904 5.758 266.916 5.938 266.94 6.046C266.976 6.154 267.054 6.208 267.174 6.208C267.234 6.208 267.324 6.208 267.444 6.208C267.576 6.208 267.702 6.208 267.822 6.208C267.954 6.208 268.044 6.208 268.092 6.208C268.212 6.208 268.35 6.202 268.506 6.19C268.674 6.166 268.812 6.136 268.92 6.1C268.944 6.316 268.962 6.562 268.974 6.838C268.986 7.114 269.01 7.348 269.046 7.54C268.938 7.588 268.8 7.618 268.632 7.63C268.464 7.642 268.29 7.648 268.11 7.648C268.038 7.648 267.93 7.648 267.786 7.648C267.642 7.648 267.498 7.648 267.354 7.648C267.21 7.648 267.102 7.648 267.03 7.648C266.55 7.648 266.19 7.576 265.95 7.432C265.71 7.288 265.548 7.06 265.464 6.748C265.38 6.424 265.338 5.998 265.338 5.47V1.42ZM276.444 3.76L277.992 3.004C278.388 3.436 278.772 3.91 279.144 4.426C279.516 4.942 279.852 5.452 280.152 5.956C280.452 6.46 280.686 6.916 280.854 7.324L279.198 8.224C279.054 7.804 278.832 7.336 278.532 6.82C278.244 6.292 277.92 5.764 277.56 5.236C277.2 4.696 276.828 4.204 276.444 3.76ZM270.558 13.732C271.182 13.504 271.896 13.228 272.7 12.904C273.504 12.58 274.356 12.232 275.256 11.86C276.168 11.476 277.068 11.092 277.956 10.708L278.352 12.382C277.524 12.742 276.684 13.114 275.832 13.498C274.992 13.87 274.17 14.23 273.366 14.578C272.574 14.914 271.842 15.226 271.17 15.514L270.558 13.732ZM281.25 11.698L282.564 10.528C282.984 10.948 283.428 11.404 283.896 11.896C284.376 12.376 284.844 12.868 285.3 13.372C285.756 13.876 286.182 14.362 286.578 14.83C286.974 15.298 287.298 15.724 287.55 16.108L286.11 17.476C285.858 17.092 285.546 16.66 285.174 16.18C284.802 15.7 284.394 15.202 283.95 14.686C283.506 14.158 283.05 13.642 282.582 13.138C282.126 12.622 281.682 12.142 281.25 11.698ZM283.734 1.78L285.606 1.96C285.378 4.024 285.054 5.872 284.634 7.504C284.226 9.136 283.674 10.588 282.978 11.86C282.282 13.12 281.4 14.218 280.332 15.154C279.276 16.09 277.98 16.888 276.444 17.548C276.372 17.428 276.252 17.272 276.084 17.08C275.916 16.9 275.742 16.714 275.562 16.522C275.394 16.33 275.238 16.174 275.094 16.054C276.594 15.502 277.854 14.806 278.874 13.966C279.894 13.126 280.728 12.124 281.376 10.96C282.036 9.796 282.546 8.458 282.906 6.946C283.278 5.422 283.554 3.7 283.734 1.78ZM272.682 1.834L274.464 1.762L274.824 13.588L273.042 13.642L272.682 1.834ZM296.568 11.464H299.754V12.814H296.568V11.464ZM301.446 3.94L302.58 4.318C302.244 4.786 301.83 5.236 301.338 5.668C300.858 6.088 300.348 6.484 299.808 6.856C299.268 7.228 298.74 7.546 298.224 7.81C298.164 7.738 298.08 7.642 297.972 7.522C297.876 7.402 297.774 7.282 297.666 7.162C297.558 7.042 297.462 6.946 297.378 6.874C297.894 6.646 298.404 6.382 298.908 6.082C299.412 5.77 299.886 5.434 300.33 5.074C300.774 4.702 301.146 4.324 301.446 3.94ZM297.522 4.732L298.332 3.976C298.836 4.252 299.37 4.564 299.934 4.912C300.498 5.26 301.026 5.614 301.518 5.974C302.022 6.334 302.436 6.658 302.76 6.946L301.896 7.81C301.584 7.51 301.182 7.18 300.69 6.82C300.198 6.448 299.67 6.082 299.106 5.722C298.554 5.35 298.026 5.02 297.522 4.732ZM300.384 9.808H301.896V15.208C301.896 15.436 301.926 15.586 301.986 15.658C302.046 15.718 302.178 15.748 302.382 15.748C302.418 15.748 302.49 15.748 302.598 15.748C302.718 15.748 302.844 15.748 302.976 15.748C303.12 15.748 303.252 15.748 303.372 15.748C303.492 15.748 303.582 15.748 303.642 15.748C303.75 15.748 303.834 15.718 303.894 15.658C303.966 15.598 304.014 15.472 304.038 15.28C304.062 15.088 304.08 14.806 304.092 14.434C304.236 14.542 304.44 14.65 304.704 14.758C304.98 14.866 305.226 14.944 305.442 14.992C305.37 15.844 305.214 16.42 304.974 16.72C304.734 17.02 304.344 17.17 303.804 17.17C303.744 17.17 303.63 17.17 303.462 17.17C303.306 17.17 303.138 17.17 302.958 17.17C302.79 17.17 302.628 17.17 302.472 17.17C302.316 17.17 302.202 17.17 302.13 17.17C301.662 17.17 301.302 17.11 301.05 16.99C300.798 16.87 300.624 16.666 300.528 16.378C300.432 16.102 300.384 15.712 300.384 15.208V9.808ZM299.214 0.789999L301.086 1.06C300.882 1.48 300.66 1.894 300.42 2.302C300.192 2.71 299.988 3.058 299.808 3.346L298.422 3.04C298.578 2.704 298.728 2.326 298.872 1.906C299.016 1.486 299.13 1.114 299.214 0.789999ZM297.054 3.832V7.972H303.03V3.832H297.054ZM295.578 2.554H304.56V9.25H295.578V2.554ZM295.776 17.548L295.614 16.198L296.208 15.64L299.79 14.524C299.79 14.74 299.796 14.986 299.808 15.262C299.832 15.538 299.856 15.76 299.88 15.928C299.076 16.216 298.416 16.45 297.9 16.63C297.396 16.822 297 16.972 296.712 17.08C296.424 17.2 296.214 17.29 296.082 17.35C295.95 17.422 295.848 17.488 295.776 17.548ZM301.446 11.5H304.74V12.85H301.446V11.5ZM295.776 17.548C295.74 17.416 295.68 17.272 295.596 17.116C295.524 16.96 295.446 16.798 295.362 16.63C295.278 16.474 295.194 16.348 295.11 16.252C295.254 16.168 295.38 16.036 295.488 15.856C295.608 15.676 295.668 15.4 295.668 15.028V9.772H297.18V16.18C297.18 16.18 297.108 16.222 296.964 16.306C296.82 16.402 296.652 16.516 296.46 16.648C296.28 16.792 296.118 16.942 295.974 17.098C295.842 17.266 295.776 17.416 295.776 17.548ZM289.026 10.654L289.998 9.61C290.43 9.97 290.886 10.366 291.366 10.798C291.858 11.218 292.338 11.65 292.806 12.094C293.274 12.538 293.706 12.964 294.102 13.372C294.51 13.768 294.846 14.134 295.11 14.47L294.066 15.73C293.802 15.382 293.472 14.998 293.076 14.578C292.692 14.146 292.266 13.702 291.798 13.246C291.342 12.79 290.874 12.34 290.394 11.896C289.926 11.44 289.47 11.026 289.026 10.654ZM289.026 10.654C289.206 10.042 289.38 9.34 289.548 8.548C289.728 7.744 289.896 6.904 290.052 6.028C290.22 5.14 290.358 4.258 290.466 3.382C290.586 2.494 290.682 1.66 290.754 0.879999L292.266 0.952C292.182 1.768 292.074 2.632 291.942 3.544C291.81 4.456 291.66 5.368 291.492 6.28C291.324 7.192 291.15 8.062 290.97 8.89C290.79 9.706 290.61 10.438 290.43 11.086L289.026 10.654ZM292.932 3.346H294.39V5.218C294.39 6.082 294.342 7.03 294.246 8.062C294.162 9.082 293.964 10.138 293.652 11.23C293.352 12.31 292.884 13.378 292.248 14.434C291.612 15.49 290.754 16.486 289.674 17.422C289.59 17.314 289.482 17.188 289.35 17.044C289.218 16.912 289.08 16.78 288.936 16.648C288.792 16.528 288.654 16.432 288.522 16.36C289.554 15.496 290.364 14.578 290.952 13.606C291.54 12.634 291.972 11.656 292.248 10.672C292.536 9.676 292.722 8.71 292.806 7.774C292.89 6.838 292.932 5.98 292.932 5.2V3.346ZM288.612 4.858C289.464 4.822 290.478 4.774 291.654 4.714C292.842 4.654 294.048 4.588 295.272 4.516L295.254 5.974C294.102 6.046 292.956 6.124 291.816 6.208C290.688 6.28 289.674 6.34 288.774 6.388L288.612 4.858ZM307.566 3.184H322.398V4.696H307.566V3.184ZM308.592 5.938H321.516V7.378H308.592V5.938ZM307.368 11.356H322.776V12.814H307.368V11.356ZM306.954 8.656H323.172V10.15H306.954V8.656ZM314.082 4.102H315.846V9.808H314.082V4.102ZM309.996 1.312L311.508 0.717999C311.808 1.042 312.096 1.414 312.372 1.834C312.648 2.242 312.852 2.608 312.984 2.932L311.4 3.634C311.28 3.298 311.088 2.914 310.824 2.482C310.56 2.05 310.284 1.66 309.996 1.312ZM318.24 0.717999L320.058 1.204C319.758 1.696 319.434 2.182 319.086 2.662C318.75 3.13 318.444 3.526 318.168 3.85L316.674 3.382C316.854 3.142 317.04 2.866 317.232 2.554C317.424 2.23 317.61 1.912 317.79 1.6C317.97 1.276 318.12 0.982 318.24 0.717999ZM313.92 9.772H315.72C315.636 10.6 315.504 11.368 315.324 12.076C315.156 12.772 314.892 13.408 314.532 13.984C314.184 14.548 313.71 15.052 313.11 15.496C312.522 15.94 311.772 16.324 310.86 16.648C309.948 16.984 308.832 17.26 307.512 17.476C307.464 17.32 307.392 17.146 307.296 16.954C307.2 16.774 307.092 16.588 306.972 16.396C306.864 16.216 306.756 16.066 306.648 15.946C307.86 15.778 308.88 15.568 309.708 15.316C310.536 15.052 311.214 14.746 311.742 14.398C312.27 14.038 312.678 13.63 312.966 13.174C313.254 12.718 313.464 12.208 313.596 11.644C313.74 11.08 313.848 10.456 313.92 9.772ZM315.072 14.074L315.828 12.814C316.428 13.018 317.064 13.258 317.736 13.534C318.42 13.81 319.098 14.098 319.77 14.398C320.454 14.686 321.09 14.98 321.678 15.28C322.266 15.568 322.764 15.838 323.172 16.09L322.38 17.566C321.984 17.302 321.492 17.02 320.904 16.72C320.328 16.42 319.704 16.114 319.032 15.802C318.372 15.478 317.7 15.172 317.016 14.884C316.332 14.584 315.684 14.314 315.072 14.074ZM325.08 5.83H340.992V7.594H325.08V5.83ZM334.044 6.532C334.428 7.948 334.944 9.268 335.592 10.492C336.252 11.716 337.056 12.79 338.004 13.714C338.964 14.626 340.074 15.346 341.334 15.874C341.19 15.994 341.034 16.15 340.866 16.342C340.71 16.534 340.56 16.726 340.416 16.918C340.272 17.122 340.152 17.302 340.056 17.458C338.724 16.834 337.56 16.012 336.564 14.992C335.58 13.96 334.746 12.766 334.062 11.41C333.378 10.054 332.802 8.566 332.334 6.946L334.044 6.532ZM332.064 0.807999H333.918C333.918 1.66 333.894 2.578 333.846 3.562C333.81 4.534 333.72 5.536 333.576 6.568C333.432 7.6 333.198 8.632 332.874 9.664C332.55 10.696 332.1 11.692 331.524 12.652C330.948 13.612 330.21 14.506 329.31 15.334C328.41 16.15 327.312 16.864 326.016 17.476C325.872 17.248 325.68 16.996 325.44 16.72C325.2 16.456 324.96 16.234 324.72 16.054C325.968 15.49 327.018 14.836 327.87 14.092C328.734 13.336 329.43 12.52 329.958 11.644C330.498 10.756 330.912 9.838 331.2 8.89C331.488 7.942 331.692 6.994 331.812 6.046C331.932 5.098 332.004 4.18 332.028 3.292C332.052 2.404 332.064 1.576 332.064 0.807999ZM348.246 11.806H359.352V13.12H348.246V11.806ZM352.908 0.789999H354.492V10.42H352.908V0.789999ZM350.748 2.932V5.668H356.652V2.932H350.748ZM349.29 1.852H358.164V6.748H349.29V1.852ZM350.424 8.62V9.556H357.012V8.62H350.424ZM348.912 7.522H358.614V10.636H348.912V7.522ZM356.274 11.122H357.786C357.654 11.842 357.462 12.502 357.21 13.102C356.958 13.69 356.616 14.224 356.184 14.704C355.764 15.172 355.218 15.592 354.546 15.964C353.886 16.324 353.07 16.63 352.098 16.882C351.126 17.146 349.962 17.362 348.606 17.53C348.558 17.338 348.468 17.116 348.336 16.864C348.216 16.624 348.096 16.432 347.976 16.288C349.236 16.156 350.316 15.988 351.216 15.784C352.116 15.568 352.866 15.316 353.466 15.028C354.066 14.728 354.552 14.386 354.924 14.002C355.296 13.618 355.584 13.192 355.788 12.724C355.992 12.244 356.154 11.71 356.274 11.122ZM349.164 14.614L350.244 13.678C350.964 13.81 351.726 13.984 352.53 14.2C353.334 14.404 354.138 14.632 354.942 14.884C355.758 15.124 356.526 15.376 357.246 15.64C357.966 15.904 358.596 16.162 359.136 16.414L357.948 17.476C357.468 17.236 356.88 16.984 356.184 16.72C355.5 16.456 354.756 16.198 353.952 15.946C353.16 15.682 352.35 15.436 351.522 15.208C350.694 14.968 349.908 14.77 349.164 14.614ZM348.246 3.634H350.28V3.796H357.174V3.634H359.208V4.912H357.174V4.732H350.28V4.912H348.246V3.634ZM349.164 14.614C349.536 14.218 349.932 13.768 350.352 13.264C350.772 12.76 351.174 12.238 351.558 11.698C351.942 11.146 352.266 10.624 352.53 10.132L354.042 10.528C353.778 11.008 353.46 11.5 353.088 12.004C352.728 12.508 352.362 12.988 351.99 13.444C351.63 13.9 351.294 14.29 350.982 14.614H349.164ZM342.684 4.228H347.904V5.812H342.684V4.228ZM344.646 0.807999H346.194V17.494H344.646V0.807999ZM344.538 5.326L345.384 5.83C345.276 6.442 345.144 7.114 344.988 7.846C344.832 8.578 344.658 9.316 344.466 10.06C344.274 10.792 344.07 11.494 343.854 12.166C343.638 12.838 343.416 13.432 343.188 13.948C343.104 13.684 342.978 13.384 342.81 13.048C342.654 12.712 342.516 12.43 342.396 12.202C342.6 11.806 342.81 11.32 343.026 10.744C343.242 10.168 343.446 9.562 343.638 8.926C343.842 8.29 344.016 7.66 344.16 7.036C344.316 6.412 344.442 5.842 344.538 5.326ZM346.14 6.622C346.236 6.742 346.386 6.958 346.59 7.27C346.806 7.57 347.028 7.9 347.256 8.26C347.496 8.62 347.712 8.956 347.904 9.268C348.108 9.58 348.252 9.802 348.336 9.934L347.31 11.122C347.214 10.882 347.082 10.582 346.914 10.222C346.746 9.862 346.56 9.49 346.356 9.106C346.164 8.722 345.978 8.368 345.798 8.044C345.618 7.708 345.468 7.438 345.348 7.234L346.14 6.622ZM362.448 3.706H367.956V15.64H362.448V14.11H366.39V5.218H362.448V3.706ZM361.458 3.706H363.024V17.026H361.458V3.706ZM362.376 8.638H367.182V10.114H362.376V8.638ZM364.122 0.772L365.976 1.078C365.784 1.654 365.58 2.236 365.364 2.824C365.148 3.412 364.95 3.91 364.77 4.318L363.42 3.994C363.504 3.694 363.594 3.358 363.69 2.986C363.786 2.602 363.87 2.218 363.942 1.834C364.026 1.438 364.086 1.084 364.122 0.772ZM370.44 3.616H375.84V5.182H370.44V3.616ZM375.246 3.616H376.83C376.83 3.616 376.83 3.67 376.83 3.778C376.83 3.874 376.83 3.988 376.83 4.12C376.83 4.252 376.83 4.354 376.83 4.426C376.77 6.478 376.704 8.218 376.632 9.646C376.56 11.062 376.476 12.226 376.38 13.138C376.296 14.05 376.188 14.758 376.056 15.262C375.936 15.766 375.786 16.132 375.606 16.36C375.378 16.66 375.144 16.864 374.904 16.972C374.664 17.092 374.37 17.176 374.022 17.224C373.71 17.26 373.302 17.272 372.798 17.26C372.306 17.26 371.802 17.248 371.286 17.224C371.274 16.984 371.214 16.702 371.106 16.378C371.01 16.066 370.878 15.796 370.71 15.568C371.298 15.616 371.838 15.646 372.33 15.658C372.822 15.67 373.182 15.676 373.41 15.676C373.59 15.676 373.734 15.658 373.842 15.622C373.962 15.586 374.076 15.508 374.184 15.388C374.328 15.22 374.454 14.896 374.562 14.416C374.67 13.924 374.766 13.234 374.85 12.346C374.934 11.446 375.006 10.306 375.066 8.926C375.138 7.546 375.198 5.89 375.246 3.958V3.616ZM370.674 0.772L372.312 1.15C372.084 2.038 371.808 2.914 371.484 3.778C371.172 4.642 370.83 5.458 370.458 6.226C370.086 6.982 369.69 7.648 369.27 8.224C369.174 8.128 369.036 8.02 368.856 7.9C368.688 7.768 368.514 7.642 368.334 7.522C368.166 7.402 368.01 7.306 367.866 7.234C368.274 6.718 368.652 6.112 369 5.416C369.36 4.72 369.678 3.976 369.954 3.184C370.242 2.38 370.482 1.576 370.674 0.772ZM369.81 8.53L371.142 7.774C371.466 8.182 371.802 8.638 372.15 9.142C372.51 9.634 372.84 10.114 373.14 10.582C373.452 11.05 373.704 11.464 373.896 11.824L372.456 12.724C372.288 12.352 372.054 11.926 371.754 11.446C371.454 10.966 371.136 10.468 370.8 9.952C370.464 9.436 370.134 8.962 369.81 8.53ZM378.486 10.222C379.026 10.09 379.644 9.94 380.34 9.772C381.036 9.604 381.762 9.418 382.518 9.214C383.286 9.01 384.048 8.806 384.804 8.602L385.02 10.15C383.952 10.45 382.878 10.75 381.798 11.05C380.718 11.35 379.74 11.626 378.864 11.878L378.486 10.222ZM378.81 4.354H384.804V5.938H378.81V4.354ZM381.132 0.807999H382.806V15.514C382.806 15.958 382.752 16.3 382.644 16.54C382.548 16.78 382.362 16.966 382.086 17.098C381.822 17.23 381.48 17.314 381.06 17.35C380.64 17.386 380.118 17.404 379.494 17.404C379.47 17.188 379.41 16.93 379.314 16.63C379.218 16.33 379.116 16.072 379.008 15.856C379.392 15.868 379.752 15.874 380.088 15.874C380.436 15.874 380.67 15.874 380.79 15.874C380.922 15.862 381.012 15.832 381.06 15.784C381.108 15.736 381.132 15.646 381.132 15.514V0.807999ZM385.11 3.868H395.388V5.488H385.11V3.868ZM387.612 7.144H392.148V8.728H387.612V7.144ZM386.55 7.144H388.242V10.456C388.242 11.032 388.194 11.644 388.098 12.292C388.014 12.94 387.846 13.588 387.594 14.236C387.342 14.872 386.988 15.484 386.532 16.072C386.088 16.66 385.506 17.188 384.786 17.656C384.714 17.536 384.606 17.386 384.462 17.206C384.33 17.038 384.186 16.87 384.03 16.702C383.886 16.546 383.754 16.426 383.634 16.342C384.282 15.934 384.798 15.49 385.182 15.01C385.578 14.518 385.872 14.014 386.064 13.498C386.268 12.97 386.4 12.448 386.46 11.932C386.52 11.404 386.55 10.9 386.55 10.42V7.144ZM391.212 7.144H392.904V15.028C392.904 15.472 392.934 15.724 392.994 15.784C393.054 15.844 393.144 15.874 393.264 15.874C393.312 15.874 393.378 15.874 393.462 15.874C393.546 15.874 393.618 15.874 393.678 15.874C393.75 15.874 393.816 15.868 393.876 15.856C393.936 15.844 393.99 15.82 394.038 15.784C394.074 15.748 394.104 15.688 394.128 15.604C394.152 15.508 394.17 15.37 394.182 15.19C394.206 15.01 394.218 14.728 394.218 14.344C394.23 13.948 394.236 13.492 394.236 12.976C394.404 13.108 394.608 13.24 394.848 13.372C395.088 13.504 395.31 13.6 395.514 13.66C395.514 13.984 395.502 14.314 395.478 14.65C395.466 14.986 395.448 15.298 395.424 15.586C395.4 15.862 395.37 16.072 395.334 16.216C395.226 16.624 395.04 16.924 394.776 17.116C394.644 17.212 394.482 17.278 394.29 17.314C394.11 17.362 393.93 17.386 393.75 17.386C393.618 17.386 393.45 17.386 393.246 17.386C393.054 17.386 392.898 17.386 392.778 17.386C392.586 17.386 392.382 17.35 392.166 17.278C391.962 17.218 391.782 17.116 391.626 16.972C391.482 16.828 391.374 16.63 391.302 16.378C391.242 16.126 391.212 15.676 391.212 15.028V7.144ZM388.08 1.096L389.682 0.627999C389.91 1.06 390.138 1.528 390.366 2.032C390.594 2.524 390.768 2.95 390.888 3.31L389.214 3.85C389.106 3.478 388.944 3.034 388.728 2.518C388.512 1.99 388.296 1.516 388.08 1.096ZM398.358 1.402H411.606V2.644H398.358V1.402ZM399.114 8.62H412.47V9.826H399.114V8.62ZM399.096 10.474H411.444V11.554H399.096V10.474ZM399.06 12.274H413.154V13.426H399.06V12.274ZM404.118 1.906H405.774V8.242H404.118V1.906ZM397.26 3.49H412.74V6.604H411.084V4.552H398.844V6.604H397.26V3.49ZM398.322 8.62H399.924V11.158C399.924 11.65 399.894 12.178 399.834 12.742C399.774 13.306 399.666 13.882 399.51 14.47C399.354 15.046 399.132 15.604 398.844 16.144C398.556 16.684 398.184 17.176 397.728 17.62C397.644 17.512 397.524 17.386 397.368 17.242C397.224 17.11 397.068 16.972 396.9 16.828C396.732 16.696 396.588 16.6 396.468 16.54C397.032 16.012 397.44 15.436 397.692 14.812C397.956 14.176 398.124 13.54 398.196 12.904C398.28 12.268 398.322 11.674 398.322 11.122V8.62ZM406.35 12.868C406.722 13.468 407.244 13.978 407.916 14.398C408.6 14.806 409.41 15.136 410.346 15.388C411.282 15.628 412.32 15.79 413.46 15.874C413.304 16.03 413.142 16.234 412.974 16.486C412.818 16.738 412.692 16.972 412.596 17.188C411.372 17.044 410.268 16.804 409.284 16.468C408.312 16.144 407.472 15.706 406.764 15.154C406.056 14.59 405.474 13.918 405.018 13.138L406.35 12.868ZM410.832 13.372L412.092 14.02C411.648 14.32 411.174 14.602 410.67 14.866C410.166 15.118 409.704 15.34 409.284 15.532L408.24 14.92C408.516 14.776 408.81 14.614 409.122 14.434C409.446 14.254 409.758 14.068 410.058 13.876C410.358 13.684 410.616 13.516 410.832 13.372ZM400.878 17.512L400.806 16.378L401.508 15.91L406.584 15.19C406.536 15.37 406.5 15.586 406.476 15.838C406.452 16.09 406.44 16.294 406.44 16.45C405.3 16.642 404.382 16.798 403.686 16.918C402.99 17.038 402.456 17.134 402.084 17.206C401.712 17.278 401.442 17.332 401.274 17.368C401.106 17.416 400.974 17.464 400.878 17.512ZM400.878 17.512C400.854 17.392 400.806 17.242 400.734 17.062C400.662 16.894 400.584 16.726 400.5 16.558C400.416 16.39 400.332 16.252 400.248 16.144C400.428 16.072 400.614 15.94 400.806 15.748C400.998 15.556 401.094 15.28 401.094 14.92V12.76L402.75 12.796V16.09C402.75 16.09 402.684 16.12 402.552 16.18C402.432 16.252 402.276 16.336 402.084 16.432C401.904 16.54 401.718 16.654 401.526 16.774C401.346 16.906 401.19 17.032 401.058 17.152C400.938 17.284 400.878 17.404 400.878 17.512ZM398.97 7.144C399.534 7.084 400.188 7 400.932 6.892C401.688 6.784 402.468 6.67 403.272 6.55L403.326 7.558C402.642 7.702 401.964 7.852 401.292 8.008C400.632 8.152 400.014 8.278 399.438 8.386L398.97 7.144ZM399.492 5.542L399.942 4.642C400.314 4.69 400.71 4.762 401.13 4.858C401.562 4.942 401.97 5.038 402.354 5.146C402.75 5.242 403.08 5.338 403.344 5.434L402.894 6.46C402.63 6.34 402.3 6.226 401.904 6.118C401.52 5.998 401.112 5.89 400.68 5.794C400.26 5.686 399.864 5.602 399.492 5.542ZM409.86 4.516L410.544 5.452C410.208 5.584 409.842 5.704 409.446 5.812C409.05 5.908 408.648 5.998 408.24 6.082C407.844 6.154 407.478 6.22 407.142 6.28L406.584 5.434C406.908 5.374 407.268 5.29 407.664 5.182C408.072 5.074 408.468 4.96 408.852 4.84C409.236 4.708 409.572 4.6 409.86 4.516ZM406.332 7.432L406.692 6.442C407.148 6.49 407.634 6.562 408.15 6.658C408.678 6.754 409.182 6.862 409.662 6.982C410.154 7.09 410.562 7.204 410.886 7.324L410.544 8.422C410.22 8.302 409.812 8.182 409.32 8.062C408.84 7.93 408.336 7.81 407.808 7.702C407.292 7.582 406.8 7.492 406.332 7.432ZM415.602 2.374H430.47V3.778H415.602V2.374ZM416.214 15.604H429.912V17.026H416.214V15.604ZM419.238 4.804H426.726V6.028H419.238V4.804ZM419.238 7.09H426.726V8.314H419.238V7.09ZM414.72 9.394H431.28V10.816H414.72V9.394ZM418.626 12.634H427.392V14.02H418.626V12.634ZM418.248 0.807999H419.94V10.168H418.248V0.807999ZM426.114 0.825999H427.842V10.186H426.114V0.825999ZM422.1 11.302H423.828V16.414H422.1V11.302ZM419.256 9.79L420.678 10.33C420.318 10.954 419.868 11.554 419.328 12.13C418.788 12.694 418.2 13.204 417.564 13.66C416.94 14.116 416.298 14.494 415.638 14.794C415.566 14.662 415.464 14.518 415.332 14.362C415.2 14.206 415.062 14.05 414.918 13.894C414.786 13.738 414.66 13.606 414.54 13.498C415.164 13.258 415.77 12.952 416.358 12.58C416.958 12.196 417.51 11.764 418.014 11.284C418.518 10.792 418.932 10.294 419.256 9.79ZM426.816 9.79C427.14 10.282 427.548 10.756 428.04 11.212C428.532 11.656 429.078 12.058 429.678 12.418C430.278 12.778 430.884 13.072 431.496 13.3C431.388 13.396 431.256 13.522 431.1 13.678C430.956 13.834 430.818 13.996 430.686 14.164C430.566 14.332 430.464 14.482 430.38 14.614C429.744 14.338 429.114 13.978 428.49 13.534C427.878 13.078 427.314 12.574 426.798 12.022C426.282 11.47 425.844 10.9 425.484 10.312L426.816 9.79ZM432.846 1.69H438.282V3.238H432.846V1.69ZM434.556 7.27H438.066V15.28H434.556V13.768H436.896V8.764H434.556V7.27ZM434.916 2.482L436.392 2.788C436.188 3.916 435.924 5.026 435.6 6.118C435.288 7.198 434.916 8.212 434.484 9.16C434.052 10.108 433.548 10.948 432.972 11.68C432.948 11.536 432.894 11.35 432.81 11.122C432.738 10.894 432.654 10.666 432.558 10.438C432.474 10.198 432.396 10.006 432.324 9.862C432.984 8.962 433.524 7.87 433.944 6.586C434.364 5.29 434.688 3.922 434.916 2.482ZM433.908 7.27H435.15V16.684H433.908V7.27ZM438.57 2.608H443.574V3.922H438.57V2.608ZM438.552 8.98H448.146V10.366H438.552V8.98ZM443.7 12.238H448.668V13.624H443.7V12.238ZM440.604 0.825999H441.954V8.44H440.604V0.825999ZM440.388 3.382L441.378 3.922C441.21 4.402 440.988 4.894 440.712 5.398C440.448 5.902 440.154 6.376 439.83 6.82C439.506 7.264 439.176 7.654 438.84 7.99C438.768 7.822 438.654 7.624 438.498 7.396C438.354 7.156 438.216 6.97 438.084 6.838C438.384 6.586 438.678 6.274 438.966 5.902C439.266 5.53 439.536 5.122 439.776 4.678C440.028 4.234 440.232 3.802 440.388 3.382ZM441.882 3.994C441.978 4.066 442.11 4.192 442.278 4.372C442.458 4.552 442.644 4.75 442.836 4.966C443.04 5.182 443.22 5.38 443.376 5.56C443.544 5.74 443.664 5.872 443.736 5.956L442.89 6.964C442.782 6.76 442.614 6.502 442.386 6.19C442.17 5.878 441.948 5.572 441.72 5.272C441.492 4.96 441.312 4.714 441.18 4.534L441.882 3.994ZM443.97 2.608H449.244V3.922H443.97V2.608ZM445.734 0.825999H447.102V8.44H445.734V0.825999ZM445.716 3.364L446.688 3.904C446.52 4.432 446.292 4.96 446.004 5.488C445.728 6.016 445.422 6.514 445.086 6.982C444.75 7.438 444.396 7.828 444.024 8.152C443.952 7.996 443.844 7.81 443.7 7.594C443.556 7.366 443.418 7.186 443.286 7.054C443.622 6.802 443.946 6.484 444.258 6.1C444.57 5.704 444.852 5.272 445.104 4.804C445.368 4.324 445.572 3.844 445.716 3.364ZM447.642 8.98H447.876L448.128 8.89L449.226 9.25C449.07 9.718 448.896 10.198 448.704 10.69C448.512 11.17 448.326 11.584 448.146 11.932L446.868 11.482C447 11.17 447.138 10.804 447.282 10.384C447.426 9.964 447.546 9.556 447.642 9.16V8.98ZM440.856 12.598C441.132 13.462 441.498 14.122 441.954 14.578C442.41 15.022 442.956 15.322 443.592 15.478C444.24 15.622 444.96 15.694 445.752 15.694C445.848 15.694 446.016 15.694 446.256 15.694C446.496 15.694 446.772 15.694 447.084 15.694C447.396 15.694 447.714 15.694 448.038 15.694C448.362 15.694 448.656 15.694 448.92 15.694C449.184 15.682 449.388 15.676 449.532 15.676C449.46 15.784 449.388 15.928 449.316 16.108C449.256 16.288 449.202 16.468 449.154 16.648C449.106 16.828 449.07 16.99 449.046 17.134H448.236H445.662C444.654 17.134 443.766 17.026 442.998 16.81C442.242 16.594 441.594 16.192 441.054 15.604C440.514 15.004 440.07 14.134 439.722 12.994L440.856 12.598ZM442.998 9.412H444.564V16.558L442.998 15.874V9.412ZM439.704 11.05L441.126 11.302C441.042 12.154 440.916 12.97 440.748 13.75C440.58 14.518 440.328 15.232 439.992 15.892C439.668 16.54 439.206 17.098 438.606 17.566L437.436 16.504C437.952 16.12 438.36 15.652 438.66 15.1C438.96 14.548 439.194 13.93 439.362 13.246C439.53 12.55 439.644 11.818 439.704 11.05ZM447.138 3.634C447.246 3.742 447.414 3.934 447.642 4.21C447.87 4.474 448.116 4.762 448.38 5.074C448.644 5.386 448.878 5.68 449.082 5.956C449.298 6.232 449.454 6.43 449.55 6.55L448.578 7.702C448.47 7.486 448.32 7.222 448.128 6.91C447.948 6.586 447.75 6.25 447.534 5.902C447.33 5.554 447.126 5.23 446.922 4.93C446.718 4.63 446.55 4.39 446.418 4.21L447.138 3.634ZM451.836 2.77H466.218V4.534H451.836V2.77ZM450.882 14.488H467.172V16.198H450.882V14.488ZM457.992 3.706H459.9V15.172H457.992V3.706ZM479.34 9.34H481.032V16.594H479.34V9.34ZM475.02 15.586H485.244V17.098H475.02V15.586ZM475.956 12.04H484.506V13.498H475.956V12.04ZM477.702 3.112V6.154H482.706V3.112H477.702ZM476.118 1.654H484.362V7.612H476.118V1.654ZM483.642 8.08L484.704 9.358C483.936 9.562 483.054 9.736 482.058 9.88C481.062 10.012 480.036 10.126 478.98 10.222C477.924 10.318 476.916 10.384 475.956 10.42C475.932 10.24 475.878 10.024 475.794 9.772C475.722 9.508 475.638 9.286 475.542 9.106C476.25 9.07 476.976 9.022 477.72 8.962C478.476 8.89 479.214 8.812 479.934 8.728C480.666 8.644 481.344 8.548 481.968 8.44C482.604 8.332 483.162 8.212 483.642 8.08ZM471.6 2.374H473.256V17.494H471.6V2.374ZM468.81 5.866H475.38V7.468H468.81V5.866ZM471.69 6.496L472.716 6.946C472.536 7.582 472.32 8.248 472.068 8.944C471.816 9.628 471.54 10.306 471.24 10.978C470.952 11.65 470.64 12.28 470.304 12.868C469.968 13.456 469.626 13.96 469.278 14.38C469.194 14.14 469.068 13.87 468.9 13.57C468.732 13.258 468.582 13 468.45 12.796C468.774 12.436 469.092 12.01 469.404 11.518C469.716 11.014 470.016 10.48 470.304 9.916C470.604 9.34 470.868 8.758 471.096 8.17C471.336 7.582 471.534 7.024 471.69 6.496ZM474.408 1.024L475.578 2.338C474.99 2.566 474.33 2.776 473.598 2.968C472.878 3.16 472.134 3.328 471.366 3.472C470.61 3.604 469.872 3.718 469.152 3.814C469.116 3.634 469.044 3.418 468.936 3.166C468.84 2.902 468.75 2.68 468.666 2.5C469.35 2.392 470.046 2.266 470.754 2.122C471.462 1.966 472.134 1.798 472.77 1.618C473.418 1.426 473.964 1.228 474.408 1.024ZM473.22 8.278C473.328 8.362 473.496 8.524 473.724 8.764C473.952 8.992 474.198 9.238 474.462 9.502C474.738 9.766 474.984 10.018 475.2 10.258C475.416 10.486 475.566 10.654 475.65 10.762L474.66 12.094C474.552 11.902 474.402 11.662 474.21 11.374C474.03 11.086 473.826 10.792 473.598 10.492C473.382 10.18 473.172 9.886 472.968 9.61C472.764 9.334 472.59 9.112 472.446 8.944L473.22 8.278ZM497.88 1.672H501.228V3.148H497.88V1.672ZM493.776 2.428H497.34V3.85H493.776V2.428ZM498.06 5.11H501.156V6.514H498.06V5.11ZM497.952 8.458H500.994V9.88H497.952V8.458ZM489.042 5.056H492.102V6.478H489.042V5.056ZM489.15 8.386H492.156V9.808H489.15V8.386ZM500.274 1.672H501.84C501.828 2.536 501.816 3.454 501.804 4.426C501.792 5.386 501.774 6.346 501.75 7.306C501.726 8.266 501.696 9.184 501.66 10.06C501.624 10.924 501.582 11.686 501.534 12.346H499.932C499.98 11.674 500.028 10.9 500.076 10.024C500.124 9.148 500.16 8.23 500.184 7.27C500.22 6.298 500.244 5.332 500.256 4.372C500.268 3.412 500.274 2.512 500.274 1.672ZM491.598 0.897999L492.372 2.284C491.784 2.512 491.154 2.728 490.482 2.932C489.822 3.124 489.198 3.304 488.61 3.472C488.586 3.304 488.532 3.106 488.448 2.878C488.364 2.638 488.28 2.434 488.196 2.266C488.772 2.074 489.372 1.858 489.996 1.618C490.62 1.366 491.154 1.126 491.598 0.897999ZM492.948 0.934H494.406V5.506H496.638V6.856H492.948V0.934ZM486.792 11.734H503.244V13.318H486.792V11.734ZM496.602 14.506L497.538 13.318C498.174 13.606 498.816 13.918 499.464 14.254C500.112 14.59 500.724 14.92 501.3 15.244C501.876 15.568 502.368 15.868 502.776 16.144L501.66 17.44C501.276 17.152 500.802 16.84 500.238 16.504C499.686 16.168 499.098 15.826 498.474 15.478C497.85 15.13 497.226 14.806 496.602 14.506ZM492.012 13.408L493.416 14.47C492.912 14.842 492.342 15.214 491.706 15.586C491.082 15.946 490.44 16.288 489.78 16.612C489.132 16.948 488.514 17.242 487.926 17.494C487.806 17.314 487.65 17.098 487.458 16.846C487.278 16.594 487.104 16.378 486.936 16.198C487.512 15.982 488.118 15.718 488.754 15.406C489.39 15.082 489.996 14.746 490.572 14.398C491.148 14.05 491.628 13.72 492.012 13.408ZM488.196 2.266L489.762 2.698L490.068 12.238H488.538L488.196 2.266ZM493.38 7.486L494.694 7.72C494.61 8.32 494.484 8.914 494.316 9.502C494.148 10.078 493.926 10.57 493.65 10.978C493.53 10.882 493.35 10.762 493.11 10.618C492.882 10.474 492.69 10.366 492.534 10.294C492.798 9.91 492.99 9.478 493.11 8.998C493.23 8.506 493.32 8.002 493.38 7.486ZM495.756 5.524H497.196V10.222C497.196 10.534 497.16 10.774 497.088 10.942C497.016 11.098 496.866 11.23 496.638 11.338C496.422 11.422 496.146 11.476 495.81 11.5C495.486 11.512 495.102 11.518 494.658 11.518C494.634 11.35 494.58 11.164 494.496 10.96C494.424 10.756 494.346 10.576 494.262 10.42C494.55 10.432 494.814 10.444 495.054 10.456C495.294 10.456 495.456 10.45 495.54 10.438C495.624 10.438 495.678 10.426 495.702 10.402C495.738 10.366 495.756 10.306 495.756 10.222V5.524ZM67.302 38.198H73.224V39.278H67.302V38.198ZM74.898 39.386H80.064V40.718H74.898V39.386ZM68.274 42.212H72.144V43.13H68.274V42.212ZM68.274 44.084H72.144V45.002H68.274V44.084ZM66.834 40.142H73.53V41.294H66.834V40.142ZM69.462 38.612H70.902V40.538H69.462V38.612ZM67.59 40.448H68.958V46.82H67.59V40.448ZM71.406 40.484H72.81V48.512H71.406V40.484ZM66.258 46.388C67.026 46.328 67.932 46.256 68.976 46.172C70.032 46.088 71.118 45.998 72.234 45.902L72.252 47.054C71.22 47.162 70.194 47.27 69.174 47.378C68.166 47.486 67.26 47.576 66.456 47.648L66.258 46.388ZM74.952 37.766L76.41 38.018C76.194 39.11 75.876 40.148 75.456 41.132C75.048 42.116 74.568 42.938 74.016 43.598C73.944 43.514 73.836 43.412 73.692 43.292C73.56 43.16 73.422 43.034 73.278 42.914C73.134 42.782 73.002 42.68 72.882 42.608C73.398 42.02 73.83 41.3 74.178 40.448C74.526 39.596 74.784 38.702 74.952 37.766ZM77.94 40.016L79.47 40.178C79.11 42.242 78.48 43.952 77.58 45.308C76.692 46.664 75.474 47.75 73.926 48.566C73.866 48.458 73.776 48.326 73.656 48.17C73.536 48.014 73.404 47.864 73.26 47.72C73.128 47.576 73.008 47.456 72.9 47.36C74.364 46.688 75.498 45.752 76.302 44.552C77.118 43.34 77.664 41.828 77.94 40.016ZM75.456 40.862C75.732 41.822 76.104 42.722 76.572 43.562C77.052 44.39 77.622 45.122 78.282 45.758C78.954 46.394 79.704 46.892 80.532 47.252C80.352 47.396 80.16 47.6 79.956 47.864C79.764 48.128 79.608 48.362 79.488 48.566C78.612 48.122 77.832 47.534 77.148 46.802C76.476 46.07 75.894 45.224 75.402 44.264C74.922 43.304 74.526 42.266 74.214 41.15L75.456 40.862ZM65.736 36.092H80.01V37.514H65.736V36.092ZM64.944 36.092H66.51V40.196C66.51 40.82 66.486 41.492 66.438 42.212C66.39 42.932 66.306 43.67 66.186 44.426C66.078 45.182 65.904 45.914 65.664 46.622C65.436 47.33 65.136 47.978 64.764 48.566C64.668 48.47 64.542 48.356 64.386 48.224C64.23 48.092 64.068 47.966 63.9 47.846C63.732 47.726 63.588 47.642 63.468 47.594C63.924 46.874 64.254 46.082 64.458 45.218C64.662 44.342 64.794 43.472 64.854 42.608C64.914 41.732 64.944 40.928 64.944 40.196V36.092ZM67.374 33.446V34.508H70.02V33.446H67.374ZM65.88 32.51H71.604V35.462H65.88V32.51ZM74.52 33.446V34.508H77.22V33.446H74.52ZM73.026 32.51H78.804V35.462H73.026V32.51ZM84.15 36.992L85.536 37.604C85.248 38.168 84.906 38.756 84.51 39.368C84.126 39.98 83.676 40.502 83.16 40.934L81.792 40.106C82.296 39.722 82.752 39.242 83.16 38.666C83.58 38.078 83.91 37.52 84.15 36.992ZM86.346 36.758H87.876V40.034C87.876 40.286 87.948 40.454 88.092 40.538C88.248 40.61 88.578 40.646 89.082 40.646C89.202 40.646 89.412 40.646 89.712 40.646C90.024 40.646 90.36 40.646 90.72 40.646C91.08 40.646 91.422 40.646 91.746 40.646C92.07 40.646 92.31 40.646 92.466 40.646C92.754 40.646 92.964 40.604 93.096 40.52C93.24 40.436 93.342 40.262 93.402 39.998C93.462 39.722 93.504 39.314 93.528 38.774C93.696 38.894 93.918 39.008 94.194 39.116C94.47 39.212 94.716 39.284 94.932 39.332C94.86 40.04 94.746 40.592 94.59 40.988C94.446 41.372 94.218 41.636 93.906 41.78C93.594 41.924 93.156 41.996 92.592 41.996C92.496 41.996 92.322 41.996 92.07 41.996C91.83 41.996 91.554 41.996 91.242 41.996C90.93 41.996 90.612 41.996 90.288 41.996C89.976 41.996 89.7 41.996 89.46 41.996C89.22 41.996 89.058 41.996 88.974 41.996C88.266 41.996 87.72 41.942 87.336 41.834C86.964 41.726 86.706 41.528 86.562 41.24C86.418 40.952 86.346 40.556 86.346 40.052V36.758ZM87.192 35.84L88.02 34.832C88.392 34.976 88.776 35.15 89.172 35.354C89.568 35.558 89.94 35.768 90.288 35.984C90.648 36.2 90.942 36.41 91.17 36.614L90.306 37.694C90.09 37.502 89.808 37.292 89.46 37.064C89.112 36.824 88.74 36.596 88.344 36.38C87.948 36.164 87.564 35.984 87.192 35.84ZM94.05 37.91L95.274 37.1C95.646 37.412 96.024 37.76 96.408 38.144C96.804 38.528 97.17 38.912 97.506 39.296C97.842 39.68 98.106 40.028 98.298 40.34L97.002 41.276C96.822 40.964 96.57 40.61 96.246 40.214C95.922 39.818 95.568 39.422 95.184 39.026C94.8 38.618 94.422 38.246 94.05 37.91ZM93.24 35.444L94.68 36.164C93.756 37.28 92.646 38.282 91.35 39.17C90.054 40.046 88.656 40.814 87.156 41.474C85.656 42.122 84.132 42.668 82.584 43.112C82.524 42.992 82.434 42.848 82.314 42.68C82.194 42.5 82.068 42.32 81.936 42.14C81.816 41.96 81.708 41.816 81.612 41.708C83.16 41.336 84.666 40.856 86.13 40.268C87.606 39.668 88.956 38.966 90.18 38.162C91.404 37.358 92.424 36.452 93.24 35.444ZM89.1 42.518H90.828V46.982H89.1V42.518ZM94.608 43.22H96.318V48.44H94.608V43.22ZM82.332 33.266H97.704V36.902H95.976V34.778H84.006V36.902H82.332V33.266ZM88.776 31.862L90.396 31.592C90.552 31.94 90.69 32.318 90.81 32.726C90.942 33.122 91.026 33.464 91.062 33.752L89.352 34.076C89.316 33.788 89.244 33.434 89.136 33.014C89.028 32.594 88.908 32.21 88.776 31.862ZM83.808 43.436H85.482V46.154H95.544V47.756H83.808V43.436ZM109.746 32.15L111.294 31.772C111.462 32.192 111.63 32.648 111.798 33.14C111.966 33.62 112.092 34.028 112.176 34.364L110.538 34.832C110.478 34.496 110.364 34.076 110.196 33.572C110.04 33.056 109.89 32.582 109.746 32.15ZM105.822 34.76H116.19V36.362H105.822V34.76ZM109.296 38.846H114.066V40.394H109.296V38.846ZM113.472 38.846H115.164C115.164 38.846 115.164 38.894 115.164 38.99C115.164 39.074 115.158 39.176 115.146 39.296C115.146 39.416 115.146 39.512 115.146 39.584C115.098 40.952 115.05 42.116 115.002 43.076C114.954 44.036 114.894 44.834 114.822 45.47C114.75 46.094 114.666 46.592 114.57 46.964C114.474 47.324 114.36 47.588 114.228 47.756C114.048 47.984 113.85 48.146 113.634 48.242C113.43 48.338 113.184 48.404 112.896 48.44C112.632 48.476 112.284 48.494 111.852 48.494C111.42 48.494 110.964 48.482 110.484 48.458C110.472 48.218 110.418 47.936 110.322 47.612C110.238 47.3 110.124 47.024 109.98 46.784C110.436 46.82 110.856 46.844 111.24 46.856C111.624 46.868 111.906 46.874 112.086 46.874C112.362 46.886 112.578 46.808 112.734 46.64C112.866 46.496 112.974 46.166 113.058 45.65C113.154 45.122 113.232 44.336 113.292 43.292C113.364 42.248 113.424 40.868 113.472 39.152V38.846ZM108.45 35.642H110.142C110.106 37.034 110.034 38.372 109.926 39.656C109.818 40.928 109.602 42.116 109.278 43.22C108.966 44.312 108.48 45.302 107.82 46.19C107.172 47.078 106.29 47.834 105.174 48.458C105.066 48.266 104.898 48.038 104.67 47.774C104.454 47.522 104.25 47.324 104.058 47.18C105.09 46.616 105.894 45.944 106.47 45.164C107.058 44.372 107.49 43.484 107.766 42.5C108.042 41.504 108.216 40.43 108.288 39.278C108.372 38.126 108.426 36.914 108.45 35.642ZM100.404 32.582H104.958V34.112H102.006V48.512H100.404V32.582ZM104.472 32.582H104.778L105.03 32.51L106.182 33.176C106.014 33.704 105.822 34.256 105.606 34.832C105.402 35.408 105.198 35.984 104.994 36.56C104.79 37.124 104.586 37.652 104.382 38.144C105.03 38.888 105.45 39.584 105.642 40.232C105.846 40.88 105.948 41.48 105.948 42.032C105.948 42.572 105.882 43.034 105.75 43.418C105.63 43.79 105.432 44.072 105.156 44.264C105.012 44.372 104.85 44.456 104.67 44.516C104.502 44.576 104.328 44.618 104.148 44.642C103.968 44.666 103.764 44.678 103.536 44.678C103.308 44.678 103.086 44.678 102.87 44.678C102.858 44.45 102.816 44.192 102.744 43.904C102.684 43.604 102.588 43.346 102.456 43.13C102.66 43.142 102.846 43.154 103.014 43.166C103.182 43.166 103.326 43.16 103.446 43.148C103.674 43.148 103.872 43.1 104.04 43.004C104.16 42.908 104.244 42.758 104.292 42.554C104.352 42.338 104.382 42.092 104.382 41.816C104.382 41.348 104.28 40.82 104.076 40.232C103.884 39.644 103.476 39.014 102.852 38.342C103.008 37.922 103.164 37.472 103.32 36.992C103.476 36.5 103.626 36.014 103.77 35.534C103.914 35.054 104.046 34.604 104.166 34.184C104.286 33.752 104.388 33.386 104.472 33.086V32.582ZM118.17 36.326H123.174V38.054H118.17V36.326ZM125.154 31.826H126.954V46.28C126.954 46.796 126.888 47.198 126.756 47.486C126.636 47.774 126.42 47.996 126.108 48.152C125.808 48.308 125.406 48.41 124.902 48.458C124.41 48.506 123.81 48.53 123.102 48.53C123.078 48.362 123.03 48.164 122.958 47.936C122.886 47.708 122.808 47.48 122.724 47.252C122.64 47.024 122.55 46.826 122.454 46.658C122.97 46.67 123.438 46.682 123.858 46.694C124.29 46.694 124.584 46.688 124.74 46.676C124.884 46.676 124.986 46.652 125.046 46.604C125.118 46.544 125.154 46.436 125.154 46.28V31.826ZM122.598 36.326H122.94L123.246 36.272L124.38 36.686C124.104 38.282 123.696 39.734 123.156 41.042C122.628 42.338 122.004 43.472 121.284 44.444C120.576 45.416 119.796 46.208 118.944 46.82C118.848 46.688 118.716 46.538 118.548 46.37C118.392 46.202 118.224 46.04 118.044 45.884C117.864 45.716 117.702 45.59 117.558 45.506C118.398 44.954 119.154 44.252 119.826 43.4C120.498 42.536 121.068 41.546 121.536 40.43C122.016 39.302 122.37 38.06 122.598 36.704V36.326ZM126.846 35.876C127.194 36.86 127.626 37.82 128.142 38.756C128.658 39.692 129.246 40.568 129.906 41.384C130.566 42.2 131.292 42.932 132.084 43.58C132.876 44.216 133.722 44.744 134.622 45.164C134.49 45.272 134.34 45.422 134.172 45.614C134.016 45.794 133.86 45.986 133.704 46.19C133.56 46.382 133.44 46.562 133.344 46.73C132.432 46.238 131.58 45.632 130.788 44.912C129.996 44.18 129.27 43.358 128.61 42.446C127.962 41.534 127.38 40.55 126.864 39.494C126.348 38.438 125.898 37.346 125.514 36.218L126.846 35.876ZM131.562 35.102L133.146 36.2C132.69 36.68 132.21 37.178 131.706 37.694C131.202 38.21 130.692 38.702 130.176 39.17C129.672 39.638 129.198 40.046 128.754 40.394L127.566 39.458C127.998 39.086 128.46 38.648 128.952 38.144C129.444 37.64 129.918 37.124 130.374 36.596C130.842 36.068 131.238 35.57 131.562 35.102ZM144.702 34.238H152.19V35.786H144.702V34.238ZM147.114 36.362H148.554V45.362H147.114V36.362ZM145.026 31.79L146.7 32.132C146.388 33.392 145.974 34.592 145.458 35.732C144.942 36.86 144.342 37.808 143.658 38.576C143.574 38.48 143.454 38.36 143.298 38.216C143.142 38.06 142.98 37.91 142.812 37.766C142.656 37.61 142.506 37.484 142.362 37.388C142.998 36.728 143.538 35.906 143.982 34.922C144.438 33.926 144.786 32.882 145.026 31.79ZM142.668 41.186L150.408 37.568L151.002 38.954L143.262 42.572L142.668 41.186ZM144.198 37.712H145.728V46.154C145.728 46.514 145.794 46.748 145.926 46.856C146.058 46.952 146.358 47 146.826 47C146.946 47 147.144 47 147.42 47C147.708 47 148.026 47 148.374 47C148.722 47 149.046 47 149.346 47C149.658 47 149.886 47 150.03 47C150.282 47 150.474 46.952 150.606 46.856C150.738 46.76 150.828 46.568 150.876 46.28C150.936 45.992 150.984 45.566 151.02 45.002C151.2 45.134 151.422 45.254 151.686 45.362C151.962 45.47 152.208 45.554 152.424 45.614C152.364 46.334 152.256 46.898 152.1 47.306C151.956 47.726 151.728 48.02 151.416 48.188C151.116 48.368 150.69 48.458 150.138 48.458C150.042 48.458 149.88 48.458 149.652 48.458C149.424 48.458 149.16 48.458 148.86 48.458C148.56 48.458 148.26 48.458 147.96 48.458C147.66 48.458 147.39 48.458 147.15 48.458C146.922 48.458 146.772 48.458 146.7 48.458C146.052 48.458 145.542 48.392 145.17 48.26C144.81 48.128 144.558 47.894 144.414 47.558C144.27 47.222 144.198 46.754 144.198 46.154V37.712ZM135.738 34.652H142.956V36.254H135.738V34.652ZM138.42 38.486H141.48V40.052H138.42V38.486ZM137.61 35.606H139.23C139.218 36.854 139.182 38.09 139.122 39.314C139.062 40.538 138.948 41.714 138.78 42.842C138.612 43.958 138.366 44.996 138.042 45.956C137.73 46.916 137.304 47.768 136.764 48.512C136.632 48.32 136.446 48.11 136.206 47.882C135.966 47.654 135.738 47.474 135.522 47.342C136.002 46.694 136.374 45.932 136.638 45.056C136.914 44.18 137.118 43.232 137.25 42.212C137.394 41.18 137.484 40.106 137.52 38.99C137.568 37.874 137.598 36.746 137.61 35.606ZM140.94 38.486H142.488C142.488 38.486 142.488 38.534 142.488 38.63C142.488 38.714 142.488 38.81 142.488 38.918C142.488 39.026 142.482 39.116 142.47 39.188C142.446 40.676 142.416 41.936 142.38 42.968C142.356 43.988 142.32 44.828 142.272 45.488C142.224 46.136 142.164 46.64 142.092 47C142.02 47.372 141.924 47.642 141.804 47.81C141.648 48.026 141.486 48.176 141.318 48.26C141.15 48.356 140.946 48.422 140.706 48.458C140.49 48.494 140.214 48.512 139.878 48.512C139.542 48.512 139.182 48.506 138.798 48.494C138.786 48.266 138.744 48.008 138.672 47.72C138.6 47.432 138.504 47.186 138.384 46.982C138.72 47.006 139.026 47.018 139.302 47.018C139.578 47.03 139.776 47.036 139.896 47.036C140.016 47.048 140.118 47.036 140.202 47C140.286 46.964 140.364 46.892 140.436 46.784C140.544 46.652 140.628 46.316 140.688 45.776C140.748 45.236 140.796 44.408 140.832 43.292C140.868 42.176 140.904 40.682 140.94 38.81V38.486ZM138.276 32.186L139.77 31.808C139.95 32.18 140.124 32.588 140.292 33.032C140.472 33.476 140.604 33.86 140.688 34.184L139.14 34.652C139.068 34.316 138.948 33.92 138.78 33.464C138.612 32.996 138.444 32.57 138.276 32.186ZM150.156 37.874H149.958L150.534 37.406L151.668 37.73L151.596 37.964C151.584 38.624 151.56 39.338 151.524 40.106C151.5 40.862 151.458 41.6 151.398 42.32C151.338 43.028 151.272 43.658 151.2 44.21L149.958 43.958C150.018 43.454 150.06 42.854 150.084 42.158C150.108 41.462 150.126 40.736 150.138 39.98C150.15 39.224 150.156 38.522 150.156 37.874ZM161.82 34.778H170.388V36.416H161.01L161.82 34.778ZM164.106 38.702H169.956V40.268H164.106V38.702ZM164.106 42.68H170.208V44.282H164.106V42.68ZM163.26 35.318H165.006V48.512H163.26V35.318ZM162.378 32.006L164.034 32.42C163.698 33.392 163.302 34.346 162.846 35.282C162.39 36.218 161.898 37.094 161.37 37.91C160.854 38.726 160.32 39.446 159.768 40.07C159.684 39.962 159.558 39.836 159.39 39.692C159.234 39.536 159.072 39.386 158.904 39.242C158.736 39.098 158.592 38.984 158.472 38.9C159.012 38.336 159.522 37.688 160.002 36.956C160.494 36.212 160.944 35.42 161.352 34.58C161.76 33.728 162.102 32.87 162.378 32.006ZM157.86 31.88L159.516 32.384C159.12 33.404 158.658 34.424 158.13 35.444C157.602 36.452 157.026 37.4 156.402 38.288C155.79 39.176 155.154 39.962 154.494 40.646C154.446 40.514 154.362 40.334 154.242 40.106C154.134 39.878 154.014 39.65 153.882 39.422C153.762 39.182 153.648 39.002 153.54 38.882C154.116 38.306 154.668 37.646 155.196 36.902C155.736 36.158 156.234 35.354 156.69 34.49C157.146 33.626 157.536 32.756 157.86 31.88ZM155.988 36.65L157.698 34.94L157.716 34.976V48.494H155.988V36.65ZM178.506 43.832L178.038 42.662C178.782 42.386 179.352 42.026 179.748 41.582C180.144 41.138 180.342 40.61 180.342 39.998L180.09 38.36L181.08 39.836C180.936 39.98 180.774 40.088 180.594 40.16C180.426 40.22 180.252 40.25 180.072 40.25C179.664 40.25 179.31 40.13 179.01 39.89C178.71 39.638 178.56 39.278 178.56 38.81C178.56 38.354 178.71 38 179.01 37.748C179.322 37.496 179.682 37.37 180.09 37.37C180.654 37.37 181.08 37.574 181.368 37.982C181.668 38.39 181.818 38.936 181.818 39.62C181.818 40.616 181.518 41.486 180.918 42.23C180.33 42.962 179.526 43.496 178.506 43.832ZM192.168 38.558H196.488V40.124H192.168V38.558ZM195.84 38.558H197.496C197.496 38.558 197.496 38.6 197.496 38.684C197.496 38.768 197.49 38.864 197.478 38.972C197.478 39.08 197.478 39.17 197.478 39.242C197.454 40.55 197.424 41.618 197.388 42.446C197.352 43.274 197.298 43.91 197.226 44.354C197.154 44.786 197.052 45.086 196.92 45.254C196.764 45.446 196.596 45.584 196.416 45.668C196.236 45.752 196.014 45.812 195.75 45.848C195.522 45.884 195.216 45.902 194.832 45.902C194.448 45.902 194.04 45.896 193.608 45.884C193.596 45.632 193.548 45.356 193.464 45.056C193.38 44.756 193.272 44.498 193.14 44.282C193.512 44.318 193.86 44.342 194.184 44.354C194.508 44.366 194.748 44.372 194.904 44.372C195.024 44.372 195.126 44.36 195.21 44.336C195.306 44.3 195.39 44.246 195.462 44.174C195.546 44.066 195.612 43.832 195.66 43.472C195.708 43.1 195.744 42.542 195.768 41.798C195.804 41.054 195.828 40.064 195.84 38.828V38.558ZM201.042 32.798L202.086 31.772C202.446 31.952 202.824 32.162 203.22 32.402C203.616 32.63 203.988 32.864 204.336 33.104C204.684 33.344 204.972 33.566 205.2 33.77L204.12 34.922C203.904 34.718 203.622 34.49 203.274 34.238C202.938 33.986 202.572 33.734 202.176 33.482C201.792 33.23 201.414 33.002 201.042 32.798ZM203.436 37.586L205.146 38C204.39 40.34 203.346 42.392 202.014 44.156C200.694 45.92 199.128 47.348 197.316 48.44C197.244 48.308 197.13 48.152 196.974 47.972C196.818 47.804 196.662 47.63 196.506 47.45C196.35 47.282 196.206 47.144 196.074 47.036C197.862 46.076 199.374 44.792 200.61 43.184C201.846 41.576 202.788 39.71 203.436 37.586ZM192.276 34.706H206.19V36.38H192.276V34.706ZM191.142 34.706H192.924V39.872C192.924 40.532 192.9 41.246 192.852 42.014C192.804 42.782 192.714 43.568 192.582 44.372C192.45 45.164 192.258 45.932 192.006 46.676C191.754 47.42 191.418 48.086 190.998 48.674C190.914 48.566 190.776 48.434 190.584 48.278C190.404 48.122 190.218 47.972 190.026 47.828C189.846 47.696 189.69 47.594 189.558 47.522C190.05 46.802 190.404 45.998 190.62 45.11C190.848 44.21 190.992 43.304 191.052 42.392C191.112 41.48 191.142 40.634 191.142 39.854V34.706ZM198.558 31.826H200.34C200.328 33.41 200.382 34.934 200.502 36.398C200.622 37.85 200.796 39.2 201.024 40.448C201.252 41.696 201.522 42.782 201.834 43.706C202.146 44.63 202.494 45.35 202.878 45.866C203.274 46.382 203.676 46.64 204.084 46.64C204.324 46.64 204.504 46.388 204.624 45.884C204.744 45.38 204.828 44.546 204.876 43.382C205.08 43.574 205.32 43.76 205.596 43.94C205.872 44.12 206.124 44.252 206.352 44.336C206.256 45.404 206.118 46.232 205.938 46.82C205.758 47.408 205.506 47.816 205.182 48.044C204.87 48.272 204.462 48.386 203.958 48.386C203.334 48.386 202.764 48.176 202.248 47.756C201.744 47.336 201.288 46.742 200.88 45.974C200.484 45.206 200.142 44.306 199.854 43.274C199.578 42.242 199.344 41.108 199.152 39.872C198.96 38.636 198.816 37.34 198.72 35.984C198.624 34.616 198.57 33.23 198.558 31.826ZM210.276 38.018V39.908H213.894V38.018H210.276ZM208.8 36.668H215.46V41.258H208.8V36.668ZM207.9 33.95H216.144V35.444H207.9V33.95ZM216.342 36.434H224.244V37.982H216.342V36.434ZM219.924 39.188H221.4V46.118C221.4 46.286 221.406 46.424 221.418 46.532C221.442 46.64 221.472 46.712 221.508 46.748C221.568 46.784 221.622 46.808 221.67 46.82C221.73 46.832 221.802 46.838 221.886 46.838C221.958 46.838 222.054 46.838 222.174 46.838C222.306 46.838 222.42 46.838 222.516 46.838C222.6 46.838 222.684 46.832 222.768 46.82C222.852 46.808 222.912 46.79 222.948 46.766C223.056 46.718 223.134 46.544 223.182 46.244C223.206 46.088 223.224 45.836 223.236 45.488C223.248 45.14 223.254 44.732 223.254 44.264C223.41 44.408 223.614 44.546 223.866 44.678C224.118 44.81 224.358 44.912 224.586 44.984C224.574 45.404 224.544 45.824 224.496 46.244C224.46 46.664 224.418 46.97 224.37 47.162C224.238 47.534 224.022 47.792 223.722 47.936C223.59 48.008 223.422 48.056 223.218 48.08C223.026 48.116 222.846 48.134 222.678 48.134C222.594 48.134 222.474 48.134 222.318 48.134C222.174 48.134 222.03 48.134 221.886 48.134C221.742 48.134 221.622 48.134 221.526 48.134C221.334 48.134 221.13 48.104 220.914 48.044C220.698 47.984 220.512 47.894 220.356 47.774C220.212 47.642 220.104 47.462 220.032 47.234C219.96 47.006 219.924 46.592 219.924 45.992V39.188ZM218.754 31.844H220.374C220.362 32.984 220.332 34.172 220.284 35.408C220.248 36.632 220.158 37.856 220.014 39.08C219.882 40.304 219.66 41.492 219.348 42.644C219.036 43.796 218.616 44.876 218.088 45.884C217.56 46.88 216.882 47.768 216.054 48.548C215.922 48.368 215.742 48.176 215.514 47.972C215.286 47.78 215.064 47.624 214.848 47.504C215.64 46.796 216.282 45.974 216.774 45.038C217.266 44.102 217.65 43.094 217.926 42.014C218.202 40.934 218.394 39.818 218.502 38.666C218.622 37.502 218.694 36.344 218.718 35.192C218.742 34.04 218.754 32.924 218.754 31.844ZM211.446 40.844H212.976V46.802C212.976 47.15 212.934 47.432 212.85 47.648C212.778 47.864 212.622 48.032 212.382 48.152C212.142 48.272 211.854 48.344 211.518 48.368C211.182 48.392 210.774 48.404 210.294 48.404C210.27 48.2 210.21 47.96 210.114 47.684C210.018 47.42 209.916 47.186 209.808 46.982C210.12 46.994 210.408 47 210.672 47C210.936 47 211.116 47 211.212 47C211.368 47 211.446 46.922 211.446 46.766V40.844ZM209.34 42.014L210.726 42.302C210.534 43.154 210.276 43.994 209.952 44.822C209.64 45.65 209.292 46.346 208.908 46.91C208.824 46.838 208.71 46.748 208.566 46.64C208.422 46.532 208.272 46.43 208.116 46.334C207.972 46.226 207.84 46.142 207.72 46.082C208.092 45.578 208.41 44.966 208.674 44.246C208.95 43.514 209.172 42.77 209.34 42.014ZM213.498 42.338L214.704 41.798C214.992 42.29 215.262 42.836 215.514 43.436C215.778 44.036 215.958 44.552 216.054 44.984L214.776 45.578C214.68 45.134 214.512 44.612 214.272 44.012C214.044 43.4 213.786 42.842 213.498 42.338ZM220.788 33.194L221.922 32.546C222.282 32.942 222.642 33.398 223.002 33.914C223.374 34.418 223.644 34.856 223.812 35.228L222.606 35.984C222.51 35.72 222.36 35.426 222.156 35.102C221.964 34.778 221.748 34.448 221.508 34.112C221.28 33.776 221.04 33.47 220.788 33.194ZM210.816 32.114L212.382 31.772C212.574 32.156 212.766 32.582 212.958 33.05C213.15 33.506 213.288 33.896 213.372 34.22L211.734 34.634C211.662 34.31 211.536 33.908 211.356 33.428C211.188 32.948 211.008 32.51 210.816 32.114ZM233.01 31.826H234.9V46.622H233.01V31.826ZM239.346 40.808H241.236V48.494H239.346V40.808ZM227.592 33.392H229.392V38.108H238.644V33.392H240.516V39.764H227.592V33.392ZM226.728 40.826H228.618V45.794H240.228V47.486H226.728V40.826ZM252.108 38.342H257.796V39.854H252.108V38.342ZM253.242 31.808L254.88 32.186C254.64 33.026 254.352 33.848 254.016 34.652C253.692 35.456 253.332 36.212 252.936 36.92C252.552 37.616 252.144 38.234 251.712 38.774C251.604 38.678 251.466 38.564 251.298 38.432C251.13 38.3 250.956 38.174 250.776 38.054C250.608 37.934 250.458 37.832 250.326 37.748C250.962 37.028 251.532 36.14 252.036 35.084C252.54 34.028 252.942 32.936 253.242 31.808ZM257.418 38.342H257.706L258.12 38.288L259.236 38.81C259.212 38.858 259.182 38.918 259.146 38.99C259.11 39.05 259.074 39.104 259.038 39.152C257.946 40.22 257.046 41.126 256.338 41.87C255.63 42.614 255.066 43.226 254.646 43.706C254.226 44.186 253.914 44.576 253.71 44.876C253.506 45.164 253.374 45.392 253.314 45.56C253.254 45.728 253.224 45.872 253.224 45.992C253.224 46.196 253.314 46.34 253.494 46.424C253.686 46.508 253.95 46.55 254.286 46.55L257.994 46.568C258.198 46.568 258.36 46.514 258.48 46.406C258.6 46.298 258.69 46.07 258.75 45.722C258.81 45.362 258.846 44.816 258.858 44.084C259.086 44.216 259.332 44.336 259.596 44.444C259.872 44.54 260.13 44.612 260.37 44.66C260.31 45.668 260.19 46.43 260.01 46.946C259.83 47.462 259.572 47.804 259.236 47.972C258.9 48.152 258.462 48.242 257.922 48.242H254.286C253.302 48.242 252.582 48.062 252.126 47.702C251.67 47.342 251.442 46.856 251.442 46.244C251.442 46.04 251.466 45.824 251.514 45.596C251.574 45.356 251.7 45.062 251.892 44.714C252.096 44.354 252.408 43.904 252.828 43.364C253.26 42.812 253.848 42.128 254.592 41.312C255.336 40.484 256.278 39.494 257.418 38.342ZM253.17 34.58H260.226V36.074H252.414L253.17 34.58ZM249.102 34.796H250.362V46.658H249.102V34.796ZM246.528 32.024H248.04V45.308H246.528V32.024ZM244.206 34.832H245.43V44.408H249.678V45.884H244.206V34.832ZM262.674 35.138H277.38V36.848H262.674V35.138ZM261.9 46.064H278.118V47.792H261.9V46.064ZM265.068 38.018L266.778 37.622C267.018 38.402 267.246 39.236 267.462 40.124C267.69 41 267.894 41.864 268.074 42.716C268.266 43.556 268.41 44.312 268.506 44.984L266.688 45.434C266.616 44.762 266.49 44 266.31 43.148C266.142 42.296 265.944 41.426 265.716 40.538C265.5 39.638 265.284 38.798 265.068 38.018ZM273.24 37.64L275.166 38C274.962 38.744 274.74 39.518 274.5 40.322C274.272 41.114 274.026 41.9 273.762 42.68C273.51 43.46 273.252 44.204 272.988 44.912C272.736 45.608 272.49 46.232 272.25 46.784L270.558 46.388C270.81 45.836 271.062 45.2 271.314 44.48C271.578 43.748 271.83 42.986 272.07 42.194C272.31 41.402 272.532 40.616 272.736 39.836C272.94 39.056 273.108 38.324 273.24 37.64ZM268.542 32.096L270.216 31.664C270.396 32.12 270.576 32.618 270.756 33.158C270.936 33.686 271.074 34.148 271.17 34.544L269.406 35.048C269.334 34.652 269.214 34.178 269.046 33.626C268.878 33.062 268.71 32.552 268.542 32.096ZM280.206 33.05H295.794V34.778H280.206V33.05ZM288.972 38.63L290.268 37.532C290.784 37.88 291.324 38.258 291.888 38.666C292.464 39.074 293.034 39.5 293.598 39.944C294.162 40.376 294.684 40.802 295.164 41.222C295.656 41.642 296.064 42.026 296.388 42.374L294.966 43.688C294.666 43.328 294.282 42.938 293.814 42.518C293.346 42.086 292.836 41.642 292.284 41.186C291.744 40.73 291.186 40.286 290.61 39.854C290.046 39.41 289.5 39.002 288.972 38.63ZM288.468 33.662L290.34 34.346C289.668 35.582 288.852 36.794 287.892 37.982C286.944 39.17 285.876 40.268 284.688 41.276C283.512 42.272 282.24 43.13 280.872 43.85C280.788 43.706 280.674 43.544 280.53 43.364C280.386 43.172 280.242 42.986 280.098 42.806C279.966 42.614 279.834 42.458 279.702 42.338C280.686 41.858 281.616 41.294 282.492 40.646C283.368 39.998 284.184 39.296 284.94 38.54C285.708 37.772 286.386 36.974 286.974 36.146C287.574 35.318 288.072 34.49 288.468 33.662ZM287.064 37.586L288.918 35.75V35.768V48.476H287.064V37.586ZM297.522 41.024C298.218 40.844 299.052 40.616 300.024 40.34C300.996 40.052 301.98 39.764 302.976 39.476L303.192 41.006C302.292 41.306 301.38 41.6 300.456 41.888C299.532 42.164 298.692 42.422 297.936 42.662L297.522 41.024ZM297.81 35.336H303.066V36.92H297.81V35.336ZM299.772 31.826H301.356V46.658C301.356 47.066 301.308 47.39 301.212 47.63C301.116 47.87 300.948 48.062 300.708 48.206C300.48 48.338 300.18 48.422 299.808 48.458C299.448 48.506 298.998 48.53 298.458 48.53C298.434 48.314 298.374 48.05 298.278 47.738C298.194 47.438 298.104 47.174 298.008 46.946C298.332 46.958 298.632 46.964 298.908 46.964C299.196 46.964 299.388 46.958 299.484 46.946C299.592 46.946 299.664 46.928 299.7 46.892C299.748 46.856 299.772 46.778 299.772 46.658V31.826ZM303.03 42.59H314.244V43.958H303.03V42.59ZM305.442 39.746H313.236V41.114H305.442V39.746ZM305.496 38.792L307.026 39.152C306.786 39.836 306.456 40.496 306.036 41.132C305.628 41.756 305.19 42.278 304.722 42.698C304.638 42.614 304.518 42.512 304.362 42.392C304.206 42.272 304.044 42.158 303.876 42.05C303.72 41.93 303.582 41.834 303.462 41.762C303.906 41.39 304.302 40.946 304.65 40.43C305.01 39.902 305.292 39.356 305.496 38.792ZM308.142 40.43H309.762V47.27H308.142V40.43ZM311.976 44.534H313.56V48.512H311.976V44.534ZM304.128 44.57H305.658V46.568H312.786V47.918H304.128V44.57ZM307.638 31.826L309.24 32.15C308.7 32.906 308.028 33.62 307.224 34.292C306.432 34.952 305.466 35.552 304.326 36.092C304.254 35.96 304.158 35.822 304.038 35.678C303.93 35.534 303.81 35.396 303.678 35.264C303.558 35.12 303.444 35.012 303.336 34.94C304.38 34.52 305.262 34.034 305.982 33.482C306.702 32.93 307.254 32.378 307.638 31.826ZM307.656 33.05H312.84V34.292H306.918L307.656 33.05ZM312.462 33.05H312.768L313.074 32.996L314.1 33.554C313.644 34.478 313.056 35.288 312.336 35.984C311.628 36.68 310.824 37.286 309.924 37.802C309.036 38.318 308.088 38.75 307.08 39.098C306.072 39.446 305.04 39.728 303.984 39.944C303.912 39.752 303.804 39.536 303.66 39.296C303.528 39.056 303.39 38.858 303.246 38.702C304.206 38.534 305.154 38.3 306.09 38C307.026 37.7 307.908 37.328 308.736 36.884C309.564 36.44 310.296 35.924 310.932 35.336C311.58 34.736 312.09 34.058 312.462 33.302V33.05ZM306.252 34.526L307.296 33.914C307.608 34.19 307.926 34.49 308.25 34.814C308.586 35.138 308.898 35.462 309.186 35.786C309.486 36.11 309.726 36.398 309.906 36.65L308.826 37.352C308.646 37.1 308.412 36.812 308.124 36.488C307.836 36.152 307.53 35.81 307.206 35.462C306.882 35.114 306.564 34.802 306.252 34.526ZM303.696 36.56L307.116 36.164L307.188 37.154L303.786 37.604L303.696 36.56ZM317.448 34.706H322.956V46.64H317.448V45.11H321.39V36.218H317.448V34.706ZM316.458 34.706H318.024V48.026H316.458V34.706ZM317.376 39.638H322.182V41.114H317.376V39.638ZM319.122 31.772L320.976 32.078C320.784 32.654 320.58 33.236 320.364 33.824C320.148 34.412 319.95 34.91 319.77 35.318L318.42 34.994C318.504 34.694 318.594 34.358 318.69 33.986C318.786 33.602 318.87 33.218 318.942 32.834C319.026 32.438 319.086 32.084 319.122 31.772ZM325.44 34.616H330.84V36.182H325.44V34.616ZM330.246 34.616H331.83C331.83 34.616 331.83 34.67 331.83 34.778C331.83 34.874 331.83 34.988 331.83 35.12C331.83 35.252 331.83 35.354 331.83 35.426C331.77 37.478 331.704 39.218 331.632 40.646C331.56 42.062 331.476 43.226 331.38 44.138C331.296 45.05 331.188 45.758 331.056 46.262C330.936 46.766 330.786 47.132 330.606 47.36C330.378 47.66 330.144 47.864 329.904 47.972C329.664 48.092 329.37 48.176 329.022 48.224C328.71 48.26 328.302 48.272 327.798 48.26C327.306 48.26 326.802 48.248 326.286 48.224C326.274 47.984 326.214 47.702 326.106 47.378C326.01 47.066 325.878 46.796 325.71 46.568C326.298 46.616 326.838 46.646 327.33 46.658C327.822 46.67 328.182 46.676 328.41 46.676C328.59 46.676 328.734 46.658 328.842 46.622C328.962 46.586 329.076 46.508 329.184 46.388C329.328 46.22 329.454 45.896 329.562 45.416C329.67 44.924 329.766 44.234 329.85 43.346C329.934 42.446 330.006 41.306 330.066 39.926C330.138 38.546 330.198 36.89 330.246 34.958V34.616ZM325.674 31.772L327.312 32.15C327.084 33.038 326.808 33.914 326.484 34.778C326.172 35.642 325.83 36.458 325.458 37.226C325.086 37.982 324.69 38.648 324.27 39.224C324.174 39.128 324.036 39.02 323.856 38.9C323.688 38.768 323.514 38.642 323.334 38.522C323.166 38.402 323.01 38.306 322.866 38.234C323.274 37.718 323.652 37.112 324 36.416C324.36 35.72 324.678 34.976 324.954 34.184C325.242 33.38 325.482 32.576 325.674 31.772ZM324.81 39.53L326.142 38.774C326.466 39.182 326.802 39.638 327.15 40.142C327.51 40.634 327.84 41.114 328.14 41.582C328.452 42.05 328.704 42.464 328.896 42.824L327.456 43.724C327.288 43.352 327.054 42.926 326.754 42.446C326.454 41.966 326.136 41.468 325.8 40.952C325.464 40.436 325.134 39.962 324.81 39.53ZM334.116 32.744H349.902V34.418H334.116V32.744ZM337.284 41.294H347.04V42.842H337.284V41.294ZM337.32 45.812H346.878V47.396H337.32V45.812ZM340.992 33.338L343.026 33.77C342.906 34.25 342.78 34.736 342.648 35.228C342.516 35.72 342.39 36.188 342.27 36.632C342.15 37.076 342.03 37.472 341.91 37.82L340.29 37.406C340.386 37.034 340.482 36.614 340.578 36.146C340.674 35.666 340.758 35.186 340.83 34.706C340.902 34.214 340.956 33.758 340.992 33.338ZM336.042 36.83H348.192V48.53H346.392V38.414H337.77V48.53H336.042V36.83ZM355.77 31.736L357.498 32.186C357.162 33.062 356.772 33.926 356.328 34.778C355.884 35.618 355.404 36.398 354.888 37.118C354.372 37.838 353.832 38.468 353.268 39.008C353.16 38.912 353.016 38.792 352.836 38.648C352.668 38.504 352.488 38.366 352.296 38.234C352.116 38.09 351.954 37.982 351.81 37.91C352.374 37.418 352.902 36.848 353.394 36.2C353.886 35.54 354.33 34.832 354.726 34.076C355.134 33.308 355.482 32.528 355.77 31.736ZM355.77 33.896H367.308V35.534H354.942L355.77 33.896ZM354.726 38.054H366.894V39.638H356.418V43.688H354.726V38.054ZM351.792 42.842H368.226V44.498H351.792V42.842ZM360.072 34.742H361.818V48.512H360.072V34.742ZM377.064 38.18V39.134H383.922V38.18H377.064ZM377.064 36.254V37.226H383.922V36.254H377.064ZM375.498 35.264H385.542V40.142H375.498V35.264ZM374.688 41.15C375.552 41.138 376.542 41.126 377.658 41.114C378.786 41.102 379.98 41.084 381.24 41.06C382.512 41.036 383.772 41.012 385.02 40.988L384.966 42.176C383.754 42.212 382.536 42.248 381.312 42.284C380.1 42.32 378.936 42.356 377.82 42.392C376.716 42.416 375.72 42.44 374.832 42.464L374.688 41.15ZM382.68 40.268L383.814 39.638C384.138 39.878 384.468 40.148 384.804 40.448C385.152 40.748 385.476 41.048 385.776 41.348C386.088 41.648 386.334 41.924 386.514 42.176L385.29 42.896C385.122 42.644 384.894 42.368 384.606 42.068C384.318 41.756 384.006 41.444 383.67 41.132C383.334 40.82 383.004 40.532 382.68 40.268ZM379.638 31.952H381.276V41.654L379.638 41.798V31.952ZM374.328 43.274H386.37V44.588H374.328V43.274ZM382.284 41.816H383.922V46.856C383.922 47.264 383.868 47.576 383.76 47.792C383.652 48.02 383.442 48.194 383.13 48.314C382.83 48.422 382.44 48.482 381.96 48.494C381.492 48.518 380.922 48.53 380.25 48.53C380.214 48.314 380.148 48.068 380.052 47.792C379.956 47.528 379.854 47.294 379.746 47.09C380.07 47.102 380.382 47.108 380.682 47.108C380.982 47.12 381.24 47.126 381.456 47.126C381.684 47.126 381.84 47.12 381.924 47.108C382.068 47.108 382.164 47.084 382.212 47.036C382.26 46.988 382.284 46.916 382.284 46.82V41.816ZM376.092 45.2L377.352 44.408C377.76 44.744 378.18 45.14 378.612 45.596C379.056 46.04 379.398 46.436 379.638 46.784L378.288 47.666C378.072 47.318 377.754 46.91 377.334 46.442C376.926 45.974 376.512 45.56 376.092 45.2ZM374.76 33.122H386.19V34.4H374.76V33.122ZM373.536 31.88L375.156 32.366C374.76 33.386 374.298 34.4 373.77 35.408C373.242 36.416 372.672 37.364 372.06 38.252C371.448 39.14 370.818 39.926 370.17 40.61C370.11 40.466 370.026 40.286 369.918 40.07C369.81 39.854 369.69 39.632 369.558 39.404C369.438 39.176 369.33 39.002 369.234 38.882C369.81 38.306 370.362 37.646 370.89 36.902C371.43 36.158 371.928 35.354 372.384 34.49C372.84 33.626 373.224 32.756 373.536 31.88ZM371.736 36.65L373.338 35.048L373.356 35.066V48.494H371.736V36.65ZM388.386 33.338H403.704V37.226H401.976V34.886H390.06V37.226H388.386V33.338ZM390.834 36.29H401.13V37.766H390.834V36.29ZM393.948 39.026L395.244 38.306C395.94 38.906 396.504 39.572 396.936 40.304C397.368 41.036 397.674 41.786 397.854 42.554C398.046 43.322 398.13 44.054 398.106 44.75C398.094 45.446 397.992 46.058 397.8 46.586C397.608 47.114 397.35 47.504 397.026 47.756C396.726 48.044 396.426 48.236 396.126 48.332C395.838 48.428 395.472 48.482 395.028 48.494C394.836 48.494 394.608 48.488 394.344 48.476C394.08 48.476 393.81 48.47 393.534 48.458C393.522 48.23 393.474 47.96 393.39 47.648C393.318 47.348 393.21 47.084 393.066 46.856C393.39 46.88 393.696 46.904 393.984 46.928C394.272 46.94 394.512 46.946 394.704 46.946C394.944 46.946 395.148 46.922 395.316 46.874C395.484 46.826 395.64 46.718 395.784 46.55C395.976 46.382 396.132 46.1 396.252 45.704C396.372 45.296 396.426 44.822 396.414 44.282C396.414 43.742 396.33 43.166 396.162 42.554C396.006 41.942 395.748 41.33 395.388 40.718C395.04 40.106 394.56 39.542 393.948 39.026ZM395.838 36.758L397.26 37.352C396.636 37.976 395.88 38.552 394.992 39.08C394.104 39.596 393.162 40.052 392.166 40.448C391.182 40.844 390.21 41.18 389.25 41.456C389.19 41.348 389.106 41.21 388.998 41.042C388.89 40.862 388.776 40.688 388.656 40.52C388.548 40.352 388.446 40.214 388.35 40.106C389.286 39.89 390.228 39.62 391.176 39.296C392.124 38.972 393.006 38.594 393.822 38.162C394.638 37.73 395.31 37.262 395.838 36.758ZM395.226 40.178L396.324 40.988C395.88 41.312 395.37 41.642 394.794 41.978C394.218 42.302 393.6 42.62 392.94 42.932C392.292 43.244 391.638 43.532 390.978 43.796C390.318 44.048 389.694 44.27 389.106 44.462C389.01 44.27 388.884 44.048 388.728 43.796C388.572 43.532 388.416 43.31 388.26 43.13C388.836 42.998 389.448 42.824 390.096 42.608C390.744 42.392 391.386 42.152 392.022 41.888C392.67 41.612 393.27 41.33 393.822 41.042C394.374 40.754 394.842 40.466 395.226 40.178ZM396.252 42.302L397.44 43.184C396.936 43.628 396.348 44.072 395.676 44.516C395.004 44.96 394.284 45.38 393.516 45.776C392.748 46.172 391.962 46.538 391.158 46.874C390.366 47.198 389.598 47.468 388.854 47.684C388.758 47.48 388.626 47.24 388.458 46.964C388.302 46.688 388.14 46.454 387.972 46.262C388.704 46.094 389.46 45.872 390.24 45.596C391.02 45.308 391.788 44.99 392.544 44.642C393.3 44.282 393.996 43.904 394.632 43.508C395.28 43.1 395.82 42.698 396.252 42.302ZM399.888 41.168C400.14 41.936 400.482 42.662 400.914 43.346C401.358 44.018 401.88 44.618 402.48 45.146C403.08 45.662 403.746 46.064 404.478 46.352C404.358 46.46 404.226 46.598 404.082 46.766C403.95 46.922 403.818 47.084 403.686 47.252C403.554 47.432 403.446 47.594 403.362 47.738C402.558 47.366 401.838 46.874 401.202 46.262C400.566 45.65 400.008 44.948 399.528 44.156C399.06 43.352 398.682 42.476 398.394 41.528L399.888 41.168ZM401.112 38.27L402.498 39.386C401.982 39.806 401.424 40.232 400.824 40.664C400.224 41.084 399.624 41.486 399.024 41.87C398.424 42.254 397.86 42.59 397.332 42.878L396.234 41.906C396.75 41.606 397.302 41.252 397.89 40.844C398.49 40.424 399.072 39.992 399.636 39.548C400.212 39.104 400.704 38.678 401.112 38.27ZM394.506 32.168L396.288 31.646C396.48 31.97 396.672 32.336 396.864 32.744C397.068 33.14 397.206 33.482 397.278 33.77L395.406 34.346C395.334 34.046 395.208 33.692 395.028 33.284C394.86 32.876 394.686 32.504 394.506 32.168ZM415.224 36.146H416.88V42.446H415.224V36.146ZM413.334 33.698V35.12H418.824V33.698H413.334ZM411.768 32.42H420.516V36.38H411.768V32.42ZM405.648 46.604H422.388V48.08H405.648V46.604ZM407.286 43.508H420.696V44.966H407.286V43.508ZM410.31 37.496H421.812V38.81H410.31V37.496ZM413.082 42.086H414.828V47.342H413.082V42.086ZM407.862 35.696L409.446 34.13L409.464 34.148V42.59H407.862V35.696ZM409.5 31.754L411.048 32.258C410.688 33.05 410.262 33.842 409.77 34.634C409.29 35.414 408.774 36.146 408.222 36.83C407.682 37.514 407.13 38.12 406.566 38.648C406.494 38.54 406.392 38.396 406.26 38.216C406.14 38.024 406.008 37.838 405.864 37.658C405.732 37.466 405.612 37.322 405.504 37.226C406.284 36.554 407.028 35.732 407.736 34.76C408.444 33.788 409.032 32.786 409.5 31.754ZM412.902 39.17L414.378 39.728C413.946 40.172 413.436 40.634 412.848 41.114C412.272 41.582 411.732 41.978 411.228 42.302C411.144 42.206 411.03 42.092 410.886 41.96C410.742 41.816 410.592 41.678 410.436 41.546C410.292 41.402 410.166 41.294 410.058 41.222C410.55 40.946 411.054 40.628 411.57 40.268C412.086 39.896 412.53 39.53 412.902 39.17ZM417.654 39.98L418.698 39.08C419.034 39.308 419.4 39.566 419.796 39.854C420.192 40.13 420.57 40.406 420.93 40.682C421.29 40.958 421.596 41.204 421.848 41.42L420.768 42.464C420.54 42.248 420.246 41.996 419.886 41.708C419.526 41.408 419.148 41.108 418.752 40.808C418.368 40.508 418.002 40.232 417.654 39.98ZM432.054 37.37C432.582 37.37 433.056 37.496 433.476 37.748C433.896 38 434.232 38.342 434.484 38.774C434.736 39.194 434.862 39.662 434.862 40.178C434.862 40.694 434.736 41.168 434.484 41.6C434.232 42.02 433.896 42.356 433.476 42.608C433.056 42.86 432.582 42.986 432.054 42.986C431.538 42.986 431.064 42.86 430.632 42.608C430.212 42.356 429.876 42.02 429.624 41.6C429.372 41.168 429.246 40.694 429.246 40.178C429.246 39.662 429.372 39.194 429.624 38.774C429.876 38.342 430.212 38 430.632 37.748C431.064 37.496 431.538 37.37 432.054 37.37ZM432.054 41.906C432.534 41.906 432.942 41.738 433.278 41.402C433.614 41.066 433.782 40.658 433.782 40.178C433.782 39.854 433.704 39.566 433.548 39.314C433.404 39.05 433.2 38.84 432.936 38.684C432.672 38.528 432.378 38.45 432.054 38.45C431.742 38.45 431.454 38.528 431.19 38.684C430.926 38.84 430.716 39.05 430.56 39.314C430.404 39.566 430.326 39.854 430.326 40.178C430.326 40.502 430.404 40.796 430.56 41.06C430.716 41.324 430.926 41.534 431.19 41.69C431.454 41.834 431.742 41.906 432.054 41.906Z" fill="white"/>
</svg>
