<svg width="318" height="72" viewBox="0 0 318 72" fill="none" xmlns="http://www.w3.org/2000/svg">
<rect width="318" height="72" rx="10" fill="#FFE3BB"/>
<path d="M76.872 31.0242H97.248V33.8562H76.872V31.0242ZM76.104 45.5442H97.968V48.4242H76.104V45.5442ZM85.44 26.8002H88.464V32.6082H85.44V26.8002ZM90.888 34.6722L94.2 35.2722C93.96 36.2482 93.704 37.2482 93.432 38.2722C93.16 39.2962 92.872 40.3042 92.568 41.2962C92.28 42.2722 91.992 43.2002 91.704 44.0802C91.416 44.9602 91.128 45.7522 90.84 46.4562L88.032 45.8322C88.32 45.0962 88.6 44.2722 88.872 43.3602C89.144 42.4482 89.408 41.4962 89.664 40.5042C89.92 39.4962 90.152 38.4962 90.36 37.5042C90.568 36.5122 90.744 35.5682 90.888 34.6722ZM79.968 35.4882L82.728 34.7682C83.112 35.7442 83.456 36.7922 83.76 37.9122C84.08 39.0162 84.344 40.0962 84.552 41.1522C84.776 42.1922 84.928 43.1442 85.008 44.0082L82.032 44.8002C81.984 43.9522 81.864 42.9922 81.672 41.9202C81.48 40.8482 81.232 39.7522 80.928 38.6322C80.64 37.4962 80.32 36.4482 79.968 35.4882ZM126.648 32.6562H133.008V35.1762H126.648V32.6562ZM125.352 28.0002H128.088V45.8322L125.352 46.2882V28.0002ZM123.696 45.2562C124.48 45.0962 125.368 44.9042 126.36 44.6802C127.368 44.4402 128.432 44.1842 129.552 43.9122C130.672 43.6402 131.784 43.3682 132.888 43.0962L133.224 45.7842C132.248 46.0722 131.248 46.3602 130.224 46.6482C129.2 46.9362 128.208 47.2082 127.248 47.4642C126.288 47.7362 125.392 47.9842 124.56 48.2082L123.696 45.2562ZM129.648 41.4162L131.952 40.2882C132.464 40.9602 132.96 41.6962 133.44 42.4962C133.936 43.2802 134.376 44.0562 134.76 44.8242C135.16 45.5922 135.456 46.2882 135.648 46.9122L133.104 48.1842C132.944 47.5762 132.68 46.8802 132.312 46.0962C131.944 45.3122 131.528 44.5122 131.064 43.6962C130.6 42.8642 130.128 42.1042 129.648 41.4162ZM126.624 28.0002H134.712V39.8082H126.624V37.1442H132.048V30.6642H126.624V28.0002ZM142.392 27.9522H145.392V42.4962C145.392 43.1842 145.312 43.7682 145.152 44.2482C145.008 44.7122 144.72 45.0802 144.288 45.3522C143.856 45.6082 143.344 45.7762 142.752 45.8562C142.176 45.9202 141.496 45.9522 140.712 45.9522C140.68 45.6642 140.616 45.3282 140.52 44.9442C140.424 44.5442 140.304 44.1602 140.16 43.7922C140.016 43.4082 139.872 43.0802 139.728 42.8082C140.192 42.8402 140.64 42.8562 141.072 42.8562C141.52 42.8562 141.832 42.8482 142.008 42.8322C142.152 42.8322 142.248 42.8082 142.296 42.7602C142.36 42.6962 142.392 42.5842 142.392 42.4242V27.9522ZM136.056 27.9522H143.952V30.8562H138.984V49.3122H136.056V27.9522ZM172.176 27.8322H179.856V30.3282H172.176V27.8322ZM171.624 35.5362H180.744V38.0802H171.624V35.5362ZM175.2 36.9282H177.984V46.2642C177.984 46.9362 177.904 47.4722 177.744 47.8722C177.6 48.2722 177.304 48.5842 176.856 48.8082C176.408 49.0162 175.88 49.1522 175.272 49.2162C174.664 49.2802 173.96 49.3122 173.16 49.3122C173.096 48.8962 172.976 48.4242 172.8 47.8962C172.64 47.3682 172.472 46.9202 172.296 46.5522C172.808 46.5682 173.304 46.5762 173.784 46.5762C174.28 46.5762 174.608 46.5762 174.768 46.5762C174.944 46.5602 175.056 46.5282 175.104 46.4802C175.168 46.4322 175.2 46.3442 175.2 46.2162V36.9282ZM178.968 27.8322H179.592L180.12 27.6642L181.872 28.9122C181.488 29.5362 181.048 30.1842 180.552 30.8562C180.056 31.5282 179.544 32.1682 179.016 32.7762C178.488 33.3842 177.96 33.9202 177.432 34.3842C177.256 34.1122 177 33.8082 176.664 33.4722C176.344 33.1362 176.072 32.8722 175.848 32.6802C176.232 32.2962 176.624 31.8482 177.024 31.3362C177.44 30.8242 177.824 30.3042 178.176 29.7762C178.528 29.2322 178.792 28.7522 178.968 28.3362V27.8322ZM179.904 35.5362H180.288L180.672 35.4642L182.448 35.8722C182.192 36.8642 181.904 37.8802 181.584 38.9202C181.28 39.9602 180.992 40.8402 180.72 41.5602L178.584 41.1042C178.744 40.6722 178.896 40.1602 179.04 39.5682C179.2 38.9762 179.36 38.3602 179.52 37.7202C179.68 37.0802 179.808 36.4722 179.904 35.8962V35.5362ZM172.608 33.0162L174.048 31.1442C174.72 31.4322 175.416 31.7842 176.136 32.2002C176.872 32.6002 177.56 33.0162 178.2 33.4482C178.856 33.8642 179.384 34.2722 179.784 34.6722L178.224 36.7842C177.856 36.4002 177.36 35.9842 176.736 35.5362C176.112 35.0722 175.432 34.6162 174.696 34.1682C173.976 33.7202 173.28 33.3362 172.608 33.0162ZM181.728 27.7602H194.016V30.1602H181.728V27.7602ZM185.184 37.3602V38.8962H190.56V37.3602H185.184ZM185.184 40.8642V42.4242H190.56V40.8642H185.184ZM185.184 33.8802V35.4162H190.56V33.8802H185.184ZM182.568 31.7682H193.32V44.5122H182.568V31.7682ZM186.432 29.0562L189.696 29.4402C189.472 30.1922 189.24 30.9282 189 31.6482C188.76 32.3682 188.544 32.9842 188.352 33.4962L185.832 33.0162C185.928 32.6322 186.008 32.2082 186.072 31.7442C186.152 31.2802 186.224 30.8162 186.288 30.3522C186.352 29.8882 186.4 29.4562 186.432 29.0562ZM184.896 44.5602L187.272 46.0962C186.824 46.5122 186.288 46.9282 185.664 47.3442C185.056 47.7602 184.416 48.1522 183.744 48.5202C183.072 48.8882 182.416 49.1922 181.776 49.4322C181.552 49.1602 181.256 48.8402 180.888 48.4722C180.52 48.1042 180.184 47.7922 179.88 47.5362C180.504 47.3122 181.136 47.0322 181.776 46.6962C182.416 46.3602 183.008 46.0082 183.552 45.6402C184.096 45.2562 184.544 44.8962 184.896 44.5602ZM188.4 46.1682L190.512 44.7042C190.976 44.9922 191.464 45.3202 191.976 45.6882C192.488 46.0562 192.976 46.4242 193.44 46.7922C193.92 47.1602 194.32 47.4962 194.64 47.8002L192.36 49.4322C192.088 49.1282 191.728 48.7842 191.28 48.4002C190.832 48.0162 190.352 47.6242 189.84 47.2242C189.328 46.8242 188.848 46.4722 188.4 46.1682ZM230.832 37.6722L233.16 36.5202C233.576 37.0642 233.992 37.6642 234.408 38.3202C234.824 38.9602 235.2 39.6002 235.536 40.2402C235.872 40.8642 236.12 41.4322 236.28 41.9442L233.784 43.2402C233.64 42.7442 233.408 42.1762 233.088 41.5362C232.784 40.8802 232.432 40.2162 232.032 39.5442C231.648 38.8722 231.248 38.2482 230.832 37.6722ZM231.648 30.8802H240.264V33.6162H231.648V30.8802ZM239.016 30.8802H241.8C241.8 30.8802 241.8 30.9682 241.8 31.1442C241.8 31.3202 241.8 31.5122 241.8 31.7202C241.8 31.9282 241.792 32.0962 241.776 32.2242C241.696 34.8642 241.608 37.1122 241.512 38.9682C241.432 40.8082 241.328 42.3282 241.2 43.5282C241.072 44.7282 240.92 45.6722 240.744 46.3602C240.584 47.0482 240.376 47.5522 240.12 47.8722C239.784 48.3362 239.432 48.6562 239.064 48.8322C238.712 49.0082 238.28 49.1362 237.768 49.2162C237.336 49.2802 236.776 49.3122 236.088 49.3122C235.416 49.3122 234.72 49.3042 234 49.2882C233.984 48.8722 233.888 48.3842 233.712 47.8242C233.536 47.2802 233.312 46.8002 233.04 46.3842C233.808 46.4482 234.512 46.4882 235.152 46.5042C235.792 46.5202 236.264 46.5282 236.568 46.5282C236.824 46.5282 237.024 46.4962 237.168 46.4322C237.328 46.3682 237.48 46.2642 237.624 46.1202C237.816 45.9122 237.984 45.4882 238.128 44.8482C238.272 44.2082 238.392 43.3122 238.488 42.1602C238.6 40.9922 238.696 39.5282 238.776 37.7682C238.872 36.0082 238.952 33.9042 239.016 31.4562V30.8802ZM231.792 26.7762L234.768 27.4482C234.432 28.6322 234.024 29.8002 233.544 30.9522C233.08 32.0882 232.568 33.1522 232.008 34.1442C231.448 35.1362 230.864 36.0002 230.256 36.7362C230.064 36.5602 229.816 36.3602 229.512 36.1362C229.208 35.9122 228.888 35.6962 228.552 35.4882C228.216 35.2802 227.928 35.1122 227.688 34.9842C228.312 34.3442 228.88 33.5922 229.392 32.7282C229.904 31.8482 230.36 30.9042 230.76 29.8962C231.176 28.8722 231.52 27.8322 231.792 26.7762ZM223.32 26.8242L225.864 27.7122C225.544 28.3362 225.208 28.9762 224.856 29.6322C224.504 30.2722 224.16 30.8962 223.824 31.5042C223.488 32.0962 223.16 32.6162 222.84 33.0642L220.896 32.2722C221.184 31.7762 221.48 31.2162 221.784 30.5922C222.088 29.9522 222.376 29.3042 222.648 28.6482C222.92 27.9922 223.144 27.3842 223.32 26.8242ZM226.2 29.6802L228.648 30.6882C228.056 31.6002 227.416 32.5602 226.728 33.5682C226.04 34.5602 225.344 35.5122 224.64 36.4242C223.936 37.3362 223.28 38.1362 222.672 38.8242L220.92 37.9362C221.384 37.3922 221.856 36.7762 222.336 36.0882C222.816 35.4002 223.288 34.6882 223.752 33.9522C224.232 33.2162 224.68 32.4802 225.096 31.7442C225.528 30.9922 225.896 30.3042 226.2 29.6802ZM219.624 32.5122L220.992 30.5442C221.408 30.8962 221.84 31.2962 222.288 31.7442C222.736 32.1762 223.144 32.6082 223.512 33.0402C223.896 33.4722 224.184 33.8722 224.376 34.2402L222.912 36.4722C222.72 36.1042 222.44 35.6882 222.072 35.2242C221.72 34.7442 221.328 34.2722 220.896 33.8082C220.464 33.3282 220.04 32.8962 219.624 32.5122ZM225.624 35.4642L227.664 34.5762C227.984 35.1042 228.296 35.6722 228.6 36.2802C228.904 36.8882 229.168 37.4882 229.392 38.0802C229.616 38.6562 229.784 39.1762 229.896 39.6402L227.688 40.6482C227.592 40.2002 227.44 39.6802 227.232 39.0882C227.024 38.4802 226.776 37.8642 226.488 37.2402C226.216 36.6002 225.928 36.0082 225.624 35.4642ZM219.624 37.3842C220.728 37.3522 222.056 37.3042 223.608 37.2402C225.176 37.1762 226.768 37.1042 228.384 37.0242L228.36 39.3042C226.856 39.4162 225.36 39.5282 223.872 39.6402C222.384 39.7362 221.048 39.8162 219.864 39.8802L219.624 37.3842ZM226.032 41.4642L228.144 40.7682C228.48 41.4882 228.792 42.2722 229.08 43.1202C229.368 43.9682 229.576 44.7042 229.704 45.3282L227.472 46.1442C227.36 45.5042 227.168 44.7522 226.896 43.8882C226.624 43.0082 226.336 42.2002 226.032 41.4642ZM220.656 40.9122L223.032 41.3442C222.904 42.4962 222.712 43.6322 222.456 44.7522C222.2 45.8722 221.904 46.8162 221.568 47.5842C221.408 47.4722 221.192 47.3442 220.92 47.2002C220.648 47.0722 220.368 46.9442 220.08 46.8162C219.808 46.6882 219.568 46.5922 219.36 46.5282C219.712 45.8082 219.992 44.9522 220.2 43.9602C220.408 42.9522 220.56 41.9362 220.656 40.9122ZM223.44 38.6562H225.984V49.3602H223.44V38.6562Z" fill="#666666"/>
</svg>
