<svg width="1920" height="75" viewBox="0 0 1920 75" fill="none" xmlns="http://www.w3.org/2000/svg">
<g style="mix-blend-mode:multiply">
<path d="M14.24 48.42L26.46 16.04C27.38 13.6 28.41 10.75 29.56 7.47L29.81 6.9L32.42 -1.04C32.75 -2.07 33.04 -2.73 33.31 -3.04C33.58 -3.35 33.91 -3.5 34.34 -3.5C34.67 -3.5 34.98 -3.29 35.3 -2.87C35.61 -2.45 35.9 -1.81 36.16 -0.93L50.89 48.07C52.11 52.15 53.27 55.79 54.39 59.01C55.51 62.23 56.52 64.86 57.45 66.92C58.2 67.41 59.5 67.74 61.34 67.91C63.18 68.09 64.1 68.61 64.1 69.48C64.1 70.05 63.94 70.46 63.63 70.71C63.32 70.96 62.83 71.08 62.18 71.08C61.26 71.08 59.28 71.02 56.24 70.91C53.2 70.8 50.63 70.74 48.53 70.74C47.64 70.74 46.37 70.8 44.69 70.91C43.01 71.02 41.78 71.08 40.99 71.08C40.1 71.08 39.43 70.94 38.97 70.65C38.51 70.37 38.28 69.94 38.28 69.37C38.28 68.5 39.12 67.85 40.8 67.43C41.62 67.24 42.28 67.07 42.77 66.92C44.05 66.73 44.92 66.42 45.36 66C45.8 65.58 46.02 64.89 46.02 63.94C46.02 63.64 45.89 62.99 45.62 62C45.36 61.01 45.16 60.27 45.03 59.77L40.89 43.38C40.85 43.27 40.8 43.06 40.74 42.75C40.28 40.73 39.59 39.72 38.67 39.72H37.34C36.94 39.72 36.12 39.66 34.85 39.55C33.59 39.43 32.49 39.37 31.57 39.37C30.29 39.37 28.8 39.43 27.11 39.55C25.42 39.66 24.36 39.72 23.93 39.72C23.08 39.76 22.45 40.35 22.06 41.49C21.96 41.76 21.88 41.99 21.82 42.17C20.08 46.9 18.64 51.41 17.48 55.71C16.33 60.01 15.76 62.6 15.76 63.47C15.76 64.46 15.98 65.21 16.45 65.72C16.92 66.23 17.68 66.63 18.77 66.9C20.84 67.35 22.16 67.77 22.71 68.13C23.26 68.49 23.55 68.94 23.55 69.47C23.55 70 23.44 70.41 23.23 70.67C23.02 70.93 22.71 71.06 22.32 71.06C22.19 71.06 21.88 71.02 21.38 70.95C19.67 70.72 18.03 70.6 16.45 70.6C14.32 70.6 11.59 70.68 8.27 70.83C4.95 70.98 2.7 71.06 1.52 71.06C0.99 71.06 0.61 70.97 0.36 70.78C0.12 70.59 0 70.3 0 69.92C0.03 69 1.03 68.42 2.98 68.15C4.94 67.88 6.3 67.47 7.09 66.9C8.14 65.26 9.62 61.64 11.53 56.04C12.64 52.81 13.55 50.26 14.23 48.39L14.24 48.42ZM25.13 30.66C25 31.08 24.8 31.65 24.54 32.37C24.27 33.1 24.14 33.57 24.14 33.8C24.14 34.26 24.26 34.61 24.49 34.86C24.71 35.11 25.08 35.23 25.57 35.23C25.64 35.23 25.89 35.21 26.34 35.17C26.78 35.13 27.18 35.11 27.54 35.11C27.9 35.11 28.54 35.15 29.44 35.23C30.35 35.3 31.06 35.34 31.59 35.34C31.92 35.34 32.47 35.3 33.24 35.23C34.01 35.15 34.61 35.11 35.04 35.11H36.57C37.12 35.07 37.46 34.99 37.58 34.86C37.7 34.73 37.75 34.41 37.75 33.92C37.75 33.46 37.42 31.93 36.74 29.33C36.07 26.72 35.2 23.74 34.15 20.39C33.82 19.4 33.44 18.14 33.02 16.62C32.33 14.26 31.82 13.08 31.49 13.08C31.13 13.08 30.5 14.43 29.62 17.14C29.29 18.2 29.01 19.04 28.78 19.65L25.13 30.67V30.66Z" fill="#0A5E84"/>
<path d="M107.72 61.6097L108.41 38.3597C108.51 35.6197 108.59 33.0297 108.63 30.5997C108.67 28.1697 108.7 25.8797 108.7 23.7497C108.7 18.2297 108.54 13.8697 108.21 10.6497C107.88 7.42969 107.37 5.39969 106.68 4.55969C106.15 3.94969 104.89 3.54969 102.89 3.35969C102.2 3.27969 101.64 3.20969 101.21 3.12969C100.91 3.08969 100.5 3.04969 99.9801 3.01969C98.0801 2.82969 97.1201 2.36969 97.1201 1.64969C97.1201 1.07969 97.2401 0.659688 97.4901 0.399688C97.7301 0.129688 98.1401 -0.000312567 98.6901 -0.000312567C98.7901 -0.000312567 99.0501 0.0196874 99.4801 0.0596874C101.02 0.169687 102.52 0.229687 103.97 0.229687C106.69 0.229687 109.36 0.139687 111.95 -0.0503125C112.41 -0.0903125 112.67 -0.110312 112.74 -0.110312C114.38 -0.110312 115.63 0.689687 116.48 2.28969C116.81 2.89969 117.07 3.35969 117.27 3.65969L143.43 40.3797C146.22 44.2997 148.98 47.8497 151.71 51.0297C154.43 54.2097 155.95 55.7997 156.24 55.7997C156.53 55.7997 156.77 55.7397 156.95 55.6197C157.13 55.5097 157.22 55.3697 157.22 55.2297V54.9397C157.09 53.7997 157.02 52.5997 157.02 51.3397L156.73 14.8597C156.73 14.5497 156.74 14.1097 156.78 13.5397C156.81 12.9697 156.83 12.5497 156.83 12.2897C156.83 11.9097 156.81 11.3397 156.78 10.5797C156.74 9.81969 156.73 9.25969 156.73 8.91969C156.73 8.49969 156.74 7.94969 156.78 7.25969C156.81 6.57969 156.83 6.11969 156.83 5.88969C156.83 4.36969 155.43 3.44969 152.64 3.14969C152.38 3.10969 152.15 3.06969 151.95 3.03969C151.46 2.99969 150.77 2.93969 149.88 2.85969C147.25 2.59969 145.94 2.00969 145.94 1.08969C145.94 0.669688 146.15 0.289688 146.56 -0.0503125C146.97 -0.400313 147.44 -0.560313 147.96 -0.560313C148.81 -0.560313 149.84 -0.470313 151.04 -0.280313C152.24 -0.0803126 152.99 0.00968766 153.28 0.00968766C154.33 0.00968766 155.6 -0.0103125 157.07 -0.0503125C158.55 -0.0903125 159.52 -0.110312 159.98 -0.110312C162.05 -0.110312 164.28 -0.220313 166.68 -0.460313C167.37 -0.540313 167.82 -0.570312 168.01 -0.570312C168.86 -0.570312 169.49 -0.440313 169.88 -0.170313C170.28 0.0896873 170.47 0.509687 170.47 1.07969C170.47 1.56969 170.21 1.94969 169.71 2.18969C169.2 2.43969 167.89 2.70969 165.79 3.01969C163.63 3.35969 162.33 3.86969 161.9 4.55969C161.47 5.24969 161.26 6.80969 161.26 9.23969V11.8097C161.26 12.4197 161.23 13.9997 161.16 16.5497C160.9 26.0697 160.76 35.0897 160.76 43.6197C160.76 52.1497 160.88 60.9797 161.11 69.5397C161.14 70.9897 161.16 71.8597 161.16 72.1697C161.16 73.1197 161.06 73.8097 160.87 74.2297C160.67 74.6497 160.38 74.8597 159.98 74.8597C158.86 74.8597 157.71 74.0997 156.53 72.5797C156.4 72.3897 156.3 72.2597 156.24 72.1797L117.91 21.1797C117.02 20.0397 116.03 18.5697 114.93 16.7597C113.82 14.9597 113 14.0497 112.44 14.0497C112.21 14.0497 112.04 14.1297 111.92 14.3097C111.8 14.4797 111.75 14.7297 111.75 15.0797C111.75 15.3097 111.78 15.6497 111.85 16.1097C111.92 16.5697 111.95 16.9297 111.95 17.1897C111.95 17.4497 111.93 17.7497 111.9 18.0797C111.87 18.4097 111.85 18.6197 111.85 18.7397L112.64 52.4897C112.7 55.7197 112.8 58.3897 112.93 60.4897C113.06 62.5797 113.23 64.0097 113.42 64.7697C113.68 65.5697 114.51 66.3097 115.91 66.9697C117.3 67.6297 118.81 67.9597 120.41 67.9597H121.79C123.01 67.9597 123.87 68.0797 124.38 68.3097C124.89 68.5397 125.15 68.9397 125.15 69.5097C125.15 70.1197 124.97 70.5397 124.63 70.7697C124.29 70.9997 123.52 71.1097 122.34 71.1097H119.68C117.67 71.1097 115.64 71.0697 113.57 70.9997C111.5 70.9197 110.42 70.8897 110.32 70.8897C108.31 70.8897 106.21 70.9297 104.01 70.9997C101.81 71.0797 100.61 71.1097 100.41 71.1097C99.1901 71.1097 98.4401 71.0297 98.1401 70.8597C97.8501 70.6797 97.7001 70.3997 97.7001 69.9697C97.7001 68.9397 98.8901 68.2797 101.25 67.9697C102.76 67.8197 103.99 67.6297 104.95 67.3997C106.69 66.9797 107.59 65.4097 107.66 62.6697C107.69 62.2097 107.71 61.8697 107.71 61.6397L107.72 61.6097Z" fill="#0A5E84"/>
<path d="M187.12 58.0098L186.82 9.5798C186.82 9.5798 186.84 9.4298 186.87 9.2298C186.9 8.5098 186.92 7.7598 186.92 6.9998C186.92 6.0498 186.8 5.3198 186.57 4.8298C186.35 4.3398 185.9 3.89981 185.24 3.5198C184.18 2.9798 182.72 2.5498 180.85 2.1998C178.98 1.8498 178.04 1.3098 178.04 0.539805C178.04 -0.000195324 178.27 -0.380195 178.73 -0.600195C179.19 -0.830195 180.05 -0.950195 181.29 -0.950195C182.8 -0.950195 185.53 -0.770195 189.5 -0.440195C193.46 -0.0901953 196.67 0.0698049 199.13 0.0698049C200.94 0.0698049 203.6 -0.0101954 207.12 -0.160195C210.63 -0.310195 213.23 -0.390195 214.9 -0.390195H218.7C220.37 -0.390195 221.44 -0.240195 221.88 0.0698049C222.32 0.369805 222.54 1.0098 222.54 1.9598C222.54 3.9698 222.51 5.9998 222.44 8.0098C222.37 10.0198 222.34 11.0498 222.34 11.0998C222.34 11.3698 222.37 11.7598 222.44 12.2998C222.51 12.8398 222.54 13.2198 222.54 13.4398C222.54 13.8198 222.47 14.0898 222.35 14.2398C222.22 14.3898 222.02 14.4698 221.75 14.4698C221.13 14.4698 220.47 13.3898 219.78 11.2398C219.09 9.0898 218.53 7.6698 218.1 6.9798C217.25 5.7298 215.49 4.8298 212.83 4.2998C210.17 3.7698 205.98 3.4998 200.27 3.4998C198.5 3.4998 197.3 3.9098 196.67 4.7298C196.04 5.5498 195.73 7.3098 195.73 10.0098V11.4298L196.03 26.5098C196.03 28.6398 196.18 30.0498 196.47 30.7398C196.76 31.4298 197.32 31.7698 198.14 31.7698C198.47 31.7698 199.16 31.7498 200.19 31.7098C201.22 31.6698 202.12 31.6498 202.88 31.6498H205.2C208.25 31.6498 210.33 31.5698 211.43 31.3898C212.53 31.2198 213.25 30.9298 213.58 30.5098C213.87 30.0898 214.35 28.5798 215.01 25.9698C215.67 23.3598 216.44 22.0598 217.33 22.0598C217.73 22.0598 218 22.1398 218.17 22.3198C218.33 22.4898 218.41 22.7998 218.41 23.2598C218.28 25.4298 218.18 27.5298 218.11 29.5398C218.05 31.5598 218.01 33.4798 218.01 35.3098C218.01 37.6698 218.13 40.2198 218.36 42.9598C218.39 43.6098 218.41 44.0098 218.41 44.1598C218.41 45.2998 218.34 46.0198 218.19 46.2998C218.04 46.5898 217.75 46.7298 217.33 46.7298C216.47 46.7298 215.93 45.5298 215.7 43.1298C215.47 40.7298 214.99 38.8898 214.27 37.5898C213.78 36.7198 212.56 36.0998 210.6 35.7398C208.65 35.3698 205.34 35.1998 200.67 35.1998C198.63 35.1998 197.28 35.4198 196.6 35.8598C195.92 36.2998 195.59 37.1598 195.59 38.4598V40.2298L195.94 48.2798C196.04 49.9098 196.15 52.0798 196.28 54.7898C196.55 59.5498 196.82 62.5998 197.12 63.9298C197.35 64.7698 198.35 65.4698 200.13 66.0398C201.9 66.6098 204.1 66.8998 206.73 66.8998C210.01 66.8998 212.72 66.4898 214.86 65.6698C217 64.8498 218.69 63.5698 219.94 61.8198C221.06 60.3298 222.06 58.5398 222.92 56.4498C223.78 54.3598 224.4 53.3098 224.77 53.3098C225.14 53.3098 225.43 53.4598 225.66 53.7698C225.88 54.0698 226 54.4698 226 54.9698C226 55.7698 225.81 57.5498 225.41 60.3098C225.01 63.0698 224.5 65.8398 223.88 68.6198C223.68 69.5698 223.4 70.2198 223.04 70.5598C222.68 70.9098 222.15 71.0698 221.47 71.0698H220.14C219.84 71.0698 219.33 71.0298 218.61 70.9598C217.89 70.8798 217.3 70.8498 216.84 70.8498L189.34 70.7398H185.45C184.86 70.7398 183.92 70.7998 182.64 70.9098C181.36 71.0198 180.37 71.0798 179.69 71.0798C179.01 71.0798 178.55 70.9698 178.23 70.7398C177.92 70.5098 177.76 70.1698 177.76 69.7098C177.76 68.6398 178.79 68.0398 180.84 67.9098C182.89 67.7798 184.53 67.4498 185.75 66.9198C186.27 66.3798 186.63 65.6098 186.83 64.5998C187.02 63.5898 187.13 61.3898 187.13 58.0098H187.12Z" fill="#0A5E84"/>
<path d="M272.41 69.2699C271.75 70.7099 271.22 71.6799 270.81 72.1499C270.4 72.6199 269.91 72.8699 269.35 72.8699C268.04 72.8699 263.33 62.2699 255.21 41.0599C252.03 32.6899 249.48 26.0299 247.58 21.0699C247.25 20.2299 246.79 19.0599 246.2 17.5299C242.78 8.72988 240.55 4.00988 239.5 3.35988C239.27 3.24988 238.37 3.04988 236.79 2.75988C235.22 2.47988 234.43 1.85988 234.43 0.909883C234.46 0.449883 234.59 0.149883 234.83 -0.0101173C235.07 -0.170117 235.47 -0.240117 236.06 -0.240117C236.16 -0.240117 236.42 -0.230117 236.84 -0.180117C239.44 0.00988263 242.07 0.0998826 244.72 0.0998826C247.97 0.0998826 251.06 -0.0301172 253.98 -0.300117C254.44 -0.340117 254.72 -0.360117 254.82 -0.360117C255.54 -0.360117 256.09 -0.230117 256.47 0.00988293C256.85 0.259883 257.04 0.609883 257.04 1.06988C257.04 1.90988 256.48 2.43988 255.36 2.66988C255 2.74988 254.56 2.81988 254.03 2.89988C252.16 3.16988 251.21 3.71988 251.17 4.55988C251.17 4.78988 251.27 5.24988 251.47 5.92988C251.66 6.60988 251.91 7.31988 252.21 8.03988L270.05 54.3499C270.24 54.8399 270.49 55.4899 270.79 56.2899C271.45 58.0399 271.99 58.9199 272.41 58.9199C272.9 58.9199 273.43 58.1599 273.98 56.6299C274.21 56.0199 274.42 55.4899 274.62 55.0299L279.84 43.0399C279.97 42.7399 280.17 42.3099 280.43 41.7899C281.12 40.3399 281.47 39.2799 281.47 38.5899C281.47 38.4799 281.34 38.0199 281.07 37.2199C280.8 36.4199 280.49 35.5899 280.13 34.7099L268.45 8.03988C268.28 7.73988 268.09 7.29988 267.85 6.71988C267.1 4.89988 266.37 3.72988 265.69 3.23988C265.2 2.93988 264.13 2.68988 262.51 2.49988C260.88 2.30988 260.07 1.86988 260.07 1.17988C260.07 0.689883 260.26 0.309883 260.66 0.0398827C261.06 -0.230117 261.63 -0.360117 262.38 -0.360117C262.51 -0.360117 262.93 -0.340117 263.61 -0.300117C267.19 -0.180117 270.82 -0.120117 274.5 -0.120117C276.34 -0.120117 278.27 -0.160117 280.31 -0.230117H281.34C282.43 -0.230117 283.2 -0.120117 283.66 0.109883C284.12 0.339883 284.35 0.699883 284.35 1.18988C284.35 1.94988 283.38 2.44988 281.44 2.67988C281.11 2.71988 280.7 2.75988 280.21 2.78988C277.88 3.01988 276.71 3.56988 276.71 4.44988C276.71 5.01988 277.01 6.06988 277.6 7.58988C277.73 7.88988 277.83 8.12988 277.9 8.26988L284.55 24.6599C285.01 25.7699 285.41 26.5899 285.76 27.1399C286.11 27.6999 286.41 27.9699 286.67 27.9699C287.03 27.9699 287.33 27.8499 287.56 27.5999C287.79 27.3499 288.1 26.7299 288.5 25.7499L295.15 7.81988C295.28 7.50988 295.39 7.11988 295.47 6.63988C295.55 6.16988 295.59 5.57988 295.59 4.89988C295.59 3.75988 294.92 3.08988 293.57 2.89988C293.08 2.82988 292.66 2.74988 292.34 2.66988C291.19 2.43988 290.47 2.18988 290.17 1.92988C289.88 1.65988 289.73 1.23988 289.73 0.669883C289.73 0.329883 289.83 0.0898827 290.03 -0.0401173C290.23 -0.170117 290.64 -0.240117 291.26 -0.240117C292.04 -0.240117 293.06 -0.200117 294.29 -0.130117C295.52 -0.0501174 296.39 -0.0201173 296.88 -0.0201173C299.64 -0.0201173 302.53 -0.110117 305.55 -0.310117C306.24 -0.350117 306.68 -0.370117 306.88 -0.370117C307.6 -0.370117 308.17 -0.220117 308.58 0.0898829C308.99 0.389883 309.19 0.789883 309.19 1.28988C309.19 1.63988 309.06 1.92988 308.8 2.17988C308.53 2.42988 308.22 2.54988 307.86 2.54988C303.49 2.54988 299.89 6.31988 297.07 13.8599C296.15 16.3299 295.38 18.2899 294.75 19.7399L290.22 30.6499C290.15 30.7599 290.05 30.9499 289.92 31.2199C289.46 32.0199 289.23 32.7599 289.23 33.4499C289.23 34.0999 289.6 35.3899 290.34 37.3299C291.08 39.2699 292.19 41.8099 293.66 44.9299C294.32 46.2999 295.16 48.1299 296.17 50.4099C298.27 55.0199 299.65 57.3199 300.31 57.3199C300.87 57.3199 301.31 56.7099 301.64 55.4899C301.8 54.9199 301.94 54.4999 302.04 54.2399L316.97 11.8099C317.69 9.74988 318.2 8.22988 318.48 7.23988C318.75 6.24988 318.89 5.46988 318.89 4.89988C318.89 4.35988 318.07 3.86988 316.43 3.40988C315.64 3.14988 315 2.93988 314.51 2.77988C314.18 2.66988 313.92 2.43988 313.72 2.09988C313.53 1.74988 313.43 1.34988 313.43 0.899883C313.43 0.479883 313.58 0.169883 313.87 -0.0401173C314.16 -0.250117 314.65 -0.360117 315.35 -0.360117C315.61 -0.360117 316.01 -0.320117 316.53 -0.240117C317.06 -0.170117 317.44 -0.130117 317.67 -0.130117H329.79C330.41 -0.130117 330.92 0.0398828 331.32 0.379883C331.72 0.719883 331.91 1.13988 331.91 1.62988C331.91 2.42988 331.25 2.84988 329.94 2.87988C329.09 2.91988 328.48 2.99988 328.12 3.10988C326.38 3.71988 324.54 6.41988 322.6 11.2199C322.17 12.2799 321.85 13.0999 321.62 13.6699C321.1 14.9699 320.22 17.0999 319.01 20.0699C314.01 32.2599 309.97 42.5899 306.88 51.0799C305.77 54.1699 304.4 58.0299 302.8 62.6799C300.5 69.3799 299 72.7299 298.31 72.7299C297.88 72.7299 297.42 72.5499 296.93 72.1899C296.44 71.8299 296.09 71.4199 295.9 70.9599L287.18 50.3499L287.08 50.0599C285.54 46.3699 284.53 44.5199 284.07 44.5199C283.74 44.5199 283.47 44.6299 283.26 44.8299C283.04 45.0399 282.77 45.5299 282.45 46.2899L272.4 69.2499L272.41 69.2699Z" fill="#0A5E84"/>
<path d="M375.55 56.0102L375.95 18.7202V12.7202C375.95 9.4002 375.88 7.2002 375.76 6.1202C375.63 5.0402 375.38 4.4402 375.02 4.3202C374 4.0202 372.59 3.7702 370.78 3.5802C368.45 3.3102 367.28 2.7402 367.28 1.8602C367.28 0.870195 368.16 0.200195 369.92 -0.159805C371.68 -0.529805 375.68 -0.699805 381.92 -0.699805C383.66 -0.699805 385.78 -0.759805 388.28 -0.879805C390.77 -0.989805 392.41 -1.0498 393.2 -1.0498C399.67 -1.0498 404.87 0.470195 408.8 3.5202C412.72 6.56019 414.68 10.5202 414.68 15.4002C414.68 17.4502 414.35 19.4402 413.7 21.3702C413.05 23.3002 412.13 24.9002 410.94 26.2002C410.61 26.5802 410.08 27.0502 409.34 27.6202C408.6 28.1902 408.23 28.6502 408.23 28.9902C408.23 29.4802 408.67 30.0002 409.56 30.5302C410.28 30.9502 410.86 31.3302 411.29 31.6702C414.05 33.9202 416.04 36.3502 417.28 38.9802C418.51 41.6002 419.13 44.7102 419.13 48.2902C419.13 55.8302 416.84 61.5102 412.26 65.3402C407.68 69.1702 400.86 71.0702 391.79 71.0702C391.07 71.0702 389.98 70.9902 388.54 70.8402C387.09 70.6902 385.99 70.6102 385.24 70.6102C383.6 70.6102 381.11 70.6902 377.78 70.8402C374.44 70.9902 371.96 71.0702 370.32 71.0702C368.87 71.0702 367.84 70.9002 367.21 70.5602C366.58 70.2202 366.27 69.6502 366.27 68.8502C366.27 68.2802 366.93 67.7302 368.26 67.1902C369.59 66.6502 371.15 66.3902 372.92 66.3902C373.84 66.3902 374.5 65.6402 374.9 64.1302C375.29 62.6302 375.52 59.9202 375.59 55.9902L375.55 56.0102ZM384.32 54.9902C384.32 59.4802 385.07 62.5302 386.56 64.1302C388.06 65.7302 390.74 66.5302 394.61 66.5302C399.64 66.5302 403.48 65.1602 406.14 62.4202C408.8 59.6802 410.13 55.7202 410.13 50.5402C410.13 44.4902 408.29 40.1102 404.64 37.4102C400.97 34.7002 395.01 33.3502 386.73 33.3502C385.78 33.3502 385.17 33.4802 384.91 33.7202C384.65 33.9602 384.51 34.5402 384.51 35.4602C384.51 35.7302 384.48 36.3502 384.41 37.3402C384.34 38.3302 384.31 39.1702 384.31 39.8502C384.31 39.9602 384.33 40.3902 384.36 41.1402C384.39 41.8802 384.41 42.5902 384.41 43.2802C384.41 43.3502 384.39 43.6202 384.36 44.0802C384.33 44.5402 384.31 44.9402 384.31 45.2802V54.9902H384.32ZM384.52 26.1002C384.52 26.2502 384.54 26.4502 384.57 26.7002C384.6 26.9502 384.62 27.0902 384.62 27.1202C384.62 27.3502 384.6 27.6202 384.57 27.9202C384.53 28.2202 384.52 28.4302 384.52 28.5502C384.52 29.1202 384.87 29.5202 385.58 29.7202C386.29 29.9302 387.67 30.0402 389.74 30.0402C395.36 30.0402 399.57 28.8402 402.38 26.4402C405.19 24.0402 406.59 20.4702 406.59 15.7002C406.59 10.9302 405.36 7.5702 402.89 5.4802C400.43 3.39019 396.39 2.3402 390.77 2.3402C388.24 2.3402 386.6 2.61019 385.84 3.14019C385.09 3.68019 384.71 5.2302 384.71 7.8202L384.51 26.0902L384.52 26.1002Z" fill="#0A5E84"/>
<path d="M439.08 58.0098L438.78 9.5798C438.78 9.5798 438.8 9.4298 438.83 9.2298C438.86 8.5098 438.88 7.7598 438.88 6.9998C438.88 6.0498 438.76 5.3198 438.53 4.8298C438.31 4.3398 437.86 3.89981 437.2 3.5198C436.14 2.9798 434.68 2.5498 432.81 2.1998C430.94 1.8498 430 1.3098 430 0.539805C430 -0.000195324 430.23 -0.380195 430.69 -0.600195C431.15 -0.830195 432.01 -0.950195 433.25 -0.950195C434.76 -0.950195 437.49 -0.770195 441.46 -0.440195C445.42 -0.0901953 448.63 0.0698049 451.09 0.0698049C452.9 0.0698049 455.56 -0.0101954 459.08 -0.160195C462.59 -0.310195 465.19 -0.390195 466.86 -0.390195H470.66C472.33 -0.390195 473.4 -0.240195 473.84 0.0698049C474.28 0.369805 474.5 1.0098 474.5 1.9598C474.5 3.9698 474.47 5.9998 474.4 8.0098C474.33 10.0198 474.3 11.0498 474.3 11.0998C474.3 11.3698 474.33 11.7598 474.4 12.2998C474.47 12.8398 474.5 13.2198 474.5 13.4398C474.5 13.8198 474.43 14.0898 474.31 14.2398C474.18 14.3898 473.98 14.4698 473.71 14.4698C473.09 14.4698 472.43 13.3898 471.74 11.2398C471.05 9.0898 470.49 7.6698 470.06 6.9798C469.21 5.7298 467.45 4.8298 464.79 4.2998C462.13 3.7698 457.94 3.4998 452.23 3.4998C450.46 3.4998 449.26 3.9098 448.63 4.7298C448 5.5498 447.69 7.3098 447.69 10.0098V11.4298L447.99 26.5098C447.99 28.6398 448.14 30.0498 448.43 30.7398C448.72 31.4298 449.28 31.7698 450.1 31.7698C450.43 31.7698 451.12 31.7498 452.15 31.7098C453.18 31.6698 454.08 31.6498 454.84 31.6498H457.16C460.21 31.6498 462.29 31.5698 463.39 31.3898C464.49 31.2198 465.21 30.9298 465.54 30.5098C465.83 30.0898 466.31 28.5798 466.97 25.9698C467.63 23.3598 468.4 22.0598 469.29 22.0598C469.69 22.0598 469.96 22.1398 470.13 22.3198C470.29 22.4898 470.37 22.7998 470.37 23.2598C470.24 25.4298 470.14 27.5298 470.07 29.5398C470.01 31.5598 469.97 33.4798 469.97 35.3098C469.97 37.6698 470.09 40.2198 470.32 42.9598C470.35 43.6098 470.37 44.0098 470.37 44.1598C470.37 45.2998 470.3 46.0198 470.15 46.2998C470 46.5898 469.71 46.7298 469.29 46.7298C468.43 46.7298 467.89 45.5298 467.66 43.1298C467.43 40.7298 466.95 38.8898 466.23 37.5898C465.74 36.7198 464.52 36.0998 462.56 35.7398C460.61 35.3698 457.3 35.1998 452.63 35.1998C450.59 35.1998 449.24 35.4198 448.56 35.8598C447.88 36.2998 447.55 37.1598 447.55 38.4598V40.2298L447.9 48.2798C448 49.9098 448.11 52.0798 448.24 54.7898C448.51 59.5498 448.78 62.5998 449.08 63.9298C449.31 64.7698 450.31 65.4698 452.09 66.0398C453.86 66.6098 456.06 66.8998 458.69 66.8998C461.97 66.8998 464.68 66.4898 466.82 65.6698C468.96 64.8498 470.65 63.5698 471.9 61.8198C473.02 60.3298 474.02 58.5398 474.88 56.4498C475.75 54.3598 476.36 53.3098 476.73 53.3098C477.1 53.3098 477.39 53.4598 477.62 53.7698C477.84 54.0698 477.96 54.4698 477.96 54.9698C477.96 55.7698 477.77 57.5498 477.37 60.3098C476.97 63.0698 476.46 65.8398 475.84 68.6198C475.64 69.5698 475.36 70.2198 475 70.5598C474.64 70.9098 474.11 71.0698 473.43 71.0698H472.1C471.8 71.0698 471.29 71.0298 470.57 70.9598C469.85 70.8798 469.26 70.8498 468.8 70.8498L441.3 70.7398H437.41C436.82 70.7398 435.88 70.7998 434.6 70.9098C433.32 71.0198 432.33 71.0798 431.65 71.0798C430.97 71.0798 430.51 70.9698 430.19 70.7398C429.88 70.5098 429.72 70.1698 429.72 69.7098C429.72 68.6398 430.75 68.0398 432.8 67.9098C434.85 67.7798 436.49 67.4498 437.71 66.9198C438.23 66.3798 438.59 65.6098 438.79 64.5998C438.98 63.5898 439.09 61.3898 439.09 58.0098H439.08Z" fill="#0A5E84"/>
<path d="M497.42 61.6097L498.11 38.3597C498.21 35.6197 498.29 33.0297 498.33 30.5997C498.38 28.1597 498.4 25.8797 498.4 23.7497C498.4 18.2297 498.24 13.8697 497.91 10.6497C497.58 7.42969 497.07 5.39969 496.38 4.55969C495.85 3.94969 494.59 3.54969 492.59 3.35969C491.9 3.27969 491.34 3.20969 490.91 3.12969C490.61 3.08969 490.2 3.04969 489.68 3.01969C487.78 2.82969 486.82 2.36969 486.82 1.64969C486.82 1.07969 486.94 0.659688 487.19 0.399688C487.43 0.129688 487.84 -0.000312567 488.39 -0.000312567C488.49 -0.000312567 488.75 0.0196874 489.18 0.0596874C490.72 0.169687 492.22 0.229687 493.67 0.229687C496.39 0.229687 499.06 0.139687 501.65 -0.0503125C502.11 -0.0903125 502.37 -0.110312 502.44 -0.110312C504.08 -0.110312 505.33 0.689687 506.18 2.28969C506.51 2.89969 506.77 3.35969 506.97 3.65969L533.13 40.3797C535.92 44.2997 538.68 47.8497 541.41 51.0297C544.13 54.2097 545.65 55.7997 545.94 55.7997C546.23 55.7997 546.47 55.7397 546.65 55.6197C546.83 55.5097 546.92 55.3697 546.92 55.2297V54.9397C546.79 53.7997 546.72 52.5997 546.72 51.3397L546.43 14.8597C546.43 14.5497 546.44 14.1097 546.48 13.5397C546.51 12.9697 546.53 12.5497 546.53 12.2897C546.53 11.9097 546.51 11.3397 546.48 10.5797C546.44 9.81969 546.43 9.25969 546.43 8.91969C546.43 8.49969 546.44 7.94969 546.48 7.25969C546.51 6.57969 546.53 6.11969 546.53 5.88969C546.53 4.36969 545.13 3.44969 542.34 3.14969C542.08 3.10969 541.85 3.06969 541.65 3.03969C541.16 2.99969 540.47 2.93969 539.58 2.85969C536.95 2.59969 535.64 2.00969 535.64 1.08969C535.64 0.669688 535.85 0.289688 536.26 -0.0503125C536.67 -0.400313 537.14 -0.560313 537.66 -0.560313C538.51 -0.560313 539.54 -0.470313 540.74 -0.280313C541.94 -0.0803126 542.69 0.00968766 542.98 0.00968766C544.03 0.00968766 545.3 -0.0103125 546.77 -0.0503125C548.25 -0.0903125 549.22 -0.110312 549.68 -0.110312C551.75 -0.110312 553.98 -0.220313 556.38 -0.460313C557.07 -0.540313 557.52 -0.570312 557.71 -0.570312C558.56 -0.570312 559.19 -0.440313 559.58 -0.170313C559.98 0.0896873 560.17 0.509687 560.17 1.07969C560.17 1.56969 559.91 1.94969 559.41 2.18969C558.9 2.43969 557.59 2.70969 555.49 3.01969C553.33 3.35969 552.03 3.86969 551.6 4.55969C551.17 5.24969 550.96 6.80969 550.96 9.23969V11.8097C550.96 12.4197 550.93 13.9997 550.86 16.5497C550.6 26.0697 550.46 35.0897 550.46 43.6197C550.46 52.1497 550.58 60.9797 550.81 69.5397C550.84 70.9897 550.86 71.8597 550.86 72.1697C550.86 73.1197 550.76 73.8097 550.57 74.2297C550.37 74.6497 550.08 74.8597 549.68 74.8597C548.56 74.8597 547.41 74.0997 546.23 72.5797C546.1 72.3897 546 72.2597 545.94 72.1797L507.61 21.1797C506.72 20.0397 505.73 18.5697 504.63 16.7597C503.52 14.9597 502.7 14.0497 502.14 14.0497C501.91 14.0497 501.74 14.1297 501.62 14.3097C501.5 14.4797 501.45 14.7297 501.45 15.0797C501.45 15.3097 501.48 15.6497 501.55 16.1097C501.62 16.5697 501.65 16.9297 501.65 17.1897C501.65 17.4497 501.63 17.7497 501.6 18.0797C501.57 18.4097 501.55 18.6197 501.55 18.7397L502.34 52.4897C502.4 55.7197 502.5 58.3897 502.63 60.4897C502.76 62.5797 502.93 64.0097 503.12 64.7697C503.38 65.5697 504.21 66.3097 505.61 66.9697C507 67.6297 508.51 67.9597 510.11 67.9597H511.49C512.71 67.9597 513.57 68.0797 514.08 68.3097C514.59 68.5397 514.85 68.9397 514.85 69.5097C514.85 70.1197 514.67 70.5397 514.33 70.7697C513.99 70.9997 513.22 71.1097 512.04 71.1097H509.38C507.37 71.1097 505.34 71.0697 503.27 70.9997C501.2 70.9197 500.12 70.8897 500.02 70.8897C498.01 70.8897 495.91 70.9297 493.71 70.9997C491.51 71.0797 490.31 71.1097 490.11 71.1097C488.89 71.1097 488.14 71.0297 487.84 70.8597C487.55 70.6797 487.4 70.3997 487.4 69.9697C487.4 68.9397 488.59 68.2797 490.95 67.9697C492.46 67.8197 493.69 67.6297 494.65 67.3997C496.39 66.9797 497.29 65.4097 497.36 62.6697C497.39 62.2097 497.41 61.8697 497.41 61.6397L497.42 61.6097Z" fill="#0A5E84"/>
<path d="M604.59 72.41C600.55 72.41 596.77 71.82 593.26 70.63C589.75 69.45 586.41 67.66 583.26 65.26C578.5 61.53 574.98 57.25 572.7 52.42C570.41 47.58 569.27 41.97 569.27 35.57C569.27 29.67 570.35 24.24 572.5 19.3C574.65 14.35 577.85 9.99 582.09 6.23C584.72 3.83 587.93 1.98 591.72 0.69C595.51 -0.6 599.59 -1.25 603.96 -1.25C607.7 -1.25 611.31 -0.86 614.77 -0.0799999C618.24 0.7 620.4 1.47 621.25 2.23C621.88 2.8 622.34 3.89 622.65 5.48C622.97 7.08 623.12 9.23 623.12 11.93C623.12 12.28 623.08 12.49 623 12.59C622.92 12.69 622.76 12.74 622.53 12.74C622.2 12.74 621.88 12.64 621.57 12.45C621.26 12.26 620.77 11.79 620.12 11.02C619.99 10.83 619.81 10.6 619.58 10.34C614.98 4.7 610.09 1.89 604.9 1.89C601.78 1.89 598.86 2.61 596.15 4.03C593.44 5.46 590.9 7.58 588.54 10.4C585.71 13.83 583.59 17.56 582.18 21.59C580.77 25.62 580.06 30.01 580.06 34.73C580.06 44.59 582.31 52.67 586.83 58.97C591.35 65.27 597.12 68.42 604.15 68.42C607.5 68.42 610.33 67.82 612.65 66.62C614.97 65.42 617.07 63.51 618.98 60.88C619.5 60.12 620.13 59.15 620.85 57.97C621.83 56.29 622.59 55.46 623.11 55.46C623.51 55.46 623.81 55.63 624.02 55.97C624.24 56.32 624.34 56.81 624.34 57.46C624.34 59.59 624.1 61.67 623.6 63.72C623.1 65.76 622.58 67.02 622.02 67.52C620.41 68.96 618.03 70.14 614.88 71.06C611.73 71.98 608.29 72.43 604.58 72.43L604.59 72.41Z" fill="#0A5E84"/>
<path d="M641.41 35.7997C641.41 35.4897 641.43 32.8597 641.46 27.8897C641.5 22.9197 641.51 18.1097 641.51 13.4697C641.51 9.47973 641.39 6.95973 641.17 5.92973C640.94 4.89973 640.53 4.24973 639.94 3.98973C639.15 3.64973 638.04 3.35973 636.59 3.13973C634.16 2.78973 632.94 1.85973 632.94 0.339727C632.94 0.0297267 633.1 -0.230273 633.41 -0.460274C633.72 -0.690274 634.11 -0.810273 634.56 -0.810273C634.66 -0.810273 635 -0.790273 635.6 -0.750273C639.25 -0.560273 643 -0.470273 646.88 -0.470273C649.64 -0.470273 652.28 -0.560273 654.81 -0.750273C655.21 -0.790273 655.45 -0.810273 655.55 -0.810273C656.4 -0.810273 657.02 -0.700273 657.4 -0.490273C657.78 -0.280273 657.97 0.0697267 657.97 0.569727C657.97 1.62973 657.23 2.30973 655.75 2.59973C654.27 2.87973 653.12 3.34973 652.3 3.98973C651.51 3.98973 650.94 4.27973 650.6 4.84973C650.26 5.41973 650.08 6.40973 650.08 7.81973C650.08 8.30973 650.13 9.18973 650.23 10.4397C650.27 10.7497 650.28 10.9797 650.28 11.1297V27.4597C650.28 29.6297 650.46 30.9897 650.83 31.5497C651.19 32.0997 651.96 32.3697 653.15 32.3697C653.41 32.3697 654.12 32.3597 655.27 32.3097C659.57 32.1197 663.63 32.0297 667.44 32.0297C667.87 32.0297 668.79 32.0397 670.2 32.0897C671.62 32.1297 672.81 32.1497 673.8 32.1497C675.44 32.1497 677.12 32.1097 678.85 32.0397C680.58 31.9597 682.34 31.8497 684.14 31.6897C684.77 31.6097 685.19 31.4297 685.4 31.1497C685.61 30.8597 685.72 30.2597 685.72 29.3497V8.04973C685.72 6.98973 685.61 6.17973 685.4 5.61973C685.19 5.06973 684.82 4.63973 684.29 4.33973C683.53 3.84973 682.31 3.46973 680.62 3.22973C678.92 2.97973 678.07 2.33973 678.03 1.30973C678.03 0.669726 678.24 0.229727 678.65 -0.000273466C679.06 -0.230273 679.87 -0.350273 681.09 -0.350273C681.78 -0.350273 682.68 -0.330273 683.8 -0.290273C684.91 -0.250273 685.68 -0.230273 686.12 -0.230273C688.78 -0.230273 691.68 -0.360274 694.81 -0.630274C697.95 -0.900274 699.73 -1.03027 700.16 -1.03027C701.05 -1.03027 701.73 -0.880273 702.23 -0.570273C702.73 -0.260273 702.97 0.159726 702.97 0.679726C702.97 1.40973 702.03 1.94973 700.16 2.30973C698.29 2.67973 696.91 3.22973 696.02 3.98973C695.3 3.98973 694.8 4.17973 694.52 4.55973C694.24 4.94973 694.1 5.94973 694.1 7.58973V8.44973C694.03 11.4197 694 14.4097 694 17.4097L694.1 47.5097C694.1 52.7297 694.22 56.9397 694.45 60.1597C694.67 63.3797 695 65.5197 695.43 66.5797C696.09 66.9597 697.43 67.2297 699.47 67.3797C700.42 67.4597 701.2 67.5297 701.79 67.6097C702.09 67.6897 702.36 67.9097 702.6 68.2697C702.85 68.6297 702.97 68.9997 702.97 69.3797C702.97 70.0297 702.67 70.4697 702.06 70.7297C701.45 70.9797 700.15 71.0997 698.15 71.0997C697.03 71.0997 695.05 70.9897 692.21 70.7597C689.37 70.5297 687.07 70.4097 685.34 70.4097C684.32 70.4097 683.05 70.5197 681.52 70.7597C679.99 70.9897 678.98 71.0997 678.49 71.0997C677.67 71.0997 677.06 70.9897 676.64 70.7597C676.23 70.5297 676.03 70.1897 676.03 69.7297C676.03 68.5097 677.09 67.7797 679.23 67.5297C681.36 67.2797 682.84 66.9497 683.66 66.5297C684.38 66.1097 684.89 65.3997 685.19 64.4197C685.48 63.4297 685.63 61.6797 685.63 59.1597V40.0297C685.63 38.6297 685.36 37.6997 684.84 37.2597C684.31 36.8197 682.83 36.5997 680.4 36.5997H654.63C652.76 36.5997 651.57 36.8697 651.06 37.3997C650.55 37.9297 650.29 38.9997 650.29 40.5997V42.7097L650.39 56.9297C650.39 60.3997 650.52 62.7097 650.78 63.8697C651.05 65.0297 651.55 65.9097 652.31 66.5297C653.2 66.8297 654.43 67.0797 656.01 67.2697C658.11 67.4997 659.16 68.0697 659.16 68.9797C659.16 69.8897 659.01 70.5197 658.72 70.7597C658.42 70.9897 657.57 71.0997 656.16 71.0997C655.24 71.0997 653.6 71.0097 651.23 70.8197C648.87 70.6297 646.98 70.5297 645.57 70.5297C644.29 70.5297 642.48 70.6297 640.12 70.8197C637.77 71.0097 636.09 71.0997 635.07 71.0997C634.05 71.0997 633.26 70.9597 632.68 70.6697C632.11 70.3897 631.82 69.9997 631.82 69.4997C631.82 68.5097 632.91 67.8097 635.07 67.3897C636.52 67.1297 637.67 66.8397 638.52 66.5397C639.54 66.1897 640.28 65.6897 640.74 65.0297C641.2 64.3597 641.43 63.3997 641.43 62.1497C641.43 61.6497 641.47 61.0197 641.53 60.2597L641.43 35.8197L641.41 35.7997Z" fill="#0A5E84"/>
<path d="M770.56 59.3795V24.0895C770.56 23.8995 770.52 23.5795 770.46 23.1495C770.39 22.7095 770.36 22.3595 770.36 22.0895C770.36 21.8995 770.38 21.5795 770.41 21.1195C770.44 20.6595 770.46 20.3195 770.46 20.0895C770.46 19.0995 770.4 18.4495 770.28 18.1195C770.16 17.7895 769.96 17.6295 769.67 17.6295C769.08 17.6295 767.47 21.3195 764.84 28.6995C763.23 33.2695 761.86 37.0395 760.75 40.0095C759.5 43.4095 757.91 47.8195 755.97 53.2595C752.33 63.3495 750.09 68.3895 749.27 68.3895C748.84 68.3895 748.43 68.1195 748.04 67.5695C747.64 67.0095 747.09 65.7695 746.37 63.8295L728.38 16.1395C728.34 16.0295 728.28 15.8495 728.18 15.6295C727.92 14.8695 727.66 14.4895 727.4 14.4895C727.17 14.4895 727 14.5995 726.91 14.8395C726.81 15.0695 726.76 15.4995 726.76 16.1495V17.1795L726.27 58.8095C726.27 61.3195 726.47 63.0595 726.87 64.0095C727.26 64.9595 727.97 65.7195 728.99 66.2895C729.85 66.7895 731.44 67.1795 733.77 67.4695C736.1 67.7495 737.26 68.4295 737.26 69.4895C737.26 69.9495 736.97 70.3295 736.4 70.6295C735.83 70.9395 735.08 71.0895 734.16 71.0895C733.38 71.0895 732.01 71.0095 730.08 70.8595C728.14 70.7095 726.61 70.6295 725.5 70.6295C724.68 70.6295 722.86 70.7095 720.03 70.8595C717.2 71.0095 714.82 71.0895 712.88 71.0895C712.13 71.0895 711.57 70.9295 711.21 70.5995C710.85 70.2795 710.67 69.7795 710.67 69.0895C710.67 68.6695 710.79 68.3395 711.01 68.0895C711.24 67.8395 711.78 67.5995 712.64 67.3695C713.1 67.2595 713.7 67.1195 714.46 66.9795C717.38 66.3695 719.17 65.5295 719.83 64.4695C720.39 63.4795 720.85 59.9995 721.21 54.0195C721.31 52.4295 721.39 51.1695 721.46 50.2495C722.15 40.4695 722.71 31.4795 723.14 23.2995C723.57 15.1095 723.78 10.0295 723.78 8.05949C723.78 6.87949 723.64 5.99949 723.36 5.42949C723.08 4.85949 722.61 4.45949 721.96 4.22949C720.61 3.73949 718.89 3.17949 716.79 2.56949C714.26 1.87949 713 1.17949 713 0.459492C713 -0.000507832 713.22 -0.360508 713.66 -0.620508C714.1 -0.880508 714.72 -1.02051 715.51 -1.02051C716.3 -1.02051 717.9 -0.870508 720.24 -0.560508C722.57 -0.260508 724.46 -0.100508 725.91 -0.100508C726.3 -0.100508 726.89 -0.120508 727.68 -0.160508C728.47 -0.200508 729.06 -0.220508 729.45 -0.220508C731.26 -0.220508 732.46 0.769492 733.05 2.74949C733.24 3.35949 733.41 3.85949 733.54 4.23949L745.17 34.6195C747.41 40.5195 749.09 44.7195 750.22 47.1895C751.35 49.6595 752.12 50.8995 752.51 50.8995C752.7 50.8995 752.94 50.6595 753.2 50.1795C753.47 49.7095 753.81 48.8995 754.24 47.7595L770.5 4.35949C771.19 2.48949 771.84 1.28949 772.47 0.729492C773.1 0.179492 774.01 -0.0905077 775.23 -0.0905077H775.97C777.71 -0.0105077 779.39 0.0194921 781 0.0194921H786.57C787.92 0.0194921 788.9 0.129492 789.53 0.339492C790.15 0.539492 790.48 0.879492 790.51 1.32949C790.51 1.97949 790.39 2.43949 790.16 2.72949C789.93 3.01949 789.57 3.15949 789.08 3.15949H787.26C783.84 3.15949 781.61 3.78949 780.56 5.03949C779.51 6.29949 778.99 9.45949 778.99 14.5195C778.99 27.5395 779.12 38.8495 779.39 48.4395C779.65 58.0295 779.93 63.2695 780.23 64.1395C780.39 64.7095 780.78 65.1895 781.38 65.5695C781.98 65.9495 783.06 66.3495 784.61 66.7695C785.4 66.9995 786.3 67.2095 787.32 67.3995C788.89 67.7495 789.68 68.3195 789.68 69.1195C789.68 70.0295 789.44 70.5895 788.96 70.7995C788.49 70.9995 787.48 71.1095 785.93 71.1095H784.36C783.44 71.1095 781.87 71.0195 779.65 70.8295C777.44 70.6395 775.67 70.5395 774.36 70.5395C773.05 70.5395 771.35 70.6395 769.26 70.8295C767.18 71.0195 765.73 71.1095 764.95 71.1095C764.17 71.1095 763.51 70.9295 763 70.5695C762.5 70.2095 762.24 69.7795 762.24 69.2895C762.24 68.1495 763.32 67.5795 765.49 67.5795C766.74 67.5795 767.71 67.5195 768.4 67.3995C769.26 66.9095 769.85 66.3195 770.2 65.6295C770.55 64.9395 770.72 63.9695 770.72 62.7195C770.72 62.5295 770.7 62.0795 770.67 61.3695C770.64 60.6595 770.62 60.0095 770.62 59.3995L770.56 59.3795Z" fill="#0A5E84"/>
<path d="M810.53 48.42L822.75 16.04C823.67 13.6 824.7 10.75 825.85 7.47L826.1 6.9L828.71 -1.04C829.04 -2.07 829.33 -2.73 829.6 -3.04C829.87 -3.35 830.2 -3.5 830.63 -3.5C830.96 -3.5 831.27 -3.29 831.59 -2.87C831.9 -2.45 832.19 -1.81 832.45 -0.93L847.18 48.07C848.4 52.15 849.56 55.79 850.68 59.01C851.8 62.23 852.81 64.86 853.74 66.92C854.49 67.41 855.79 67.74 857.63 67.91C859.47 68.09 860.39 68.61 860.39 69.48C860.39 70.05 860.23 70.46 859.92 70.71C859.61 70.96 859.12 71.08 858.47 71.08C857.55 71.08 855.57 71.02 852.53 70.91C849.49 70.8 846.92 70.74 844.82 70.74C843.93 70.74 842.66 70.8 840.98 70.91C839.3 71.02 838.07 71.08 837.28 71.08C836.39 71.08 835.72 70.94 835.26 70.65C834.8 70.37 834.57 69.94 834.57 69.37C834.57 68.5 835.41 67.85 837.09 67.43C837.91 67.24 838.57 67.07 839.06 66.92C840.34 66.73 841.21 66.42 841.65 66C842.09 65.58 842.31 64.89 842.31 63.94C842.31 63.64 842.18 62.99 841.91 62C841.65 61.01 841.45 60.27 841.32 59.77L837.18 43.38C837.14 43.27 837.09 43.06 837.03 42.75C836.57 40.73 835.88 39.72 834.96 39.72H833.63C833.23 39.72 832.41 39.66 831.14 39.55C829.88 39.43 828.78 39.37 827.86 39.37C826.58 39.37 825.09 39.43 823.4 39.55C821.71 39.66 820.65 39.72 820.22 39.72C819.37 39.76 818.74 40.35 818.35 41.49C818.25 41.76 818.17 41.99 818.11 42.17C816.37 46.9 814.93 51.41 813.77 55.71C812.62 60.01 812.05 62.6 812.05 63.47C812.05 64.46 812.27 65.21 812.74 65.72C813.21 66.23 813.97 66.63 815.06 66.9C817.13 67.35 818.45 67.77 819 68.13C819.55 68.49 819.84 68.94 819.84 69.47C819.84 70 819.73 70.41 819.52 70.67C819.31 70.93 819 71.06 818.61 71.06C818.48 71.06 818.17 71.02 817.67 70.95C815.96 70.72 814.32 70.6 812.74 70.6C810.61 70.6 807.88 70.68 804.56 70.83C801.24 70.98 798.99 71.06 797.81 71.06C797.28 71.06 796.9 70.97 796.65 70.78C796.41 70.59 796.29 70.3 796.29 69.92C796.32 69 797.32 68.42 799.27 68.15C801.23 67.88 802.59 67.47 803.38 66.9C804.43 65.26 805.91 61.64 807.82 56.04C808.93 52.81 809.84 50.26 810.52 48.39L810.53 48.42ZM821.42 30.66C821.29 31.08 821.09 31.65 820.83 32.37C820.56 33.1 820.43 33.57 820.43 33.8C820.43 34.26 820.55 34.61 820.78 34.86C821 35.11 821.37 35.23 821.86 35.23C821.93 35.23 822.18 35.21 822.63 35.17C823.07 35.13 823.47 35.11 823.83 35.11C824.19 35.11 824.83 35.15 825.73 35.23C826.64 35.3 827.35 35.34 827.88 35.34C828.21 35.34 828.76 35.3 829.53 35.23C830.3 35.15 830.9 35.11 831.33 35.11H832.86C833.41 35.07 833.75 34.99 833.87 34.86C833.99 34.73 834.04 34.41 834.04 33.92C834.04 33.46 833.71 31.93 833.03 29.33C832.36 26.72 831.49 23.74 830.44 20.39C830.11 19.4 829.73 18.14 829.31 16.62C828.62 14.26 828.11 13.08 827.78 13.08C827.42 13.08 826.79 14.43 825.91 17.14C825.58 18.2 825.3 19.04 825.07 19.65L821.42 30.67V30.66Z" fill="#0A5E84"/>
<path d="M876.96 60.4695L877.26 23.4095V8.44945C877.26 6.65945 877.11 5.44945 876.82 4.81945C876.52 4.18945 875.85 3.51945 874.8 2.78945C873.95 2.70945 873.3 2.65945 872.85 2.61945C872.4 2.57945 872.02 2.55945 871.7 2.55945H870.42C869.37 2.55945 868.67 2.45945 868.32 2.26945C867.98 2.07945 867.8 1.75945 867.8 1.29945C867.8 0.689453 868.13 0.229453 868.78 -0.0905468C869.43 -0.410547 870.37 -0.580547 871.59 -0.580547C872.48 -0.580547 874 -0.490547 876.15 -0.300547C878.3 -0.100547 880.02 -0.0105469 881.3 -0.0105469C882.65 -0.0105469 884.84 -0.140547 887.88 -0.410547C890.91 -0.680547 893.25 -0.810547 894.9 -0.810547C900.42 -0.810547 904.78 0.809453 907.98 4.03945C911.18 7.27945 912.78 11.6995 912.78 17.2895C912.78 19.4595 912.44 21.5095 911.75 23.4295C911.06 25.3495 910.02 27.1295 908.64 28.7695C907.75 29.8295 906.51 30.9695 904.9 32.1695C903.29 33.3695 902.49 34.2095 902.49 34.7095C902.49 34.9395 902.54 35.2095 902.66 35.5295C902.78 35.8495 902.95 36.2395 903.18 36.6995L914.7 58.9195C915.62 60.7095 916.51 62.0795 917.36 63.0295C918.22 63.9795 919.28 64.8094 920.56 65.4894C921.81 66.1694 923.44 66.7595 925.47 67.2295C927.49 67.7095 928.5 68.3895 928.5 69.2595C928.5 69.6795 928.34 70.0794 928.01 70.4894C927.68 70.8995 927.32 71.0894 926.93 71.0894C926.83 71.0894 926.57 71.0695 926.14 71.0294C923.28 70.7595 920.38 70.6294 917.42 70.6294C916.93 70.6294 916.2 70.7094 915.23 70.8595C914.26 71.0095 913.55 71.0894 913.08 71.0894C912 71.0894 911.15 70.8895 910.54 70.4894C909.93 70.0894 909.37 69.3595 908.84 68.2895L896.23 41.6195C895.18 39.4895 893.99 38.0295 892.66 37.2195C891.33 36.4195 889.34 36.0195 886.67 36.0195H885.73L885.63 58.7995C885.63 58.8795 885.68 59.3795 885.78 60.3095C885.88 61.2495 885.93 62.1495 885.93 63.0195C885.93 64.5095 887.74 65.7495 891.35 66.7295C891.65 66.8095 891.87 66.8595 892.04 66.9095C892.26 66.9495 892.61 67.0194 893.07 67.1395C895.3 67.6795 896.42 68.4495 896.42 69.4795C896.42 70.0895 896.25 70.5094 895.9 70.7394C895.55 70.9695 894.92 71.0795 894 71.0795C893.8 71.0795 893.4 71.0395 892.79 70.9695C892.18 70.8995 891.68 70.8595 891.29 70.8595L873.11 70.9695C872.32 70.9695 871.47 70.9894 870.57 71.0294C869.67 71.0695 869.17 71.0894 869.07 71.0894C868.48 71.0894 868.04 70.9594 867.76 70.6994C867.48 70.4295 867.34 70.0294 867.34 69.4995C867.34 68.5495 868.43 67.8895 870.59 67.5095C871.78 67.2794 872.69 67.0695 873.35 66.8794C874.73 66.4995 875.68 65.9995 876.18 65.3695C876.69 64.7395 876.95 63.6995 876.95 62.2595V60.4895L876.96 60.4695ZM885.92 32.3695C886.97 32.3695 888.23 32.3895 889.69 32.4295C891.15 32.4695 892.08 32.4895 892.47 32.4895C896.18 32.4895 899.11 31.2395 901.27 28.7195C903.42 26.2095 904.5 22.7995 904.5 18.4995C904.5 13.2095 903.28 9.26945 900.83 6.67945C898.39 4.08945 894.67 2.79945 889.67 2.79945C888.07 2.79945 887 3.21945 886.5 4.04945C885.99 4.88945 885.73 6.88945 885.73 10.0495V12.9595L885.92 32.3795V32.3695Z" fill="#0A5E84"/>
<path d="M940.13 58.5895V32.6095C940.13 30.6995 940.18 28.1395 940.28 24.9195C940.38 21.7095 940.43 19.4495 940.43 18.1595C940.43 17.0195 940.4 15.3995 940.33 13.3095C940.26 11.2195 940.23 9.66945 940.23 8.67945V7.70945C940.23 5.72945 939.96 4.45945 939.42 3.87945C938.88 3.29945 937.9 3.02945 936.49 3.02945C936.36 3.02945 936.18 3.03945 935.95 3.08945C935.72 3.12945 935.54 3.14945 935.41 3.14945C934.36 3.14945 933.57 2.96945 933.05 2.63945C932.52 2.28945 932.26 1.77945 932.26 1.09945C932.26 0.419453 932.45 -0.0305469 932.85 -0.250547C933.25 -0.450547 934.36 -0.560547 936.2 -0.560547C936.92 -0.560547 938.58 -0.480547 941.18 -0.330547C943.78 -0.180547 945.99 -0.100547 947.83 -0.100547C949.67 -0.100547 951.79 -0.210547 953.99 -0.450547C954.61 -0.530547 955.01 -0.560547 955.17 -0.560547C955.89 -0.560547 956.41 -0.440547 956.73 -0.190547C957.04 0.059453 957.2 0.489453 957.2 1.08945C957.2 1.50945 956.9 1.85945 956.29 2.14945C955.68 2.42945 954.89 2.57945 953.9 2.57945C953.8 2.57945 953.64 2.55945 953.43 2.51945C953.22 2.47945 953.07 2.45945 952.96 2.45945C951.45 2.45945 950.43 2.78945 949.91 3.44945C949.38 4.11945 949.12 6.00945 949.12 9.13945L948.93 30.7795V32.1495C948.93 32.4895 948.98 32.7395 949.08 32.8895C949.18 33.0395 949.34 33.1195 949.57 33.1195C949.67 33.1195 949.96 32.9095 950.43 32.4895C950.9 32.0695 951.49 31.5395 952.18 30.8895L974.99 7.93945C975.84 7.09945 976.42 6.44945 976.74 5.96945C977.05 5.49945 977.21 5.06945 977.21 4.68945C977.21 4.30945 977.07 4.03945 976.79 3.88945C976.51 3.73945 975.88 3.65945 974.89 3.65945C972.39 3.65945 970.69 3.50945 969.79 3.19945C968.88 2.89945 968.43 2.37945 968.43 1.65945C968.43 0.939453 968.59 0.419453 968.92 0.119453C969.25 -0.180547 969.82 -0.340547 970.65 -0.340547C971.48 -0.340547 973.46 -0.260547 976.61 -0.110547C979.76 0.0394531 982.5 0.119453 984.83 0.119453C985.62 0.119453 986.58 0.099453 987.71 0.059453C988.85 0.019453 989.58 -0.000546932 989.9 -0.000546932C991.81 -0.000546932 993.04 0.109453 993.6 0.349453C994.16 0.579453 994.44 0.979453 994.44 1.54945C994.44 2.41945 993.62 2.95945 991.98 3.14945C990.93 3.29945 990.09 3.46945 989.46 3.65945C987.56 4.18945 985.14 5.72945 982.22 8.27945C981.73 8.69945 981.36 9.02945 981.13 9.24945L966.6 21.8695C966.04 22.3295 965.3 22.9495 964.38 23.7495C960.73 26.8695 958.91 28.8495 958.91 29.6895C958.91 30.5295 959.42 31.3895 960.44 32.3695C960.96 32.8695 961.36 33.2595 961.62 33.5695L981.92 54.8695C982.48 55.4395 983.32 56.3195 984.43 57.4995C988.54 61.8795 991.64 64.8495 993.74 66.4095C994.4 66.9395 995.45 67.4494 996.89 67.9494C998.34 68.4494 999.06 69.0794 999.06 69.8394C999.06 70.2594 998.93 70.5695 998.66 70.7794C998.4 70.9794 997.92 71.0894 997.23 71.0894C996.9 71.0894 995.73 71.0495 993.7 70.9795C991.68 70.8995 989.8 70.8695 988.06 70.8695C986.65 70.8695 984.43 70.9095 981.41 70.9795C978.39 71.0595 976.1 71.0894 974.56 71.0894H973.43C972.01 71.0894 971.16 71.0094 970.87 70.8394C970.58 70.6594 970.43 70.3294 970.43 69.8394C970.43 68.9694 971.5 68.3695 973.63 68.0695C975.31 67.8394 976.65 67.5695 977.67 67.2694C978.1 67.0794 978.41 66.8595 978.61 66.6095C978.8 66.3595 978.9 66.0695 978.9 65.7195C978.9 65.1895 977.51 63.3195 974.74 60.0995C971.96 56.8795 967.8 52.3195 962.25 46.4195C959.62 43.6795 957.3 41.4995 955.3 39.8495C953.29 38.2195 951.9 37.3995 951.11 37.3995C950.32 37.3995 949.79 37.9495 949.43 39.0595C949.07 40.1595 948.89 41.9495 948.89 44.4295C948.89 55.0495 949.18 61.4694 949.75 63.6994C950.32 65.9295 951.45 67.0395 953.12 67.0395C953.28 67.0395 953.55 66.9995 953.93 66.9295C954.31 66.8494 954.57 66.8094 954.74 66.8094C955.6 66.8094 956.33 67.0894 956.96 67.6395C957.59 68.1895 957.9 68.8395 957.9 69.6095C957.9 70.0594 957.69 70.4295 957.26 70.6895C956.83 70.9495 956.23 71.0795 955.44 71.0795H953.67C949.27 70.9295 944.98 70.8494 940.81 70.8494C939.07 70.8494 937.3 70.8895 935.52 70.9594C933.73 71.0395 932.82 71.0695 932.78 71.0695C932.09 71.0695 931.51 70.9194 931.03 70.6095C930.56 70.3094 930.32 69.9295 930.32 69.4695C930.32 68.7895 930.66 68.2394 931.35 67.8394C932.04 67.4494 932.94 67.2394 934.06 67.2394H935C936.9 67.2394 938.23 66.6595 938.99 65.4995C939.75 64.3394 940.13 62.0295 940.13 58.5595V58.5895Z" fill="#0A5E84"/>
<path d="M1041.46 57.5593L1041.65 16.4993V14.9593C1041.65 10.0093 1041.51 6.92934 1041.23 5.70934C1040.95 4.48934 1040.47 3.78934 1039.78 3.59934C1039.26 3.44934 1038.47 3.24934 1037.42 3.02934C1035.26 2.56934 1034.17 1.86934 1034.17 0.919336C1034.17 0.499336 1034.3 0.189336 1034.57 -0.020664C1034.84 -0.230664 1035.21 -0.340664 1035.7 -0.340664C1035.77 -0.340664 1036.13 -0.300664 1036.79 -0.220664C1037.45 -0.150664 1038.08 -0.110664 1038.71 -0.110664C1040.09 -0.110664 1042.46 -0.210664 1045.83 -0.400664C1049.2 -0.590664 1051.88 -0.680664 1053.89 -0.680664H1055.46C1056.84 -0.680664 1057.76 -0.600664 1058.22 -0.450664C1058.68 -0.300664 1058.91 -0.070664 1058.91 0.229336C1058.91 0.529336 1058.76 0.849336 1058.47 1.16934C1058.17 1.48934 1057.84 1.72934 1057.48 1.87934C1056.3 2.37934 1055.07 2.79934 1053.79 3.13934C1052.51 3.47934 1051.52 3.64934 1050.83 3.64934C1050.5 4.02934 1050.26 5.03934 1050.09 6.69934C1049.92 8.35934 1049.84 10.7293 1049.84 13.8193V16.4993L1050.14 36.7093V44.2993C1050.14 45.1793 1050.12 47.0093 1050.09 49.7893C1050.05 52.5693 1050.04 54.9093 1050.04 56.8093V58.0093C1050.04 61.5493 1050.25 63.8393 1050.66 64.8593C1051.07 65.8893 1051.83 66.5693 1052.95 66.9193C1053.64 67.3693 1054.8 67.7493 1056.44 68.0593C1058.08 68.3593 1058.91 68.9493 1058.91 69.8293C1058.91 70.2893 1058.78 70.6093 1058.54 70.7993C1058.29 70.9893 1057.87 71.0793 1057.28 71.0793C1056.98 71.0793 1055.71 70.9893 1053.44 70.7993C1051.17 70.6093 1049.05 70.5093 1047.08 70.5093C1046.98 70.5093 1046.59 70.5493 1045.9 70.6193C1042.22 70.9293 1038.47 71.0793 1034.66 71.0793H1033.48C1032.79 71.0793 1032.31 70.9693 1032.05 70.7693C1031.78 70.5593 1031.65 70.2093 1031.65 69.7093C1031.65 68.7593 1032.8 68.0893 1035.1 67.7093C1036.71 67.4393 1037.97 67.1693 1038.89 66.9093C1039.94 66.5293 1040.63 65.9993 1040.96 65.3393C1041.29 64.6693 1041.45 63.0793 1041.45 60.5693V57.5393L1041.46 57.5593Z" fill="#0A5E84"/>
<path d="M1077.29 61.6097L1077.98 38.3597C1078.08 35.6197 1078.16 33.0297 1078.2 30.5997C1078.25 28.1597 1078.27 25.8797 1078.27 23.7497C1078.27 18.2297 1078.11 13.8697 1077.78 10.6497C1077.45 7.42969 1076.94 5.39969 1076.25 4.55969C1075.72 3.94969 1074.46 3.54969 1072.46 3.35969C1071.77 3.27969 1071.21 3.20969 1070.78 3.12969C1070.48 3.08969 1070.07 3.04969 1069.55 3.01969C1067.65 2.82969 1066.69 2.36969 1066.69 1.64969C1066.69 1.07969 1066.81 0.659688 1067.06 0.399688C1067.3 0.129688 1067.71 -0.000312567 1068.26 -0.000312567C1068.36 -0.000312567 1068.62 0.0196874 1069.05 0.0596874C1070.59 0.169687 1072.09 0.229687 1073.54 0.229687C1076.26 0.229687 1078.93 0.139687 1081.52 -0.0503125C1081.98 -0.0903125 1082.24 -0.110312 1082.31 -0.110312C1083.95 -0.110312 1085.2 0.689687 1086.05 2.28969C1086.38 2.89969 1086.64 3.35969 1086.84 3.65969L1113 40.3797C1115.79 44.2997 1118.55 47.8497 1121.28 51.0297C1124 54.2097 1125.52 55.7997 1125.81 55.7997C1126.1 55.7997 1126.34 55.7397 1126.52 55.6197C1126.7 55.5097 1126.79 55.3697 1126.79 55.2297V54.9397C1126.66 53.7997 1126.59 52.5997 1126.59 51.3397L1126.3 14.8597C1126.3 14.5497 1126.31 14.1097 1126.35 13.5397C1126.38 12.9697 1126.4 12.5497 1126.4 12.2897C1126.4 11.9097 1126.38 11.3397 1126.35 10.5797C1126.31 9.81969 1126.3 9.25969 1126.3 8.91969C1126.3 8.49969 1126.31 7.94969 1126.35 7.25969C1126.38 6.57969 1126.4 6.11969 1126.4 5.88969C1126.4 4.36969 1125 3.44969 1122.21 3.14969C1121.95 3.10969 1121.72 3.06969 1121.52 3.03969C1121.03 2.99969 1120.34 2.93969 1119.45 2.85969C1116.82 2.59969 1115.51 2.00969 1115.51 1.08969C1115.51 0.669688 1115.72 0.289688 1116.13 -0.0503125C1116.54 -0.400313 1117.01 -0.560313 1117.53 -0.560313C1118.38 -0.560313 1119.41 -0.470313 1120.61 -0.280313C1121.81 -0.0803126 1122.56 0.00968766 1122.85 0.00968766C1123.9 0.00968766 1125.17 -0.0103125 1126.64 -0.0503125C1128.12 -0.0903125 1129.09 -0.110312 1129.55 -0.110312C1131.62 -0.110312 1133.85 -0.220313 1136.25 -0.460313C1136.94 -0.540313 1137.39 -0.570312 1137.58 -0.570312C1138.43 -0.570312 1139.06 -0.440313 1139.45 -0.170313C1139.85 0.0896873 1140.04 0.509687 1140.04 1.07969C1140.04 1.56969 1139.78 1.94969 1139.28 2.18969C1138.77 2.43969 1137.46 2.70969 1135.36 3.01969C1133.2 3.35969 1131.9 3.86969 1131.47 4.55969C1131.04 5.24969 1130.83 6.80969 1130.83 9.23969V11.8097C1130.83 12.4197 1130.8 13.9997 1130.73 16.5497C1130.47 26.0697 1130.33 35.0897 1130.33 43.6197C1130.33 52.1497 1130.45 60.9797 1130.68 69.5397C1130.71 70.9897 1130.73 71.8597 1130.73 72.1697C1130.73 73.1197 1130.63 73.8097 1130.44 74.2297C1130.24 74.6497 1129.95 74.8597 1129.55 74.8597C1128.43 74.8597 1127.28 74.0997 1126.1 72.5797C1125.97 72.3897 1125.87 72.2597 1125.81 72.1797L1087.48 21.1797C1086.59 20.0397 1085.6 18.5697 1084.5 16.7597C1083.39 14.9597 1082.57 14.0497 1082.01 14.0497C1081.78 14.0497 1081.61 14.1297 1081.49 14.3097C1081.37 14.4797 1081.32 14.7297 1081.32 15.0797C1081.32 15.3097 1081.35 15.6497 1081.42 16.1097C1081.49 16.5697 1081.52 16.9297 1081.52 17.1897C1081.52 17.4497 1081.5 17.7497 1081.47 18.0797C1081.44 18.4097 1081.42 18.6197 1081.42 18.7397L1082.21 52.4897C1082.27 55.7197 1082.37 58.3897 1082.5 60.4897C1082.63 62.5797 1082.8 64.0097 1082.99 64.7697C1083.25 65.5697 1084.08 66.3097 1085.48 66.9697C1086.87 67.6297 1088.38 67.9597 1089.98 67.9597H1091.36C1092.58 67.9597 1093.44 68.0797 1093.95 68.3097C1094.46 68.5397 1094.72 68.9397 1094.72 69.5097C1094.72 70.1197 1094.54 70.5397 1094.2 70.7697C1093.86 70.9997 1093.09 71.1097 1091.91 71.1097H1089.25C1087.24 71.1097 1085.21 71.0697 1083.14 70.9997C1081.07 70.9197 1079.99 70.8897 1079.89 70.8897C1077.88 70.8897 1075.78 70.9297 1073.58 70.9997C1071.38 71.0797 1070.18 71.1097 1069.98 71.1097C1068.76 71.1097 1068.01 71.0297 1067.71 70.8597C1067.42 70.6797 1067.27 70.3997 1067.27 69.9697C1067.27 68.9397 1068.46 68.2797 1070.82 67.9697C1072.33 67.8197 1073.56 67.6297 1074.52 67.3997C1076.26 66.9797 1077.16 65.4097 1077.23 62.6697C1077.26 62.2097 1077.28 61.8697 1077.28 61.6397L1077.29 61.6097Z" fill="#0A5E84"/>
<path d="M1187.87 48.42L1200.09 16.04C1201.01 13.6 1202.04 10.75 1203.19 7.47L1203.44 6.9L1206.05 -1.04C1206.38 -2.07 1206.67 -2.73 1206.94 -3.04C1207.21 -3.35 1207.54 -3.5 1207.97 -3.5C1208.3 -3.5 1208.61 -3.29 1208.93 -2.87C1209.24 -2.45 1209.53 -1.81 1209.79 -0.93L1224.52 48.07C1225.74 52.15 1226.9 55.79 1228.02 59.01C1229.14 62.23 1230.15 64.86 1231.08 66.92C1231.83 67.41 1233.13 67.74 1234.97 67.91C1236.81 68.09 1237.73 68.61 1237.73 69.48C1237.73 70.05 1237.57 70.46 1237.26 70.71C1236.95 70.96 1236.46 71.08 1235.81 71.08C1234.89 71.08 1232.91 71.02 1229.87 70.91C1226.83 70.8 1224.26 70.74 1222.16 70.74C1221.27 70.74 1220 70.8 1218.32 70.91C1216.64 71.02 1215.41 71.08 1214.62 71.08C1213.73 71.08 1213.06 70.94 1212.6 70.65C1212.14 70.37 1211.91 69.94 1211.91 69.37C1211.91 68.5 1212.75 67.85 1214.43 67.43C1215.25 67.24 1215.91 67.07 1216.4 66.92C1217.68 66.73 1218.55 66.42 1218.99 66C1219.43 65.58 1219.65 64.89 1219.65 63.94C1219.65 63.64 1219.52 62.99 1219.25 62C1218.99 61.01 1218.79 60.27 1218.66 59.77L1214.52 43.38C1214.48 43.27 1214.43 43.06 1214.37 42.75C1213.91 40.73 1213.22 39.72 1212.3 39.72H1210.97C1210.57 39.72 1209.75 39.66 1208.48 39.55C1207.22 39.43 1206.12 39.37 1205.2 39.37C1203.92 39.37 1202.43 39.43 1200.74 39.55C1199.05 39.66 1197.99 39.72 1197.56 39.72C1196.71 39.76 1196.08 40.35 1195.69 41.49C1195.59 41.76 1195.51 41.99 1195.45 42.17C1193.71 46.9 1192.27 51.41 1191.11 55.71C1189.96 60.01 1189.39 62.6 1189.39 63.47C1189.39 64.46 1189.61 65.21 1190.08 65.72C1190.54 66.23 1191.31 66.63 1192.4 66.9C1194.47 67.35 1195.79 67.77 1196.34 68.13C1196.89 68.49 1197.18 68.94 1197.18 69.47C1197.18 70 1197.07 70.41 1196.86 70.67C1196.65 70.93 1196.34 71.06 1195.95 71.06C1195.82 71.06 1195.51 71.02 1195.01 70.95C1193.3 70.72 1191.66 70.6 1190.08 70.6C1187.95 70.6 1185.22 70.68 1181.9 70.83C1178.58 70.98 1176.33 71.06 1175.15 71.06C1174.62 71.06 1174.24 70.97 1173.99 70.78C1173.75 70.59 1173.63 70.3 1173.63 69.92C1173.66 69 1174.66 68.42 1176.61 68.15C1178.57 67.88 1179.93 67.47 1180.72 66.9C1181.77 65.26 1183.25 61.64 1185.16 56.04C1186.27 52.81 1187.18 50.26 1187.86 48.39L1187.87 48.42ZM1198.76 30.66C1198.63 31.08 1198.43 31.65 1198.17 32.37C1197.9 33.1 1197.77 33.57 1197.77 33.8C1197.77 34.26 1197.89 34.61 1198.12 34.86C1198.34 35.11 1198.71 35.23 1199.2 35.23C1199.27 35.23 1199.52 35.21 1199.97 35.17C1200.41 35.13 1200.81 35.11 1201.17 35.11C1201.53 35.11 1202.17 35.15 1203.07 35.23C1203.98 35.3 1204.69 35.34 1205.22 35.34C1205.55 35.34 1206.1 35.3 1206.87 35.23C1207.64 35.15 1208.24 35.11 1208.67 35.11H1210.2C1210.75 35.07 1211.09 34.99 1211.21 34.86C1211.33 34.73 1211.38 34.41 1211.38 33.92C1211.38 33.46 1211.05 31.93 1210.37 29.33C1209.7 26.72 1208.83 23.74 1207.78 20.39C1207.45 19.4 1207.07 18.14 1206.65 16.62C1205.96 14.26 1205.45 13.08 1205.12 13.08C1204.76 13.08 1204.13 14.43 1203.25 17.14C1202.92 18.2 1202.64 19.04 1202.41 19.65L1198.76 30.67V30.66Z" fill="#0A5E84"/>
<path d="M1254.3 60.4695L1254.6 23.4095V8.44945C1254.6 6.65945 1254.45 5.44945 1254.16 4.81945C1253.86 4.18945 1253.19 3.51945 1252.14 2.78945C1251.29 2.70945 1250.64 2.65945 1250.19 2.61945C1249.74 2.57945 1249.36 2.55945 1249.04 2.55945H1247.76C1246.71 2.55945 1246.01 2.45945 1245.66 2.26945C1245.32 2.07945 1245.14 1.75945 1245.14 1.29945C1245.14 0.689453 1245.47 0.229453 1246.12 -0.0905468C1246.78 -0.410547 1247.71 -0.580547 1248.93 -0.580547C1249.82 -0.580547 1251.34 -0.490547 1253.49 -0.300547C1255.64 -0.100547 1257.36 -0.0105469 1258.64 -0.0105469C1259.99 -0.0105469 1262.18 -0.140547 1265.22 -0.410547C1268.25 -0.680547 1270.59 -0.810547 1272.24 -0.810547C1277.76 -0.810547 1282.12 0.809453 1285.32 4.03945C1288.52 7.27945 1290.12 11.6995 1290.12 17.2895C1290.12 19.4595 1289.78 21.5095 1289.09 23.4295C1288.4 25.3495 1287.36 27.1295 1285.98 28.7695C1285.09 29.8295 1283.85 30.9695 1282.24 32.1695C1280.63 33.3695 1279.83 34.2095 1279.83 34.7095C1279.83 34.9395 1279.88 35.2095 1280 35.5295C1280.12 35.8495 1280.29 36.2395 1280.52 36.6995L1292.04 58.9195C1292.96 60.7095 1293.85 62.0795 1294.7 63.0295C1295.56 63.9795 1296.62 64.8094 1297.9 65.4894C1299.15 66.1694 1300.78 66.7595 1302.81 67.2295C1304.83 67.7095 1305.84 68.3895 1305.84 69.2595C1305.84 69.6795 1305.68 70.0794 1305.35 70.4894C1305.02 70.8995 1304.66 71.0894 1304.27 71.0894C1304.17 71.0894 1303.91 71.0695 1303.48 71.0294C1300.62 70.7595 1297.72 70.6294 1294.76 70.6294C1294.27 70.6294 1293.54 70.7094 1292.57 70.8595C1291.6 71.0095 1290.89 71.0894 1290.42 71.0894C1289.34 71.0894 1288.49 70.8895 1287.88 70.4894C1287.27 70.0894 1286.71 69.3595 1286.18 68.2895L1273.57 41.6195C1272.52 39.4895 1271.33 38.0295 1270 37.2195C1268.67 36.4195 1266.68 36.0195 1264.01 36.0195H1263.07L1262.97 58.7995C1262.97 58.8795 1263.02 59.3795 1263.12 60.3095C1263.22 61.2495 1263.27 62.1495 1263.27 63.0195C1263.27 64.5095 1265.08 65.7495 1268.69 66.7295C1268.99 66.8095 1269.21 66.8595 1269.38 66.9095C1269.6 66.9495 1269.95 67.0194 1270.41 67.1395C1272.64 67.6795 1273.76 68.4495 1273.76 69.4795C1273.76 70.0895 1273.59 70.5094 1273.24 70.7394C1272.89 70.9695 1272.26 71.0795 1271.34 71.0795C1271.14 71.0795 1270.74 71.0395 1270.13 70.9695C1269.52 70.8995 1269.02 70.8595 1268.63 70.8595L1250.45 70.9695C1249.66 70.9695 1248.81 70.9894 1247.91 71.0294C1247.01 71.0695 1246.51 71.0894 1246.41 71.0894C1245.82 71.0894 1245.38 70.9594 1245.1 70.6994C1244.82 70.4295 1244.68 70.0294 1244.68 69.4995C1244.68 68.5495 1245.77 67.8895 1247.93 67.5095C1249.12 67.2794 1250.03 67.0695 1250.69 66.8794C1252.07 66.4995 1253.02 65.9995 1253.52 65.3695C1254.03 64.7395 1254.29 63.6995 1254.29 62.2595V60.4895L1254.3 60.4695ZM1263.26 32.3695C1264.31 32.3695 1265.57 32.3895 1267.03 32.4295C1268.49 32.4695 1269.42 32.4895 1269.81 32.4895C1273.52 32.4895 1276.45 31.2395 1278.61 28.7195C1280.76 26.2095 1281.84 22.7995 1281.84 18.4995C1281.84 13.2095 1280.62 9.26945 1278.17 6.67945C1275.73 4.08945 1272.01 2.79945 1267.01 2.79945C1265.41 2.79945 1264.34 3.21945 1263.84 4.04945C1263.33 4.88945 1263.07 6.88945 1263.07 10.0495V12.9595L1263.26 32.3795V32.3695Z" fill="#0A5E84"/>
<path d="M1343.73 72.41C1339.69 72.41 1335.91 71.82 1332.4 70.63C1328.89 69.45 1325.55 67.66 1322.4 65.26C1317.64 61.53 1314.12 57.25 1311.84 52.42C1309.55 47.58 1308.41 41.97 1308.41 35.57C1308.41 29.67 1309.49 24.24 1311.64 19.3C1313.79 14.35 1316.99 9.99 1321.23 6.23C1323.86 3.83 1327.07 1.98 1330.86 0.69C1334.65 -0.6 1338.73 -1.25 1343.1 -1.25C1346.84 -1.25 1350.45 -0.86 1353.91 -0.0799999C1357.38 0.7 1359.54 1.47 1360.39 2.23C1361.02 2.8 1361.48 3.89 1361.79 5.48C1362.11 7.08 1362.26 9.23 1362.26 11.93C1362.26 12.28 1362.22 12.49 1362.14 12.59C1362.06 12.69 1361.9 12.74 1361.67 12.74C1361.34 12.74 1361.02 12.64 1360.71 12.45C1360.4 12.26 1359.91 11.79 1359.26 11.02C1359.13 10.83 1358.95 10.6 1358.72 10.34C1354.12 4.7 1349.23 1.89 1344.04 1.89C1340.92 1.89 1338 2.61 1335.29 4.03C1332.58 5.46 1330.04 7.58 1327.68 10.4C1324.85 13.83 1322.73 17.56 1321.32 21.59C1319.91 25.63 1319.2 30.01 1319.2 34.73C1319.2 44.59 1321.45 52.67 1325.97 58.97C1330.49 65.27 1336.26 68.42 1343.29 68.42C1346.64 68.42 1349.47 67.82 1351.79 66.62C1354.11 65.42 1356.21 63.51 1358.12 60.88C1358.64 60.12 1359.27 59.15 1359.99 57.97C1360.97 56.29 1361.73 55.46 1362.25 55.46C1362.65 55.46 1362.95 55.63 1363.16 55.97C1363.38 56.32 1363.48 56.81 1363.48 57.46C1363.48 59.59 1363.24 61.67 1362.74 63.72C1362.24 65.76 1361.72 67.02 1361.16 67.52C1359.55 68.96 1357.17 70.14 1354.02 71.06C1350.87 71.98 1347.43 72.43 1343.72 72.43L1343.73 72.41Z" fill="#0A5E84"/>
<path d="M1380.55 35.7997C1380.55 35.4897 1380.57 32.8597 1380.6 27.8897C1380.64 22.9197 1380.65 18.1097 1380.65 13.4697C1380.65 9.47973 1380.53 6.95973 1380.31 5.92973C1380.08 4.89973 1379.67 4.24973 1379.08 3.98973C1378.29 3.64973 1377.18 3.35973 1375.73 3.13973C1373.3 2.78973 1372.08 1.85973 1372.08 0.339727C1372.08 0.0297267 1372.24 -0.230273 1372.55 -0.460274C1372.86 -0.690274 1373.25 -0.810273 1373.7 -0.810273C1373.8 -0.810273 1374.14 -0.790273 1374.74 -0.750273C1378.39 -0.560273 1382.14 -0.470273 1386.02 -0.470273C1388.78 -0.470273 1391.42 -0.560273 1393.95 -0.750273C1394.35 -0.790273 1394.59 -0.810273 1394.69 -0.810273C1395.54 -0.810273 1396.16 -0.700273 1396.54 -0.490273C1396.92 -0.280273 1397.11 0.0697267 1397.11 0.569727C1397.11 1.62973 1396.37 2.30973 1394.89 2.59973C1393.41 2.87973 1392.26 3.34973 1391.44 3.98973C1390.65 3.98973 1390.08 4.27973 1389.74 4.84973C1389.39 5.41973 1389.22 6.40973 1389.22 7.81973C1389.22 8.30973 1389.27 9.18973 1389.37 10.4397C1389.41 10.7497 1389.42 10.9797 1389.42 11.1297V27.4597C1389.42 29.6297 1389.6 30.9897 1389.97 31.5497C1390.33 32.0997 1391.1 32.3697 1392.29 32.3697C1392.55 32.3697 1393.26 32.3597 1394.41 32.3097C1398.71 32.1197 1402.77 32.0297 1406.58 32.0297C1407.01 32.0297 1407.93 32.0397 1409.34 32.0897C1410.76 32.1297 1411.95 32.1497 1412.94 32.1497C1414.58 32.1497 1416.26 32.1097 1417.99 32.0397C1419.72 31.9597 1421.48 31.8497 1423.28 31.6897C1423.91 31.6097 1424.33 31.4297 1424.54 31.1497C1424.75 30.8597 1424.86 30.2597 1424.86 29.3497V8.04973C1424.86 6.98973 1424.75 6.17973 1424.54 5.61973C1424.33 5.06973 1423.96 4.63973 1423.43 4.33973C1422.67 3.84973 1421.45 3.46973 1419.76 3.22973C1418.06 2.97973 1417.21 2.33973 1417.17 1.30973C1417.17 0.669726 1417.38 0.229727 1417.79 -0.000273466C1418.2 -0.230273 1419.01 -0.350273 1420.23 -0.350273C1420.92 -0.350273 1421.82 -0.330273 1422.94 -0.290273C1424.05 -0.250273 1424.82 -0.230273 1425.26 -0.230273C1427.92 -0.230273 1430.82 -0.360274 1433.95 -0.630274C1437.09 -0.900274 1438.87 -1.03027 1439.3 -1.03027C1440.19 -1.03027 1440.87 -0.880273 1441.37 -0.570273C1441.87 -0.260273 1442.11 0.159726 1442.11 0.679726C1442.11 1.40973 1441.17 1.94973 1439.3 2.30973C1437.43 2.67973 1436.05 3.22973 1435.16 3.98973C1434.44 3.98973 1433.94 4.17973 1433.66 4.55973C1433.38 4.94973 1433.24 5.94973 1433.24 7.58973V8.44973C1433.17 11.4197 1433.14 14.4097 1433.14 17.4097L1433.24 47.5097C1433.24 52.7297 1433.36 56.9397 1433.59 60.1597C1433.81 63.3797 1434.14 65.5197 1434.57 66.5797C1435.23 66.9597 1436.57 67.2297 1438.61 67.3797C1439.56 67.4597 1440.34 67.5297 1440.93 67.6097C1441.23 67.6897 1441.5 67.9097 1441.74 68.2697C1441.99 68.6297 1442.11 68.9997 1442.11 69.3797C1442.11 70.0297 1441.81 70.4697 1441.2 70.7297C1440.59 70.9797 1439.29 71.0997 1437.29 71.0997C1436.17 71.0997 1434.19 70.9897 1431.35 70.7597C1428.51 70.5297 1426.21 70.4097 1424.48 70.4097C1423.46 70.4097 1422.19 70.5197 1420.66 70.7597C1419.13 70.9897 1418.12 71.0997 1417.63 71.0997C1416.81 71.0997 1416.2 70.9897 1415.78 70.7597C1415.37 70.5297 1415.17 70.1897 1415.17 69.7297C1415.17 68.5097 1416.23 67.7797 1418.37 67.5297C1420.5 67.2797 1421.98 66.9497 1422.8 66.5297C1423.52 66.1097 1424.03 65.3997 1424.33 64.4197C1424.62 63.4297 1424.77 61.6797 1424.77 59.1597V40.0297C1424.77 38.6297 1424.5 37.6997 1423.98 37.2597C1423.45 36.8197 1421.97 36.5997 1419.54 36.5997H1393.77C1391.9 36.5997 1390.71 36.8697 1390.2 37.3997C1389.69 37.9297 1389.43 38.9997 1389.43 40.5997V42.7097L1389.53 56.9297C1389.53 60.3997 1389.66 62.7097 1389.92 63.8697C1390.19 65.0297 1390.69 65.9097 1391.45 66.5297C1392.34 66.8297 1393.57 67.0797 1395.15 67.2697C1397.25 67.4997 1398.3 68.0697 1398.3 68.9797C1398.3 69.8897 1398.15 70.5197 1397.86 70.7597C1397.56 70.9897 1396.71 71.0997 1395.3 71.0997C1394.38 71.0997 1392.74 71.0097 1390.37 70.8197C1388.01 70.6297 1386.12 70.5297 1384.71 70.5297C1383.43 70.5297 1381.62 70.6297 1379.26 70.8197C1376.91 71.0097 1375.23 71.0997 1374.21 71.0997C1373.19 71.0997 1372.4 70.9597 1371.82 70.6697C1371.25 70.3897 1370.96 69.9997 1370.96 69.4997C1370.96 68.5097 1372.05 67.8097 1374.21 67.3897C1375.66 67.1297 1376.81 66.8397 1377.66 66.5397C1378.68 66.1897 1379.42 65.6897 1379.88 65.0297C1380.34 64.3597 1380.57 63.3997 1380.57 62.1497C1380.57 61.6497 1380.61 61.0197 1380.67 60.2597L1380.57 35.8197L1380.55 35.7997Z" fill="#0A5E84"/>
<path d="M1460.58 57.5593L1460.77 16.4993V14.9593C1460.77 10.0093 1460.63 6.92934 1460.35 5.70934C1460.07 4.48934 1459.59 3.78934 1458.9 3.59934C1458.38 3.44934 1457.59 3.24934 1456.54 3.02934C1454.38 2.56934 1453.29 1.86934 1453.29 0.919336C1453.29 0.499336 1453.42 0.189336 1453.69 -0.020664C1453.96 -0.230664 1454.33 -0.340664 1454.82 -0.340664C1454.89 -0.340664 1455.25 -0.300664 1455.91 -0.220664C1456.57 -0.150664 1457.2 -0.110664 1457.83 -0.110664C1459.21 -0.110664 1461.58 -0.210664 1464.95 -0.400664C1468.32 -0.590664 1471 -0.680664 1473.01 -0.680664H1474.58C1475.96 -0.680664 1476.88 -0.600664 1477.34 -0.450664C1477.8 -0.300664 1478.03 -0.070664 1478.03 0.229336C1478.03 0.529336 1477.88 0.849336 1477.59 1.16934C1477.29 1.48934 1476.96 1.72934 1476.6 1.87934C1475.42 2.37934 1474.19 2.79934 1472.91 3.13934C1471.63 3.47934 1470.64 3.64934 1469.95 3.64934C1469.62 4.02934 1469.38 5.03934 1469.21 6.69934C1469.04 8.35934 1468.96 10.7293 1468.96 13.8193V16.4993L1469.26 36.7093V44.2993C1469.26 45.1793 1469.24 47.0093 1469.21 49.7893C1469.17 52.5693 1469.16 54.9093 1469.16 56.8093V58.0093C1469.16 61.5493 1469.37 63.8393 1469.78 64.8593C1470.19 65.8893 1470.95 66.5693 1472.07 66.9193C1472.76 67.3693 1473.92 67.7493 1475.56 68.0593C1477.2 68.3593 1478.03 68.9493 1478.03 69.8293C1478.03 70.2893 1477.9 70.6093 1477.66 70.7993C1477.41 70.9893 1476.99 71.0793 1476.4 71.0793C1476.1 71.0793 1474.83 70.9893 1472.56 70.7993C1470.29 70.6093 1468.17 70.5093 1466.2 70.5093C1466.1 70.5093 1465.71 70.5493 1465.02 70.6193C1461.34 70.9293 1457.59 71.0793 1453.78 71.0793H1452.6C1451.91 71.0793 1451.43 70.9693 1451.17 70.7693C1450.9 70.5593 1450.77 70.2093 1450.77 69.7093C1450.77 68.7593 1451.92 68.0893 1454.22 67.7093C1455.83 67.4393 1457.09 67.1693 1458.01 66.9093C1459.06 66.5293 1459.75 65.9993 1460.08 65.3393C1460.41 64.6693 1460.57 63.0793 1460.57 60.5693V57.5393L1460.58 57.5593Z" fill="#0A5E84"/>
<path d="M1510.1 52.7598L1509.91 14.0398V11.8098C1509.91 8.38977 1509.51 6.35977 1508.73 5.72976C1507.94 5.09976 1505.95 4.78977 1502.77 4.78977C1500.11 4.78977 1497.84 5.32977 1495.97 6.41977C1494.1 7.49977 1492.26 9.37977 1490.45 12.0398C1490.09 12.5398 1489.63 13.2598 1489.07 14.2098C1488.02 15.9598 1487.13 16.8398 1486.41 16.8398C1485.98 16.8398 1485.67 16.6898 1485.47 16.3798C1485.28 16.0798 1485.18 15.6098 1485.18 14.9598C1485.18 14.7298 1485.19 14.4998 1485.23 14.2798C1485.26 14.0498 1485.31 13.8198 1485.38 13.5898L1490.26 -2.00023C1490.45 -2.68023 1490.69 -3.19023 1490.95 -3.51023C1491.21 -3.83023 1491.56 -3.99023 1491.98 -3.99023C1492.51 -3.99023 1492.98 -3.46023 1493.41 -2.40023C1493.48 -2.20023 1493.53 -2.08023 1493.56 -2.00023C1493.92 -1.05023 1494.34 -0.400234 1494.84 -0.0602343C1495.33 0.279766 1496.25 0.449765 1497.59 0.449765H1498.92C1500.63 0.449765 1503.41 0.529765 1507.27 0.679765C1511.13 0.829765 1514.16 0.909765 1516.36 0.909765C1518.1 0.909765 1520.44 0.829765 1523.38 0.679765C1526.32 0.529765 1528.35 0.449765 1529.46 0.449765H1533.11C1533.47 0.449765 1533.95 0.469766 1534.54 0.509766C1535.13 0.549766 1535.52 0.569766 1535.73 0.569766C1536.48 0.569766 1537.07 0.459765 1537.5 0.249765C1537.93 0.0497656 1538.32 -0.310234 1538.68 -0.810234C1539.04 -0.880234 1539.45 -1.27023 1539.89 -1.98023C1540.33 -2.68023 1540.8 -3.04023 1541.29 -3.04023C1541.72 -3.04023 1542.06 -2.79023 1542.32 -2.29023C1542.58 -1.79023 1542.72 -1.11023 1542.72 -0.230234V0.219765L1542.42 14.1498C1542.42 14.6898 1542.26 15.1498 1541.93 15.5498C1541.6 15.9498 1541.22 16.1498 1540.8 16.1498C1539.91 16.1498 1539.34 15.1798 1539.07 13.2398C1538.81 11.2998 1538.48 9.99977 1538.09 9.34977C1537.04 7.71977 1535.28 6.54977 1532.81 5.83977C1530.35 5.13977 1526.69 4.77977 1521.83 4.77977C1520.61 4.77977 1519.83 5.26976 1519.49 6.23977C1519.14 7.20977 1518.97 9.57977 1518.97 13.3498V18.9398L1519.21 56.8098V59.8898C1519.21 62.1398 1519.37 63.6398 1519.68 64.4098C1519.99 65.1798 1520.56 65.7198 1521.38 66.0698C1522.6 66.5598 1524.22 66.9298 1526.25 67.1498C1528.58 67.3798 1529.77 68.1998 1529.8 69.6098C1529.77 70.1798 1529.62 70.5698 1529.36 70.7798C1529.1 70.9798 1528.54 71.0898 1527.68 71.0898H1527.09C1525.52 71.0098 1524.02 70.9798 1522.6 70.9798H1519.11C1518.95 70.9798 1518.04 70.9598 1516.4 70.9198C1514.76 70.8798 1513.17 70.8598 1511.62 70.8598C1510.07 70.8598 1508.33 70.8998 1506.3 70.9698C1504.26 71.0498 1503.02 71.0798 1502.56 71.0798C1501.38 71.0798 1500.59 70.9698 1500.2 70.7698C1499.8 70.5598 1499.61 70.1698 1499.61 69.5998C1499.61 68.4898 1500.65 67.7698 1502.74 67.4198C1504.82 67.0798 1506.41 66.6598 1507.49 66.1698C1508.51 65.7098 1509.22 64.7298 1509.61 63.1998C1510.01 61.6798 1510.21 59.1198 1510.21 55.5398C1510.21 55.1598 1510.19 54.6598 1510.16 54.0298C1510.12 53.3998 1510.11 52.9698 1510.11 52.7398L1510.1 52.7598Z" fill="#0A5E84"/>
<path d="M1559.14 58.0098L1558.84 9.5798C1558.84 9.5798 1558.86 9.4298 1558.89 9.2298C1558.92 8.5098 1558.94 7.7598 1558.94 6.9998C1558.94 6.0498 1558.82 5.3198 1558.59 4.8298C1558.37 4.3398 1557.92 3.89981 1557.26 3.5198C1556.2 2.9798 1554.74 2.5498 1552.87 2.1998C1551 1.8498 1550.06 1.3098 1550.06 0.539805C1550.06 -0.000195324 1550.29 -0.380195 1550.75 -0.600195C1551.21 -0.830195 1552.07 -0.950195 1553.31 -0.950195C1554.82 -0.950195 1557.55 -0.770195 1561.52 -0.440195C1565.48 -0.0901953 1568.69 0.0698049 1571.15 0.0698049C1572.96 0.0698049 1575.62 -0.0101954 1579.14 -0.160195C1582.65 -0.310195 1585.25 -0.390195 1586.92 -0.390195H1590.72C1592.39 -0.390195 1593.46 -0.240195 1593.9 0.0698049C1594.34 0.369805 1594.56 1.0098 1594.56 1.9598C1594.56 3.9698 1594.53 5.9998 1594.46 8.0098C1594.39 10.0198 1594.36 11.0498 1594.36 11.0998C1594.36 11.3698 1594.39 11.7598 1594.46 12.2998C1594.53 12.8398 1594.56 13.2198 1594.56 13.4398C1594.56 13.8198 1594.49 14.0898 1594.37 14.2398C1594.24 14.3898 1594.04 14.4698 1593.77 14.4698C1593.15 14.4698 1592.49 13.3898 1591.8 11.2398C1591.11 9.0898 1590.55 7.6698 1590.12 6.9798C1589.27 5.7298 1587.51 4.8298 1584.85 4.2998C1582.19 3.7698 1578 3.4998 1572.29 3.4998C1570.52 3.4998 1569.32 3.9098 1568.69 4.7298C1568.06 5.5498 1567.75 7.3098 1567.75 10.0098V11.4298L1568.05 26.5098C1568.05 28.6398 1568.2 30.0498 1568.49 30.7398C1568.78 31.4298 1569.34 31.7698 1570.16 31.7698C1570.49 31.7698 1571.18 31.7498 1572.21 31.7098C1573.24 31.6698 1574.14 31.6498 1574.9 31.6498H1577.22C1580.27 31.6498 1582.35 31.5698 1583.45 31.3898C1584.55 31.2198 1585.27 30.9298 1585.6 30.5098C1585.89 30.0898 1586.37 28.5798 1587.03 25.9698C1587.69 23.3598 1588.46 22.0598 1589.35 22.0598C1589.75 22.0598 1590.02 22.1398 1590.19 22.3198C1590.35 22.4898 1590.43 22.7998 1590.43 23.2598C1590.3 25.4298 1590.2 27.5298 1590.13 29.5398C1590.07 31.5598 1590.03 33.4798 1590.03 35.3098C1590.03 37.6698 1590.15 40.2198 1590.38 42.9598C1590.41 43.6098 1590.43 44.0098 1590.43 44.1598C1590.43 45.2998 1590.36 46.0198 1590.21 46.2998C1590.06 46.5898 1589.77 46.7298 1589.35 46.7298C1588.49 46.7298 1587.95 45.5298 1587.72 43.1298C1587.49 40.7298 1587.01 38.8898 1586.29 37.5898C1585.8 36.7198 1584.58 36.0998 1582.62 35.7398C1580.67 35.3698 1577.36 35.1998 1572.69 35.1998C1570.65 35.1998 1569.3 35.4198 1568.62 35.8598C1567.94 36.2998 1567.61 37.1598 1567.61 38.4598V40.2298L1567.96 48.2798C1568.06 49.9098 1568.17 52.0798 1568.3 54.7898C1568.57 59.5498 1568.84 62.5998 1569.14 63.9298C1569.37 64.7698 1570.37 65.4698 1572.15 66.0398C1573.92 66.6098 1576.12 66.8998 1578.75 66.8998C1582.03 66.8998 1584.74 66.4898 1586.88 65.6698C1589.02 64.8498 1590.71 63.5698 1591.96 61.8198C1593.08 60.3298 1594.08 58.5398 1594.94 56.4498C1595.81 54.3598 1596.42 53.3098 1596.79 53.3098C1597.16 53.3098 1597.45 53.4598 1597.68 53.7698C1597.9 54.0698 1598.02 54.4698 1598.02 54.9698C1598.02 55.7698 1597.83 57.5498 1597.43 60.3098C1597.03 63.0698 1596.52 65.8398 1595.9 68.6198C1595.7 69.5698 1595.42 70.2198 1595.06 70.5598C1594.7 70.9098 1594.17 71.0698 1593.49 71.0698H1592.16C1591.86 71.0698 1591.35 71.0298 1590.63 70.9598C1589.91 70.8798 1589.32 70.8498 1588.86 70.8498L1561.36 70.7398H1557.47C1556.88 70.7398 1555.94 70.7998 1554.66 70.9098C1553.38 71.0198 1552.39 71.0798 1551.71 71.0798C1551.03 71.0798 1550.57 70.9698 1550.25 70.7398C1549.94 70.5098 1549.78 70.1698 1549.78 69.7098C1549.78 68.6398 1550.81 68.0398 1552.86 67.9098C1554.91 67.7798 1556.55 67.4498 1557.77 66.9198C1558.29 66.3798 1558.65 65.6098 1558.85 64.5998C1559.04 63.5898 1559.15 61.3898 1559.15 58.0098H1559.14Z" fill="#0A5E84"/>
<path d="M1644.63 72.41C1640.59 72.41 1636.81 71.82 1633.3 70.63C1629.79 69.45 1626.45 67.66 1623.3 65.26C1618.54 61.53 1615.02 57.25 1612.74 52.42C1610.45 47.58 1609.31 41.97 1609.31 35.57C1609.31 29.67 1610.39 24.24 1612.54 19.3C1614.69 14.35 1617.89 9.99 1622.13 6.23C1624.76 3.83 1627.97 1.98 1631.76 0.69C1635.55 -0.6 1639.63 -1.25 1644 -1.25C1647.74 -1.25 1651.35 -0.86 1654.81 -0.0799999C1658.28 0.7 1660.44 1.47 1661.29 2.23C1661.92 2.8 1662.38 3.89 1662.69 5.48C1663.01 7.08 1663.16 9.23 1663.16 11.93C1663.16 12.28 1663.12 12.49 1663.04 12.59C1662.96 12.69 1662.8 12.74 1662.57 12.74C1662.24 12.74 1661.92 12.64 1661.61 12.45C1661.3 12.26 1660.81 11.79 1660.16 11.02C1660.03 10.83 1659.85 10.6 1659.62 10.34C1655.02 4.7 1650.13 1.89 1644.94 1.89C1641.82 1.89 1638.9 2.61 1636.19 4.03C1633.48 5.46 1630.94 7.58 1628.58 10.4C1625.75 13.83 1623.63 17.56 1622.22 21.59C1620.81 25.63 1620.1 30.01 1620.1 34.73C1620.1 44.59 1622.35 52.67 1626.87 58.97C1631.39 65.27 1637.16 68.42 1644.19 68.42C1647.54 68.42 1650.37 67.82 1652.69 66.62C1655.01 65.42 1657.11 63.51 1659.02 60.88C1659.54 60.12 1660.17 59.15 1660.89 57.97C1661.87 56.29 1662.63 55.46 1663.15 55.46C1663.55 55.46 1663.85 55.63 1664.06 55.97C1664.28 56.32 1664.38 56.81 1664.38 57.46C1664.38 59.59 1664.14 61.67 1663.64 63.72C1663.14 65.76 1662.62 67.02 1662.06 67.52C1660.45 68.96 1658.07 70.14 1654.92 71.06C1651.77 71.98 1648.33 72.43 1644.62 72.43L1644.63 72.41Z" fill="#0A5E84"/>
<path d="M1694.55 52.7598L1694.36 14.0398V11.8098C1694.36 8.38977 1693.96 6.35977 1693.18 5.72976C1692.39 5.09976 1690.4 4.78977 1687.22 4.78977C1684.56 4.78977 1682.29 5.32977 1680.42 6.41977C1678.55 7.49977 1676.71 9.37977 1674.9 12.0398C1674.54 12.5398 1674.08 13.2598 1673.52 14.2098C1672.47 15.9598 1671.58 16.8398 1670.86 16.8398C1670.43 16.8398 1670.12 16.6898 1669.92 16.3798C1669.73 16.0798 1669.63 15.6098 1669.63 14.9598C1669.63 14.7298 1669.64 14.4998 1669.68 14.2798C1669.71 14.0498 1669.76 13.8198 1669.83 13.5898L1674.71 -2.00023C1674.9 -2.68023 1675.14 -3.19023 1675.4 -3.51023C1675.66 -3.83023 1676.01 -3.99023 1676.43 -3.99023C1676.96 -3.99023 1677.43 -3.46023 1677.86 -2.40023C1677.93 -2.20023 1677.98 -2.08023 1678.01 -2.00023C1678.37 -1.05023 1678.79 -0.400234 1679.29 -0.0602343C1679.78 0.279766 1680.7 0.449765 1682.04 0.449765H1683.37C1685.08 0.449765 1687.86 0.529765 1691.72 0.679765C1695.58 0.829765 1698.61 0.909765 1700.81 0.909765C1702.55 0.909765 1704.89 0.829765 1707.83 0.679765C1710.77 0.529765 1712.8 0.449765 1713.91 0.449765H1717.56C1717.92 0.449765 1718.4 0.469766 1718.99 0.509766C1719.58 0.549766 1719.97 0.569766 1720.18 0.569766C1720.93 0.569766 1721.52 0.459765 1721.95 0.249765C1722.38 0.0497656 1722.77 -0.310234 1723.13 -0.810234C1723.49 -0.880234 1723.9 -1.27023 1724.34 -1.98023C1724.78 -2.69023 1725.25 -3.04023 1725.74 -3.04023C1726.17 -3.04023 1726.51 -2.79023 1726.77 -2.29023C1727.03 -1.80023 1727.17 -1.11023 1727.17 -0.230234V0.219765L1726.87 14.1498C1726.87 14.6898 1726.71 15.1498 1726.38 15.5498C1726.05 15.9498 1725.67 16.1498 1725.25 16.1498C1724.36 16.1498 1723.79 15.1798 1723.52 13.2398C1723.26 11.2998 1722.93 9.99977 1722.54 9.34977C1721.49 7.71977 1719.73 6.54977 1717.26 5.83977C1714.8 5.13977 1711.14 4.77977 1706.28 4.77977C1705.06 4.77977 1704.28 5.26976 1703.94 6.23977C1703.59 7.20977 1703.42 9.57977 1703.42 13.3498V18.9398L1703.66 56.8098V59.8898C1703.66 62.1398 1703.82 63.6398 1704.13 64.4098C1704.44 65.1798 1705.01 65.7198 1705.83 66.0698C1707.05 66.5598 1708.67 66.9298 1710.7 67.1498C1713.03 67.3798 1714.22 68.1998 1714.25 69.6098C1714.22 70.1798 1714.07 70.5698 1713.81 70.7798C1713.55 70.9798 1712.99 71.0898 1712.13 71.0898H1711.54C1709.97 71.0098 1708.47 70.9798 1707.05 70.9798H1703.56C1703.4 70.9798 1702.49 70.9598 1700.85 70.9198C1699.21 70.8798 1697.62 70.8598 1696.07 70.8598C1694.52 70.8598 1692.78 70.8998 1690.75 70.9698C1688.71 71.0498 1687.47 71.0798 1687.01 71.0798C1685.83 71.0798 1685.04 70.9698 1684.65 70.7698C1684.25 70.5598 1684.06 70.1698 1684.06 69.5998C1684.06 68.4898 1685.1 67.7698 1687.19 67.4198C1689.27 67.0798 1690.86 66.6598 1691.94 66.1698C1692.96 65.7098 1693.67 64.7298 1694.06 63.1998C1694.46 61.6798 1694.66 59.1198 1694.66 55.5398C1694.66 55.1598 1694.64 54.6598 1694.61 54.0298C1694.57 53.3998 1694.56 52.9698 1694.56 52.7398L1694.55 52.7598Z" fill="#0A5E84"/>
<path d="M1743.2 44.1895L1743.49 13.0695C1743.49 12.4995 1743.53 11.9095 1743.59 11.2995V11.0095C1743.59 7.35945 1743.2 5.12945 1742.43 4.32945C1741.66 3.52945 1739.79 3.12945 1736.84 3.12945H1735.86C1735.2 3.12945 1734.75 3.01945 1734.5 2.77945C1734.25 2.54945 1734.13 2.16945 1734.13 1.63945C1734.13 0.909453 1734.29 0.359453 1734.6 -0.0205469C1734.91 -0.400547 1735.37 -0.590547 1735.96 -0.590547L1755.12 -0.940547H1756.75C1758.46 -0.940547 1759.62 -0.790547 1760.24 -0.510547C1760.87 -0.220547 1761.18 0.299453 1761.18 1.05945C1761.18 1.59945 1760.94 1.98945 1760.44 2.25945C1759.95 2.52945 1759.14 2.65945 1758.03 2.65945C1755.4 2.65945 1753.79 3.33945 1753.2 4.71945C1752.61 6.08945 1752.31 9.78945 1752.31 15.7895L1752.41 46.5195C1752.41 53.9395 1753.77 59.3495 1756.49 62.7395C1759.22 66.1295 1763.57 67.8195 1769.55 67.8195C1776.74 67.8195 1781.73 65.6994 1784.53 61.4495C1787.32 57.2094 1788.72 49.2795 1788.72 37.6695V35.8995L1788.52 12.1495V10.4895C1788.52 8.80945 1788.33 7.50945 1787.95 6.56945C1787.57 5.63945 1786.96 4.84945 1786.1 4.19945C1785.32 3.62945 1784.14 3.13945 1782.58 2.73945C1781.02 2.33945 1780.24 1.72945 1780.24 0.889453C1780.24 0.279453 1780.4 -0.160547 1780.73 -0.430547C1781.06 -0.700547 1781.63 -0.830547 1782.45 -0.830547L1799.01 -1.06055C1799.5 -1.06055 1799.96 -0.880547 1800.39 -0.520547C1800.82 -0.160547 1801.03 0.229453 1801.03 0.649453C1801.03 1.75945 1800.15 2.46945 1798.37 2.78945C1796.6 3.10945 1795.25 3.61945 1794.33 4.29945C1793.61 4.86945 1793.1 5.61945 1792.8 6.54945C1792.5 7.48945 1792.36 9.14945 1792.36 11.5495C1792.36 11.6995 1792.37 12.0495 1792.41 12.5995C1792.44 13.1595 1792.46 13.6195 1792.46 13.9995L1792.56 39.8095V40.4395C1792.56 52.1695 1790.62 60.4194 1786.75 65.1994C1782.87 69.9794 1776.3 72.3695 1767.04 72.3695C1762.18 72.3695 1758.05 71.6195 1754.65 70.1195C1751.25 68.6095 1748.55 66.3595 1746.55 63.3494C1745.36 61.5594 1744.51 59.4295 1743.99 56.9495C1743.47 54.4795 1743.21 51.1095 1743.21 46.8395V44.1595L1743.2 44.1895Z" fill="#0A5E84"/>
<path d="M1819.48 60.4695L1819.78 23.4095V8.44945C1819.78 6.65945 1819.63 5.44945 1819.34 4.81945C1819.04 4.18945 1818.37 3.51945 1817.32 2.78945C1816.47 2.70945 1815.82 2.65945 1815.37 2.61945C1814.92 2.57945 1814.54 2.55945 1814.22 2.55945H1812.94C1811.89 2.55945 1811.19 2.45945 1810.84 2.26945C1810.5 2.07945 1810.32 1.75945 1810.32 1.29945C1810.32 0.689453 1810.65 0.229453 1811.3 -0.0905468C1811.95 -0.410547 1812.89 -0.580547 1814.11 -0.580547C1815 -0.580547 1816.52 -0.490547 1818.67 -0.300547C1820.82 -0.100547 1822.54 -0.0105469 1823.82 -0.0105469C1825.17 -0.0105469 1827.36 -0.140547 1830.4 -0.410547C1833.43 -0.680547 1835.77 -0.810547 1837.42 -0.810547C1842.94 -0.810547 1847.3 0.809453 1850.5 4.03945C1853.7 7.27945 1855.3 11.6995 1855.3 17.2895C1855.3 19.4595 1854.96 21.5095 1854.27 23.4295C1853.58 25.3495 1852.54 27.1295 1851.16 28.7695C1850.27 29.8295 1849.03 30.9695 1847.42 32.1695C1845.81 33.3695 1845.01 34.2095 1845.01 34.7095C1845.01 34.9395 1845.06 35.2095 1845.18 35.5295C1845.3 35.8495 1845.47 36.2395 1845.7 36.6995L1857.22 58.9195C1858.14 60.7095 1859.03 62.0795 1859.88 63.0295C1860.74 63.9795 1861.8 64.8094 1863.08 65.4894C1864.33 66.1694 1865.96 66.7595 1867.99 67.2295C1870.01 67.7095 1871.02 68.3895 1871.02 69.2595C1871.02 69.6795 1870.86 70.0794 1870.53 70.4894C1870.2 70.8995 1869.84 71.0894 1869.45 71.0894C1869.35 71.0894 1869.09 71.0695 1868.66 71.0294C1865.8 70.7595 1862.9 70.6294 1859.94 70.6294C1859.45 70.6294 1858.72 70.7094 1857.75 70.8595C1856.78 71.0095 1856.07 71.0894 1855.6 71.0894C1854.52 71.0894 1853.67 70.8895 1853.06 70.4894C1852.45 70.0894 1851.89 69.3595 1851.36 68.2895L1838.75 41.6195C1837.7 39.4895 1836.51 38.0295 1835.18 37.2195C1833.85 36.4195 1831.86 36.0195 1829.19 36.0195H1828.25L1828.15 58.7995C1828.15 58.8795 1828.2 59.3795 1828.3 60.3095C1828.4 61.2495 1828.45 62.1495 1828.45 63.0195C1828.45 64.5095 1830.26 65.7495 1833.87 66.7295C1834.17 66.8095 1834.39 66.8595 1834.56 66.9095C1834.78 66.9495 1835.13 67.0194 1835.59 67.1395C1837.82 67.6795 1838.94 68.4495 1838.94 69.4795C1838.94 70.0895 1838.77 70.5094 1838.42 70.7394C1838.07 70.9695 1837.44 71.0795 1836.52 71.0795C1836.32 71.0795 1835.92 71.0395 1835.31 70.9695C1834.7 70.8995 1834.2 70.8595 1833.81 70.8595L1815.63 70.9695C1814.84 70.9695 1813.99 70.9894 1813.09 71.0294C1812.19 71.0695 1811.69 71.0894 1811.59 71.0894C1811 71.0894 1810.56 70.9594 1810.28 70.6994C1810 70.4295 1809.86 70.0294 1809.86 69.4995C1809.86 68.5495 1810.95 67.8895 1813.11 67.5095C1814.3 67.2794 1815.21 67.0695 1815.87 66.8794C1817.25 66.4995 1818.2 65.9995 1818.7 65.3695C1819.21 64.7395 1819.47 63.6995 1819.47 62.2595V60.4895L1819.48 60.4695ZM1828.44 32.3695C1829.49 32.3695 1830.75 32.3895 1832.21 32.4295C1833.67 32.4695 1834.6 32.4895 1834.99 32.4895C1838.7 32.4895 1841.63 31.2395 1843.79 28.7195C1845.94 26.2095 1847.02 22.7995 1847.02 18.4995C1847.02 13.2095 1845.8 9.26945 1843.35 6.67945C1840.91 4.08945 1837.19 2.79945 1832.19 2.79945C1830.59 2.79945 1829.52 3.21945 1829.02 4.04945C1828.51 4.88945 1828.25 6.88945 1828.25 10.0495V12.9595L1828.44 32.3795V32.3695Z" fill="#0A5E84"/>
<path d="M1881.13 58.0098L1880.83 9.5798C1880.83 9.5798 1880.85 9.4298 1880.88 9.2298C1880.91 8.5098 1880.93 7.7598 1880.93 6.9998C1880.93 6.0498 1880.81 5.3198 1880.58 4.8298C1880.36 4.3398 1879.91 3.89981 1879.25 3.5198C1878.19 2.9798 1876.73 2.5498 1874.86 2.1998C1872.99 1.8498 1872.05 1.3098 1872.05 0.539805C1872.05 -0.000195324 1872.28 -0.380195 1872.74 -0.600195C1873.2 -0.830195 1874.06 -0.950195 1875.3 -0.950195C1876.81 -0.950195 1879.54 -0.770195 1883.51 -0.440195C1887.47 -0.0901953 1890.68 0.0698049 1893.14 0.0698049C1894.95 0.0698049 1897.61 -0.0101954 1901.13 -0.160195C1904.64 -0.310195 1907.24 -0.390195 1908.91 -0.390195H1912.71C1914.38 -0.390195 1915.45 -0.240195 1915.89 0.0698049C1916.33 0.369805 1916.55 1.0098 1916.55 1.9598C1916.55 3.9698 1916.52 5.9998 1916.45 8.0098C1916.38 10.0198 1916.35 11.0498 1916.35 11.0998C1916.35 11.3698 1916.38 11.7598 1916.45 12.2998C1916.52 12.8398 1916.55 13.2198 1916.55 13.4398C1916.55 13.8198 1916.48 14.0898 1916.36 14.2398C1916.23 14.3898 1916.03 14.4698 1915.76 14.4698C1915.14 14.4698 1914.48 13.3898 1913.79 11.2398C1913.1 9.0898 1912.54 7.6698 1912.11 6.9798C1911.26 5.7298 1909.5 4.8298 1906.84 4.2998C1904.18 3.7598 1899.99 3.4998 1894.28 3.4998C1892.51 3.4998 1891.31 3.9098 1890.68 4.7298C1890.05 5.5498 1889.74 7.3098 1889.74 10.0098V11.4298L1890.04 26.5098C1890.04 28.6398 1890.19 30.0498 1890.48 30.7398C1890.77 31.4298 1891.33 31.7698 1892.15 31.7698C1892.48 31.7698 1893.17 31.7498 1894.2 31.7098C1895.23 31.6698 1896.13 31.6498 1896.89 31.6498H1899.21C1902.26 31.6498 1904.34 31.5698 1905.44 31.3898C1906.54 31.2198 1907.26 30.9298 1907.59 30.5098C1907.88 30.0898 1908.36 28.5798 1909.02 25.9698C1909.68 23.3598 1910.45 22.0598 1911.34 22.0598C1911.74 22.0598 1912.01 22.1398 1912.18 22.3198C1912.34 22.4898 1912.42 22.7998 1912.42 23.2598C1912.29 25.4298 1912.19 27.5298 1912.12 29.5398C1912.06 31.5598 1912.02 33.4798 1912.02 35.3098C1912.02 37.6698 1912.14 40.2198 1912.37 42.9598C1912.4 43.6098 1912.42 44.0098 1912.42 44.1598C1912.42 45.2998 1912.35 46.0198 1912.2 46.2998C1912.05 46.5898 1911.76 46.7298 1911.34 46.7298C1910.48 46.7298 1909.94 45.5298 1909.71 43.1298C1909.48 40.7298 1909 38.8898 1908.28 37.5898C1907.79 36.7198 1906.57 36.0998 1904.61 35.7398C1902.66 35.3698 1899.35 35.1998 1894.68 35.1998C1892.64 35.1998 1891.29 35.4198 1890.61 35.8598C1889.93 36.2998 1889.6 37.1598 1889.6 38.4598V40.2298L1889.95 48.2798C1890.05 49.9098 1890.16 52.0798 1890.29 54.7898C1890.56 59.5498 1890.83 62.5998 1891.13 63.9298C1891.36 64.7698 1892.36 65.4698 1894.14 66.0398C1895.91 66.6098 1898.11 66.8998 1900.74 66.8998C1904.02 66.8998 1906.73 66.4898 1908.87 65.6698C1911.01 64.8498 1912.7 63.5698 1913.95 61.8198C1915.07 60.3298 1916.07 58.5398 1916.93 56.4498C1917.8 54.3598 1918.41 53.3098 1918.78 53.3098C1919.15 53.3098 1919.44 53.4598 1919.67 53.7698C1919.89 54.0698 1920.01 54.4698 1920.01 54.9698C1920.01 55.7698 1919.82 57.5498 1919.42 60.3098C1919.02 63.0698 1918.51 65.8398 1917.89 68.6198C1917.69 69.5698 1917.41 70.2198 1917.05 70.5598C1916.69 70.9098 1916.16 71.0698 1915.48 71.0698H1914.15C1913.85 71.0698 1913.34 71.0298 1912.62 70.9598C1911.9 70.8798 1911.31 70.8498 1910.85 70.8498L1883.35 70.7398H1879.46C1878.87 70.7398 1877.93 70.7998 1876.65 70.9098C1875.37 71.0198 1874.38 71.0798 1873.7 71.0798C1873.02 71.0798 1872.56 70.9698 1872.24 70.7398C1871.93 70.5098 1871.77 70.1698 1871.77 69.7098C1871.77 68.6398 1872.8 68.0398 1874.85 67.9098C1876.9 67.7798 1878.54 67.4498 1879.76 66.9198C1880.28 66.3798 1880.64 65.6098 1880.84 64.5998C1881.03 63.5898 1881.14 61.3898 1881.14 58.0098H1881.13Z" fill="#0A5E84"/>
</g>
</svg>
