<svg width="294" height="61" viewBox="0 0 294 61" fill="none" xmlns="http://www.w3.org/2000/svg">
<rect x="0.333496" y="0.5" width="293.333" height="60" rx="10" fill="#FFE3BB"/>
<path d="M78.4435 14.5C69.5835 14.5 62.3335 21.21 62.3335 29.4C62.3335 34.1 64.6135 38.26 68.3735 41.08V46.72L73.8835 43.77C75.3635 44.17 76.8335 44.44 78.4535 44.44C87.3135 44.44 94.5635 37.73 94.5635 29.54C94.5635 21.35 87.3135 14.5 78.4535 14.5H78.4435ZM80.0535 34.64L75.8935 30.21L67.8335 34.64L76.6935 25.24L80.8535 29.67L88.9135 25.24L80.0535 34.64Z" fill="#666666"/>
<path d="M140.264 36.5V24.644H147.56V26.628H142.632V29.716H146.84V31.7H142.632V36.5H140.264ZM151.224 36.5V24.644H155.144C155.955 24.644 156.68 24.7347 157.32 24.916C157.971 25.0973 158.483 25.4013 158.856 25.828C159.24 26.2547 159.432 26.836 159.432 27.572C159.432 27.9347 159.363 28.292 159.224 28.644C159.096 28.9853 158.915 29.2893 158.68 29.556C158.445 29.8227 158.157 30.02 157.816 30.148V30.212C158.456 30.3613 158.984 30.6707 159.4 31.14C159.816 31.5987 160.024 32.2227 160.024 33.012C160.024 33.8013 159.821 34.4573 159.416 34.98C159.021 35.492 158.477 35.876 157.784 36.132C157.101 36.3773 156.323 36.5 155.448 36.5H151.224ZM153.592 29.476H154.984C155.731 29.476 156.275 29.3373 156.616 29.06C156.957 28.772 157.128 28.3933 157.128 27.924C157.128 27.4013 156.952 27.028 156.6 26.804C156.248 26.58 155.715 26.468 155 26.468H153.592V29.476ZM153.592 34.676H155.24C156.051 34.676 156.664 34.532 157.08 34.244C157.507 33.9453 157.72 33.4867 157.72 32.868C157.72 32.292 157.507 31.876 157.08 31.62C156.664 31.3533 156.051 31.22 155.24 31.22H153.592V34.676ZM168.05 28.612C168.445 28.4627 168.904 28.2653 169.426 28.02C169.96 27.7747 170.504 27.5187 171.058 27.252L171.458 28.612C171.021 28.8573 170.573 29.108 170.114 29.364C169.656 29.62 169.213 29.8547 168.786 30.068L168.05 28.612ZM168.354 24.212L169.538 23.3C169.869 23.5667 170.2 23.876 170.53 24.228C170.872 24.58 171.122 24.9 171.282 25.188L170.034 26.18C169.885 25.9027 169.65 25.5773 169.33 25.204C169.01 24.8307 168.685 24.5 168.354 24.212ZM172.162 24.468H176.738V25.988H172.162V24.468ZM170.306 35.572H175.586V37.252H170.306V35.572ZM169.442 31.716H176.61V37.908H174.738V33.412H171.234V37.956H169.442V31.716ZM172.226 22.9L173.89 23.236C173.688 24.1213 173.4 24.9693 173.026 25.78C172.664 26.5907 172.258 27.2733 171.81 27.828C171.714 27.732 171.581 27.6253 171.41 27.508C171.24 27.38 171.064 27.2573 170.882 27.14C170.712 27.012 170.557 26.916 170.418 26.852C170.845 26.372 171.213 25.78 171.522 25.076C171.832 24.372 172.066 23.6467 172.226 22.9ZM176.242 24.468H176.482L176.722 24.42L177.874 24.644C177.757 25.1667 177.624 25.7053 177.474 26.26C177.325 26.8147 177.181 27.2787 177.042 27.652L175.65 27.396C175.746 27.044 175.853 26.6173 175.97 26.116C176.088 25.604 176.178 25.1187 176.242 24.66V24.468ZM174.194 25.044H175.09V26.788C175.09 26.98 175.122 27.22 175.186 27.508C175.261 27.7853 175.4 28.0787 175.602 28.388C175.805 28.6973 176.098 28.996 176.482 29.284C176.866 29.572 177.362 29.8333 177.97 30.068C177.821 30.26 177.65 30.4947 177.458 30.772C177.266 31.0387 177.106 31.2787 176.978 31.492C176.573 31.3533 176.205 31.1667 175.874 30.932C175.554 30.6973 175.277 30.4467 175.042 30.18C174.818 29.9027 174.632 29.636 174.482 29.38C174.333 29.1133 174.232 28.8733 174.178 28.66C174.114 28.8733 173.997 29.108 173.826 29.364C173.666 29.62 173.458 29.8813 173.202 30.148C172.946 30.4147 172.637 30.6653 172.274 30.9C171.922 31.1347 171.517 31.3267 171.058 31.476C170.973 31.284 170.834 31.0547 170.642 30.788C170.461 30.5107 170.296 30.2867 170.146 30.116C170.808 29.892 171.341 29.6307 171.746 29.332C172.152 29.0227 172.461 28.7133 172.674 28.404C172.888 28.0947 173.037 27.8013 173.122 27.524C173.208 27.236 173.25 26.996 173.25 26.804V25.044H174.194ZM163.458 27.812H167.922V29.268H163.458V27.812ZM163.554 23.412H167.858V24.852H163.554V23.412ZM163.458 30.004H167.922V31.444H163.458V30.004ZM162.738 25.556H168.45V27.076H162.738V25.556ZM164.338 32.212H167.954V37.06H164.338V35.556H166.37V33.716H164.338V32.212ZM163.41 32.212H164.962V37.716H163.41V32.212ZM187.89 30.692H191.058V32.052H187.89V30.692ZM188.066 25.268H193.842V27.012H188.066V25.268ZM188.082 28.276H191.954V34.532H188.082V33.092H190.338V29.716H188.082V28.276ZM187.026 28.276H188.626V35.268H187.026V28.276ZM193.25 25.268H195.074C195.074 25.268 195.074 25.3267 195.074 25.444C195.074 25.5507 195.069 25.6787 195.058 25.828C195.058 25.9667 195.058 26.0787 195.058 26.164C195.026 28.0093 194.989 29.5773 194.946 30.868C194.914 32.1587 194.872 33.2147 194.818 34.036C194.765 34.8573 194.69 35.4973 194.594 35.956C194.509 36.4147 194.392 36.7453 194.242 36.948C194.029 37.2573 193.81 37.4707 193.586 37.588C193.362 37.716 193.09 37.8013 192.77 37.844C192.472 37.8973 192.098 37.9187 191.65 37.908C191.213 37.908 190.77 37.9027 190.322 37.892C190.312 37.636 190.248 37.332 190.13 36.98C190.013 36.6387 189.874 36.34 189.714 36.084C190.205 36.1267 190.648 36.1533 191.042 36.164C191.437 36.164 191.741 36.164 191.954 36.164C192.104 36.164 192.226 36.1427 192.322 36.1C192.418 36.0573 192.504 35.9827 192.578 35.876C192.696 35.748 192.792 35.4707 192.866 35.044C192.941 34.6067 193 33.9827 193.042 33.172C193.096 32.3613 193.133 31.3427 193.154 30.116C193.186 28.8787 193.218 27.3907 193.25 25.652V25.268ZM188.178 22.884L190.13 23.332C189.896 24.132 189.613 24.9107 189.282 25.668C188.962 26.4253 188.605 27.1347 188.21 27.796C187.816 28.4467 187.394 29.0173 186.946 29.508C186.84 29.3907 186.69 29.252 186.498 29.092C186.306 28.9213 186.104 28.756 185.89 28.596C185.688 28.436 185.512 28.308 185.362 28.212C185.992 27.5933 186.552 26.8093 187.042 25.86C187.533 24.9 187.912 23.908 188.178 22.884ZM181.058 27.812H185.746V29.268H181.058V27.812ZM181.122 23.412H185.714V24.852H181.122V23.412ZM181.058 30.004H185.746V31.444H181.058V30.004ZM180.338 25.556H186.162V27.076H180.338V25.556ZM181.89 32.212H185.778V37.092H181.89V35.572H184.178V33.732H181.89V32.212ZM181.026 32.212H182.61V37.716H181.026V32.212Z" fill="#666666"/>
</svg>
