<svg xmlns="http://www.w3.org/2000/svg" fill="none" xmlns:xlink="http://www.w3.org/1999/xlink" viewBox="0 0 428 474">
  <defs>
    <clipPath id="clippath">
      <path
       d="M52.9,104.2c-4.9.1-2.3-3.3-2.3-19.3,0,0,0-9.6,0-9.6-11.7,11.3-27.4,20.1-47,26.3l-1-1.6c15.9-7.7,32.1-20.6,42-34.9h-13.9v3.2c-.9,2.1-7.2,3.3-9.5,3.3-4.1,0-1.6-5.3-1.6-15.7s-.1-23.4-1.6-30.5l13.5,5.3h19.1v-10.9c-12,.1-31.3-.6-43.3,1.6l-3.1-5.6c9.4,1.2,36.1.8,46.4.9,0-6.2-.4-11.4-1.1-15.7,8.1,2.2,21.1,3.6,12.3,7.4v8.3h26c1.7-2,5.8-8.1,7.6-8.8,1.1.1,19.7,11.9,9.6,12,0,0-43.2,0-43.2,0v10.9h19.2c1.3-1.3,4.4-5.5,5.9-5.9.7-.6,12.2,7.4,11.5,8.6-1.1,1.1-2.7,1.9-4.8,2.3-.1,9,.4,24.5.8,30.8-2.2,2.5-8.9,4.2-12.3,3.9v-5.4h-18c10.7,12.3,30.5,21.5,47.1,25.1l-.2,1.2c-4.6,1-7.7,4.1-9.2,9.5-18.2-7.4-31.6-19.1-40-35.2-.2,10.1.4,27.4.9,34.5-1.2,2.5-7,4-9.8,4ZM30.6,46.3h19.9v-12.3h-19.9v12.3ZM30.6,62h19.9v-12.5h-19.9v12.5ZM61.8,46.3h20.3v-12.3h-20.3v12.3ZM61.8,62h20.3v-12.5h-20.3v12.5ZM14.1,159.6c-1.8-5.2-7.3-11.3-12.1-14.8l1-.9c23.6,0,25.8,21,11.1,15.7ZM19,219.3c-15.6,2.8,4.1-29.5-14-29.5v-2.2c5.6,0,7.5,0,8.6-2.1,3.2-6,9.6-18.9,23.9-48.4l1.9.4c-6.1,18.5-17.4,44-17.4,54.5s10.1,25-3,27.3ZM23.4,136.2c-1.8-5.5-7.8-12-12.8-15.9l1-.9c24.1.3,27.2,21.6,11.8,16.8h0ZM30.3,220.3l-1.5-1.1c11.9-17.7,13.2-36.7,13.4-61,0-10,.5-29.8-1.3-38l13.5,5h37c1.3-1.4,4.1-5.8,5.7-6.2.8-.6,11.5,7.7,10.9,8.8-.7,1.1-2.3,1.9-4.7,2.3-.1,6.9.2,18.5.7,23.5-1.7,1.7-11.5,5.7-11.9.9.4-.9.6-2.7.5-3.8h-40c.4,27.7-1.4,52.9-22.4,69.5h0ZM52.6,147.6h40v-19.2h-40v19.2ZM73.4,216.9c-9.5-.4-13.3-.4-13.5-9.7-.1-12.6.7-38.7-1.6-49.5,19.6,4.2,13.9,5.4,11.7,7v19c9.2-5.7,18-12.4,26.3-20.1,14.9,13.1,7,9.5,5.3,9.8-10.2,6-20.7,10.5-31.7,13.7v17.5c.2,3.1,1.9,2.5,5.3,2.8,5.7,0,19,0,23.3-.2,5.4-1.2,4.4-8.2,7.3-17.2h1.5l.2,16.2c6,1.9,5.2,7.8-.7,9.3-5.1,1.8-24.8,1.6-33.5,1.6h0ZM250.4,103.1c-4.3,10.7-12.8,21.4-19.2,33.2-5.4,2.1-5.4,6.4-8.6,10.7-7.5,3.2-7.5,13.9-18.2,13.9-5.3,12.8-20.3,9.6-29.9,17.1-7.5,0-16,2.1-20.3-2.1,1.1-5.4,2.1-11.8,6.4-15-1.1-3.2,1.1-4.3,3.2-5.4,23.2,8.4,40.6-16.7,53.5-31,6.4-4.2,33.3-56.1,10.7-42.8-12.8,2.1-22.4-4.3-29.9-7.5-1.1-2.1,2.1-3.2,4.3-4.3,5.4,2.1,10.7-3.2,16-3.2,8.6-2.1,18.2-2.1,23.5-8.6,1.1-12.8,2.1-24.6,0-38.5,0-4.3-7.5-8.6-1.1-12.8,41.4,16.4,17.1,40.6,26.7,44.9,10.6,2,21.4-11.8,32.1-8.6,9.6-5.4,7.5,8.6,13.9,11.8-3.2,7.5-10.7,9.6-18.2,11.8-3.2-1.1-7.5,1.1-10.7,3.2-8.6,0-18.2,1.1-24.6,7.5,0,5.3-6.4,8.6-2.1,12.8-3.2,3.2-8.6,8.5-7.5,12.8h0ZM257.9,104.4h4.3c-1.1-1.1-3.2-1.1-4.3,0ZM409.5,167.3c-10.7-10.7-23.5-18.2-36.4-26.7-5.4,1.1-7.5-4.3-11.8-5.4-16-9.6-36.4-12.8-52.4-20.3-10.3-4.2-26.4-.8-32.1-10.7-3.2,6.4-5.4,0-9.6,2.1v2.1l12.8,4.3c7.5,7.5,18.2,7.5,25.7,15,13.9,4.3,21.4,16,35.3,20.3,11.6,9.9,28.7,21,39.6,34.2,11.8,7.5-8.5,4.3-8.5,13.9,4.3,2.1,10.7-1.1,13.9,3.2,7.5-4.3,11.8,5.4,19.2,5.4,18.7-5.2,9.7-25.9,4.3-37.4h0ZM177.6,341.3c10.4,16.8-8.5,27.7-19.9,37.1-8.4,6.7-15.3,1.5-22.9-4.2-.5,2.8-1.5,4.9-1.2,6.9,1.9,18.9,8.2,36.5,14.1,54.4,1.2,6.8-.7,9.1-7,11.4-6.3,2.4-12.3,5.3-18.3,8.4-3.9,2.1-8,1.5-9.4-3-4.1-13.9-7.2-26.2-9.1-40.9,1.6,1.5,2.4,2.2,4.1,3.7-.9-11.5-1.7-22-2.6-33.5-1.3,1.7-2,2.6-2.7,3.4-.5,0-1-.1-1.5-.2.8-19.3,4.1-38.3,7.2-57.3.6-4.9,7-7.8,10.5-9.1,12.3,7.4,20.8,17.3,23.9,31,14.5-5.9-2-17.6,2.9-34.5.7-6.6,5.8-12.7,4.3-19.5-7.9.2-14.3,6.4-22.2,1.2-4.7-1.3-11.5,3.4-10.6-5,.6-12.6,16-25.3,23-35.9,9.5-11.3,25.5-21.9,36.4-6.1,9,10.4,14,20.9,17.6,34.7,2.3-3.6,4.3-6.8,6.5-10.3,7.5,7.9,21.2-3.5,22.1,11.2,22.4-13.2,27.8-16.5,53.7-18.5,8.4-1,8.2,5.6,20.1,3.5,8.6-.6,5.5,7.1,4.4,12.3-2.4,10-13.7,19.6-25.1,20.8-.3-2.4-.6-4.9-.9-7.3-3.3,1.9-7,4.1-10.7,6.2,2.6-8.3,11.6-12.1,12.2-22.5-8.5,1.7-17,1-23.8,5.7-13.9,11-40,23.8-29.5,45.3,19.2-1.6,24.1-23,31.9-16.3,4.1,3,11.7,16.4,5.9,19.9-7.3,2.2-29.4,19-33,7.3-.4-1-3-1.8-4.5-1.8-19.4.6-13.9,5.5-17.4-9.5-.3,4-.5,7.9-.8,11.9-.3.1-.6.2-1,.3-.5-1.9-1-3.9-2-7.4-.3,2.5-.6,3.5-.6,4.5.5,7.6-8.1,7.8-9.3.9-1.1-14.7-.2-29.5-1.6-44-2.4,5.3-6.8,9.9-5.2,16.6.2,1-1.5,2.6-2.3,3.9-5.2,9.4-12.4,13.4-5.7,24.5h0ZM407.9,410.9c-.6,11.7,1.8,11.4-10.2,7.9v5.8c-9,7.6-21.5,11.3-32.8,14.8-4.6.4-9.4-3.6-13.6-5.7,0,0,.5-.7,1.4-2-11.3-1.7-21.7,0-31.8,3.6,0,.5,0,1,.1,1.5,7.6-.9,15.3-1.8,22.9-2.8,0,.4.2.8.2,1.2-26.7,6.4-54.7,7.8-81.9,10.8-8,1.1-15.4-4.7-22.6-7.6-5.5-3-8.3-8.1-7.9-14.6,1-4.4-.9-21.7,7.5-14.7,2.8-2.7,4.8-4.7,3.3-9.3-.9-4.4,3.5-8.9,2.4-14.2-18.4,6-30,49.2-41.8,65.1-1.5-1.1-3-2.2-4.8-3.6-.9.7-2.2,1.8-4.6,3.8-.3-5.7-.6-10.2-.8-15.6-1.7,2-3.2,3.8-5,5.9.6-10.2,5.5-18.1,9.6-26.4l1.4.4c.3,1.5.6,2.9,1.1,5.6,6.5-9.4,12.4-18,19-27.6-11,1.8-39.5,15.7-33.7-5.8-11.5-11.2,3-18,10.9-25.2,2.4,3.8,4.3,6.1,3.4,10.2-.8,3.8,1.3,6.4,4.8,4.7,9.5-4.9,19.6-9.6,28.4-15.7,12.8-2,27.7-26.5,37.6-18.5,7,6.1-4.9,18.9-6.3,26.2-4.2,15.6,1.6,32.9-3.2,48.4-3.7,7.3,7.7,8.8,12.4,10,29,2,57.6-6.5,85.8-12.3,6-2.2,4.2-18.7,1.4-23.8-4-8.7-4.7-16.7-7.4-26.4,8.7,2.8,12.1,9.6,18.7,14.9,4.5,4.2,11.4,7,15.4,11.5-1.3,9.3,5.7,5.7,9.3,5.5,9.4-.6,13.8,4.6,11.2,14h0ZM307.1,435.9c-14.2,1.1-28.4,2.2-42.6,3.2,0,.5,0,.9,0,1.4,14.4,4.1,28.4-1.7,42.5-2.5v-2.2h0ZM250.7,216.4c-4.5-4.2-15.8-17.9-20.7-7.8-2.6,7.2-8.1,6.7-14,11,19.1,8.1,5.7,29.6,28.1,37.9,1.4-3.5,3.2-7.2,9.9-6.8,5.9.4,10.7-9.5,7.9-14.2-4.3-6.3-7.1-13.9-11.2-20.1h0Z"
      />
    </clipPath>
    <radialGradient id="rg" cx="-744.5" cy="777.8" fx="-744.5" fy="777.8" r="1" gradientUnits="userSpaceOnUse">
      <stop offset="0" stop-color="#817057"/>
      <stop offset=".2" stop-color="#ffdb7f"/>
      <stop offset=".3" stop-color="#d9b971"/>
      <stop offset=".5" stop-color="#af9261"/>
      <stop offset=".6" stop-color="#c6a76a"/>
      <stop offset=".7" stop-color="#e7c677"/>
      <stop offset=".8" stop-color="#95815d"/>
      <stop offset="1" stop-color="#caab6b"/>
    </radialGradient>
  </defs>
  <g clip-path="url(#clippath)" stroke="url(#rg)">
    <path stroke-width="112" d="M56.9,0 V221" stroke-linecap="bevel"
    stroke-dasharray="221" 
    stroke-dashoffset="221">
    <animate attributeName="stroke-dashoffset" fill="freeze" 
    from="221" to="0" 
    dur="0.22s" id="a1" begin="0s"/></path>
    <g stroke-linecap="round">
    <path stroke-width="19" d="M192.7,71.8c34.2,6.7,41.2-.6,55.7-3.8"
    stroke-dasharray="57" 
    stroke-dashoffset="57">
    <animate attributeName="stroke-dashoffset" fill="freeze" 
    from="57" to="0" 
    dur="0.1s" id="a2" begin="a1.end"/></path>
    <path stroke-width="25" d="M248.4,67.9c27.5-6,55.2-16,65.2-22.1"
    stroke-dasharray="70" 
    stroke-dashoffset="70">
    <animate attributeName="stroke-dashoffset" fill="freeze" 
    from="70" to="0" 
    dur="0.14s" id="a3" begin="a2.end"/></path>
    <g stroke-width="32">
    <path d="M242.2,5.7c23.7,19.8,4.7,159.7-81.7,160.7"
    stroke-dasharray="209"
    stroke-dashoffset="209">
    <animate attributeName="stroke-dashoffset" fill="freeze" 
    from="209" to="0" 
    dur="0.42s" id="a4" begin="a3.end"/></path>
    <path  d="M257.9,101.7c87.1,26,171.3,90.3,147.6,96.8s-29.2,0-42.8,1.8"
    stroke-dasharray="231"
    stroke-dashoffset="231">
    <animate attributeName="stroke-dashoffset" fill="freeze" 
    from="231" to="0" 
    dur="0.69s" id="a5" begin="a4.end"/></path>
    </g>
    <g stroke-width="51">
    <path d="M117.7,343.6c-20.8,33.2,4.3,83.5,14.7,104.5" 
    stroke-dasharray="111" 
    stroke-dashoffset="111">
    <animate attributeName="stroke-dashoffset" fill="freeze" 
    from="111" to="0" 
    dur="0.22s" id="a6" begin="a5.end"/></path>
    <path d="M123.2,296.5c4.5-25.1,35.2-45.4,43.7-26.5s-8.7,35.1-7.5,42.1,7.4,31.2,5.5,36.4-18.2,14.1-24.8,14.3" 
    stroke-dasharray="176" 
    stroke-dashoffset="176">
    <animate attributeName="stroke-dashoffset" fill="freeze" 
    from="176" to="0" 
    dur="0.35s" id="a7" begin="a6.end"/></path>
    <path d="M220.5,205c13.2,7.1,27.2,36.9,27.9,40" 
    stroke-dasharray="50" 
    stroke-dashoffset="50">
    <animate attributeName="stroke-dashoffset" fill="freeze" 
    from="50" to="0" 
    dur="0.1s" id="a8" begin="a7.end"/></path>
    </g>
    <path stroke-width="40" d="M209.4,269.3c-6.6,13.3-11.8,48.4-5.8,56.8,2.6-8.3,27-58.3,63.7-64.2,27.5-4.4,28.3,31,15.8,34.9" 
    stroke-dasharray="207" 
    stroke-dashoffset="207">
    <animate attributeName="stroke-dashoffset" fill="freeze" 
    from="207" to="0" 
    dur="0.41s" id="a9" begin="a8.end"/></path>    
    <g stroke-width="30">
    <path d="M224.9,339.9c9.5-5.7,18.6-10.8,37.3-21.7" 
    stroke-dasharray="44" 
    stroke-dashoffset="44">
    <animate attributeName="stroke-dashoffset" fill="freeze" 
    from="44" to="0" 
    dur="0.08s" id="a10" begin="a9.end"/></path>
    <path d="M192.7,362.8c-11.3,9.5-5.2,17.3-5.2,17.3,1.3,7-.2,18.7,8.3,11.2,20.2-17.9,64.7-36.2,66.4-44.9,2.4-11.8-49.3,48.5-68.6,97.9" 
    stroke-dasharray="244" 
    stroke-dashoffset="244">
    <animate attributeName="stroke-dashoffset" fill="freeze" 
    from="244" to="0" 
    dur="0.48s" id="a11" begin="a10.end"/></path>
    </g>
    <path stroke-width="40" d="M257.9,360.4c-4.6,12.5-24.3,74.3-12.1,78.5,49.1,16.8,149.7-12.1,161.9-22.2-36.7-.5-33.5-34.9-54.4-51.6" 
    stroke-dasharray="328" 
    stroke-dashoffset="328">
    <animate attributeName="stroke-dashoffset" fill="freeze" 
    from="328" to="0" 
    dur="0.8s" id="a12" begin="a11.end"/></path>
  </g>
  </g>
  <path fill="#fff" opacity="0"
   d="M45.1,261.9c-.3,0-.6-.2-.6-.5.3-3.1.3-7,.3-10.1,0-1.9,0-3.5-.3-4.7l2.3,1h2.9c.2-1.5.5-3.3.6-4h-4.5c-1.1,0-2.3.1-3.6.3l-.6-1.1c.9,0,1.9.1,3.2.2h13.5c.3-.3,1-1.5,1.4-1.6.3,0,3.7,2.2,1.7,2.3h-8.7c-.8,1.7-1.5,3-2.2,4h6.4c.2-.3.8-1.2,1-1.3.6.2,3.3,2.1,1.1,2.3,0,3.3,0,9.3.2,12.4-1.6,1.1-2.4,1.2-2-1.1h-10.4c.2,1.2-.2,1.9-1.5,1.9h0ZM46.6,253.2h10.4v-4.9h-10.4v4.9ZM46.6,259.3h10.4v-5.4h-10.4v5.4ZM52.2,287c-.9,0-.3-.2-.3-5.9h-6.7c-1.1,0-2.3.1-3.6.3l-.6-1.2c1.1.1,2.9.2,4.1.2,0-2.1,0-5.4-.3-7l2.5,1h4.5v-4.3h-5c-1.6,2.3-3.5,4.1-5.5,5.3l-.3-.2c2.2-2.2,4.8-6.3,5.5-9.7,1.5.7,3.8,1.2,2.1,1.7-.4.8-.8,1.5-1.3,2.3h10.5c.3-.3,1-1.5,1.4-1.6.3,0,3.6,2.2,1.6,2.2h-7.1v4.3h3.6c.3-.3.9-1.4,1.3-1.5.3,0,3.4,2.1,1.5,2.1h-6.3v5.4h4.8c.3-.4,1-1.5,1.4-1.6.3,0,3.6,2.2,1.7,2.3h-7.9c0,2.5,0,4.1.1,5.2-.3.5-1.1.7-1.7.7ZM47.1,280.4h4.8v-5.4h-4.8v5.4ZM41.6,311.8c2.1-.7,5.4-2.5,6.9-4,2.9,1.6,2.1,1.7,1.1,1.6-2.1,1.2-5.4,2.3-7.9,2.7v-.3ZM45.2,307.8c0,.9.2.8-.8,1.1-1.7.5-.9-.6-.9-3.5,0-5.2,0-6.6-.3-7.8,3.8.7,2.6,1.2,2.1,1.4v8.1h13.8c.3-.3.9-1.4,1.2-1.5.2-.1,2.3,1.6,2.2,1.8,0,.2-.2.4-.6.4h-16.5ZM48.2,296.4c-4.2,0-2.6-.8-3.2-5.5,1.4.5,3.2.6,1.9,1.4v.9c2.8-.4,7.2-1,9.9-2.2,2.1,2.5,1.2,2,.4,1.9-3.3.3-6.9.8-10.2.8,0,1.2-.1,1.4,1.4,1.4,0,0,8.6,0,8.6,0,1.7,0,1.5-.3,2.4-2h.2v1.8c1.6.2,1.7,1.5-1.3,1.5h-10ZM49.5,297.9h6.4c.2-.3.7-1.1,1-1.1.2,0,2.1,1.4,2,1.7-.2.2-.6.4-1,.4,0,2,0,5.4.2,6.9-.3.5-1.4.8-2,.7v-.8h-6.7c.2.7-.9,1-1.5,1h0c-1.1-.4-.1-1.9-.3-3.3,0-2,0-4.8-.3-6.3l2.2.9ZM49.4,300.2h6.7v-1.6h-6.7v1.6ZM49.4,302.5h6.7v-1.7h-6.7v1.7ZM49.4,304.9h6.7v-1.7h-6.7v1.7ZM59.7,311.8c-1.4-1.3-3.5-2.4-6.1-3.1v-.4c3,.3,5.6.6,7.5,2.1,1.3,1.1-.3,2.4-1.4,1.4h0ZM43.2,336.9c-1.5.4-.8-.7-.8-3.7s0-5-.3-6.6l2.2.9h4.1c.2-.2.7-1,1-1,.2,0,2.1,1.3,2,1.6-.2.2-.5.4-1,.5,0,2.1,0,5.9.2,7.4-.4.5-1.5,1-1.9.6s0-.9,0-1.6h-4.4c0,1.3.5,1.6-1,2.1ZM44.2,334.2h4.4v-6h-4.4v6ZM48.1,317.6h7.4c.2-.3.7-1.1,1-1.2.2-.1,2.1,1.5,2,1.8-.2.2-.5.4-1,.5,0,1.9,0,5.3.2,6.6-.2.3-1.4.8-1.9.6s0-.7,0-1.6h-7.8c0,1.2.5,1.4-1.1,1.8s-.7-.6-.7-3.1,0-4.8-.3-6.2l2.3,1ZM47.9,323.5h7.8v-5.3h-7.8v5.3ZM53.6,337c-1.2.2-.5-.5-.5-3.8s0-5.1-.3-6.6l2.2.9h4.2c.2-.2.7-1,1-1,.2,0,2.1,1.3,2,1.6-.2.2-.5.4-1,.5,0,2.2,0,6,.2,7.5-.3.4-1.7.8-1.9.5s0-.6,0-1.7h-4.6c0,1.4.6,1.8-1.2,2.1ZM54.8,334.2h4.6v-6h-4.6v6ZM51.8,354.9c-4.5,0-4.5-6.4,0-6.4s4.5,6.4,0,6.4ZM51.8,354.1c3.4,0,3.4-4.9,0-4.9s-3.4,4.9,0,4.9ZM41.6,387l-.6-1.1c.9,0,1.9.2,3.2.2h6.7v-3.5h-3.3c-1.1,0-2.3.1-3.6.3l-.6-1.1c.9,0,1.9.1,3.2.2h4.3c0-1,0-1.9-.2-2.6,3,.7,2.8.9,2,1.4v1.2h4.3c.3-.3.9-1.5,1.3-1.5.3,0,3.3,2.1,1.5,2.2h-7.1v3.5h6.2c.3-.3.9-1.5,1.3-1.6.3,0,3.5,2.2,1.6,2.2h-16.5c-1.1,0-2.3.1-3.6.3h0ZM52.6,378c1.2-.8,2.4-1.8,3.4-2.9-1.1-1.7-1.9-3.9-2.4-6.5-.3,0-.6,0-.8.3l-.6-1.2c.9,0,1.9.1,3.2.2h3.9c.2-.3.9-1,1.1-1,.2,0,1.9,1.4,1.8,1.6-.1.2-.5.3-.9.3-.7,2.4-1.9,4.5-3.4,6.2,1.3,1.2,2.9,2.2,4.7,2.9v.2c-.8,0-1.4.5-1.7,1.4-1.6-.9-3-2.1-4.1-3.5-1.5,1.3-3.3,2.3-5.5,3.1l-.2-.3c.3-.1.7-.3,1-.5h-8.1c0,.3,0,.8,0,1.1-.2.4-.9.6-1.5.6h0c-.4,0-.6-.5-.5-.9.2-3.7.4-8.8-.1-12.3l2.2.9h4.9c.3-.3.8-1.3,1.2-1.4.3,0,3,2,1.3,2h-3.6v2.3h1.7c.2-.2.6-.8.9-.9.2,0,1.9,1.1,1.8,1.4-.2.2-.5.3-.8.4,0,.9,0,2.5.1,3.2-.3.4-1.3.7-1.8.6v-.7h-1.9v2.8h1.6l1-1.3,2,1.6ZM44,370.8h2.4v-2.3h-2.4v2.3ZM44,374.2h5.9v-2.7h-5.9v2.7ZM44,377.6h2.4v-2.8h-2.4v2.8ZM56.9,374c1.1-1.6,2-3.4,2.5-5.4h-5.2c.6,2.1,1.5,3.9,2.7,5.4ZM47.5,397.3c-.3,0-.4-.1-.4-.5,0-.5.1-1.5.1-2h-2c-1.1,0-2.3.1-3.6.3l-.6-1.2c.9,0,1.9.1,3.2.2h3c0-1.2,0-2.2-.2-2.9,3.6.8,2.5,1.1,2,1.4v1.5h5.3c0-1.2,0-2.2-.2-2.9,3.6.8,2.7,1,2,1.4v1.5h2.8c.3-.3.9-1.4,1.2-1.5.3,0,3.3,2.2,1.5,2.2h-5.5c0,.5,0,1.3,0,1.8-.2.5-2,1.1-2,.2,0-.5.1-1.4.1-2h-5.3c0,.5,0,1.4,0,1.9-.2.4-1.1.6-1.6.6h0ZM46.8,412.2c-.4-.3,0-.2,0-7.5-1.7,1.7-3.6,3-5.5,3.9l-.2-.3c2.8-1.9,5.1-4.5,7-7.8h-2.6c-1.1,0-2.3.1-3.6.3l-.6-1.2c.9,0,1.9.1,3.2.2h4c.6-1.1,1.2-2.9,1.4-4.1,3.7,1.4,2.7,1.4,2,1.5-.3.8-.8,1.6-1.3,2.6h8.1c.3-.4.9-1.5,1.3-1.5.3,0,3.4,2.2,1.5,2.2h-11.3c-.7,1.1-1.5,2.1-2.3,3l1.1.5h8.2c.2-.3.7-1.2,1-1.2.2-.1,2.1,1.5,2,1.8-.1.2-.5.3-.9.4v2.2c0,1.9,0,3.3.2,4.4-.3.3-2.1,1.2-2.1.2,0-.3.1-.8.1-1.1h-8.7v1.1c-.1.5-1.6.8-1.9.5ZM48.7,410h8.7v-5.3h-8.7v5.3ZM46.5,437.4c-.3,0-.5-.1-.5-.5.1-.8.2-2.5.1-3.5-1.5.9-3.2,1.6-5,2.2l-.2-.3c2.4-1.1,4.9-3,6.3-5h-2c-1.1,0-2.3.1-3.6.3l-.6-1.1c.9,0,1.9.1,3.2.2h14.7l.9-1.1c-1.4-.4-2.5-.9-3.4-1.5-1.5.8-3.4,1.4-5.6,1.7v-.4c1.8-.5,3.4-1.2,4.6-2-.9-.8-1.6-1.8-2.1-2.9h-.4c-.2,0-.4.1-.5.3l-.6-1.1c.9,0,1.9.2,3.2.2h3.3c.3-.3.8-1.1,1.1-1.1.2,0,1.7,1.4,1.6,1.6-.1.2-.5.3-1,.3-.6,1-1.3,1.8-2.2,2.5,1.2.4,2.6.7,4.4.8v.2c-.7.2-1.1.7-1.3,1.5h-.2c.3.2,1.2.9,1.4,1.1,0,.2-.2.4-.6.4h-11.8c-.4.6-1,1.1-1.7,1.7h.1s9,0,9,0c.2-.3.8-1,1-1,.2,0,2.1,1.3,2,1.6-.2.2-.5.4-.9.5,0,1,0,2.8.1,3.6-.3.4-1.5.7-2,.6v-1.1h-9.5v.6c-.2.4-1,.6-1.5.6ZM47,426.9c1.7.1,2.2.3,2.2-.3v-3.7c-1.2.2-2.6.5-4.2.8-.2,2.5-1.4,4.3-3.5,5.5h0l-.3-.3c1.3-1.2,2-2.8,2.2-4.9l-.9.2c-.1.3-.3.4-.6.5l-.8-1.9c.6,0,1.4,0,2.3-.1v-2.5c0-.9,0-1.6-.1-2.3l2,.9h.5c.2-1,.3-1.8.2-2.5,1.4.2,3.3.3,1.9,1.1-.5.5-1,1-1.5,1.5h2.5c.2-.3.6-1,.9-1,.2,0,1.9,1.3,1.8,1.6-.2.2-.5.4-.9.4v2.4h.9c0,0,0,.3,0,.3l-1,.2v4.2c0,1.5-.6,1.8-2.1,2,0-1.2-.5-1.3-1.6-1.5v-.4ZM46.2,427.1c0-.8,0-2.4,0-3.1,2.5.8,1.9,1,1.4,1.2v1.4c0,.3-.9.5-1.3.5ZM45,422.5c.8,0,3.4-.3,4.2-.3v-2.8h-4.2v3.1ZM47.7,421.9c-.3.3-.7.2-1.1,0,0-.6-.3-1.3-.9-1.9l.2-.2c1.2.3,2.5,1.1,1.7,2.1ZM48,435.5h9.5v-2.8h-9.5v2.8ZM51.9,422.8l-.2-.3c1.7-1.3,1.7-3.7,1.5-5.7l1.9.9h2.1c.2-.2.6-1,.9-1,.2,0,1.7,1.3,1.6,1.6-.2.2-.4.3-.7.3v1.8c0,.3,0,.2.3.3h1.4c.1,0,.2,0,.3-.1.1-.2.3-.6.5-1.2h.3v1.2c1.6,1.1-.5,1.7-1.9,1.5-1.1,0-2.6.3-2.5-1.3v-2.3h-2.5c0,2.1-.9,3.6-2.9,4.4h0ZM56.6,425.7c.7-.6,1.3-1.3,1.7-2.1h-4.3c.7.9,1.5,1.6,2.6,2.1ZM46.7,462.5c-.3,0-.6-.2-.6-.4.1-2,.2-3.9.3-5.9v-3.6c-1.6,1.8-3.3,3.4-5.2,4.6l-.2-.2c3.5-3.1,6.6-8,7.8-12.5h-3.3c-1.1,0-2.3.1-3.6.3l-.6-1.2c.9,0,1.9.1,3.2.2h14.1c.3-.4,1-1.5,1.4-1.7.2,0,3.7,2.3,1.8,2.3h-10.6c-.8,2.3-1.9,4.5-3.4,6.5l.8.3h9.4c.2-.3.8-1.2,1.1-1.3.2-.1,2.3,1.6,2.1,1.9-.2.2-.6.4-1.1.5v3.9c0,1.9.1,3.7.2,5.4-.4.3-2.1,1.3-2.2.2,0-.4.1-1.1.1-1.6h-9.9c0,.4,0,1.1,0,1.5-.2.5-1,.7-1.6.7ZM48.2,459.6h9.9v-7.7h-9.9v7.7Z">
   <animate attributeName="opacity" fill="freeze" 
    from="0" to="1" 
    dur="0.5s" begin="a10.end"/>
   </path>
</svg>