<svg width="920" height="61" viewBox="0 0 920 61" fill="none" xmlns="http://www.w3.org/2000/svg">
<rect y="0.5" width="920" height="60" rx="10" fill="white"/>
<path d="M157.41 22.7H158.91V25.42H157.41V22.7ZM152.65 24.82H163.77V26.14H152.65V24.82ZM151.85 29.52H164.35V30.84H151.85V29.52ZM154.55 26.32L155.85 26.06C155.997 26.42 156.13 26.8067 156.25 27.22C156.383 27.62 156.49 28.0067 156.57 28.38C156.663 28.7533 156.723 29.0867 156.75 29.38L155.37 29.72C155.357 29.4267 155.31 29.0867 155.23 28.7C155.15 28.3 155.05 27.8933 154.93 27.48C154.823 27.0667 154.697 26.68 154.55 26.32ZM160.49 26.02L161.97 26.22C161.757 26.8067 161.53 27.42 161.29 28.06C161.063 28.6867 160.843 29.22 160.63 29.66L159.35 29.44C159.483 29.1333 159.617 28.78 159.75 28.38C159.897 27.9667 160.037 27.5533 160.17 27.14C160.303 26.7267 160.41 26.3533 160.49 26.02ZM151.97 32.8H164.27V34.12H151.97V32.8ZM156.55 30.48L158.05 30.78C157.703 31.54 157.323 32.3533 156.91 33.22C156.51 34.0733 156.11 34.9067 155.71 35.72C155.31 36.52 154.937 37.2267 154.59 37.84L153.27 37.4C153.603 36.8 153.963 36.1 154.35 35.3C154.75 34.5 155.143 33.68 155.53 32.84C155.917 31.9867 156.257 31.2 156.55 30.48ZM154.31 37.12L155.19 36.1C155.937 36.3267 156.717 36.5867 157.53 36.88C158.343 37.1733 159.143 37.4933 159.93 37.84C160.717 38.1867 161.45 38.54 162.13 38.9C162.823 39.26 163.41 39.62 163.89 39.98L162.95 41.12C162.483 40.7733 161.917 40.4133 161.25 40.04C160.583 39.6667 159.857 39.3067 159.07 38.96C158.297 38.6 157.497 38.26 156.67 37.94C155.857 37.62 155.07 37.3467 154.31 37.12ZM160.47 33.64L161.93 33.86C161.69 34.98 161.33 35.9533 160.85 36.78C160.37 37.5933 159.737 38.2867 158.95 38.86C158.177 39.42 157.223 39.88 156.09 40.24C154.957 40.6 153.617 40.88 152.07 41.08C152.017 40.88 151.93 40.66 151.81 40.42C151.69 40.18 151.577 39.9867 151.47 39.84C152.897 39.68 154.13 39.4533 155.17 39.16C156.223 38.8667 157.103 38.48 157.81 38C158.517 37.5067 159.083 36.9067 159.51 36.2C159.95 35.48 160.27 34.6267 160.47 33.64ZM145.71 33.34C146.523 33.14 147.503 32.8733 148.65 32.54C149.797 32.2067 150.963 31.8667 152.15 31.52L152.33 32.86C151.237 33.2067 150.143 33.5533 149.05 33.9C147.957 34.2333 146.963 34.5333 146.07 34.8L145.71 33.34ZM146.05 26.74H152.15V28.14H146.05V26.74ZM148.77 22.72H150.21V39.26C150.21 39.7 150.157 40.0333 150.05 40.26C149.957 40.5 149.777 40.68 149.51 40.8C149.257 40.92 148.917 41 148.49 41.04C148.063 41.08 147.523 41.0933 146.87 41.08C146.843 40.8933 146.783 40.66 146.69 40.38C146.61 40.1 146.517 39.8533 146.41 39.64C146.863 39.6533 147.277 39.66 147.65 39.66C148.023 39.66 148.277 39.66 148.41 39.66C148.543 39.66 148.637 39.6267 148.69 39.56C148.743 39.5067 148.77 39.4133 148.77 39.28V22.72ZM175.89 25.3H186.37V26.66H175.89V25.3ZM174.95 32.82H187.27V34.2H174.95V32.82ZM174.71 29.2H187.41V30.58H174.71V29.2ZM180.29 22.8H181.79V29.94H180.29V22.8ZM183.11 30.28H184.59V39.28C184.59 39.7333 184.53 40.0733 184.41 40.3C184.303 40.5267 184.09 40.7 183.77 40.82C183.45 40.94 183.03 41.0067 182.51 41.02C181.99 41.0467 181.337 41.06 180.55 41.06C180.523 40.86 180.457 40.62 180.35 40.34C180.257 40.0733 180.157 39.8333 180.05 39.62C180.463 39.6333 180.843 39.64 181.19 39.64C181.55 39.6533 181.863 39.6533 182.13 39.64C182.397 39.64 182.583 39.64 182.69 39.64C182.85 39.64 182.957 39.6133 183.01 39.56C183.077 39.5067 183.11 39.4133 183.11 39.28V30.28ZM176.47 35.42L177.71 34.78C178.03 35.1133 178.343 35.4867 178.65 35.9C178.957 36.3133 179.243 36.7267 179.51 37.14C179.777 37.54 179.983 37.9 180.13 38.22L178.85 38.98C178.717 38.6467 178.517 38.2733 178.25 37.86C177.997 37.4467 177.717 37.0267 177.41 36.6C177.103 36.1733 176.79 35.78 176.47 35.42ZM173.61 27.16L174.93 27.68C174.49 28.48 173.97 29.2733 173.37 30.06C172.783 30.8333 172.163 31.5667 171.51 32.26C170.857 32.94 170.203 33.5467 169.55 34.08C169.51 33.96 169.443 33.8067 169.35 33.62C169.257 33.4333 169.15 33.2467 169.03 33.06C168.923 32.8733 168.83 32.72 168.75 32.6C169.35 32.16 169.95 31.6467 170.55 31.06C171.163 30.4733 171.73 29.8533 172.25 29.2C172.783 28.5333 173.237 27.8533 173.61 27.16ZM173.27 22.74L174.67 23.3C174.283 23.8867 173.823 24.4733 173.29 25.06C172.757 25.6467 172.19 26.2 171.59 26.72C171.003 27.24 170.417 27.7 169.83 28.1C169.777 27.98 169.703 27.8467 169.61 27.7C169.517 27.54 169.417 27.3867 169.31 27.24C169.217 27.08 169.13 26.9533 169.05 26.86C169.57 26.5133 170.097 26.1133 170.63 25.66C171.177 25.1933 171.683 24.7133 172.15 24.22C172.617 23.7133 172.99 23.22 173.27 22.74ZM171.87 30.68L173.25 29.28L173.31 29.32V41.08H171.87V30.68ZM193.09 26.28H209.21V35.68H207.67V27.74H194.59V35.78H193.09V26.28ZM193.89 33.06H208.57V34.54H193.89V33.06ZM200.33 22.7H201.91V41.08H200.33V22.7ZM220.27 28.28H221.81V38.34C221.81 38.8067 221.89 39.1067 222.05 39.24C222.223 39.3733 222.583 39.44 223.13 39.44C223.263 39.44 223.497 39.44 223.83 39.44C224.163 39.44 224.53 39.44 224.93 39.44C225.33 39.44 225.703 39.44 226.05 39.44C226.397 39.44 226.657 39.44 226.83 39.44C227.23 39.44 227.53 39.3333 227.73 39.12C227.93 38.9067 228.07 38.5 228.15 37.9C228.243 37.2867 228.317 36.4067 228.37 35.26C228.557 35.3933 228.783 35.5267 229.05 35.66C229.33 35.7933 229.577 35.8867 229.79 35.94C229.71 37.1933 229.583 38.18 229.41 38.9C229.25 39.6067 228.977 40.1067 228.59 40.4C228.203 40.6933 227.643 40.84 226.91 40.84C226.817 40.84 226.637 40.84 226.37 40.84C226.103 40.84 225.797 40.84 225.45 40.84C225.117 40.84 224.777 40.84 224.43 40.84C224.083 40.84 223.783 40.84 223.53 40.84C223.277 40.84 223.103 40.84 223.01 40.84C222.303 40.84 221.75 40.7667 221.35 40.62C220.95 40.4733 220.67 40.2133 220.51 39.84C220.35 39.48 220.27 38.9733 220.27 38.32V28.28ZM220.43 23.94L221.37 22.78C222.17 23.06 223.003 23.3933 223.87 23.78C224.737 24.1667 225.55 24.5667 226.31 24.98C227.083 25.38 227.737 25.76 228.27 26.12L227.29 27.44C226.783 27.0533 226.143 26.6467 225.37 26.22C224.61 25.7933 223.797 25.38 222.93 24.98C222.077 24.5667 221.243 24.22 220.43 23.94ZM216.91 29.9L218.37 30.2C218.277 31.0933 218.13 32.02 217.93 32.98C217.743 33.94 217.497 34.8533 217.19 35.72C216.883 36.5867 216.49 37.34 216.01 37.98L214.65 37.18C215.103 36.58 215.477 35.88 215.77 35.08C216.077 34.28 216.323 33.4333 216.51 32.54C216.697 31.6467 216.83 30.7667 216.91 29.9ZM228.59 29.9L229.93 29.24C230.53 30 231.083 30.82 231.59 31.7C232.11 32.58 232.55 33.4533 232.91 34.32C233.283 35.1733 233.55 35.96 233.71 36.68L232.23 37.38C232.083 36.6733 231.83 35.8867 231.47 35.02C231.11 34.1533 230.677 33.2733 230.17 32.38C229.677 31.4867 229.15 30.66 228.59 29.9ZM247.17 28.62C246.77 28.62 246.417 28.4867 246.11 28.22C245.803 27.94 245.65 27.5733 245.65 27.12C245.65 26.6667 245.803 26.3067 246.11 26.04C246.417 25.76 246.77 25.62 247.17 25.62C247.57 25.62 247.923 25.76 248.23 26.04C248.537 26.3067 248.69 26.6667 248.69 27.12C248.69 27.5733 248.537 27.94 248.23 28.22C247.923 28.4867 247.57 28.62 247.17 28.62ZM247.17 38.42C246.77 38.42 246.417 38.2867 246.11 38.02C245.803 37.74 245.65 37.3733 245.65 36.92C245.65 36.4533 245.803 36.0867 246.11 35.82C246.417 35.54 246.77 35.4 247.17 35.4C247.57 35.4 247.923 35.54 248.23 35.82C248.537 36.0867 248.69 36.4533 248.69 36.92C248.69 37.3733 248.537 37.74 248.23 38.02C247.923 38.2867 247.57 38.42 247.17 38.42ZM261.49 24.6H278.97V26.02H261.49V24.6ZM269.35 22.72H270.89V41.1H269.35V22.72ZM268.87 34.16L270.13 34.72C269.663 35.3467 269.117 35.96 268.49 36.56C267.863 37.16 267.19 37.7267 266.47 38.26C265.763 38.78 265.03 39.2533 264.27 39.68C263.51 40.1067 262.763 40.4733 262.03 40.78C261.95 40.66 261.85 40.52 261.73 40.36C261.61 40.2 261.483 40.04 261.35 39.88C261.23 39.7333 261.11 39.6133 260.99 39.52C261.71 39.2667 262.443 38.9533 263.19 38.58C263.95 38.1933 264.683 37.7667 265.39 37.3C266.097 36.82 266.75 36.3133 267.35 35.78C267.95 35.2467 268.457 34.7067 268.87 34.16ZM271.39 34.18C271.83 34.74 272.35 35.2867 272.95 35.82C273.563 36.34 274.23 36.84 274.95 37.32C275.67 37.7867 276.41 38.2133 277.17 38.6C277.93 38.9733 278.677 39.28 279.41 39.52C279.303 39.6267 279.183 39.7533 279.05 39.9C278.917 40.06 278.79 40.22 278.67 40.38C278.55 40.54 278.443 40.6867 278.35 40.82C277.617 40.5267 276.863 40.16 276.09 39.72C275.33 39.2933 274.583 38.8133 273.85 38.28C273.13 37.7467 272.457 37.18 271.83 36.58C271.203 35.98 270.65 35.3667 270.17 34.74L271.39 34.18ZM264.69 31.92V33.86H275.81V31.92H264.69ZM264.69 28.9V30.8H275.81V28.9H264.69ZM263.23 27.7H277.35V35.06H263.23V27.7ZM292.31 23.12H293.87V38.58H292.31V23.12ZM285.27 27.48H286.79V40.86H285.27V27.48ZM299.61 27.46H301.13V40.78H299.61V27.46ZM286.03 37.7H300.27V39.24H286.03V37.7ZM314.83 27.34V29.66H319.41V27.34H314.83ZM313.41 26.26H320.91V30.74H313.41V26.26ZM312.49 33.2V36.16H315.17V33.2H312.49ZM311.23 32.08H316.47V37.24H311.23V32.08ZM319.13 33.2V36.16H321.91V33.2H319.13ZM317.83 32.08H323.25V37.24H317.83V32.08ZM308.03 23.56H324.75V24.9H309.49V41.1H308.03V23.56ZM309.01 38.76H325.27V40.14H309.01V38.76ZM337.963 24.6H355.443V26.02H337.963V24.6ZM345.823 22.72H347.363V41.1H345.823V22.72ZM345.343 34.16L346.603 34.72C346.136 35.3467 345.589 35.96 344.963 36.56C344.336 37.16 343.663 37.7267 342.943 38.26C342.236 38.78 341.503 39.2533 340.743 39.68C339.983 40.1067 339.236 40.4733 338.503 40.78C338.423 40.66 338.323 40.52 338.203 40.36C338.083 40.2 337.956 40.04 337.823 39.88C337.703 39.7333 337.583 39.6133 337.463 39.52C338.183 39.2667 338.916 38.9533 339.663 38.58C340.423 38.1933 341.156 37.7667 341.863 37.3C342.569 36.82 343.223 36.3133 343.823 35.78C344.423 35.2467 344.929 34.7067 345.343 34.16ZM347.863 34.18C348.303 34.74 348.823 35.2867 349.423 35.82C350.036 36.34 350.703 36.84 351.423 37.32C352.143 37.7867 352.883 38.2133 353.643 38.6C354.403 38.9733 355.149 39.28 355.883 39.52C355.776 39.6267 355.656 39.7533 355.523 39.9C355.389 40.06 355.263 40.22 355.143 40.38C355.023 40.54 354.916 40.6867 354.823 40.82C354.089 40.5267 353.336 40.16 352.563 39.72C351.803 39.2933 351.056 38.8133 350.323 38.28C349.603 37.7467 348.929 37.18 348.303 36.58C347.676 35.98 347.123 35.3667 346.643 34.74L347.863 34.18ZM341.163 31.92V33.86H352.283V31.92H341.163ZM341.163 28.9V30.8H352.283V28.9H341.163ZM339.703 27.7H353.823V35.06H339.703V27.7ZM367.423 26.08H377.823V27.66H367.423V26.08ZM366.263 38.08H378.703V39.64H366.263V38.08ZM363.363 28.14L364.843 26.66L364.863 26.68V41.06H363.363V28.14ZM365.543 22.74L367.003 23.2C366.549 24.36 366.016 25.5067 365.403 26.64C364.803 27.76 364.149 28.8133 363.443 29.8C362.749 30.7867 362.023 31.66 361.263 32.42C361.223 32.3 361.143 32.1467 361.023 31.96C360.916 31.76 360.796 31.5667 360.663 31.38C360.543 31.1933 360.436 31.04 360.343 30.92C361.036 30.2533 361.703 29.4867 362.343 28.62C362.983 27.74 363.576 26.8 364.123 25.8C364.669 24.8 365.143 23.78 365.543 22.74ZM388.843 25.22H395.623V26.52H388.843V25.22ZM396.523 23.88H401.563V25.22H396.523V23.88ZM396.343 29.24H401.843V30.6H396.343V29.24ZM388.443 29.2H395.983V30.54H388.443V29.2ZM391.503 22.7H392.923V29.98H391.503V22.7ZM388.563 33.42H395.843V34.74H388.563V33.42ZM391.483 30.96H392.923V38.3L391.483 38.58V30.96ZM388.003 38.26C388.709 38.18 389.516 38.0933 390.423 38C391.329 37.8933 392.289 37.78 393.303 37.66C394.316 37.5267 395.329 37.4 396.343 37.28L396.383 38.6C394.916 38.7867 393.456 38.9733 392.003 39.16C390.563 39.3467 389.289 39.5133 388.183 39.66L388.003 38.26ZM398.483 29.8H399.963V39.26C399.963 39.7 399.909 40.04 399.803 40.28C399.709 40.52 399.509 40.7 399.203 40.82C398.909 40.94 398.516 41.0133 398.023 41.04C397.529 41.08 396.923 41.1 396.203 41.1C396.176 40.8867 396.116 40.6333 396.023 40.34C395.943 40.06 395.849 39.8133 395.743 39.6C396.303 39.6133 396.796 39.62 397.223 39.62C397.663 39.6333 397.956 39.6333 398.103 39.62C398.263 39.6067 398.363 39.5733 398.403 39.52C398.456 39.4667 398.483 39.38 398.483 39.26V29.8ZM386.823 22.7L388.203 23.2C387.883 23.7467 387.496 24.3067 387.043 24.88C386.589 25.44 386.109 25.9733 385.603 26.48C385.109 26.9867 384.603 27.44 384.083 27.84C384.029 27.7467 383.949 27.6333 383.843 27.5C383.749 27.3533 383.649 27.2133 383.543 27.08C383.436 26.9333 383.343 26.8133 383.263 26.72C383.716 26.3733 384.169 25.98 384.623 25.54C385.089 25.0867 385.516 24.6133 385.903 24.12C386.289 23.6267 386.596 23.1533 386.823 22.7ZM385.643 30.68L386.843 29.46L387.023 29.52V41.12H385.643V30.68ZM387.423 26.72L388.763 27.18C388.376 28.0067 387.916 28.8267 387.383 29.64C386.849 30.44 386.283 31.1933 385.683 31.9C385.083 32.6067 384.476 33.2333 383.863 33.78C383.809 33.6733 383.729 33.54 383.623 33.38C383.516 33.2067 383.403 33.04 383.283 32.88C383.163 32.7067 383.056 32.5733 382.963 32.48C383.829 31.7733 384.663 30.9133 385.463 29.9C386.263 28.8867 386.916 27.8267 387.423 26.72ZM411.243 39.76C410.336 39.76 409.529 39.5933 408.823 39.26C408.116 38.9267 407.563 38.4667 407.163 37.88C406.763 37.2933 406.563 36.62 406.563 35.86C406.563 35.2067 406.689 34.62 406.943 34.1C407.209 33.5667 407.549 33.1133 407.963 32.74C408.376 32.3533 408.803 32.04 409.243 31.8V31.72C408.709 31.3467 408.243 30.8867 407.843 30.34C407.456 29.78 407.263 29.1133 407.263 28.34C407.263 27.5933 407.436 26.9467 407.783 26.4C408.143 25.84 408.623 25.4067 409.223 25.1C409.836 24.78 410.523 24.62 411.283 24.62C412.123 24.62 412.843 24.7867 413.443 25.12C414.043 25.4533 414.503 25.9067 414.823 26.48C415.143 27.0533 415.303 27.72 415.303 28.48C415.303 28.9867 415.196 29.4667 414.983 29.92C414.783 30.3733 414.536 30.78 414.243 31.14C413.949 31.4867 413.656 31.78 413.363 32.02V32.12C413.789 32.36 414.189 32.6533 414.563 33C414.936 33.3333 415.236 33.7467 415.463 34.24C415.703 34.72 415.823 35.3 415.823 35.98C415.823 36.6733 415.629 37.3133 415.243 37.9C414.869 38.4733 414.336 38.9267 413.643 39.26C412.963 39.5933 412.163 39.76 411.243 39.76ZM412.243 31.54C412.736 31.1 413.109 30.6333 413.363 30.14C413.616 29.6333 413.743 29.1133 413.743 28.58C413.743 28.0867 413.643 27.6467 413.443 27.26C413.256 26.8733 412.976 26.5667 412.603 26.34C412.229 26.1 411.783 25.98 411.263 25.98C410.583 25.98 410.023 26.1933 409.583 26.62C409.143 27.0467 408.923 27.62 408.923 28.34C408.923 28.9133 409.076 29.4 409.383 29.8C409.703 30.1867 410.116 30.52 410.623 30.8C411.129 31.0667 411.669 31.3133 412.243 31.54ZM411.263 38.4C411.836 38.4 412.329 38.2933 412.743 38.08C413.169 37.8667 413.496 37.5733 413.723 37.2C413.963 36.8267 414.083 36.4 414.083 35.92C414.083 35.4267 413.976 35.0067 413.763 34.66C413.549 34.3 413.263 33.9867 412.903 33.72C412.556 33.4533 412.149 33.2133 411.683 33C411.216 32.7867 410.723 32.58 410.203 32.38C409.616 32.7533 409.129 33.2267 408.743 33.8C408.369 34.36 408.183 34.9933 408.183 35.7C408.183 36.2067 408.316 36.6667 408.583 37.08C408.849 37.4933 409.216 37.82 409.683 38.06C410.163 38.2867 410.689 38.4 411.263 38.4ZM424.996 39.76C424.236 39.76 423.563 39.6667 422.976 39.48C422.403 39.2933 421.896 39.0467 421.456 38.74C421.016 38.4333 420.636 38.1 420.316 37.74L421.256 36.56C421.683 37 422.183 37.3933 422.756 37.74C423.343 38.0733 424.05 38.24 424.876 38.24C425.463 38.24 425.976 38.1333 426.416 37.92C426.87 37.6933 427.223 37.38 427.476 36.98C427.73 36.5667 427.856 36.08 427.856 35.52C427.856 34.9333 427.71 34.42 427.416 33.98C427.136 33.54 426.663 33.2 425.996 32.96C425.33 32.7067 424.43 32.58 423.296 32.58V31.18C424.31 31.18 425.11 31.06 425.696 30.82C426.283 30.5667 426.703 30.2267 426.956 29.8C427.223 29.3733 427.356 28.9 427.356 28.38C427.356 27.6733 427.136 27.1133 426.696 26.7C426.256 26.2733 425.65 26.06 424.876 26.06C424.29 26.06 423.736 26.1933 423.216 26.46C422.71 26.7267 422.25 27.0667 421.836 27.48L420.856 26.32C421.416 25.8133 422.023 25.4 422.676 25.08C423.343 24.7467 424.096 24.58 424.936 24.58C425.763 24.58 426.496 24.7267 427.136 25.02C427.79 25.3 428.296 25.7133 428.656 26.26C429.03 26.8067 429.216 27.4667 429.216 28.24C429.216 29.1333 428.976 29.8733 428.496 30.46C428.016 31.0467 427.39 31.48 426.616 31.76V31.86C427.19 31.9933 427.71 32.2267 428.176 32.56C428.643 32.8933 429.016 33.3133 429.296 33.82C429.576 34.3267 429.716 34.9133 429.716 35.58C429.716 36.4467 429.503 37.1933 429.076 37.82C428.65 38.4467 428.083 38.9267 427.376 39.26C426.67 39.5933 425.876 39.76 424.996 39.76ZM436.91 24.7V27.76H439.91V24.7H436.91ZM435.57 23.46H441.31V29.02H435.57V23.46ZM434.63 30.44H442.17V31.76H434.63V30.44ZM436.51 31.04H437.89C437.783 31.5867 437.657 32.1667 437.51 32.78C437.377 33.3933 437.237 33.9867 437.09 34.56C436.957 35.1333 436.83 35.64 436.71 36.08L435.35 35.82C435.483 35.3933 435.623 34.9067 435.77 34.36C435.917 33.8 436.05 33.2333 436.17 32.66C436.303 32.0867 436.417 31.5467 436.51 31.04ZM436.67 33.54H440.39V34.82H436.33L436.67 33.54ZM439.85 33.54H441.23C441.23 33.54 441.223 33.62 441.21 33.78C441.21 33.9267 441.203 34.0533 441.19 34.16C441.097 35.5467 440.99 36.68 440.87 37.56C440.763 38.4267 440.643 39.0933 440.51 39.56C440.377 40.0267 440.217 40.3667 440.03 40.58C439.857 40.7533 439.677 40.8733 439.49 40.94C439.303 41.02 439.07 41.0733 438.79 41.1C438.577 41.1267 438.277 41.1333 437.89 41.12C437.517 41.12 437.123 41.1067 436.71 41.08C436.697 40.8933 436.65 40.6733 436.57 40.42C436.503 40.1667 436.41 39.9533 436.29 39.78C436.717 39.82 437.11 39.84 437.47 39.84C437.83 39.8533 438.083 39.86 438.23 39.86C438.377 39.86 438.503 39.8467 438.61 39.82C438.73 39.7933 438.823 39.74 438.89 39.66C439.037 39.5267 439.163 39.2467 439.27 38.82C439.377 38.3933 439.477 37.7733 439.57 36.96C439.677 36.1467 439.77 35.08 439.85 33.76V33.54ZM447.37 24.08H452.17V25.32H447.37V24.08ZM443.35 26.66H452.19V27.9H443.35V26.66ZM446.67 22.7H448.11V27.3H446.67V22.7ZM442.73 26.66H444.09V31.78C444.09 32.4867 444.063 33.2467 444.01 34.06C443.957 34.8733 443.857 35.7067 443.71 36.56C443.563 37.4 443.35 38.22 443.07 39.02C442.79 39.8067 442.417 40.5333 441.95 41.2C441.87 41.1067 441.757 41.0067 441.61 40.9C441.477 40.7933 441.337 40.6867 441.19 40.58C441.043 40.4867 440.917 40.42 440.81 40.38C441.397 39.54 441.823 38.62 442.09 37.62C442.357 36.62 442.53 35.6133 442.61 34.6C442.69 33.5867 442.73 32.6467 442.73 31.78V26.66ZM444.55 29.98L450.49 29.38L450.63 30.44L444.69 31.06L444.55 29.98ZM446.73 28.04H448.07V31.62C448.07 31.82 448.103 31.9533 448.17 32.02C448.25 32.0733 448.43 32.1 448.71 32.1C448.777 32.1 448.89 32.1 449.05 32.1C449.223 32.1 449.41 32.1 449.61 32.1C449.823 32.1 450.017 32.1 450.19 32.1C450.363 32.1 450.49 32.1 450.57 32.1C450.717 32.1 450.83 32.0733 450.91 32.02C450.99 31.9533 451.043 31.8333 451.07 31.66C451.11 31.4733 451.137 31.1933 451.15 30.82C451.297 30.9133 451.483 31 451.71 31.08C451.937 31.16 452.143 31.2267 452.33 31.28C452.263 32.0533 452.117 32.5733 451.89 32.84C451.677 33.0933 451.297 33.22 450.75 33.22C450.67 33.22 450.523 33.22 450.31 33.22C450.11 33.22 449.883 33.22 449.63 33.22C449.39 33.22 449.163 33.22 448.95 33.22C448.75 33.22 448.617 33.22 448.55 33.22C448.07 33.22 447.697 33.18 447.43 33.1C447.163 33.0067 446.977 32.8467 446.87 32.62C446.777 32.38 446.73 32.0467 446.73 31.62V28.04ZM451.77 26.66H451.97L452.21 26.6L453.15 26.84C453.03 27.4533 452.897 28.0867 452.75 28.74C452.617 29.3933 452.49 29.9467 452.37 30.4L451.19 30.12C451.297 29.7067 451.403 29.1933 451.51 28.58C451.617 27.9667 451.703 27.3933 451.77 26.86V26.66ZM445.71 34.1H447.01C446.97 35.2333 446.857 36.2467 446.67 37.14C446.483 38.0333 446.163 38.82 445.71 39.5C445.27 40.1667 444.643 40.72 443.83 41.16C443.75 41 443.623 40.8067 443.45 40.58C443.277 40.3667 443.11 40.2067 442.95 40.1C443.683 39.7133 444.237 39.24 444.61 38.68C444.997 38.12 445.263 37.46 445.41 36.7C445.557 35.94 445.657 35.0733 445.71 34.1ZM448.63 34.08H449.95V39C449.95 39.08 449.957 39.1467 449.97 39.2C449.997 39.2533 450.037 39.2933 450.09 39.32C450.197 39.3867 450.35 39.42 450.55 39.42C450.643 39.42 450.757 39.42 450.89 39.42C451.023 39.42 451.15 39.42 451.27 39.42C451.377 39.42 451.483 39.4133 451.59 39.4C451.697 39.3867 451.77 39.3667 451.81 39.34C451.877 39.3133 451.93 39.2667 451.97 39.2C452.023 39.12 452.063 39.02 452.09 38.9C452.117 38.74 452.137 38.48 452.15 38.12C452.163 37.76 452.163 37.3533 452.15 36.9C452.297 37.02 452.477 37.14 452.69 37.26C452.903 37.38 453.103 37.4667 453.29 37.52C453.277 38 453.25 38.46 453.21 38.9C453.17 39.34 453.13 39.6467 453.09 39.82C453.023 40.0067 452.937 40.16 452.83 40.28C452.737 40.4 452.61 40.5067 452.45 40.6C452.33 40.6533 452.17 40.6933 451.97 40.72C451.77 40.76 451.57 40.78 451.37 40.78C451.29 40.78 451.17 40.78 451.01 40.78C450.863 40.78 450.717 40.78 450.57 40.78C450.423 40.78 450.317 40.78 450.25 40.78C450.037 40.78 449.817 40.76 449.59 40.72C449.377 40.68 449.197 40.5933 449.05 40.46C448.89 40.3267 448.777 40.16 448.71 39.96C448.657 39.76 448.63 39.4333 448.63 38.98V34.08Z" fill="black"/>
<rect x="628" y="0.5" width="292" height="60" rx="10" fill="#FFE3BB"/>
<path d="M713.01 16.5C713.41 16.5 713.82 16.5 714.35 16.63C714.89 16.76 715.42 16.9 715.69 17.03C716.36 17.3 717.03 18.1 717.84 19.45C718.51 20.66 718.78 21.87 718.78 23.08C718.78 23.48 718.78 23.75 718.65 24.15C718.65 24.55 718.52 24.82 718.38 25.22C718.25 25.62 718.11 25.89 718.11 26.16C717.98 26.43 717.84 26.7 717.71 27.23C717.58 27.77 717.44 28.04 717.31 28.17C716.91 29.51 716.37 30.59 715.7 31.66C714.63 33.27 713.28 35.02 711.4 36.9C709.52 38.78 707.91 40.12 706.16 41.2C705.09 41.87 704.01 42.4101 702.67 42.8101C702.54 42.8101 702.27 42.94 701.73 43.21C701.19 43.34 700.79 43.48 700.66 43.61C700.39 43.74 700.12 43.74 699.72 43.88C699.32 44.01 698.91 44.01 698.65 44.15C698.25 44.15 697.98 44.28 697.58 44.28C696.37 44.28 695.16 44.01 693.95 43.34C692.61 42.67 691.8 41.86 691.53 41.19C691.4 40.92 691.26 40.38 691.13 39.85C691 39.31 691 38.78 691 38.51V38.11C691.13 37.84 691.54 37.57 692.48 37.04C692.75 36.91 693.15 36.64 693.55 36.5C693.95 36.23 694.49 35.96 694.76 35.83C695.03 35.7 695.43 35.43 695.83 35.16C695.83 35.16 696.1 35.03 696.37 34.76C696.64 34.63 696.91 34.49 697.04 34.36C697.17 34.23 697.44 34.23 697.58 34.23C697.85 34.23 698.12 34.36 698.52 34.77C698.92 35.17 699.33 35.58 699.59 35.98C699.86 36.38 700.26 36.79 700.66 37.19C701.06 37.59 701.33 37.73 701.6 37.73C701.73 37.73 701.87 37.73 702 37.6C702.13 37.6 702.27 37.47 702.4 37.47C702.53 37.47 702.67 37.34 702.94 37.2C703.21 37.07 703.34 36.9301 703.34 36.9301C705.09 35.9901 706.7 34.78 707.91 33.44C709.25 32.1 710.33 30.6201 711.4 28.8701C711.4 28.8701 711.53 28.74 711.67 28.47C711.8 28.2 711.94 28.0701 711.94 27.9301C711.94 27.7901 712.07 27.66 712.07 27.53C712.07 27.4 712.2 27.26 712.2 27.13C712.2 26.86 712.07 26.59 711.66 26.19C711.26 25.79 710.85 25.5201 710.45 25.1201C710.05 24.8501 709.64 24.45 709.24 24.05C708.84 23.65 708.7 23.38 708.7 23.11C708.7 22.98 708.7 22.71 708.83 22.57C708.96 22.44 709.1 22.17 709.23 21.9C709.36 21.63 709.5 21.5 709.63 21.36C709.76 21.09 710.03 20.69 710.3 20.29C710.57 19.89 710.7 19.48 710.97 19.08C711.24 18.68 711.37 18.27 711.51 18.01C711.91 17.07 712.32 16.53 712.58 16.53H712.98L713.01 16.5Z" fill="#666666"/>
<path d="M729.099 33.572H743.643V34.532H729.099V33.572ZM733.115 24.516H743.547V25.396H733.115V24.516ZM738.971 32.468H740.123V36.5C740.123 36.8093 740.08 37.0493 739.995 37.22C739.909 37.3907 739.739 37.5187 739.483 37.604C739.227 37.6893 738.885 37.7373 738.459 37.748C738.043 37.7693 737.504 37.78 736.843 37.78C736.821 37.62 736.768 37.444 736.683 37.252C736.608 37.0707 736.528 36.9 736.443 36.74C736.784 36.7507 737.104 36.756 737.403 36.756C737.701 36.7667 737.957 36.7667 738.171 36.756C738.395 36.756 738.549 36.756 738.635 36.756C738.773 36.7453 738.864 36.7187 738.907 36.676C738.949 36.644 738.971 36.58 738.971 36.484V32.468ZM731.851 35.236L732.667 34.532C732.955 34.7027 733.248 34.8947 733.547 35.108C733.856 35.3213 734.144 35.54 734.411 35.764C734.688 35.988 734.907 36.196 735.067 36.388L734.187 37.156C734.037 36.9533 733.829 36.7347 733.563 36.5C733.307 36.276 733.029 36.052 732.731 35.828C732.432 35.604 732.139 35.4067 731.851 35.236ZM729.643 24.036L730.459 23.38C730.725 23.5613 730.997 23.7693 731.275 24.004C731.563 24.228 731.829 24.4627 732.075 24.708C732.32 24.9427 732.512 25.1613 732.651 25.364L731.803 26.116C731.664 25.9027 731.477 25.6733 731.243 25.428C731.008 25.1827 730.752 24.9373 730.475 24.692C730.197 24.4467 729.92 24.228 729.643 24.036ZM735.083 23.3L736.059 23.06C736.251 23.284 736.437 23.54 736.619 23.828C736.8 24.116 736.928 24.372 737.003 24.596L735.963 24.884C735.888 24.6707 735.765 24.4147 735.595 24.116C735.435 23.8173 735.264 23.5453 735.083 23.3ZM735.515 28.196V28.9H741.051V28.196H735.515ZM735.515 29.556V30.276H741.051V29.556H735.515ZM735.515 26.852V27.556H741.051V26.852H735.515ZM734.395 26.196H742.219V30.932H734.395V26.196ZM732.395 27.236V30.676H731.291V28.196H729.179V27.236H732.395ZM737.627 24.836L738.827 24.948C738.72 25.2467 738.613 25.54 738.507 25.828C738.411 26.1053 738.32 26.3453 738.235 26.548L737.275 26.404C737.349 26.1693 737.419 25.9027 737.483 25.604C737.547 25.3053 737.595 25.0493 737.627 24.836ZM740.571 23.028L741.707 23.284C741.515 23.572 741.317 23.8493 741.115 24.116C740.923 24.3827 740.736 24.6173 740.555 24.82L739.611 24.58C739.771 24.356 739.941 24.1 740.123 23.812C740.315 23.5133 740.464 23.252 740.571 23.028ZM732.395 30.276C732.715 30.7347 733.157 31.076 733.723 31.3C734.299 31.524 734.955 31.6467 735.691 31.668C736.064 31.6787 736.512 31.6893 737.035 31.7C737.557 31.7 738.123 31.7 738.731 31.7C739.339 31.6893 739.947 31.6787 740.555 31.668C741.173 31.6573 741.755 31.6413 742.299 31.62C742.853 31.5987 743.339 31.5773 743.755 31.556C743.701 31.6733 743.637 31.828 743.563 32.02C743.499 32.212 743.456 32.3827 743.435 32.532C742.944 32.5533 742.357 32.5693 741.675 32.58C740.992 32.5907 740.277 32.6013 739.531 32.612C738.795 32.612 738.091 32.612 737.419 32.612C736.747 32.6013 736.176 32.5907 735.707 32.58C734.864 32.548 734.139 32.42 733.531 32.196C732.923 31.972 732.405 31.6147 731.979 31.124C731.595 31.3907 731.2 31.6573 730.795 31.924C730.389 32.1907 729.973 32.4627 729.547 32.74L729.083 31.732C729.456 31.54 729.861 31.316 730.299 31.06C730.736 30.804 731.163 30.5427 731.579 30.276H732.395ZM756.459 23.092H757.627V26.148H756.459V23.092ZM752.987 25.604H761.291V26.692H752.987V25.604ZM754.987 28.436H758.827V29.492H754.987V28.436ZM754.379 28.436H755.515V32.004C755.515 32.612 755.467 33.2627 755.371 33.956C755.285 34.6493 755.115 35.3267 754.859 35.988C754.603 36.6493 754.208 37.2413 753.675 37.764C753.611 37.6893 753.52 37.6093 753.403 37.524C753.296 37.4387 753.184 37.3533 753.067 37.268C752.949 37.1827 752.843 37.124 752.747 37.092C753.237 36.6013 753.595 36.0627 753.819 35.476C754.053 34.8893 754.203 34.2973 754.267 33.7C754.341 33.092 754.379 32.5213 754.379 31.988V28.436ZM749.579 31.492H750.379V35.316H749.579V31.492ZM748.187 25.236H751.787V26.212H748.187V25.236ZM751.467 25.236H752.475V36.516C752.475 36.7933 752.437 37.012 752.363 37.172C752.288 37.3427 752.16 37.4707 751.979 37.556C751.797 37.6413 751.552 37.6947 751.243 37.716C750.933 37.7373 750.539 37.748 750.059 37.748C750.037 37.6093 749.989 37.444 749.915 37.252C749.851 37.06 749.787 36.9 749.723 36.772C750.064 36.7827 750.373 36.788 750.651 36.788C750.928 36.788 751.109 36.7827 751.195 36.772C751.376 36.772 751.467 36.6813 751.467 36.5V25.236ZM747.723 25.236H748.699V31.06C748.699 31.572 748.683 32.1267 748.651 32.724C748.619 33.3213 748.56 33.924 748.475 34.532C748.389 35.1293 748.256 35.7053 748.075 36.26C747.904 36.8147 747.675 37.3213 747.387 37.78C747.323 37.716 747.237 37.6467 747.131 37.572C747.035 37.508 746.928 37.444 746.811 37.38C746.704 37.316 746.608 37.268 746.523 37.236C746.896 36.6493 747.163 36.004 747.323 35.3C747.493 34.5853 747.6 33.86 747.643 33.124C747.696 32.388 747.723 31.7 747.723 31.06V25.236ZM746.571 30.292C747.136 30.2493 747.787 30.2067 748.523 30.164C749.259 30.1213 750.043 30.0733 750.875 30.02C751.717 29.956 752.56 29.892 753.403 29.828L753.419 30.804C752.608 30.868 751.797 30.932 750.987 30.996C750.176 31.0493 749.403 31.1027 748.667 31.156C747.941 31.2093 747.285 31.2627 746.699 31.316L746.571 30.292ZM749.195 27.204L749.963 26.9C750.176 27.2307 750.373 27.5987 750.555 28.004C750.736 28.4093 750.859 28.7667 750.923 29.076L750.107 29.428C750.043 29.1187 749.925 28.756 749.755 28.34C749.584 27.924 749.397 27.5453 749.195 27.204ZM749.659 23.044L750.939 23.3C750.789 23.7267 750.635 24.1587 750.475 24.596C750.315 25.0333 750.171 25.4067 750.043 25.716L748.987 25.492C749.115 25.1507 749.243 24.7453 749.371 24.276C749.499 23.8067 749.595 23.396 749.659 23.044ZM758.187 28.436H759.339V35.716C759.339 36.132 759.365 36.3613 759.419 36.404C759.461 36.4573 759.547 36.484 759.675 36.484C759.717 36.484 759.781 36.484 759.867 36.484C759.952 36.484 760.021 36.484 760.075 36.484C760.139 36.484 760.203 36.4787 760.267 36.468C760.331 36.4573 760.379 36.436 760.411 36.404C760.475 36.3507 760.523 36.2013 760.555 35.956C760.565 35.8067 760.576 35.5827 760.587 35.284C760.597 34.9853 760.608 34.6387 760.619 34.244C760.725 34.3293 760.853 34.4147 761.003 34.5C761.163 34.5853 761.317 34.6493 761.467 34.692C761.467 35.0547 761.451 35.4333 761.419 35.828C761.397 36.212 761.365 36.484 761.323 36.644C761.248 36.9533 761.109 37.1773 760.907 37.316C760.811 37.38 760.693 37.428 760.555 37.46C760.416 37.492 760.277 37.508 760.139 37.508C760.032 37.508 759.899 37.508 759.739 37.508C759.589 37.508 759.472 37.508 759.387 37.508C759.227 37.508 759.067 37.4867 758.907 37.444C758.757 37.4013 758.624 37.3267 758.507 37.22C758.389 37.1133 758.304 36.9587 758.251 36.756C758.208 36.5533 758.187 36.18 758.187 35.636V28.436ZM769.787 36.708C768.752 36.708 767.835 36.468 767.035 35.988C766.245 35.508 765.621 34.8147 765.163 33.908C764.715 33.0013 764.491 31.9133 764.491 30.644C764.491 29.6947 764.624 28.8467 764.891 28.1C765.157 27.3427 765.531 26.7027 766.011 26.18C766.501 25.6573 767.072 25.2573 767.723 24.98C768.373 24.7027 769.088 24.564 769.867 24.564C770.688 24.564 771.371 24.7187 771.915 25.028C772.459 25.3267 772.901 25.652 773.243 26.004L772.443 26.964C772.144 26.6547 771.792 26.3933 771.387 26.18C770.992 25.9667 770.501 25.86 769.915 25.86C769.125 25.86 768.437 26.052 767.851 26.436C767.264 26.82 766.811 27.3693 766.491 28.084C766.171 28.788 766.011 29.6253 766.011 30.596C766.011 31.588 766.16 32.4467 766.459 33.172C766.768 33.8867 767.216 34.4413 767.803 34.836C768.389 35.22 769.099 35.412 769.931 35.412C770.347 35.412 770.741 35.3533 771.115 35.236C771.499 35.108 771.808 34.9373 772.043 34.724V31.652H769.547V30.42H773.403V35.348C773.019 35.7427 772.512 36.068 771.883 36.324C771.264 36.58 770.565 36.708 769.787 36.708ZM781.042 36.708C780.338 36.708 779.676 36.532 779.058 36.18C778.439 35.8173 777.943 35.3 777.57 34.628C777.207 33.9453 777.026 33.124 777.026 32.164C777.026 31.1933 777.207 30.372 777.57 29.7C777.943 29.0173 778.439 28.4947 779.058 28.132C779.676 27.7693 780.338 27.588 781.042 27.588C781.575 27.588 782.082 27.6893 782.562 27.892C783.052 28.0947 783.484 28.3933 783.858 28.788C784.231 29.1827 784.524 29.6627 784.738 30.228C784.951 30.7933 785.058 31.4387 785.058 32.164C785.058 33.124 784.871 33.9453 784.498 34.628C784.124 35.3 783.634 35.8173 783.026 36.18C782.418 36.532 781.756 36.708 781.042 36.708ZM781.042 35.492C781.543 35.492 781.98 35.3533 782.354 35.076C782.738 34.7987 783.036 34.4093 783.25 33.908C783.463 33.4067 783.57 32.8253 783.57 32.164C783.57 31.492 783.463 30.9053 783.25 30.404C783.036 29.9027 782.738 29.5133 782.354 29.236C781.98 28.9587 781.543 28.82 781.042 28.82C780.54 28.82 780.098 28.9587 779.714 29.236C779.34 29.5133 779.047 29.9027 778.834 30.404C778.631 30.9053 778.53 31.492 778.53 32.164C778.53 32.8253 778.631 33.4067 778.834 33.908C779.047 34.4093 779.34 34.7987 779.714 35.076C780.098 35.3533 780.54 35.492 781.042 35.492ZM792.345 36.708C791.641 36.708 790.98 36.532 790.361 36.18C789.742 35.8173 789.246 35.3 788.873 34.628C788.51 33.9453 788.329 33.124 788.329 32.164C788.329 31.1933 788.51 30.372 788.873 29.7C789.246 29.0173 789.742 28.4947 790.361 28.132C790.98 27.7693 791.641 27.588 792.345 27.588C792.878 27.588 793.385 27.6893 793.865 27.892C794.356 28.0947 794.788 28.3933 795.161 28.788C795.534 29.1827 795.828 29.6627 796.041 30.228C796.254 30.7933 796.361 31.4387 796.361 32.164C796.361 33.124 796.174 33.9453 795.801 34.628C795.428 35.3 794.937 35.8173 794.329 36.18C793.721 36.532 793.06 36.708 792.345 36.708ZM792.345 35.492C792.846 35.492 793.284 35.3533 793.657 35.076C794.041 34.7987 794.34 34.4093 794.553 33.908C794.766 33.4067 794.873 32.8253 794.873 32.164C794.873 31.492 794.766 30.9053 794.553 30.404C794.34 29.9027 794.041 29.5133 793.657 29.236C793.284 28.9587 792.846 28.82 792.345 28.82C791.844 28.82 791.401 28.9587 791.017 29.236C790.644 29.5133 790.35 29.9027 790.137 30.404C789.934 30.9053 789.833 31.492 789.833 32.164C789.833 32.8253 789.934 33.4067 790.137 33.908C790.35 34.4093 790.644 34.7987 791.017 35.076C791.401 35.3533 791.844 35.492 792.345 35.492ZM803.2 40.5C802.496 40.5 801.872 40.4093 801.328 40.228C800.784 40.0467 800.363 39.78 800.064 39.428C799.765 39.0867 799.616 38.6707 799.616 38.18C799.616 37.8067 799.728 37.444 799.952 37.092C800.176 36.7507 800.491 36.4573 800.896 36.212V36.132C800.672 35.9933 800.485 35.8067 800.336 35.572C800.187 35.3373 800.112 35.0493 800.112 34.708C800.112 34.3453 800.213 34.0253 800.416 33.748C800.629 33.4707 800.848 33.252 801.072 33.092V33.028C800.784 32.804 800.523 32.4893 800.288 32.084C800.053 31.6787 799.936 31.2147 799.936 30.692C799.936 30.052 800.085 29.5027 800.384 29.044C800.683 28.5747 801.077 28.2173 801.568 27.972C802.069 27.716 802.608 27.588 803.184 27.588C803.44 27.588 803.669 27.6093 803.872 27.652C804.085 27.6947 804.267 27.748 804.416 27.812H807.44V28.932H805.664C805.877 29.1347 806.048 29.3907 806.176 29.7C806.304 30.0093 806.368 30.3507 806.368 30.724C806.368 31.3427 806.224 31.8813 805.936 32.34C805.659 32.788 805.28 33.1347 804.8 33.38C804.32 33.6253 803.781 33.748 803.184 33.748C802.981 33.748 802.763 33.7213 802.528 33.668C802.304 33.6147 802.096 33.54 801.904 33.444C801.744 33.572 801.611 33.716 801.504 33.876C801.397 34.036 801.344 34.2387 801.344 34.484C801.344 34.7507 801.451 34.9747 801.664 35.156C801.877 35.3373 802.277 35.428 802.864 35.428H804.576C805.579 35.428 806.331 35.5933 806.832 35.924C807.344 36.2547 807.6 36.7773 807.6 37.492C807.6 38.0253 807.419 38.5213 807.056 38.98C806.693 39.4387 806.181 39.8067 805.52 40.084C804.869 40.3613 804.096 40.5 803.2 40.5ZM803.184 32.756C803.525 32.756 803.835 32.6707 804.112 32.5C804.4 32.3293 804.624 32.0893 804.784 31.78C804.955 31.4707 805.04 31.108 805.04 30.692C805.04 30.2653 804.955 29.9027 804.784 29.604C804.624 29.2947 804.405 29.06 804.128 28.9C803.851 28.74 803.536 28.66 803.184 28.66C802.853 28.66 802.544 28.74 802.256 28.9C801.979 29.06 801.755 29.2893 801.584 29.588C801.424 29.8867 801.344 30.2547 801.344 30.692C801.344 31.108 801.429 31.4707 801.6 31.78C801.771 32.0893 801.995 32.3293 802.272 32.5C802.549 32.6707 802.853 32.756 803.184 32.756ZM803.408 39.492C803.963 39.492 804.443 39.4067 804.848 39.236C805.264 39.0653 805.584 38.8413 805.808 38.564C806.043 38.2973 806.16 38.02 806.16 37.732C806.16 37.316 806.011 37.028 805.712 36.868C805.413 36.708 804.976 36.628 804.4 36.628H802.896C802.736 36.628 802.555 36.6173 802.352 36.596C802.16 36.5853 801.968 36.5533 801.776 36.5C801.467 36.7133 801.243 36.948 801.104 37.204C800.965 37.4707 800.896 37.7267 800.896 37.972C800.896 38.4307 801.115 38.7987 801.552 39.076C802 39.3533 802.619 39.492 803.408 39.492ZM812.439 36.708C812.077 36.708 811.783 36.6333 811.559 36.484C811.335 36.3347 811.17 36.116 811.063 35.828C810.957 35.5293 810.903 35.1773 810.903 34.772V23.764H812.375V34.868C812.375 35.092 812.413 35.252 812.487 35.348C812.573 35.444 812.669 35.492 812.775 35.492C812.818 35.492 812.861 35.492 812.903 35.492C812.946 35.4813 813.005 35.4707 813.079 35.46L813.287 36.58C813.181 36.612 813.063 36.6387 812.935 36.66C812.807 36.692 812.642 36.708 812.439 36.708ZM820.57 36.708C819.791 36.708 819.087 36.5267 818.458 36.164C817.829 35.8013 817.327 35.284 816.954 34.612C816.591 33.9293 816.41 33.1133 816.41 32.164C816.41 31.4493 816.517 30.8147 816.73 30.26C816.943 29.6947 817.231 29.2147 817.594 28.82C817.967 28.4147 818.389 28.1107 818.858 27.908C819.327 27.6947 819.807 27.588 820.298 27.588C821.045 27.588 821.674 27.7533 822.186 28.084C822.698 28.4147 823.087 28.8893 823.354 29.508C823.631 30.116 823.77 30.836 823.77 31.668C823.77 31.828 823.765 31.9773 823.754 32.116C823.743 32.2547 823.727 32.3827 823.706 32.5H817.85C817.882 33.1187 818.021 33.6573 818.266 34.116C818.522 34.564 818.858 34.916 819.274 35.172C819.69 35.4173 820.175 35.54 820.73 35.54C821.157 35.54 821.541 35.4813 821.882 35.364C822.234 35.236 822.575 35.0653 822.906 34.852L823.418 35.828C823.045 36.0733 822.623 36.2813 822.154 36.452C821.685 36.6227 821.157 36.708 820.57 36.708ZM817.834 31.46H822.49C822.49 30.5853 822.298 29.9187 821.914 29.46C821.541 28.9907 821.013 28.756 820.33 28.756C819.925 28.756 819.541 28.8627 819.178 29.076C818.826 29.2893 818.527 29.5933 818.282 29.988C818.047 30.3827 817.898 30.8733 817.834 31.46ZM836.198 23.06H837.334V34.212H836.198V23.06ZM831.174 29.652L839.782 26.02L840.246 27.044L831.622 30.724L831.174 29.652ZM832.902 24.548H834.054V35.268C834.054 35.556 834.086 35.78 834.15 35.94C834.214 36.0893 834.331 36.1907 834.502 36.244C834.683 36.2973 834.955 36.324 835.318 36.324C835.424 36.324 835.6 36.324 835.846 36.324C836.091 36.324 836.374 36.324 836.694 36.324C837.024 36.324 837.355 36.324 837.686 36.324C838.016 36.324 838.315 36.324 838.582 36.324C838.848 36.324 839.046 36.324 839.174 36.324C839.494 36.324 839.728 36.2653 839.878 36.148C840.038 36.02 840.15 35.7907 840.214 35.46C840.288 35.1293 840.347 34.66 840.39 34.052C840.528 34.1587 840.699 34.2547 840.902 34.34C841.115 34.4253 841.302 34.4787 841.462 34.5C841.408 35.236 841.312 35.8173 841.174 36.244C841.035 36.6707 840.811 36.9693 840.502 37.14C840.203 37.3213 839.776 37.412 839.222 37.412C839.126 37.412 838.944 37.412 838.678 37.412C838.422 37.412 838.118 37.412 837.766 37.412C837.414 37.412 837.062 37.412 836.71 37.412C836.358 37.412 836.048 37.412 835.782 37.412C835.526 37.412 835.355 37.412 835.27 37.412C834.662 37.412 834.182 37.348 833.83 37.22C833.488 37.1027 833.248 36.884 833.11 36.564C832.971 36.2547 832.902 35.812 832.902 35.236V24.548ZM839.574 26.18H839.446L839.718 25.94L839.942 25.764L840.79 26.084L840.726 26.308C840.726 27.0653 840.72 27.7747 840.71 28.436C840.71 29.0973 840.704 29.6947 840.694 30.228C840.683 30.7613 840.667 31.2093 840.646 31.572C840.624 31.924 840.603 32.18 840.582 32.34C840.539 32.66 840.443 32.9053 840.294 33.076C840.144 33.236 839.947 33.3427 839.702 33.396C839.488 33.46 839.238 33.4973 838.95 33.508C838.672 33.5187 838.422 33.524 838.198 33.524C838.176 33.364 838.139 33.1827 838.086 32.98C838.043 32.7773 837.984 32.6067 837.91 32.468C838.102 32.4787 838.304 32.4893 838.518 32.5C838.742 32.5 838.896 32.5 838.982 32.5C839.11 32.5 839.211 32.4733 839.286 32.42C839.371 32.3667 839.43 32.2493 839.462 32.068C839.494 31.9613 839.515 31.748 839.526 31.428C839.547 31.0973 839.558 30.676 839.558 30.164C839.568 29.652 839.574 29.06 839.574 28.388C839.574 27.716 839.574 26.98 839.574 26.18ZM826.71 26.916H831.782V28.052H826.71V26.916ZM828.758 23.252H829.894V33.636H828.758V23.252ZM826.566 34.036C826.992 33.876 827.483 33.684 828.038 33.46C828.603 33.2253 829.2 32.98 829.83 32.724C830.459 32.4573 831.088 32.1907 831.718 31.924L831.99 32.996C831.136 33.3907 830.272 33.7853 829.398 34.18C828.534 34.5747 827.75 34.9267 827.046 35.236L826.566 34.036ZM849.43 26.196V27.252H853.782V26.196H849.43ZM848.438 25.492H854.822V27.972H848.438V25.492ZM848.886 30.916V34.484H854.326V30.916H848.886ZM847.926 30.164H855.334V35.236H847.926V30.164ZM850.662 32.228V33.172H852.518V32.228H850.662ZM849.91 31.588H853.318V33.796H849.91V31.588ZM846.838 28.708H856.47V29.46H846.838V28.708ZM851.062 27.492H852.102V29.06H851.062V27.492ZM844.95 23.716H858.358V37.764H857.19V24.724H846.086V37.764H844.95V23.716ZM845.654 36.1H857.798V37.124H845.654V36.1Z" fill="#666666"/>
</svg>
