<svg width="578" height="183" viewBox="0 0 578 183" fill="none" xmlns="http://www.w3.org/2000/svg">
<g filter="url(#filter0_d_2_3515)">
<path d="M157.44 161.39L157.95 164.05C153.41 165.97 148.48 167.99 144.8 169.46L143.46 166.45C145.7 165.71 148.87 164.59 152.23 163.35V151.26H144.49V148.28H152.23V141.05H155.3V162.2L157.44 161.4V161.39ZM167.97 165.78C169.28 165.78 169.47 164.28 169.67 158.36C170.41 158.97 171.72 159.58 172.52 159.77C172.23 166.36 171.53 168.7 168.23 168.7H164.17C161.07 168.7 160.17 167.61 160.17 163.84V141.06H163.27V148.26H171.88V151.2H163.27V163.87C163.27 165.5 163.46 165.79 164.58 165.79H167.97V165.78Z" fill="url(#paint0_radial_2_3515)"/>
<path d="M198.85 152.08C198.85 152.75 198.85 153.46 198.82 154.22C199.84 160.49 201.51 164.3 205.06 167.53C204.36 168.07 203.56 169 203.17 169.83C200.61 167.27 198.95 164.52 197.79 160.9C196.93 164 195.39 167.17 192.67 169.86C192.32 169.28 191.71 168.52 191.17 167.97C190.4 168.07 189.31 168.1 188.26 168.1H181.73C178.05 168.1 176.74 166.79 176.74 162.82V144.49H175.72V141.96H191.34V144.49H179.4V162.99C179.4 164.94 179.94 165.61 181.61 165.61H188.39C189.35 165.61 190.66 165.51 191.4 165.35C191.43 165.73 191.5 166.25 191.56 166.73C195.75 161.99 196.17 156.01 196.17 152.01V149.74H198.86V152.08H198.85ZM180.35 155.54H185.25V163.6H180.35V155.54ZM189.57 153.65H181.44V146.39H189.57V153.65ZM181.89 161.75H183.68V157.4H181.89V161.75ZM187.23 148.24H183.65V151.79H187.23V148.24ZM191.2 163.63H186.18V155.6H191.2V163.63ZM189.57 157.46H187.75V161.75H189.57V157.46ZM195.52 148.02C194.78 150.45 193.86 152.6 192.77 154.26C192.26 153.81 191.04 153.01 190.37 152.66C192.48 149.78 193.73 145.17 194.37 140.41L197.09 140.86C196.87 142.4 196.61 143.87 196.26 145.31H203.04L203.49 145.21L205.41 145.79C204.77 148.77 203.87 152.22 203.01 154.43L200.77 153.66C201.28 152.22 201.79 150.08 202.24 148.03H195.52V148.02Z" fill="url(#paint1_radial_2_3515)"/>
<path d="M233.44 142.03C233.34 154.13 233.34 166.67 235.04 166.67C235.36 166.67 235.55 164.59 235.62 161.93C236.1 162.76 236.77 163.69 237.32 164.2C237.03 168.17 236.49 169.86 234.73 169.86C230.57 169.86 230.57 158.5 230.51 144.77H214V152.55C214 157.8 213.46 165.16 209.94 169.93C209.43 169.42 208.21 168.62 207.51 168.3C210.87 163.82 211.16 157.39 211.16 152.56V142.03H233.46H233.44ZM227.61 161.04C229.11 163.18 230.59 166.1 231.07 168.05L228.61 168.91C228.45 168.24 228.19 167.41 227.84 166.57C222.82 166.95 217.66 167.34 213.98 167.59L213.76 164.93C215.68 164.83 218.11 164.67 220.77 164.51V160.57H215.49V151.61H220.77V148.99H215.17V146.59H229.15V148.99H223.36V151.61H228.8V160.57H223.36V164.35L226.75 164.13C226.3 163.3 225.79 162.47 225.31 161.76L227.61 161.02V161.04ZM220.77 158.26V153.97H217.83V158.26H220.77ZM223.36 153.97V158.26H226.37V153.97H223.36Z" fill="url(#paint2_radial_2_3515)"/>
<path d="M266.94 144.59C265.85 147.89 264.09 150.67 261.95 153.01C264.03 154.67 266.59 156.08 269.57 156.95C268.96 157.53 268.13 158.71 267.71 159.45C267.36 159.32 267.01 159.19 266.65 159.03V169.75H263.77V168.6H255.87V169.85H253.12V159.29C252.42 159.61 251.71 159.9 250.98 160.15C250.63 159.45 249.89 158.36 249.28 157.75L249.47 157.69C248.99 156.79 248.16 155.51 247.39 154.36V169.82H244.61V156C243.55 159.17 242.21 162.14 240.8 164.06C240.54 163.23 239.81 162.08 239.36 161.4C241.38 158.74 243.36 154.04 244.32 149.91H240.1V147.16H244.61V140.47H247.39V147.16H251.29V148.89C253.63 146.65 255.61 143.64 256.83 140.44L259.68 141.21C259.33 142.11 258.91 143 258.46 143.87H264.54L265.08 143.74L266.94 144.6V144.59ZM250.08 157.49C252.9 156.5 255.62 154.96 257.95 152.98C256.8 151.73 255.84 150.42 255.04 149.11C254.11 150.23 253.18 151.22 252.22 152.09C251.74 151.55 250.59 150.55 249.92 150.11L250.14 149.92H247.39V151.01C248.25 151.94 250.75 155.01 251.36 155.75L250.08 157.51V157.49ZM264.7 158.13C262.94 157.23 261.34 156.11 259.96 154.93C258.55 156.15 257.02 157.23 255.38 158.13H264.69H264.7ZM263.77 166V160.66H255.87V166H263.77ZM256.99 146.42L256.7 146.87C257.47 148.31 258.56 149.78 259.9 151.16C261.21 149.75 262.33 148.15 263.2 146.42H256.99Z" fill="url(#paint3_radial_2_3515)"/>
<path d="M287.07 171.15H285.66V139.15H287.07V171.15Z" fill="url(#paint4_radial_2_3515)"/>
<path d="M319.9 140.56C319.87 141.78 319.84 143.44 319.68 145.33C320.13 149.33 322.08 162.1 333.25 167.06C332.39 167.73 331.49 168.79 331.07 169.59C323.55 166.04 320.06 159 318.37 153.27C316.77 159.29 313.38 165.75 306.15 169.75C305.64 168.98 304.68 168.02 303.69 167.38C316.78 160.6 316.43 145.68 316.52 140.57H319.91L319.9 140.56Z" fill="url(#paint5_radial_2_3515)"/>
<path d="M359.84 148.85C358.14 153.68 355.78 157.59 352.77 160.79C356.19 163.57 360.35 165.65 365.28 166.87C364.61 167.51 363.74 168.76 363.26 169.62C358.17 168.24 353.92 165.97 350.46 162.96C346.91 165.97 342.56 168.21 337.37 169.81C337.02 169.04 336.12 167.67 335.51 166.96C340.66 165.58 344.85 163.6 348.24 160.82C345.14 157.52 342.77 153.52 340.98 148.85H336.05V145.97H349.9C349.52 144.66 348.62 142.64 347.76 141.14L350.9 140.21C351.83 141.71 352.85 143.76 353.27 145.07L350.42 145.97H364.79V148.85H359.83H359.84ZM344.1 148.85C345.64 152.63 347.78 155.92 350.5 158.74C353.09 156.05 355.08 152.79 356.52 148.85H344.1Z" fill="url(#paint6_radial_2_3515)"/>
<path d="M394.43 157.07C394.62 157.07 394.81 157.04 394.91 156.94C395.04 156.88 395.13 156.68 395.17 156.33C395.23 155.98 395.27 155.08 395.3 154.03C395.75 154.38 396.42 154.73 397.03 154.89C396.97 156.04 396.87 157.35 396.71 157.83C396.55 158.28 396.26 158.63 395.88 158.82C395.56 159.04 395.02 159.14 394.54 159.14H393.23C392.62 159.14 391.98 158.95 391.57 158.53C391.15 158.11 390.99 157.6 390.99 155.84V150.34H388.78C388.72 151.27 388.59 152.29 388.3 153.28C389.32 153.89 390.19 154.53 390.8 155.07L389.36 156.93C388.91 156.45 388.24 155.94 387.47 155.43C386.64 156.97 385.36 158.47 383.28 159.75C383.02 159.46 382.61 159.08 382.22 158.69C377.32 159.07 372.3 159.43 368.72 159.59L368.56 157.8C370.16 157.74 372.11 157.61 374.32 157.51V156.17H369.94V154.57H374.32V152.97H376.62C376.49 152.62 376.46 152.2 376.46 151.63V151.18H374.06C373.55 152.94 372.27 153.96 369.23 154.54C369.04 154.09 368.56 153.42 368.17 153.1C370.51 152.75 371.59 152.2 372.04 151.18H368.71V149.55H374.31V148.43H370.21V146.83H374.31V145.9H376.81V146.83H380.87V148.43H376.81V149.55H382.38V151.18H378.35V151.69C378.35 152.23 378.38 152.43 378.83 152.43H380.37C380.72 152.43 381.39 152.4 381.75 152.27C381.81 152.75 381.85 153.26 381.91 153.74C381.56 153.87 380.92 153.87 380.41 153.87H378.36C377.59 153.87 377.11 153.71 376.82 153.36V154.58H381.33V156.18H376.82V157.43L382.32 157.11V157.69C383.82 156.57 384.82 155.39 385.42 154.14C384.49 153.63 383.5 153.12 382.57 152.7L383.88 151.07C384.62 151.36 385.42 151.74 386.18 152.13C386.34 151.52 386.44 150.95 386.47 150.37H383.08V148.19H386.5V146.14H388.8V148.19H393.38V155.93C393.38 156.51 393.38 156.83 393.48 156.92C393.54 157.05 393.67 157.08 393.83 157.08H394.44L394.43 157.07ZM368.16 163.22H396.54V165.01H389.12C391.46 166.07 393.98 167.67 395.42 168.85L393.37 170.23C392.83 169.75 392.15 169.24 391.32 168.66C373.98 169.43 372.09 169.46 370.81 169.81C370.65 169.39 370.23 168.31 369.95 167.76C370.59 167.66 371.29 167.41 372.13 167.02C372.77 166.73 374.24 166 375.81 165H368.16V163.21V163.22ZM375.62 144.56H368.45V142.42H375.62V140.44H378.5V142.42H381.96V144.56H378.5V145.81H375.62V144.56ZM392.77 160.08V161.87H372.13V160.08H392.77ZM388.51 166.93C387.77 166.51 386.97 166.13 386.27 165.81L387.65 165.01H379.81C378.5 165.87 377.12 166.67 375.78 167.38L388.52 166.93H388.51ZM386.14 144.56H382.97V142.42H386.14V140.44H389.05V142.42H396.41V144.56H389.05V145.81H386.14V144.56Z" fill="url(#paint7_radial_2_3515)"/>
<path d="M415.77 166.61H428.92V169.07H399.8V166.61H412.79V164.21H403.29V161.78H412.79V159.86H415.77V161.78H426.04V164.21H415.77V166.61ZM400.16 157.81C401.89 157.71 404.06 157.55 406.4 157.39V155.25H401.34V153.11H406.4V151.51H401.12V141.62H414.3V151.51H408.92V153.11H414.1V155.25H408.92V157.2C410.84 157.04 412.86 156.88 414.84 156.72V158.83C409.63 159.34 404.18 159.76 400.38 160.08L400.16 157.81ZM403.46 145.59H406.4V143.64H403.46V145.59ZM406.4 149.49V147.51H403.46V149.49H406.4ZM411.9 143.63H408.92V145.58H411.9V143.63ZM411.9 147.51H408.92V149.49H411.9V147.51ZM420.06 151.57H414.97V149.14H421.5C420.16 148.15 418.43 147 416.92 146.2L418.58 144.7C419.35 145.05 420.21 145.53 421.04 146.04C421.87 145.43 422.7 144.7 423.47 143.96H415.63V141.66H425.71L426.32 141.5L428.11 142.91C426.73 144.48 424.88 146.14 423.12 147.39C423.63 147.81 424.14 148.19 424.56 148.51L423.89 149.15H426.64L427.06 149.09L428.98 149.47C428.37 151.45 427.6 153.69 426.87 155.07L424.53 154.59C424.91 153.82 425.3 152.7 425.65 151.58H422.83V157.47C422.83 158.78 422.57 159.49 421.61 159.87C420.65 160.29 419.24 160.29 417.23 160.29C417.1 159.55 416.75 158.56 416.43 157.89C417.84 157.92 419.15 157.92 419.53 157.89C419.95 157.89 420.04 157.76 420.04 157.44V151.58L420.06 151.57Z" fill="url(#paint8_radial_2_3515)"/>
<path d="M184.85 14.54C185.89 19.5 187.88 23.61 190.88 26.93C192.8 29.07 195.47 31.05 198.14 32.35C199.62 33.06 200.73 33.44 202.77 33.99L202.73 34.54C200.61 35.63 199.54 36.81 198.86 38.83C198.66 39.42 198.5 39.59 198.26 39.59C197.86 39.59 197.02 39.09 195.75 38.12C191.68 34.97 188.81 30.85 186.69 25.18C185.69 22.41 185.05 19.8 184.46 15.94C183.78 22.91 181.67 28.04 177.8 32.11C175.37 34.67 172.45 36.82 169.34 38.33C167.9 39.04 166.87 39.46 164.55 40.35L164.31 39.8C170.26 35.81 173.17 32.91 175.68 28.67C177.95 24.76 179.31 20.1 179.79 14.56H169.22C167.78 14.56 166.83 14.64 165.51 14.85L165.31 13.3C166.63 13.55 167.82 13.68 169.26 13.68H179.87C180.03 11.62 180.07 9.68997 180.07 6.91997C180.07 4.89997 180.03 4.22997 179.87 2.46997C181.31 2.59997 182.38 2.67997 183.1 2.75997C185.89 2.96997 186.73 3.21997 186.73 3.76997C186.73 4.18997 186.29 4.47997 185.01 4.94997C184.89 9.44997 184.85 11.08 184.65 13.69H193.59L196.62 9.61997C198.85 11.38 199.49 11.93 201.61 13.78C201.81 14.03 201.89 14.16 201.89 14.28C201.89 14.45 201.69 14.57 201.41 14.57H184.85V14.54Z" fill="white"/>
<path d="M213.42 24V22.45C213.42 21.19 213.38 20.64 213.22 19.55C215.45 19.63 217.41 19.8 218.13 20.01C218.49 20.09 218.65 20.26 218.65 20.47C218.65 20.81 218.33 20.97 217.29 21.31V24H219.72C220.68 22.87 220.96 22.49 221.99 21.35C223.39 22.57 223.82 22.99 225.22 24.33C225.38 24.46 225.42 24.54 225.42 24.67C225.42 24.8 225.3 24.88 225.14 24.88H217.24V26.64C219.71 27.23 221.35 27.86 222.35 28.57C222.87 28.99 223.35 29.91 223.35 30.5C223.35 30.79 223.15 31.63 222.95 32.05C222.63 32.85 221.83 33.56 221.27 33.56C220.87 33.56 220.59 33.22 220.35 32.43C219.55 30.04 218.28 27.94 217.24 27.26C217.24 28.65 217.28 32.68 217.44 39.44V39.61C217.44 39.95 217.32 40.16 217 40.28C216.76 40.41 215.17 40.53 213.97 40.53C213.45 40.53 213.29 40.36 213.29 39.82C213.45 33.31 213.49 32.97 213.49 32.09C213.49 31.8 213.49 31.29 213.45 30.7C211.41 33.14 209.66 34.61 205.87 37.04L205.63 36.7C207.9 34.18 209.18 32.41 210.66 29.64C211.66 27.79 211.66 27.75 212.73 24.85H209.74C208.54 24.85 207.82 24.89 206.39 25.02L206.11 23.72C207.03 23.85 208.7 23.97 209.7 23.97H213.41L213.42 24ZM219.68 17.91C220.76 16.69 221.12 16.31 222.15 15.14C223.27 16.11 224.42 17.16 225.66 18.25C225.74 18.33 225.82 18.46 225.82 18.5C225.82 18.67 225.66 18.79 225.46 18.79H209.42C208.54 18.79 207.82 18.83 206.19 18.96L205.95 17.62C207.39 17.83 208.46 17.91 209.42 17.91H215.96C217.04 15.52 217.72 12.62 218.07 9.09C222.26 10.52 223.38 11.02 223.38 11.48C223.38 11.86 223.02 12.03 221.82 12.15C220.1 14.59 218.79 16.22 217.11 17.9H219.66L219.68 17.91ZM219.4 8.08C220.4 6.82 220.72 6.44 221.71 5.35C223.19 6.57 223.63 6.99 225.1 8.33C225.26 8.46 225.34 8.58 225.34 8.67C225.3 8.84 225.18 8.96 225.02 8.96H210.3C209.5 8.96 208.78 9 207.11 9.13L206.87 7.79C208.07 7.96 209.58 8.08 210.3 8.08H213.29V6.95C213.29 5.06 213.21 4.18 212.97 2.41C217.92 2.75 218.2 2.79 218.76 3.21C218.84 3.25 218.96 3.42 218.96 3.5C218.96 3.79 218.52 4.05 217.4 4.47V8.08H219.4ZM209.47 9.34C211.3 10.56 211.94 11.06 212.9 11.9C213.78 12.7 214.34 13.71 214.34 14.46C214.34 15.89 212.94 17.53 211.75 17.53C211.03 17.53 210.79 17.15 210.71 15.98C210.55 13.29 210.23 11.95 209.19 9.6L209.47 9.35V9.34ZM230.38 17.23C230.3 25.13 229.18 29.92 226.39 33.91C224.63 36.47 222.68 38.32 219.65 40.29L219.29 39.87C222.56 36.34 223.96 33.82 225.04 29.66C225.92 26.17 226.28 22.31 226.28 15.29C226.28 10 226.2 7.43 226.04 4.91C228.12 6 228.75 6.34 230.67 7.43C234.42 5.46 236.78 3.82 238.09 2.31C241.96 4.79 243.2 5.71 243.2 6.13C243.2 6.38 242.84 6.55 242.4 6.55C242.12 6.55 241.68 6.51 240.76 6.34C237.61 7.39 235.05 7.94 230.47 8.61C230.47 9.61666 230.443 12.1933 230.39 16.34H236.93C238.21 14.87 238.61 14.45 239.8 13.02C241.6 14.57 242.11 15.04 243.87 16.72C243.99 16.85 244.03 16.93 244.03 16.97C244.03 17.14 243.87 17.22 243.71 17.22H238.88V25.92C238.88 30.79 238.88 32.81 239.04 39.28C239 39.83 238.84 40.04 238.36 40.16C237.76 40.24 236.4 40.37 235.53 40.37C234.73 40.37 234.53 40.24 234.49 39.61C234.57 36.47 234.623 31.9067 234.65 25.92V17.22H230.38V17.23Z" fill="white"/>
<path d="M276.94 21.14C277.3 20.3 277.46 19.8 278.14 17.74H252.92C252.96 18.2 252.96 18.45 252.96 18.83C252.96 22.02 251.48 24.54 249.65 24.54C248.45 24.54 247.73 23.57 247.73 21.98C247.73 21.06 247.97 20.64 248.89 20.13C250.85 19 251.76 17.78 252 15.8C250.84 16.22 250.24 16.39 248.57 16.6L248.49 16.22C254.08 13.36 255.79 10.42 255.79 3.69998C255.79 3.02998 255.79 2.72998 255.71 1.97998C260.58 2.31998 261.1 2.43998 261.1 3.02998C261.1 3.40998 260.82 3.57998 259.62 3.99998C259.38 6.13998 259.3 6.72998 259.1 7.73998C259.3 7.56998 259.38 7.48998 259.58 7.31998C261.3 5.80998 262.17 4.83998 262.89 3.65998C265.68 5.54998 266.12 5.92998 266.12 6.30998C266.12 6.59998 265.88 6.76998 265.56 6.76998C265.4 6.76998 265.04 6.72998 264.44 6.59998C262.76 7.39998 261.05 7.98998 258.93 8.56998C258.73 9.40998 258.69 9.53998 258.49 10.08C262.84 11.05 264.4 11.93 264.4 13.48C264.4 14.7 263.48 15.96 262.6 15.96C262.2 15.96 261.92 15.71 261.52 14.95C260.56 13.06 259.72 12.01 258.21 10.79C257.17 12.85 255.42 14.36 252.62 15.54C252.74 16.25 252.74 16.34 252.82 16.84H278.08C278.32 16.5866 278.573 16.3333 278.84 16.08C278.52 15.74 278.44 15.66 278.16 15.28C276.8 13.31 275.13 11.62 273.53 10.66C272.73 12 271.93 12.84 270.78 13.68C269.42 14.6 268.07 15.19 264.95 16.16L264.87 15.74C267.34 14.1 268.82 12.63 269.82 10.74C270.7 9.01998 271.26 6.28998 271.26 3.46998C271.26 3.04998 271.22 2.75998 271.1 2.12998C275.53 2.41998 276.53 2.62998 276.53 3.17998C276.53 3.51998 276.17 3.76998 275.09 4.14998C274.93 5.99998 274.85 6.66998 274.65 7.63998C276.69 6.16998 278.2 4.73998 279.28 3.39998C282.07 5.49998 282.87 6.20998 282.87 6.67998C282.87 6.92998 282.63 7.13998 282.31 7.13998C282.07 7.13998 281.63 7.05998 280.95 6.88998C278.95 7.64998 277 8.14998 274.41 8.69998C274.21 9.28998 274.13 9.45998 273.89 9.99998C279 10.88 281.15 11.97 281.15 13.74C281.15 14.16 281.07 14.5 280.79 15.08C282.11 16.09 282.43 16.38 283.78 17.73C284.1 18.07 284.22 18.23 284.22 18.49C284.22 18.99 283.7 19.12 281.95 19.2C280.03 20.46 279.4 20.84 276.8 22.31L276.76 22.23C276.52 22.36 276.44 22.44 276.2 22.52C276.16 23.44 276.16 24.16 276.16 24.62C276.16 25.17 276.16 25.33 276.2 27.48C276.2 27.82 276.12 27.98 275.96 28.11C275.6 28.36 274.6 28.53 273.53 28.53C272.37 28.53 272.09 28.4 272.05 27.86V27.06H267.3C266.14 28.66 265.9 28.95 263.91 31.09H274.8C275.8 30 276.12 29.7 277.03 28.78C278.43 29.7 278.83 30 280.1 30.96C280.46 31.25 280.66 31.51 280.66 31.72C280.66 32.06 280.54 32.14 279.38 32.94C279.34 33.99 279.34 34.75 279.34 35.25C279.34 36.22 279.34 36.47 279.42 39.66C279.42 40.08 279.34 40.25 279.06 40.42C278.62 40.67 277.5 40.88 276.55 40.88C275.47 40.88 275.15 40.71 275.15 40.12V38.73H256.16V39.99C256.16 40.16 256.08 40.33 255.92 40.41C255.56 40.66 254.48 40.83 253.45 40.83C252.17 40.83 251.77 40.66 251.77 40.07V39.99C251.89 37.72 251.89 37.34 251.89 34.03C251.89 31.4233 251.85 29.63 251.77 28.65C253.85 29.66 254.44 29.99 256.44 31.09H261.87C262.35 29.03 262.35 28.99 262.55 27.06H259.08V27.77C259.04 28.11 258.96 28.23 258.64 28.36C258.28 28.53 256.92 28.7 256.13 28.7C255.17 28.7 254.85 28.49 254.85 27.94V27.86C254.93 26.1 254.97 24.92 254.97 24.25C254.97 20.34 254.97 19.71 254.81 18.66C256.77 19.5 257.36 19.75 259.16 20.76H271.81C272.69 19.79 272.97 19.5 273.89 18.66C275.13 19.58 275.53 19.92 276.72 20.93L276.92 21.14H276.94ZM253.12 4.28998C253.32 5.33998 253.36 5.79998 253.36 6.51998C253.36 9.32998 252 11.69 250.37 11.69C249.41 11.69 248.65 10.72 248.65 9.45998C248.65 8.44998 248.93 8.11998 250.29 7.35998C251.53 6.72998 252.09 5.96998 252.6 4.33998L253.12 4.29998V4.28998ZM256.19 31.98V37.86H275.18V31.98H256.19ZM259.11 21.64V26.18H272.08V21.64H259.11ZM268.36 4.16998C268.68 5.50998 268.8 6.18998 268.8 7.02998C268.8 9.25998 267.4 11.4 265.93 11.4C265.13 11.4 264.45 10.43 264.45 9.25998C264.45 8.58998 264.69 8.24998 265.49 7.78998C267.09 6.90998 267.72 5.97998 267.92 4.17998H268.36V4.16998Z" fill="white"/>
<path d="M304.91 12.44V7.57C304.91 5.76 304.79 3.45 304.63 2.19C310.77 2.82 311.25 2.9 311.25 3.49C311.25 3.87 310.73 4.2 309.49 4.71V12.44H315.16C316.48 10.72 316.88 10.17 318.23 8.49C320.39 10.25 321.02 10.8 323.14 12.69C323.3 12.86 323.38 12.98 323.38 13.07C323.38 13.24 323.22 13.32 322.9 13.32H309.49V23.95H314.44C315.76 22.31 316.16 21.77 317.51 20.09C319.58 21.81 320.22 22.36 322.22 24.21C322.38 24.38 322.46 24.5 322.46 24.59C322.46 24.76 322.3 24.84 322.02 24.84H309.49V37.4H316.67C318.07 35.64 318.5 35.09 319.94 33.41C322.1 35.22 322.81 35.8 324.97 37.69C325.09 37.86 325.17 37.94 325.17 38.03C325.17 38.2 325.01 38.28 324.73 38.28H292.29C291.21 38.28 289.94 38.36 289.06 38.53L288.82 37.02C289.9 37.27 291.01 37.4 292.25 37.4H304.9V24.84H296.72C295.68 24.84 294.96 24.88 294.05 25.09L293.85 23.66C294.77 23.87 295.61 23.95 296.68 23.95H304.9V13.32H297.88C294.61 18.74 293.33 20.34 289.42 23.82L289.02 23.4C291.49 19.45 292.85 16.55 294.29 12.1C295.37 8.74 295.81 6.81 295.93 4.33C301.76 5.97 302.51 6.26 302.51 6.77C302.51 7.23 301.95 7.48 300.59 7.65C299.55 10.04 299.15 10.93 298.36 12.44H304.9H304.91Z" fill="white"/>
<path d="M329.45 11.98C331.76 12.61 333.36 13.16 334.68 13.83C336.16 14.63 336.8 15.47 336.8 16.64C336.8 18.36 335.4 20.13 334.09 20.13C333.37 20.13 333.09 19.79 332.57 18.24C331.73 15.8 330.89 14.29 329.22 12.32L329.46 11.98H329.45ZM329.61 27.48C330.97 27.82 331.72 27.98 332.16 27.98C332.88 27.98 333.08 27.73 334.35 25.29C336.03 22.1 337.78 18.36 341.21 10.5L341.73 10.67L336.54 27.81C336.1 29.28 336.02 29.62 336.02 29.99C336.02 30.27 336.193 30.9133 336.54 31.92C337.06 33.35 337.3 34.69 337.3 35.83C337.3 38.22 335.46 40.33 333.39 40.33C332.47 40.33 331.91 39.83 331.91 39.07C331.91 38.9 331.99 38.15 332.11 37.47C332.55 34.66 332.67 33.61 332.67 32.55C332.67 29.74 332.23 29.15 329.48 27.97L329.6 27.47L329.61 27.48ZM332 2.90999C337.87 4.24999 339.66 5.38999 339.66 7.56999C339.66 9.11999 338.3 10.85 337.11 10.85C336.51 10.85 336.27 10.56 335.55 8.91999C334.71 6.89999 333.75 5.47999 331.84 3.28999L332 2.90999ZM349.92 8.44999C346.45 8.82999 344.73 8.94999 340.9 9.07999L340.86 8.57999C345.17 7.65999 348.48 6.68999 351.95 5.34999C355.58 3.91999 357.34 3.03999 358.97 1.73999C363 4.59999 363.92 5.34999 363.92 5.80999C363.92 6.05999 363.68 6.26999 363.32 6.26999C362.84 6.26999 362.2 6.13999 361.56 5.92999C358.29 6.97999 356.93 7.35999 354.26 7.81999V16.14H359.29C360.33 14.84 361.33 13.58 362.28 12.4C364.28 14.04 364.87 14.58 366.75 16.35C366.91 16.56 366.99 16.64 366.99 16.77C366.99 16.94 366.83 17.02 366.51 17.02H354.26V25.42H358.25C359.29 24.2 359.61 23.82 360.64 22.73C362.16 23.78 362.6 24.12 363.99 25.25C364.35 25.59 364.51 25.8 364.51 26.01C364.51 26.39 364.23 26.68 362.99 27.44V29.83C362.99 32.56 362.99 33.32 363.23 39.41C363.23 39.83 363.15 40.08 362.87 40.21C362.47 40.5 361.47 40.63 360.04 40.63C358.76 40.63 358.6 40.55 358.6 39.79V37.69H346.07V39.58C346.07 40 346.03 40.17 345.83 40.34C345.55 40.59 344.39 40.76 342.84 40.76C341.76 40.76 341.44 40.55 341.44 39.92V39.75C341.64 35.17 341.68 34.12 341.68 31.73C341.68 27.32 341.6 24.92 341.44 22.82C343.67 23.91 344.35 24.25 346.39 25.42H349.9V17.02H342.76C341.88 17.02 341.44 17.06 340.68 17.23L340.4 15.89C341.16 16.06 341.88 16.14 342.79 16.14H349.89V8.44999H349.92ZM346.09 36.81H358.62V26.31H346.09V36.81Z" fill="white"/>
<path d="M376.45 39.5C376.45 39.75 376.37 39.92 376.25 40C376.01 40.21 374.89 40.42 373.78 40.42H373.34C372.42 40.42 372.06 40.21 372.06 39.54V39.37C372.26 30.38 372.3 27.31 372.3 23.32C372.3 14.29 372.22 5.72 372.06 1.94C374.18 2.91 374.85 3.28 377.01 4.63H400.91C401.95 3.45 402.27 3.12 403.22 2.11C404.7 3.2 405.14 3.54 406.53 4.67C406.85 4.92 406.97 5.09 406.97 5.34C406.97 5.8 406.69 6.05 405.53 6.73L405.49 20.8V25.3C405.49 27.82 405.53 32.48 405.61 39.33C405.61 39.67 405.57 39.79 405.45 39.92C405.17 40.17 403.93 40.34 402.42 40.34C401.54 40.34 401.3 40.17 401.3 39.5V37.86H376.44V39.5H376.45ZM376.45 36.98H401.31V5.51H376.45V36.97V36.98ZM390.58 14.29C391.26 15.84 391.78 16.64 393.01 17.99H395.36C396.107 17.01 396.8 16.1133 397.44 15.3C398.84 16.52 399.27 16.9 400.71 18.24C400.83 18.37 400.95 18.58 400.95 18.62C400.95 18.79 400.79 18.87 400.59 18.87H393.93C396.05 20.72 397.88 21.68 401.15 22.65V22.99C400.11 23.54 399.71 24.12 399.15 25.76C399.03 26.1 398.91 26.22 398.71 26.22C398.27 26.22 396.99 25.25 395.52 23.87C395.2 24.08 395.12 24.12 394.8 24.25C394.56 26.85 394.48 27.57 394.2 28.28C393.76 29.33 393.12 29.75 391.73 30.04C391.37 30.08 390.69 30.17 390.33 30.17C389.93 30.17 389.85 30.09 389.81 29.54C389.77 28.83 389.53 28.24 389.05 27.73C388.61 27.31 388.05 27.1 386.7 26.81V26.31C388.14 26.48 389.77 26.6 390.21 26.6C391.05 26.6 391.17 26.31 391.29 23.37H385.58V30.89C385.58 31.69 385.66 31.77 386.46 31.77H386.78L389.93 31.85C391.81 31.85 393.8 31.72 394.2 31.6C394.64 31.43 395.4 30 396.75 26.73H397.07L396.87 30.17C396.83 30.34 396.83 30.51 396.83 30.59C396.83 30.93 396.95 31.09 397.47 31.26C398.35 31.6 398.71 32.02 398.71 32.77C398.71 33.9 397.91 34.62 396.4 34.87C395.6 35 391.37 35.16 388.78 35.16C383.47 35.16 382.04 34.61 381.96 32.56V23.61C380.32 25.04 379.29 25.79 376.93 27.14L376.65 26.72C379.16 24.28 381.12 21.76 382.72 18.86H380.56C379.36 18.86 378.84 18.9 377.73 19.15L377.45 17.64C378.65 17.89 379.57 17.98 380.56 17.98H383.15C383.67 17.14 384.27 15.84 384.83 14.28H383.75C382.79 14.28 382.27 14.32 381.32 14.53L381.08 13.44C379.33 15.08 378.89 15.37 376.81 16.67L376.57 16.38C378.84 13.27 380.64 9.79 381.32 7.14C382.12 7.39 382.72 7.56 383.11 7.69C383.27 7.73 383.35 7.77 383.43 7.77C385.55 8.32 386.02 8.53 386.02 8.9C386.02 9.24 385.62 9.4 384.5 9.49C383.34 11.13 382.71 11.84 381.35 13.19C382.23 13.32 382.83 13.4 383.59 13.4H385.15C385.91 11.13 386.39 8.9 386.55 6.64C391.42 7.4 391.86 7.52 391.86 7.94C391.86 8.28 391.58 8.44 390.46 8.82C389.74 11.05 389.42 11.97 388.82 13.4H391.69C392.57 12.39 392.85 12.06 393.73 11.09C395.01 12.18 395.41 12.56 396.68 13.74C396.8 13.87 396.88 14.03 396.88 14.12C396.88 14.21 396.76 14.29 396.56 14.29H390.57H390.58ZM385.95 18.87C385.11 20.13 384.71 20.68 383.95 21.6L385.59 22.48H391.14C391.9 21.77 392.14 21.56 392.9 20.88C392.78 20.67 392.7 20.5 392.62 20.42C392.06 19.5 391.94 19.33 391.7 18.87H385.95ZM388.42 14.29C387.7 15.84 387.22 16.73 386.5 17.99H391.21C390.57 16.69 390.29 15.89 389.85 14.29H388.41H388.42ZM393.21 7.7C398.92 9.13 400.15 9.88 400.15 11.99C400.15 13.42 399.47 14.64 398.71 14.64C398.39 14.64 398.07 14.35 397.67 13.63C396.75 12.03 394.64 9.56 392.96 8.13L393.2 7.71L393.21 7.7Z" fill="white"/>
<path d="M83.33 90.8C84.53 92.69 86.24 94.2 88.92 95.72C92.27 97.61 95.18 98.49 100.09 99.04V99.5C98.77 100.17 98.09 100.93 97.46 102.48C97.26 102.98 97.22 103.15 97.02 103.91C96.94 104.25 96.82 104.37 96.58 104.37C96.14 104.37 94.5 103.61 93.11 102.77C88.36 99.87 85.57 96.76 82.7 91.22L82.78 96.34C82.8866 100.627 82.9533 103.343 82.98 104.49C82.98 104.99 82.9 105.25 82.66 105.41C82.3 105.7 81.34 105.83 79.83 105.83C78.59 105.83 78.39 105.7 78.35 104.91C78.43 102.94 78.59 98.95 78.59 97.39L78.63 94.49C75.64 97.56 73.6 99.2 70.57 100.96C68.14 102.39 66.14 103.27 62.47 104.53L62.23 103.98C68.18 100.58 72.96 96.08 76.31 90.79H71.88V91.42C71.84 91.88 71.76 92.09 71.56 92.26C71.2 92.55 70.16 92.72 68.85 92.72C67.81 92.72 67.57 92.55 67.53 91.71C67.73 87.59 67.77 85.96 67.77 82.13C67.77 78.3 67.73 77.05 67.57 75.33C69.61 76.3 70.2 76.59 72.32 77.64H78.58V73.1H66.41C65.29 73.1 64.61 73.14 63.38 73.35L63.06 71.8C64.34 72.09 65.33 72.22 66.41 72.22H78.58C78.58 69.28 78.54 68.52 78.26 66.89C83.73 67.44 84.33 67.56 84.33 68.15C84.33 68.53 83.97 68.82 82.77 69.24V72.22H91.47C92.83 70.62 93.23 70.16 94.58 68.65C96.54 70.25 97.13 70.75 99.09 72.47C99.25 72.64 99.29 72.72 99.29 72.85C99.29 73.02 99.13 73.1 98.89 73.1H82.77V77.64H89.67C90.59 76.59 90.87 76.25 91.82 75.29C93.26 76.3 93.7 76.63 95.01 77.68C95.45 78.02 95.61 78.23 95.61 78.48C95.61 78.82 95.25 79.15 94.13 79.74C94.13 86.46 94.13 86.8 94.25 91.12V91.29C94.25 91.67 94.17 91.88 93.97 92.05C93.61 92.39 92.49 92.6 91.06 92.6C90.22 92.6 90.02 92.43 89.94 91.8V90.79H83.32L83.33 90.8ZM78.58 78.54H71.88V83.66H78.58V78.54ZM78.58 84.54H71.88V89.92H78.58V84.54ZM89.95 78.54H82.77V83.66H89.95V78.54ZM89.95 84.54H82.77V89.92H89.95V84.54Z" fill="white"/>
<path d="M133.2 100.13V80.3C133.2 78.62 133.12 76.69 132.96 75.05C134.32 75.22 135.27 75.34 135.95 75.43C138.66 75.72 139.42 75.98 139.42 76.48C139.42 76.94 138.94 77.28 137.78 77.66C137.74 80.56 137.74 82.91 137.74 84.34C137.74 91.48 137.82 98.24 137.98 103.58C137.98 104.21 137.78 104.5 137.3 104.71C136.86 104.88 135.66 105.05 134.63 105.05C133.47 105.05 133.27 104.92 133.19 104.08V101.01H110.49V103.4C110.49 103.95 110.41 104.2 110.13 104.41C109.77 104.7 108.61 104.91 107.3 104.91C105.99 104.91 105.7 104.7 105.7 103.69C105.86 97.89 105.94 93.06 105.94 87.01C105.94 80.16 105.9 77.56 105.66 74.95C110.81 75.62 111.05 75.62 111.53 75.83C111.85 76 112.01 76.17 112.01 76.42C112.01 76.88 111.65 77.13 110.49 77.51V100.11H119.19V74.61C119.19 72.22 119.07 69.4 118.91 67.64C125.06 68.27 125.69 68.4 125.69 69.07C125.69 69.57 125.25 69.87 123.94 70.25V100.12H133.2V100.13Z" fill="white"/>
<path d="M159.73 73.33C159.65 70.1366 159.57 68.12 159.49 67.28C165.55 67.78 166.15 67.91 166.15 68.54C166.15 68.96 165.79 69.21 164.43 69.72V73.96H173.37L176.44 70.14C178.59 71.86 179.23 72.41 181.23 74.09C181.39 74.3 181.51 74.43 181.51 74.55C181.51 74.72 181.31 74.84 181.07 74.84H147.95C146.59 74.84 145.52 74.97 144.76 75.18L144.48 73.5C145.6 73.79 146.75 73.96 147.95 73.96H159.72V73.33H159.73ZM171.71 81.64C172.67 80.51 172.99 80.13 174.02 78.95C175.9 80.21 176.41 80.59 177.97 81.89C178.21 82.1 178.29 82.27 178.29 82.44C178.29 82.86 177.93 83.24 176.65 83.99V90.25C176.65 91.6233 176.663 93.2333 176.69 95.08V97.35C176.53 99.03 176.09 99.74 174.69 100.42C173.85 100.84 172.5 101.22 171.54 101.26C171.26 101.3 171.06 101.3 171.06 101.3H170.98C170.58 101.3 170.46 101.13 170.42 100.63C170.3 98.32 169.22 97.4 165.75 96.6V96.1C166.97 96.1533 168.9 96.2366 171.54 96.35C171.98 96.27 172.14 96.06 172.14 95.59V82.53H164.44V88.37C164.44 91.81 164.48 98.79 164.56 104.25C164.56 105.51 164.08 105.72 161.13 105.72C159.97 105.72 159.69 105.55 159.65 104.75C159.69 102.65 159.73 97.23 159.81 88.58V82.53H152.87V100C152.87 100.63 152.71 100.88 152.31 101.05C151.87 101.22 150.63 101.34 149.48 101.34C148.33 101.34 148.12 101.17 148.12 100.33C148.28 95.54 148.32 93.61 148.32 88.53C148.32 83.87 148.28 82.19 148.12 78.83C150.43 80.05 151.11 80.43 153.23 81.64H159.81V81.43C159.81 79.5 159.73 77.15 159.65 75.72C160.93 75.85 161.92 75.93 162.56 75.97C165.27 76.14 166.07 76.35 166.07 76.94C166.07 77.32 165.71 77.53 164.43 77.99V81.64H171.69H171.71Z" fill="white"/>
<path d="M191.26 81.64C191.74 84.54 191.9 85.93 191.9 88.15C191.9 91.76 191.26 94.58 190.07 96.34C189.31 97.47 188.47 98.06 187.64 98.06C186.36 98.06 185.29 96.38 185.29 94.36C185.29 93.6 185.45 93.02 185.81 92.55C185.97 92.3566 186.437 91.9233 187.21 91.25C188.41 90.16 189.4 88.44 190 86.42C190.4 84.99 190.6 83.9 190.76 81.63H191.28L191.26 81.64ZM195.52 82.28C195.52 79.47 195.44 77.49 195.32 75.85C201.47 76.65 201.86 76.77 201.86 77.4C201.86 77.78 201.54 77.99 200.14 78.53V99.16C200.14 100.13 200.18 100.13 205.25 100.13C208.68 100.13 209.32 100 209.76 99.21C210.24 98.33 211.16 95.26 212.63 89.21L213.23 89.29L212.91 98.24V98.37C212.91 98.96 213.07 99.08 213.95 99.38C214.87 99.63 215.43 100.43 215.43 101.44C215.43 102.87 214.43 103.79 212.6 104.09C211.04 104.3 208.01 104.43 204.1 104.43C198.91 104.43 197.52 104.3 196.52 103.72C195.8 103.26 195.52 102.59 195.44 101.03L195.52 94.56V82.29V82.28ZM196.48 67.91C206.34 69.59 209.09 70.98 209.09 74.25C209.09 76.35 208.37 77.78 207.29 77.78C206.81 77.78 206.41 77.53 205.85 76.81C202.86 72.99 200.1 70.55 196.27 68.41L196.47 67.91H196.48ZM213.32 81.06C218.99 85.47 221.98 89.17 221.98 91.77C221.98 94.21 220.26 96.81 218.63 96.81C217.83 96.81 217.51 96.35 217.31 94.88C216.63 89.5 215.39 85.81 212.88 81.35L213.32 81.06Z" fill="white"/>
<path d="M246.8 74.46C248.48 70.51 249.07 68.79 249.47 66.73C255.66 68.41 256.01 68.54 256.01 69.12C256.01 69.58 255.49 69.83 254.57 69.83H254.13C251.54 72.14 250.82 72.73 248.5 74.45H255.48C256.8 72.85 257.2 72.35 258.51 70.84C260.59 72.39 261.18 72.86 263.1 74.54C263.3 74.79 263.38 74.92 263.38 75.04C263.38 75.21 263.18 75.33 262.86 75.33H247.54C245.54 77.89 244.67 78.9 242.71 80.83H252.21C253.17 79.65 253.49 79.32 254.52 78.18C256.08 79.31 256.55 79.65 257.95 80.78C258.35 81.12 258.47 81.33 258.47 81.54C258.47 81.96 258.15 82.25 257.11 82.72V89.52C257.11 96.83 257.15 99.31 257.31 104.06C257.27 105.11 256.59 105.4 254.04 105.4C252.88 105.4 252.68 105.27 252.64 104.48V102.72H236.84V104.27C236.8 104.69 236.72 104.86 236.56 105.03C236.2 105.28 235.16 105.49 233.97 105.49C232.53 105.49 232.25 105.28 232.25 104.36C232.41 98.65 232.45 95.2 232.45 88.69C232.45 83.98 232.41 81.67 232.25 78.19C234.52 79.28 235.2 79.62 237.28 80.84H240.83C241.63 76.85 241.67 76.47 241.79 75.34H231.06C229.34 75.34 228.39 75.42 227.23 75.63L226.95 74.03C228.31 74.32 229.66 74.45 231.1 74.45H238.44C238.12 74.2233 237.72 73.41 237.24 72.01C236.56 70.08 235.84 68.9 234.33 67.3L234.57 66.88C237.48 67.68 238.68 68.14 239.76 68.77C241.12 69.61 241.72 70.45 241.72 71.46C241.72 72.68 241.12 73.73 240 74.44H246.78L246.8 74.46ZM252.66 87.27V81.73H236.86V87.27H252.66ZM236.86 88.16V94.33H252.66V88.16H236.86ZM236.86 95.21V101.85H252.66V95.21H236.86Z" fill="white"/>
<path d="M296.63 72.19C297.87 70.55 298.23 70.05 299.54 68.49C301.61 70.09 302.21 70.59 304.21 72.27C304.41 72.52 304.49 72.65 304.49 72.77C304.49 72.94 304.29 73.06 303.97 73.06H274.84C274.64 85.87 274.48 88.39 273.72 92.17C272.68 97.29 270.81 101.12 267.26 105.28L266.9 104.99C269.65 98.44 270.45 92.93 270.45 79.95C270.45 75.16 270.37 72.3 270.17 69.36C272.44 70.49 273.12 70.87 275.28 72.17H284.22V69.44C284.22 68.35 284.18 67.8 284.06 66.63C288.97 67.13 289.45 67.18 289.97 67.39C290.29 67.52 290.45 67.73 290.45 67.89C290.45 68.31 289.97 68.56 288.69 68.94V72.17H296.63V72.19ZM278.6 95.09C277.48 95.09 276.84 95.13 275.69 95.34L275.45 93.83C276.53 94.08 277.52 94.21 278.6 94.21H285.9V79C285.9 76.61 285.86 75.89 285.66 74.25C291.25 74.75 291.68 74.84 291.68 75.38C291.68 75.72 291.28 75.97 290.08 76.3V94.2H294.87C296.15 92.69 296.51 92.27 297.78 90.84C299.7 92.31 300.25 92.77 302.05 94.33C302.25 94.54 302.33 94.71 302.33 94.79C302.33 95 302.13 95.08 301.73 95.08H290.08V103.1H296.78C298.14 101.46 298.58 100.96 299.93 99.36C301.97 101 302.56 101.54 304.48 103.31C304.68 103.48 304.76 103.6 304.76 103.73C304.76 103.9 304.56 103.98 304.28 103.98H275.27C274.07 103.98 273 104.06 272.32 104.23L272.08 102.68C273.12 102.97 274.24 103.1 275.27 103.1H285.88V95.08H278.58L278.6 95.09ZM274.57 91.94C276.96 86.77 278.36 81.27 278.56 75.94C283.83 77.03 284.15 77.12 284.15 77.66C284.15 78 283.75 78.21 282.63 78.37C281.95 80.76 281.59 81.73 280.88 83.41C284.11 85.34 285.43 86.81 285.43 88.53C285.43 90.04 284.47 91.47 283.47 91.47C282.91 91.47 282.67 91.09 282.43 89.92C281.83 86.98 281.51 85.97 280.6 84.12C278.88 87.69 277.41 89.79 274.89 92.23L274.57 91.94ZM290.49 91.01C291.81 88.41 292.6 86.09 293.4 82.65C294.08 79.79 294.44 77.61 294.52 75.93C300.11 77.15 300.31 77.23 300.31 77.74C300.31 77.99 300.07 78.16 299.63 78.29L298.67 78.5C297.75 80.98 297.47 81.65 296.71 83.21C298.19 83.88 298.78 84.18 299.82 84.76C301.82 85.81 302.65 86.86 302.65 88.37C302.65 89.88 301.61 91.44 300.53 91.44C299.93 91.44 299.77 91.19 299.29 89.63C298.49 87.11 297.77 85.72 296.38 83.92C294.9 86.82 293.43 88.75 290.87 91.27L290.47 91.02L290.49 91.01Z" fill="white"/>
<path d="M328.43 79.54C329.47 84.5 331.46 88.61 334.46 91.93C336.38 94.07 339.05 96.05 341.72 97.35C343.2 98.06 344.31 98.44 346.35 98.99L346.31 99.54C344.19 100.63 343.12 101.81 342.44 103.83C342.24 104.42 342.08 104.59 341.84 104.59C341.44 104.59 340.6 104.09 339.33 103.12C335.26 99.97 332.39 95.85 330.27 90.18C329.27 87.41 328.63 84.8 328.04 80.94C327.36 87.91 325.25 93.04 321.38 97.11C318.95 99.67 316.03 101.82 312.92 103.33C311.48 104.04 310.45 104.46 308.13 105.35L307.89 104.8C313.84 100.81 316.75 97.91 319.26 93.67C321.53 89.76 322.89 85.1 323.37 79.56H312.8C311.36 79.56 310.41 79.64 309.09 79.85L308.89 78.3C310.21 78.55 311.4 78.68 312.84 78.68H323.45C323.61 76.62 323.65 74.69 323.65 71.92C323.65 69.9 323.61 69.23 323.45 67.47C324.89 67.6 325.96 67.68 326.68 67.76C329.47 67.97 330.31 68.22 330.31 68.77C330.31 69.19 329.87 69.48 328.59 69.95C328.47 74.45 328.43 76.08 328.23 78.69H337.17L340.2 74.62C342.43 76.38 343.07 76.93 345.19 78.78C345.39 79.03 345.47 79.16 345.47 79.28C345.47 79.45 345.27 79.57 344.99 79.57H328.43V79.54Z" fill="white"/>
<path d="M372.88 71.9V71.35C372.88 69.54 372.8 68.28 372.68 66.98C373.92 67.11 374.91 67.15 375.55 67.19C378.18 67.4 378.78 67.53 378.78 68.03C378.78 68.41 378.34 68.66 377.18 69.08V71.89H379.45C380.61 70.5 380.97 70.08 382.08 68.7C383.84 70.13 384.35 70.59 385.95 72.14C386.07 72.27 386.15 72.39 386.15 72.52C386.15 72.69 385.95 72.77 385.67 72.77H377.17V86.93H379.68C380.88 85.46 381.28 85.04 382.51 83.61C384.39 85.12 384.98 85.58 386.78 87.26C386.94 87.43 387.02 87.51 387.02 87.6C387.02 87.73 386.86 87.81 386.58 87.81H373.33C375.05 89.83 376 90.67 377.84 91.63C380.47 93.02 382.71 93.6 387.42 94.15V94.61C386.34 95.16 385.9 95.53 385.38 96.37C385.06 96.87 384.7 97.63 384.54 98.18C384.34 98.68 384.22 98.85 384.02 98.85C383.82 98.85 382.94 98.51 382.22 98.14C378.99 96.54 376.08 93.9 374.16 90.83C373.56 89.91 373.12 89.11 372.52 87.81H363.98C362.42 90.37 361.03 92.05 358.87 93.98C356.04 96.46 353.6 97.93 349.13 99.82L348.85 99.36C352.2 96.76 353.84 95.24 355.75 92.93C357.11 91.21 357.67 90.37 359.06 87.81H352.56C351.64 87.81 350.84 87.89 349.97 88.1L349.73 86.55C350.77 86.8 351.65 86.93 352.52 86.93H358.35V72.77H354.2C353.24 72.77 352.72 72.81 351.73 73.02L351.53 71.51C352.45 71.76 353.29 71.89 354.2 71.89H358.35V71.47C358.35 69.92 358.27 68.99 358.11 66.89C362.86 67.31 363.18 67.35 363.62 67.52C363.94 67.6 364.1 67.77 364.1 67.98C364.1 68.32 363.7 68.61 362.58 68.99V71.89H372.83L372.88 71.9ZM371.72 95.8C372.68 94.58 373 94.2 374.03 92.94C375.55 94.24 375.99 94.66 377.38 96.09C377.5 96.26 377.58 96.34 377.58 96.43C377.58 96.6 377.42 96.68 377.14 96.68H369.68V103.23H378.1C379.38 101.72 379.78 101.26 381.05 99.83C382.93 101.3 383.48 101.8 385.2 103.44C385.36 103.61 385.44 103.73 385.44 103.82C385.44 104.03 385.24 104.11 384.96 104.11H354.4C353.52 104.11 352.57 104.19 351.69 104.4L351.45 102.85C352.49 103.1 353.41 103.23 354.4 103.23H365.41V96.68H360.78C359.82 96.68 359.18 96.76 358.35 96.93L358.11 95.46C358.99 95.67 359.87 95.8 360.78 95.8H365.41V93.74C365.41 92.65 365.33 91.81 365.21 89.96C366.45 90.04 367.36 90.13 368 90.17C370.39 90.3 371.11 90.46 371.11 90.97C371.11 91.35 370.67 91.6 369.67 91.94V95.81H371.71L371.72 95.8ZM362.63 76.81H372.88V72.78H362.63V76.81ZM362.63 81.81H372.88V77.69H362.63V81.81ZM362.63 86.94H372.88V82.7H362.63V86.94Z" fill="white"/>
<path d="M404.36 92.65C400.97 95.34 399.93 96.1 393.47 100.09C393.27 101.73 393.11 102.15 392.71 102.15C392.55 102.15 392.39 101.98 392.23 101.69C392.15 101.48 391.55 99.55 390.51 95.89C392.23 95.68 392.58 95.64 394.9 95.01V80.69H392.86C392.1 80.69 391.26 80.77 390.59 80.94L390.31 79.43C391.19 79.68 391.95 79.81 392.86 79.81H394.9V74.01C394.9 71.57 394.86 70.4 394.62 67.96C399.25 68.42 399.73 68.51 400.25 68.72C400.57 68.8 400.73 69.01 400.73 69.22C400.73 69.56 400.29 69.85 399.05 70.23V79.81H399.53C400.37 78.55 400.61 78.13 401.41 76.91C402.69 78.25 403.09 78.67 404.24 80.06C404.36 80.23 404.44 80.35 404.44 80.48C404.44 80.61 404.28 80.69 404.04 80.69H399.05V93.88C401.36 93.17 402.12 92.91 404.12 92.12L404.36 92.67V92.65ZM403.64 84.12C402.84 84.41 402.12 84.79 401.49 85.25L400.73 83.86C401.89 83.69 402.61 83.52 403.44 83.23L404.68 82.77V77.39C404.68 74.95 404.64 73.82 404.44 71.43C408.033 71.7633 409.95 72 410.19 72.14C410.31 72.18 410.43 72.39 410.43 72.56C410.43 72.9 410.07 73.15 408.91 73.57V81.26L412.54 79.92C412.513 73.4533 412.433 69.2233 412.3 67.23C413.54 67.36 414.53 67.48 415.13 67.52C417.88 67.86 418.36 67.98 418.36 68.44C418.36 68.82 418 69.07 416.8 69.49V78.35L420.75 76.92C421.47 75.58 421.71 75.2 422.51 73.94C424.19 74.86 424.7 75.16 426.18 76.04C426.58 76.29 426.78 76.5 426.78 76.75C426.78 77.13 426.46 77.42 425.38 78.05C425.1 84.9 425.02 86.28 424.82 88.47C424.46 92.5 424.02 93.85 422.74 94.56C421.94 94.98 420.78 95.27 419.71 95.27C419.31 95.27 419.23 95.14 419.19 94.64C419.15 93.34 418.83 92.41 418.31 91.78C417.99 91.44 417.71 91.28 416.83 90.9C416.83 92.92 416.83 93.5 416.91 96.11C416.91 97.12 416.55 97.24 413.96 97.24C412.64 97.24 412.44 97.11 412.44 96.32C412.56 88.09 412.56 87.92 412.56 84.94C412.56 84.73 412.56 83.18 412.52 80.86L408.85 82.2V99.21C408.85 99.84 408.93 100.09 409.17 100.18C409.49 100.35 411.05 100.47 413.04 100.47C420.62 100.47 422.14 100.39 422.78 100.01C423.5 99.55 424.26 97.62 426.33 91.1L426.81 91.18L426.33 98.15C426.29 98.49 426.29 98.7 426.29 98.82C426.29 99.24 426.41 99.41 426.97 99.7C427.81 100.16 428.13 100.71 428.13 101.46C428.13 102.76 427.41 103.52 425.86 103.94C424.78 104.23 421.15 104.44 416.88 104.44C415.68 104.44 409.66 104.36 408.98 104.31C405.47 104.18 404.67 103.6 404.63 100.86C404.67 94.18 404.67 88.47 404.67 83.68L403.63 84.06L403.64 84.12ZM416.81 79.33C416.81 83.41 416.81 87.06 416.85 90.38C418.05 90.51 418.89 90.55 419.4 90.55C420.24 90.55 420.44 90.34 420.6 89.16C420.96 86.68 421.08 83.95 421.16 77.73L416.81 79.33Z" fill="white"/>
<path d="M431.41 84.08C432.53 84.25 433.49 84.37 434.12 84.37H436.67C437.55 83.28 437.87 82.94 438.78 81.85C440.34 82.94 440.82 83.32 442.29 84.5C442.49 84.71 442.57 84.88 442.57 85.05C442.57 85.43 442.41 85.55 441.09 86.31V96.43C442.13 98.03 442.93 98.82 443.88 99.29C445.56 100.09 448.43 100.42 453.7 100.42C457.49 100.42 463.83 100.08 469.46 99.62V100.08C467.9 101.09 467.31 101.97 466.91 103.99C466.83 104.37 466.71 104.45 466.27 104.49C465.75 104.53 459.41 104.7 457.73 104.7C449.23 104.7 446.32 104.24 444.12 102.56C442.41 101.3 441.49 99.87 440.13 96.43C438.77 98.82 437.78 100.21 434.98 103.61V103.86C434.98 103.99 434.98 104.11 435.02 104.36V104.7C435.02 105.25 434.82 105.54 434.5 105.54C434.3 105.54 434.06 105.37 433.9 105.04C433.46 104.28 432.98 103.28 432.5 102.1C432.26 101.55 431.9 100.71 431.38 99.62C433.02 99.07 434.93 98.11 436.77 96.85V85.26H434.1C433.54 85.26 432.46 85.39 431.75 85.51L431.39 84.08H431.41ZM433.33 67.7C439.16 70.05 441.47 71.9 441.47 74.25C441.47 76.1 439.87 78.24 438.48 78.24C437.84 78.24 437.52 77.82 437.16 76.52C436 72.4 435.08 70.56 433.01 68.03L433.33 67.69V67.7ZM453.16 74.29V70.59C453.16 69.16 453.12 68.41 453 66.98C458.35 67.57 458.99 67.74 458.99 68.32C458.99 68.7 458.63 68.95 457.43 69.41V74.28H460.66C461.78 72.81 462.14 72.39 463.33 70.96C465.21 72.43 465.76 72.93 467.56 74.57C467.68 74.7 467.76 74.82 467.76 74.86C467.76 75.03 467.56 75.15 467.32 75.15H457.42V81.87H461.97C463.17 80.32 463.57 79.85 464.88 78.43C466.84 80.03 467.39 80.53 469.23 82.25C469.35 82.33 469.39 82.42 469.39 82.5C469.39 82.67 469.19 82.75 468.87 82.75H444.13C443.49 82.75 442.45 82.83 441.94 82.96L441.62 81.57C442.54 81.74 443.46 81.86 444.13 81.86H453.15V75.14H448.48C446.88 77.49 445.45 79.13 443.13 81.06L442.77 80.77C444.13 78.08 445.12 75.39 446.04 71.91C446.4 70.52 446.6 69.56 446.76 67.88C451.27 69.1 451.75 69.27 452.27 69.64C452.51 69.81 452.63 69.93 452.63 70.1C452.63 70.52 452.35 70.65 450.79 70.98C449.95 72.7 449.67 73.21 449.03 74.26H453.14L453.16 74.29ZM460.38 86.77C461.26 85.8 461.54 85.51 462.54 84.54C464.02 85.51 464.46 85.8 465.85 86.85C466.13 87.02 466.25 87.19 466.25 87.35C466.25 87.6 465.97 87.94 465.01 88.65V90.79C465.01 92.89 465.05 95.16 465.09 97.76C465.05 98.26 464.89 98.43 464.37 98.56C463.97 98.64 462.45 98.77 461.7 98.77C461.02 98.77 460.78 98.6 460.7 98.01V96.25H450.05V98.01C449.97 98.77 449.45 98.93 447.54 98.93C445.94 98.93 445.74 98.85 445.66 98.17C445.78 95.65 445.82 93.38 445.82 89.85C445.82 86.99 445.78 85.99 445.66 84.39C447.78 85.36 448.41 85.69 450.41 86.74H460.39L460.38 86.77ZM450.05 95.38H460.7V87.65H450.05V95.38Z" fill="white"/>
<path d="M476.5 78.66C475.66 79.46 474.67 80.3 472.79 81.77L472.43 81.39C475.86 76.39 478.06 71.39 478.81 66.94C480.13 67.23 481.16 67.49 481.8 67.61C484.51 68.2 484.99 68.37 484.99 68.83C484.99 69.21 484.51 69.42 483.24 69.63L483.08 69.88C487.59 71.81 488.55 72.57 488.55 74.08C488.55 75.59 487.47 77.15 486.39 77.15C486.19 77.15 485.91 77.02 485.79 76.86C485.71 76.72 485.537 76.23 485.27 75.39C484.51 73.08 483.95 72.03 482.76 70.52C480.76 73.92 479.05 76.23 476.73 78.42C477.13 78.5 478.01 78.59 478.45 78.59H482.6C483.4 77.46 483.68 77.12 484.52 76.03C486.04 77.25 486.48 77.63 487.79 78.89C487.95 79.06 487.99 79.14 487.99 79.23C487.99 79.4 487.83 79.48 487.55 79.48H482.72V84.77H483.6C484.48 83.59 484.76 83.26 485.68 82.12C487.08 83.38 487.51 83.8 488.87 85.1C488.99 85.23 489.03 85.31 489.03 85.39C489.03 85.56 488.87 85.64 488.63 85.64H482.72V98.37C484.92 98.08 485.87 97.91 488.43 97.4L488.55 97.95C483.96 100.26 481.09 101.56 475.86 103.62C475.66 104.96 475.5 105.34 475.14 105.34C474.66 105.34 474.5 104.75 473.18 99.33C475.1 99.33 475.57 99.29 478.97 98.87V85.64H475.46C474.86 85.64 474.26 85.72 473.58 85.89L473.3 84.46C474.1 84.67 474.78 84.75 475.49 84.75H478.96V79.46H478.4C477.68 79.46 477.2 79.5 476.6 79.63L476.48 78.66H476.5ZM474.15 87.48C476.62 89.58 478.14 91.85 478.14 93.57C478.14 95.29 476.82 97.01 475.63 97.01C475.11 97.01 474.91 96.55 474.91 95.2C474.83 92.13 474.59 90.5 473.79 87.72L474.15 87.47V87.48ZM482.57 105.46C485.4 103.82 486.96 102.77 488.87 101.09C490.55 99.62 491.3 98.74 492.3 97.31C493.38 97.77 494.26 98.15 494.77 98.4C496.92 99.28 497.52 99.66 497.52 100.08C497.52 100.5 497.16 100.58 495.48 100.63C491.13 103.44 488.18 104.66 482.67 106.01L482.55 105.46H482.57ZM483.44 97.02C484.4 92.52 484.72 90.3 484.8 87.44C488.87 88.95 489.35 89.2 489.35 89.58C489.35 89.96 488.95 90.13 488.03 90.25C486.47 93.36 485.76 94.62 483.88 97.22L483.44 97.01V97.02ZM507.27 92.52C509.15 94.07 509.42 94.28 510.94 95.76C511.06 95.93 511.14 96.05 511.14 96.18C511.14 96.31 510.98 96.39 510.66 96.39H489.51C488.51 96.39 488.07 96.43 487.2 96.68L486.96 95.21C487.88 95.42 488.6 95.5 489.51 95.5H504.63C505.55 94.45 505.75 94.2 506.43 93.4C505.71 93.53 505.27 93.57 504.51 93.57C503.31 93.57 503.15 93.49 503.11 92.77V92.18H493.97V93.1C493.93 93.86 493.49 94.02 491.46 94.02C490.06 94.02 489.9 93.94 489.9 93.22C489.98 89.5533 490.02 86.4033 490.02 83.77C490.02 79.23 489.98 77.47 489.86 74.86C491.86 75.83 492.45 76.12 494.29 77.17H496.4V73.05H491.37C490.49 73.05 489.97 73.09 489.14 73.3L488.9 71.83C489.98 72.08 490.5 72.17 491.41 72.17H496.4V71.33C496.4 69.69 496.36 68.85 496.2 67.09C501.75 67.59 502.03 67.64 502.03 68.18C502.03 68.56 501.67 68.81 500.47 69.19V72.17H503.86C504.94 70.78 505.26 70.36 506.37 69.06C508.09 70.45 508.56 70.91 510.2 72.38C510.36 72.59 510.44 72.67 510.44 72.8C510.44 72.97 510.24 73.05 509.96 73.05H500.46V77.17H502.85C503.77 76.2 504.05 75.87 504.93 74.94C506.21 75.82 506.61 76.12 507.84 77.08C508.24 77.42 508.4 77.63 508.4 77.84C508.4 78.18 508.04 78.43 507.08 78.89V81.66C507.08 84.9 507.12 88.13 507.24 92.46V92.5L507.27 92.52ZM503.12 81.69V78.08H493.98V81.69H503.12ZM493.98 82.57V86.27H503.12V82.57H493.98ZM493.98 87.15V91.31H503.12V87.15H493.98ZM499.29 97.78C508.03 99.04 509.74 99.84 509.74 102.7C509.74 104.38 508.98 105.6 507.94 105.6C507.42 105.6 507.14 105.39 506.58 104.68C505.98 103.88 504.75 102.5 503.91 101.74C502.71 100.61 501.68 99.85 499.08 98.21L499.28 97.79L499.29 97.78Z" fill="white"/>
<path d="M144.03 22.24H2.06006V156.63H127.96" stroke="url(#paint9_radial_2_3515)" stroke-width="2" stroke-miterlimit="10"/>
<path d="M425.06 22.24H565.03V158.06H442.92" stroke="url(#paint10_radial_2_3515)" stroke-width="2" stroke-miterlimit="10"/>
</g>
<defs>
<filter id="filter0_d_2_3515" x="0.0600586" y="0.73999" width="576.97" height="181.41" filterUnits="userSpaceOnUse" color-interpolation-filters="sRGB">
<feFlood flood-opacity="0" result="BackgroundImageFix"/>
<feColorMatrix in="SourceAlpha" type="matrix" values="0 0 0 0 0 0 0 0 0 0 0 0 0 0 0 0 0 0 127 0" result="hardAlpha"/>
<feOffset dx="5" dy="5"/>
<feGaussianBlur stdDeviation="3"/>
<feColorMatrix type="matrix" values="0 0 0 0 0 0 0 0 0 0 0 0 0 0 0 0 0 0 0.35 0"/>
<feBlend mode="normal" in2="BackgroundImageFix" result="effect1_dropShadow_2_3515"/>
<feBlend mode="normal" in="SourceGraphic" in2="effect1_dropShadow_2_3515" result="shape"/>
</filter>
<radialGradient id="paint0_radial_2_3515" cx="0" cy="0" r="1" gradientUnits="userSpaceOnUse" gradientTransform="translate(111.81 132.65) scale(371.46 371.46)">
<stop stop-color="#A27057"/>
<stop offset="0.14" stop-color="#BF9261"/>
<stop offset="0.28" stop-color="#D6A569"/>
<stop offset="0.47" stop-color="#FFC677"/>
<stop offset="0.82" stop-color="#AA815D"/>
<stop offset="1" stop-color="#DAAB6B"/>
</radialGradient>
<radialGradient id="paint1_radial_2_3515" cx="0" cy="0" r="1" gradientUnits="userSpaceOnUse" gradientTransform="translate(111.81 132.65) scale(371.46 371.46)">
<stop stop-color="#A27057"/>
<stop offset="0.14" stop-color="#BF9261"/>
<stop offset="0.28" stop-color="#D6A569"/>
<stop offset="0.47" stop-color="#FFC677"/>
<stop offset="0.82" stop-color="#AA815D"/>
<stop offset="1" stop-color="#DAAB6B"/>
</radialGradient>
<radialGradient id="paint2_radial_2_3515" cx="0" cy="0" r="1" gradientUnits="userSpaceOnUse" gradientTransform="translate(111.81 132.65) scale(371.46 371.46)">
<stop stop-color="#A27057"/>
<stop offset="0.14" stop-color="#BF9261"/>
<stop offset="0.28" stop-color="#D6A569"/>
<stop offset="0.47" stop-color="#FFC677"/>
<stop offset="0.82" stop-color="#AA815D"/>
<stop offset="1" stop-color="#DAAB6B"/>
</radialGradient>
<radialGradient id="paint3_radial_2_3515" cx="0" cy="0" r="1" gradientUnits="userSpaceOnUse" gradientTransform="translate(111.81 132.65) scale(371.46 371.46)">
<stop stop-color="#A27057"/>
<stop offset="0.14" stop-color="#BF9261"/>
<stop offset="0.28" stop-color="#D6A569"/>
<stop offset="0.47" stop-color="#FFC677"/>
<stop offset="0.82" stop-color="#AA815D"/>
<stop offset="1" stop-color="#DAAB6B"/>
</radialGradient>
<radialGradient id="paint4_radial_2_3515" cx="0" cy="0" r="1" gradientUnits="userSpaceOnUse" gradientTransform="translate(111.81 132.65) scale(371.461 371.46)">
<stop stop-color="#A27057"/>
<stop offset="0.14" stop-color="#BF9261"/>
<stop offset="0.28" stop-color="#D6A569"/>
<stop offset="0.47" stop-color="#FFC677"/>
<stop offset="0.82" stop-color="#AA815D"/>
<stop offset="1" stop-color="#DAAB6B"/>
</radialGradient>
<radialGradient id="paint5_radial_2_3515" cx="0" cy="0" r="1" gradientUnits="userSpaceOnUse" gradientTransform="translate(111.81 132.65) scale(371.46 371.46)">
<stop stop-color="#A27057"/>
<stop offset="0.14" stop-color="#BF9261"/>
<stop offset="0.28" stop-color="#D6A569"/>
<stop offset="0.47" stop-color="#FFC677"/>
<stop offset="0.82" stop-color="#AA815D"/>
<stop offset="1" stop-color="#DAAB6B"/>
</radialGradient>
<radialGradient id="paint6_radial_2_3515" cx="0" cy="0" r="1" gradientUnits="userSpaceOnUse" gradientTransform="translate(111.81 132.65) scale(371.46 371.46)">
<stop stop-color="#A27057"/>
<stop offset="0.14" stop-color="#BF9261"/>
<stop offset="0.28" stop-color="#D6A569"/>
<stop offset="0.47" stop-color="#FFC677"/>
<stop offset="0.82" stop-color="#AA815D"/>
<stop offset="1" stop-color="#DAAB6B"/>
</radialGradient>
<radialGradient id="paint7_radial_2_3515" cx="0" cy="0" r="1" gradientUnits="userSpaceOnUse" gradientTransform="translate(111.81 132.65) scale(371.46 371.46)">
<stop stop-color="#A27057"/>
<stop offset="0.14" stop-color="#BF9261"/>
<stop offset="0.28" stop-color="#D6A569"/>
<stop offset="0.47" stop-color="#FFC677"/>
<stop offset="0.82" stop-color="#AA815D"/>
<stop offset="1" stop-color="#DAAB6B"/>
</radialGradient>
<radialGradient id="paint8_radial_2_3515" cx="0" cy="0" r="1" gradientUnits="userSpaceOnUse" gradientTransform="translate(111.81 132.65) scale(371.46 371.46)">
<stop stop-color="#A27057"/>
<stop offset="0.14" stop-color="#BF9261"/>
<stop offset="0.28" stop-color="#D6A569"/>
<stop offset="0.47" stop-color="#FFC677"/>
<stop offset="0.82" stop-color="#AA815D"/>
<stop offset="1" stop-color="#DAAB6B"/>
</radialGradient>
<radialGradient id="paint9_radial_2_3515" cx="0" cy="0" r="1" gradientUnits="userSpaceOnUse" gradientTransform="translate(72.5501 89.43) scale(69.86)">
<stop stop-color="#A27057"/>
<stop offset="0.2" stop-color="#FFE69C"/>
<stop offset="0.33" stop-color="#DFBC7F"/>
<stop offset="0.46" stop-color="#BF9261"/>
<stop offset="0.54" stop-color="#D6A569"/>
<stop offset="0.65" stop-color="#FFC677"/>
<stop offset="0.83" stop-color="#AA815D"/>
<stop offset="1" stop-color="#DAAB6B"/>
</radialGradient>
<radialGradient id="paint10_radial_2_3515" cx="0" cy="0" r="1" gradientUnits="userSpaceOnUse" gradientTransform="translate(495.55 90.15) scale(69.7 69.7)">
<stop stop-color="#A27057"/>
<stop offset="0.2" stop-color="#FFE69C"/>
<stop offset="0.33" stop-color="#DFBC7F"/>
<stop offset="0.46" stop-color="#BF9261"/>
<stop offset="0.54" stop-color="#D6A569"/>
<stop offset="0.65" stop-color="#FFC677"/>
<stop offset="0.83" stop-color="#AA815D"/>
<stop offset="1" stop-color="#DAAB6B"/>
</radialGradient>
</defs>
</svg>
