<svg width="438" height="48" viewBox="0 0 438 48" fill="none" xmlns="http://www.w3.org/2000/svg">
<path d="M47.15 16.2004V20.4504H18.75V16.2004H29.85V14.0004H20.75V10.0504H29.85V8.05039H19.5V6.20039C18.2 9.45039 16.8 13.0004 15.75 15.3504L12.45 14.1004V16.7504H17.8V22.3004H12.45V25.8004L14.55 24.3004C15.55 25.4504 18.95 30.3504 19.75 31.5504L16 35.8504C15.25 33.9004 13.7 30.6004 12.45 28.2504V46.8504H7.25V30.3004C6.15 34.5504 4.55 38.7504 2.45 41.2004C1.95 39.4504 0.85 36.8004 0 35.1004C2 32.5504 3.9 27.9504 4.6 24.1504L7.25 25.1004V22.3004H0.85V16.7504H7.25V0.200391H12.45V13.0004C13.45 10.2004 14.5 6.30039 15.05 3.50039L19.5 4.90039V3.80039H29.85V0.150391H35.6V3.80039H46.5V8.05039H35.6V10.0504H45.5V14.0004H35.6V16.2004H47.15ZM2.9 15.1004C2.6 12.2004 1.65 7.75039 0.75 4.40039L4.85 3.40039C5.8 6.75039 6.85 11.1504 7.25 14.0004L2.9 15.1004ZM44.75 41.4504C44.75 43.9504 44.3 45.2504 42.55 46.0004C40.9 46.7504 38.55 46.8504 35.4 46.8004C35.2 45.4004 34.5 43.4004 33.85 42.1004C35.7 42.1504 37.8 42.1504 38.4 42.1504C39.05 42.1504 39.25 41.9504 39.25 41.4004V39.3004H25.7C25.1 42.2004 23.95 45.0504 22.05 47.2504C21.2 46.2004 19 44.1504 17.9 43.5004C20.8 40.0004 21.1 35.3004 21.1 31.4004V22.5004H44.75V41.4504ZM39.25 35.4504V33.0504H26.45C26.4 33.8504 26.35 34.6504 26.3 35.4504H39.25ZM26.45 26.8504V29.2004H39.25V26.8504H26.45Z" fill="url(#paint0_radial_1_439)"/>
<path d="M96.7 37.3996V43.3996H51.25V37.3996H70.3V11.5496H53.95V5.34961H93.9V11.5496H77.1V37.3996H96.7Z" fill="url(#paint1_radial_1_439)"/>
<path d="M147.4 44.5504H132.7V46.9504H127.6V20.5504C127 21.5004 126.4 22.4504 125.8 23.3004C125.55 22.9004 125.15 22.3004 124.7 21.6504V40.1004C124.7 42.6004 124.3 44.2004 122.7 45.1004C121.15 46.0004 119 46.2004 116 46.2004C115.75 44.7504 114.85 42.2504 114.05 40.8504C116.2 41.0004 118.25 40.9504 118.95 40.9504C119.65 40.9504 119.85 40.7004 119.85 40.0004V22.3004H107.5V22.3504C107.5 29.6504 107.1 40.0004 104.6 46.6504C103.6 45.9004 101.4 44.7504 100.2 44.3004C102.6 38.1504 102.7 29.1504 102.7 22.3504V2.15039H124.7V15.2504C127.1 11.0004 129.15 5.50039 130.5 0.150391L135.5 1.40039C134.75 4.10039 133.95 6.80039 132.9 9.45039H137.95C137.5 7.40039 136.55 4.65039 135.65 2.50039L139.9 0.800391C141.05 3.15039 142.15 6.20039 142.6 8.25039L139.75 9.45039H146.75V14.7504H141.45V19.3504H146.35V24.3504H141.45V29.1504H146.35V34.1504H141.45V39.1504H147.4V44.5504ZM107.5 7.15039V10.8004H111.55V7.15039H107.5ZM107.5 18.2004H111.55V15.1004H107.5V18.2004ZM112 37.6004V40.1004H108.6V24.5004H118.55V37.6004H112ZM112 28.5004V33.6504H115.25V28.5004H112ZM119.85 7.15039H115.65V10.8004H119.85V7.15039ZM119.85 18.2004V15.1004H115.65V18.2004H119.85ZM136.6 14.7504H132.7V19.3504H136.6V14.7504ZM136.6 24.3504H132.7V29.1504H136.6V24.3504ZM132.7 39.1504H136.6V34.1504H132.7V39.1504Z" fill="url(#paint2_radial_1_439)"/>
<path d="M197.3 16.8C195.55 18.1 193.7 19.5 191.75 20.75C192.85 27.15 194.85 33.85 198 37.3C196.7 38.3 194.85 40.25 194.05 41.7C190.8 37.65 188.85 30.65 187.65 23.5C187.05 23.9 186.4 24.3 185.8 24.65C187.95 32.65 186.8 40.95 184.1 43.65C182.5 45.6 180.8 46.25 178.15 46.3C177.05 46.3 175.5 46.3 174.05 46.2C174 44.55 173.55 42.3 172.6 40.7C174.35 40.9 175.95 40.95 177.1 40.95C178.25 40.95 179 40.75 179.65 39.5C180.65 38.4 181.35 35.35 181.2 31.65C180.6 32.2 179.9 32.8 179.25 33.35C179.7 34.45 180.1 35.55 180.35 36.55L176.15 39.35C175.9 38.5 175.6 37.45 175.2 36.35C173 37.9 170.75 39.15 168.6 40.15C168.15 39.25 167.45 38.05 166.7 37C161.3 38.7 155.5 40.5 151 41.9L150 36.2C151.7 35.8 153.7 35.25 155.9 34.65V22.8H151.2V17.35H155.9V8.55H150.8V3H166.25V8.55H161.1V17.35H165.1V22.8H161.1V33.15C162.85 32.65 164.55 32.15 166.25 31.6L166.7 35.15C168.85 34.3 171.15 33.15 173.25 31.75C172.85 30.85 172.35 29.95 171.9 29.15C170.75 29.85 169.6 30.55 168.5 31.1C167.8 29.75 166.55 27.8 165.45 26.7C166.75 26.2 168.05 25.55 169.45 24.8C169.05 24.2 168.7 23.6 168.3 23L172.1 20.55C172.5 21.15 172.9 21.75 173.3 22.35C175 21.15 176.45 19.95 177.6 18.7C177.15 17.95 176.6 17.25 176.05 16.55C173.85 18.2 171.45 19.65 169.15 20.8C168.4 19.7 166.7 17.3 165.6 16.15C169.8 14.45 174.05 11.85 177.3 8.9H168V3.2H196.45V8.9H184.35C183.05 10.5 181.55 12 179.9 13.5C181.7 15.35 183.1 17.5 184.1 19.85C187.35 17.6 190.9 14.75 193.25 12.25L197.3 16.8ZM180.45 25.75C180.25 24.9 179.95 24 179.65 23.1C178.5 24.2 177.15 25.3 175.75 26.35C176.25 27.25 176.75 28.1 177.2 28.95C178.45 27.9 179.55 26.8 180.45 25.75Z" fill="url(#paint3_radial_1_439)"/>
<path d="M203.4 20.8498L208.6 16.2998C212.15 19.1998 216.95 24.1498 219.5 27.2498L214.15 31.8498C211.1 28.0998 206.85 23.7998 203.4 20.8498Z" fill="url(#paint4_radial_1_439)"/>
<path d="M243.75 21.5996C241.35 31.9496 236.15 39.6996 230.05 43.7996C229.05 42.5496 226.7 40.2496 225.25 39.3496C229.95 36.5496 233.9 31.6496 236.2 25.7496H226.5V20.1496H238.7L239.75 19.8996L243.75 21.5996ZM270.85 18.1996C267.1 21.5996 262.5 25.3496 258.7 27.8996C262.2 32.6996 266.75 36.3996 272.6 38.6996C271.2 39.8496 269.35 42.2996 268.45 43.8996C261.2 40.6496 256.05 35.2996 252.3 28.4496V39.8996C252.3 43.1496 251.65 44.7496 249.5 45.7496C247.45 46.6996 244.4 46.7496 240.2 46.7496C239.95 45.0496 239 42.3996 238.2 40.7996C240.7 40.9496 243.8 40.9496 244.7 40.8996C245.6 40.8496 245.9 40.5996 245.9 39.7996V15.9496H233.4V10.2496H251.95C247.7 8.34961 241.9 6.39961 237.3 5.19961L240.25 0.349609C246.05 1.59961 254.4 4.24961 258.65 6.44961L255.45 11.9996C254.6 11.4996 253.5 10.9496 252.3 10.3996V14.5496C253.25 17.6996 254.45 20.6496 255.85 23.3496C259.25 20.6496 263 17.1496 265.4 14.1496L270.85 18.1996Z" fill="url(#paint5_radial_1_439)"/>
<path d="M281 10.5004C281.05 15.2504 280.3 21.0504 278.6 24.7004L274.85 23.0504C276.45 19.9504 277.2 14.5004 277.25 10.0004L281 10.5004ZM289.15 20.0004C288.95 18.0504 288.2 15.2504 287.25 12.6504V46.8504H281.6V0.150391H287.25V9.45039L289.6 8.60039C291.05 11.7504 292.45 15.8504 292.8 18.4504L289.15 20.0004ZM322.2 39.8004V45.3504H290.05V39.8004H308.95C309.95 33.8004 311.1 25.7504 311.9 18.4004H302.2L302 19.4504C304.8 20.7004 308.65 22.6004 310.5 24.0004L307.85 28.0004C306.4 26.8004 303.7 25.2504 301.2 24.0004L300.45 27.7004C303.45 29.1504 307.25 31.4004 309.2 32.9004L306.15 36.8004C304.7 35.5504 302.1 33.7504 299.6 32.2504C299.35 33.6004 299.05 34.8504 298.8 36.0004L292.95 35.5504C294.65 28.6004 296.7 17.2504 297.95 8.25039H291.25V2.80039H321.35V8.25039H303.9C303.65 9.85039 303.4 11.4504 303.1 13.1504H318.55C317.7 21.8004 316.4 32.4504 315.25 39.8004H322.2Z" fill="url(#paint6_radial_1_439)"/>
<path d="M340.6 31.2C340.5 30.55 340.35 29.8 340.2 29C330.2 30.5 328.4 30.9 327.3 31.45C327 30.35 326.1 27.7 325.45 26.2C326.7 25.9 327.8 24.8 329.35 22.95C329.95 22.25 331.1 20.8 332.5 18.8C328.75 19.25 327.65 19.55 326.9 19.9C326.6 18.85 325.75 16.35 325.15 15C326.15 14.7 327 13.75 328 12.25C329.05 10.85 332.2 5.3 333.95 0L339.1 2.1C337.3 6.25 334.9 10.5 332.4 14.05L335.7 13.8C336.9 11.7 338.1 9.5 339.05 7.3L343.95 10.3C341.15 15.45 337.5 20.8 333.75 25.2L339 24.55C338.65 23.2 338.2 21.85 337.8 20.65L342.05 19.3C343.3 22.6 344.65 26.95 345.15 29.6L340.6 31.2ZM332.25 33.75C331.9 38.4 331 43.35 329.95 46.55C328.9 45.95 326.55 45.25 325.3 44.85C326.5 41.85 327.1 37.25 327.4 33L332.25 33.75ZM337.35 32.9C337.95 36.25 338.55 40.4 338.7 43.2L334.15 44.1C334.1 41.35 333.6 37.05 333.1 33.75L337.35 32.9ZM342.3 31.4C343.2 33.8 344.15 36.95 344.6 38.95L340.4 40.45C340.05 38.35 339.1 35.15 338.25 32.65L342.3 31.4ZM372.2 40.25V45.7H343.55V40.25H354.85V33.35H345.85V28.05H370.15V33.35H360.85V40.25H372.2ZM354.15 9.55C352.7 12.15 350.95 14.95 349.35 17.3C351.45 20.05 353.5 23.15 354.5 25.3L349.75 27.15C348.65 24.55 346.45 20.8 343.85 17.4C345.9 14.4 347.95 10.75 349.1 8.35L354.15 9.55ZM371.6 7.55H344.65V2.25H371.6V7.55ZM358.2 26.95C357.15 24.4 354.85 20.65 352.2 17.3C354.25 14.4 356.3 10.8 357.5 8.45L362.55 9.6C361 12.15 359.25 14.95 357.7 17.25C359.75 19.9 361.9 22.95 362.95 25L358.2 26.95ZM367.05 27.15C365.85 24.55 363.3 20.75 360.45 17.4C362.55 14.45 364.75 10.75 365.95 8.35L371.05 9.55C369.45 12.2 367.7 14.95 366.1 17.3C368.3 19.95 370.6 23 371.75 25.1L367.05 27.15Z" fill="url(#paint7_radial_1_439)"/>
<path d="M422.1 35.35H407.7C412.65 37.75 418 40.65 421.15 42.7L415.65 46.7C412.6 44.45 407.15 41.1 402.2 38.65L405.8 35.35H391L395.7 38.45C391.8 41.55 385.45 44.95 380.3 46.85C379.15 45.6 377.1 43.65 375.6 42.55C380.55 40.9 386.4 37.85 389.65 35.35H375.55V29.75H380.5V5.9H390.85V0H396.4V5.9H401.15V0H406.8V5.9H417.6V29.75H422.1V35.35ZM386.25 11.4V17.6H390.85V11.4H386.25ZM386.25 29.75H390.85V23.1H386.25V29.75ZM396.4 11.4V17.6H401.15V11.4H396.4ZM401.15 23.1H396.4V29.75H401.15V23.1ZM406.8 11.4V17.6H411.6V11.4H406.8ZM406.8 29.75H411.6V23.1H406.8V29.75Z" fill="url(#paint8_radial_1_439)"/>
<path d="M428.55 38.4C428.55 35.65 430.5 33.6 433.1 33.6C435.7 33.6 437.7 35.65 437.7 38.4C437.7 41.15 435.7 43.2 433.1 43.2C430.5 43.2 428.55 41.1 428.55 38.4ZM429.65 11.45L429.4 4.5H436.8L436.55 11.45L435.5 29.9H430.7L429.65 11.45Z" fill="url(#paint9_radial_1_439)"/>
<defs>
<radialGradient id="paint0_radial_1_439" cx="0" cy="0" r="1" gradientUnits="userSpaceOnUse" gradientTransform="translate(-165.99 28.4604) scale(730.94 730.94)">
<stop stop-color="#A27057"/>
<stop offset="0.2" stop-color="#BF9261"/>
<stop offset="0.32" stop-color="#D6A569"/>
<stop offset="0.47" stop-color="#FFC677"/>
<stop offset="0.72" stop-color="#AA815D"/>
<stop offset="1" stop-color="#DAAB6B"/>
</radialGradient>
<radialGradient id="paint1_radial_1_439" cx="0" cy="0" r="1" gradientUnits="userSpaceOnUse" gradientTransform="translate(-165.99 28.4596) scale(730.94 730.94)">
<stop stop-color="#A27057"/>
<stop offset="0.2" stop-color="#BF9261"/>
<stop offset="0.32" stop-color="#D6A569"/>
<stop offset="0.47" stop-color="#FFC677"/>
<stop offset="0.72" stop-color="#AA815D"/>
<stop offset="1" stop-color="#DAAB6B"/>
</radialGradient>
<radialGradient id="paint2_radial_1_439" cx="0" cy="0" r="1" gradientUnits="userSpaceOnUse" gradientTransform="translate(-165.99 28.4604) scale(730.94 730.94)">
<stop stop-color="#A27057"/>
<stop offset="0.2" stop-color="#BF9261"/>
<stop offset="0.32" stop-color="#D6A569"/>
<stop offset="0.47" stop-color="#FFC677"/>
<stop offset="0.72" stop-color="#AA815D"/>
<stop offset="1" stop-color="#DAAB6B"/>
</radialGradient>
<radialGradient id="paint3_radial_1_439" cx="0" cy="0" r="1" gradientUnits="userSpaceOnUse" gradientTransform="translate(-165.99 28.46) scale(730.94 730.94)">
<stop stop-color="#A27057"/>
<stop offset="0.2" stop-color="#BF9261"/>
<stop offset="0.32" stop-color="#D6A569"/>
<stop offset="0.47" stop-color="#FFC677"/>
<stop offset="0.72" stop-color="#AA815D"/>
<stop offset="1" stop-color="#DAAB6B"/>
</radialGradient>
<radialGradient id="paint4_radial_1_439" cx="0" cy="0" r="1" gradientUnits="userSpaceOnUse" gradientTransform="translate(-165.99 28.4598) scale(730.94 730.94)">
<stop stop-color="#A27057"/>
<stop offset="0.2" stop-color="#BF9261"/>
<stop offset="0.32" stop-color="#D6A569"/>
<stop offset="0.47" stop-color="#FFC677"/>
<stop offset="0.72" stop-color="#AA815D"/>
<stop offset="1" stop-color="#DAAB6B"/>
</radialGradient>
<radialGradient id="paint5_radial_1_439" cx="0" cy="0" r="1" gradientUnits="userSpaceOnUse" gradientTransform="translate(-165.99 28.4596) scale(730.94 730.94)">
<stop stop-color="#A27057"/>
<stop offset="0.2" stop-color="#BF9261"/>
<stop offset="0.32" stop-color="#D6A569"/>
<stop offset="0.47" stop-color="#FFC677"/>
<stop offset="0.72" stop-color="#AA815D"/>
<stop offset="1" stop-color="#DAAB6B"/>
</radialGradient>
<radialGradient id="paint6_radial_1_439" cx="0" cy="0" r="1" gradientUnits="userSpaceOnUse" gradientTransform="translate(-165.99 28.4604) scale(730.94 730.94)">
<stop stop-color="#A27057"/>
<stop offset="0.2" stop-color="#BF9261"/>
<stop offset="0.32" stop-color="#D6A569"/>
<stop offset="0.47" stop-color="#FFC677"/>
<stop offset="0.72" stop-color="#AA815D"/>
<stop offset="1" stop-color="#DAAB6B"/>
</radialGradient>
<radialGradient id="paint7_radial_1_439" cx="0" cy="0" r="1" gradientUnits="userSpaceOnUse" gradientTransform="translate(-165.99 28.46) scale(730.94 730.94)">
<stop stop-color="#A27057"/>
<stop offset="0.2" stop-color="#BF9261"/>
<stop offset="0.32" stop-color="#D6A569"/>
<stop offset="0.47" stop-color="#FFC677"/>
<stop offset="0.72" stop-color="#AA815D"/>
<stop offset="1" stop-color="#DAAB6B"/>
</radialGradient>
<radialGradient id="paint8_radial_1_439" cx="0" cy="0" r="1" gradientUnits="userSpaceOnUse" gradientTransform="translate(-165.99 28.46) scale(730.94 730.94)">
<stop stop-color="#A27057"/>
<stop offset="0.2" stop-color="#BF9261"/>
<stop offset="0.32" stop-color="#D6A569"/>
<stop offset="0.47" stop-color="#FFC677"/>
<stop offset="0.72" stop-color="#AA815D"/>
<stop offset="1" stop-color="#DAAB6B"/>
</radialGradient>
<radialGradient id="paint9_radial_1_439" cx="0" cy="0" r="1" gradientUnits="userSpaceOnUse" gradientTransform="translate(-165.992 28.46) scale(730.942 730.94)">
<stop stop-color="#A27057"/>
<stop offset="0.2" stop-color="#BF9261"/>
<stop offset="0.32" stop-color="#D6A569"/>
<stop offset="0.47" stop-color="#FFC677"/>
<stop offset="0.72" stop-color="#AA815D"/>
<stop offset="1" stop-color="#DAAB6B"/>
</radialGradient>
</defs>
</svg>
