<svg width="1920" height="693" viewBox="0 0 1920 693" fill="none" xmlns="http://www.w3.org/2000/svg">
<mask id="mask0_2_3493" style="mask-type:luminance" maskUnits="userSpaceOnUse" x="0" y="0" width="1921" height="693">
<path d="M1920.67 0H0.669922V692.98H1920.67V0Z" fill="white"/>
</mask>
<g mask="url(#mask0_2_3493)">
<path d="M168.02 499.78C134.12 510.91 99.45 527.49 64.56 549.28C33.79 568.49 18.8 581.19 -1.95001 598.77C-8.18002 604.05 -15.15 609.95 -23.17 616.54C-39.77 625.35 -56.59 634.07 -73.51 642.33C-135.9 672.81 -202.88 698.53 -270.9 718.29L-269.72 721.93C-250.89 716.46 -232.15 710.55 -213.58 704.2C-164.69 687.48 -116.8 667.72 -71.22 645.46C-42.44 631.4 -13.98 616.05 13.54 601.21C58.01 577.23 104 552.43 152.2 532.64C242.78 495.45 328.5 484.05 387.37 501.37C445.39 518.44 471.75 558.44 499.66 600.8C511.79 619.2 524.15 637.94 539.45 654.76C539.59 655 539.72 655.24 539.87 655.47C540.05 655.76 540.34 655.97 540.69 656.11C552.67 669.06 566.46 680.81 583.34 690.3C640.12 722.23 732.79 727.59 837.6 705C921.08 687.01 1002.59 654.77 1081.42 623.59C1089.79 620.28 1098.14 616.97 1106.5 613.69C1129.85 604.5 1153.62 595.3 1177.71 586.53C1178.35 586.55 1179.06 586.4 1179.71 586.07L1181.66 585.09C1244.85 562.24 1310.23 542.5 1376.03 533.87C1481.61 520.03 1586.35 535.64 1670.94 577.83C1679.53 582.12 1687.91 586.68 1696.09 591.49C1696.15 591.59 1696.25 591.69 1696.39 591.75C1696.66 591.87 1696.92 592 1697.19 592.13C1750.72 623.87 1795.21 666.93 1829.91 720.58L1835.52 718.74C1823.47 700.05 1810.23 682.63 1795.85 666.51C1814.76 680.98 1836.08 695.52 1860.43 710.56L1863.13 709.67C1833.29 691.28 1807.99 673.65 1786.11 655.97C1769.45 638.59 1751.37 622.84 1731.9 608.77C1788.86 636.72 1843.71 666.94 1895.62 699L1898.31 698.12C1842.27 663.47 1782.8 630.94 1720.94 601.12C1706.33 591.29 1690.99 582.36 1674.93 574.35C1668.55 571.17 1662.04 568.15 1655.42 565.27C1755.31 598.86 1849.29 639.33 1935.52 685.9L1938.3 684.99C1842.94 633.4 1738.09 589.26 1626.25 553.65C1626.1 553.6 1625.92 553.59 1625.75 553.6C1598.11 543.86 1568.75 536.51 1537.95 531.66C1528.7 530.2 1519.4 528.99 1510.05 528.01C1585.24 531.07 1656.25 543.96 1731.69 567.76C1820.51 595.78 1900.93 633.86 1978.4 671.84L1981.25 670.91C1903.36 632.72 1822.52 594.36 1733.12 566.16C1646.51 538.84 1565.71 525.85 1477.77 525.58C1444.33 524.04 1410.45 525.5 1376.47 529.95C1354.35 532.85 1332.3 536.98 1310.38 542.06C1414.84 515.94 1521.13 508.38 1617.32 520.86C1683.58 529.46 1744.26 547.42 1802.93 564.79C1883.39 588.61 1966.36 613.17 2028.07 655.54L2030.7 654.68C2005.12 637.05 1973.63 621.01 1935.06 605.92C1892.57 589.3 1845.68 575.42 1804.32 563.17C1745.56 545.77 1684.79 527.79 1618.33 519.16C1556.28 511.11 1489.72 511.38 1420.48 519.97C1365.18 526.83 1310.32 538.73 1256.86 555.44C1257.44 555.16 1258.03 554.87 1258.61 554.59C1382.46 514.16 1516.66 496.89 1640 505.83C1762.58 514.71 1879.89 546.23 1988.68 599.52C2016.31 613.06 2042.92 627.77 2068.16 642.37L2070.9 641.47C2045.35 626.68 2018.39 611.75 1990.37 598.02C1881.34 544.61 1763.74 513.01 1640.84 504.11C1574.56 499.31 1505.55 501.89 1435.73 511.78C1379.84 519.7 1324.66 532.14 1271.11 548.88C1277.2 546.53 1283.31 544.21 1289.44 541.92C1454.3 491.04 1651.58 477.16 1806.67 505.79C1920.05 526.72 2024.37 567.08 2117.84 626.05L2120.44 625.2C2087.88 604.65 2053.86 586.25 2018.68 570.19C1952.47 539.96 1881.53 517.73 1807.81 504.12C1731.42 490.02 1642.46 486.01 1550.56 492.53C1468.99 498.32 1387.78 512.27 1313.53 533.15C1321.38 530.35 1329.25 527.62 1337.12 524.94C1506.58 480.64 1684.41 467.04 1839.69 486.67C1971.52 503.33 2091.2 544.47 2184.13 604.28L2186.92 603.36C2150.24 579.57 2109.41 558.72 2064.91 541.08C1996.59 514.01 1921.15 495.13 1840.69 484.96C1760.22 474.79 1674.58 473.31 1586.14 480.56C1510.28 486.78 1433.84 499.31 1358.39 517.86C1363.22 516.29 1368.04 514.74 1372.86 513.23C1563.55 467.95 1749.03 453.8 1909.74 472.32C2043.45 487.73 2160.38 526.28 2248.7 583.08L2251.38 582.2C2162.73 524.95 2045.17 486.11 1910.71 470.61C1755.83 452.76 1578.01 465.18 1394.69 506.51C1399.93 504.94 1405.15 503.39 1410.36 501.89C1581.67 458.55 1773.39 442.89 1937.95 458.96C2077.07 472.54 2203.23 508.56 2307 563.94L2309.79 563.02C2205.59 507.2 2078.76 470.9 1938.86 457.25C1855.67 449.13 1766.73 448.89 1674.5 456.53C1600.55 462.66 1527.65 473.61 1457.04 489.17C1502.17 477.67 1544.73 469.2 1581.61 464.69C1755.92 443.37 1904.67 439.31 2023.72 452.63C2146.41 466.36 2248 508.69 2345.49 551.29L2352.32 549.05C2343.2 545.07 2333.89 541.01 2324.4 536.93C2280.8 494.55 2215.27 434.39 2146.75 397.46C2094.71 369.41 2009.74 337.76 1900.49 346.28C1852.45 350.02 1802.63 361.59 1760.24 372.41C1704.28 386.69 1648.73 402.89 1593.8 420.93C1505.64 449.88 1419.07 483.58 1335.04 521.67C1324.72 525.18 1314.42 528.8 1304.15 532.51C1433.89 469.95 1568.01 409.03 1710.39 371.76C1892.24 324.16 2062.87 327.67 2166.81 381.15C2217.51 407.24 2253.69 444.86 2288.67 481.24C2310.24 503.68 2332.39 526.7 2358.04 547.18L2360.61 546.33C2334.77 525.78 2312.49 502.61 2290.78 480.04C2255.72 443.58 2219.46 405.87 2168.53 379.67C2140.46 365.23 2107.67 354.24 2071.06 347C2036.46 340.16 1998.19 336.62 1957.32 336.47C1880.83 336.19 1795.35 347.84 1710.11 370.15C1681.97 377.52 1654.17 385.8 1626.65 394.83C1509.37 433.34 1397.45 485.49 1288.55 538.21C1288.38 538.27 1288.22 538.33 1288.05 538.4C1403.55 479.03 1522.95 420.02 1649.83 378.08C1650.67 377.8 1651.48 377.53 1652.32 377.26C1810.59 325.29 1960.33 309.31 2074.18 332.27C2148.43 347.24 2215.13 379.6 2272.41 428.45C2313.53 463.52 2346.1 503.73 2373.68 542.03L2376.1 541.24C2348.43 502.8 2315.75 462.41 2274.43 427.17C2216.94 378.14 2149.96 345.65 2075.37 330.61C2014.82 318.4 1945.07 316.93 1868.06 326.26C1799.16 334.6 1726.44 351.24 1651.86 375.73C1651.02 376.01 1650.17 376.29 1649.33 376.56C1517.61 420.1 1394.03 481.95 1274.53 543.53C1257.54 550.03 1240.75 556.78 1224.31 563.73L1450.22 450.44C1480.33 435.34 1508.57 421.76 1535.46 409.46C1604.83 384.25 1676.2 358.91 1748.23 339.77C1836.89 316.21 1916.56 305.16 1985.05 306.91C2109.72 310.1 2200.22 354.76 2254.18 391.67C2314.19 432.71 2359.28 483.27 2398.08 534.03L2400.51 533.23C2361.59 482.29 2316.35 431.51 2256.08 390.29C2201.9 353.24 2111.03 308.4 1985.76 305.19C1916.95 303.43 1836.94 314.53 1747.95 338.17C1716.13 346.63 1684.45 356.28 1653.02 366.6C1619.96 377.46 1587.18 389.04 1554.8 400.73C1609.56 376.38 1659 357.41 1707.86 341.84C1837.15 303.78 1947.09 288.69 2041.6 295.84C2255.21 312 2367.67 439.53 2420.18 526.77L2425.78 524.93C2410.71 499.76 2393.64 476.08 2374.84 454.33C2349.37 424.85 2320.62 398.8 2289.4 376.88C2219 327.46 2136.3 298.85 2043.59 291.84C1948.29 284.63 1837.6 299.77 1707.57 337.99C1707.48 338.01 1707.39 338.03 1707.3 338.06C1707.16 338.1 1707.02 338.15 1706.88 338.2C1669.19 349.3 1629.88 362.32 1588.85 377.31C1529.35 399.04 1469.79 423.25 1412.2 446.66C1326.14 481.64 1237.15 517.81 1146.96 546.28C1023.54 585.24 846.4 624.08 703.37 587.82C622.52 567.32 562.24 525 503.93 484.07C475.13 463.85 445.42 443 413.34 424.8C412.01 423.98 410.67 423.16 409.31 422.37C409.07 422.23 408.79 422.14 408.49 422.09C407.59 421.59 406.7 421.09 405.8 420.59C354.43 392.47 294.2 371.11 226.8 357.09C161.03 343.42 89.84 337.02 15.2 338.07C-59.43 339.12 -135.64 347.59 -211.29 363.26C-257.02 372.73 -301.95 384.7 -345.67 399.06C-354.5 401.96 -363.28 404.97 -372.01 408.06L-370.83 411.67C-362.46 408.71 -354.06 405.83 -345.61 403.06C-210.06 358.55 -66.33 338.45 66.62 343.03C1.20001 341.87 -67.73 347.52 -136.81 359.86C-190.31 369.42 -243.8 382.98 -295.71 400.02C-319.6 407.87 -343.16 416.45 -366.24 425.73L-365.74 427.26C-200.4 360.7 -15.36 332.13 144.28 349.6C54.02 348.2 -40.02 356.85 -135.69 375.37C-198.34 387.5 -260.11 403.55 -320.42 423.35C-334.47 427.96 -348.43 432.78 -362.31 437.8L-361.81 439.34C-188.8 376.76 -4.14001 345.97 166.63 351.91C79.33 352.91 -19.16 365.59 -126.28 389.63C-189.83 403.9 -254.93 421.94 -318.68 442.87C-331.34 447.03 -343.95 451.31 -356.48 455.68L-355.99 457.2C-192.83 400.13 -23.4 363.7 117.53 355.38C85.4 358.45 52.61 363.85 22.09 371.25C-73.77 387.86 -164.86 414.23 -256.95 444.47C-287.75 454.58 -318.66 465.13 -349.9 475.89L-349.4 477.43C-231.54 436.85 -118.35 399.27 1.67001 376.61C-13.07 380.74 -27.7 385.23 -42.23 390C-62.02 396.5 -81.58 403.5 -100.87 410.77C-133.98 420.34 -166.99 430.52 -199.81 441.3C-248.45 457.27 -296.7 474.54 -344.32 493.03L-343.82 494.57C-270.28 466.01 -195.25 440.36 -119.57 417.92C-141.08 426.27 -162.21 434.84 -182.83 443.31C-184 443.79 -185.16 444.27 -186.33 444.75C-190.2 446 -194.04 447.25 -197.86 448.5C-250.21 465.69 -297.05 483.34 -340.41 505.03L-339.9 506.61C-298.96 486.09 -254.88 469.19 -205.95 452.88C-252.31 472.27 -296.97 492.38 -336.77 516.24L-335.53 520.05C-289.22 492.06 -235.98 469.2 -181.07 446.67C-122.11 422.47 -59.15 397.35 5.35999 379.49C18.44 375.87 32.09 372.64 46.04 369.82C22.1 376.26 -1.94 383.44 -26.04 391.35C-73.03 406.78 -120.22 424.98 -167.17 445.81C-224.54 471.26 -280.37 500.32 -331.83 531.41L-331.32 532.98C-209.86 459.31 -68.66 400.03 68.39 365.69C80.87 363.61 93.47 361.86 106.02 360.46C66.99 368.32 27.71 378.73 -11.64 391.66C-60.15 407.59 -108.77 427.32 -157.13 450.73C-214.91 478.7 -271.51 511.49 -326.22 548.63L-325.68 550.3C-212.37 473.16 -57.48 391.68 123.68 358.75C123.7 358.75 123.72 358.74 123.74 358.74C130.05 358.2 136.32 357.76 142.54 357.41C101.37 365.16 59.97 375.86 19.1 389.28C-32.93 406.37 -84.1 427.84 -132.86 453.19C-202.27 489.28 -264.61 532.09 -316.36 578.94L-315.78 580.74C-195.24 470.84 -21.68 387.51 154.77 356.85C161.3 356.61 167.74 356.49 174.08 356.47C132.35 361.47 89.12 371.3 45.81 385.53C-6.51001 402.71 -58.95 426.28 -108.97 455.41C-177.9 495.55 -242.94 545.97 -306.66 608.73L-306.03 610.66C-242.11 547.52 -176.89 496.88 -107.76 456.63C-11.96 400.84 92.68 365.56 188.28 356.63C193.44 356.76 198.49 356.98 203.45 357.28C204.3 357.43 205.15 357.59 206 357.74C169.63 357.91 130.35 364.52 92.47 376.96C89.85 377.82 87.24 378.71 84.64 379.62C79.23 381.52 73.91 383.53 68.65 385.64C68.59 385.65 68.52 385.66 68.46 385.68C68.43 385.69 68.4 385.7 68.37 385.71C-80.64 443.15 -202.06 522.25 -300.86 626.52L-300.21 628.52C-208.59 531.45 -97.42 456.19 37.32 399.91C22.09 407.73 7.88 416.41 -5.01999 425.77C-115.27 495.57 -211.63 571.84 -292.22 653.05L-291.58 655.01C-214.76 577.39 -123.52 504.28 -19.48 437.01C-23.37 440.26 -27.12 443.57 -30.69 446.94C-76.76 479.02 -114.31 516.9 -150.67 553.61C-157.87 560.88 -165.32 568.4 -172.71 575.74C-206.27 609.1 -242.96 642.88 -286.51 670.55L-285.97 672.2C-241.83 644.28 -204.75 610.16 -170.85 576.47C-163.46 569.12 -156.01 561.6 -148.8 554.32C-114.93 520.13 -80.04 484.92 -38.24 454.42C-38.41 454.6 -38.59 454.78 -38.76 454.96C-47.51 464.13 -55.33 473.75 -62.9 483.05L-84.27 509.32C-113.76 541.81 -144.74 571.74 -177.03 602.93C-210.45 635.21 -245.32 663.24 -281.23 686.73L-280.69 688.39C-244.32 664.68 -209.02 636.35 -175.21 603.7C-149.89 579.24 -125.38 555.56 -101.75 530.81L-111.18 542.41C-139.75 577.53 -169.29 613.85 -206.76 646.36C-224.4 661.67 -248.66 680.11 -278.16 696.17L-276.95 699.89C-252.9 686.94 -229.47 670.95 -207.37 652.31C-153.37 628.63 -123.72 596.91 -89.44 560.24C-85.57 556.1 -81.56 551.81 -77.49 547.51C-75.2 545.09 -72.91 542.66 -70.61 540.22C-33.03 500.38 5.82999 459.18 59.65 429.92C118.66 397.84 194.62 382.27 262.85 388.26C324.06 393.64 378.87 415.16 421.35 450.49C453.89 477.56 479.4 512.63 499.1 557.47C480.57 528.72 454.07 500 418.67 470.22C376 434.33 326.14 412.11 270.47 404.19C220.78 397.12 166.54 402.39 118.1 418.3C102.5 423.42 87.49 429.65 73.43 436.93C10.83 469.33 -32.98 516.91 -75.34 562.92C-78.78 566.66 -82.21 570.38 -85.64 574.09C-144.12 637.28 -208.99 672.3 -276.32 701.8L-275.82 703.34C-246.5 690.49 -216.6 676.14 -188.18 659.11C-148.33 635.23 -114.16 607.64 -83.72 574.75C-80.29 571.04 -76.86 567.31 -73.41 563.58C-31.21 517.75 12.42 470.36 74.5 438.24C131.52 408.73 204.39 396.64 269.43 405.9C324.7 413.77 374.24 435.85 416.66 471.54C459.38 507.48 489.09 541.86 507.43 576.59C508.44 579.75 509.46 582.93 510.49 586.11C497.31 562.29 480.22 540.01 459.39 519.52C425.64 486.32 383.46 459.16 334.01 438.82C305.08 426.91 276.09 419.17 247.86 415.8C213.78 411.74 180.66 414.06 149.4 422.72C145.76 423.73 142.13 424.83 138.5 426.02C112.89 434.43 87.43 447.44 62.66 464.79C40.05 480.63 17.55 500.29 -6.14001 524.89C-43.9 564.11 -82.95 604.67 -137.11 639.63C-175.36 664.32 -221.69 686.19 -275.31 704.9L-274.81 706.44C-220.88 687.62 -174.26 665.62 -135.75 640.76C-81.29 605.6 -42.12 564.92 -4.23999 525.58C44.53 474.93 90.19 443.56 138.52 427.69C142.24 426.47 145.98 425.34 149.74 424.3C205.93 408.74 269.1 414.29 332.44 440.36C418.96 475.96 482.86 532.49 515.68 601.59C515.77 601.86 515.87 602.12 515.96 602.39C483.08 556.66 449.95 519.8 403.87 491.01C374.83 472.86 342.09 459.57 306.55 451.49C267.74 442.67 227.46 440.58 186.81 445.28C165.73 447.72 146.3 451.85 128.74 457.62C119.57 460.63 110.9 464.09 102.78 467.99C64.83 486.19 38.06 513.93 12.18 540.75C5 548.19 -2.43002 555.89 -9.95001 563.22C-73.49 625.17 -167.57 677.17 -273.68 709.88L-273.18 711.42C-166.56 678.55 -72.01 626.27 -8.12 563.98C-0.570007 556.62 6.87 548.91 14.07 541.45C39.77 514.82 66.34 487.28 103.74 469.35C127.02 458.18 154.89 450.66 186.57 446.99C264.21 438 340.73 454.14 402.02 492.44C450.36 522.64 484.42 561.8 518.97 610.84C521.43 617.51 524.08 624.13 526.98 630.66C519.17 620.11 511.99 609.22 504.88 598.44C491.39 577.97 477.44 556.8 459.78 539.03C441.97 521.11 421.93 508.38 398.74 500.27C360.5 481.51 322.24 470.43 282.49 466.58C254.49 463.86 224.46 465.04 195.62 469.98C179.76 472.7 164.5 476.46 149.94 481.24C135.84 485.87 122.4 491.45 109.72 497.96C72.42 517.09 43.11 543.41 14.76 568.86C-8.97998 590.17 -33.52 612.21 -62.71 630.03C-91.05 647.33 -123.63 660.53 -154.61 672.21C-166.79 676.8 -179.15 681.56 -191.11 686.15C-217.52 696.3 -244.42 706.63 -271.64 716.16L-271.14 717.7C-243.85 708.14 -216.9 697.79 -190.43 687.62C-178.47 683.03 -166.11 678.27 -153.95 673.68C-122.8 661.93 -90.03 648.65 -61.43 631.2C-31.99 613.23 -7.32999 591.09 16.51 569.69C44.71 544.37 73.86 518.19 110.77 499.26C160.31 473.85 222.57 462.56 281.58 468.29C315.01 471.53 347.39 479.93 379.62 493.76C315.32 479.41 257.53 478.25 203.09 490.2C191.5 492.75 179.8 495.96 168 499.83L168.02 499.78ZM2025.96 448.61C1951.19 440.24 1864.79 438.69 1767.79 443.94C1856.27 422.53 1962.92 425.12 2042.94 450.72C2037.27 449.95 2031.61 449.25 2025.95 448.62L2025.96 448.61ZM2053.78 452.26C2013.9 438.25 1963.9 429.68 1912.43 428.07C1859.03 426.4 1806.28 432.05 1759.25 444.42C1723.54 446.48 1686.42 449.46 1647.93 453.33C1746.26 428.93 1826.6 416.28 1899.53 413.66C1991.55 410.36 2069.34 428.63 2114.89 463.98C2094.29 459.19 2073.96 455.29 2053.79 452.26H2053.78ZM2120.03 465.2C2096.74 446.03 2065.18 431.7 2026.12 422.59C1989.22 413.99 1945.62 410.31 1900.03 411.94C1824.14 414.67 1740.29 428.21 1636.65 454.48C1618.76 456.35 1600.59 458.42 1582.12 460.67C1578.43 461.12 1574.68 461.62 1570.88 462.15C1663.04 434.39 1737.9 413.71 1832.61 401.46C1908.36 391.67 2015.3 389.47 2094.61 434.64C2104.03 440.01 2113.41 445.96 2122.48 451.71C2136.89 460.85 2151.61 470.18 2167.66 478.01C2151.58 473.21 2135.72 468.93 2120.04 465.18L2120.03 465.2ZM2205.59 490.19C2198.45 487.75 2191.37 485.41 2184.33 483.18C2162.34 474.44 2143.08 462.22 2124.34 450.33C2115.25 444.57 2105.86 438.6 2096.4 433.22C2063.9 414.71 2023.63 402.6 1976.71 397.21C1933.13 392.21 1884.71 393.08 1832.81 399.79C1734.25 412.53 1657.2 434.36 1559.99 463.77C1529.72 468.43 1496.43 475.35 1461.53 484.11C1540.49 455.57 1628.28 430.11 1735.23 404.65C1795.59 390.28 1874.11 374.24 1946.1 377.79C2019.23 381.39 2076.6 409.78 2113.4 430.83C2129.9 440.27 2146.03 450.42 2161.62 460.24C2180.29 472 2199.38 484.01 2219.59 495.1C2214.94 493.44 2210.28 491.8 2205.6 490.2L2205.59 490.19ZM2233.85 500.27C2208.98 487.46 2185.92 472.95 2163.46 458.81C2147.85 448.98 2131.72 438.82 2115.18 429.36C2078.21 408.21 2020.53 379.68 1946.87 376.05C1874.46 372.48 1795.62 388.58 1735.02 403.01C1651.19 422.97 1579.11 442.93 1513.81 464.37C1490.34 472.08 1467.75 479.97 1445.8 488.13C1433.92 491.25 1421.89 494.58 1409.76 498.09C1527.01 446.61 1649.87 408.46 1775.1 384.67C1889.7 362.89 1977.69 360.86 2044.12 378.45C2100.91 393.49 2143.26 422.9 2184.21 451.35L2281.26 518.76C2265.75 512.43 2249.92 506.22 2233.86 500.27H2233.85ZM1760.49 373.97C1802.73 363.19 1852.35 351.66 1900.12 347.94C2008.69 339.48 2093.2 370.97 2144.99 398.88C2211.32 434.63 2274.89 492.25 2318.38 534.3C2309.32 530.42 2300.1 526.54 2290.76 522.67L2186.11 449.98C2145.04 421.45 2102.57 391.95 2045.44 376.82C2009.02 367.18 1965.43 363.34 1915.89 365.42C1874.29 367.16 1828.23 372.92 1775.08 383.02C1711.15 395.17 1646.72 411.39 1583.58 431.22C1576.54 433.43 1569.51 435.69 1562.49 438C1506.59 456.36 1451.51 477.62 1398.48 501.33C1398.37 501.38 1398.27 501.44 1398.18 501.51C1383.04 506.01 1367.77 510.78 1352.48 515.81C1351.86 516.02 1351.23 516.23 1350.6 516.43C1482.36 457.7 1620.17 409.8 1760.5 373.98L1760.49 373.97ZM587.5 686.9C570.51 677.35 556.66 665.4 544.62 652.2C530.47 628.54 521.8 602.24 513.6 576.64C537.9 620.48 568.98 653.24 608.23 676.47C633.17 691.23 662.88 702.32 694.15 708.53C709.42 711.56 724.95 713.45 740.67 714.22C678.33 717.18 624.91 707.93 587.5 686.9ZM837.33 701.16C811.07 706.82 785.6 710.7 761.29 712.82C706.14 713.38 652.53 700.19 610.03 675.04C567.32 649.76 534.33 613.1 509.23 563.05C507.6 558.02 505.92 552.96 504.18 547.92C524.62 578.89 552.09 609.18 581.83 632.73C603.83 650.15 629.21 664.21 657.27 674.51C687.31 685.54 719.65 691.95 753.4 693.55C841.34 697.73 966.87 659.46 1059.77 628.05C987.51 656.54 913.09 684.82 837.33 701.15V701.16ZM1447.84 447.31L1327.16 507.83C1208.5 563.04 1066.49 622.04 932.04 649.75C865.39 663.49 813.1 669.05 767.47 667.26C690.29 664.23 617.83 638.14 563.42 593.8C533.82 569.67 517.36 543.4 499.94 515.58C491.02 501.34 481.88 486.74 470.65 472.02C484.93 485.82 498.15 500.27 511.11 514.47C543.7 550.16 577.4 587.06 626.78 611.72C671.61 634.1 728.86 645.87 796.94 646.71C858.05 647.46 926.72 639.06 995.54 622.4C1128.76 590.16 1254.75 533.06 1376.6 477.84L1494.56 424.38C1479.46 431.62 1463.92 439.24 1447.85 447.31H1447.84ZM1592.91 379.81C1595.2 378.98 1597.49 378.15 1599.77 377.32C1594.04 379.67 1588.27 382.08 1582.44 384.55L1592.91 379.81ZM700.33 591.62C799.2 616.68 914 606.31 1016.5 584.69C962.5 598.41 898.06 606.82 836.86 607.76C764.21 608.88 705.01 599.69 667.21 581.68C677.88 585.37 688.89 588.72 700.33 591.62ZM499.46 487.23C546.19 520.04 594.21 553.73 653.16 576.53C690.03 599.05 754.77 610.73 836.28 609.47C908.82 608.35 985.92 596.79 1045.02 578.31C1081.85 569.64 1116.66 559.75 1148.02 549.85C1238.56 521.26 1327.71 485.03 1413.93 449.99C1454.95 433.32 1496.96 416.25 1539.21 399.96C1370.77 473.5 1226.49 533.9 1067.48 581.25C983.12 606.37 893.31 629.39 808.16 627.69C739.17 626.32 673.73 608.57 613.66 574.95C566.49 548.55 528.31 515.91 491.27 481.48C494.01 483.4 496.74 485.32 499.46 487.23ZM477.95 472.2C518.65 510.54 559.78 547.25 611.88 576.42C640.19 592.27 670.29 604.78 701.32 613.62C735.64 623.39 771.35 628.71 807.47 629.43C846.18 630.2 888.51 625.94 936.87 616.39C974.47 608.97 1014.87 598.62 1067.88 582.84C1235.38 532.96 1386.45 468.67 1566.54 389.81C1566.81 389.69 1567.01 389.53 1567.15 389.35C1568.67 388.78 1570.19 388.22 1571.71 387.65L1375.72 476.47C1254.04 531.62 1128.22 588.64 995.34 620.8C847.38 656.61 713.67 652.76 628.5 610.24C579.37 585.71 545.76 548.9 513.25 513.31C497.73 496.32 481.87 478.96 464.23 462.79C468.84 465.92 473.41 469.06 477.96 472.21L477.95 472.2ZM-106.41 543.66L-58.13 484.3C-50.63 475.09 -42.88 465.56 -34.29 456.55C25 394.4 135.76 354.91 229.06 362.65C229.47 362.68 229.9 362.64 230.32 362.54C242.1 365.07 253.7 367.83 265.09 370.84C229.43 370.11 190.79 371.23 148.38 380.02C131.9 383.43 115.91 387.69 100.58 392.72C70.5 402.6 43 415.45 19.5 430.74C-21.12 457.15 -50.01 490.79 -77.95 523.33C-101.07 550.25 -124.88 577.97 -155.38 601.65C-137.99 582.49 -122.05 562.9 -106.41 543.67V543.66ZM423.39 449.18C402.98 432.21 379.43 418.25 353.39 407.71C325.55 396.44 295.4 389.32 263.78 386.54C215.14 382.27 162.61 388.86 114.93 404.51C95.09 411.02 76.08 419.11 58.57 428.64C4.29001 458.15 -34.73 499.52 -72.47 539.53C-74.76 541.96 -77.06 544.39 -79.35 546.82C-83.43 551.13 -87.43 555.42 -91.31 559.56C-124.22 594.77 -152.84 625.38 -202.9 648.52C-202.84 648.47 -202.78 648.42 -202.72 648.36C-187.96 635.56 -174.45 622.2 -161.75 608.57C-127.13 583.47 -101.13 553.22 -75.96 523.91C-48.14 491.52 -19.38 458.03 20.87 431.86C55.96 409.04 100.08 391.68 148.47 381.66C193.64 372.31 234.57 371.71 272.18 372.74C319.31 385.67 362.92 402.74 401.69 423.97C404.17 425.33 406.63 426.7 409.08 428.09C445.75 450.79 473.58 485.47 491.84 531.25C494.58 538.12 497.1 545.14 499.51 552.17C480.01 509.27 455.02 475.47 423.41 449.18H423.39ZM447.12 451.38C447.94 451.91 448.75 452.45 449.57 452.99C452.52 455.46 455.44 457.96 458.29 460.51C474.4 479.44 486.23 498.31 497.68 516.59C515.15 544.49 531.66 570.85 561.43 595.11C587.65 616.48 617.86 633.66 651.23 646.17C687.33 659.71 726.19 667.38 766.73 668.98C812.63 670.78 865.19 665.2 932.12 651.4C1051.41 626.81 1176.55 577.7 1286.13 528.41L1179.75 581.76C1154.38 590.94 1129.38 600.61 1104.84 610.27C1100.65 611.92 1096.46 613.58 1092.27 615.23C998.43 647.68 852.43 696.52 754.18 691.84C689.65 688.77 629.15 667.31 583.82 631.41C551.17 605.55 521.26 571.56 500.45 537.48C499.43 534.73 498.39 532 497.31 529.29C484.9 498.19 468.1 472.14 447.12 451.39V451.38ZM383.81 495.61C383.81 495.61 383.83 495.56 383.84 495.54C384.23 495.71 384.62 495.89 385.01 496.06C384.57 495.95 384.12 495.84 383.68 495.73C383.72 495.69 383.77 495.66 383.81 495.61ZM192.98 513.54C178.97 518.14 164.75 523.39 150.43 529.27C119.62 541.92 89.78 556.56 60.69 571.72C81.79 556.59 103.97 543.22 128.01 531.13C165.07 512.48 195.25 504.04 220.07 505.39C211.14 507.83 202.11 510.55 192.99 513.54H192.98ZM225.2 504.02C208.99 502.36 190.55 504.94 169.43 511.87C156.34 516.17 142.22 522.14 126.98 529.81C99.45 543.66 74.35 559.17 50.5 577.06C37.17 584.09 23.99 591.2 10.94 598.23C2.23001 602.93 -6.57001 607.67 -15.44 612.41C-9.89999 607.8 -4.87997 603.55 -0.269989 599.64C20.38 582.15 35.3 569.51 65.87 550.43C112.56 521.27 158.77 501.54 203.24 491.77C251.04 481.27 301.49 480.99 356.79 490.97C318.74 486.75 273.63 491.26 225.2 504V504.02Z" fill="url(#paint0_radial_2_3493)"/>
</g>
<defs>
<radialGradient id="paint0_radial_2_3493" cx="0" cy="0" r="1" gradientUnits="userSpaceOnUse" gradientTransform="translate(1026.61 481.195) rotate(161.82) scale(1075.86 699.309)">
<stop stop-color="#817057"/>
<stop offset="0.2" stop-color="#FFDB7F"/>
<stop offset="0.32" stop-color="#D9B971"/>
<stop offset="0.46" stop-color="#AF9261"/>
<stop offset="0.55" stop-color="#C6A76A"/>
<stop offset="0.65" stop-color="#E7C677"/>
<stop offset="0.83" stop-color="#95815D"/>
<stop offset="1" stop-color="#CAAB6B"/>
</radialGradient>
</defs>
</svg>
