<svg width="379" height="379" viewBox="0 0 379 379" fill="none" xmlns="http://www.w3.org/2000/svg">
<path opacity="0.9" d="M189.25 378.5C293.77 378.5 378.5 293.77 378.5 189.25C378.5 84.7301 293.77 0 189.25 0C84.7301 0 0 84.7301 0 189.25C0 293.77 84.7301 378.5 189.25 378.5Z" fill="white"/>
<g opacity="0.9">
<path d="M91.6797 218.71C92.7697 220.43 94.3297 221.8 96.7597 223.18C99.8097 224.9 102.46 225.7 106.92 226.2V226.62C105.72 227.23 105.1 227.92 104.52 229.33C104.34 229.79 104.3 229.94 104.12 230.63C104.05 230.94 103.94 231.05 103.72 231.05C103.32 231.05 101.83 230.36 100.56 229.6C96.2397 226.96 93.6997 224.14 91.0897 219.09L91.1597 223.75C91.2597 227.65 91.3197 230.12 91.3397 231.16C91.3397 231.62 91.2697 231.85 91.0497 232C90.7197 232.27 89.8497 232.38 88.4697 232.38C87.3397 232.38 87.1597 232.27 87.1297 231.54C87.1997 229.74 87.3497 226.11 87.3497 224.7L87.3897 222.06C84.6697 224.85 82.8197 226.34 80.0597 227.94C77.8497 229.24 76.0297 230.04 72.6897 231.19L72.4697 230.69C77.8797 227.6 82.2397 223.51 85.2797 218.69H81.2497V219.26C81.2097 219.68 81.1397 219.87 80.9597 220.02C80.6297 220.29 79.6897 220.44 78.4897 220.44C77.5497 220.44 77.3297 220.29 77.2897 219.52C77.4697 215.78 77.5097 214.29 77.5097 210.81C77.5097 207.33 77.4697 206.19 77.3297 204.62C79.1797 205.5 79.7297 205.77 81.6497 206.72H87.3497V202.59H76.2797C75.2597 202.59 74.6497 202.63 73.5197 202.82L73.2297 201.41C74.3897 201.68 75.2997 201.79 76.2797 201.79H87.3497C87.3497 199.12 87.3097 198.43 87.0597 196.94C92.0297 197.44 92.5797 197.55 92.5797 198.09C92.5797 198.43 92.2497 198.7 91.1597 199.08V201.79H99.0697C100.3 200.34 100.67 199.92 101.9 198.54C103.68 199.99 104.22 200.45 106 202.02C106.15 202.17 106.18 202.25 106.18 202.36C106.18 202.51 106.03 202.59 105.82 202.59H91.1497V206.72H97.4297C98.2597 205.76 98.5197 205.46 99.3897 204.58C100.7 205.5 101.1 205.8 102.29 206.76C102.69 207.07 102.83 207.26 102.83 207.49C102.83 207.8 102.5 208.1 101.49 208.64C101.49 214.75 101.49 215.06 101.6 218.99V219.14C101.6 219.48 101.53 219.68 101.35 219.83C101.02 220.14 100.01 220.33 98.6997 220.33C97.9397 220.33 97.7597 220.18 97.6797 219.6V218.68H91.6497L91.6797 218.71ZM87.3597 207.55H81.2597V212.21H87.3597V207.55ZM87.3597 213.01H81.2597V217.9H87.3597V213.01ZM97.7097 207.55H91.1797V212.21H97.7097V207.55ZM97.7097 213.01H91.1797V217.9H97.7097V213.01Z" fill="#0A5E84"/>
<path d="M139.6 227.19V209.16C139.6 207.63 139.53 205.87 139.38 204.38C140.61 204.53 141.49 204.65 142.1 204.72C144.57 204.99 145.26 205.22 145.26 205.68C145.26 206.1 144.82 206.41 143.77 206.75C143.73 209.39 143.73 211.53 143.73 212.83C143.73 219.33 143.8 225.48 143.95 230.33C143.95 230.9 143.77 231.17 143.33 231.36C142.93 231.51 141.84 231.67 140.9 231.67C139.85 231.67 139.67 231.56 139.59 230.79V228H118.93V230.18C118.93 230.68 118.86 230.91 118.6 231.1C118.27 231.37 117.22 231.56 116.02 231.56C114.82 231.56 114.57 231.37 114.57 230.45C114.72 225.18 114.79 220.78 114.79 215.28C114.79 209.05 114.75 206.68 114.54 204.31C119.22 204.92 119.44 204.92 119.88 205.11C120.17 205.26 120.32 205.42 120.32 205.65C120.32 206.07 119.99 206.3 118.94 206.64V227.2H126.85V204.01C126.85 201.83 126.74 199.27 126.6 197.67C132.19 198.24 132.77 198.36 132.77 198.97C132.77 199.43 132.37 199.7 131.17 200.04V227.21H139.59L139.6 227.19Z" fill="#0A5E84"/>
<path d="M169.52 214.35C172.1 212.71 173.51 211.48 175.26 209.34C174.06 207.66 173.26 205.98 172.72 204.07C172.14 204.76 171.38 205.45 170.58 206.06C171.2 206.59 171.45 206.82 172.18 207.59C172.25 207.7 172.33 207.82 172.33 207.9C172.33 208.01 172.18 208.09 171.97 208.09H168.09C167.8 210.11 167.73 210.65 167.51 211.8H167.69C168.42 211 168.63 210.73 169.32 209.93C170.3 210.85 170.59 211.15 171.5 212.15C171.57 212.23 171.65 212.34 171.65 212.42C171.65 212.53 171.5 212.61 171.25 212.61H167.33C167.18 213.18 167.15 213.37 166.89 213.95C169.9 215.21 170.34 215.44 170.34 215.82C170.34 216.13 170.09 216.2 169.36 216.2H168.82C167.37 217.23 166.79 217.61 165.3 218.45C165.95 218.95 166.21 219.33 166.21 220.02C166.21 220.63 165.99 221.09 165.41 221.62L167.01 221.58C169.3 219.48 171.73 216.58 173.18 214.32C177.79 216.38 177.83 216.38 177.83 216.73C177.83 217.15 177.5 217.27 176.38 217.27H175.91C172.5 219.52 170.17 220.98 169.05 221.55C173.48 221.47 175.55 221.4 178.16 221.21C177.33 220.33 176.89 219.95 175.51 218.92L175.69 218.58C180.74 220.07 181.21 220.22 182.26 220.91C183.09 221.44 183.42 222.21 183.42 223.43C183.42 224.84 182.84 225.91 182.04 225.91C181.57 225.91 181.46 225.8 180.52 224.27C180.08 223.62 179.61 222.93 179 222.17C177.19 222.55 174.5 222.93 170.43 223.43V226.79C170.43 227.1 170.47 227.86 170.5 228.97C170.5 229.51 170.54 230.31 170.57 231.38C170.57 232.3 170.06 232.49 167.81 232.49C166.72 232.49 166.47 232.34 166.47 231.65C166.51 230.62 166.51 229.82 166.54 229.28C166.58 228.17 166.61 227.41 166.61 227.18V223.89L162.69 224.35C161.916 224.423 160.55 224.55 158.59 224.73C157.46 224.84 157.25 224.84 156.19 224.96C155.94 226.07 155.79 226.37 155.43 226.37C155.03 226.37 154.96 226.06 153.98 221.4C155.9 221.63 156.99 221.67 160.15 221.67H163.71C163.38 221.36 163.2 221.17 162.69 220.6C161.13 218.8 160.29 218.08 158.44 216.86L158.66 216.52C161.24 216.98 162.47 217.28 163.89 217.78C164.25 217.25 164.36 217.09 165.05 215.83C164.14 216.1 163.49 216.25 163.13 216.25C162.73 216.25 162.69 216.21 162.66 215.68C162.55 214.99 161.86 214.53 159.94 213.92V213.58C161.72 213.69 162.88 213.77 163.21 213.77C163.79 213.77 163.97 213.58 164.23 212.62H157.15L156.93 213.58C156.78 214.11 156.53 214.27 155.91 214.27C155.29 214.27 154.06 214.16 153.88 214.08C153.66 214 153.55 213.85 153.55 213.7C153.55 213.59 153.59 213.39 153.62 213.24C154.31 211.21 154.45 210.6 155.04 208.12H154.71C154.02 208.12 153.29 208.2 152.57 208.39L152.35 207.01C153.18 207.24 153.84 207.32 154.71 207.32H155.22C155.66 205.33 155.8 204.45 156.09 202.74C154.86 203.85 154.09 204.42 152.1 205.72L151.85 205.38C153.16 203.7 153.88 202.51 154.75 200.72C155.58 199 155.88 198.16 156.2 196.67C160.96 197.82 161.21 197.89 161.21 198.35C161.21 198.69 160.85 198.85 159.5 199.04C159.06 199.58 158.92 199.77 158.56 200.19H165.57L167.71 197.67C169.09 198.78 169.49 199.16 170.72 200.42C170.83 200.57 170.9 200.65 170.9 200.76C170.9 200.91 170.72 200.99 170.43 200.99H157.83C157.54 201.33 157.43 201.41 157.07 201.79C157.72 202.13 158.2 202.44 159.47 203.2H165.42C166.07 202.44 166.25 202.21 166.91 201.52C167.96 202.25 168.29 202.48 169.23 203.24C169.52 203.47 169.63 203.62 169.63 203.74C169.63 204.01 169.38 204.24 168.54 204.62C168.39 205.8 168.39 206.07 168.21 207.33H168.39C169.04 206.53 169.26 206.26 169.95 205.5L170.17 205.69C171.51 203.24 172.46 200.23 172.93 196.75C177.76 197.82 178.05 197.9 178.05 198.35C178.05 198.73 177.58 198.92 176.38 199.08C176.02 199.69 175.73 200.15 175.54 200.46C175.25 200.99 175.14 201.15 174.89 201.49H180.04C181.02 200.23 181.35 199.85 182.36 198.7C183.92 199.96 184.39 200.38 185.88 201.72C185.95 201.83 186.02 201.95 186.02 202.06C186.02 202.17 185.84 202.29 185.55 202.29H182.61C181.49 205.46 180.58 207.1 178.83 209.17C181.12 210.35 182.35 210.7 185.98 211.16V211.66C184.67 212.31 184.09 213.11 183.55 215.1C183.48 215.41 183.37 215.52 183.15 215.52C182.86 215.52 182.06 215.14 180.97 214.49C179.16 213.42 178.03 212.54 176.76 211.2C174.73 212.88 172.91 213.8 169.75 214.79L169.53 214.41L169.52 214.35ZM153 232.04C156.92 229.25 158.77 227.42 160.48 224.86C161.42 225.24 162.15 225.55 162.62 225.74C164.51 226.54 164.98 226.81 164.98 227.12C164.98 227.5 164.58 227.62 163.2 227.62C161.38 229 160.48 229.57 158.7 230.45C156.85 231.33 155.69 231.75 153.22 232.44L153 232.06V232.04ZM158.16 208.09C157.83 209.69 157.72 210.19 157.33 211.8H159.36C159.65 210.62 159.76 210.08 160.12 208.09H158.16ZM160.26 207.28C160.51 205.64 160.55 205.37 160.73 203.96H158.99C158.66 205.56 158.59 206.02 158.34 207.28H160.26ZM162.88 208.09C162.77 208.66 162.7 209.16 162.66 209.43C162.41 210.77 162.41 210.88 162.22 211.8H164.36C164.61 210.35 164.72 209.85 164.98 208.09H162.87H162.88ZM165.09 207.28C165.24 206.29 165.27 205.71 165.45 203.96H163.49C163.416 204.62 163.26 205.727 163.02 207.28H165.09ZM172.35 224.94C176.6 225.59 177.98 225.9 179.61 226.62C181.06 227.23 181.72 228.15 181.72 229.56C181.72 230.97 181.07 232.08 180.3 232.08C179.94 232.08 179.61 231.85 179.03 231.2C176.85 228.64 175.07 227.15 172.13 225.32L172.35 224.94ZM174.24 202.24C173.62 203 173.51 203.16 173.19 203.54C174.1 205.41 174.75 206.25 176.46 207.63C177.55 205.87 178.06 204.69 178.78 202.24H174.24Z" fill="#0A5E84"/>
<path d="M196.31 220.43C195.37 220.43 194.82 220.47 194.02 220.62L193.8 219.36C194.63 219.55 195.18 219.63 196.3 219.63H198.37V213.59H194.52C193.5 213.59 192.78 213.67 192.09 213.82L191.91 212.48C192.78 212.71 193.47 212.79 194.6 212.79H198.38V207.21H196.49C195.47 207.21 194.82 207.29 194.09 207.44L193.87 206.1C194.78 206.33 195.36 206.41 196.52 206.41H218.37C219.42 205.23 219.75 204.88 220.8 203.74C222.33 205 222.76 205.38 224.21 206.68C224.32 206.79 224.39 206.91 224.39 207.02C224.39 207.13 224.25 207.21 224.03 207.21H218.55V212.79H220.4C221.42 211.57 221.74 211.22 222.83 210.08C224.32 211.34 224.79 211.76 226.17 213.06C226.28 213.17 226.35 213.33 226.35 213.4C226.35 213.51 226.2 213.59 226.02 213.59H218.54V219.63H219.45C220.39 218.52 220.68 218.18 221.66 217.07C223.08 218.29 223.51 218.67 224.85 219.94C224.96 220.05 225.03 220.17 225.03 220.25C225.03 220.36 224.88 220.44 224.74 220.44H210.33V224.57H218.57C219.77 223.23 220.13 222.85 221.36 221.63C223.14 222.97 223.68 223.39 225.43 224.8C225.54 224.95 225.61 225.07 225.61 225.14C225.61 225.25 225.43 225.37 225.21 225.37H210.33C210.37 228.27 210.37 229.04 210.44 231.29C210.44 231.71 210.33 231.9 210.15 232.05C209.82 232.24 208.88 232.36 207.65 232.36C206.56 232.36 206.34 232.21 206.34 231.52C206.45 228.92 206.45 228.73 206.49 225.37H195.49C194.55 225.37 193.64 225.45 192.88 225.6L192.66 224.26C193.64 224.49 194.48 224.57 195.49 224.57H206.49V220.44H196.29L196.31 220.43ZM211.63 200.98C211.63 198.84 211.59 198.42 211.45 197.08C216.5 197.5 216.9 197.58 216.9 198.07C216.9 198.38 216.65 198.57 215.48 198.99V200.98H219.22C220.34 199.68 220.71 199.3 221.83 198.08C223.54 199.42 224.04 199.84 225.61 201.21C225.76 201.36 225.79 201.48 225.79 201.55C225.79 201.7 225.64 201.78 225.43 201.78H215.48C215.48 202.62 215.52 203.5 215.52 204.34C215.52 204.68 215.48 204.84 215.34 204.95C215.12 205.14 214.21 205.26 212.98 205.26C211.75 205.26 211.56 205.15 211.56 204.5C211.586 203.173 211.61 202.27 211.63 201.79H205.24V204.43C205.24 204.7 205.17 204.85 205.06 204.97C204.84 205.16 203.97 205.28 202.77 205.28C201.5 205.28 201.32 205.2 201.32 204.63C201.39 203.25 201.39 203.1 201.43 201.8H195.37C194.25 201.8 193.74 201.84 192.76 202.03L192.54 200.69C193.52 200.92 194.32 201 195.37 201H201.43C201.43 198.82 201.39 198.4 201.28 197.1C202.37 197.18 203.17 197.25 203.71 197.29C206.07 197.48 206.65 197.63 206.65 198.05C206.65 198.39 206.43 198.55 205.23 198.97V201H211.62L211.63 200.98ZM202.16 207.21V212.79H206.52V207.21H202.16ZM202.16 213.59V219.63H206.52V213.59H202.16ZM210.36 212.79H214.79V207.21H210.36V212.79ZM210.36 219.63H214.79V213.59H210.36V219.63Z" fill="#0A5E84"/>
<path d="M240.57 205.56C241.44 204.41 241.69 204.03 242.49 202.89C243.8 204.11 244.2 204.49 245.36 205.83C245.5 205.98 245.54 206.06 245.54 206.14C245.54 206.25 245.4 206.37 245.21 206.37H240.09V209.39C241.54 210.15 241.9 210.38 242.67 210.96C244.3 212.14 245.07 213.21 245.07 214.32C245.07 215.81 243.87 217.53 242.82 217.53C242.31 217.53 242.06 217.03 241.88 215.89C241.41 212.72 241.12 211.69 240.1 210.24C240.1 223 240.1 223.42 240.21 231.33C240.21 232.29 239.85 232.44 237.63 232.44C236.4 232.44 236.18 232.33 236.18 231.56C236.28 229.447 236.39 225.243 236.51 218.95L236.58 215.17C235.78 217.5 235.31 218.53 234.26 220.25C233.35 221.74 232.74 222.5 231.43 223.92L231.1 223.61C232.77 219.94 233.57 217.73 234.62 213.6C235.31 210.77 235.56 209.51 236.07 206.38H233.86C233.24 206.38 232.52 206.46 231.86 206.61L231.61 205.27C232.52 205.5 233.14 205.58 233.82 205.58H236.36V200.84C236.36 199.12 236.32 198.55 236.14 197.13C237.23 197.24 238.06 197.36 238.61 197.4C240.97 197.67 241.48 197.82 241.48 198.24C241.48 198.55 241.15 198.77 240.1 199.2V205.58H240.57V205.56ZM241.51 231.7C246.3 229.25 250.01 226.54 253.56 222.91C256.43 220.01 258.57 216.99 259.88 214.05C260.9 214.55 261.73 214.93 262.24 215.2C264.16 216.08 264.6 216.38 264.6 216.73C264.6 217.08 264.2 217.27 263.37 217.27H263.01C260.9 220.17 259.71 221.59 257.67 223.54C259.34 224.07 260.32 224.46 261.7 225.11C264.1 226.26 264.97 227.25 264.97 228.82C264.97 230.62 264.03 232.14 262.9 232.14C262.32 232.14 262.25 232.03 261.45 230.34C260.29 227.89 259.27 226.48 257.02 224.11C254.91 225.98 252.48 227.63 249.76 229.08C247.15 230.46 245.04 231.26 241.7 232.18L241.52 231.72L241.51 231.7ZM241.98 224.02C246.05 221.5 249.46 218.52 252.36 215C254.94 211.87 256.61 209.19 257.48 206.9C261.84 208.96 262.31 209.23 262.31 209.61C262.31 209.99 261.95 210.11 260.68 210.15C255.27 217.6 249.61 221.99 242.24 224.44L241.99 224.02H241.98ZM259.48 203.46C260.64 202.08 261.01 201.63 262.09 200.29C263.87 201.7 264.38 202.16 265.94 203.65C266.09 203.84 266.16 203.96 266.16 204.03C266.16 204.18 266.01 204.26 265.8 204.26H255.42C253.5 207.13 252.41 208.5 250.12 210.87C251.21 211.75 251.64 212.44 251.64 213.28C251.64 214.73 250.44 216.53 249.5 216.53C249.28 216.53 249.06 216.42 248.92 216.26C248.8 216.08 248.583 215.583 248.27 214.77C247.4 212.48 246.2 210.57 244.46 208.66L244.68 208.32C246.75 209.08 247.55 209.43 248.85 210.12C249.61 208.21 250.01 206.91 250.56 204.27H246.82C245.99 204.27 245.37 204.35 244.61 204.5L244.36 203.16C245.27 203.39 245.92 203.47 246.86 203.47H251.61V200.68C251.61 199.27 251.57 198.62 251.39 197.16C255.71 197.62 256.04 197.7 256.47 197.85C256.76 197.96 256.91 198.08 256.91 198.31C256.91 198.62 256.58 198.85 255.49 199.23V203.47H259.48V203.46Z" fill="#0A5E84"/>
<path d="M277.38 210.38C277.82 213.02 277.96 214.28 277.96 216.3C277.96 219.59 277.38 222.15 276.29 223.75C275.6 224.78 274.84 225.32 274.08 225.32C272.92 225.32 271.94 223.79 271.94 221.96C271.94 221.27 272.09 220.74 272.41 220.32C272.557 220.14 272.98 219.747 273.68 219.14C274.77 218.15 275.68 216.58 276.22 214.75C276.58 213.45 276.76 212.46 276.91 210.39H277.38V210.38ZM281.26 210.95C281.26 208.39 281.19 206.59 281.08 205.1C286.67 205.83 287.03 205.94 287.03 206.51C287.03 206.85 286.74 207.04 285.47 207.54V226.3C285.47 227.18 285.51 227.18 290.12 227.18C293.24 227.18 293.82 227.07 294.22 226.34C294.66 225.54 295.49 222.75 296.83 217.25L297.37 217.33L297.08 225.47V225.58C297.08 226.12 297.23 226.23 298.02 226.5C298.85 226.73 299.36 227.46 299.36 228.37C299.36 229.67 298.45 230.51 296.78 230.78C295.36 230.97 292.61 231.09 289.05 231.09C284.33 231.09 283.06 230.98 282.15 230.44C281.5 230.02 281.24 229.41 281.17 227.99L281.24 222.11V210.95H281.26ZM282.13 197.88C291.1 199.41 293.6 200.67 293.6 203.65C293.6 205.56 292.95 206.86 291.97 206.86C291.53 206.86 291.17 206.63 290.66 205.98C287.94 202.5 285.43 200.29 281.95 198.34L282.13 197.88ZM297.45 209.84C302.61 213.85 305.33 217.21 305.33 219.58C305.33 221.8 303.77 224.16 302.28 224.16C301.55 224.16 301.26 223.74 301.08 222.4C300.46 217.51 299.34 214.15 297.05 210.1L297.45 209.83V209.84Z" fill="#0A5E84"/>
<path d="M96.3098 265.58V271.92H99.3998C100.27 270.89 101.14 269.93 101.94 268.98C103.54 270.36 104.01 270.78 105.57 272.19C105.72 272.34 105.75 272.42 105.75 272.53C105.75 272.68 105.64 272.72 105.31 272.72H96.3098V279.79H100.12C101.28 278.34 101.64 277.92 102.81 276.54C104.52 277.95 105.02 278.41 106.69 279.98C106.84 280.17 106.91 280.25 106.91 280.36C106.91 280.51 106.76 280.59 106.44 280.59H83.1698C82.3398 280.59 81.8598 280.63 80.9198 280.78L80.6298 279.48C81.4998 279.71 82.2998 279.79 83.1698 279.79H92.4298V272.72H87.0198C86.1498 272.72 85.6398 272.76 84.6598 272.91L84.4098 271.61C85.3898 271.84 86.0398 271.92 86.9898 271.92H92.4298V265.58H88.7998V267.03C88.7998 267.76 88.1098 267.99 86.1098 267.99C85.0598 267.99 84.7698 267.84 84.7698 267.23V267.19C84.8431 265.71 84.8931 263.773 84.9198 261.38C84.8098 261.49 84.7698 261.49 84.5598 261.49H80.2398V270.55C82.4198 269.82 83.3298 269.48 85.4298 268.64L85.6098 269.06C81.5798 272.38 79.0398 274.18 75.1598 276.51C75.1198 277.77 74.9798 278.19 74.6198 278.19C74.1798 278.19 74.0798 278 72.2598 272.76C73.7098 272.53 74.1098 272.42 76.4298 271.77V261.49H74.9098C74.1498 261.49 73.7898 261.53 72.9498 261.64L72.7298 260.42C73.6698 260.61 74.1798 260.69 74.9398 260.69H76.4298V251.21H74.9098C73.9998 251.21 73.5998 251.25 72.7298 251.36L72.5098 250.14C73.4498 250.37 73.9598 250.41 74.9398 250.41H79.3998C80.1731 249.517 80.9364 248.637 81.6898 247.77C83.1398 248.99 83.4998 249.34 84.9198 250.71C84.8798 249.41 84.8798 248.91 84.7398 247.39C86.6998 248.31 87.2398 248.61 89.0598 249.64H99.8798C100.75 248.65 101.01 248.34 101.91 247.35C103.29 248.34 103.69 248.65 104.96 249.68C105.29 249.99 105.43 250.21 105.43 250.41C105.43 250.72 105.18 250.95 104.09 251.59C104.05 253.04 104.05 253.88 104.05 254.8C104.05 258.05 104.09 260.38 104.3 266.64C104.3 267.14 104.15 267.33 103.72 267.44C103.39 267.55 102.09 267.71 101.36 267.71C100.49 267.71 100.23 267.52 100.23 266.95V265.57H96.3098V265.58ZM84.6998 251.21H80.2398V260.69H80.4198C81.1798 259.54 81.4398 259.24 82.2298 258.17C83.3898 259.39 83.7198 259.77 84.7698 261.04L84.9198 261.23C84.9598 258.29 84.9598 256.45 84.9598 255.65C84.9598 254.08 84.9598 252.82 84.9198 251.18L84.6998 251.22V251.21ZM92.4298 250.45H88.7998V257.17H92.4298V250.45ZM92.4298 257.98H88.7998V264.78H92.4298V257.98ZM100.23 250.45H96.3098V257.17H100.23V250.45ZM100.23 257.98H96.3098V264.78H100.23V257.98Z" fill="#0A5E84"/>
<path d="M123.54 253.31C124.41 252.28 124.67 251.97 125.54 250.9C126.85 251.97 127.25 252.31 128.48 253.5C128.63 253.69 128.7 253.77 128.7 253.88C128.7 254.03 128.52 254.11 128.26 254.11H122.2V255.83C123.33 256.25 123.98 256.56 125.03 257.13C127.1 258.28 127.93 259.19 127.93 260.3C127.93 261.68 126.8 263.24 125.86 263.24C125.42 263.24 125.32 263.09 124.92 261.75C124.27 259.61 123.32 257.78 122.2 256.55V259.87C122.2 264.07 122.2 264.84 122.27 268.2C122.23 269.04 121.91 269.16 119.77 269.16C118.65 269.16 118.46 269.05 118.46 268.36C118.46 267.42 118.483 266.02 118.53 264.16C118.57 263.51 118.57 262.86 118.57 261.71V260.07C116.43 262.78 114.9 264.16 111.96 265.99L111.71 265.61C113.96 262.78 115.34 260.6 116.61 257.85C117.15 256.7 117.41 256.02 118.03 254.11H114.98C114.25 254.11 113.56 254.19 112.77 254.34L112.55 253C113.49 253.23 114.18 253.31 114.95 253.31H118.58V250.94C118.58 249.3 118.54 248.72 118.4 247.39C122.57 247.77 122.9 247.81 123.37 248C123.66 248.11 123.81 248.27 123.81 248.46C123.81 248.8 123.45 249.03 122.21 249.45V253.31H123.55H123.54ZM118.1 270.81C118.25 271.84 118.32 272.34 118.32 272.95C118.32 274.75 117.96 276.96 117.52 278.11C116.87 279.75 115.78 280.71 114.54 280.71C113.38 280.71 112.58 279.49 112.58 277.69C112.58 277.04 112.76 276.54 113.16 276.2C113.31 276.05 113.56 275.93 114.21 275.63C116.13 274.71 116.93 273.57 117.66 270.78L118.1 270.82V270.81ZM121.4 273.26C121.4 272.11 121.36 271.62 121.22 270.47C125.39 270.93 125.58 270.93 126.01 271.08C126.3 271.19 126.48 271.39 126.48 271.58C126.48 271.92 126.12 272.15 125.14 272.42V276.89C125.14 277.31 125.21 277.54 125.39 277.62C125.68 277.77 126.77 277.81 129.78 277.81C133.23 277.81 133.92 277.7 134.54 277.05C135.12 276.36 135.74 274.83 136.83 271.51L137.27 271.55L137.12 276.1V276.41C137.12 276.87 137.23 277.02 137.7 277.21C138.75 277.63 139.15 278.09 139.15 278.93C139.15 279.96 138.42 280.73 137.08 281.03C136.03 281.3 133.74 281.41 130.36 281.41C121.68 281.41 121.36 281.3 121.36 278.39V277.59C121.36 277.517 121.373 276.88 121.4 275.68V273.27V273.26ZM126.55 269.13C131.49 270.28 133.23 271.23 133.23 272.87C133.23 274.28 132.1 276 131.16 276C130.65 276 130.54 275.85 129.85 274.28C128.91 272.22 128.07 271.07 126.29 269.47L126.54 269.13H126.55ZM132.69 267.95C132.69 268.71 132.29 268.83 129.97 268.83C129.03 268.83 128.81 268.68 128.81 267.99C128.85 262.45 128.88 260.2 128.88 256.03C128.88 251.48 128.84 249.53 128.7 247.36C130.66 248.32 131.24 248.62 133.02 249.77H139.15C139.98 248.74 140.27 248.43 141.22 247.52C142.56 248.48 142.96 248.78 144.23 249.74C144.56 250.05 144.7 250.2 144.7 250.39C144.7 250.7 144.34 251 143.43 251.5V254.17C143.43 259.02 143.47 264.98 143.58 267.77C143.58 268.73 143.14 268.92 140.93 268.92C139.77 268.92 139.59 268.81 139.59 268.12V266.94H132.69V267.97V267.95ZM139.59 250.56H132.69V255.03H139.59V250.56ZM132.69 255.84V260.42H139.59V255.84H132.69ZM132.69 261.22V266.11H139.59V261.22H132.69ZM138.68 270.66C143.36 272.53 145.76 274.48 145.76 276.47C145.76 278.19 144.45 280.1 143.29 280.1C142.78 280.1 142.53 279.72 142.16 278.27C141.47 275.44 140.49 273.61 138.35 271.05L138.68 270.67V270.66Z" fill="#0A5E84"/>
<path d="M167.5 256.6V252.17C167.5 250.53 167.39 248.43 167.25 247.28C172.84 247.85 173.28 247.93 173.28 248.46C173.28 248.8 172.81 249.11 171.68 249.57V256.6H176.83C178.03 255.03 178.39 254.54 179.63 253.01C181.59 254.61 182.17 255.11 184.09 256.83C184.24 256.98 184.31 257.1 184.31 257.17C184.31 257.32 184.16 257.4 183.87 257.4H171.67V267.07H176.17C177.37 265.58 177.73 265.08 178.96 263.55C180.85 265.12 181.43 265.61 183.24 267.29C183.39 267.44 183.46 267.56 183.46 267.63C183.46 267.78 183.31 267.86 183.06 267.86H171.66V279.28H178.19C179.46 277.68 179.86 277.18 181.17 275.65C183.13 277.29 183.78 277.83 185.74 279.55C185.85 279.7 185.92 279.78 185.92 279.86C185.92 280.01 185.77 280.09 185.52 280.09H156.01C155.03 280.09 153.87 280.17 153.07 280.32L152.85 278.94C153.83 279.17 154.85 279.28 155.97 279.28H167.48V267.86H160.04C159.1 267.86 158.44 267.9 157.61 268.09L157.43 266.79C158.26 266.98 159.03 267.06 160.01 267.06H167.49V257.39H161.1C158.12 262.32 156.96 263.77 153.4 266.94L153.04 266.56C155.29 262.97 156.52 260.33 157.83 256.28C158.81 253.22 159.21 251.47 159.32 249.21C164.62 250.7 165.31 250.97 165.31 251.43C165.31 251.85 164.8 252.08 163.57 252.23C162.63 254.41 162.26 255.21 161.54 256.59H167.49L167.5 256.6Z" fill="#0A5E84"/>
<path d="M192.37 256.18C194.48 256.75 195.93 257.25 197.12 257.86C198.46 258.59 199.04 259.35 199.04 260.42C199.04 261.99 197.77 263.59 196.57 263.59C195.92 263.59 195.66 263.28 195.19 261.87C194.43 259.65 193.67 258.28 192.14 256.48L192.36 256.17L192.37 256.18ZM192.52 270.28C193.75 270.59 194.44 270.74 194.84 270.74C195.49 270.74 195.67 270.51 196.84 268.29C198.36 265.39 199.96 261.99 203.08 254.84L203.55 254.99L198.83 270.58C198.43 271.92 198.36 272.22 198.36 272.57C198.36 272.823 198.516 273.41 198.83 274.33C199.3 275.63 199.52 276.85 199.52 277.88C199.52 280.06 197.85 281.97 195.96 281.97C195.13 281.97 194.62 281.51 194.62 280.82C194.62 280.67 194.69 279.98 194.8 279.37C195.2 276.81 195.31 275.85 195.31 274.9C195.31 272.34 194.91 271.8 192.41 270.74L192.52 270.28ZM194.7 247.93C200.04 249.15 201.67 250.18 201.67 252.17C201.67 253.58 200.44 255.15 199.35 255.15C198.81 255.15 198.59 254.88 197.93 253.39C197.17 251.56 196.3 250.26 194.55 248.27L194.7 247.93ZM211 252.97C207.84 253.31 206.28 253.43 202.8 253.54L202.76 253.08C206.68 252.24 209.69 251.36 212.85 250.14C216.15 248.84 217.75 248.04 219.24 246.85C222.91 249.45 223.74 250.14 223.74 250.56C223.74 250.79 223.52 250.98 223.2 250.98C222.76 250.98 222.18 250.87 221.6 250.67C218.62 251.63 217.39 251.97 214.96 252.39V259.95H219.53C220.47 258.77 221.38 257.62 222.25 256.55C224.07 258.04 224.61 258.54 226.32 260.14C226.47 260.33 226.54 260.41 226.54 260.52C226.54 260.67 226.4 260.75 226.1 260.75H214.96V268.39H218.59C219.53 267.28 219.82 266.94 220.77 265.94C222.15 266.9 222.55 267.2 223.82 268.23C224.15 268.54 224.29 268.73 224.29 268.92C224.29 269.26 224.04 269.53 222.91 270.22V272.4C222.91 274.88 222.91 275.57 223.13 281.11C223.13 281.49 223.06 281.72 222.8 281.84C222.44 282.11 221.53 282.22 220.22 282.22C219.06 282.22 218.91 282.14 218.91 281.46V279.55H207.51V281.27C207.51 281.65 207.47 281.81 207.29 281.96C207.04 282.19 205.98 282.34 204.57 282.34C203.59 282.34 203.3 282.15 203.3 281.58V281.43C203.48 277.26 203.52 276.31 203.52 274.13C203.52 270.12 203.45 267.94 203.3 266.03C205.33 267.02 205.95 267.33 207.8 268.4H210.99V260.76H204.49C203.69 260.76 203.29 260.8 202.6 260.95L202.35 259.73C203.04 259.88 203.69 259.96 204.53 259.96H210.99V252.97H211ZM207.51 278.76H218.91V269.21H207.51V278.76Z" fill="#0A5E84"/>
<path d="M250.82 253.89C252.35 250.3 252.89 248.73 253.25 246.86C258.88 248.39 259.2 248.5 259.2 249.04C259.2 249.46 258.73 249.69 257.89 249.69H257.49C255.13 251.79 254.48 252.33 252.37 253.89H258.72C259.92 252.44 260.28 251.98 261.48 250.6C263.37 252.01 263.91 252.43 265.65 253.96C265.83 254.19 265.9 254.3 265.9 254.42C265.9 254.57 265.72 254.69 265.43 254.69H251.49C249.67 257.02 248.88 257.94 247.1 259.7H255.74C256.61 258.63 256.9 258.32 257.85 257.29C259.27 258.32 259.7 258.63 260.97 259.66C261.33 259.97 261.44 260.16 261.44 260.35C261.44 260.73 261.15 261 260.21 261.42V267.61C260.21 274.26 260.25 276.51 260.39 280.83C260.35 281.79 259.74 282.05 257.41 282.05C256.36 282.05 256.18 281.94 256.14 281.21V279.61H241.76V281.02C241.72 281.4 241.65 281.55 241.51 281.71C241.18 281.94 240.24 282.13 239.15 282.13C237.84 282.13 237.59 281.94 237.59 281.1C237.73 275.9 237.77 272.77 237.77 266.85C237.77 262.57 237.73 260.47 237.59 257.3C239.66 258.29 240.28 258.6 242.16 259.71H245.39C246.12 256.08 246.15 255.74 246.26 254.7H236.5C234.94 254.7 234.07 254.78 233.01 254.97L232.76 253.52C233.99 253.79 235.23 253.9 236.54 253.9H243.22C242.926 253.693 242.563 252.953 242.13 251.68C241.51 249.92 240.86 248.85 239.48 247.4L239.7 247.02C242.35 247.75 243.44 248.17 244.42 248.74C245.65 249.5 246.2 250.27 246.2 251.19C246.2 252.3 245.66 253.25 244.64 253.9H250.81L250.82 253.89ZM256.16 265.54V260.5H241.78V265.54H256.16ZM241.78 266.34V271.96H256.16V266.34H241.78ZM241.78 272.76V278.8H256.16V272.76H241.78Z" fill="#0A5E84"/>
<path d="M279.68 273.91C280.33 275.32 280.84 275.82 282.15 276.43C285.13 273.91 286.22 272.65 287.27 270.62C289.34 271.27 291.44 272.03 291.81 272.22C292.1 272.37 292.21 272.49 292.21 272.68C292.21 272.83 292.1 272.99 291.99 273.02C291.77 273.1 291.41 273.17 290.9 273.17C290.79 273.17 290.68 273.21 290.5 273.21C288.1 274.89 286.18 275.81 282.84 276.73C284.36 277.23 286.69 277.46 290.17 277.46C292.37 277.46 296.46 277.27 302.44 276.89C304.55 276.74 304.91 276.74 306.22 276.58L306.26 276.96C304.7 277.76 304.23 278.45 303.86 280.55C303.79 280.89 303.68 281.01 303.24 281.01C302.66 281.05 295.25 281.16 293.51 281.16C288.5 281.16 285.92 280.89 284.18 280.17C281.78 279.18 280.33 277.46 278.92 274.02C277.07 277.31 276.71 277.84 274.89 280.17C274.96 280.63 275 280.97 275 281.13C275 281.59 274.82 281.93 274.53 281.93C274.31 281.93 274.02 281.59 273.7 280.97C272.733 279.11 272.02 277.67 271.56 276.65C273.16 276.04 273.45 275.89 275.92 274.43V263.81H273.85C273.09 263.81 272.69 263.85 272.07 264L271.67 262.74C272.61 262.93 273.3 263.01 273.85 263.01H275.63C276.43 261.98 276.72 261.63 277.66 260.6C278.93 261.59 279.29 261.9 280.53 262.89C280.78 263.16 280.93 263.39 280.93 263.5C280.93 263.69 280.75 263.96 280.49 264.15C280.13 264.457 279.876 264.673 279.73 264.8L279.69 273.89L279.68 273.91ZM273.18 247.74C273.52 247.947 274.33 248.407 275.61 249.12C278.55 250.8 279.82 252.18 279.82 253.78C279.82 255.38 278.44 257.3 277.17 257.3C276.52 257.3 276.23 256.88 275.86 255.39C275.03 251.95 274.41 250.42 272.88 248.02L273.17 247.75L273.18 247.74ZM291.73 256.1V256.14C291.73 256.33 291.88 256.48 292.24 256.6C292.78 256.79 293.07 257.21 293.07 257.82C293.07 258.58 292.63 259.12 291.87 259.42C291.33 259.61 289.69 259.76 288.02 259.76C286.71 259.76 284.43 259.68 284.06 259.65C282.28 259.42 281.88 258.92 281.88 256.82V256.44C281.92 255.33 281.95 254.87 281.95 253.42C281.95 252.46 281.91 251.97 281.77 250.97C283.33 251.7 283.84 251.96 285.36 252.84H288.48V249.67H283.58C282.82 249.67 282.16 249.75 281.29 249.86L281 248.56C281.76 248.75 282.74 248.87 283.58 248.87H288.23C288.99 248.03 289.25 247.8 290.05 247.04C290.96 247.69 291.79 248.34 292.63 248.99C292.85 249.18 292.92 249.3 292.92 249.41C292.92 249.72 292.85 249.79 291.9 250.52C291.86 250.9 291.86 251.09 291.86 251.36V252.12C291.9 253 291.9 253.19 291.9 253.88C291.79 254.49 291.28 254.64 289.36 254.64C288.74 254.64 288.56 254.53 288.49 254.07V253.65H285.19V256.17C285.19 256.74 285.26 256.9 285.73 256.93C285.87 256.97 286.96 257.01 287.87 257.01H288.7C290.08 257.01 290.33 256.74 291.64 254.56L291.93 254.64L291.71 256.09L291.73 256.1ZM294.75 264.09V263.02C294.75 261.95 294.71 261.49 294.57 260.46C298.16 260.69 299.47 260.96 299.47 261.45C299.47 261.76 299.11 261.98 298.31 262.29V264.09H299.54C300.34 263.06 300.63 262.71 301.46 261.68C302.84 262.79 303.24 263.17 304.62 264.39C304.73 264.5 304.8 264.62 304.8 264.66C304.8 264.81 304.62 264.89 304.4 264.89H298.3V269.47H300.04C301.02 268.25 301.31 267.9 302.29 266.8C303.74 268.06 304.18 268.44 305.56 269.7C305.67 269.81 305.74 269.93 305.74 270.01C305.74 270.16 305.56 270.28 305.34 270.28H283.31C283.16 270.28 282.95 270.28 282.62 270.32C282.58 270.32 282.47 270.36 282.4 270.36C282.206 270.36 282.013 270.387 281.82 270.44C281.626 270.493 281.516 270.507 281.49 270.48L281.13 269.18C281.93 269.37 282.8 269.49 283.31 269.49H286.69V264.91H284.33C284.11 264.91 283.5 264.95 282.51 265.06L282.26 263.8C283.02 263.99 283.71 264.11 284.33 264.11H286.69V263.12C286.69 262.01 286.65 261.48 286.47 260.48C287.2 260.52 287.74 260.56 288.07 260.59C288.87 260.7 289.38 260.74 289.59 260.74C290.79 260.78 291.48 261.05 291.48 261.47C291.48 261.78 291.12 262.04 290.28 262.35V264.11H294.74L294.75 264.09ZM290.28 269.48H294.74V264.9H290.28V269.48ZM303.86 254.69L303.72 255.8V255.91C303.79 256.29 303.83 256.33 304.34 256.52C305.1 256.79 305.43 257.17 305.43 257.82C305.43 258.35 305.1 258.89 304.56 259.2C303.83 259.58 302.53 259.74 299.51 259.74H298.46C298.1 259.78 297.84 259.78 297.73 259.78C296.21 259.78 294.86 259.47 294.5 259.09C294.06 258.56 294.03 258.36 293.99 255.12C293.95 252.71 293.92 251.38 293.88 251.11C295.48 251.68 295.95 251.91 297.47 252.87H300.56V249.7H295.51C294.82 249.7 294.39 249.74 293.59 249.89L293.34 248.67C294.03 248.78 295.12 248.9 295.52 248.9H300.31C301 248.06 301.22 247.83 301.94 247.03C303.14 247.87 303.5 248.14 304.66 249.09C304.88 249.24 304.95 249.36 304.95 249.47C304.95 249.66 304.8 249.89 304.59 250.04C304.276 250.267 304.07 250.42 303.97 250.5V253.4C303.97 253.51 303.97 253.67 304.01 253.9C303.94 254.47 303.32 254.66 301.54 254.66C300.78 254.66 300.6 254.55 300.56 254.05V253.67H297.29V256.38C297.29 256.8 297.47 256.95 297.98 256.95L298.34 256.91C298.78 256.91 298.88 256.91 299.61 256.95H299.86C301.06 256.95 301.78 256.84 302.07 256.61C302.25 256.5 302.54 256.15 302.9 255.65L303.26 255.08C303.37 254.93 303.48 254.77 303.59 254.62L303.84 254.7L303.86 254.69ZM294.35 271.08C296.82 271.31 298.38 271.54 299.72 271.88C300.63 272.11 301.5 272.53 302.01 273.03C302.41 273.41 302.59 273.91 302.59 274.71C302.59 275.97 301.94 276.77 300.96 276.77C300.38 276.77 299.98 276.5 299.29 275.7C297.8 273.83 296.1 272.41 294.17 271.42L294.35 271.08Z" fill="#0A5E84"/>
</g>
<path d="M90.0701 125.65V127.14C90.0701 131.62 90.1201 137.75 90.2501 141.94C90.2501 143.15 89.6501 143.39 86.6801 143.39C84.6601 143.39 84.4401 143.24 84.4401 142.18C84.6201 135.86 84.6201 134.18 84.6701 125.64H74.7801V128.2C74.7801 129.36 74.2301 129.55 71.5301 129.55C69.5601 129.55 69.3301 129.4 69.3301 128.34C69.5601 120.29 69.5601 119.76 69.5601 115.71C69.5601 111.66 69.5101 109.88 69.3301 106.74C72.1201 108.04 72.9901 108.48 75.6501 110.07H84.7201C84.6867 104.603 84.5634 100.953 84.3501 99.1201C85.8201 99.2201 87.0101 99.3101 87.7401 99.3601C91.2201 99.6501 92.0501 99.8901 92.0501 100.52C92.0501 100.95 91.5501 101.29 90.0301 101.77V110.06H100.06C101.3 108.61 101.66 108.18 102.9 106.78C104.69 108.08 105.19 108.47 106.79 109.67C107.29 110.1 107.48 110.39 107.48 110.73C107.48 111.16 107.11 111.5 105.88 112.18C105.88 119.8 105.93 121.82 106.15 128C106.15 129.3 105.6 129.54 102.49 129.54C100.89 129.54 100.66 129.39 100.66 128.48V125.64H90.0801L90.0701 125.65ZM84.7101 119.92V111.1H74.7701V124.65H84.6601L84.7101 119.92ZM100.65 111.09H90.0201V124.64H100.65V111.09Z" fill="#0A5E84" stroke="#0A5E84" stroke-width="0.45" stroke-miterlimit="10"/>
<path d="M115.63 143.06C118.97 140.99 121.59 139.01 124.42 136.41C126.48 134.48 127.21 133.61 128.27 131.93C129.6 132.56 130.65 133.04 131.29 133.38C133.85 134.54 134.5 134.92 134.5 135.4C134.5 135.79 134.09 136.03 133.4 136.03C133.17 136.03 132.44 135.98 131.93 135.98C126.48 139.89 122.4 141.81 115.85 143.5L115.62 143.07L115.63 143.06ZM141.79 101.64C142.66 100.53 142.94 100.19 143.85 99.1802C145 100.14 145.36 100.43 146.46 101.45C146.87 101.79 147.01 101.98 147.01 102.13C147.01 102.23 146.92 102.42 146.74 102.61C147.29 102.75 147.61 102.8 148.21 102.8H150.64C151.6 101.69 151.92 101.35 152.93 100.24C154.49 101.4 154.95 101.78 156.41 102.99C156.87 103.38 157.01 103.62 157.01 103.91C157.01 104.3 156.55 104.63 155.41 105.16L154.72 129.85H154.81C155.483 128.79 156.14 127.777 156.78 126.81C158.02 128.3 158.38 128.74 159.44 130.23C159.58 130.37 159.62 130.52 159.62 130.62C159.62 130.76 159.44 130.86 159.16 130.86H118.71C117.61 130.86 117.11 130.91 116.15 131.2L115.88 129.56C116.98 129.8 117.53 129.85 118.67 129.85H119.63L119.13 109.41C119.04 106.37 118.9 103.96 118.67 101.65C120.69 102.61 121.28 102.95 123.07 104.11C124.58 102.13 125.13 101.17 125.86 99.3802C127.28 100.63 127.78 101.07 128.52 101.79C128.52 100.97 128.47 100.54 128.38 98.9402C130.4 100 131.04 100.34 133.01 101.64H141.8H141.79ZM128.55 104.15V103.57L127.82 103.43C127.36 103.62 125.9 104.15 123.47 105.02L123.65 111.82H124.52C125.21 110.66 125.39 110.28 126.17 109.12C127.27 110.47 127.59 110.86 128.51 112.11L128.56 112.16V104.16L128.55 104.15ZM128.09 112.88H123.65L123.88 120.84H124.52L126.21 118.04C127.26 119.34 127.58 119.73 128.45 120.93L128.54 121.08V112.83L128.08 112.88H128.09ZM128.55 121.75C128.32 121.85 128.23 121.85 128 121.85H123.88L124.06 129.85H128.55V121.75ZM142.15 129.85V107.91C141.97 108.1 141.92 108.1 141.55 108.1H135.05C134.36 108.1 134 108.15 133.31 108.34L133.08 106.8C133.86 107.04 134.27 107.09 135.05 107.09H137.34C138.12 105.98 138.39 105.69 139.17 104.63C140.41 105.79 140.77 106.12 141.96 107.38L142.14 107.67V102.66H132.43V129.85H142.14H142.15ZM136.43 126.18C136.43 126.76 136.06 126.9 134.83 126.9C133.96 126.9 133.78 126.8 133.78 126.32C133.87 123.76 133.87 122.94 133.87 120C133.87 113.92 133.87 112.57 133.73 110.6C134.92 111.23 135.29 111.42 136.39 112.14H138.04C138.64 111.37 138.82 111.18 139.41 110.45C140.23 111.17 140.51 111.41 141.29 112.19C141.56 112.43 141.7 112.62 141.7 112.77C141.7 113.01 141.47 113.25 140.78 113.59V122.41C140.78 122.8 140.78 124.15 140.83 125.79C140.83 126.51 140.56 126.66 139.09 126.66C138.36 126.66 138.22 126.56 138.22 126.13V124.35H136.43V126.18ZM136.43 123.34H138.22V113.17H136.43V123.34ZM140.46 132.6C146.6 133.81 147.42 133.95 148.89 134.38C153.79 135.78 155.39 137.08 155.39 139.68C155.39 141.51 154.43 143.06 153.33 143.06C152.6 143.06 152.46 142.96 150.86 141.13C148.52 138.57 144.81 135.73 140.28 133.08L140.46 132.6ZM150.26 129.85L150.49 121.41H148.29C147.47 121.41 147.24 121.41 146.64 121.6L146.41 120.15C147.1 120.34 147.42 120.39 148.29 120.39H150.49L150.72 112.53H148.29C147.6 112.53 147.19 112.58 146.69 112.72L146.51 111.27C147.2 111.46 147.61 111.51 148.25 111.51H150.77L150.95 103.8H148.2C147.56 103.8 147.1 103.85 146.46 103.99L146.32 102.93L146.05 103.12V129.83H150.26V129.85Z" fill="#0A5E84" stroke="#0A5E84" stroke-width="0.45" stroke-miterlimit="10"/>
<path d="M179.45 134.09C182.52 133.42 183.21 133.27 185.77 132.6L185.86 133.18C181 136.02 177.16 137.91 169.28 141.09C169.19 142.58 168.96 143.16 168.5 143.16C167.95 143.16 167.58 142.2 166.16 136.26C167.26 136.21 167.63 136.16 168.4 136.12V124.07C168.4 122.67 168.35 121.71 168.13 119.78C169.41 119.93 170.37 120.07 170.97 120.12C173.44 120.41 174.18 120.65 174.18 121.18C174.18 121.52 173.81 121.76 172.71 122.19V135.4L175 134.97V114.72H172.8V116.12C172.8 116.94 172.21 117.13 169.91 117.13C168.35 117.13 168.17 117.03 168.17 116.21C168.26 113.08 168.31 108.64 168.31 103.82C168.31 102.52 168.26 101.41 168.13 99.3401C170.37 100.45 171.02 100.79 173.17 102.09H178.58C179.54 100.88 179.86 100.55 180.82 99.3401C182.38 100.45 182.84 100.83 184.35 101.99C184.76 102.38 184.95 102.62 184.95 102.81C184.95 103.24 184.63 103.58 183.44 104.3V107.77C183.44 109.65 183.44 110.47 183.53 115.2C183.53 116.26 183.03 116.5 180.55 116.5C180.23 116.5 179.95 116.5 179.45 116.45V122.91H180.5C181.42 121.51 181.74 121.13 182.7 119.82C184.17 121.27 184.58 121.7 185.95 123.19C186.04 123.34 186.13 123.48 186.13 123.62C186.13 123.76 185.9 123.91 185.63 123.91H179.45V134.08V134.09ZM172.8 113.7H178.94V103.09H172.8V113.7ZM199.88 104.68C201.12 103.43 201.48 103.09 202.67 101.88C204.46 103.33 205.01 103.76 206.66 105.21C207.07 105.6 207.21 105.84 207.21 106.03C207.21 106.51 206.8 106.75 205.19 107.24C202.72 111.77 201.48 113.7 199.1 116.45C202.4 118.43 204.78 119.15 210.41 119.87V120.35C209.08 121.36 208.26 122.81 207.94 124.64C207.85 125.27 207.71 125.46 207.44 125.46C207.21 125.46 206.57 125.22 204.87 124.45C201.89 123.1 199.33 121.32 196.9 118.81C194.61 121.03 192.09 123.01 189.39 124.64C190.63 125.32 190.9 125.46 192.41 126.33H200.24C200.853 125.69 201.603 124.903 202.49 123.97C204 125.03 204.51 125.37 206.02 126.53C206.52 126.87 206.71 127.11 206.71 127.35C206.71 127.74 206.44 128.03 205.38 128.65C205.43 135.79 205.43 135.88 205.47 137.18C205.53 139.107 205.577 140.553 205.61 141.52V141.71C205.61 142.63 204.92 142.87 202.4 142.87C200.84 142.87 200.61 142.77 200.61 141.95V140.07H191.91V141.9C191.91 142.96 191.36 143.15 188.7 143.15C187.19 143.15 186.96 143.05 186.96 142.23C187.1 137.36 187.14 135.33 187.14 132.15V125.93C185.54 126.75 184.53 127.18 181.92 128.2L181.69 127.67C187.23 123.81 190.85 120.44 194.42 115.81C193 113.74 192.31 112.39 191.26 109.45C189.2 112.54 187.59 114.22 183.98 117.21L183.57 116.87C186.13 112.77 187.33 110.22 188.65 105.83C189.66 102.55 190.07 100.91 190.39 98.6001C196.62 100.05 197.54 100.34 197.54 100.91C197.54 101.39 196.9 101.63 195.43 101.87C194.74 103.27 194.56 103.7 194.1 104.67H199.87L199.88 104.68ZM193.55 105.69C192.95 106.85 192.68 107.33 191.86 108.58C193.28 111.28 194.01 112.24 195.8 113.98C197.72 111.14 198.59 109.45 200.11 105.69H193.56H193.55ZM191.9 139.06H200.6V127.34H191.9V139.06Z" fill="#0A5E84" stroke="#0A5E84" stroke-width="0.45" stroke-miterlimit="10"/>
<path d="M256.27 126.62C256.27 130.347 256.287 133.433 256.32 135.88V138.53C256.27 140.22 255.95 140.94 254.9 141.76C253.89 142.48 251.69 143.16 250.23 143.16C249.82 143.16 249.73 143.02 249.73 142.34C249.68 141.23 249.5 140.36 249.18 139.74C248.77 138.97 248.4 138.73 246.34 137.96C246.29 138.59 246.11 138.83 245.7 138.97C245.29 139.11 244.14 139.26 243.18 139.26C242.13 139.26 241.81 139.07 241.76 138.3V136.85H234.29V139.21C234.29 139.64 234.15 139.79 233.88 139.93C233.47 140.12 232.23 140.22 230.81 140.22C230.03 140.22 229.76 140.03 229.71 139.55C229.76 137.24 229.8 136.32 229.8 134.58C229.8 129.42 229.75 126.58 229.71 124.6C228.24 125.18 227.69 125.37 225.86 125.85L225.63 125.32C228.61 123.29 229.84 121.56 230.49 118.81C230.76 117.46 230.86 116.59 230.95 114.23H224.9V130.05L224.95 141.86C224.81 143.07 224.35 143.21 221.19 143.21C220 143.21 219.82 143.07 219.72 142.25C219.9 136.42 219.99 132.99 219.99 128.31C219.99 116.74 219.99 116.59 219.72 110.13C222.28 111.38 223.02 111.77 225.31 113.22H230.3C229.66 112.74 229.57 112.5 229.29 111.2C228.92 109.13 228.24 107.58 227 105.85L227.14 105.66H221.23C220.45 105.66 219.58 105.76 217.98 106L217.61 104.17C219.4 104.51 220.4 104.65 221.23 104.65H235.11V101.81C235.11 100.8 235.06 100.07 234.93 98.5801C236.62 98.7301 237.91 98.8701 238.73 98.9201C241.57 99.1101 242.49 99.3501 242.49 99.9801C242.49 100.46 242.12 100.66 240.47 101.23V104.65H250.55C252.02 102.82 252.47 102.29 254.08 100.6C256.46 102.48 257.15 103.11 259.44 105.08C259.49 105.18 259.58 105.27 259.58 105.32C259.58 105.51 259.35 105.66 259.12 105.66H244.87C247.02 106.38 248.9 107.11 249.86 107.54C250.18 107.73 250.41 107.97 250.41 108.17C250.41 108.65 250.09 108.8 248.35 108.94C245.1 111.79 244.69 112.12 243.17 113.23H250.96C252.06 112.02 252.38 111.69 253.48 110.48C255.5 111.88 256.04 112.31 257.74 113.81C257.92 114 258.01 114.15 258.01 114.29C258.01 114.68 257.6 114.96 256.27 115.69V126.64V126.62ZM227.82 105.64C230.29 106.7 231.49 107.28 232.4 107.81C233.54 108.49 234.14 109.4 234.14 110.61C234.14 111.82 233.54 112.73 232.45 113.21H241.15C242.29 110.9 243.26 108 243.76 105.64H227.82ZM241.43 126.76C242.39 125.7 242.71 125.36 243.81 124.25C245.41 125.36 245.92 125.7 247.34 126.76C247.57 126.95 247.66 127.1 247.66 127.24C247.66 127.63 247.2 128.06 246.24 128.59V130.76C246.24 131.63 246.24 131.82 246.29 133.6C246.29 134.76 246.34 135.72 246.34 136.49V137.31C247.67 137.5 248.36 137.55 250.65 137.65C251.15 137.65 251.34 137.5 251.34 137.12V114.22H243.78V118.75C243.78 119.71 243.82 119.71 246.02 119.71C246.8 119.71 246.98 119.61 247.26 119.13C247.58 118.45 247.67 118.12 248.68 115.18H249.09L249.18 118.36C249.18 119.03 249.27 119.18 249.68 119.37C250.64 119.8 250.92 120.24 250.92 121.15C250.92 122.79 249.77 123.32 246.16 123.32C241.72 123.32 240.89 123.22 240.2 122.6C239.74 122.21 239.65 121.64 239.65 119.08V114.21H235.71C235.3 119.42 233.97 121.83 230.21 124.24C232.41 125.35 232.82 125.54 234.75 126.75H241.44L241.43 126.76ZM234.28 135.83H241.75V127.78H234.28V135.83Z" fill="#0A5E84" stroke="#0A5E84" stroke-width="0.45" stroke-miterlimit="10"/>
<path d="M274.14 142C274.14 142.29 274.05 142.48 273.91 142.58C273.64 142.82 272.35 143.06 271.07 143.06H270.57C269.52 143.06 269.1 142.82 269.1 142.05V141.86C269.33 131.54 269.37 128.02 269.37 123.44C269.37 113.07 269.28 103.24 269.1 98.9001C271.53 100.01 272.31 100.44 274.78 101.99H302.22C303.41 100.64 303.78 100.25 304.88 99.1001C306.57 100.35 307.08 100.74 308.68 102.04C309.05 102.33 309.18 102.52 309.18 102.81C309.18 103.34 308.86 103.63 307.53 104.4L307.48 120.55V125.71C307.48 128.6 307.53 133.96 307.62 141.81C307.62 142.2 307.57 142.34 307.44 142.48C307.12 142.77 305.7 142.96 303.96 142.96C302.95 142.96 302.68 142.77 302.68 142V140.12H274.14V142ZM274.14 139.11H302.68V102.99H274.14V139.11ZM290.35 113.07C291.13 114.85 291.72 115.77 293.14 117.31H295.84C296.693 116.183 297.487 115.153 298.22 114.22C299.82 115.62 300.33 116.05 301.98 117.6C302.12 117.74 302.26 117.99 302.26 118.03C302.26 118.22 302.08 118.32 301.85 118.32H294.2C296.63 120.44 298.74 121.55 302.49 122.66V123.05C301.3 123.68 300.84 124.35 300.2 126.23C300.06 126.62 299.93 126.76 299.7 126.76C299.2 126.76 297.73 125.65 296.04 124.06C295.67 124.3 295.58 124.35 295.21 124.49C294.94 127.48 294.84 128.3 294.52 129.12C294.02 130.33 293.28 130.81 291.68 131.14C291.27 131.19 290.49 131.28 290.08 131.28C289.62 131.28 289.53 131.18 289.48 130.56C289.43 129.74 289.16 129.07 288.61 128.49C288.11 128.01 287.46 127.77 285.91 127.43V126.85C287.56 127.04 289.44 127.19 289.94 127.19C290.9 127.19 291.04 126.85 291.18 123.48H284.63V132.11C284.63 133.03 284.72 133.12 285.64 133.12H286.01L289.63 133.22C291.78 133.22 294.07 133.08 294.53 132.93C295.03 132.74 295.9 131.1 297.46 127.34H297.83L297.6 131.29C297.56 131.48 297.56 131.68 297.56 131.77C297.56 132.16 297.7 132.35 298.29 132.54C299.3 132.93 299.71 133.41 299.71 134.28C299.71 135.58 298.79 136.4 297.05 136.69C296.13 136.84 291.28 137.03 288.3 137.03C282.21 137.03 280.56 136.4 280.47 134.04V123.77C278.59 125.41 277.4 126.28 274.7 127.82L274.38 127.34C277.27 124.54 279.51 121.65 281.34 118.32H278.87C277.5 118.32 276.9 118.37 275.62 118.66L275.3 116.92C276.67 117.21 277.73 117.31 278.87 117.31H281.85C282.45 116.35 283.13 114.85 283.77 113.07H282.53C281.43 113.07 280.84 113.12 279.74 113.36L279.47 112.11C277.45 113.99 276.95 114.33 274.57 115.82L274.29 115.48C276.9 111.91 278.96 107.91 279.74 104.87C280.66 105.16 281.34 105.35 281.8 105.5C281.98 105.55 282.07 105.6 282.17 105.6C284.6 106.23 285.15 106.47 285.15 106.9C285.15 107.29 284.69 107.48 283.41 107.58C282.08 109.46 281.35 110.28 279.79 111.82C280.8 111.96 281.48 112.06 282.36 112.06H284.15C285.02 109.46 285.57 106.9 285.75 104.3C291.34 105.17 291.84 105.31 291.84 105.8C291.84 106.19 291.52 106.38 290.24 106.81C289.41 109.37 289.05 110.43 288.36 112.07H291.66C292.67 110.91 292.99 110.53 294 109.42C295.47 110.67 295.92 111.11 297.39 112.46C297.53 112.61 297.62 112.8 297.62 112.89C297.62 112.98 297.48 113.08 297.25 113.08H290.38L290.35 113.07ZM285.04 118.32C284.08 119.77 283.62 120.39 282.75 121.45L284.63 122.46H291C291.87 121.64 292.15 121.4 293.02 120.63C292.88 120.39 292.79 120.2 292.7 120.1C292.06 119.04 291.92 118.85 291.65 118.32H285.05H285.04ZM287.88 113.07C287.06 114.85 286.51 115.87 285.68 117.31H291.09C290.36 115.82 290.04 114.9 289.53 113.07H287.88ZM293.38 105.5C299.93 107.14 301.35 108.01 301.35 110.42C301.35 112.06 300.57 113.46 299.7 113.46C299.33 113.46 298.97 113.12 298.51 112.3C297.46 110.47 295.03 107.62 293.1 105.98L293.37 105.5H293.38Z" fill="#0A5E84" stroke="#0A5E84" stroke-width="0.45" stroke-miterlimit="10"/>
<path d="M139.21 166.5H239.29" stroke="#0A5E84" stroke-width="0.91" stroke-miterlimit="10"/>
</svg>
